<?xml version="1.0" encoding="utf-8" standalone="no"?>
<!DOCTYPE svg PUBLIC "-//W3C//DTD SVG 1.1//EN"
  "http://www.w3.org/Graphics/SVG/1.1/DTD/svg11.dtd">
<svg xmlns:xlink="http://www.w3.org/1999/xlink" width="608.152pt" height="497.272pt" viewBox="0 0 608.152 497.272" xmlns="http://www.w3.org/2000/svg" version="1.1">
 <metadata>
  <rdf:RDF xmlns:dc="http://purl.org/dc/elements/1.1/" xmlns:cc="http://creativecommons.org/ns#" xmlns:rdf="http://www.w3.org/1999/02/22-rdf-syntax-ns#">
   <cc:Work>
    <dc:type rdf:resource="http://purl.org/dc/dcmitype/StillImage"/>
    <dc:date>2026-03-11T15:30:52.434889</dc:date>
    <dc:format>image/svg+xml</dc:format>
    <dc:creator>
     <cc:Agent>
      <dc:title>Matplotlib v3.10.8, https://matplotlib.org/</dc:title>
     </cc:Agent>
    </dc:creator>
   </cc:Work>
  </rdf:RDF>
 </metadata>
 <defs>
  <style type="text/css">*{stroke-linejoin: round; stroke-linecap: butt}</style>
 </defs>
 <g id="figure_1">
  <g id="patch_1">
   <path d="M 0 497.272 
L 608.152 497.272 
L 608.152 0 
L 0 0 
z
" style="fill: #ffffff"/>
  </g>
  <g id="axes_1">
   <g id="patch_2">
    <path d="M 450.72 268.312 
C 450.72 239.190744 444.983747 210.352655 433.839525 183.448122 
C 422.695303 156.543589 406.359838 132.095838 385.768 111.504 
C 365.176162 90.912162 340.728411 74.576697 313.823878 63.432475 
C 286.919345 52.288253 258.081256 46.552 228.96 46.552 
C 199.838744 46.552 171.000655 52.288253 144.096122 63.432475 
C 117.191589 74.576697 92.743838 90.912162 72.152 111.504 
C 51.560162 132.095838 35.224697 156.543589 24.080475 183.448122 
C 12.936253 210.352655 7.2 239.190744 7.2 268.312 
C 7.2 297.433256 12.936253 326.271345 24.080475 353.175878 
C 35.224697 380.080411 51.560162 404.528162 72.152 425.12 
C 92.743838 445.711838 117.191589 462.047303 144.096122 473.191525 
C 171.000655 484.335747 199.838744 490.072 228.96 490.072 
C 258.081256 490.072 286.919345 484.335747 313.823878 473.191525 
C 340.728411 462.047303 365.176162 445.711838 385.768 425.12 
C 406.359838 404.528162 422.695303 380.080411 433.839525 353.175878 
C 444.983747 326.271345 450.72 297.433256 450.72 268.312 
M 228.96 268.312 
C 228.96 268.312 228.96 268.312 228.96 268.312 
C 228.96 268.312 228.96 268.312 228.96 268.312 
C 228.96 268.312 228.96 268.312 228.96 268.312 
C 228.96 268.312 228.96 268.312 228.96 268.312 
C 228.96 268.312 228.96 268.312 228.96 268.312 
C 228.96 268.312 228.96 268.312 228.96 268.312 
C 228.96 268.312 228.96 268.312 228.96 268.312 
C 228.96 268.312 228.96 268.312 228.96 268.312 
C 228.96 268.312 228.96 268.312 228.96 268.312 
C 228.96 268.312 228.96 268.312 228.96 268.312 
C 228.96 268.312 228.96 268.312 228.96 268.312 
C 228.96 268.312 228.96 268.312 228.96 268.312 
C 228.96 268.312 228.96 268.312 228.96 268.312 
C 228.96 268.312 228.96 268.312 228.96 268.312 
C 228.96 268.312 228.96 268.312 228.96 268.312 
C 228.96 268.312 228.96 268.312 228.96 268.312 
z
" style="fill: #fafaf8"/>
   </g>
   <g id="matplotlib.axis_1">
    <g id="xtick_1">
     <g id="line2d_1">
      <path d="M 228.96 268.312 
L 450.72 268.312 
" clip-path="url(#pfce13d326c)" style="fill: none; stroke-dasharray: 1.85,0.8; stroke-dashoffset: 0; stroke: #d0d0d0; stroke-opacity: 0.8; stroke-width: 0.5"/>
     </g>
     <g id="text_1">
      <!-- Breakout -->
      <g transform="translate(441.325 271.001687) scale(0.12 -0.12)">
       <defs>
        <path id="TimesNewRomanPS-BoldMT-42" d="M 2847 2247 
Q 3450 2106 3694 1906 
Q 4044 1622 4044 1169 
Q 4044 691 3659 378 
Q 3188 0 2288 0 
L 134 0 
L 134 116 
Q 428 116 533 170 
Q 638 225 680 312 
Q 722 400 722 744 
L 722 3494 
Q 722 3838 680 3927 
Q 638 4016 531 4069 
Q 425 4122 134 4122 
L 134 4238 
L 2166 4238 
Q 2894 4238 3197 4108 
Q 3500 3978 3675 3720 
Q 3850 3463 3850 3172 
Q 3850 2866 3628 2627 
Q 3406 2388 2847 2247 
z
M 1709 2331 
Q 2153 2331 2364 2431 
Q 2575 2531 2687 2712 
Q 2800 2894 2800 3175 
Q 2800 3456 2689 3636 
Q 2578 3816 2372 3909 
Q 2166 4003 1709 4000 
L 1709 2331 
z
M 1709 2088 
L 1709 728 
L 1706 572 
Q 1706 403 1792 317 
Q 1878 231 2047 231 
Q 2297 231 2508 342 
Q 2719 453 2831 664 
Q 2944 875 2944 1134 
Q 2944 1431 2806 1667 
Q 2669 1903 2428 1997 
Q 2188 2091 1709 2088 
z
" transform="scale(0.015625)"/>
        <path id="TimesNewRomanPS-BoldMT-72" d="M 1428 2922 
L 1428 2259 
Q 1719 2713 1937 2861 
Q 2156 3009 2359 3009 
Q 2534 3009 2639 2901 
Q 2744 2794 2744 2597 
Q 2744 2388 2642 2272 
Q 2541 2156 2397 2156 
Q 2231 2156 2109 2262 
Q 1988 2369 1966 2381 
Q 1934 2400 1894 2400 
Q 1803 2400 1722 2331 
Q 1594 2225 1528 2028 
Q 1428 1725 1428 1359 
L 1428 688 
L 1431 513 
Q 1431 334 1453 284 
Q 1491 200 1564 161 
Q 1638 122 1813 113 
L 1813 0 
L 234 0 
L 234 113 
Q 425 128 492 217 
Q 559 306 559 688 
L 559 2303 
Q 559 2553 534 2622 
Q 503 2709 443 2750 
Q 384 2791 234 2806 
L 234 2922 
L 1428 2922 
z
" transform="scale(0.015625)"/>
        <path id="TimesNewRomanPS-BoldMT-65" d="M 2691 1566 
L 1088 1566 
Q 1116 984 1397 647 
Q 1613 388 1916 388 
Q 2103 388 2256 492 
Q 2409 597 2584 869 
L 2691 800 
Q 2453 316 2165 114 
Q 1878 -88 1500 -88 
Q 850 -88 516 413 
Q 247 816 247 1413 
Q 247 2144 642 2576 
Q 1038 3009 1569 3009 
Q 2013 3009 2339 2645 
Q 2666 2281 2691 1566 
z
M 1922 1775 
Q 1922 2278 1867 2465 
Q 1813 2653 1697 2750 
Q 1631 2806 1522 2806 
Q 1359 2806 1256 2647 
Q 1072 2369 1072 1884 
L 1072 1775 
L 1922 1775 
z
" transform="scale(0.015625)"/>
        <path id="TimesNewRomanPS-BoldMT-61" d="M 1828 431 
Q 1294 -41 869 -41 
Q 619 -41 453 123 
Q 288 288 288 534 
Q 288 869 575 1136 
Q 863 1403 1828 1847 
L 1828 2141 
Q 1828 2472 1792 2558 
Q 1756 2644 1656 2708 
Q 1556 2772 1431 2772 
Q 1228 2772 1097 2681 
Q 1016 2625 1016 2550 
Q 1016 2484 1103 2388 
Q 1222 2253 1222 2128 
Q 1222 1975 1108 1867 
Q 994 1759 809 1759 
Q 613 1759 480 1878 
Q 347 1997 347 2156 
Q 347 2381 525 2586 
Q 703 2791 1022 2900 
Q 1341 3009 1684 3009 
Q 2100 3009 2342 2832 
Q 2584 2656 2656 2450 
Q 2700 2319 2700 1847 
L 2700 713 
Q 2700 513 2715 461 
Q 2731 409 2762 384 
Q 2794 359 2834 359 
Q 2916 359 3000 475 
L 3094 400 
Q 2938 169 2770 64 
Q 2603 -41 2391 -41 
Q 2141 -41 2000 76 
Q 1859 194 1828 431 
z
M 1828 659 
L 1828 1638 
Q 1450 1416 1266 1163 
Q 1144 994 1144 822 
Q 1144 678 1247 569 
Q 1325 484 1466 484 
Q 1622 484 1828 659 
z
" transform="scale(0.015625)"/>
        <path id="TimesNewRomanPS-BoldMT-6b" d="M 1403 4238 
L 1403 1450 
L 2081 2116 
Q 2291 2319 2342 2409 
Q 2394 2500 2394 2584 
Q 2394 2669 2325 2725 
Q 2256 2781 2056 2806 
L 2056 2922 
L 3366 2922 
L 3366 2806 
Q 3178 2797 3037 2717 
Q 2897 2638 2488 2238 
L 2169 1925 
L 2856 919 
Q 3272 306 3350 231 
Q 3456 125 3619 113 
L 3619 0 
L 2109 0 
L 2109 113 
Q 2209 113 2254 150 
Q 2300 188 2300 231 
Q 2300 303 2169 497 
L 1591 1344 
L 1403 1159 
L 1403 634 
Q 1403 300 1465 217 
Q 1528 134 1722 113 
L 1722 0 
L 213 0 
L 213 113 
Q 397 131 475 231 
Q 528 300 528 634 
L 528 3603 
Q 528 3934 467 4015 
Q 406 4097 213 4122 
L 213 4238 
L 1403 4238 
z
" transform="scale(0.015625)"/>
        <path id="TimesNewRomanPS-BoldMT-6f" d="M 1594 3009 
Q 1975 3009 2303 2812 
Q 2631 2616 2801 2253 
Q 2972 1891 2972 1459 
Q 2972 838 2656 419 
Q 2275 -88 1603 -88 
Q 944 -88 587 375 
Q 231 838 231 1447 
Q 231 2075 595 2542 
Q 959 3009 1594 3009 
z
M 1606 2788 
Q 1447 2788 1333 2667 
Q 1219 2547 1183 2192 
Q 1147 1838 1147 1206 
Q 1147 872 1191 581 
Q 1225 359 1337 243 
Q 1450 128 1594 128 
Q 1734 128 1828 206 
Q 1950 313 1991 503 
Q 2053 800 2053 1703 
Q 2053 2234 1993 2432 
Q 1934 2631 1819 2722 
Q 1738 2788 1606 2788 
z
" transform="scale(0.015625)"/>
        <path id="TimesNewRomanPS-BoldMT-75" d="M 3038 2922 
L 3038 634 
Q 3038 300 3100 217 
Q 3163 134 3353 113 
L 3353 0 
L 2163 0 
L 2163 391 
Q 1953 141 1743 26 
Q 1534 -88 1275 -88 
Q 1028 -88 836 64 
Q 644 216 578 419 
Q 513 622 513 1128 
L 513 2288 
Q 513 2619 452 2700 
Q 391 2781 197 2806 
L 197 2922 
L 1388 2922 
L 1388 925 
Q 1388 613 1417 522 
Q 1447 431 1511 384 
Q 1575 338 1659 338 
Q 1772 338 1863 397 
Q 1988 478 2163 725 
L 2163 2288 
Q 2163 2619 2102 2700 
Q 2041 2781 1847 2806 
L 1847 2922 
L 3038 2922 
z
" transform="scale(0.015625)"/>
        <path id="TimesNewRomanPS-BoldMT-74" d="M 1375 3991 
L 1375 2922 
L 2069 2922 
L 2069 2613 
L 1375 2613 
L 1375 809 
Q 1375 556 1398 482 
Q 1422 409 1481 364 
Q 1541 319 1591 319 
Q 1794 319 1975 628 
L 2069 559 
Q 1816 -41 1247 -41 
Q 969 -41 776 114 
Q 584 269 531 459 
Q 500 566 500 1034 
L 500 2613 
L 119 2613 
L 119 2722 
Q 513 3000 789 3306 
Q 1066 3613 1272 3991 
L 1375 3991 
z
" transform="scale(0.015625)"/>
       </defs>
       <use xlink:href="#TimesNewRomanPS-BoldMT-42"/>
       <use xlink:href="#TimesNewRomanPS-BoldMT-72" transform="translate(66.699219 0)"/>
       <use xlink:href="#TimesNewRomanPS-BoldMT-65" transform="translate(109.333984 0)"/>
       <use xlink:href="#TimesNewRomanPS-BoldMT-61" transform="translate(153.71875 0)"/>
       <use xlink:href="#TimesNewRomanPS-BoldMT-6b" transform="translate(203.71875 0)"/>
       <use xlink:href="#TimesNewRomanPS-BoldMT-6f" transform="translate(259.333984 0)"/>
       <use xlink:href="#TimesNewRomanPS-BoldMT-75" transform="translate(309.333984 0)"/>
       <use xlink:href="#TimesNewRomanPS-BoldMT-74" transform="translate(364.949219 0)"/>
      </g>
     </g>
    </g>
    <g id="xtick_2">
     <g id="line2d_2">
      <path d="M 228.96 268.312 
L 118.08 76.262206 
" clip-path="url(#pfce13d326c)" style="fill: none; stroke-dasharray: 1.85,0.8; stroke-dashoffset: 0; stroke: #d0d0d0; stroke-opacity: 0.8; stroke-width: 0.5"/>
     </g>
     <g id="text_2">
      <!-- SpaceInvaders -->
      <g transform="translate(73.159375 66.484526) scale(0.12 -0.12)">
       <defs>
        <path id="TimesNewRomanPS-BoldMT-53" d="M 3006 4334 
L 3041 2922 
L 2913 2922 
Q 2822 3453 2467 3776 
Q 2113 4100 1700 4100 
Q 1381 4100 1195 3929 
Q 1009 3759 1009 3538 
Q 1009 3397 1075 3288 
Q 1166 3141 1366 2997 
Q 1513 2894 2044 2631 
Q 2788 2266 3047 1941 
Q 3303 1616 3303 1197 
Q 3303 666 2889 283 
Q 2475 -100 1838 -100 
Q 1638 -100 1459 -59 
Q 1281 -19 1013 94 
Q 863 156 766 156 
Q 684 156 593 93 
Q 503 31 447 -97 
L 331 -97 
L 331 1503 
L 447 1503 
Q 584 828 976 473 
Q 1369 119 1822 119 
Q 2172 119 2380 309 
Q 2588 500 2588 753 
Q 2588 903 2508 1043 
Q 2428 1184 2265 1311 
Q 2103 1438 1691 1641 
Q 1113 1925 859 2125 
Q 606 2325 470 2572 
Q 334 2819 334 3116 
Q 334 3622 706 3978 
Q 1078 4334 1644 4334 
Q 1850 4334 2044 4284 
Q 2191 4247 2402 4145 
Q 2613 4044 2697 4044 
Q 2778 4044 2825 4094 
Q 2872 4144 2913 4334 
L 3006 4334 
z
" transform="scale(0.015625)"/>
        <path id="TimesNewRomanPS-BoldMT-70" d="M 1347 297 
L 1347 -791 
Q 1347 -1016 1383 -1097 
Q 1419 -1178 1494 -1215 
Q 1569 -1253 1788 -1253 
L 1788 -1369 
L 122 -1369 
L 122 -1253 
Q 316 -1247 409 -1144 
Q 472 -1072 472 -772 
L 472 2313 
Q 472 2622 400 2708 
Q 328 2794 122 2806 
L 122 2922 
L 1347 2922 
L 1347 2538 
Q 1500 2763 1659 2863 
Q 1888 3009 2156 3009 
Q 2478 3009 2742 2806 
Q 3006 2603 3143 2245 
Q 3281 1888 3281 1475 
Q 3281 1031 3139 664 
Q 2997 297 2726 104 
Q 2456 -88 2125 -88 
Q 1884 -88 1675 19 
Q 1519 100 1347 297 
z
M 1347 613 
Q 1616 231 1922 231 
Q 2091 231 2200 409 
Q 2363 672 2363 1409 
Q 2363 2166 2184 2444 
Q 2066 2628 1866 2628 
Q 1550 2628 1347 2172 
L 1347 613 
z
" transform="scale(0.015625)"/>
        <path id="TimesNewRomanPS-BoldMT-63" d="M 2600 753 
L 2697 678 
Q 2491 291 2183 101 
Q 1875 -88 1528 -88 
Q 944 -88 594 353 
Q 244 794 244 1413 
Q 244 2009 563 2463 
Q 947 3009 1622 3009 
Q 2075 3009 2342 2781 
Q 2609 2553 2609 2272 
Q 2609 2094 2501 1987 
Q 2394 1881 2219 1881 
Q 2034 1881 1914 2003 
Q 1794 2125 1766 2438 
Q 1747 2634 1675 2713 
Q 1603 2791 1506 2791 
Q 1356 2791 1250 2631 
Q 1088 2391 1088 1894 
Q 1088 1481 1219 1104 
Q 1350 728 1578 544 
Q 1750 409 1984 409 
Q 2138 409 2275 481 
Q 2413 553 2600 753 
z
" transform="scale(0.015625)"/>
        <path id="TimesNewRomanPS-BoldMT-49" d="M 2344 116 
L 2344 0 
L 128 0 
L 128 116 
L 269 116 
Q 453 116 566 181 
Q 647 225 691 331 
Q 725 406 725 725 
L 725 3513 
Q 725 3838 690 3919 
Q 656 4000 551 4061 
Q 447 4122 269 4122 
L 128 4122 
L 128 4238 
L 2344 4238 
L 2344 4122 
L 2203 4122 
Q 2019 4122 1906 4056 
Q 1825 4013 1778 3906 
Q 1744 3831 1744 3513 
L 1744 725 
Q 1744 400 1780 319 
Q 1816 238 1920 177 
Q 2025 116 2203 116 
L 2344 116 
z
" transform="scale(0.015625)"/>
        <path id="TimesNewRomanPS-BoldMT-6e" d="M 1409 2922 
L 1409 2544 
Q 1634 2788 1840 2898 
Q 2047 3009 2284 3009 
Q 2569 3009 2756 2851 
Q 2944 2694 3006 2459 
Q 3056 2281 3056 1775 
L 3056 638 
Q 3056 300 3117 217 
Q 3178 134 3372 113 
L 3372 0 
L 1894 0 
L 1894 113 
Q 2059 134 2131 250 
Q 2181 328 2181 638 
L 2181 1938 
Q 2181 2297 2153 2390 
Q 2125 2484 2058 2536 
Q 1991 2588 1909 2588 
Q 1641 2588 1409 2203 
L 1409 638 
Q 1409 309 1470 221 
Q 1531 134 1697 113 
L 1697 0 
L 219 0 
L 219 113 
Q 403 131 481 231 
Q 534 300 534 638 
L 534 2288 
Q 534 2619 473 2700 
Q 413 2781 219 2806 
L 219 2922 
L 1409 2922 
z
" transform="scale(0.015625)"/>
        <path id="TimesNewRomanPS-BoldMT-76" d="M 1534 -88 
L 550 2178 
Q 372 2588 272 2697 
Q 200 2778 59 2806 
L 59 2922 
L 1613 2922 
L 1613 2806 
Q 1466 2806 1413 2753 
Q 1338 2684 1338 2591 
Q 1338 2475 1475 2156 
L 1956 1059 
L 2341 2006 
Q 2506 2413 2506 2581 
Q 2506 2678 2436 2739 
Q 2366 2800 2188 2806 
L 2188 2922 
L 3144 2922 
L 3144 2806 
Q 3006 2788 2918 2703 
Q 2831 2619 2656 2206 
L 1681 -88 
L 1534 -88 
z
" transform="scale(0.015625)"/>
        <path id="TimesNewRomanPS-BoldMT-64" d="M 3056 4238 
L 3056 875 
Q 3056 534 3075 472 
Q 3100 369 3170 319 
Q 3241 269 3416 256 
L 3416 153 
L 2181 -88 
L 2181 375 
Q 1959 106 1786 9 
Q 1613 -88 1394 -88 
Q 834 -88 509 413 
Q 247 819 247 1409 
Q 247 1881 409 2254 
Q 572 2628 855 2818 
Q 1138 3009 1463 3009 
Q 1672 3009 1834 2928 
Q 1997 2847 2181 2644 
L 2181 3525 
Q 2181 3859 2153 3928 
Q 2116 4019 2041 4062 
Q 1966 4106 1759 4106 
L 1759 4238 
L 3056 4238 
z
M 2181 2256 
Q 1950 2700 1616 2700 
Q 1500 2700 1425 2638 
Q 1309 2541 1236 2297 
Q 1163 2053 1163 1550 
Q 1163 997 1244 731 
Q 1325 466 1466 347 
Q 1538 288 1663 288 
Q 1938 288 2181 719 
L 2181 2256 
z
" transform="scale(0.015625)"/>
        <path id="TimesNewRomanPS-BoldMT-73" d="M 2063 3003 
L 2109 2006 
L 2003 2006 
Q 1813 2450 1608 2612 
Q 1403 2775 1200 2775 
Q 1072 2775 981 2689 
Q 891 2603 891 2491 
Q 891 2406 953 2328 
Q 1053 2200 1512 1889 
Q 1972 1578 2117 1361 
Q 2263 1144 2263 875 
Q 2263 631 2141 397 
Q 2019 163 1797 37 
Q 1575 -88 1306 -88 
Q 1097 -88 747 44 
Q 653 78 619 78 
Q 516 78 447 -78 
L 344 -78 
L 294 972 
L 400 972 
Q 541 559 786 353 
Q 1031 147 1250 147 
Q 1400 147 1495 239 
Q 1591 331 1591 463 
Q 1591 613 1497 722 
Q 1403 831 1078 1053 
Q 600 1384 459 1559 
Q 253 1816 253 2125 
Q 253 2463 486 2736 
Q 719 3009 1159 3009 
Q 1397 3009 1619 2894 
Q 1703 2847 1756 2847 
Q 1813 2847 1847 2870 
Q 1881 2894 1956 3003 
L 2063 3003 
z
" transform="scale(0.015625)"/>
       </defs>
       <use xlink:href="#TimesNewRomanPS-BoldMT-53"/>
       <use xlink:href="#TimesNewRomanPS-BoldMT-70" transform="translate(55.615234 0)"/>
       <use xlink:href="#TimesNewRomanPS-BoldMT-61" transform="translate(111.230469 0)"/>
       <use xlink:href="#TimesNewRomanPS-BoldMT-63" transform="translate(161.230469 0)"/>
       <use xlink:href="#TimesNewRomanPS-BoldMT-65" transform="translate(205.615234 0)"/>
       <use xlink:href="#TimesNewRomanPS-BoldMT-49" transform="translate(250 0)"/>
       <use xlink:href="#TimesNewRomanPS-BoldMT-6e" transform="translate(288.916016 0)"/>
       <use xlink:href="#TimesNewRomanPS-BoldMT-76" transform="translate(344.53125 0)"/>
       <use xlink:href="#TimesNewRomanPS-BoldMT-61" transform="translate(394.53125 0)"/>
       <use xlink:href="#TimesNewRomanPS-BoldMT-64" transform="translate(444.53125 0)"/>
       <use xlink:href="#TimesNewRomanPS-BoldMT-65" transform="translate(500.146484 0)"/>
       <use xlink:href="#TimesNewRomanPS-BoldMT-72" transform="translate(544.53125 0)"/>
       <use xlink:href="#TimesNewRomanPS-BoldMT-73" transform="translate(588.916016 0)"/>
      </g>
     </g>
    </g>
    <g id="xtick_3">
     <g id="line2d_3">
      <path d="M 228.96 268.312 
L 118.08 460.361794 
" clip-path="url(#pfce13d326c)" style="fill: none; stroke-dasharray: 1.85,0.8; stroke-dashoffset: 0; stroke: #d0d0d0; stroke-opacity: 0.8; stroke-width: 0.5"/>
     </g>
     <g id="text_3">
      <!-- Pong -->
      <g transform="translate(97.82875 475.597599) scale(0.12 -0.12)">
       <defs>
        <path id="TimesNewRomanPS-BoldMT-50" d="M 1728 1919 
L 1728 744 
Q 1728 400 1770 311 
Q 1813 222 1920 169 
Q 2028 116 2316 116 
L 2316 0 
L 163 0 
L 163 116 
Q 456 116 561 170 
Q 666 225 708 312 
Q 750 400 750 744 
L 750 3494 
Q 750 3838 708 3927 
Q 666 4016 559 4069 
Q 453 4122 163 4122 
L 163 4238 
L 2009 4238 
Q 2922 4238 3319 3913 
Q 3716 3588 3716 3100 
Q 3716 2688 3459 2394 
Q 3203 2100 2753 1994 
Q 2450 1919 1728 1919 
z
M 1728 3994 
L 1728 2163 
Q 1831 2156 1884 2156 
Q 2266 2156 2472 2382 
Q 2678 2609 2678 3084 
Q 2678 3556 2472 3775 
Q 2266 3994 1856 3994 
L 1728 3994 
z
" transform="scale(0.015625)"/>
        <path id="TimesNewRomanPS-BoldMT-67" d="M 2091 2888 
L 3075 2888 
L 3075 2544 
L 2516 2544 
Q 2669 2391 2728 2266 
Q 2803 2097 2803 1913 
Q 2803 1600 2629 1370 
Q 2456 1141 2157 1011 
Q 1859 881 1628 881 
Q 1609 881 1253 897 
Q 1113 897 1017 805 
Q 922 713 922 584 
Q 922 472 1008 400 
Q 1094 328 1288 328 
L 1828 334 
Q 2484 334 2731 191 
Q 3084 -9 3084 -425 
Q 3084 -691 2921 -908 
Q 2759 -1125 2494 -1228 
Q 2091 -1381 1566 -1381 
Q 1172 -1381 847 -1304 
Q 522 -1228 381 -1092 
Q 241 -956 241 -806 
Q 241 -663 348 -548 
Q 456 -434 750 -356 
Q 344 -156 344 200 
Q 344 416 509 619 
Q 675 822 1034 972 
Q 616 1125 428 1375 
Q 241 1625 241 1953 
Q 241 2381 591 2695 
Q 941 3009 1491 3009 
Q 1781 3009 2091 2888 
z
M 1550 2816 
Q 1369 2816 1244 2633 
Q 1119 2450 1119 1875 
Q 1119 1409 1242 1236 
Q 1366 1063 1534 1063 
Q 1722 1063 1847 1234 
Q 1972 1406 1972 1903 
Q 1972 2463 1831 2666 
Q 1731 2816 1550 2816 
z
M 1366 -431 
Q 1047 -431 944 -484 
Q 766 -581 766 -747 
Q 766 -906 950 -1036 
Q 1134 -1166 1644 -1166 
Q 2078 -1166 2326 -1050 
Q 2575 -934 2575 -725 
Q 2575 -647 2528 -594 
Q 2444 -500 2273 -465 
Q 2103 -431 1366 -431 
z
" transform="scale(0.015625)"/>
       </defs>
       <use xlink:href="#TimesNewRomanPS-BoldMT-50"/>
       <use xlink:href="#TimesNewRomanPS-BoldMT-6f" transform="translate(61.083984 0)"/>
       <use xlink:href="#TimesNewRomanPS-BoldMT-6e" transform="translate(111.083984 0)"/>
       <use xlink:href="#TimesNewRomanPS-BoldMT-67" transform="translate(166.699219 0)"/>
      </g>
     </g>
    </g>
   </g>
   <g id="matplotlib.axis_2">
    <g id="ytick_1">
     <g id="line2d_4">
      <path d="M 269.28 268.312 
C 269.28 263.017226 268.237045 257.773937 266.210823 252.882204 
C 264.184601 247.990471 261.214516 243.545425 257.470545 239.801455 
C 253.726575 236.057484 249.281529 233.087399 244.389796 231.061177 
C 239.498063 229.034955 234.254774 227.992 228.96 227.992 
C 223.665226 227.992 218.421937 229.034955 213.530204 231.061177 
C 208.638471 233.087399 204.193425 236.057484 200.449455 239.801455 
C 196.705484 243.545425 193.735399 247.990471 191.709177 252.882204 
C 189.682955 257.773937 188.64 263.017226 188.64 268.312 
C 188.64 273.606774 189.682955 278.850063 191.709177 283.741796 
C 193.735399 288.633529 196.705484 293.078575 200.449455 296.822545 
C 204.193425 300.566516 208.638471 303.536601 213.530204 305.562823 
C 218.421937 307.589045 223.665226 308.632 228.96 308.632 
C 234.254774 308.632 239.498063 307.589045 244.389796 305.562823 
C 249.281529 303.536601 253.726575 300.566516 257.470545 296.822545 
C 261.214516 293.078575 264.184601 288.633529 266.210823 283.741796 
C 268.237045 278.850063 269.28 273.606774 269.28 268.312 
" clip-path="url(#pfce13d326c)" style="fill: none; stroke-dasharray: 1.85,0.8; stroke-dashoffset: 0; stroke: #d0d0d0; stroke-opacity: 0.8; stroke-width: 0.5"/>
     </g>
     <g id="text_4">
      <!-- 0.2 -->
      <g transform="translate(266.210823 250.743142) scale(0.1 -0.1)">
       <defs>
        <path id="TimesNewRomanPSMT-30" d="M 231 2094 
Q 231 2819 450 3342 
Q 669 3866 1031 4122 
Q 1313 4325 1613 4325 
Q 2100 4325 2488 3828 
Q 2972 3213 2972 2159 
Q 2972 1422 2759 906 
Q 2547 391 2217 158 
Q 1888 -75 1581 -75 
Q 975 -75 572 641 
Q 231 1244 231 2094 
z
M 844 2016 
Q 844 1141 1059 588 
Q 1238 122 1591 122 
Q 1759 122 1940 273 
Q 2122 425 2216 781 
Q 2359 1319 2359 2297 
Q 2359 3022 2209 3506 
Q 2097 3866 1919 4016 
Q 1791 4119 1609 4119 
Q 1397 4119 1231 3928 
Q 1006 3669 925 3112 
Q 844 2556 844 2016 
z
" transform="scale(0.015625)"/>
        <path id="TimesNewRomanPSMT-2e" d="M 800 606 
Q 947 606 1047 504 
Q 1147 403 1147 259 
Q 1147 116 1045 14 
Q 944 -88 800 -88 
Q 656 -88 554 14 
Q 453 116 453 259 
Q 453 406 554 506 
Q 656 606 800 606 
z
" transform="scale(0.015625)"/>
        <path id="TimesNewRomanPSMT-32" d="M 2934 816 
L 2638 0 
L 138 0 
L 138 116 
Q 1241 1122 1691 1759 
Q 2141 2397 2141 2925 
Q 2141 3328 1894 3587 
Q 1647 3847 1303 3847 
Q 991 3847 742 3664 
Q 494 3481 375 3128 
L 259 3128 
Q 338 3706 661 4015 
Q 984 4325 1469 4325 
Q 1984 4325 2329 3994 
Q 2675 3663 2675 3213 
Q 2675 2891 2525 2569 
Q 2294 2063 1775 1497 
Q 997 647 803 472 
L 1909 472 
Q 2247 472 2383 497 
Q 2519 522 2628 598 
Q 2738 675 2819 816 
L 2934 816 
z
" transform="scale(0.015625)"/>
       </defs>
       <use xlink:href="#TimesNewRomanPSMT-30"/>
       <use xlink:href="#TimesNewRomanPSMT-2e" transform="translate(50 0)"/>
       <use xlink:href="#TimesNewRomanPSMT-32" transform="translate(75 0)"/>
      </g>
     </g>
    </g>
    <g id="ytick_2">
     <g id="line2d_5">
      <path d="M 309.6 268.312 
C 309.6 257.722452 307.51409 247.235874 303.461646 237.452408 
C 299.409201 227.668942 293.469032 218.77885 285.981091 211.290909 
C 278.49315 203.802968 269.603058 197.862799 259.819592 193.810354 
C 250.036126 189.75791 239.549548 187.672 228.96 187.672 
C 218.370452 187.672 207.883874 189.75791 198.100408 193.810354 
C 188.316942 197.862799 179.42685 203.802968 171.938909 211.290909 
C 164.450968 218.77885 158.510799 227.668942 154.458354 237.452408 
C 150.40591 247.235874 148.32 257.722452 148.32 268.312 
C 148.32 278.901548 150.40591 289.388126 154.458354 299.171592 
C 158.510799 308.955058 164.450968 317.84515 171.938909 325.333091 
C 179.42685 332.821032 188.316942 338.761201 198.100408 342.813646 
C 207.883874 346.86609 218.370452 348.952 228.96 348.952 
C 239.549548 348.952 250.036126 346.86609 259.819592 342.813646 
C 269.603058 338.761201 278.49315 332.821032 285.981091 325.333091 
C 293.469032 317.84515 299.409201 308.955058 303.461646 299.171592 
C 307.51409 289.388126 309.6 278.901548 309.6 268.312 
" clip-path="url(#pfce13d326c)" style="fill: none; stroke-dasharray: 1.85,0.8; stroke-dashoffset: 0; stroke: #d0d0d0; stroke-opacity: 0.8; stroke-width: 0.5"/>
     </g>
     <g id="text_5">
      <!-- 0.4 -->
      <g transform="translate(303.461646 235.313346) scale(0.1 -0.1)">
       <defs>
        <path id="TimesNewRomanPSMT-34" d="M 2978 1563 
L 2978 1119 
L 2409 1119 
L 2409 0 
L 1894 0 
L 1894 1119 
L 100 1119 
L 100 1519 
L 2066 4325 
L 2409 4325 
L 2409 1563 
L 2978 1563 
z
M 1894 1563 
L 1894 3666 
L 406 1563 
L 1894 1563 
z
" transform="scale(0.015625)"/>
       </defs>
       <use xlink:href="#TimesNewRomanPSMT-30"/>
       <use xlink:href="#TimesNewRomanPSMT-2e" transform="translate(50 0)"/>
       <use xlink:href="#TimesNewRomanPSMT-34" transform="translate(75 0)"/>
      </g>
     </g>
    </g>
    <g id="ytick_3">
     <g id="line2d_6">
      <path d="M 349.92 268.312 
C 349.92 252.427678 346.791135 236.697812 340.712468 222.022612 
C 334.633802 207.347412 325.723548 194.012275 314.491636 182.780364 
C 303.259725 171.548452 289.924588 162.638198 275.249388 156.559532 
C 260.574188 150.480865 244.844322 147.352 228.96 147.352 
C 213.075678 147.352 197.345812 150.480865 182.670612 156.559532 
C 167.995412 162.638198 154.660275 171.548452 143.428364 182.780364 
C 132.196452 194.012275 123.286198 207.347412 117.207532 222.022612 
C 111.128865 236.697812 108 252.427678 108 268.312 
C 108 284.196322 111.128865 299.926188 117.207532 314.601388 
C 123.286198 329.276588 132.196452 342.611725 143.428364 353.843636 
C 154.660275 365.075548 167.995412 373.985802 182.670612 380.064468 
C 197.345812 386.143135 213.075678 389.272 228.96 389.272 
C 244.844322 389.272 260.574188 386.143135 275.249388 380.064468 
C 289.924588 373.985802 303.259725 365.075548 314.491636 353.843636 
C 325.723548 342.611725 334.633802 329.276588 340.712468 314.601388 
C 346.791135 299.926188 349.92 284.196322 349.92 268.312 
" clip-path="url(#pfce13d326c)" style="fill: none; stroke-dasharray: 1.85,0.8; stroke-dashoffset: 0; stroke: #d0d0d0; stroke-opacity: 0.8; stroke-width: 0.5"/>
     </g>
     <g id="text_6">
      <!-- 0.6 -->
      <g transform="translate(340.712468 219.88355) scale(0.1 -0.1)">
       <defs>
        <path id="TimesNewRomanPSMT-36" d="M 2869 4325 
L 2869 4209 
Q 2456 4169 2195 4045 
Q 1934 3922 1679 3669 
Q 1425 3416 1258 3105 
Q 1091 2794 978 2366 
Q 1428 2675 1881 2675 
Q 2316 2675 2634 2325 
Q 2953 1975 2953 1425 
Q 2953 894 2631 456 
Q 2244 -75 1606 -75 
Q 1172 -75 869 213 
Q 275 772 275 1663 
Q 275 2231 503 2743 
Q 731 3256 1154 3653 
Q 1578 4050 1965 4187 
Q 2353 4325 2688 4325 
L 2869 4325 
z
M 925 2138 
Q 869 1716 869 1456 
Q 869 1156 980 804 
Q 1091 453 1309 247 
Q 1469 100 1697 100 
Q 1969 100 2183 356 
Q 2397 613 2397 1088 
Q 2397 1622 2184 2012 
Q 1972 2403 1581 2403 
Q 1463 2403 1327 2353 
Q 1191 2303 925 2138 
z
" transform="scale(0.015625)"/>
       </defs>
       <use xlink:href="#TimesNewRomanPSMT-30"/>
       <use xlink:href="#TimesNewRomanPSMT-2e" transform="translate(50 0)"/>
       <use xlink:href="#TimesNewRomanPSMT-36" transform="translate(75 0)"/>
      </g>
     </g>
    </g>
    <g id="ytick_4">
     <g id="line2d_7">
      <path d="M 390.24 268.312 
C 390.24 247.132904 386.06818 226.159749 377.963291 206.592816 
C 369.858402 187.025883 357.978064 169.2457 343.002182 154.269818 
C 328.0263 139.293936 310.246117 127.413598 290.679184 119.308709 
C 271.112251 111.20382 250.139096 107.032 228.96 107.032 
C 207.780904 107.032 186.807749 111.20382 167.240816 119.308709 
C 147.673883 127.413598 129.8937 139.293936 114.917818 154.269818 
C 99.941936 169.2457 88.061598 187.025883 79.956709 206.592816 
C 71.85182 226.159749 67.68 247.132904 67.68 268.312 
C 67.68 289.491096 71.85182 310.464251 79.956709 330.031184 
C 88.061598 349.598117 99.941936 367.3783 114.917818 382.354182 
C 129.8937 397.330064 147.673883 409.210402 167.240816 417.315291 
C 186.807749 425.42018 207.780904 429.592 228.96 429.592 
C 250.139096 429.592 271.112251 425.42018 290.679184 417.315291 
C 310.246117 409.210402 328.0263 397.330064 343.002182 382.354182 
C 357.978064 367.3783 369.858402 349.598117 377.963291 330.031184 
C 386.06818 310.464251 390.24 289.491096 390.24 268.312 
" clip-path="url(#pfce13d326c)" style="fill: none; stroke-dasharray: 1.85,0.8; stroke-dashoffset: 0; stroke: #d0d0d0; stroke-opacity: 0.8; stroke-width: 0.5"/>
     </g>
     <g id="text_7">
      <!-- 0.8 -->
      <g transform="translate(377.963291 204.453754) scale(0.1 -0.1)">
       <defs>
        <path id="TimesNewRomanPSMT-38" d="M 1228 2134 
Q 725 2547 579 2797 
Q 434 3047 434 3316 
Q 434 3728 753 4026 
Q 1072 4325 1600 4325 
Q 2113 4325 2425 4047 
Q 2738 3769 2738 3413 
Q 2738 3175 2569 2928 
Q 2400 2681 1866 2347 
Q 2416 1922 2594 1678 
Q 2831 1359 2831 1006 
Q 2831 559 2490 242 
Q 2150 -75 1597 -75 
Q 994 -75 656 303 
Q 388 606 388 966 
Q 388 1247 577 1523 
Q 766 1800 1228 2134 
z
M 1719 2469 
Q 2094 2806 2194 3001 
Q 2294 3197 2294 3444 
Q 2294 3772 2109 3958 
Q 1925 4144 1606 4144 
Q 1288 4144 1088 3959 
Q 888 3775 888 3528 
Q 888 3366 970 3203 
Q 1053 3041 1206 2894 
L 1719 2469 
z
M 1375 2016 
Q 1116 1797 991 1539 
Q 866 1281 866 981 
Q 866 578 1086 336 
Q 1306 94 1647 94 
Q 1984 94 2187 284 
Q 2391 475 2391 747 
Q 2391 972 2272 1150 
Q 2050 1481 1375 2016 
z
" transform="scale(0.015625)"/>
       </defs>
       <use xlink:href="#TimesNewRomanPSMT-30"/>
       <use xlink:href="#TimesNewRomanPSMT-2e" transform="translate(50 0)"/>
       <use xlink:href="#TimesNewRomanPSMT-38" transform="translate(75 0)"/>
      </g>
     </g>
    </g>
    <g id="ytick_5">
     <g id="line2d_8">
      <path d="M 430.56 268.312 
C 430.56 241.838131 425.345225 215.621686 415.214114 191.16302 
C 405.083003 166.704354 390.23258 144.479126 371.512727 125.759273 
C 352.792874 107.03942 330.567646 92.188997 306.10898 82.057886 
C 281.650314 71.926775 255.433869 66.712 228.96 66.712 
C 202.486131 66.712 176.269686 71.926775 151.81102 82.057886 
C 127.352354 92.188997 105.127126 107.03942 86.407273 125.759273 
C 67.68742 144.479126 52.836997 166.704354 42.705886 191.16302 
C 32.574775 215.621686 27.36 241.838131 27.36 268.312 
C 27.36 294.785869 32.574775 321.002314 42.705886 345.46098 
C 52.836997 369.919646 67.68742 392.144874 86.407273 410.864727 
C 105.127126 429.58458 127.352354 444.435003 151.81102 454.566114 
C 176.269686 464.697225 202.486131 469.912 228.96 469.912 
C 255.433869 469.912 281.650314 464.697225 306.10898 454.566114 
C 330.567646 444.435003 352.792874 429.58458 371.512727 410.864727 
C 390.23258 392.144874 405.083003 369.919646 415.214114 345.46098 
C 425.345225 321.002314 430.56 294.785869 430.56 268.312 
" clip-path="url(#pfce13d326c)" style="fill: none; stroke-dasharray: 1.85,0.8; stroke-dashoffset: 0; stroke: #d0d0d0; stroke-opacity: 0.8; stroke-width: 0.5"/>
     </g>
     <g id="text_8">
      <!-- 1.0 -->
      <g transform="translate(415.214114 189.023958) scale(0.1 -0.1)">
       <defs>
        <path id="TimesNewRomanPSMT-31" d="M 750 3822 
L 1781 4325 
L 1884 4325 
L 1884 747 
Q 1884 391 1914 303 
Q 1944 216 2037 169 
Q 2131 122 2419 116 
L 2419 0 
L 825 0 
L 825 116 
Q 1125 122 1212 167 
Q 1300 213 1334 289 
Q 1369 366 1369 747 
L 1369 3034 
Q 1369 3497 1338 3628 
Q 1316 3728 1258 3775 
Q 1200 3822 1119 3822 
Q 1003 3822 797 3725 
L 750 3822 
z
" transform="scale(0.015625)"/>
       </defs>
       <use xlink:href="#TimesNewRomanPSMT-31"/>
       <use xlink:href="#TimesNewRomanPSMT-2e" transform="translate(50 0)"/>
       <use xlink:href="#TimesNewRomanPSMT-30" transform="translate(75 0)"/>
      </g>
     </g>
    </g>
   </g>
   <g id="patch_3">
    <path d="M 306.967796 268.312 
L 128.16 93.721279 
L 225.037249 275.106404 
z
" clip-path="url(#pfce13d326c)" style="fill: #2e5090; opacity: 0.1; stroke: #2e5090; stroke-linejoin: miter"/>
   </g>
   <g id="patch_4">
    <path d="M 234.013576 268.312 
L 223.721147 259.238041 
L 228.436115 269.219396 
z
" clip-path="url(#pfce13d326c)" style="fill: #6b4c9a; opacity: 0.1; stroke: #6b4c9a; stroke-linejoin: miter"/>
   </g>
   <g id="patch_5">
    <path d="M 233.444969 268.312 
L 214.617043 243.46927 
L 228.96 268.312 
z
" clip-path="url(#pfce13d326c)" style="fill: #6b4c9a; opacity: 0.1; stroke: #6b4c9a; stroke-linejoin: miter"/>
   </g>
   <g id="patch_6">
    <path d="M 233.559968 268.312 
L 206.343489 229.139054 
L 228.96 268.312 
z
" clip-path="url(#pfce13d326c)" style="fill: #b5322a; opacity: 0.1; stroke: #b5322a; stroke-linejoin: miter"/>
   </g>
   <g id="patch_7">
    <path d="M 234.16052 268.312 
L 212.17331 239.2366 
L 225.513218 274.282001 
z
" clip-path="url(#pfce13d326c)" style="fill: #5a8a3c; opacity: 0.1; stroke: #5a8a3c; stroke-linejoin: miter"/>
   </g>
   <g id="line2d_9">
    <path d="M 306.967796 268.312 
L 128.16 93.721279 
L 225.037249 275.106404 
L 306.967796 268.312 
" clip-path="url(#pfce13d326c)" style="fill: none; stroke: #2e5090; stroke-width: 2; stroke-linecap: square"/>
    <defs>
     <path id="ma59ac97c37" d="M 0 3.5 
C 0.928211 3.5 1.81853 3.131218 2.474874 2.474874 
C 3.131218 1.81853 3.5 0.928211 3.5 0 
C 3.5 -0.928211 3.131218 -1.81853 2.474874 -2.474874 
C 1.81853 -3.131218 0.928211 -3.5 0 -3.5 
C -0.928211 -3.5 -1.81853 -3.131218 -2.474874 -2.474874 
C -3.131218 -1.81853 -3.5 -0.928211 -3.5 0 
C -3.5 0.928211 -3.131218 1.81853 -2.474874 2.474874 
C -1.81853 3.131218 -0.928211 3.5 0 3.5 
z
" style="stroke: #ffffff; stroke-width: 1.2"/>
    </defs>
    <g clip-path="url(#pfce13d326c)">
     <use xlink:href="#ma59ac97c37" x="306.967796" y="268.312" style="fill: #2e5090; stroke: #ffffff; stroke-width: 1.2"/>
     <use xlink:href="#ma59ac97c37" x="128.16" y="93.721279" style="fill: #2e5090; stroke: #ffffff; stroke-width: 1.2"/>
     <use xlink:href="#ma59ac97c37" x="225.037249" y="275.106404" style="fill: #2e5090; stroke: #ffffff; stroke-width: 1.2"/>
     <use xlink:href="#ma59ac97c37" x="306.967796" y="268.312" style="fill: #2e5090; stroke: #ffffff; stroke-width: 1.2"/>
    </g>
   </g>
   <g id="line2d_10">
    <path d="M 234.013576 268.312 
L 223.721147 259.238041 
L 228.436115 269.219396 
L 234.013576 268.312 
" clip-path="url(#pfce13d326c)" style="fill: none; stroke: #6b4c9a; stroke-width: 2; stroke-linecap: square"/>
    <defs>
     <path id="mce5c2de983" d="M 0 3.5 
C 0.928211 3.5 1.81853 3.131218 2.474874 2.474874 
C 3.131218 1.81853 3.5 0.928211 3.5 0 
C 3.5 -0.928211 3.131218 -1.81853 2.474874 -2.474874 
C 1.81853 -3.131218 0.928211 -3.5 0 -3.5 
C -0.928211 -3.5 -1.81853 -3.131218 -2.474874 -2.474874 
C -3.131218 -1.81853 -3.5 -0.928211 -3.5 0 
C -3.5 0.928211 -3.131218 1.81853 -2.474874 2.474874 
C -1.81853 3.131218 -0.928211 3.5 0 3.5 
z
" style="stroke: #ffffff; stroke-width: 1.2"/>
    </defs>
    <g clip-path="url(#pfce13d326c)">
     <use xlink:href="#mce5c2de983" x="234.013576" y="268.312" style="fill: #6b4c9a; stroke: #ffffff; stroke-width: 1.2"/>
     <use xlink:href="#mce5c2de983" x="223.721147" y="259.238041" style="fill: #6b4c9a; stroke: #ffffff; stroke-width: 1.2"/>
     <use xlink:href="#mce5c2de983" x="228.436115" y="269.219396" style="fill: #6b4c9a; stroke: #ffffff; stroke-width: 1.2"/>
     <use xlink:href="#mce5c2de983" x="234.013576" y="268.312" style="fill: #6b4c9a; stroke: #ffffff; stroke-width: 1.2"/>
    </g>
   </g>
   <g id="line2d_11">
    <path d="M 233.444969 268.312 
L 214.617043 243.46927 
L 228.96 268.312 
L 233.444969 268.312 
" clip-path="url(#pfce13d326c)" style="fill: none; stroke: #6b4c9a; stroke-width: 2; stroke-linecap: square"/>
    <g clip-path="url(#pfce13d326c)">
     <use xlink:href="#mce5c2de983" x="233.444969" y="268.312" style="fill: #6b4c9a; stroke: #ffffff; stroke-width: 1.2"/>
     <use xlink:href="#mce5c2de983" x="214.617043" y="243.46927" style="fill: #6b4c9a; stroke: #ffffff; stroke-width: 1.2"/>
     <use xlink:href="#mce5c2de983" x="228.96" y="268.312" style="fill: #6b4c9a; stroke: #ffffff; stroke-width: 1.2"/>
     <use xlink:href="#mce5c2de983" x="233.444969" y="268.312" style="fill: #6b4c9a; stroke: #ffffff; stroke-width: 1.2"/>
    </g>
   </g>
   <g id="line2d_12">
    <path d="M 233.559968 268.312 
L 206.343489 229.139054 
L 228.96 268.312 
L 233.559968 268.312 
" clip-path="url(#pfce13d326c)" style="fill: none; stroke: #b5322a; stroke-width: 2; stroke-linecap: square"/>
    <defs>
     <path id="mf5fceadf93" d="M 0 3.5 
C 0.928211 3.5 1.81853 3.131218 2.474874 2.474874 
C 3.131218 1.81853 3.5 0.928211 3.5 0 
C 3.5 -0.928211 3.131218 -1.81853 2.474874 -2.474874 
C 1.81853 -3.131218 0.928211 -3.5 0 -3.5 
C -0.928211 -3.5 -1.81853 -3.131218 -2.474874 -2.474874 
C -3.131218 -1.81853 -3.5 -0.928211 -3.5 0 
C -3.5 0.928211 -3.131218 1.81853 -2.474874 2.474874 
C -1.81853 3.131218 -0.928211 3.5 0 3.5 
z
" style="stroke: #ffffff; stroke-width: 1.2"/>
    </defs>
    <g clip-path="url(#pfce13d326c)">
     <use xlink:href="#mf5fceadf93" x="233.559968" y="268.312" style="fill: #b5322a; stroke: #ffffff; stroke-width: 1.2"/>
     <use xlink:href="#mf5fceadf93" x="206.343489" y="229.139054" style="fill: #b5322a; stroke: #ffffff; stroke-width: 1.2"/>
     <use xlink:href="#mf5fceadf93" x="228.96" y="268.312" style="fill: #b5322a; stroke: #ffffff; stroke-width: 1.2"/>
     <use xlink:href="#mf5fceadf93" x="233.559968" y="268.312" style="fill: #b5322a; stroke: #ffffff; stroke-width: 1.2"/>
    </g>
   </g>
   <g id="line2d_13">
    <path d="M 234.16052 268.312 
L 212.17331 239.2366 
L 225.513218 274.282001 
L 234.16052 268.312 
" clip-path="url(#pfce13d326c)" style="fill: none; stroke: #5a8a3c; stroke-width: 2; stroke-linecap: square"/>
    <defs>
     <path id="m3e48dc472f" d="M 0 3.5 
C 0.928211 3.5 1.81853 3.131218 2.474874 2.474874 
C 3.131218 1.81853 3.5 0.928211 3.5 0 
C 3.5 -0.928211 3.131218 -1.81853 2.474874 -2.474874 
C 1.81853 -3.131218 0.928211 -3.5 0 -3.5 
C -0.928211 -3.5 -1.81853 -3.131218 -2.474874 -2.474874 
C -3.131218 -1.81853 -3.5 -0.928211 -3.5 0 
C -3.5 0.928211 -3.131218 1.81853 -2.474874 2.474874 
C -1.81853 3.131218 -0.928211 3.5 0 3.5 
z
" style="stroke: #ffffff; stroke-width: 1.2"/>
    </defs>
    <g clip-path="url(#pfce13d326c)">
     <use xlink:href="#m3e48dc472f" x="234.16052" y="268.312" style="fill: #5a8a3c; stroke: #ffffff; stroke-width: 1.2"/>
     <use xlink:href="#m3e48dc472f" x="212.17331" y="239.2366" style="fill: #5a8a3c; stroke: #ffffff; stroke-width: 1.2"/>
     <use xlink:href="#m3e48dc472f" x="225.513218" y="274.282001" style="fill: #5a8a3c; stroke: #ffffff; stroke-width: 1.2"/>
     <use xlink:href="#m3e48dc472f" x="234.16052" y="268.312" style="fill: #5a8a3c; stroke: #ffffff; stroke-width: 1.2"/>
    </g>
   </g>
   <g id="patch_8">
    <path d="M 450.72 268.312 
C 450.72 239.190744 444.983747 210.352655 433.839525 183.448122 
C 422.695303 156.543589 406.359838 132.095838 385.768 111.504 
C 365.176162 90.912162 340.728411 74.576697 313.823878 63.432475 
C 286.919345 52.288253 258.081256 46.552 228.96 46.552 
C 199.838744 46.552 171.000655 52.288253 144.096122 63.432475 
C 117.191589 74.576697 92.743838 90.912162 72.152 111.504 
C 51.560162 132.095838 35.224697 156.543589 24.080475 183.448122 
C 12.936253 210.352655 7.2 239.190744 7.2 268.312 
C 7.2 297.433256 12.936253 326.271345 24.080475 353.175878 
C 35.224697 380.080411 51.560162 404.528162 72.152 425.12 
C 92.743838 445.711838 117.191589 462.047303 144.096122 473.191525 
C 171.000655 484.335747 199.838744 490.072 228.96 490.072 
C 258.081256 490.072 286.919345 484.335747 313.823878 473.191525 
C 340.728411 462.047303 365.176162 445.711838 385.768 425.12 
C 406.359838 404.528162 422.695303 380.080411 433.839525 353.175878 
C 444.983747 326.271345 450.72 297.433256 450.72 268.312 
" style="fill: none; stroke: #cccccc; stroke-linejoin: miter; stroke-linecap: square"/>
   </g>
   <g id="text_9">
    <!-- Method Performance Radar (Normalized) -->
    <g transform="translate(102.928281 21.552) scale(0.14 -0.14)">
     <defs>
      <path id="TimesNewRomanPS-BoldMT-4d" d="M 3050 1444 
L 4200 4238 
L 5925 4238 
L 5925 4122 
L 5788 4122 
Q 5600 4122 5488 4056 
Q 5409 4013 5363 3909 
Q 5328 3834 5328 3519 
L 5328 725 
Q 5328 400 5362 319 
Q 5397 238 5503 177 
Q 5609 116 5788 116 
L 5925 116 
L 5925 0 
L 3713 0 
L 3713 116 
L 3850 116 
Q 4038 116 4150 181 
Q 4228 225 4275 331 
Q 4309 406 4309 725 
L 4309 3866 
L 2684 0 
L 2609 0 
L 959 3838 
L 959 853 
Q 959 541 975 469 
Q 1016 313 1152 214 
Q 1288 116 1578 116 
L 1578 0 
L 128 0 
L 128 116 
L 172 116 
Q 313 113 434 161 
Q 556 209 618 290 
Q 681 372 716 519 
Q 722 553 722 838 
L 722 3519 
Q 722 3841 687 3920 
Q 653 4000 547 4061 
Q 441 4122 263 4122 
L 128 4122 
L 128 4238 
L 1859 4238 
L 3050 1444 
z
" transform="scale(0.015625)"/>
      <path id="TimesNewRomanPS-BoldMT-68" d="M 1409 4238 
L 1409 2547 
Q 1650 2800 1850 2904 
Q 2050 3009 2266 3009 
Q 2541 3009 2736 2853 
Q 2931 2697 2995 2486 
Q 3059 2275 3059 1775 
L 3059 634 
Q 3059 300 3121 217 
Q 3184 134 3375 113 
L 3375 0 
L 1894 0 
L 1894 113 
Q 2050 134 2128 238 
Q 2184 319 2184 634 
L 2184 1938 
Q 2184 2300 2156 2392 
Q 2128 2484 2061 2536 
Q 1994 2588 1909 2588 
Q 1784 2588 1665 2502 
Q 1547 2416 1409 2200 
L 1409 634 
Q 1409 322 1456 244 
Q 1516 138 1700 113 
L 1700 0 
L 219 0 
L 219 113 
Q 403 131 481 231 
Q 534 300 534 634 
L 534 3603 
Q 534 3934 473 4015 
Q 413 4097 219 4122 
L 219 4238 
L 1409 4238 
z
" transform="scale(0.015625)"/>
      <path id="TimesNewRomanPS-BoldMT-20" transform="scale(0.015625)"/>
      <path id="TimesNewRomanPS-BoldMT-66" d="M 1497 2616 
L 1497 588 
Q 1497 294 1559 219 
Q 1659 103 1928 113 
L 1928 0 
L 206 0 
L 206 113 
Q 403 116 486 158 
Q 569 200 600 275 
Q 631 350 631 588 
L 631 2616 
L 206 2616 
L 206 2922 
L 631 2922 
L 631 3138 
L 628 3284 
Q 628 3734 958 4034 
Q 1288 4334 1850 4334 
Q 2234 4334 2420 4190 
Q 2606 4047 2606 3872 
Q 2606 3731 2490 3628 
Q 2375 3525 2184 3525 
Q 2022 3525 1926 3609 
Q 1831 3694 1831 3797 
Q 1831 3825 1850 3913 
Q 1863 3966 1863 4013 
Q 1863 4078 1825 4109 
Q 1775 4156 1703 4156 
Q 1613 4156 1552 4081 
Q 1491 4006 1491 3841 
L 1497 3294 
L 1497 2922 
L 1928 2922 
L 1928 2616 
L 1497 2616 
z
" transform="scale(0.015625)"/>
      <path id="TimesNewRomanPS-BoldMT-6d" d="M 1428 2922 
L 1428 2538 
Q 1669 2800 1873 2904 
Q 2078 3009 2322 3009 
Q 2603 3009 2793 2878 
Q 2984 2747 3088 2478 
Q 3338 2759 3567 2884 
Q 3797 3009 4047 3009 
Q 4350 3009 4529 2870 
Q 4709 2731 4779 2517 
Q 4850 2303 4850 1834 
L 4850 638 
Q 4850 300 4911 219 
Q 4972 138 5166 113 
L 5166 0 
L 3656 0 
L 3656 113 
Q 3834 128 3919 250 
Q 3975 334 3975 638 
L 3975 1894 
Q 3975 2284 3944 2390 
Q 3913 2497 3845 2548 
Q 3778 2600 3688 2600 
Q 3553 2600 3415 2501 
Q 3278 2403 3138 2206 
L 3138 638 
Q 3138 322 3191 241 
Q 3263 125 3466 113 
L 3466 0 
L 1953 0 
L 1953 113 
Q 2075 119 2145 173 
Q 2216 228 2239 304 
Q 2263 381 2263 638 
L 2263 1894 
Q 2263 2291 2231 2391 
Q 2200 2491 2126 2547 
Q 2053 2603 1969 2603 
Q 1844 2603 1741 2538 
Q 1594 2441 1428 2206 
L 1428 638 
Q 1428 328 1489 229 
Q 1550 131 1744 113 
L 1744 0 
L 238 0 
L 238 113 
Q 422 131 500 231 
Q 553 300 553 638 
L 553 2288 
Q 553 2619 492 2700 
Q 431 2781 238 2806 
L 238 2922 
L 1428 2922 
z
" transform="scale(0.015625)"/>
      <path id="TimesNewRomanPS-BoldMT-52" d="M 1700 1931 
L 1700 744 
Q 1700 400 1742 311 
Q 1784 222 1890 169 
Q 1997 116 2288 116 
L 2288 0 
L 119 0 
L 119 116 
Q 413 116 517 170 
Q 622 225 664 312 
Q 706 400 706 744 
L 706 3494 
Q 706 3838 664 3927 
Q 622 4016 515 4069 
Q 409 4122 119 4122 
L 119 4238 
L 2088 4238 
Q 2856 4238 3212 4131 
Q 3569 4025 3794 3739 
Q 4019 3453 4019 3069 
Q 4019 2600 3681 2294 
Q 3466 2100 3078 2003 
L 4097 569 
Q 4297 291 4381 222 
Q 4509 125 4678 116 
L 4678 0 
L 3344 0 
L 1978 1931 
L 1700 1931 
z
M 1700 4009 
L 1700 2153 
L 1878 2153 
Q 2313 2153 2528 2233 
Q 2744 2313 2867 2520 
Q 2991 2728 2991 3063 
Q 2991 3547 2764 3778 
Q 2538 4009 2034 4009 
L 1700 4009 
z
" transform="scale(0.015625)"/>
      <path id="TimesNewRomanPS-BoldMT-28" d="M 2056 4334 
L 2056 4191 
Q 1731 3978 1578 3775 
Q 1366 3494 1247 3053 
Q 1097 2506 1097 1525 
Q 1097 600 1233 87 
Q 1369 -425 1603 -741 
Q 1766 -959 2056 -1125 
L 2056 -1281 
Q 1303 -1028 779 -248 
Q 256 531 256 1544 
Q 256 2544 778 3314 
Q 1300 4084 2056 4334 
z
" transform="scale(0.015625)"/>
      <path id="TimesNewRomanPS-BoldMT-4e" d="M 1594 4238 
L 3684 1609 
L 3684 3431 
Q 3684 3813 3575 3947 
Q 3425 4128 3072 4122 
L 3072 4238 
L 4472 4238 
L 4472 4122 
Q 4203 4088 4111 4033 
Q 4019 3978 3967 3854 
Q 3916 3731 3916 3431 
L 3916 -97 
L 3809 -97 
L 944 3431 
L 944 738 
Q 944 372 1111 244 
Q 1278 116 1494 116 
L 1594 116 
L 1594 0 
L 91 0 
L 91 116 
Q 441 119 578 259 
Q 716 400 716 738 
L 716 3728 
L 625 3841 
Q 491 4009 387 4062 
Q 284 4116 91 4122 
L 91 4238 
L 1594 4238 
z
" transform="scale(0.015625)"/>
      <path id="TimesNewRomanPS-BoldMT-6c" d="M 1359 4238 
L 1359 606 
Q 1359 297 1431 211 
Q 1503 125 1713 113 
L 1713 0 
L 134 0 
L 134 113 
Q 328 119 422 225 
Q 484 297 484 606 
L 484 3631 
Q 484 3938 412 4023 
Q 341 4109 134 4122 
L 134 4238 
L 1359 4238 
z
" transform="scale(0.015625)"/>
      <path id="TimesNewRomanPS-BoldMT-69" d="M 919 4338 
Q 1122 4338 1262 4195 
Q 1403 4053 1403 3853 
Q 1403 3653 1261 3512 
Q 1119 3372 919 3372 
Q 719 3372 578 3512 
Q 438 3653 438 3853 
Q 438 4053 578 4195 
Q 719 4338 919 4338 
z
M 1356 2922 
L 1356 606 
Q 1356 297 1428 211 
Q 1500 125 1709 113 
L 1709 0 
L 131 0 
L 131 113 
Q 325 119 419 225 
Q 481 297 481 606 
L 481 2313 
Q 481 2622 409 2708 
Q 338 2794 131 2806 
L 131 2922 
L 1356 2922 
z
" transform="scale(0.015625)"/>
      <path id="TimesNewRomanPS-BoldMT-7a" d="M 2609 0 
L 66 0 
L 66 69 
L 1672 2731 
L 1203 2731 
Q 900 2731 769 2676 
Q 638 2622 556 2501 
Q 475 2381 388 2072 
L 278 2072 
L 278 2922 
L 2738 2922 
L 2738 2838 
L 1144 200 
L 1344 200 
Q 1944 200 2209 372 
Q 2475 544 2609 1000 
L 2697 1000 
L 2609 0 
z
" transform="scale(0.015625)"/>
      <path id="TimesNewRomanPS-BoldMT-29" d="M 78 -1281 
L 78 -1138 
Q 403 -922 556 -719 
Q 766 -438 888 0 
Q 1038 550 1038 1531 
Q 1038 2456 902 2967 
Q 766 3478 531 3794 
Q 369 4013 78 4178 
L 78 4334 
Q 831 4081 1354 3301 
Q 1878 2522 1878 1509 
Q 1878 513 1354 -257 
Q 831 -1028 78 -1281 
z
" transform="scale(0.015625)"/>
     </defs>
     <use xlink:href="#TimesNewRomanPS-BoldMT-4d"/>
     <use xlink:href="#TimesNewRomanPS-BoldMT-65" transform="translate(94.384766 0)"/>
     <use xlink:href="#TimesNewRomanPS-BoldMT-74" transform="translate(138.769531 0)"/>
     <use xlink:href="#TimesNewRomanPS-BoldMT-68" transform="translate(172.070312 0)"/>
     <use xlink:href="#TimesNewRomanPS-BoldMT-6f" transform="translate(227.685547 0)"/>
     <use xlink:href="#TimesNewRomanPS-BoldMT-64" transform="translate(277.685547 0)"/>
     <use xlink:href="#TimesNewRomanPS-BoldMT-20" transform="translate(333.300781 0)"/>
     <use xlink:href="#TimesNewRomanPS-BoldMT-50" transform="translate(358.300781 0)"/>
     <use xlink:href="#TimesNewRomanPS-BoldMT-65" transform="translate(419.384766 0)"/>
     <use xlink:href="#TimesNewRomanPS-BoldMT-72" transform="translate(463.769531 0)"/>
     <use xlink:href="#TimesNewRomanPS-BoldMT-66" transform="translate(508.154297 0)"/>
     <use xlink:href="#TimesNewRomanPS-BoldMT-6f" transform="translate(541.455078 0)"/>
     <use xlink:href="#TimesNewRomanPS-BoldMT-72" transform="translate(591.455078 0)"/>
     <use xlink:href="#TimesNewRomanPS-BoldMT-6d" transform="translate(635.839844 0)"/>
     <use xlink:href="#TimesNewRomanPS-BoldMT-61" transform="translate(719.140625 0)"/>
     <use xlink:href="#TimesNewRomanPS-BoldMT-6e" transform="translate(769.140625 0)"/>
     <use xlink:href="#TimesNewRomanPS-BoldMT-63" transform="translate(824.755859 0)"/>
     <use xlink:href="#TimesNewRomanPS-BoldMT-65" transform="translate(869.140625 0)"/>
     <use xlink:href="#TimesNewRomanPS-BoldMT-20" transform="translate(913.525391 0)"/>
     <use xlink:href="#TimesNewRomanPS-BoldMT-52" transform="translate(938.525391 0)"/>
     <use xlink:href="#TimesNewRomanPS-BoldMT-61" transform="translate(1010.742188 0)"/>
     <use xlink:href="#TimesNewRomanPS-BoldMT-64" transform="translate(1060.742188 0)"/>
     <use xlink:href="#TimesNewRomanPS-BoldMT-61" transform="translate(1116.357422 0)"/>
     <use xlink:href="#TimesNewRomanPS-BoldMT-72" transform="translate(1166.357422 0)"/>
     <use xlink:href="#TimesNewRomanPS-BoldMT-20" transform="translate(1208.992188 0)"/>
     <use xlink:href="#TimesNewRomanPS-BoldMT-28" transform="translate(1233.992188 0)"/>
     <use xlink:href="#TimesNewRomanPS-BoldMT-4e" transform="translate(1267.292969 0)"/>
     <use xlink:href="#TimesNewRomanPS-BoldMT-6f" transform="translate(1339.509766 0)"/>
     <use xlink:href="#TimesNewRomanPS-BoldMT-72" transform="translate(1389.509766 0)"/>
     <use xlink:href="#TimesNewRomanPS-BoldMT-6d" transform="translate(1433.894531 0)"/>
     <use xlink:href="#TimesNewRomanPS-BoldMT-61" transform="translate(1517.195312 0)"/>
     <use xlink:href="#TimesNewRomanPS-BoldMT-6c" transform="translate(1567.195312 0)"/>
     <use xlink:href="#TimesNewRomanPS-BoldMT-69" transform="translate(1594.978516 0)"/>
     <use xlink:href="#TimesNewRomanPS-BoldMT-7a" transform="translate(1622.761719 0)"/>
     <use xlink:href="#TimesNewRomanPS-BoldMT-65" transform="translate(1667.146484 0)"/>
     <use xlink:href="#TimesNewRomanPS-BoldMT-64" transform="translate(1711.53125 0)"/>
     <use xlink:href="#TimesNewRomanPS-BoldMT-29" transform="translate(1767.146484 0)"/>
    </g>
   </g>
   <g id="legend_1">
    <g id="patch_9">
     <path d="M 521.952 80.914062 
L 598.952 80.914062 
Q 600.952 80.914062 600.952 78.914062 
L 600.952 9.2 
Q 600.952 7.2 598.952 7.2 
L 521.952 7.2 
Q 519.952 7.2 519.952 9.2 
L 519.952 78.914062 
Q 519.952 80.914062 521.952 80.914062 
z
" style="fill: #fafaf8; opacity: 0.95; stroke: #cccccc; stroke-linejoin: miter"/>
    </g>
    <g id="line2d_14">
     <path d="M 523.952 14.7 
L 533.952 14.7 
L 543.952 14.7 
" style="fill: none; stroke: #2e5090; stroke-width: 2; stroke-linecap: square"/>
     <g>
      <use xlink:href="#ma59ac97c37" x="533.952" y="14.7" style="fill: #2e5090; stroke: #ffffff; stroke-width: 1.2"/>
     </g>
    </g>
    <g id="text_10">
     <!-- Expert -->
     <g transform="translate(551.952 18.2) scale(0.1 -0.1)">
      <defs>
       <path id="TimesNewRomanPSMT-45" d="M 1338 4006 
L 1338 2331 
L 2269 2331 
Q 2631 2331 2753 2441 
Q 2916 2584 2934 2947 
L 3050 2947 
L 3050 1472 
L 2934 1472 
Q 2891 1781 2847 1869 
Q 2791 1978 2662 2040 
Q 2534 2103 2269 2103 
L 1338 2103 
L 1338 706 
Q 1338 425 1363 364 
Q 1388 303 1450 267 
Q 1513 231 1688 231 
L 2406 231 
Q 2766 231 2928 281 
Q 3091 331 3241 478 
Q 3434 672 3638 1063 
L 3763 1063 
L 3397 0 
L 131 0 
L 131 116 
L 281 116 
Q 431 116 566 188 
Q 666 238 702 338 
Q 738 438 738 747 
L 738 3500 
Q 738 3903 656 3997 
Q 544 4122 281 4122 
L 131 4122 
L 131 4238 
L 3397 4238 
L 3444 3309 
L 3322 3309 
Q 3256 3644 3176 3769 
Q 3097 3894 2941 3959 
Q 2816 4006 2500 4006 
L 1338 4006 
z
" transform="scale(0.015625)"/>
       <path id="TimesNewRomanPSMT-78" d="M 84 2863 
L 1431 2863 
L 1431 2747 
Q 1303 2747 1251 2703 
Q 1200 2659 1200 2588 
Q 1200 2513 1309 2356 
Q 1344 2306 1413 2200 
L 1616 1875 
L 1850 2200 
Q 2075 2509 2075 2591 
Q 2075 2656 2022 2701 
Q 1969 2747 1850 2747 
L 1850 2863 
L 2819 2863 
L 2819 2747 
Q 2666 2738 2553 2663 
Q 2400 2556 2134 2200 
L 1744 1678 
L 2456 653 
Q 2719 275 2831 198 
Q 2944 122 3122 113 
L 3122 0 
L 1772 0 
L 1772 113 
Q 1913 113 1991 175 
Q 2050 219 2050 291 
Q 2050 363 1850 653 
L 1431 1266 
L 972 653 
Q 759 369 759 316 
Q 759 241 829 180 
Q 900 119 1041 113 
L 1041 0 
L 106 0 
L 106 113 
Q 219 128 303 191 
Q 422 281 703 653 
L 1303 1450 
L 759 2238 
Q 528 2575 401 2661 
Q 275 2747 84 2747 
L 84 2863 
z
" transform="scale(0.015625)"/>
       <path id="TimesNewRomanPSMT-70" d="M -6 2578 
L 875 2934 
L 994 2934 
L 994 2266 
Q 1216 2644 1439 2795 
Q 1663 2947 1909 2947 
Q 2341 2947 2628 2609 
Q 2981 2197 2981 1534 
Q 2981 794 2556 309 
Q 2206 -88 1675 -88 
Q 1444 -88 1275 -22 
Q 1150 25 994 166 
L 994 -706 
Q 994 -1000 1030 -1079 
Q 1066 -1159 1155 -1206 
Q 1244 -1253 1478 -1253 
L 1478 -1369 
L -22 -1369 
L -22 -1253 
L 56 -1253 
Q 228 -1256 350 -1188 
Q 409 -1153 442 -1076 
Q 475 -1000 475 -688 
L 475 2019 
Q 475 2297 450 2372 
Q 425 2447 370 2484 
Q 316 2522 222 2522 
Q 147 2522 31 2478 
L -6 2578 
z
M 994 2081 
L 994 1013 
Q 994 666 1022 556 
Q 1066 375 1236 237 
Q 1406 100 1666 100 
Q 1978 100 2172 344 
Q 2425 663 2425 1241 
Q 2425 1897 2138 2250 
Q 1938 2494 1663 2494 
Q 1513 2494 1366 2419 
Q 1253 2363 994 2081 
z
" transform="scale(0.015625)"/>
       <path id="TimesNewRomanPSMT-65" d="M 681 1784 
Q 678 1147 991 784 
Q 1303 422 1725 422 
Q 2006 422 2214 576 
Q 2422 731 2563 1106 
L 2659 1044 
Q 2594 616 2278 264 
Q 1963 -88 1488 -88 
Q 972 -88 605 314 
Q 238 716 238 1394 
Q 238 2128 614 2539 
Q 991 2950 1559 2950 
Q 2041 2950 2350 2633 
Q 2659 2316 2659 1784 
L 681 1784 
z
M 681 1966 
L 2006 1966 
Q 1991 2241 1941 2353 
Q 1863 2528 1708 2628 
Q 1553 2728 1384 2728 
Q 1125 2728 920 2526 
Q 716 2325 681 1966 
z
" transform="scale(0.015625)"/>
       <path id="TimesNewRomanPSMT-72" d="M 1038 2947 
L 1038 2303 
Q 1397 2947 1775 2947 
Q 1947 2947 2059 2842 
Q 2172 2738 2172 2600 
Q 2172 2478 2090 2393 
Q 2009 2309 1897 2309 
Q 1788 2309 1652 2417 
Q 1516 2525 1450 2525 
Q 1394 2525 1328 2463 
Q 1188 2334 1038 2041 
L 1038 669 
Q 1038 431 1097 309 
Q 1138 225 1241 169 
Q 1344 113 1538 113 
L 1538 0 
L 72 0 
L 72 113 
Q 291 113 397 181 
Q 475 231 506 341 
Q 522 394 522 644 
L 522 1753 
Q 522 2253 501 2348 
Q 481 2444 426 2487 
Q 372 2531 291 2531 
Q 194 2531 72 2484 
L 41 2597 
L 906 2947 
L 1038 2947 
z
" transform="scale(0.015625)"/>
       <path id="TimesNewRomanPSMT-74" d="M 1031 3803 
L 1031 2863 
L 1700 2863 
L 1700 2644 
L 1031 2644 
L 1031 788 
Q 1031 509 1111 412 
Q 1191 316 1316 316 
Q 1419 316 1516 380 
Q 1613 444 1666 569 
L 1788 569 
Q 1678 263 1478 108 
Q 1278 -47 1066 -47 
Q 922 -47 784 33 
Q 647 113 581 261 
Q 516 409 516 719 
L 516 2644 
L 63 2644 
L 63 2747 
Q 234 2816 414 2980 
Q 594 3144 734 3369 
Q 806 3488 934 3803 
L 1031 3803 
z
" transform="scale(0.015625)"/>
      </defs>
      <use xlink:href="#TimesNewRomanPSMT-45"/>
      <use xlink:href="#TimesNewRomanPSMT-78" transform="translate(61.083984 0)"/>
      <use xlink:href="#TimesNewRomanPSMT-70" transform="translate(111.083984 0)"/>
      <use xlink:href="#TimesNewRomanPSMT-65" transform="translate(161.083984 0)"/>
      <use xlink:href="#TimesNewRomanPSMT-72" transform="translate(205.46875 0)"/>
      <use xlink:href="#TimesNewRomanPSMT-74" transform="translate(238.769531 0)"/>
     </g>
    </g>
    <g id="line2d_15">
     <path d="M 523.952 28.839062 
L 533.952 28.839062 
L 543.952 28.839062 
" style="fill: none; stroke: #6b4c9a; stroke-width: 2; stroke-linecap: square"/>
     <g>
      <use xlink:href="#mce5c2de983" x="533.952" y="28.839062" style="fill: #6b4c9a; stroke: #ffffff; stroke-width: 1.2"/>
     </g>
    </g>
    <g id="text_11">
     <!-- Distillation -->
     <g transform="translate(551.952 32.339062) scale(0.1 -0.1)">
      <defs>
       <path id="TimesNewRomanPSMT-44" d="M 109 0 
L 109 116 
L 269 116 
Q 538 116 650 288 
Q 719 391 719 750 
L 719 3488 
Q 719 3884 631 3984 
Q 509 4122 269 4122 
L 109 4122 
L 109 4238 
L 1834 4238 
Q 2784 4238 3279 4022 
Q 3775 3806 4076 3303 
Q 4378 2800 4378 2141 
Q 4378 1256 3841 663 
Q 3238 0 2003 0 
L 109 0 
z
M 1319 306 
Q 1716 219 1984 219 
Q 2709 219 3187 728 
Q 3666 1238 3666 2109 
Q 3666 2988 3187 3494 
Q 2709 4000 1959 4000 
Q 1678 4000 1319 3909 
L 1319 306 
z
" transform="scale(0.015625)"/>
       <path id="TimesNewRomanPSMT-69" d="M 928 4444 
Q 1059 4444 1151 4351 
Q 1244 4259 1244 4128 
Q 1244 3997 1151 3903 
Q 1059 3809 928 3809 
Q 797 3809 703 3903 
Q 609 3997 609 4128 
Q 609 4259 701 4351 
Q 794 4444 928 4444 
z
M 1188 2947 
L 1188 647 
Q 1188 378 1227 289 
Q 1266 200 1342 156 
Q 1419 113 1622 113 
L 1622 0 
L 231 0 
L 231 113 
Q 441 113 512 153 
Q 584 194 626 287 
Q 669 381 669 647 
L 669 1750 
Q 669 2216 641 2353 
Q 619 2453 572 2492 
Q 525 2531 444 2531 
Q 356 2531 231 2484 
L 188 2597 
L 1050 2947 
L 1188 2947 
z
" transform="scale(0.015625)"/>
       <path id="TimesNewRomanPSMT-73" d="M 2050 2947 
L 2050 1972 
L 1947 1972 
Q 1828 2431 1642 2597 
Q 1456 2763 1169 2763 
Q 950 2763 815 2647 
Q 681 2531 681 2391 
Q 681 2216 781 2091 
Q 878 1963 1175 1819 
L 1631 1597 
Q 2266 1288 2266 781 
Q 2266 391 1970 151 
Q 1675 -88 1309 -88 
Q 1047 -88 709 6 
Q 606 38 541 38 
Q 469 38 428 -44 
L 325 -44 
L 325 978 
L 428 978 
Q 516 541 762 319 
Q 1009 97 1316 97 
Q 1531 97 1667 223 
Q 1803 350 1803 528 
Q 1803 744 1651 891 
Q 1500 1038 1047 1263 
Q 594 1488 453 1669 
Q 313 1847 313 2119 
Q 313 2472 555 2709 
Q 797 2947 1181 2947 
Q 1350 2947 1591 2875 
Q 1750 2828 1803 2828 
Q 1853 2828 1881 2850 
Q 1909 2872 1947 2947 
L 2050 2947 
z
" transform="scale(0.015625)"/>
       <path id="TimesNewRomanPSMT-6c" d="M 1184 4444 
L 1184 647 
Q 1184 378 1223 290 
Q 1263 203 1344 158 
Q 1425 113 1647 113 
L 1647 0 
L 244 0 
L 244 113 
Q 441 113 512 153 
Q 584 194 625 287 
Q 666 381 666 647 
L 666 3247 
Q 666 3731 644 3842 
Q 622 3953 573 3993 
Q 525 4034 450 4034 
Q 369 4034 244 3984 
L 191 4094 
L 1044 4444 
L 1184 4444 
z
" transform="scale(0.015625)"/>
       <path id="TimesNewRomanPSMT-61" d="M 1822 413 
Q 1381 72 1269 19 
Q 1100 -59 909 -59 
Q 613 -59 420 144 
Q 228 347 228 678 
Q 228 888 322 1041 
Q 450 1253 767 1440 
Q 1084 1628 1822 1897 
L 1822 2009 
Q 1822 2438 1686 2597 
Q 1550 2756 1291 2756 
Q 1094 2756 978 2650 
Q 859 2544 859 2406 
L 866 2225 
Q 866 2081 792 2003 
Q 719 1925 600 1925 
Q 484 1925 411 2006 
Q 338 2088 338 2228 
Q 338 2497 613 2722 
Q 888 2947 1384 2947 
Q 1766 2947 2009 2819 
Q 2194 2722 2281 2516 
Q 2338 2381 2338 1966 
L 2338 994 
Q 2338 584 2353 492 
Q 2369 400 2405 369 
Q 2441 338 2488 338 
Q 2538 338 2575 359 
Q 2641 400 2828 588 
L 2828 413 
Q 2478 -56 2159 -56 
Q 2006 -56 1915 50 
Q 1825 156 1822 413 
z
M 1822 616 
L 1822 1706 
Q 1350 1519 1213 1441 
Q 966 1303 859 1153 
Q 753 1003 753 825 
Q 753 600 887 451 
Q 1022 303 1197 303 
Q 1434 303 1822 616 
z
" transform="scale(0.015625)"/>
       <path id="TimesNewRomanPSMT-6f" d="M 1600 2947 
Q 2250 2947 2644 2453 
Q 2978 2031 2978 1484 
Q 2978 1100 2793 706 
Q 2609 313 2286 112 
Q 1963 -88 1566 -88 
Q 919 -88 538 428 
Q 216 863 216 1403 
Q 216 1797 411 2186 
Q 606 2575 925 2761 
Q 1244 2947 1600 2947 
z
M 1503 2744 
Q 1338 2744 1170 2645 
Q 1003 2547 900 2300 
Q 797 2053 797 1666 
Q 797 1041 1045 587 
Q 1294 134 1700 134 
Q 2003 134 2200 384 
Q 2397 634 2397 1244 
Q 2397 2006 2069 2444 
Q 1847 2744 1503 2744 
z
" transform="scale(0.015625)"/>
       <path id="TimesNewRomanPSMT-6e" d="M 1034 2341 
Q 1538 2947 1994 2947 
Q 2228 2947 2397 2830 
Q 2566 2713 2666 2444 
Q 2734 2256 2734 1869 
L 2734 647 
Q 2734 375 2778 278 
Q 2813 200 2889 156 
Q 2966 113 3172 113 
L 3172 0 
L 1756 0 
L 1756 113 
L 1816 113 
Q 2016 113 2095 173 
Q 2175 234 2206 353 
Q 2219 400 2219 647 
L 2219 1819 
Q 2219 2209 2117 2386 
Q 2016 2563 1775 2563 
Q 1403 2563 1034 2156 
L 1034 647 
Q 1034 356 1069 288 
Q 1113 197 1189 155 
Q 1266 113 1500 113 
L 1500 0 
L 84 0 
L 84 113 
L 147 113 
Q 366 113 442 223 
Q 519 334 519 647 
L 519 1709 
Q 519 2225 495 2337 
Q 472 2450 423 2490 
Q 375 2531 294 2531 
Q 206 2531 84 2484 
L 38 2597 
L 900 2947 
L 1034 2947 
L 1034 2341 
z
" transform="scale(0.015625)"/>
      </defs>
      <use xlink:href="#TimesNewRomanPSMT-44"/>
      <use xlink:href="#TimesNewRomanPSMT-69" transform="translate(72.216797 0)"/>
      <use xlink:href="#TimesNewRomanPSMT-73" transform="translate(100 0)"/>
      <use xlink:href="#TimesNewRomanPSMT-74" transform="translate(138.916016 0)"/>
      <use xlink:href="#TimesNewRomanPSMT-69" transform="translate(166.699219 0)"/>
      <use xlink:href="#TimesNewRomanPSMT-6c" transform="translate(194.482422 0)"/>
      <use xlink:href="#TimesNewRomanPSMT-6c" transform="translate(222.265625 0)"/>
      <use xlink:href="#TimesNewRomanPSMT-61" transform="translate(250.048828 0)"/>
      <use xlink:href="#TimesNewRomanPSMT-74" transform="translate(294.433594 0)"/>
      <use xlink:href="#TimesNewRomanPSMT-69" transform="translate(322.216797 0)"/>
      <use xlink:href="#TimesNewRomanPSMT-6f" transform="translate(350 0)"/>
      <use xlink:href="#TimesNewRomanPSMT-6e" transform="translate(400 0)"/>
     </g>
    </g>
    <g id="line2d_16">
     <path d="M 523.952 42.978125 
L 533.952 42.978125 
L 543.952 42.978125 
" style="fill: none; stroke: #6b4c9a; stroke-width: 2; stroke-linecap: square"/>
     <g>
      <use xlink:href="#mce5c2de983" x="533.952" y="42.978125" style="fill: #6b4c9a; stroke: #ffffff; stroke-width: 1.2"/>
     </g>
    </g>
    <g id="text_12">
     <!-- One-Shot -->
     <g transform="translate(551.952 46.478125) scale(0.1 -0.1)">
      <defs>
       <path id="TimesNewRomanPSMT-4f" d="M 2341 4334 
Q 3166 4334 3770 3707 
Q 4375 3081 4375 2144 
Q 4375 1178 3765 540 
Q 3156 -97 2291 -97 
Q 1416 -97 820 525 
Q 225 1147 225 2134 
Q 225 3144 913 3781 
Q 1509 4334 2341 4334 
z
M 2281 4106 
Q 1713 4106 1369 3684 
Q 941 3159 941 2147 
Q 941 1109 1384 550 
Q 1725 125 2284 125 
Q 2881 125 3270 590 
Q 3659 1056 3659 2059 
Q 3659 3147 3231 3681 
Q 2888 4106 2281 4106 
z
" transform="scale(0.015625)"/>
       <path id="TimesNewRomanPSMT-2d" d="M 259 1672 
L 1875 1672 
L 1875 1200 
L 259 1200 
L 259 1672 
z
" transform="scale(0.015625)"/>
       <path id="TimesNewRomanPSMT-53" d="M 2934 4334 
L 2934 2869 
L 2819 2869 
Q 2763 3291 2617 3541 
Q 2472 3791 2203 3937 
Q 1934 4084 1647 4084 
Q 1322 4084 1109 3886 
Q 897 3688 897 3434 
Q 897 3241 1031 3081 
Q 1225 2847 1953 2456 
Q 2547 2138 2764 1967 
Q 2981 1797 3098 1565 
Q 3216 1334 3216 1081 
Q 3216 600 2842 251 
Q 2469 -97 1881 -97 
Q 1697 -97 1534 -69 
Q 1438 -53 1133 45 
Q 828 144 747 144 
Q 669 144 623 97 
Q 578 50 556 -97 
L 441 -97 
L 441 1356 
L 556 1356 
Q 638 900 775 673 
Q 913 447 1195 297 
Q 1478 147 1816 147 
Q 2206 147 2432 353 
Q 2659 559 2659 841 
Q 2659 997 2573 1156 
Q 2488 1316 2306 1453 
Q 2184 1547 1640 1851 
Q 1097 2156 867 2337 
Q 638 2519 519 2737 
Q 400 2956 400 3219 
Q 400 3675 750 4004 
Q 1100 4334 1641 4334 
Q 1978 4334 2356 4169 
Q 2531 4091 2603 4091 
Q 2684 4091 2736 4139 
Q 2788 4188 2819 4334 
L 2934 4334 
z
" transform="scale(0.015625)"/>
       <path id="TimesNewRomanPSMT-68" d="M 1041 4444 
L 1041 2350 
Q 1388 2731 1591 2839 
Q 1794 2947 1997 2947 
Q 2241 2947 2416 2812 
Q 2591 2678 2675 2391 
Q 2734 2191 2734 1659 
L 2734 647 
Q 2734 375 2778 275 
Q 2809 200 2884 156 
Q 2959 113 3159 113 
L 3159 0 
L 1753 0 
L 1753 113 
L 1819 113 
Q 2019 113 2097 173 
Q 2175 234 2206 353 
Q 2216 403 2216 647 
L 2216 1659 
Q 2216 2128 2167 2275 
Q 2119 2422 2012 2495 
Q 1906 2569 1756 2569 
Q 1603 2569 1437 2487 
Q 1272 2406 1041 2159 
L 1041 647 
Q 1041 353 1073 281 
Q 1106 209 1195 161 
Q 1284 113 1503 113 
L 1503 0 
L 84 0 
L 84 113 
Q 275 113 384 172 
Q 447 203 484 290 
Q 522 378 522 647 
L 522 3238 
Q 522 3728 498 3840 
Q 475 3953 426 3993 
Q 378 4034 297 4034 
Q 231 4034 84 3984 
L 41 4094 
L 897 4444 
L 1041 4444 
z
" transform="scale(0.015625)"/>
      </defs>
      <use xlink:href="#TimesNewRomanPSMT-4f"/>
      <use xlink:href="#TimesNewRomanPSMT-6e" transform="translate(72.216797 0)"/>
      <use xlink:href="#TimesNewRomanPSMT-65" transform="translate(122.216797 0)"/>
      <use xlink:href="#TimesNewRomanPSMT-2d" transform="translate(166.601562 0)"/>
      <use xlink:href="#TimesNewRomanPSMT-53" transform="translate(199.902344 0)"/>
      <use xlink:href="#TimesNewRomanPSMT-68" transform="translate(255.517578 0)"/>
      <use xlink:href="#TimesNewRomanPSMT-6f" transform="translate(305.517578 0)"/>
      <use xlink:href="#TimesNewRomanPSMT-74" transform="translate(355.517578 0)"/>
     </g>
    </g>
    <g id="line2d_17">
     <path d="M 523.952 57.117187 
L 533.952 57.117187 
L 543.952 57.117187 
" style="fill: none; stroke: #b5322a; stroke-width: 2; stroke-linecap: square"/>
     <g>
      <use xlink:href="#mf5fceadf93" x="533.952" y="57.117187" style="fill: #b5322a; stroke: #ffffff; stroke-width: 1.2"/>
     </g>
    </g>
    <g id="text_13">
     <!-- Iterative -->
     <g transform="translate(551.952 60.617187) scale(0.1 -0.1)">
      <defs>
       <path id="TimesNewRomanPSMT-49" d="M 1975 116 
L 1975 0 
L 159 0 
L 159 116 
L 309 116 
Q 572 116 691 269 
Q 766 369 766 750 
L 766 3488 
Q 766 3809 725 3913 
Q 694 3991 597 4047 
Q 459 4122 309 4122 
L 159 4122 
L 159 4238 
L 1975 4238 
L 1975 4122 
L 1822 4122 
Q 1563 4122 1444 3969 
Q 1366 3869 1366 3488 
L 1366 750 
Q 1366 428 1406 325 
Q 1438 247 1538 191 
Q 1672 116 1822 116 
L 1975 116 
z
" transform="scale(0.015625)"/>
       <path id="TimesNewRomanPSMT-76" d="M 53 2863 
L 1400 2863 
L 1400 2747 
L 1313 2747 
Q 1191 2747 1127 2687 
Q 1063 2628 1063 2528 
Q 1063 2419 1128 2269 
L 1794 688 
L 2463 2328 
Q 2534 2503 2534 2594 
Q 2534 2638 2509 2666 
Q 2475 2713 2422 2730 
Q 2369 2747 2206 2747 
L 2206 2863 
L 3141 2863 
L 3141 2747 
Q 2978 2734 2916 2681 
Q 2806 2588 2719 2369 
L 1703 -88 
L 1575 -88 
L 553 2328 
Q 484 2497 421 2570 
Q 359 2644 263 2694 
Q 209 2722 53 2747 
L 53 2863 
z
" transform="scale(0.015625)"/>
      </defs>
      <use xlink:href="#TimesNewRomanPSMT-49"/>
      <use xlink:href="#TimesNewRomanPSMT-74" transform="translate(33.300781 0)"/>
      <use xlink:href="#TimesNewRomanPSMT-65" transform="translate(61.083984 0)"/>
      <use xlink:href="#TimesNewRomanPSMT-72" transform="translate(105.46875 0)"/>
      <use xlink:href="#TimesNewRomanPSMT-61" transform="translate(138.769531 0)"/>
      <use xlink:href="#TimesNewRomanPSMT-74" transform="translate(183.154297 0)"/>
      <use xlink:href="#TimesNewRomanPSMT-69" transform="translate(210.9375 0)"/>
      <use xlink:href="#TimesNewRomanPSMT-76" transform="translate(238.720703 0)"/>
      <use xlink:href="#TimesNewRomanPSMT-65" transform="translate(288.720703 0)"/>
     </g>
    </g>
    <g id="line2d_18">
     <path d="M 523.952 71.25625 
L 533.952 71.25625 
L 543.952 71.25625 
" style="fill: none; stroke: #5a8a3c; stroke-width: 2; stroke-linecap: square"/>
     <g>
      <use xlink:href="#m3e48dc472f" x="533.952" y="71.25625" style="fill: #5a8a3c; stroke: #ffffff; stroke-width: 1.2"/>
     </g>
    </g>
    <g id="text_14">
     <!-- Hybrid -->
     <g transform="translate(551.952 74.75625) scale(0.1 -0.1)">
      <defs>
       <path id="TimesNewRomanPSMT-48" d="M 1316 2272 
L 3284 2272 
L 3284 3484 
Q 3284 3809 3244 3913 
Q 3213 3991 3113 4047 
Q 2978 4122 2828 4122 
L 2678 4122 
L 2678 4238 
L 4491 4238 
L 4491 4122 
L 4341 4122 
Q 4191 4122 4056 4050 
Q 3956 4000 3920 3898 
Q 3884 3797 3884 3484 
L 3884 750 
Q 3884 428 3925 325 
Q 3956 247 4053 191 
Q 4191 116 4341 116 
L 4491 116 
L 4491 0 
L 2678 0 
L 2678 116 
L 2828 116 
Q 3088 116 3206 269 
Q 3284 369 3284 750 
L 3284 2041 
L 1316 2041 
L 1316 750 
Q 1316 428 1356 325 
Q 1388 247 1488 191 
Q 1622 116 1772 116 
L 1925 116 
L 1925 0 
L 109 0 
L 109 116 
L 259 116 
Q 522 116 641 269 
Q 716 369 716 750 
L 716 3484 
Q 716 3809 675 3913 
Q 644 3991 547 4047 
Q 409 4122 259 4122 
L 109 4122 
L 109 4238 
L 1925 4238 
L 1925 4122 
L 1772 4122 
Q 1622 4122 1488 4050 
Q 1391 4000 1353 3898 
Q 1316 3797 1316 3484 
L 1316 2272 
z
" transform="scale(0.015625)"/>
       <path id="TimesNewRomanPSMT-79" d="M 38 2863 
L 1372 2863 
L 1372 2747 
L 1306 2747 
Q 1166 2747 1095 2686 
Q 1025 2625 1025 2534 
Q 1025 2413 1128 2197 
L 1825 753 
L 2466 2334 
Q 2519 2463 2519 2588 
Q 2519 2644 2497 2672 
Q 2472 2706 2419 2726 
Q 2366 2747 2231 2747 
L 2231 2863 
L 3163 2863 
L 3163 2747 
Q 3047 2734 2984 2696 
Q 2922 2659 2847 2556 
Q 2819 2513 2741 2316 
L 1575 -541 
Q 1406 -956 1132 -1168 
Q 859 -1381 606 -1381 
Q 422 -1381 303 -1275 
Q 184 -1169 184 -1031 
Q 184 -900 270 -820 
Q 356 -741 506 -741 
Q 609 -741 788 -809 
Q 913 -856 944 -856 
Q 1038 -856 1148 -759 
Q 1259 -663 1372 -384 
L 1575 113 
L 547 2272 
Q 500 2369 397 2513 
Q 319 2622 269 2659 
Q 197 2709 38 2747 
L 38 2863 
z
" transform="scale(0.015625)"/>
       <path id="TimesNewRomanPSMT-62" d="M 984 2369 
Q 1400 2947 1881 2947 
Q 2322 2947 2650 2570 
Q 2978 2194 2978 1541 
Q 2978 778 2472 313 
Q 2038 -88 1503 -88 
Q 1253 -88 995 3 
Q 738 94 469 275 
L 469 3241 
Q 469 3728 445 3840 
Q 422 3953 372 3993 
Q 322 4034 247 4034 
Q 159 4034 28 3984 
L -16 4094 
L 844 4444 
L 984 4444 
L 984 2369 
z
M 984 2169 
L 984 456 
Q 1144 300 1314 220 
Q 1484 141 1663 141 
Q 1947 141 2192 453 
Q 2438 766 2438 1363 
Q 2438 1913 2192 2208 
Q 1947 2503 1634 2503 
Q 1469 2503 1303 2419 
Q 1178 2356 984 2169 
z
" transform="scale(0.015625)"/>
       <path id="TimesNewRomanPSMT-64" d="M 2222 322 
Q 2013 103 1813 7 
Q 1613 -88 1381 -88 
Q 913 -88 563 304 
Q 213 697 213 1313 
Q 213 1928 600 2439 
Q 988 2950 1597 2950 
Q 1975 2950 2222 2709 
L 2222 3238 
Q 2222 3728 2198 3840 
Q 2175 3953 2125 3993 
Q 2075 4034 2000 4034 
Q 1919 4034 1784 3984 
L 1744 4094 
L 2597 4444 
L 2738 4444 
L 2738 1134 
Q 2738 631 2761 520 
Q 2784 409 2836 365 
Q 2888 322 2956 322 
Q 3041 322 3181 375 
L 3216 266 
L 2366 -88 
L 2222 -88 
L 2222 322 
z
M 2222 541 
L 2222 2016 
Q 2203 2228 2109 2403 
Q 2016 2578 1861 2667 
Q 1706 2756 1559 2756 
Q 1284 2756 1069 2509 
Q 784 2184 784 1559 
Q 784 928 1059 592 
Q 1334 256 1672 256 
Q 1956 256 2222 541 
z
" transform="scale(0.015625)"/>
      </defs>
      <use xlink:href="#TimesNewRomanPSMT-48"/>
      <use xlink:href="#TimesNewRomanPSMT-79" transform="translate(72.216797 0)"/>
      <use xlink:href="#TimesNewRomanPSMT-62" transform="translate(122.216797 0)"/>
      <use xlink:href="#TimesNewRomanPSMT-72" transform="translate(172.216797 0)"/>
      <use xlink:href="#TimesNewRomanPSMT-69" transform="translate(205.517578 0)"/>
      <use xlink:href="#TimesNewRomanPSMT-64" transform="translate(233.300781 0)"/>
     </g>
    </g>
   </g>
  </g>
 </g>
 <defs>
  <clipPath id="pfce13d326c">
   <path d="M 450.72 268.312 
C 450.72 239.190744 444.983747 210.352655 433.839525 183.448122 
C 422.695303 156.543589 406.359838 132.095838 385.768 111.504 
C 365.176162 90.912162 340.728411 74.576697 313.823878 63.432475 
C 286.919345 52.288253 258.081256 46.552 228.96 46.552 
C 199.838744 46.552 171.000655 52.288253 144.096122 63.432475 
C 117.191589 74.576697 92.743838 90.912162 72.152 111.504 
C 51.560162 132.095838 35.224697 156.543589 24.080475 183.448122 
C 12.936253 210.352655 7.2 239.190744 7.2 268.312 
C 7.2 297.433256 12.936253 326.271345 24.080475 353.175878 
C 35.224697 380.080411 51.560162 404.528162 72.152 425.12 
C 92.743838 445.711838 117.191589 462.047303 144.096122 473.191525 
C 171.000655 484.335747 199.838744 490.072 228.96 490.072 
C 258.081256 490.072 286.919345 484.335747 313.823878 473.191525 
C 340.728411 462.047303 365.176162 445.711838 385.768 425.12 
C 406.359838 404.528162 422.695303 380.080411 433.839525 353.175878 
C 444.983747 326.271345 450.72 297.433256 450.72 268.312 
M 228.96 268.312 
C 228.96 268.312 228.96 268.312 228.96 268.312 
C 228.96 268.312 228.96 268.312 228.96 268.312 
C 228.96 268.312 228.96 268.312 228.96 268.312 
C 228.96 268.312 228.96 268.312 228.96 268.312 
C 228.96 268.312 228.96 268.312 228.96 268.312 
C 228.96 268.312 228.96 268.312 228.96 268.312 
C 228.96 268.312 228.96 268.312 228.96 268.312 
C 228.96 268.312 228.96 268.312 228.96 268.312 
C 228.96 268.312 228.96 268.312 228.96 268.312 
C 228.96 268.312 228.96 268.312 228.96 268.312 
C 228.96 268.312 228.96 268.312 228.96 268.312 
C 228.96 268.312 228.96 268.312 228.96 268.312 
C 228.96 268.312 228.96 268.312 228.96 268.312 
C 228.96 268.312 228.96 268.312 228.96 268.312 
C 228.96 268.312 228.96 268.312 228.96 268.312 
C 228.96 268.312 228.96 268.312 228.96 268.312 
z
"/>
  </clipPath>
 </defs>
</svg>
