<?xml version="1.0" encoding="utf-8" standalone="no"?>
<!DOCTYPE svg PUBLIC "-//W3C//DTD SVG 1.1//EN"
  "http://www.w3.org/Graphics/SVG/1.1/DTD/svg11.dtd">
<svg xmlns:xlink="http://www.w3.org/1999/xlink" width="608.152pt" height="497.272pt" viewBox="0 0 608.152 497.272" xmlns="http://www.w3.org/2000/svg" version="1.1">
 <metadata>
  <rdf:RDF xmlns:dc="http://purl.org/dc/elements/1.1/" xmlns:cc="http://creativecommons.org/ns#" xmlns:rdf="http://www.w3.org/1999/02/22-rdf-syntax-ns#">
   <cc:Work>
    <dc:type rdf:resource="http://purl.org/dc/dcmitype/StillImage"/>
    <dc:date>2026-02-24T14:41:23.485653</dc:date>
    <dc:format>image/svg+xml</dc:format>
    <dc:creator>
     <cc:Agent>
      <dc:title>Matplotlib v3.8.0, https://matplotlib.org/</dc:title>
     </cc:Agent>
    </dc:creator>
   </cc:Work>
  </rdf:RDF>
 </metadata>
 <defs>
  <style type="text/css">*{stroke-linejoin: round; stroke-linecap: butt}</style>
 </defs>
 <g id="figure_1">
  <g id="patch_1">
   <path d="M 0 497.272 
L 608.152 497.272 
L 608.152 0 
L 0 0 
z
" style="fill: #ffffff"/>
  </g>
  <g id="axes_1">
   <g id="patch_2">
    <path d="M 450.72 268.312 
C 450.72 239.190744 444.983747 210.352655 433.839525 183.448122 
C 422.695303 156.543589 406.359838 132.095838 385.768 111.504 
C 365.176162 90.912162 340.728411 74.576697 313.823878 63.432475 
C 286.919345 52.288253 258.081256 46.552 228.96 46.552 
C 199.838744 46.552 171.000655 52.288253 144.096122 63.432475 
C 117.191589 74.576697 92.743838 90.912162 72.152 111.504 
C 51.560162 132.095838 35.224697 156.543589 24.080475 183.448122 
C 12.936253 210.352655 7.2 239.190744 7.2 268.312 
C 7.2 297.433256 12.936253 326.271345 24.080475 353.175878 
C 35.224697 380.080411 51.560162 404.528162 72.152 425.12 
C 92.743838 445.711838 117.191589 462.047303 144.096122 473.191525 
C 171.000655 484.335747 199.838744 490.072 228.96 490.072 
C 258.081256 490.072 286.919345 484.335747 313.823878 473.191525 
C 340.728411 462.047303 365.176162 445.711838 385.768 425.12 
C 406.359838 404.528162 422.695303 380.080411 433.839525 353.175878 
C 444.983747 326.271345 450.72 297.433256 450.72 268.312 
M 228.96 268.312 
C 228.96 268.312 228.96 268.312 228.96 268.312 
C 228.96 268.312 228.96 268.312 228.96 268.312 
C 228.96 268.312 228.96 268.312 228.96 268.312 
C 228.96 268.312 228.96 268.312 228.96 268.312 
C 228.96 268.312 228.96 268.312 228.96 268.312 
C 228.96 268.312 228.96 268.312 228.96 268.312 
C 228.96 268.312 228.96 268.312 228.96 268.312 
C 228.96 268.312 228.96 268.312 228.96 268.312 
C 228.96 268.312 228.96 268.312 228.96 268.312 
C 228.96 268.312 228.96 268.312 228.96 268.312 
C 228.96 268.312 228.96 268.312 228.96 268.312 
C 228.96 268.312 228.96 268.312 228.96 268.312 
C 228.96 268.312 228.96 268.312 228.96 268.312 
C 228.96 268.312 228.96 268.312 228.96 268.312 
C 228.96 268.312 228.96 268.312 228.96 268.312 
C 228.96 268.312 228.96 268.312 228.96 268.312 
z
" style="fill: #fafaf8"/>
   </g>
   <g id="matplotlib.axis_1">
    <g id="xtick_1">
     <g id="line2d_1">
      <path d="M 228.96 268.312 
L 450.72 268.312 
" clip-path="url(#pfefc15a4df)" style="fill: none; stroke-dasharray: 1.85,0.8; stroke-dashoffset: 0; stroke: #d0d0d0; stroke-opacity: 0.8; stroke-width: 0.5"/>
     </g>
     <g id="text_1">
      <!-- Pong -->
      <g transform="translate(448.305625 271.452625) scale(0.12 -0.12)">
       <defs>
        <path id="DejaVuSerif-Bold-50" d="M 300 0 
L 300 378 
L 897 378 
L 897 4288 
L 300 4288 
L 300 4666 
L 2956 4666 
Q 3734 4666 4193 4295 
Q 4653 3925 4653 3303 
Q 4653 2678 4192 2304 
Q 3731 1931 2956 1931 
L 2100 1931 
L 2100 378 
L 2853 378 
L 2853 0 
L 300 0 
z
M 2100 2309 
L 2450 2309 
Q 2856 2309 3098 2579 
Q 3341 2850 3341 3303 
Q 3341 3753 3100 4020 
Q 2859 4288 2450 4288 
L 2100 4288 
L 2100 2309 
z
" transform="scale(0.015625)"/>
        <path id="DejaVuSerif-Bold-6f" d="M 2138 263 
Q 2488 263 2630 563 
Q 2772 863 2772 1663 
Q 2772 2463 2631 2761 
Q 2491 3059 2138 3059 
Q 1784 3059 1640 2757 
Q 1497 2456 1497 1663 
Q 1497 869 1640 566 
Q 1784 263 2138 263 
z
M 2138 -91 
Q 1259 -91 761 376 
Q 263 844 263 1663 
Q 263 2484 761 2948 
Q 1259 3413 2138 3413 
Q 3019 3413 3516 2948 
Q 4013 2484 4013 1663 
Q 4013 844 3514 376 
Q 3016 -91 2138 -91 
z
" transform="scale(0.015625)"/>
        <path id="DejaVuSerif-Bold-6e" d="M 219 0 
L 219 378 
L 691 378 
L 691 2944 
L 219 2944 
L 219 3322 
L 1797 3322 
L 1797 2853 
Q 1997 3150 2253 3281 
Q 2509 3413 2900 3413 
Q 3459 3413 3745 3083 
Q 4031 2753 4031 2113 
L 4031 378 
L 4506 378 
L 4506 0 
L 2522 0 
L 2522 378 
L 2925 378 
L 2925 2144 
Q 2925 2566 2817 2730 
Q 2709 2894 2444 2894 
Q 2109 2894 1953 2648 
Q 1797 2403 1797 1869 
L 1797 378 
L 2203 378 
L 2203 0 
L 219 0 
z
" transform="scale(0.015625)"/>
        <path id="DejaVuSerif-Bold-67" d="M 3853 2944 
L 3853 44 
Q 3853 -656 3354 -1039 
Q 2856 -1422 1947 -1422 
Q 1616 -1422 1275 -1370 
Q 934 -1319 575 -1216 
L 575 -422 
L 928 -422 
Q 975 -750 1192 -909 
Q 1409 -1069 1813 -1069 
Q 2325 -1069 2536 -823 
Q 2747 -578 2747 44 
L 2747 422 
Q 2606 163 2367 36 
Q 2128 -91 1778 -91 
Q 1072 -91 667 378 
Q 263 847 263 1663 
Q 263 2481 667 2947 
Q 1072 3413 1778 3413 
Q 2128 3413 2367 3286 
Q 2606 3159 2747 2900 
L 2747 3322 
L 4325 3322 
L 4325 2944 
L 3853 2944 
z
M 2747 1825 
Q 2747 2406 2597 2665 
Q 2447 2925 2119 2925 
Q 1775 2925 1636 2651 
Q 1497 2378 1497 1663 
Q 1497 947 1637 672 
Q 1778 397 2119 397 
Q 2447 397 2597 656 
Q 2747 916 2747 1497 
L 2747 1825 
z
" transform="scale(0.015625)"/>
       </defs>
       <use xlink:href="#DejaVuSerif-Bold-50"/>
       <use xlink:href="#DejaVuSerif-Bold-6f" x="72.570312"/>
       <use xlink:href="#DejaVuSerif-Bold-6e" x="139.269531"/>
       <use xlink:href="#DejaVuSerif-Bold-67" x="211.974609"/>
      </g>
     </g>
    </g>
    <g id="xtick_2">
     <g id="line2d_2">
      <path d="M 228.96 268.312 
L 118.08 76.262206 
" clip-path="url(#pfefc15a4df)" style="fill: none; stroke-dasharray: 1.85,0.8; stroke-dashoffset: 0; stroke: #d0d0d0; stroke-opacity: 0.8; stroke-width: 0.5"/>
     </g>
     <g id="text_2">
      <!-- Breakout -->
      <g transform="translate(79.6 67.016088) scale(0.12 -0.12)">
       <defs>
        <path id="DejaVuSerif-Bold-42" d="M 300 0 
L 300 378 
L 897 378 
L 897 4288 
L 300 4288 
L 300 4666 
L 3066 4666 
Q 3919 4666 4347 4378 
Q 4775 4091 4775 3513 
Q 4775 3097 4479 2853 
Q 4184 2609 3603 2547 
Q 4306 2481 4681 2172 
Q 5056 1863 5056 1350 
Q 5056 656 4532 328 
Q 4009 0 2894 0 
L 300 0 
z
M 2100 2719 
L 2509 2719 
Q 3047 2719 3306 2914 
Q 3566 3109 3566 3513 
Q 3566 3919 3314 4103 
Q 3063 4288 2509 4288 
L 2100 4288 
L 2100 2719 
z
M 2100 378 
L 2547 378 
Q 3144 378 3431 615 
Q 3719 853 3719 1350 
Q 3719 1850 3428 2097 
Q 3138 2344 2547 2344 
L 2100 2344 
L 2100 378 
z
" transform="scale(0.015625)"/>
        <path id="DejaVuSerif-Bold-72" d="M 3438 3359 
L 3438 2369 
L 3084 2369 
Q 3066 2634 2941 2764 
Q 2816 2894 2578 2894 
Q 2216 2894 2006 2575 
Q 1797 2256 1797 1691 
L 1797 378 
L 2400 378 
L 2400 0 
L 219 0 
L 219 378 
L 691 378 
L 691 2944 
L 184 2944 
L 184 3322 
L 1797 3322 
L 1797 2731 
Q 1959 3078 2226 3245 
Q 2494 3413 2881 3413 
Q 2978 3413 3117 3398 
Q 3256 3384 3438 3359 
z
" transform="scale(0.015625)"/>
        <path id="DejaVuSerif-Bold-65" d="M 2566 1875 
Q 2566 2531 2444 2795 
Q 2322 3059 2028 3059 
Q 1744 3059 1620 2800 
Q 1497 2541 1497 1931 
L 1497 1875 
L 2566 1875 
z
M 3781 1503 
L 1497 1503 
L 1497 1478 
Q 1497 834 1690 548 
Q 1884 263 2316 263 
Q 2675 263 2897 453 
Q 3119 644 3181 1006 
L 3700 1006 
Q 3566 441 3166 175 
Q 2766 -91 2047 -91 
Q 1184 -91 723 364 
Q 263 819 263 1663 
Q 263 2488 734 2950 
Q 1206 3413 2047 3413 
Q 2872 3413 3312 2927 
Q 3753 2441 3781 1503 
z
" transform="scale(0.015625)"/>
        <path id="DejaVuSerif-Bold-61" d="M 3525 2041 
L 3525 378 
L 4000 378 
L 4000 0 
L 2419 0 
L 2419 422 
Q 2200 159 1931 34 
Q 1663 -91 1319 -91 
Q 809 -91 536 182 
Q 263 456 263 966 
Q 263 1525 655 1803 
Q 1047 2081 1838 2081 
L 2419 2081 
L 2419 2278 
Q 2419 2681 2228 2873 
Q 2038 3066 1638 3066 
Q 1306 3066 1126 2930 
Q 947 2794 872 2484 
L 519 2484 
L 519 3200 
Q 816 3306 1134 3359 
Q 1453 3413 1806 3413 
Q 2697 3413 3111 3081 
Q 3525 2750 3525 2041 
z
M 2419 1044 
L 2419 1709 
L 2003 1709 
Q 1694 1709 1528 1540 
Q 1363 1372 1363 1056 
Q 1363 741 1483 584 
Q 1603 428 1850 428 
Q 2106 428 2262 597 
Q 2419 766 2419 1044 
z
" transform="scale(0.015625)"/>
        <path id="DejaVuSerif-Bold-6b" d="M 2216 0 
L 219 0 
L 219 378 
L 691 378 
L 691 4488 
L 219 4488 
L 219 4863 
L 1797 4863 
L 1797 1741 
L 3138 2944 
L 2741 2944 
L 2741 3322 
L 4256 3322 
L 4256 2944 
L 3641 2944 
L 2784 2175 
L 4184 378 
L 4544 378 
L 4544 0 
L 2638 0 
L 2638 378 
L 3028 378 
L 2106 1563 
L 1797 1288 
L 1797 378 
L 2216 378 
L 2216 0 
z
" transform="scale(0.015625)"/>
        <path id="DejaVuSerif-Bold-75" d="M 3963 3322 
L 3963 378 
L 4434 378 
L 4434 0 
L 2853 0 
L 2853 469 
Q 2656 172 2400 40 
Q 2144 -91 1753 -91 
Q 1194 -91 908 239 
Q 622 569 622 1209 
L 622 2944 
L 147 2944 
L 147 3322 
L 1728 3322 
L 1728 1381 
Q 1728 763 1831 595 
Q 1934 428 2209 428 
Q 2544 428 2698 675 
Q 2853 922 2853 1459 
L 2853 2944 
L 2450 2944 
L 2450 3322 
L 3963 3322 
z
" transform="scale(0.015625)"/>
        <path id="DejaVuSerif-Bold-74" d="M 634 2944 
L 153 2944 
L 153 3322 
L 634 3322 
L 634 4353 
L 1741 4353 
L 1741 3322 
L 2663 3322 
L 2663 2944 
L 1741 2944 
L 1741 909 
Q 1741 475 1809 369 
Q 1878 263 2059 263 
Q 2259 263 2356 397 
Q 2453 531 2459 813 
L 2925 813 
Q 2897 313 2651 111 
Q 2406 -91 1806 -91 
Q 1122 -91 878 123 
Q 634 338 634 909 
L 634 2944 
z
" transform="scale(0.015625)"/>
       </defs>
       <use xlink:href="#DejaVuSerif-Bold-42"/>
       <use xlink:href="#DejaVuSerif-Bold-72" x="84.521484"/>
       <use xlink:href="#DejaVuSerif-Bold-65" x="137.207031"/>
       <use xlink:href="#DejaVuSerif-Bold-61" x="200.830078"/>
       <use xlink:href="#DejaVuSerif-Bold-6b" x="265.625"/>
       <use xlink:href="#DejaVuSerif-Bold-6f" x="334.912109"/>
       <use xlink:href="#DejaVuSerif-Bold-75" x="401.611328"/>
       <use xlink:href="#DejaVuSerif-Bold-74" x="474.316406"/>
      </g>
     </g>
    </g>
    <g id="xtick_3">
     <g id="line2d_3">
      <path d="M 228.96 268.312 
L 118.08 460.361794 
" clip-path="url(#pfefc15a4df)" style="fill: none; stroke-dasharray: 1.85,0.8; stroke-dashoffset: 0; stroke: #d0d0d0; stroke-opacity: 0.8; stroke-width: 0.5"/>
     </g>
     <g id="text_3">
      <!-- SpaceInvaders -->
      <g transform="translate(61.8475 476.230412) scale(0.12 -0.12)">
       <defs>
        <path id="DejaVuSerif-Bold-53" d="M 494 225 
L 494 1331 
L 891 1331 
Q 981 806 1318 547 
Q 1656 288 2253 288 
Q 2738 288 2991 472 
Q 3244 656 3244 1013 
Q 3244 1294 3072 1450 
Q 2900 1606 2363 1741 
L 1663 1913 
Q 978 2088 700 2398 
Q 422 2709 422 3284 
Q 422 3978 883 4364 
Q 1344 4750 2175 4750 
Q 2584 4750 3026 4681 
Q 3469 4613 3944 4475 
L 3944 3444 
L 3547 3444 
Q 3456 3925 3150 4148 
Q 2844 4372 2278 4372 
Q 1816 4372 1580 4211 
Q 1344 4050 1344 3731 
Q 1344 3441 1506 3289 
Q 1669 3138 2303 2975 
L 3003 2803 
Q 3653 2641 3945 2297 
Q 4238 1953 4238 1350 
Q 4238 644 3750 276 
Q 3263 -91 2316 -91 
Q 1859 -91 1409 -12 
Q 959 66 494 225 
z
" transform="scale(0.015625)"/>
        <path id="DejaVuSerif-Bold-70" d="M 1728 1825 
L 1728 1497 
Q 1728 916 1876 656 
Q 2025 397 2356 397 
Q 2697 397 2836 672 
Q 2975 947 2975 1663 
Q 2975 2378 2836 2651 
Q 2697 2925 2356 2925 
Q 2025 2925 1876 2665 
Q 1728 2406 1728 1825 
z
M 622 2944 
L 147 2944 
L 147 3322 
L 1728 3322 
L 1728 2900 
Q 1869 3159 2106 3286 
Q 2344 3413 2694 3413 
Q 3403 3413 3811 2945 
Q 4219 2478 4219 1663 
Q 4219 847 3811 378 
Q 3403 -91 2694 -91 
Q 2344 -91 2106 36 
Q 1869 163 1728 422 
L 1728 -953 
L 2241 -953 
L 2241 -1331 
L 147 -1331 
L 147 -953 
L 622 -953 
L 622 2944 
z
" transform="scale(0.015625)"/>
        <path id="DejaVuSerif-Bold-63" d="M 3609 1038 
Q 3491 469 3123 189 
Q 2756 -91 2125 -91 
Q 1238 -91 750 368 
Q 263 828 263 1663 
Q 263 2488 744 2950 
Q 1225 3413 2081 3413 
Q 2428 3413 2781 3347 
Q 3134 3281 3500 3150 
L 3500 2228 
L 3150 2228 
Q 3100 2650 2903 2854 
Q 2706 3059 2350 3059 
Q 1888 3059 1692 2746 
Q 1497 2434 1497 1663 
Q 1497 909 1687 586 
Q 1878 263 2309 263 
Q 2644 263 2845 463 
Q 3047 663 3091 1038 
L 3609 1038 
z
" transform="scale(0.015625)"/>
        <path id="DejaVuSerif-Bold-49" d="M 300 0 
L 300 378 
L 897 378 
L 897 4288 
L 300 4288 
L 300 4666 
L 2700 4666 
L 2700 4288 
L 2100 4288 
L 2100 378 
L 2700 378 
L 2700 0 
L 300 0 
z
" transform="scale(0.015625)"/>
        <path id="DejaVuSerif-Bold-76" d="M 1428 0 
L 250 2944 
L -116 2944 
L -116 3322 
L 1791 3322 
L 1791 2944 
L 1388 2944 
L 2228 844 
L 3066 2944 
L 2631 2944 
L 2631 3322 
L 3878 3322 
L 3878 2944 
L 3494 2944 
L 2316 0 
L 1428 0 
z
" transform="scale(0.015625)"/>
        <path id="DejaVuSerif-Bold-64" d="M 2747 1497 
L 2747 1825 
Q 2747 2406 2597 2665 
Q 2447 2925 2119 2925 
Q 1775 2925 1636 2651 
Q 1497 2378 1497 1663 
Q 1497 947 1637 672 
Q 1778 397 2119 397 
Q 2447 397 2597 656 
Q 2747 916 2747 1497 
z
M 3853 378 
L 4325 378 
L 4325 0 
L 2747 0 
L 2747 422 
Q 2606 163 2367 36 
Q 2128 -91 1778 -91 
Q 1072 -91 667 378 
Q 263 847 263 1663 
Q 263 2481 667 2947 
Q 1072 3413 1778 3413 
Q 2128 3413 2367 3286 
Q 2606 3159 2747 2900 
L 2747 4488 
L 2272 4488 
L 2272 4863 
L 3853 4863 
L 3853 378 
z
" transform="scale(0.015625)"/>
        <path id="DejaVuSerif-Bold-73" d="M 300 97 
L 300 1025 
L 653 1025 
Q 697 653 931 458 
Q 1166 263 1569 263 
Q 1906 263 2086 380 
Q 2266 497 2266 716 
Q 2266 916 2152 1025 
Q 2038 1134 1709 1216 
L 1253 1331 
Q 738 1459 506 1698 
Q 275 1938 275 2344 
Q 275 2884 650 3148 
Q 1025 3413 1806 3413 
Q 2100 3413 2433 3364 
Q 2766 3316 3169 3213 
L 3169 2375 
L 2816 2375 
Q 2788 2716 2573 2887 
Q 2359 3059 1959 3059 
Q 1622 3059 1448 2951 
Q 1275 2844 1275 2638 
Q 1275 2469 1375 2372 
Q 1475 2275 1734 2209 
L 2188 2094 
Q 2841 1928 3091 1684 
Q 3341 1441 3341 1006 
Q 3341 444 2939 176 
Q 2538 -91 1691 -91 
Q 1381 -91 1034 -44 
Q 688 3 300 97 
z
" transform="scale(0.015625)"/>
       </defs>
       <use xlink:href="#DejaVuSerif-Bold-53"/>
       <use xlink:href="#DejaVuSerif-Bold-70" x="72.216797"/>
       <use xlink:href="#DejaVuSerif-Bold-61" x="142.138672"/>
       <use xlink:href="#DejaVuSerif-Bold-63" x="206.933594"/>
       <use xlink:href="#DejaVuSerif-Bold-65" x="267.822266"/>
       <use xlink:href="#DejaVuSerif-Bold-49" x="331.445312"/>
       <use xlink:href="#DejaVuSerif-Bold-6e" x="378.222656"/>
       <use xlink:href="#DejaVuSerif-Bold-76" x="450.927734"/>
       <use xlink:href="#DejaVuSerif-Bold-61" x="509.033203"/>
       <use xlink:href="#DejaVuSerif-Bold-64" x="573.828125"/>
       <use xlink:href="#DejaVuSerif-Bold-65" x="643.75"/>
       <use xlink:href="#DejaVuSerif-Bold-72" x="707.373047"/>
       <use xlink:href="#DejaVuSerif-Bold-73" x="760.058594"/>
      </g>
     </g>
    </g>
   </g>
   <g id="matplotlib.axis_2">
    <g id="ytick_1">
     <g id="line2d_4">
      <path d="M 269.28 268.312 
C 269.28 263.017226 268.237045 257.773937 266.210823 252.882204 
C 264.184601 247.990471 261.214516 243.545425 257.470545 239.801455 
C 253.726575 236.057484 249.281529 233.087399 244.389796 231.061177 
C 239.498063 229.034955 234.254774 227.992 228.96 227.992 
C 223.665226 227.992 218.421937 229.034955 213.530204 231.061177 
C 208.638471 233.087399 204.193425 236.057484 200.449455 239.801455 
C 196.705484 243.545425 193.735399 247.990471 191.709177 252.882204 
C 189.682955 257.773937 188.64 263.017226 188.64 268.312 
C 188.64 273.606774 189.682955 278.850063 191.709177 283.741796 
C 193.735399 288.633529 196.705484 293.078575 200.449455 296.822545 
C 204.193425 300.566516 208.638471 303.536601 213.530204 305.562823 
C 218.421937 307.589045 223.665226 308.632 228.96 308.632 
C 234.254774 308.632 239.498063 307.589045 244.389796 305.562823 
C 249.281529 303.536601 253.726575 300.566516 257.470545 296.822545 
C 261.214516 293.078575 264.184601 288.633529 266.210823 283.741796 
C 268.237045 278.850063 269.28 273.606774 269.28 268.312 
" clip-path="url(#pfefc15a4df)" style="fill: none; stroke-dasharray: 1.85,0.8; stroke-dashoffset: 0; stroke: #d0d0d0; stroke-opacity: 0.8; stroke-width: 0.5"/>
     </g>
     <g id="text_4">
      <!-- 0.2 -->
      <g transform="translate(266.210823 250.802517) scale(0.1 -0.1)">
       <defs>
        <path id="DejaVuSerif-30" d="M 2034 219 
Q 2513 219 2750 744 
Q 2988 1269 2988 2328 
Q 2988 3391 2750 3916 
Q 2513 4441 2034 4441 
Q 1556 4441 1318 3916 
Q 1081 3391 1081 2328 
Q 1081 1269 1318 744 
Q 1556 219 2034 219 
z
M 2034 -91 
Q 1275 -91 848 546 
Q 422 1184 422 2328 
Q 422 3475 848 4112 
Q 1275 4750 2034 4750 
Q 2797 4750 3222 4112 
Q 3647 3475 3647 2328 
Q 3647 1184 3222 546 
Q 2797 -91 2034 -91 
z
" transform="scale(0.015625)"/>
        <path id="DejaVuSerif-2e" d="M 603 325 
Q 603 500 722 622 
Q 841 744 1019 744 
Q 1191 744 1312 622 
Q 1434 500 1434 325 
Q 1434 153 1312 31 
Q 1191 -91 1019 -91 
Q 841 -91 722 29 
Q 603 150 603 325 
z
" transform="scale(0.015625)"/>
        <path id="DejaVuSerif-32" d="M 819 3553 
L 469 3553 
L 469 4384 
Q 803 4563 1142 4656 
Q 1481 4750 1806 4750 
Q 2534 4750 2956 4397 
Q 3378 4044 3378 3438 
Q 3378 2753 2422 1800 
Q 2347 1728 2309 1691 
L 1131 513 
L 3078 513 
L 3078 1088 
L 3444 1088 
L 3444 0 
L 434 0 
L 434 341 
L 1850 1753 
Q 2319 2222 2519 2614 
Q 2719 3006 2719 3438 
Q 2719 3909 2473 4175 
Q 2228 4441 1797 4441 
Q 1350 4441 1106 4219 
Q 863 3997 819 3553 
z
" transform="scale(0.015625)"/>
       </defs>
       <use xlink:href="#DejaVuSerif-30"/>
       <use xlink:href="#DejaVuSerif-2e" x="63.623047"/>
       <use xlink:href="#DejaVuSerif-32" x="95.410156"/>
      </g>
     </g>
    </g>
    <g id="ytick_2">
     <g id="line2d_5">
      <path d="M 309.6 268.312 
C 309.6 257.722452 307.51409 247.235874 303.461646 237.452408 
C 299.409201 227.668942 293.469032 218.77885 285.981091 211.290909 
C 278.49315 203.802968 269.603058 197.862799 259.819592 193.810354 
C 250.036126 189.75791 239.549548 187.672 228.96 187.672 
C 218.370452 187.672 207.883874 189.75791 198.100408 193.810354 
C 188.316942 197.862799 179.42685 203.802968 171.938909 211.290909 
C 164.450968 218.77885 158.510799 227.668942 154.458354 237.452408 
C 150.40591 247.235874 148.32 257.722452 148.32 268.312 
C 148.32 278.901548 150.40591 289.388126 154.458354 299.171592 
C 158.510799 308.955058 164.450968 317.84515 171.938909 325.333091 
C 179.42685 332.821032 188.316942 338.761201 198.100408 342.813646 
C 207.883874 346.86609 218.370452 348.952 228.96 348.952 
C 239.549548 348.952 250.036126 346.86609 259.819592 342.813646 
C 269.603058 338.761201 278.49315 332.821032 285.981091 325.333091 
C 293.469032 317.84515 299.409201 308.955058 303.461646 299.171592 
C 307.51409 289.388126 309.6 278.901548 309.6 268.312 
" clip-path="url(#pfefc15a4df)" style="fill: none; stroke-dasharray: 1.85,0.8; stroke-dashoffset: 0; stroke: #d0d0d0; stroke-opacity: 0.8; stroke-width: 0.5"/>
     </g>
     <g id="text_5">
      <!-- 0.4 -->
      <g transform="translate(303.461646 235.372721) scale(0.1 -0.1)">
       <defs>
        <path id="DejaVuSerif-34" d="M 2234 1581 
L 2234 4063 
L 641 1581 
L 2234 1581 
z
M 3609 0 
L 1484 0 
L 1484 331 
L 2234 331 
L 2234 1247 
L 197 1247 
L 197 1588 
L 2241 4750 
L 2859 4750 
L 2859 1581 
L 3750 1581 
L 3750 1247 
L 2859 1247 
L 2859 331 
L 3609 331 
L 3609 0 
z
" transform="scale(0.015625)"/>
       </defs>
       <use xlink:href="#DejaVuSerif-30"/>
       <use xlink:href="#DejaVuSerif-2e" x="63.623047"/>
       <use xlink:href="#DejaVuSerif-34" x="95.410156"/>
      </g>
     </g>
    </g>
    <g id="ytick_3">
     <g id="line2d_6">
      <path d="M 349.92 268.312 
C 349.92 252.427678 346.791135 236.697812 340.712468 222.022612 
C 334.633802 207.347412 325.723548 194.012275 314.491636 182.780364 
C 303.259725 171.548452 289.924588 162.638198 275.249388 156.559532 
C 260.574188 150.480865 244.844322 147.352 228.96 147.352 
C 213.075678 147.352 197.345812 150.480865 182.670612 156.559532 
C 167.995412 162.638198 154.660275 171.548452 143.428364 182.780364 
C 132.196452 194.012275 123.286198 207.347412 117.207532 222.022612 
C 111.128865 236.697812 108 252.427678 108 268.312 
C 108 284.196322 111.128865 299.926188 117.207532 314.601388 
C 123.286198 329.276588 132.196452 342.611725 143.428364 353.843636 
C 154.660275 365.075548 167.995412 373.985802 182.670612 380.064468 
C 197.345812 386.143135 213.075678 389.272 228.96 389.272 
C 244.844322 389.272 260.574188 386.143135 275.249388 380.064468 
C 289.924588 373.985802 303.259725 365.075548 314.491636 353.843636 
C 325.723548 342.611725 334.633802 329.276588 340.712468 314.601388 
C 346.791135 299.926188 349.92 284.196322 349.92 268.312 
" clip-path="url(#pfefc15a4df)" style="fill: none; stroke-dasharray: 1.85,0.8; stroke-dashoffset: 0; stroke: #d0d0d0; stroke-opacity: 0.8; stroke-width: 0.5"/>
     </g>
     <g id="text_6">
      <!-- 0.6 -->
      <g transform="translate(340.712468 219.942925) scale(0.1 -0.1)">
       <defs>
        <path id="DejaVuSerif-36" d="M 2094 219 
Q 2534 219 2771 542 
Q 3009 866 3009 1472 
Q 3009 2078 2771 2401 
Q 2534 2725 2094 2725 
Q 1647 2725 1412 2412 
Q 1178 2100 1178 1509 
Q 1178 888 1415 553 
Q 1653 219 2094 219 
z
M 1075 2569 
Q 1288 2803 1556 2918 
Q 1825 3034 2163 3034 
Q 2859 3034 3264 2615 
Q 3669 2197 3669 1472 
Q 3669 763 3233 336 
Q 2797 -91 2069 -91 
Q 1278 -91 853 498 
Q 428 1088 428 2181 
Q 428 3406 931 4078 
Q 1434 4750 2350 4750 
Q 2597 4750 2869 4703 
Q 3141 4656 3425 4563 
L 3425 3794 
L 3072 3794 
Q 3034 4109 2831 4275 
Q 2628 4441 2284 4441 
Q 1678 4441 1381 3981 
Q 1084 3522 1075 2569 
z
" transform="scale(0.015625)"/>
       </defs>
       <use xlink:href="#DejaVuSerif-30"/>
       <use xlink:href="#DejaVuSerif-2e" x="63.623047"/>
       <use xlink:href="#DejaVuSerif-36" x="95.410156"/>
      </g>
     </g>
    </g>
    <g id="ytick_4">
     <g id="line2d_7">
      <path d="M 390.24 268.312 
C 390.24 247.132904 386.06818 226.159749 377.963291 206.592816 
C 369.858402 187.025883 357.978064 169.2457 343.002182 154.269818 
C 328.0263 139.293936 310.246117 127.413598 290.679184 119.308709 
C 271.112251 111.20382 250.139096 107.032 228.96 107.032 
C 207.780904 107.032 186.807749 111.20382 167.240816 119.308709 
C 147.673883 127.413598 129.8937 139.293936 114.917818 154.269818 
C 99.941936 169.2457 88.061598 187.025883 79.956709 206.592816 
C 71.85182 226.159749 67.68 247.132904 67.68 268.312 
C 67.68 289.491096 71.85182 310.464251 79.956709 330.031184 
C 88.061598 349.598117 99.941936 367.3783 114.917818 382.354182 
C 129.8937 397.330064 147.673883 409.210402 167.240816 417.315291 
C 186.807749 425.42018 207.780904 429.592 228.96 429.592 
C 250.139096 429.592 271.112251 425.42018 290.679184 417.315291 
C 310.246117 409.210402 328.0263 397.330064 343.002182 382.354182 
C 357.978064 367.3783 369.858402 349.598117 377.963291 330.031184 
C 386.06818 310.464251 390.24 289.491096 390.24 268.312 
" clip-path="url(#pfefc15a4df)" style="fill: none; stroke-dasharray: 1.85,0.8; stroke-dashoffset: 0; stroke: #d0d0d0; stroke-opacity: 0.8; stroke-width: 0.5"/>
     </g>
     <g id="text_7">
      <!-- 0.8 -->
      <g transform="translate(377.963291 204.513129) scale(0.1 -0.1)">
       <defs>
        <path id="DejaVuSerif-38" d="M 2981 1275 
Q 2981 1775 2732 2051 
Q 2484 2328 2034 2328 
Q 1584 2328 1336 2051 
Q 1088 1775 1088 1275 
Q 1088 772 1336 495 
Q 1584 219 2034 219 
Q 2484 219 2732 495 
Q 2981 772 2981 1275 
z
M 2853 3541 
Q 2853 3966 2637 4203 
Q 2422 4441 2034 4441 
Q 1650 4441 1433 4203 
Q 1216 3966 1216 3541 
Q 1216 3113 1433 2875 
Q 1650 2638 2034 2638 
Q 2422 2638 2637 2875 
Q 2853 3113 2853 3541 
z
M 2516 2484 
Q 3047 2413 3344 2092 
Q 3641 1772 3641 1275 
Q 3641 619 3225 264 
Q 2809 -91 2034 -91 
Q 1263 -91 845 264 
Q 428 619 428 1275 
Q 428 1772 725 2092 
Q 1022 2413 1556 2484 
Q 1084 2569 832 2842 
Q 581 3116 581 3541 
Q 581 4103 968 4426 
Q 1356 4750 2034 4750 
Q 2713 4750 3100 4426 
Q 3488 4103 3488 3541 
Q 3488 3116 3236 2842 
Q 2984 2569 2516 2484 
z
" transform="scale(0.015625)"/>
       </defs>
       <use xlink:href="#DejaVuSerif-30"/>
       <use xlink:href="#DejaVuSerif-2e" x="63.623047"/>
       <use xlink:href="#DejaVuSerif-38" x="95.410156"/>
      </g>
     </g>
    </g>
    <g id="ytick_5">
     <g id="line2d_8">
      <path d="M 430.56 268.312 
C 430.56 241.838131 425.345225 215.621686 415.214114 191.16302 
C 405.083003 166.704354 390.23258 144.479126 371.512727 125.759273 
C 352.792874 107.03942 330.567646 92.188997 306.10898 82.057886 
C 281.650314 71.926775 255.433869 66.712 228.96 66.712 
C 202.486131 66.712 176.269686 71.926775 151.81102 82.057886 
C 127.352354 92.188997 105.127126 107.03942 86.407273 125.759273 
C 67.68742 144.479126 52.836997 166.704354 42.705886 191.16302 
C 32.574775 215.621686 27.36 241.838131 27.36 268.312 
C 27.36 294.785869 32.574775 321.002314 42.705886 345.46098 
C 52.836997 369.919646 67.68742 392.144874 86.407273 410.864727 
C 105.127126 429.58458 127.352354 444.435003 151.81102 454.566114 
C 176.269686 464.697225 202.486131 469.912 228.96 469.912 
C 255.433869 469.912 281.650314 464.697225 306.10898 454.566114 
C 330.567646 444.435003 352.792874 429.58458 371.512727 410.864727 
C 390.23258 392.144874 405.083003 369.919646 415.214114 345.46098 
C 425.345225 321.002314 430.56 294.785869 430.56 268.312 
" clip-path="url(#pfefc15a4df)" style="fill: none; stroke-dasharray: 1.85,0.8; stroke-dashoffset: 0; stroke: #d0d0d0; stroke-opacity: 0.8; stroke-width: 0.5"/>
     </g>
     <g id="text_8">
      <!-- 1.0 -->
      <g transform="translate(415.214114 189.083333) scale(0.1 -0.1)">
       <defs>
        <path id="DejaVuSerif-31" d="M 909 0 
L 909 331 
L 1722 331 
L 1722 4213 
L 781 3603 
L 781 4013 
L 1919 4750 
L 2350 4750 
L 2350 331 
L 3163 331 
L 3163 0 
L 909 0 
z
" transform="scale(0.015625)"/>
       </defs>
       <use xlink:href="#DejaVuSerif-31"/>
       <use xlink:href="#DejaVuSerif-2e" x="63.623047"/>
       <use xlink:href="#DejaVuSerif-30" x="95.410156"/>
      </g>
     </g>
    </g>
   </g>
   <g id="patch_3">
    <path d="M 228.96 268.312 
L 218.173164 249.628651 
L 135.391659 430.37712 
z
" clip-path="url(#pfefc15a4df)" style="fill: #2e5090; opacity: 0.1; stroke: #2e5090; stroke-linejoin: miter"/>
   </g>
   <g id="patch_4">
    <path d="M 228.96 268.312 
L 226.02068 263.220949 
L 198.796982 320.555879 
z
" clip-path="url(#pfefc15a4df)" style="fill: #c45b28; opacity: 0.1; stroke: #c45b28; stroke-linejoin: miter"/>
   </g>
   <g id="patch_5">
    <path d="M 228.96 268.312 
L 225.834057 262.897708 
L 197.58393 322.656948 
z
" clip-path="url(#pfefc15a4df)" style="fill: #6b4c9a; opacity: 0.1; stroke: #6b4c9a; stroke-linejoin: miter"/>
   </g>
   <g id="patch_6">
    <path d="M 228.96 268.312 
L 225.974025 263.140139 
L 128.16 442.902721 
z
" clip-path="url(#pfefc15a4df)" style="fill: #b5322a; opacity: 0.1; stroke: #b5322a; stroke-linejoin: miter"/>
   </g>
   <g id="line2d_9">
    <path d="M 228.96 268.312 
L 218.173164 249.628651 
L 135.391659 430.37712 
L 228.96 268.312 
" clip-path="url(#pfefc15a4df)" style="fill: none; stroke: #2e5090; stroke-width: 2; stroke-linecap: square"/>
    <defs>
     <path id="m98312b7ac8" d="M 0 3.5 
C 0.928211 3.5 1.81853 3.131218 2.474874 2.474874 
C 3.131218 1.81853 3.5 0.928211 3.5 0 
C 3.5 -0.928211 3.131218 -1.81853 2.474874 -2.474874 
C 1.81853 -3.131218 0.928211 -3.5 0 -3.5 
C -0.928211 -3.5 -1.81853 -3.131218 -2.474874 -2.474874 
C -3.131218 -1.81853 -3.5 -0.928211 -3.5 0 
C -3.5 0.928211 -3.131218 1.81853 -2.474874 2.474874 
C -1.81853 3.131218 -0.928211 3.5 0 3.5 
z
" style="stroke: #ffffff; stroke-width: 1.2"/>
    </defs>
    <g clip-path="url(#pfefc15a4df)">
     <use xlink:href="#m98312b7ac8" x="228.96" y="268.312" style="fill: #2e5090; stroke: #ffffff; stroke-width: 1.2"/>
     <use xlink:href="#m98312b7ac8" x="218.173164" y="249.628651" style="fill: #2e5090; stroke: #ffffff; stroke-width: 1.2"/>
     <use xlink:href="#m98312b7ac8" x="135.391659" y="430.37712" style="fill: #2e5090; stroke: #ffffff; stroke-width: 1.2"/>
     <use xlink:href="#m98312b7ac8" x="228.96" y="268.312" style="fill: #2e5090; stroke: #ffffff; stroke-width: 1.2"/>
    </g>
   </g>
   <g id="line2d_10">
    <path d="M 228.96 268.312 
L 226.02068 263.220949 
L 198.796982 320.555879 
L 228.96 268.312 
" clip-path="url(#pfefc15a4df)" style="fill: none; stroke: #c45b28; stroke-width: 2; stroke-linecap: square"/>
    <defs>
     <path id="m9357d11d98" d="M 0 3.5 
C 0.928211 3.5 1.81853 3.131218 2.474874 2.474874 
C 3.131218 1.81853 3.5 0.928211 3.5 0 
C 3.5 -0.928211 3.131218 -1.81853 2.474874 -2.474874 
C 1.81853 -3.131218 0.928211 -3.5 0 -3.5 
C -0.928211 -3.5 -1.81853 -3.131218 -2.474874 -2.474874 
C -3.131218 -1.81853 -3.5 -0.928211 -3.5 0 
C -3.5 0.928211 -3.131218 1.81853 -2.474874 2.474874 
C -1.81853 3.131218 -0.928211 3.5 0 3.5 
z
" style="stroke: #ffffff; stroke-width: 1.2"/>
    </defs>
    <g clip-path="url(#pfefc15a4df)">
     <use xlink:href="#m9357d11d98" x="228.96" y="268.312" style="fill: #c45b28; stroke: #ffffff; stroke-width: 1.2"/>
     <use xlink:href="#m9357d11d98" x="226.02068" y="263.220949" style="fill: #c45b28; stroke: #ffffff; stroke-width: 1.2"/>
     <use xlink:href="#m9357d11d98" x="198.796982" y="320.555879" style="fill: #c45b28; stroke: #ffffff; stroke-width: 1.2"/>
     <use xlink:href="#m9357d11d98" x="228.96" y="268.312" style="fill: #c45b28; stroke: #ffffff; stroke-width: 1.2"/>
    </g>
   </g>
   <g id="line2d_11">
    <path d="M 228.96 268.312 
L 225.834057 262.897708 
L 197.58393 322.656948 
L 228.96 268.312 
" clip-path="url(#pfefc15a4df)" style="fill: none; stroke: #6b4c9a; stroke-width: 2; stroke-linecap: square"/>
    <defs>
     <path id="m7716ca1b83" d="M 0 3.5 
C 0.928211 3.5 1.81853 3.131218 2.474874 2.474874 
C 3.131218 1.81853 3.5 0.928211 3.5 0 
C 3.5 -0.928211 3.131218 -1.81853 2.474874 -2.474874 
C 1.81853 -3.131218 0.928211 -3.5 0 -3.5 
C -0.928211 -3.5 -1.81853 -3.131218 -2.474874 -2.474874 
C -3.131218 -1.81853 -3.5 -0.928211 -3.5 0 
C -3.5 0.928211 -3.131218 1.81853 -2.474874 2.474874 
C -1.81853 3.131218 -0.928211 3.5 0 3.5 
z
" style="stroke: #ffffff; stroke-width: 1.2"/>
    </defs>
    <g clip-path="url(#pfefc15a4df)">
     <use xlink:href="#m7716ca1b83" x="228.96" y="268.312" style="fill: #6b4c9a; stroke: #ffffff; stroke-width: 1.2"/>
     <use xlink:href="#m7716ca1b83" x="225.834057" y="262.897708" style="fill: #6b4c9a; stroke: #ffffff; stroke-width: 1.2"/>
     <use xlink:href="#m7716ca1b83" x="197.58393" y="322.656948" style="fill: #6b4c9a; stroke: #ffffff; stroke-width: 1.2"/>
     <use xlink:href="#m7716ca1b83" x="228.96" y="268.312" style="fill: #6b4c9a; stroke: #ffffff; stroke-width: 1.2"/>
    </g>
   </g>
   <g id="line2d_12">
    <path d="M 228.96 268.312 
L 225.974025 263.140139 
L 128.16 442.902721 
L 228.96 268.312 
" clip-path="url(#pfefc15a4df)" style="fill: none; stroke: #b5322a; stroke-width: 2; stroke-linecap: square"/>
    <defs>
     <path id="m0a27ee5115" d="M 0 3.5 
C 0.928211 3.5 1.81853 3.131218 2.474874 2.474874 
C 3.131218 1.81853 3.5 0.928211 3.5 0 
C 3.5 -0.928211 3.131218 -1.81853 2.474874 -2.474874 
C 1.81853 -3.131218 0.928211 -3.5 0 -3.5 
C -0.928211 -3.5 -1.81853 -3.131218 -2.474874 -2.474874 
C -3.131218 -1.81853 -3.5 -0.928211 -3.5 0 
C -3.5 0.928211 -3.131218 1.81853 -2.474874 2.474874 
C -1.81853 3.131218 -0.928211 3.5 0 3.5 
z
" style="stroke: #ffffff; stroke-width: 1.2"/>
    </defs>
    <g clip-path="url(#pfefc15a4df)">
     <use xlink:href="#m0a27ee5115" x="228.96" y="268.312" style="fill: #b5322a; stroke: #ffffff; stroke-width: 1.2"/>
     <use xlink:href="#m0a27ee5115" x="225.974025" y="263.140139" style="fill: #b5322a; stroke: #ffffff; stroke-width: 1.2"/>
     <use xlink:href="#m0a27ee5115" x="128.16" y="442.902721" style="fill: #b5322a; stroke: #ffffff; stroke-width: 1.2"/>
     <use xlink:href="#m0a27ee5115" x="228.96" y="268.312" style="fill: #b5322a; stroke: #ffffff; stroke-width: 1.2"/>
    </g>
   </g>
   <g id="patch_7">
    <path d="M 450.72 268.312 
C 450.72 239.190744 444.983747 210.352655 433.839525 183.448122 
C 422.695303 156.543589 406.359838 132.095838 385.768 111.504 
C 365.176162 90.912162 340.728411 74.576697 313.823878 63.432475 
C 286.919345 52.288253 258.081256 46.552 228.96 46.552 
C 199.838744 46.552 171.000655 52.288253 144.096122 63.432475 
C 117.191589 74.576697 92.743838 90.912162 72.152 111.504 
C 51.560162 132.095838 35.224697 156.543589 24.080475 183.448122 
C 12.936253 210.352655 7.2 239.190744 7.2 268.312 
C 7.2 297.433256 12.936253 326.271345 24.080475 353.175878 
C 35.224697 380.080411 51.560162 404.528162 72.152 425.12 
C 92.743838 445.711838 117.191589 462.047303 144.096122 473.191525 
C 171.000655 484.335747 199.838744 490.072 228.96 490.072 
C 258.081256 490.072 286.919345 484.335747 313.823878 473.191525 
C 340.728411 462.047303 365.176162 445.711838 385.768 425.12 
C 406.359838 404.528162 422.695303 380.080411 433.839525 353.175878 
C 444.983747 326.271345 450.72 297.433256 450.72 268.312 
" style="fill: none; stroke: #cccccc; stroke-linejoin: miter; stroke-linecap: square"/>
   </g>
   <g id="text_9">
    <!-- Method Performance Radar (Normalized) -->
    <g transform="translate(65.630313 21.552) scale(0.14 -0.14)">
     <defs>
      <path id="DejaVuSerif-Bold-4d" d="M 269 0 
L 269 378 
L 863 378 
L 863 4288 
L 269 4288 
L 269 4666 
L 2194 4666 
L 3525 1672 
L 4863 4666 
L 6784 4666 
L 6784 4288 
L 6188 4288 
L 6188 378 
L 6784 378 
L 6784 0 
L 4384 0 
L 4384 378 
L 4978 378 
L 4978 3938 
L 3531 684 
L 2741 684 
L 1300 3938 
L 1300 378 
L 1894 378 
L 1894 0 
L 269 0 
z
" transform="scale(0.015625)"/>
      <path id="DejaVuSerif-Bold-68" d="M 219 0 
L 219 378 
L 691 378 
L 691 4488 
L 197 4488 
L 197 4863 
L 1797 4863 
L 1797 2853 
Q 1997 3150 2253 3281 
Q 2509 3413 2900 3413 
Q 3459 3413 3745 3083 
Q 4031 2753 4031 2113 
L 4031 378 
L 4506 378 
L 4506 0 
L 2522 0 
L 2522 378 
L 2925 378 
L 2925 2144 
Q 2925 2566 2817 2730 
Q 2709 2894 2444 2894 
Q 2109 2894 1953 2648 
Q 1797 2403 1797 1869 
L 1797 378 
L 2203 378 
L 2203 0 
L 219 0 
z
" transform="scale(0.015625)"/>
      <path id="DejaVuSerif-Bold-20" transform="scale(0.015625)"/>
      <path id="DejaVuSerif-Bold-66" d="M 3097 4031 
L 2747 4031 
Q 2722 4275 2605 4394 
Q 2488 4513 2272 4513 
Q 2022 4513 1909 4333 
Q 1797 4153 1797 3750 
L 1797 3322 
L 2631 3322 
L 2631 2944 
L 1797 2944 
L 1797 378 
L 2438 378 
L 2438 0 
L 219 0 
L 219 378 
L 691 378 
L 691 2944 
L 197 2944 
L 197 3322 
L 691 3322 
L 691 3738 
Q 691 4291 1044 4577 
Q 1397 4863 2081 4863 
Q 2347 4863 2600 4833 
Q 2853 4803 3097 4744 
L 3097 4031 
z
" transform="scale(0.015625)"/>
      <path id="DejaVuSerif-Bold-6d" d="M 3884 2778 
Q 4116 3109 4384 3261 
Q 4653 3413 5013 3413 
Q 5584 3413 5867 3089 
Q 6150 2766 6150 2113 
L 6150 378 
L 6625 378 
L 6625 0 
L 4647 0 
L 4647 378 
L 5044 378 
L 5044 1947 
Q 5044 2569 4948 2731 
Q 4853 2894 4594 2894 
Q 4300 2894 4137 2667 
Q 3975 2441 3975 2022 
L 3975 378 
L 4372 378 
L 4372 0 
L 2472 0 
L 2472 378 
L 2869 378 
L 2869 1947 
Q 2869 2569 2772 2731 
Q 2675 2894 2419 2894 
Q 2122 2894 1959 2667 
Q 1797 2441 1797 2022 
L 1797 378 
L 2194 378 
L 2194 0 
L 219 0 
L 219 378 
L 691 378 
L 691 2944 
L 219 2944 
L 219 3322 
L 1797 3322 
L 1797 2853 
Q 1991 3144 2241 3278 
Q 2491 3413 2834 3413 
Q 3241 3413 3494 3258 
Q 3747 3103 3884 2778 
z
" transform="scale(0.015625)"/>
      <path id="DejaVuSerif-Bold-52" d="M 3397 2278 
Q 3675 2238 3865 2094 
Q 4056 1950 4197 1678 
L 4878 378 
L 5356 378 
L 5356 0 
L 3822 0 
L 3078 1409 
Q 2863 1847 2711 1967 
Q 2559 2088 2291 2088 
L 2100 2088 
L 2100 378 
L 2700 378 
L 2700 0 
L 300 0 
L 300 378 
L 897 378 
L 897 4288 
L 300 4288 
L 300 4666 
L 2963 4666 
Q 3775 4666 4217 4339 
Q 4659 4013 4659 3413 
Q 4659 2925 4345 2642 
Q 4031 2359 3397 2278 
z
M 2100 2463 
L 2509 2463 
Q 2947 2463 3183 2700 
Q 3419 2938 3419 3378 
Q 3419 3819 3183 4053 
Q 2947 4288 2509 4288 
L 2100 4288 
L 2100 2463 
z
" transform="scale(0.015625)"/>
      <path id="DejaVuSerif-Bold-28" d="M 2694 -997 
Q 1641 -606 1122 122 
Q 603 850 603 1931 
Q 603 3013 1115 3731 
Q 1628 4450 2694 4863 
L 2694 4488 
Q 2200 4188 1983 3598 
Q 1766 3009 1766 1931 
Q 1766 856 1983 267 
Q 2200 -322 2694 -622 
L 2694 -997 
z
" transform="scale(0.015625)"/>
      <path id="DejaVuSerif-Bold-4e" d="M 281 0 
L 281 378 
L 878 378 
L 878 4288 
L 281 4288 
L 281 4666 
L 1741 4666 
L 4556 1363 
L 4556 4288 
L 3963 4288 
L 3963 4666 
L 5594 4666 
L 5594 4288 
L 4997 4288 
L 4997 0 
L 4178 0 
L 1319 3372 
L 1319 378 
L 1913 378 
L 1913 0 
L 281 0 
z
" transform="scale(0.015625)"/>
      <path id="DejaVuSerif-Bold-6c" d="M 1797 378 
L 2272 378 
L 2272 0 
L 219 0 
L 219 378 
L 691 378 
L 691 4488 
L 219 4488 
L 219 4863 
L 1797 4863 
L 1797 378 
z
" transform="scale(0.015625)"/>
      <path id="DejaVuSerif-Bold-69" d="M 588 4263 
Q 588 4516 763 4689 
Q 938 4863 1191 4863 
Q 1438 4863 1611 4689 
Q 1784 4516 1784 4263 
Q 1784 4016 1611 3842 
Q 1438 3669 1191 3669 
Q 938 3669 763 3841 
Q 588 4013 588 4263 
z
M 1797 378 
L 2272 378 
L 2272 0 
L 219 0 
L 219 378 
L 691 378 
L 691 2944 
L 219 2944 
L 219 3322 
L 1797 3322 
L 1797 378 
z
" transform="scale(0.015625)"/>
      <path id="DejaVuSerif-Bold-7a" d="M 225 0 
L 225 378 
L 2131 2956 
L 697 2956 
L 697 2388 
L 325 2388 
L 325 3322 
L 3419 3322 
L 3419 2950 
L 1509 372 
L 3047 372 
L 3047 972 
L 3419 972 
L 3419 0 
L 225 0 
z
" transform="scale(0.015625)"/>
      <path id="DejaVuSerif-Bold-29" d="M 325 -997 
L 325 -622 
Q 819 -322 1036 267 
Q 1253 856 1253 1931 
Q 1253 3009 1036 3598 
Q 819 4188 325 4488 
L 325 4863 
Q 1391 4450 1905 3731 
Q 2419 3013 2419 1931 
Q 2419 850 1898 122 
Q 1378 -606 325 -997 
z
" transform="scale(0.015625)"/>
     </defs>
     <use xlink:href="#DejaVuSerif-Bold-4d"/>
     <use xlink:href="#DejaVuSerif-Bold-65" x="110.693359"/>
     <use xlink:href="#DejaVuSerif-Bold-74" x="174.316406"/>
     <use xlink:href="#DejaVuSerif-Bold-68" x="220.507812"/>
     <use xlink:href="#DejaVuSerif-Bold-6f" x="293.212891"/>
     <use xlink:href="#DejaVuSerif-Bold-64" x="359.912109"/>
     <use xlink:href="#DejaVuSerif-Bold-20" x="429.833984"/>
     <use xlink:href="#DejaVuSerif-Bold-50" x="464.648438"/>
     <use xlink:href="#DejaVuSerif-Bold-65" x="537.21875"/>
     <use xlink:href="#DejaVuSerif-Bold-72" x="600.841797"/>
     <use xlink:href="#DejaVuSerif-Bold-66" x="653.527344"/>
     <use xlink:href="#DejaVuSerif-Bold-6f" x="696.544922"/>
     <use xlink:href="#DejaVuSerif-Bold-72" x="763.244141"/>
     <use xlink:href="#DejaVuSerif-Bold-6d" x="815.929688"/>
     <use xlink:href="#DejaVuSerif-Bold-61" x="921.740234"/>
     <use xlink:href="#DejaVuSerif-Bold-6e" x="986.535156"/>
     <use xlink:href="#DejaVuSerif-Bold-63" x="1059.240234"/>
     <use xlink:href="#DejaVuSerif-Bold-65" x="1120.128906"/>
     <use xlink:href="#DejaVuSerif-Bold-20" x="1183.751953"/>
     <use xlink:href="#DejaVuSerif-Bold-52" x="1218.566406"/>
     <use xlink:href="#DejaVuSerif-Bold-61" x="1303.921875"/>
     <use xlink:href="#DejaVuSerif-Bold-64" x="1368.716797"/>
     <use xlink:href="#DejaVuSerif-Bold-61" x="1438.638672"/>
     <use xlink:href="#DejaVuSerif-Bold-72" x="1503.433594"/>
     <use xlink:href="#DejaVuSerif-Bold-20" x="1556.119141"/>
     <use xlink:href="#DejaVuSerif-Bold-28" x="1590.933594"/>
     <use xlink:href="#DejaVuSerif-Bold-4e" x="1638.248047"/>
     <use xlink:href="#DejaVuSerif-Bold-6f" x="1729.654297"/>
     <use xlink:href="#DejaVuSerif-Bold-72" x="1796.353516"/>
     <use xlink:href="#DejaVuSerif-Bold-6d" x="1849.039062"/>
     <use xlink:href="#DejaVuSerif-Bold-61" x="1954.849609"/>
     <use xlink:href="#DejaVuSerif-Bold-6c" x="2019.644531"/>
     <use xlink:href="#DejaVuSerif-Bold-69" x="2057.632812"/>
     <use xlink:href="#DejaVuSerif-Bold-7a" x="2095.621094"/>
     <use xlink:href="#DejaVuSerif-Bold-65" x="2152.408203"/>
     <use xlink:href="#DejaVuSerif-Bold-64" x="2216.03125"/>
     <use xlink:href="#DejaVuSerif-Bold-29" x="2285.953125"/>
    </g>
   </g>
   <g id="legend_1">
    <g id="patch_8">
     <path d="M 511.350437 68.9125 
L 598.952 68.9125 
Q 600.952 68.9125 600.952 66.9125 
L 600.952 9.2 
Q 600.952 7.2 598.952 7.2 
L 511.350437 7.2 
Q 509.350437 7.2 509.350437 9.2 
L 509.350437 66.9125 
Q 509.350437 68.9125 511.350437 68.9125 
z
" style="fill: #fafaf8; opacity: 0.95; stroke: #cccccc; stroke-linejoin: miter"/>
    </g>
    <g id="line2d_13">
     <path d="M 513.350437 15.298437 
L 523.350437 15.298437 
L 533.350437 15.298437 
" style="fill: none; stroke: #2e5090; stroke-width: 2; stroke-linecap: square"/>
     <g>
      <use xlink:href="#m98312b7ac8" x="523.350437" y="15.298437" style="fill: #2e5090; stroke: #ffffff; stroke-width: 1.2"/>
     </g>
    </g>
    <g id="text_10">
     <!-- Expert -->
     <g transform="translate(541.350437 18.798437) scale(0.1 -0.1)">
      <defs>
       <path id="DejaVuSerif-45" d="M 353 0 
L 353 331 
L 947 331 
L 947 4331 
L 353 4331 
L 353 4666 
L 4109 4666 
L 4109 3628 
L 3725 3628 
L 3725 4281 
L 1581 4281 
L 1581 2719 
L 3109 2719 
L 3109 3303 
L 3494 3303 
L 3494 1753 
L 3109 1753 
L 3109 2338 
L 1581 2338 
L 1581 384 
L 3775 384 
L 3775 1038 
L 4159 1038 
L 4159 0 
L 353 0 
z
" transform="scale(0.015625)"/>
       <path id="DejaVuSerif-78" d="M 1863 2028 
L 2559 2988 
L 2113 2988 
L 2113 3322 
L 3391 3322 
L 3391 2988 
L 2950 2988 
L 2059 1759 
L 3097 331 
L 3531 331 
L 3531 0 
L 1997 0 
L 1997 331 
L 2419 331 
L 1697 1325 
L 972 331 
L 1403 331 
L 1403 0 
L 141 0 
L 141 331 
L 581 331 
L 1497 1594 
L 488 2988 
L 78 2988 
L 78 3322 
L 1563 3322 
L 1563 2988 
L 1166 2988 
L 1863 2028 
z
" transform="scale(0.015625)"/>
       <path id="DejaVuSerif-70" d="M 1313 1825 
L 1313 1497 
Q 1313 897 1542 583 
Q 1772 269 2209 269 
Q 2650 269 2876 622 
Q 3103 975 3103 1663 
Q 3103 2353 2876 2703 
Q 2650 3053 2209 3053 
Q 1772 3053 1542 2737 
Q 1313 2422 1313 1825 
z
M 738 2988 
L 184 2988 
L 184 3322 
L 1313 3322 
L 1313 2803 
Q 1481 3116 1742 3264 
Q 2003 3413 2388 3413 
Q 3000 3413 3387 2928 
Q 3775 2444 3775 1663 
Q 3775 881 3387 395 
Q 3000 -91 2388 -91 
Q 2003 -91 1742 57 
Q 1481 206 1313 519 
L 1313 -997 
L 1856 -997 
L 1856 -1331 
L 184 -1331 
L 184 -997 
L 738 -997 
L 738 2988 
z
" transform="scale(0.015625)"/>
       <path id="DejaVuSerif-65" d="M 3469 1600 
L 991 1600 
L 991 1575 
Q 991 903 1244 561 
Q 1497 219 1991 219 
Q 2369 219 2611 417 
Q 2853 616 2950 1006 
L 3413 1006 
Q 3275 459 2904 184 
Q 2534 -91 1931 -91 
Q 1203 -91 761 389 
Q 319 869 319 1663 
Q 319 2450 753 2931 
Q 1188 3413 1894 3413 
Q 2647 3413 3050 2948 
Q 3453 2484 3469 1600 
z
M 2791 1931 
Q 2772 2513 2545 2808 
Q 2319 3103 1894 3103 
Q 1497 3103 1269 2806 
Q 1041 2509 991 1931 
L 2791 1931 
z
" transform="scale(0.015625)"/>
       <path id="DejaVuSerif-72" d="M 3059 3328 
L 3059 2497 
L 2728 2497 
Q 2713 2744 2591 2866 
Q 2469 2988 2234 2988 
Q 1809 2988 1582 2694 
Q 1356 2400 1356 1850 
L 1356 331 
L 2022 331 
L 2022 0 
L 263 0 
L 263 331 
L 781 331 
L 781 2994 
L 231 2994 
L 231 3322 
L 1356 3322 
L 1356 2731 
Q 1525 3078 1790 3245 
Q 2056 3413 2438 3413 
Q 2578 3413 2733 3391 
Q 2888 3369 3059 3328 
z
" transform="scale(0.015625)"/>
       <path id="DejaVuSerif-74" d="M 691 2988 
L 184 2988 
L 184 3322 
L 691 3322 
L 691 4353 
L 1269 4353 
L 1269 3322 
L 2350 3322 
L 2350 2988 
L 1269 2988 
L 1269 878 
Q 1269 456 1350 337 
Q 1431 219 1650 219 
Q 1875 219 1978 351 
Q 2081 484 2088 781 
L 2522 781 
Q 2497 328 2275 118 
Q 2053 -91 1600 -91 
Q 1103 -91 897 129 
Q 691 350 691 878 
L 691 2988 
z
" transform="scale(0.015625)"/>
      </defs>
      <use xlink:href="#DejaVuSerif-45"/>
      <use xlink:href="#DejaVuSerif-78" x="72.998047"/>
      <use xlink:href="#DejaVuSerif-70" x="129.394531"/>
      <use xlink:href="#DejaVuSerif-65" x="193.408203"/>
      <use xlink:href="#DejaVuSerif-72" x="252.587891"/>
      <use xlink:href="#DejaVuSerif-74" x="300.390625"/>
     </g>
    </g>
    <g id="line2d_14">
     <path d="M 513.350437 29.976562 
L 523.350437 29.976562 
L 533.350437 29.976562 
" style="fill: none; stroke: #c45b28; stroke-width: 2; stroke-linecap: square"/>
     <g>
      <use xlink:href="#m9357d11d98" x="523.350437" y="29.976562" style="fill: #c45b28; stroke: #ffffff; stroke-width: 1.2"/>
     </g>
    </g>
    <g id="text_11">
     <!-- EWC -->
     <g transform="translate(541.350437 33.476562) scale(0.1 -0.1)">
      <defs>
       <path id="DejaVuSerif-57" d="M 4878 0 
L 4366 0 
L 3297 3794 
L 2228 0 
L 1716 0 
L 494 4331 
L 31 4331 
L 31 4666 
L 1734 4666 
L 1734 4331 
L 1153 4331 
L 2125 884 
L 3188 4666 
L 3694 4666 
L 4775 844 
L 5753 4331 
L 5216 4331 
L 5216 4666 
L 6559 4666 
L 6559 4331 
L 6100 4331 
L 4878 0 
z
" transform="scale(0.015625)"/>
       <path id="DejaVuSerif-43" d="M 4513 1234 
Q 4306 581 3820 245 
Q 3334 -91 2591 -91 
Q 2134 -91 1743 65 
Q 1353 222 1050 525 
Q 700 875 529 1320 
Q 359 1766 359 2328 
Q 359 3416 987 4083 
Q 1616 4750 2644 4750 
Q 3025 4750 3456 4650 
Q 3888 4550 4384 4347 
L 4384 3272 
L 4031 3272 
Q 3916 3859 3567 4137 
Q 3219 4416 2591 4416 
Q 1844 4416 1459 3886 
Q 1075 3356 1075 2328 
Q 1075 1303 1459 773 
Q 1844 244 2591 244 
Q 3113 244 3450 492 
Q 3788 741 3938 1234 
L 4513 1234 
z
" transform="scale(0.015625)"/>
      </defs>
      <use xlink:href="#DejaVuSerif-45"/>
      <use xlink:href="#DejaVuSerif-57" x="72.998047"/>
      <use xlink:href="#DejaVuSerif-43" x="175.78125"/>
     </g>
    </g>
    <g id="line2d_15">
     <path d="M 513.350437 44.654687 
L 523.350437 44.654687 
L 533.350437 44.654687 
" style="fill: none; stroke: #6b4c9a; stroke-width: 2; stroke-linecap: square"/>
     <g>
      <use xlink:href="#m7716ca1b83" x="523.350437" y="44.654687" style="fill: #6b4c9a; stroke: #ffffff; stroke-width: 1.2"/>
     </g>
    </g>
    <g id="text_12">
     <!-- Distillation -->
     <g transform="translate(541.350437 48.154687) scale(0.1 -0.1)">
      <defs>
       <path id="DejaVuSerif-44" d="M 1581 331 
L 2163 331 
Q 3072 331 3558 850 
Q 4044 1369 4044 2338 
Q 4044 3306 3559 3818 
Q 3075 4331 2163 4331 
L 1581 4331 
L 1581 331 
z
M 353 0 
L 353 331 
L 947 331 
L 947 4331 
L 353 4331 
L 353 4666 
L 2209 4666 
Q 3416 4666 4089 4050 
Q 4763 3434 4763 2338 
Q 4763 1238 4088 619 
Q 3413 0 2209 0 
L 353 0 
z
" transform="scale(0.015625)"/>
       <path id="DejaVuSerif-69" d="M 622 4353 
Q 622 4497 726 4603 
Q 831 4709 978 4709 
Q 1122 4709 1226 4603 
Q 1331 4497 1331 4353 
Q 1331 4206 1228 4103 
Q 1125 4000 978 4000 
Q 831 4000 726 4103 
Q 622 4206 622 4353 
z
M 1356 331 
L 1900 331 
L 1900 0 
L 231 0 
L 231 331 
L 781 331 
L 781 2988 
L 231 2988 
L 231 3322 
L 1356 3322 
L 1356 331 
z
" transform="scale(0.015625)"/>
       <path id="DejaVuSerif-73" d="M 359 184 
L 359 959 
L 691 959 
Q 703 588 923 403 
Q 1144 219 1575 219 
Q 1963 219 2166 364 
Q 2369 509 2369 788 
Q 2369 1006 2220 1140 
Q 2072 1275 1594 1428 
L 1178 1569 
Q 750 1706 558 1912 
Q 366 2119 366 2438 
Q 366 2894 700 3153 
Q 1034 3413 1625 3413 
Q 1888 3413 2178 3344 
Q 2469 3275 2778 3144 
L 2778 2419 
L 2447 2419 
Q 2434 2741 2221 2922 
Q 2009 3103 1644 3103 
Q 1281 3103 1095 2975 
Q 909 2847 909 2591 
Q 909 2381 1050 2254 
Q 1191 2128 1613 1997 
L 2069 1856 
Q 2541 1709 2748 1489 
Q 2956 1269 2956 922 
Q 2956 450 2595 179 
Q 2234 -91 1600 -91 
Q 1278 -91 972 -22 
Q 666 47 359 184 
z
" transform="scale(0.015625)"/>
       <path id="DejaVuSerif-6c" d="M 1313 331 
L 1856 331 
L 1856 0 
L 184 0 
L 184 331 
L 738 331 
L 738 4531 
L 184 4531 
L 184 4863 
L 1313 4863 
L 1313 331 
z
" transform="scale(0.015625)"/>
       <path id="DejaVuSerif-61" d="M 2547 1044 
L 2547 1747 
L 1806 1747 
Q 1378 1747 1168 1562 
Q 959 1378 959 997 
Q 959 650 1171 447 
Q 1384 244 1747 244 
Q 2106 244 2326 466 
Q 2547 688 2547 1044 
z
M 3122 2075 
L 3122 331 
L 3634 331 
L 3634 0 
L 2547 0 
L 2547 359 
Q 2356 128 2106 18 
Q 1856 -91 1522 -91 
Q 969 -91 644 203 
Q 319 497 319 997 
Q 319 1513 691 1797 
Q 1063 2081 1741 2081 
L 2547 2081 
L 2547 2309 
Q 2547 2688 2317 2895 
Q 2088 3103 1672 3103 
Q 1328 3103 1125 2947 
Q 922 2791 872 2484 
L 575 2484 
L 575 3156 
Q 875 3284 1158 3348 
Q 1441 3413 1709 3413 
Q 2400 3413 2761 3070 
Q 3122 2728 3122 2075 
z
" transform="scale(0.015625)"/>
       <path id="DejaVuSerif-6f" d="M 1925 219 
Q 2388 219 2623 584 
Q 2859 950 2859 1663 
Q 2859 2375 2623 2739 
Q 2388 3103 1925 3103 
Q 1463 3103 1227 2739 
Q 991 2375 991 1663 
Q 991 950 1228 584 
Q 1466 219 1925 219 
z
M 1925 -91 
Q 1200 -91 759 389 
Q 319 869 319 1663 
Q 319 2456 758 2934 
Q 1197 3413 1925 3413 
Q 2653 3413 3092 2934 
Q 3531 2456 3531 1663 
Q 3531 869 3092 389 
Q 2653 -91 1925 -91 
z
" transform="scale(0.015625)"/>
       <path id="DejaVuSerif-6e" d="M 263 0 
L 263 331 
L 781 331 
L 781 2988 
L 231 2988 
L 231 3322 
L 1356 3322 
L 1356 2731 
Q 1516 3069 1770 3241 
Q 2025 3413 2363 3413 
Q 2913 3413 3172 3097 
Q 3431 2781 3431 2113 
L 3431 331 
L 3944 331 
L 3944 0 
L 2356 0 
L 2356 331 
L 2853 331 
L 2853 1931 
Q 2853 2541 2703 2767 
Q 2553 2994 2175 2994 
Q 1775 2994 1565 2701 
Q 1356 2409 1356 1850 
L 1356 331 
L 1856 331 
L 1856 0 
L 263 0 
z
" transform="scale(0.015625)"/>
      </defs>
      <use xlink:href="#DejaVuSerif-44"/>
      <use xlink:href="#DejaVuSerif-69" x="80.175781"/>
      <use xlink:href="#DejaVuSerif-73" x="112.158203"/>
      <use xlink:href="#DejaVuSerif-74" x="163.476562"/>
      <use xlink:href="#DejaVuSerif-69" x="203.662109"/>
      <use xlink:href="#DejaVuSerif-6c" x="235.644531"/>
      <use xlink:href="#DejaVuSerif-6c" x="267.626953"/>
      <use xlink:href="#DejaVuSerif-61" x="299.609375"/>
      <use xlink:href="#DejaVuSerif-74" x="359.228516"/>
      <use xlink:href="#DejaVuSerif-69" x="399.414062"/>
      <use xlink:href="#DejaVuSerif-6f" x="431.396484"/>
      <use xlink:href="#DejaVuSerif-6e" x="491.601562"/>
     </g>
    </g>
    <g id="line2d_16">
     <path d="M 513.350437 59.332812 
L 523.350437 59.332812 
L 533.350437 59.332812 
" style="fill: none; stroke: #b5322a; stroke-width: 2; stroke-linecap: square"/>
     <g>
      <use xlink:href="#m0a27ee5115" x="523.350437" y="59.332812" style="fill: #b5322a; stroke: #ffffff; stroke-width: 1.2"/>
     </g>
    </g>
    <g id="text_13">
     <!-- HTCL -->
     <g transform="translate(541.350437 62.832812) scale(0.1 -0.1)">
      <defs>
       <path id="DejaVuSerif-48" d="M 353 0 
L 353 331 
L 947 331 
L 947 4331 
L 353 4331 
L 353 4666 
L 2175 4666 
L 2175 4331 
L 1581 4331 
L 1581 2719 
L 4000 2719 
L 4000 4331 
L 3406 4331 
L 3406 4666 
L 5228 4666 
L 5228 4331 
L 4634 4331 
L 4634 331 
L 5228 331 
L 5228 0 
L 3406 0 
L 3406 331 
L 4000 331 
L 4000 2338 
L 1581 2338 
L 1581 331 
L 2175 331 
L 2175 0 
L 353 0 
z
" transform="scale(0.015625)"/>
       <path id="DejaVuSerif-54" d="M 1222 0 
L 1222 331 
L 1819 331 
L 1819 4294 
L 447 4294 
L 447 3566 
L 63 3566 
L 63 4666 
L 4206 4666 
L 4206 3566 
L 3822 3566 
L 3822 4294 
L 2450 4294 
L 2450 331 
L 3047 331 
L 3047 0 
L 1222 0 
z
" transform="scale(0.015625)"/>
       <path id="DejaVuSerif-4c" d="M 353 0 
L 353 331 
L 947 331 
L 947 4331 
L 353 4331 
L 353 4666 
L 2175 4666 
L 2175 4331 
L 1581 4331 
L 1581 384 
L 3713 384 
L 3713 1166 
L 4097 1166 
L 4097 0 
L 353 0 
z
" transform="scale(0.015625)"/>
      </defs>
      <use xlink:href="#DejaVuSerif-48"/>
      <use xlink:href="#DejaVuSerif-54" x="87.207031"/>
      <use xlink:href="#DejaVuSerif-43" x="153.90625"/>
      <use xlink:href="#DejaVuSerif-4c" x="230.419922"/>
     </g>
    </g>
   </g>
  </g>
 </g>
 <defs>
  <clipPath id="pfefc15a4df">
   <path d="M 450.72 268.312 
C 450.72 239.190744 444.983747 210.352655 433.839525 183.448122 
C 422.695303 156.543589 406.359838 132.095838 385.768 111.504 
C 365.176162 90.912162 340.728411 74.576697 313.823878 63.432475 
C 286.919345 52.288253 258.081256 46.552 228.96 46.552 
C 199.838744 46.552 171.000655 52.288253 144.096122 63.432475 
C 117.191589 74.576697 92.743838 90.912162 72.152 111.504 
C 51.560162 132.095838 35.224697 156.543589 24.080475 183.448122 
C 12.936253 210.352655 7.2 239.190744 7.2 268.312 
C 7.2 297.433256 12.936253 326.271345 24.080475 353.175878 
C 35.224697 380.080411 51.560162 404.528162 72.152 425.12 
C 92.743838 445.711838 117.191589 462.047303 144.096122 473.191525 
C 171.000655 484.335747 199.838744 490.072 228.96 490.072 
C 258.081256 490.072 286.919345 484.335747 313.823878 473.191525 
C 340.728411 462.047303 365.176162 445.711838 385.768 425.12 
C 406.359838 404.528162 422.695303 380.080411 433.839525 353.175878 
C 444.983747 326.271345 450.72 297.433256 450.72 268.312 
M 228.96 268.312 
C 228.96 268.312 228.96 268.312 228.96 268.312 
C 228.96 268.312 228.96 268.312 228.96 268.312 
C 228.96 268.312 228.96 268.312 228.96 268.312 
C 228.96 268.312 228.96 268.312 228.96 268.312 
C 228.96 268.312 228.96 268.312 228.96 268.312 
C 228.96 268.312 228.96 268.312 228.96 268.312 
C 228.96 268.312 228.96 268.312 228.96 268.312 
C 228.96 268.312 228.96 268.312 228.96 268.312 
C 228.96 268.312 228.96 268.312 228.96 268.312 
C 228.96 268.312 228.96 268.312 228.96 268.312 
C 228.96 268.312 228.96 268.312 228.96 268.312 
C 228.96 268.312 228.96 268.312 228.96 268.312 
C 228.96 268.312 228.96 268.312 228.96 268.312 
C 228.96 268.312 228.96 268.312 228.96 268.312 
C 228.96 268.312 228.96 268.312 228.96 268.312 
C 228.96 268.312 228.96 268.312 228.96 268.312 
z
"/>
  </clipPath>
 </defs>
</svg>
