<?xml version="1.0" encoding="utf-8" standalone="no"?>
<!DOCTYPE svg PUBLIC "-//W3C//DTD SVG 1.1//EN"
  "http://www.w3.org/Graphics/SVG/1.1/DTD/svg11.dtd">
<svg xmlns:xlink="http://www.w3.org/1999/xlink" width="1045.19952pt" height="322.87176pt" viewBox="0 0 1045.19952 322.87176" xmlns="http://www.w3.org/2000/svg" version="1.1">
 <metadata>
  <rdf:RDF xmlns:dc="http://purl.org/dc/elements/1.1/" xmlns:cc="http://creativecommons.org/ns#" xmlns:rdf="http://www.w3.org/1999/02/22-rdf-syntax-ns#">
   <cc:Work>
    <dc:type rdf:resource="http://purl.org/dc/dcmitype/StillImage"/>
    <dc:date>2026-03-15T22:16:49.206697</dc:date>
    <dc:format>image/svg+xml</dc:format>
    <dc:creator>
     <cc:Agent>
      <dc:title>Matplotlib v3.10.8, https://matplotlib.org/</dc:title>
     </cc:Agent>
    </dc:creator>
   </cc:Work>
  </rdf:RDF>
 </metadata>
 <defs>
  <style type="text/css">*{stroke-linejoin: round; stroke-linecap: butt}</style>
 </defs>
 <g id="figure_1">
  <g id="patch_1">
   <path d="M 0 322.87176 
L 1045.19952 322.87176 
L 1045.19952 0 
L 0 0 
z
" style="fill: #ffffff"/>
  </g>
  <g id="axes_1">
   <g id="patch_2">
    <path d="M 46.31125 284.894416 
L 354.147257 284.894416 
L 354.147257 34.774427 
L 46.31125 34.774427 
z
" style="fill: #ffffff"/>
   </g>
   <g id="matplotlib.axis_1">
    <g id="xtick_1">
     <g id="line2d_1">
      <defs>
       <path id="m1a3a3e0506" d="M 0 0 
L 0 4 
" style="stroke: #6c757d; stroke-width: 0.8"/>
      </defs>
      <g>
       <use xlink:href="#m1a3a3e0506" x="60.303796" y="284.894416" style="fill: #6c757d; stroke: #6c757d; stroke-width: 0.8"/>
      </g>
     </g>
     <g id="text_1">
      <!-- 10 -->
      <g style="fill: #6c757d" transform="translate(55.300358 298.820979) scale(0.09 -0.09)">
       <defs>
        <path id="HelveticaNeue-31" d="M 2278 0 
L 2278 4538 
L 1862 4538 
Q 1818 4282 1696 4115 
Q 1574 3949 1398 3853 
Q 1222 3757 1004 3721 
Q 787 3686 557 3686 
L 557 3251 
L 1734 3251 
L 1734 0 
L 2278 0 
z
" transform="scale(0.015625)"/>
        <path id="HelveticaNeue-30" d="M 845 2234 
Q 845 2400 848 2601 
Q 851 2803 880 3004 
Q 909 3206 963 3398 
Q 1018 3590 1123 3734 
Q 1229 3878 1389 3968 
Q 1549 4058 1779 4058 
Q 2010 4058 2170 3968 
Q 2330 3878 2435 3734 
Q 2541 3590 2595 3398 
Q 2650 3206 2678 3004 
Q 2707 2803 2710 2601 
Q 2714 2400 2714 2234 
Q 2714 1978 2698 1661 
Q 2682 1344 2595 1065 
Q 2509 787 2317 595 
Q 2125 403 1779 403 
Q 1434 403 1242 595 
Q 1050 787 963 1065 
Q 877 1344 861 1661 
Q 845 1978 845 2234 
z
M 269 2227 
Q 269 1978 281 1709 
Q 294 1440 345 1184 
Q 397 928 493 701 
Q 589 474 755 301 
Q 922 128 1174 29 
Q 1427 -70 1779 -70 
Q 2138 -70 2387 29 
Q 2637 128 2803 301 
Q 2970 474 3066 701 
Q 3162 928 3213 1184 
Q 3264 1440 3277 1709 
Q 3290 1978 3290 2227 
Q 3290 2477 3277 2745 
Q 3264 3014 3213 3270 
Q 3162 3526 3066 3756 
Q 2970 3987 2803 4160 
Q 2637 4333 2384 4435 
Q 2131 4538 1779 4538 
Q 1427 4538 1174 4435 
Q 922 4333 755 4160 
Q 589 3987 493 3756 
Q 397 3526 345 3270 
Q 294 3014 281 2745 
Q 269 2477 269 2227 
z
" transform="scale(0.015625)"/>
       </defs>
       <use xlink:href="#HelveticaNeue-31"/>
       <use xlink:href="#HelveticaNeue-30" transform="translate(55.599991 0)"/>
      </g>
     </g>
    </g>
    <g id="xtick_2">
     <g id="line2d_2">
      <g>
       <use xlink:href="#m1a3a3e0506" x="153.587434" y="284.894416" style="fill: #6c757d; stroke: #6c757d; stroke-width: 0.8"/>
      </g>
     </g>
     <g id="text_2">
      <!-- 100 -->
      <g style="fill: #6c757d" transform="translate(146.082278 298.820979) scale(0.09 -0.09)">
       <use xlink:href="#HelveticaNeue-31"/>
       <use xlink:href="#HelveticaNeue-30" transform="translate(55.599991 0)"/>
       <use xlink:href="#HelveticaNeue-30" transform="translate(111.199982 0)"/>
      </g>
     </g>
    </g>
    <g id="xtick_3">
     <g id="line2d_3">
      <g>
       <use xlink:href="#m1a3a3e0506" x="218.789899" y="284.894416" style="fill: #6c757d; stroke: #6c757d; stroke-width: 0.8"/>
      </g>
     </g>
     <g id="text_3">
      <!-- 500 -->
      <g style="fill: #6c757d" transform="translate(211.284743 298.820979) scale(0.09 -0.09)">
       <defs>
        <path id="HelveticaNeue-35" d="M 3008 3981 
L 3008 4461 
L 768 4461 
L 346 2106 
L 813 2080 
Q 973 2272 1181 2390 
Q 1389 2509 1658 2509 
Q 1888 2509 2077 2432 
Q 2266 2355 2400 2217 
Q 2534 2080 2608 1891 
Q 2682 1702 2682 1478 
Q 2682 1210 2605 1008 
Q 2528 806 2397 672 
Q 2266 538 2090 470 
Q 1914 403 1722 403 
Q 1517 403 1347 464 
Q 1178 525 1053 637 
Q 928 749 854 899 
Q 781 1050 768 1222 
L 224 1222 
Q 230 915 345 672 
Q 461 429 659 265 
Q 858 102 1117 16 
Q 1376 -70 1670 -70 
Q 2067 -70 2364 54 
Q 2662 179 2860 390 
Q 3059 602 3158 874 
Q 3258 1146 3258 1434 
Q 3258 1824 3142 2115 
Q 3027 2406 2828 2601 
Q 2630 2797 2361 2893 
Q 2093 2989 1792 2989 
Q 1562 2989 1328 2909 
Q 1094 2829 947 2662 
L 934 2675 
L 1178 3981 
L 3008 3981 
z
" transform="scale(0.015625)"/>
       </defs>
       <use xlink:href="#HelveticaNeue-35"/>
       <use xlink:href="#HelveticaNeue-30" transform="translate(55.599991 0)"/>
       <use xlink:href="#HelveticaNeue-30" transform="translate(111.199982 0)"/>
      </g>
     </g>
    </g>
    <g id="xtick_4">
     <g id="line2d_4">
      <g>
       <use xlink:href="#m1a3a3e0506" x="312.073538" y="284.894416" style="fill: #6c757d; stroke: #6c757d; stroke-width: 0.8"/>
      </g>
     </g>
     <g id="text_4">
      <!-- 5000 -->
      <g style="fill: #6c757d" transform="translate(302.066663 298.820979) scale(0.09 -0.09)">
       <use xlink:href="#HelveticaNeue-35"/>
       <use xlink:href="#HelveticaNeue-30" transform="translate(55.599991 0)"/>
       <use xlink:href="#HelveticaNeue-30" transform="translate(111.199982 0)"/>
       <use xlink:href="#HelveticaNeue-30" transform="translate(166.799973 0)"/>
      </g>
     </g>
    </g>
    <g id="xtick_5">
     <g id="line2d_5">
      <g>
       <use xlink:href="#m1a3a3e0506" x="340.154711" y="284.894416" style="fill: #6c757d; stroke: #6c757d; stroke-width: 0.8"/>
      </g>
     </g>
     <g id="text_5">
      <!-- 10000 -->
      <g style="fill: #6c757d" transform="translate(327.646117 298.820979) scale(0.09 -0.09)">
       <use xlink:href="#HelveticaNeue-31"/>
       <use xlink:href="#HelveticaNeue-30" transform="translate(55.599991 0)"/>
       <use xlink:href="#HelveticaNeue-30" transform="translate(111.199982 0)"/>
       <use xlink:href="#HelveticaNeue-30" transform="translate(166.799973 0)"/>
       <use xlink:href="#HelveticaNeue-30" transform="translate(222.399963 0)"/>
      </g>
     </g>
    </g>
    <g id="text_6">
     <!-- Training Episodes -->
     <g style="fill: #212529" transform="translate(152.892066 313.16301) scale(0.12 -0.12)">
      <defs>
       <path id="HelveticaNeue-54" d="M 1536 4058 
L 1536 0 
L 2144 0 
L 2144 4058 
L 3667 4058 
L 3667 4570 
L 13 4570 
L 13 4058 
L 1536 4058 
z
" transform="scale(0.015625)"/>
       <path id="HelveticaNeue-72" d="M 390 3309 
L 390 0 
L 934 0 
L 934 1472 
Q 934 1792 998 2038 
Q 1062 2285 1203 2457 
Q 1344 2630 1574 2720 
Q 1805 2810 2131 2810 
L 2131 3386 
Q 1690 3398 1402 3206 
Q 1114 3014 915 2611 
L 902 2611 
L 902 3309 
L 390 3309 
z
" transform="scale(0.015625)"/>
       <path id="HelveticaNeue-61" d="M 3341 13 
Q 3200 -70 2950 -70 
Q 2739 -70 2614 48 
Q 2490 166 2490 435 
Q 2266 166 1968 48 
Q 1670 -70 1325 -70 
Q 1101 -70 899 -19 
Q 698 32 550 141 
Q 403 250 316 426 
Q 230 602 230 851 
Q 230 1133 326 1312 
Q 422 1491 579 1603 
Q 736 1715 937 1772 
Q 1139 1830 1350 1869 
Q 1574 1914 1776 1936 
Q 1978 1958 2131 2000 
Q 2285 2042 2374 2122 
Q 2464 2202 2464 2355 
Q 2464 2534 2397 2643 
Q 2330 2752 2224 2809 
Q 2118 2867 1987 2886 
Q 1856 2906 1728 2906 
Q 1382 2906 1152 2774 
Q 922 2643 902 2278 
L 358 2278 
Q 371 2586 486 2797 
Q 602 3008 794 3139 
Q 986 3270 1232 3328 
Q 1478 3386 1760 3386 
Q 1984 3386 2205 3354 
Q 2426 3322 2605 3222 
Q 2784 3123 2893 2944 
Q 3002 2765 3002 2477 
L 3002 774 
Q 3002 582 3024 492 
Q 3046 403 3174 403 
Q 3245 403 3341 435 
L 3341 13 
z
M 2458 1709 
Q 2355 1632 2188 1597 
Q 2022 1562 1840 1539 
Q 1658 1517 1472 1488 
Q 1286 1459 1139 1395 
Q 992 1331 899 1212 
Q 806 1094 806 890 
Q 806 755 860 662 
Q 915 570 1001 512 
Q 1088 454 1203 428 
Q 1318 403 1446 403 
Q 1715 403 1907 476 
Q 2099 550 2220 662 
Q 2342 774 2400 905 
Q 2458 1037 2458 1152 
L 2458 1709 
z
" transform="scale(0.015625)"/>
       <path id="HelveticaNeue-69" d="M 986 3904 
L 986 4570 
L 442 4570 
L 442 3904 
L 986 3904 
z
M 442 3309 
L 442 0 
L 986 0 
L 986 3309 
L 442 3309 
z
" transform="scale(0.015625)"/>
       <path id="HelveticaNeue-6e" d="M 410 3309 
L 410 0 
L 954 0 
L 954 1869 
Q 954 2093 1014 2281 
Q 1075 2470 1196 2611 
Q 1318 2752 1500 2829 
Q 1683 2906 1933 2906 
Q 2246 2906 2425 2726 
Q 2605 2547 2605 2240 
L 2605 0 
L 3149 0 
L 3149 2176 
Q 3149 2445 3094 2665 
Q 3040 2886 2905 3046 
Q 2771 3206 2553 3296 
Q 2336 3386 2010 3386 
Q 1274 3386 934 2784 
L 922 2784 
L 922 3309 
L 410 3309 
z
" transform="scale(0.015625)"/>
       <path id="HelveticaNeue-67" d="M 3264 282 
L 3264 3309 
L 2752 3309 
L 2752 2835 
L 2746 2835 
Q 2598 3110 2336 3248 
Q 2074 3386 1760 3386 
Q 1331 3386 1036 3222 
Q 742 3059 563 2806 
Q 384 2554 307 2243 
Q 230 1933 230 1638 
Q 230 1299 323 995 
Q 416 691 601 464 
Q 787 237 1062 102 
Q 1338 -32 1709 -32 
Q 2029 -32 2313 112 
Q 2598 256 2739 563 
L 2752 563 
L 2752 346 
Q 2752 70 2697 -160 
Q 2643 -390 2521 -553 
Q 2400 -717 2214 -809 
Q 2029 -902 1760 -902 
Q 1626 -902 1478 -873 
Q 1331 -845 1206 -781 
Q 1082 -717 995 -614 
Q 909 -512 902 -365 
L 358 -365 
Q 371 -634 499 -819 
Q 627 -1005 822 -1120 
Q 1018 -1235 1258 -1286 
Q 1498 -1338 1728 -1338 
Q 2522 -1338 2893 -934 
Q 3264 -531 3264 282 
z
M 1741 442 
Q 1472 442 1293 554 
Q 1114 666 1005 848 
Q 896 1030 851 1254 
Q 806 1478 806 1702 
Q 806 1939 860 2156 
Q 915 2374 1033 2540 
Q 1152 2707 1337 2806 
Q 1523 2906 1786 2906 
Q 2042 2906 2221 2803 
Q 2400 2701 2512 2531 
Q 2624 2362 2675 2150 
Q 2726 1939 2726 1722 
Q 2726 1491 2672 1260 
Q 2618 1030 2502 848 
Q 2387 666 2198 554 
Q 2010 442 1741 442 
z
" transform="scale(0.015625)"/>
       <path id="HelveticaNeue-20" transform="scale(0.015625)"/>
       <path id="HelveticaNeue-45" d="M 499 4570 
L 499 0 
L 3674 0 
L 3674 512 
L 1107 512 
L 1107 2093 
L 3482 2093 
L 3482 2605 
L 1107 2605 
L 1107 4058 
L 3654 4058 
L 3654 4570 
L 499 4570 
z
" transform="scale(0.015625)"/>
       <path id="HelveticaNeue-70" d="M 429 3309 
L 429 -1261 
L 973 -1261 
L 973 442 
L 986 442 
Q 1075 294 1206 195 
Q 1338 96 1485 38 
Q 1632 -19 1782 -44 
Q 1933 -70 2054 -70 
Q 2432 -70 2717 64 
Q 3002 198 3190 432 
Q 3379 666 3472 979 
Q 3565 1293 3565 1645 
Q 3565 1997 3469 2310 
Q 3373 2624 3184 2864 
Q 2995 3104 2710 3245 
Q 2426 3386 2042 3386 
Q 1696 3386 1408 3261 
Q 1120 3136 986 2861 
L 973 2861 
L 973 3309 
L 429 3309 
z
M 2989 1683 
Q 2989 1440 2937 1209 
Q 2886 979 2771 800 
Q 2656 621 2467 512 
Q 2278 403 1997 403 
Q 1715 403 1516 508 
Q 1318 614 1193 787 
Q 1069 960 1011 1187 
Q 954 1414 954 1658 
Q 954 1888 1008 2112 
Q 1062 2336 1184 2512 
Q 1306 2688 1498 2797 
Q 1690 2906 1965 2906 
Q 2227 2906 2422 2803 
Q 2618 2701 2742 2528 
Q 2867 2355 2928 2134 
Q 2989 1914 2989 1683 
z
" transform="scale(0.015625)"/>
       <path id="HelveticaNeue-73" d="M 742 1043 
L 198 1043 
Q 211 736 326 521 
Q 442 307 634 176 
Q 826 45 1075 -12 
Q 1325 -70 1600 -70 
Q 1850 -70 2102 -22 
Q 2355 26 2556 147 
Q 2758 269 2883 467 
Q 3008 666 3008 966 
Q 3008 1203 2915 1363 
Q 2822 1523 2672 1628 
Q 2522 1734 2326 1798 
Q 2131 1862 1926 1907 
Q 1734 1952 1542 1993 
Q 1350 2035 1196 2096 
Q 1043 2157 944 2249 
Q 845 2342 845 2483 
Q 845 2611 909 2691 
Q 973 2771 1075 2819 
Q 1178 2867 1302 2886 
Q 1427 2906 1549 2906 
Q 1683 2906 1814 2877 
Q 1946 2848 2054 2784 
Q 2163 2720 2233 2614 
Q 2304 2509 2317 2349 
L 2861 2349 
Q 2842 2650 2733 2851 
Q 2624 3053 2441 3171 
Q 2259 3290 2022 3338 
Q 1786 3386 1504 3386 
Q 1286 3386 1065 3331 
Q 845 3277 669 3165 
Q 493 3053 381 2873 
Q 269 2694 269 2445 
Q 269 2125 429 1945 
Q 589 1766 829 1667 
Q 1069 1568 1350 1513 
Q 1632 1459 1872 1392 
Q 2112 1325 2272 1216 
Q 2432 1107 2432 896 
Q 2432 742 2355 643 
Q 2278 544 2160 493 
Q 2042 442 1901 422 
Q 1760 403 1632 403 
Q 1466 403 1309 435 
Q 1152 467 1027 540 
Q 902 614 825 739 
Q 749 864 742 1043 
z
" transform="scale(0.015625)"/>
       <path id="HelveticaNeue-6f" d="M 806 1651 
Q 806 1952 886 2185 
Q 966 2419 1107 2579 
Q 1248 2739 1437 2822 
Q 1626 2906 1837 2906 
Q 2048 2906 2237 2822 
Q 2426 2739 2566 2579 
Q 2707 2419 2787 2185 
Q 2867 1952 2867 1651 
Q 2867 1350 2787 1116 
Q 2707 883 2566 726 
Q 2426 570 2237 486 
Q 2048 403 1837 403 
Q 1626 403 1437 486 
Q 1248 570 1107 726 
Q 966 883 886 1116 
Q 806 1350 806 1651 
z
M 230 1651 
Q 230 1286 332 972 
Q 435 659 640 425 
Q 845 192 1145 61 
Q 1446 -70 1837 -70 
Q 2234 -70 2531 61 
Q 2829 192 3033 425 
Q 3238 659 3340 972 
Q 3443 1286 3443 1651 
Q 3443 2016 3340 2333 
Q 3238 2650 3033 2883 
Q 2829 3117 2531 3251 
Q 2234 3386 1837 3386 
Q 1446 3386 1145 3251 
Q 845 3117 640 2883 
Q 435 2650 332 2333 
Q 230 2016 230 1651 
z
" transform="scale(0.015625)"/>
       <path id="HelveticaNeue-64" d="M 806 1626 
Q 806 1869 857 2099 
Q 909 2330 1024 2509 
Q 1139 2688 1331 2797 
Q 1523 2906 1798 2906 
Q 2080 2906 2278 2800 
Q 2477 2694 2601 2521 
Q 2726 2349 2784 2121 
Q 2842 1894 2842 1651 
Q 2842 1421 2787 1197 
Q 2733 973 2611 797 
Q 2490 621 2298 512 
Q 2106 403 1830 403 
Q 1568 403 1373 505 
Q 1178 608 1053 781 
Q 928 954 867 1174 
Q 806 1395 806 1626 
z
M 3366 0 
L 3366 4570 
L 2822 4570 
L 2822 2867 
L 2810 2867 
Q 2720 3014 2589 3113 
Q 2458 3213 2310 3273 
Q 2163 3334 2016 3360 
Q 1869 3386 1741 3386 
Q 1363 3386 1078 3248 
Q 794 3110 605 2876 
Q 416 2643 323 2329 
Q 230 2016 230 1664 
Q 230 1312 326 998 
Q 422 685 611 448 
Q 800 211 1085 70 
Q 1370 -70 1754 -70 
Q 2099 -70 2387 51 
Q 2675 173 2810 448 
L 2822 448 
L 2822 0 
L 3366 0 
z
" transform="scale(0.015625)"/>
       <path id="HelveticaNeue-65" d="M 2707 1971 
L 806 1971 
Q 819 2163 889 2332 
Q 960 2502 1081 2630 
Q 1203 2758 1372 2832 
Q 1542 2906 1754 2906 
Q 1958 2906 2128 2832 
Q 2298 2758 2422 2633 
Q 2547 2509 2620 2336 
Q 2694 2163 2707 1971 
z
M 3232 1050 
L 2694 1050 
Q 2624 723 2403 563 
Q 2182 403 1837 403 
Q 1568 403 1369 492 
Q 1171 582 1043 732 
Q 915 883 857 1078 
Q 800 1274 806 1491 
L 3283 1491 
Q 3296 1792 3229 2125 
Q 3162 2458 2986 2739 
Q 2810 3021 2518 3203 
Q 2227 3386 1786 3386 
Q 1446 3386 1161 3258 
Q 877 3130 669 2899 
Q 461 2669 345 2355 
Q 230 2042 230 1664 
Q 243 1286 342 966 
Q 442 646 640 416 
Q 838 186 1129 58 
Q 1421 -70 1818 -70 
Q 2381 -70 2752 211 
Q 3123 493 3232 1050 
z
" transform="scale(0.015625)"/>
      </defs>
      <use xlink:href="#HelveticaNeue-54"/>
      <use xlink:href="#HelveticaNeue-72" transform="translate(48.149994 0)"/>
      <use xlink:href="#HelveticaNeue-61" transform="translate(81.449982 0)"/>
      <use xlink:href="#HelveticaNeue-69" transform="translate(135.149979 0)"/>
      <use xlink:href="#HelveticaNeue-6e" transform="translate(157.349976 0)"/>
      <use xlink:href="#HelveticaNeue-69" transform="translate(212.949966 0)"/>
      <use xlink:href="#HelveticaNeue-6e" transform="translate(235.149963 0)"/>
      <use xlink:href="#HelveticaNeue-67" transform="translate(290.749954 0)"/>
      <use xlink:href="#HelveticaNeue-20" transform="translate(348.149948 0)"/>
      <use xlink:href="#HelveticaNeue-45" transform="translate(375.949936 0)"/>
      <use xlink:href="#HelveticaNeue-70" transform="translate(437.049927 0)"/>
      <use xlink:href="#HelveticaNeue-69" transform="translate(496.349915 0)"/>
      <use xlink:href="#HelveticaNeue-73" transform="translate(518.549911 0)"/>
      <use xlink:href="#HelveticaNeue-6f" transform="translate(568.549896 0)"/>
      <use xlink:href="#HelveticaNeue-64" transform="translate(625.94989 0)"/>
      <use xlink:href="#HelveticaNeue-65" transform="translate(685.249878 0)"/>
      <use xlink:href="#HelveticaNeue-73" transform="translate(738.949875 0)"/>
     </g>
    </g>
   </g>
   <g id="matplotlib.axis_2">
    <g id="ytick_1">
     <g id="line2d_6">
      <path d="M 46.31125 272.469918 
L 354.147257 272.469918 
" clip-path="url(#p7906a19883)" style="fill: none; stroke: #e9ecef; stroke-width: 0.6; stroke-linecap: square"/>
     </g>
     <g id="line2d_7">
      <defs>
       <path id="ma21db752a5" d="M 0 0 
L -4 0 
" style="stroke: #6c757d; stroke-width: 0.8"/>
      </defs>
      <g>
       <use xlink:href="#ma21db752a5" x="46.31125" y="272.469918" style="fill: #6c757d; stroke: #6c757d; stroke-width: 0.8"/>
      </g>
     </g>
     <g id="text_7">
      <!-- 0 -->
      <g style="fill: #6c757d" transform="translate(33.251875 276.04023) scale(0.1 -0.1)">
       <use xlink:href="#HelveticaNeue-30"/>
      </g>
     </g>
    </g>
    <g id="ytick_2">
     <g id="line2d_8">
      <path d="M 46.31125 243.153027 
L 354.147257 243.153027 
" clip-path="url(#p7906a19883)" style="fill: none; stroke: #e9ecef; stroke-width: 0.6; stroke-linecap: square"/>
     </g>
     <g id="line2d_9">
      <g>
       <use xlink:href="#ma21db752a5" x="46.31125" y="243.153027" style="fill: #6c757d; stroke: #6c757d; stroke-width: 0.8"/>
      </g>
     </g>
     <g id="text_8">
      <!-- 50 -->
      <g style="fill: #6c757d" transform="translate(27.6925 246.723339) scale(0.1 -0.1)">
       <use xlink:href="#HelveticaNeue-35"/>
       <use xlink:href="#HelveticaNeue-30" transform="translate(55.599991 0)"/>
      </g>
     </g>
    </g>
    <g id="ytick_3">
     <g id="line2d_10">
      <path d="M 46.31125 213.836135 
L 354.147257 213.836135 
" clip-path="url(#p7906a19883)" style="fill: none; stroke: #e9ecef; stroke-width: 0.6; stroke-linecap: square"/>
     </g>
     <g id="line2d_11">
      <g>
       <use xlink:href="#ma21db752a5" x="46.31125" y="213.836135" style="fill: #6c757d; stroke: #6c757d; stroke-width: 0.8"/>
      </g>
     </g>
     <g id="text_9">
      <!-- 100 -->
      <g style="fill: #6c757d" transform="translate(22.133125 217.406448) scale(0.1 -0.1)">
       <use xlink:href="#HelveticaNeue-31"/>
       <use xlink:href="#HelveticaNeue-30" transform="translate(55.599991 0)"/>
       <use xlink:href="#HelveticaNeue-30" transform="translate(111.199982 0)"/>
      </g>
     </g>
    </g>
    <g id="ytick_4">
     <g id="line2d_12">
      <path d="M 46.31125 184.519244 
L 354.147257 184.519244 
" clip-path="url(#p7906a19883)" style="fill: none; stroke: #e9ecef; stroke-width: 0.6; stroke-linecap: square"/>
     </g>
     <g id="line2d_13">
      <g>
       <use xlink:href="#ma21db752a5" x="46.31125" y="184.519244" style="fill: #6c757d; stroke: #6c757d; stroke-width: 0.8"/>
      </g>
     </g>
     <g id="text_10">
      <!-- 150 -->
      <g style="fill: #6c757d" transform="translate(22.133125 188.089557) scale(0.1 -0.1)">
       <use xlink:href="#HelveticaNeue-31"/>
       <use xlink:href="#HelveticaNeue-35" transform="translate(55.599991 0)"/>
       <use xlink:href="#HelveticaNeue-30" transform="translate(111.199982 0)"/>
      </g>
     </g>
    </g>
    <g id="ytick_5">
     <g id="line2d_14">
      <path d="M 46.31125 155.202353 
L 354.147257 155.202353 
" clip-path="url(#p7906a19883)" style="fill: none; stroke: #e9ecef; stroke-width: 0.6; stroke-linecap: square"/>
     </g>
     <g id="line2d_15">
      <g>
       <use xlink:href="#ma21db752a5" x="46.31125" y="155.202353" style="fill: #6c757d; stroke: #6c757d; stroke-width: 0.8"/>
      </g>
     </g>
     <g id="text_11">
      <!-- 200 -->
      <g style="fill: #6c757d" transform="translate(22.133125 158.772666) scale(0.1 -0.1)">
       <defs>
        <path id="HelveticaNeue-32" d="M 282 2931 
L 826 2931 
Q 819 3136 867 3337 
Q 915 3539 1024 3699 
Q 1133 3859 1302 3958 
Q 1472 4058 1709 4058 
Q 1888 4058 2048 4000 
Q 2208 3942 2326 3833 
Q 2445 3725 2515 3574 
Q 2586 3424 2586 3238 
Q 2586 3002 2512 2822 
Q 2438 2643 2294 2489 
Q 2150 2336 1932 2185 
Q 1715 2035 1427 1856 
Q 1190 1715 972 1555 
Q 755 1395 582 1184 
Q 410 973 298 688 
Q 186 403 154 0 
L 3117 0 
L 3117 480 
L 787 480 
Q 826 691 950 854 
Q 1075 1018 1251 1158 
Q 1427 1299 1638 1424 
Q 1850 1549 2061 1677 
Q 2272 1811 2470 1958 
Q 2669 2106 2822 2288 
Q 2976 2470 3069 2700 
Q 3162 2931 3162 3232 
Q 3162 3552 3050 3795 
Q 2938 4038 2746 4201 
Q 2554 4365 2294 4451 
Q 2035 4538 1741 4538 
Q 1382 4538 1100 4416 
Q 819 4294 630 4080 
Q 442 3866 352 3571 
Q 262 3277 282 2931 
z
" transform="scale(0.015625)"/>
       </defs>
       <use xlink:href="#HelveticaNeue-32"/>
       <use xlink:href="#HelveticaNeue-30" transform="translate(55.599991 0)"/>
       <use xlink:href="#HelveticaNeue-30" transform="translate(111.199982 0)"/>
      </g>
     </g>
    </g>
    <g id="ytick_6">
     <g id="line2d_16">
      <path d="M 46.31125 125.885462 
L 354.147257 125.885462 
" clip-path="url(#p7906a19883)" style="fill: none; stroke: #e9ecef; stroke-width: 0.6; stroke-linecap: square"/>
     </g>
     <g id="line2d_17">
      <g>
       <use xlink:href="#ma21db752a5" x="46.31125" y="125.885462" style="fill: #6c757d; stroke: #6c757d; stroke-width: 0.8"/>
      </g>
     </g>
     <g id="text_12">
      <!-- 250 -->
      <g style="fill: #6c757d" transform="translate(22.133125 129.455774) scale(0.1 -0.1)">
       <use xlink:href="#HelveticaNeue-32"/>
       <use xlink:href="#HelveticaNeue-35" transform="translate(55.599991 0)"/>
       <use xlink:href="#HelveticaNeue-30" transform="translate(111.199982 0)"/>
      </g>
     </g>
    </g>
    <g id="ytick_7">
     <g id="line2d_18">
      <path d="M 46.31125 96.568571 
L 354.147257 96.568571 
" clip-path="url(#p7906a19883)" style="fill: none; stroke: #e9ecef; stroke-width: 0.6; stroke-linecap: square"/>
     </g>
     <g id="line2d_19">
      <g>
       <use xlink:href="#ma21db752a5" x="46.31125" y="96.568571" style="fill: #6c757d; stroke: #6c757d; stroke-width: 0.8"/>
      </g>
     </g>
     <g id="text_13">
      <!-- 300 -->
      <g style="fill: #6c757d" transform="translate(22.133125 100.138883) scale(0.1 -0.1)">
       <defs>
        <path id="HelveticaNeue-33" d="M 1395 2592 
L 1395 2131 
Q 1549 2150 1722 2150 
Q 1926 2150 2102 2096 
Q 2278 2042 2406 1930 
Q 2534 1818 2611 1654 
Q 2688 1491 2688 1280 
Q 2688 1075 2608 912 
Q 2528 749 2393 637 
Q 2259 525 2080 464 
Q 1901 403 1702 403 
Q 1235 403 992 681 
Q 749 960 736 1402 
L 192 1402 
Q 186 1050 291 774 
Q 397 499 595 310 
Q 794 122 1075 26 
Q 1357 -70 1702 -70 
Q 2022 -70 2307 16 
Q 2592 102 2803 275 
Q 3014 448 3139 707 
Q 3264 966 3264 1306 
Q 3264 1715 3062 2016 
Q 2861 2317 2445 2406 
L 2445 2419 
Q 2714 2541 2893 2777 
Q 3072 3014 3072 3322 
Q 3072 3635 2966 3865 
Q 2861 4096 2675 4243 
Q 2490 4390 2237 4464 
Q 1984 4538 1690 4538 
Q 1350 4538 1091 4429 
Q 832 4320 659 4128 
Q 486 3936 393 3667 
Q 301 3398 288 3072 
L 832 3072 
Q 832 3270 883 3449 
Q 934 3629 1040 3763 
Q 1146 3898 1309 3978 
Q 1472 4058 1690 4058 
Q 2035 4058 2265 3875 
Q 2496 3693 2496 3328 
Q 2496 3149 2425 3008 
Q 2355 2867 2236 2774 
Q 2118 2682 1961 2634 
Q 1805 2586 1632 2586 
L 1517 2586 
Q 1485 2586 1453 2586 
Q 1427 2586 1395 2592 
z
" transform="scale(0.015625)"/>
       </defs>
       <use xlink:href="#HelveticaNeue-33"/>
       <use xlink:href="#HelveticaNeue-30" transform="translate(55.599991 0)"/>
       <use xlink:href="#HelveticaNeue-30" transform="translate(111.199982 0)"/>
      </g>
     </g>
    </g>
    <g id="ytick_8">
     <g id="line2d_20">
      <path d="M 46.31125 67.25168 
L 354.147257 67.25168 
" clip-path="url(#p7906a19883)" style="fill: none; stroke: #e9ecef; stroke-width: 0.6; stroke-linecap: square"/>
     </g>
     <g id="line2d_21">
      <g>
       <use xlink:href="#ma21db752a5" x="46.31125" y="67.25168" style="fill: #6c757d; stroke: #6c757d; stroke-width: 0.8"/>
      </g>
     </g>
     <g id="text_14">
      <!-- 350 -->
      <g style="fill: #6c757d" transform="translate(22.133125 70.821992) scale(0.1 -0.1)">
       <use xlink:href="#HelveticaNeue-33"/>
       <use xlink:href="#HelveticaNeue-35" transform="translate(55.599991 0)"/>
       <use xlink:href="#HelveticaNeue-30" transform="translate(111.199982 0)"/>
      </g>
     </g>
    </g>
    <g id="ytick_9">
     <g id="line2d_22">
      <path d="M 46.31125 37.934788 
L 354.147257 37.934788 
" clip-path="url(#p7906a19883)" style="fill: none; stroke: #e9ecef; stroke-width: 0.6; stroke-linecap: square"/>
     </g>
     <g id="line2d_23">
      <g>
       <use xlink:href="#ma21db752a5" x="46.31125" y="37.934788" style="fill: #6c757d; stroke: #6c757d; stroke-width: 0.8"/>
      </g>
     </g>
     <g id="text_15">
      <!-- 400 -->
      <g style="fill: #6c757d" transform="translate(22.133125 41.505101) scale(0.1 -0.1)">
       <defs>
        <path id="HelveticaNeue-34" d="M 2170 1542 
L 646 1542 
L 2157 3763 
L 2170 3763 
L 2170 1542 
z
M 2682 1542 
L 2682 4538 
L 2246 4538 
L 179 1587 
L 179 1062 
L 2170 1062 
L 2170 0 
L 2682 0 
L 2682 1062 
L 3296 1062 
L 3296 1542 
L 2682 1542 
z
" transform="scale(0.015625)"/>
       </defs>
       <use xlink:href="#HelveticaNeue-34"/>
       <use xlink:href="#HelveticaNeue-30" transform="translate(55.599991 0)"/>
       <use xlink:href="#HelveticaNeue-30" transform="translate(111.199982 0)"/>
      </g>
     </g>
    </g>
    <g id="text_16">
     <!-- Mean Reward -->
     <g style="fill: #212529" transform="translate(15.76875 197.060672) rotate(-90) scale(0.12 -0.12)">
      <defs>
       <path id="HelveticaNeue-4d" d="M 512 4570 
L 512 0 
L 1088 0 
L 1088 3802 
L 1101 3802 
L 2528 0 
L 3046 0 
L 4474 3802 
L 4486 3802 
L 4486 0 
L 5062 0 
L 5062 4570 
L 4230 4570 
L 2784 730 
L 1344 4570 
L 512 4570 
z
" transform="scale(0.015625)"/>
       <path id="HelveticaNeue-52" d="M 499 4570 
L 499 0 
L 1107 0 
L 1107 1952 
L 2592 1952 
Q 2816 1952 2950 1885 
Q 3085 1818 3168 1706 
Q 3251 1594 3289 1443 
Q 3328 1293 3354 1126 
Q 3386 960 3392 787 
Q 3398 614 3404 464 
Q 3411 314 3433 192 
Q 3456 70 3520 0 
L 4198 0 
Q 4102 115 4054 265 
Q 4006 416 3980 582 
Q 3955 749 3948 921 
Q 3942 1094 3930 1261 
Q 3910 1427 3875 1580 
Q 3840 1734 3766 1859 
Q 3693 1984 3568 2073 
Q 3443 2163 3245 2202 
L 3245 2214 
Q 3661 2330 3849 2643 
Q 4038 2957 4038 3373 
Q 4038 3930 3670 4250 
Q 3302 4570 2650 4570 
L 499 4570 
z
M 2374 2464 
L 1107 2464 
L 1107 4058 
L 2618 4058 
Q 3046 4058 3238 3840 
Q 3430 3622 3430 3277 
Q 3430 3027 3344 2870 
Q 3258 2714 3114 2621 
Q 2970 2528 2778 2496 
Q 2586 2464 2374 2464 
z
" transform="scale(0.015625)"/>
       <path id="HelveticaNeue-77" d="M 3686 0 
L 4742 3309 
L 4179 3309 
L 3437 602 
L 3424 602 
L 2733 3309 
L 2138 3309 
L 1472 602 
L 1459 602 
L 710 3309 
L 109 3309 
L 1171 0 
L 1760 0 
L 2426 2630 
L 2438 2630 
L 3110 0 
L 3686 0 
z
" transform="scale(0.015625)"/>
      </defs>
      <use xlink:href="#HelveticaNeue-4d"/>
      <use xlink:href="#HelveticaNeue-65" transform="translate(87.099991 0)"/>
      <use xlink:href="#HelveticaNeue-61" transform="translate(140.799988 0)"/>
      <use xlink:href="#HelveticaNeue-6e" transform="translate(194.499985 0)"/>
      <use xlink:href="#HelveticaNeue-20" transform="translate(250.099976 0)"/>
      <use xlink:href="#HelveticaNeue-52" transform="translate(277.899963 0)"/>
      <use xlink:href="#HelveticaNeue-65" transform="translate(346.399948 0)"/>
      <use xlink:href="#HelveticaNeue-77" transform="translate(400.099945 0)"/>
      <use xlink:href="#HelveticaNeue-61" transform="translate(475.899933 0)"/>
      <use xlink:href="#HelveticaNeue-72" transform="translate(529.59993 0)"/>
      <use xlink:href="#HelveticaNeue-64" transform="translate(561.149918 0)"/>
     </g>
    </g>
   </g>
   <g id="FillBetweenPolyCollection_1">
    <defs>
     <path id="md76d1814d3" d="M 60.303796 -53.568066 
L 60.303796 -49.346434 
L 153.587434 -50.401842 
L 218.789899 -53.044366 
L 312.073538 -57.070883 
L 340.154711 -53.908907 
L 340.154711 -57.683393 
L 340.154711 -57.683393 
L 312.073538 -59.798457 
L 218.789899 -55.616245 
L 153.587434 -50.401842 
L 60.303796 -53.568066 
z
" style="stroke: #059669; stroke-opacity: 0.15"/>
    </defs>
    <g clip-path="url(#p7906a19883)">
     <use xlink:href="#md76d1814d3" x="0" y="322.87176" style="fill: #059669; fill-opacity: 0.15; stroke: #059669; stroke-opacity: 0.15"/>
    </g>
   </g>
   <g id="FillBetweenPolyCollection_2">
    <defs>
     <path id="mcad70fc3bb" d="M 60.303796 -51.45725 
L 60.303796 -50.05004 
L 153.587434 -50.401842 
L 218.789899 -53.388398 
L 312.073538 -54.812291 
L 340.154711 -54.772019 
L 340.154711 -65.732616 
L 340.154711 -65.732616 
L 312.073538 -56.662742 
L 218.789899 -61.604662 
L 153.587434 -50.401842 
L 60.303796 -51.45725 
z
" style="stroke: #d97706; stroke-opacity: 0.15"/>
    </defs>
    <g clip-path="url(#p7906a19883)">
     <use xlink:href="#mcad70fc3bb" x="0" y="322.87176" style="fill: #d97706; fill-opacity: 0.15; stroke: #d97706; stroke-opacity: 0.15"/>
    </g>
   </g>
   <g id="line2d_24">
    <path d="M 46.31125 46.143518 
L 354.147257 46.143518 
" clip-path="url(#p7906a19883)" style="fill: none; stroke-dasharray: 5.55,2.4; stroke-dashoffset: 0; stroke: #2563eb; stroke-opacity: 0.7; stroke-width: 1.5"/>
   </g>
   <g id="patch_3">
    <path d="M 46.31125 284.894416 
L 46.31125 34.774427 
" style="fill: none; stroke: #495057; stroke-linejoin: miter; stroke-linecap: square"/>
   </g>
   <g id="patch_4">
    <path d="M 46.31125 284.894416 
L 354.147257 284.894416 
" style="fill: none; stroke: #495057; stroke-linejoin: miter; stroke-linecap: square"/>
   </g>
   <g id="line2d_25">
    <path d="M 60.303796 271.41451 
L 153.587434 272.469918 
L 218.789899 268.541454 
L 312.073538 264.43709 
L 340.154711 267.07561 
" clip-path="url(#p7906a19883)" style="fill: none; stroke: #059669; stroke-width: 2; stroke-linecap: square"/>
    <defs>
     <path id="m64de0465dc" d="M 0 3 
C 0.795609 3 1.55874 2.683901 2.12132 2.12132 
C 2.683901 1.55874 3 0.795609 3 0 
C 3 -0.795609 2.683901 -1.55874 2.12132 -2.12132 
C 1.55874 -2.683901 0.795609 -3 0 -3 
C -0.795609 -3 -1.55874 -2.683901 -2.12132 -2.12132 
C -2.683901 -1.55874 -3 -0.795609 -3 0 
C -3 0.795609 -2.683901 1.55874 -2.12132 2.12132 
C -1.55874 2.683901 -0.795609 3 0 3 
z
" style="stroke: #ffffff; stroke-width: 1.2"/>
    </defs>
    <g clip-path="url(#p7906a19883)">
     <use xlink:href="#m64de0465dc" x="60.303796" y="271.41451" style="fill: #059669; stroke: #ffffff; stroke-width: 1.2"/>
     <use xlink:href="#m64de0465dc" x="153.587434" y="272.469918" style="fill: #059669; stroke: #ffffff; stroke-width: 1.2"/>
     <use xlink:href="#m64de0465dc" x="218.789899" y="268.541454" style="fill: #059669; stroke: #ffffff; stroke-width: 1.2"/>
     <use xlink:href="#m64de0465dc" x="312.073538" y="264.43709" style="fill: #059669; stroke: #ffffff; stroke-width: 1.2"/>
     <use xlink:href="#m64de0465dc" x="340.154711" y="267.07561" style="fill: #059669; stroke: #ffffff; stroke-width: 1.2"/>
    </g>
   </g>
   <g id="line2d_26">
    <path d="M 60.303796 272.118115 
L 153.587434 272.469918 
L 218.789899 265.37523 
L 312.073538 267.134244 
L 340.154711 262.619442 
" clip-path="url(#p7906a19883)" style="fill: none; stroke: #d97706; stroke-width: 2; stroke-linecap: square"/>
    <defs>
     <path id="m58e84f8efb" d="M 0 3 
C 0.795609 3 1.55874 2.683901 2.12132 2.12132 
C 2.683901 1.55874 3 0.795609 3 0 
C 3 -0.795609 2.683901 -1.55874 2.12132 -2.12132 
C 1.55874 -2.683901 0.795609 -3 0 -3 
C -0.795609 -3 -1.55874 -2.683901 -2.12132 -2.12132 
C -2.683901 -1.55874 -3 -0.795609 -3 0 
C -3 0.795609 -2.683901 1.55874 -2.12132 2.12132 
C -1.55874 2.683901 -0.795609 3 0 3 
z
" style="stroke: #ffffff; stroke-width: 1.2"/>
    </defs>
    <g clip-path="url(#p7906a19883)">
     <use xlink:href="#m58e84f8efb" x="60.303796" y="272.118115" style="fill: #d97706; stroke: #ffffff; stroke-width: 1.2"/>
     <use xlink:href="#m58e84f8efb" x="153.587434" y="272.469918" style="fill: #d97706; stroke: #ffffff; stroke-width: 1.2"/>
     <use xlink:href="#m58e84f8efb" x="218.789899" y="265.37523" style="fill: #d97706; stroke: #ffffff; stroke-width: 1.2"/>
     <use xlink:href="#m58e84f8efb" x="312.073538" y="267.134244" style="fill: #d97706; stroke: #ffffff; stroke-width: 1.2"/>
     <use xlink:href="#m58e84f8efb" x="340.154711" y="262.619442" style="fill: #d97706; stroke: #ffffff; stroke-width: 1.2"/>
    </g>
   </g>
   <g id="text_17">
    <!-- Breakout -->
    <g style="fill: #212529" transform="translate(173.978394 28.774427) scale(0.13 -0.13)">
     <defs>
      <path id="HelveticaNeue-42" d="M 1107 2605 
L 1107 4058 
L 2323 4058 
Q 2522 4058 2698 4035 
Q 2874 4013 3008 3936 
Q 3142 3859 3219 3718 
Q 3296 3578 3296 3334 
Q 3296 2970 3069 2787 
Q 2842 2605 2323 2605 
L 1107 2605 
z
M 499 4570 
L 499 0 
L 2707 0 
Q 3046 0 3305 112 
Q 3565 224 3741 406 
Q 3917 589 4006 825 
Q 4096 1062 4096 1312 
Q 4096 1734 3872 2028 
Q 3648 2323 3226 2413 
L 3226 2426 
Q 3552 2554 3728 2819 
Q 3904 3085 3904 3450 
Q 3904 3795 3747 4032 
Q 3590 4269 3366 4403 
Q 3264 4467 3120 4499 
Q 2976 4531 2809 4547 
Q 2643 4563 2473 4566 
Q 2304 4570 2157 4570 
L 499 4570 
z
M 1107 512 
L 1107 2093 
L 2496 2093 
Q 2688 2093 2867 2057 
Q 3046 2022 3184 1936 
Q 3322 1850 3405 1702 
Q 3488 1555 3488 1331 
Q 3488 947 3261 729 
Q 3034 512 2630 512 
L 1107 512 
z
" transform="scale(0.015625)"/>
      <path id="HelveticaNeue-6b" d="M 442 4570 
L 442 0 
L 986 0 
L 986 1254 
L 1498 1728 
L 2630 0 
L 3322 0 
L 1914 2106 
L 3226 3309 
L 2496 3309 
L 986 1862 
L 986 4570 
L 442 4570 
z
" transform="scale(0.015625)"/>
      <path id="HelveticaNeue-75" d="M 3149 0 
L 3149 3309 
L 2605 3309 
L 2605 1440 
Q 2605 1216 2544 1027 
Q 2483 838 2361 697 
Q 2240 557 2057 480 
Q 1875 403 1626 403 
Q 1312 403 1133 582 
Q 954 762 954 1069 
L 954 3309 
L 410 3309 
L 410 1133 
Q 410 864 464 643 
Q 518 422 652 262 
Q 787 102 1004 16 
Q 1222 -70 1549 -70 
Q 1914 -70 2182 74 
Q 2451 218 2624 525 
L 2637 525 
L 2637 0 
L 3149 0 
z
" transform="scale(0.015625)"/>
      <path id="HelveticaNeue-74" d="M 1165 3309 
L 1165 4301 
L 621 4301 
L 621 3309 
L 58 3309 
L 58 2829 
L 621 2829 
L 621 723 
Q 621 493 665 352 
Q 710 211 803 134 
Q 896 58 1046 29 
Q 1197 0 1408 0 
L 1824 0 
L 1824 480 
L 1574 480 
Q 1446 480 1366 489 
Q 1286 499 1241 531 
Q 1197 563 1181 620 
Q 1165 678 1165 774 
L 1165 2829 
L 1824 2829 
L 1824 3309 
L 1165 3309 
z
" transform="scale(0.015625)"/>
     </defs>
     <use xlink:href="#HelveticaNeue-42"/>
     <use xlink:href="#HelveticaNeue-72" transform="translate(68.499985 0)"/>
     <use xlink:href="#HelveticaNeue-65" transform="translate(100.049973 0)"/>
     <use xlink:href="#HelveticaNeue-61" transform="translate(153.749969 0)"/>
     <use xlink:href="#HelveticaNeue-6b" transform="translate(207.449966 0)"/>
     <use xlink:href="#HelveticaNeue-6f" transform="translate(259.34996 0)"/>
     <use xlink:href="#HelveticaNeue-75" transform="translate(316.749954 0)"/>
     <use xlink:href="#HelveticaNeue-74" transform="translate(372.349945 0)"/>
    </g>
   </g>
  </g>
  <g id="axes_2">
   <g id="patch_5">
    <path d="M 390.796757 284.894416 
L 698.632763 284.894416 
L 698.632763 34.774427 
L 390.796757 34.774427 
z
" style="fill: #ffffff"/>
   </g>
   <g id="matplotlib.axis_3">
    <g id="xtick_6">
     <g id="line2d_27">
      <g>
       <use xlink:href="#m1a3a3e0506" x="404.789302" y="284.894416" style="fill: #6c757d; stroke: #6c757d; stroke-width: 0.8"/>
      </g>
     </g>
     <g id="text_18">
      <!-- 10 -->
      <g style="fill: #6c757d" transform="translate(399.785865 298.820979) scale(0.09 -0.09)">
       <use xlink:href="#HelveticaNeue-31"/>
       <use xlink:href="#HelveticaNeue-30" transform="translate(55.599991 0)"/>
      </g>
     </g>
    </g>
    <g id="xtick_7">
     <g id="line2d_28">
      <g>
       <use xlink:href="#m1a3a3e0506" x="498.072941" y="284.894416" style="fill: #6c757d; stroke: #6c757d; stroke-width: 0.8"/>
      </g>
     </g>
     <g id="text_19">
      <!-- 100 -->
      <g style="fill: #6c757d" transform="translate(490.567785 298.820979) scale(0.09 -0.09)">
       <use xlink:href="#HelveticaNeue-31"/>
       <use xlink:href="#HelveticaNeue-30" transform="translate(55.599991 0)"/>
       <use xlink:href="#HelveticaNeue-30" transform="translate(111.199982 0)"/>
      </g>
     </g>
    </g>
    <g id="xtick_8">
     <g id="line2d_29">
      <g>
       <use xlink:href="#m1a3a3e0506" x="563.275406" y="284.894416" style="fill: #6c757d; stroke: #6c757d; stroke-width: 0.8"/>
      </g>
     </g>
     <g id="text_20">
      <!-- 500 -->
      <g style="fill: #6c757d" transform="translate(555.77025 298.820979) scale(0.09 -0.09)">
       <use xlink:href="#HelveticaNeue-35"/>
       <use xlink:href="#HelveticaNeue-30" transform="translate(55.599991 0)"/>
       <use xlink:href="#HelveticaNeue-30" transform="translate(111.199982 0)"/>
      </g>
     </g>
    </g>
    <g id="xtick_9">
     <g id="line2d_30">
      <g>
       <use xlink:href="#m1a3a3e0506" x="656.559044" y="284.894416" style="fill: #6c757d; stroke: #6c757d; stroke-width: 0.8"/>
      </g>
     </g>
     <g id="text_21">
      <!-- 5000 -->
      <g style="fill: #6c757d" transform="translate(646.552169 298.820979) scale(0.09 -0.09)">
       <use xlink:href="#HelveticaNeue-35"/>
       <use xlink:href="#HelveticaNeue-30" transform="translate(55.599991 0)"/>
       <use xlink:href="#HelveticaNeue-30" transform="translate(111.199982 0)"/>
       <use xlink:href="#HelveticaNeue-30" transform="translate(166.799973 0)"/>
      </g>
     </g>
    </g>
    <g id="xtick_10">
     <g id="line2d_31">
      <g>
       <use xlink:href="#m1a3a3e0506" x="684.640218" y="284.894416" style="fill: #6c757d; stroke: #6c757d; stroke-width: 0.8"/>
      </g>
     </g>
     <g id="text_22">
      <!-- 10000 -->
      <g style="fill: #6c757d" transform="translate(672.131624 298.820979) scale(0.09 -0.09)">
       <use xlink:href="#HelveticaNeue-31"/>
       <use xlink:href="#HelveticaNeue-30" transform="translate(55.599991 0)"/>
       <use xlink:href="#HelveticaNeue-30" transform="translate(111.199982 0)"/>
       <use xlink:href="#HelveticaNeue-30" transform="translate(166.799973 0)"/>
       <use xlink:href="#HelveticaNeue-30" transform="translate(222.399963 0)"/>
      </g>
     </g>
    </g>
    <g id="text_23">
     <!-- Training Episodes -->
     <g style="fill: #212529" transform="translate(497.377572 313.16301) scale(0.12 -0.12)">
      <use xlink:href="#HelveticaNeue-54"/>
      <use xlink:href="#HelveticaNeue-72" transform="translate(48.149994 0)"/>
      <use xlink:href="#HelveticaNeue-61" transform="translate(81.449982 0)"/>
      <use xlink:href="#HelveticaNeue-69" transform="translate(135.149979 0)"/>
      <use xlink:href="#HelveticaNeue-6e" transform="translate(157.349976 0)"/>
      <use xlink:href="#HelveticaNeue-69" transform="translate(212.949966 0)"/>
      <use xlink:href="#HelveticaNeue-6e" transform="translate(235.149963 0)"/>
      <use xlink:href="#HelveticaNeue-67" transform="translate(290.749954 0)"/>
      <use xlink:href="#HelveticaNeue-20" transform="translate(348.149948 0)"/>
      <use xlink:href="#HelveticaNeue-45" transform="translate(375.949936 0)"/>
      <use xlink:href="#HelveticaNeue-70" transform="translate(437.049927 0)"/>
      <use xlink:href="#HelveticaNeue-69" transform="translate(496.349915 0)"/>
      <use xlink:href="#HelveticaNeue-73" transform="translate(518.549911 0)"/>
      <use xlink:href="#HelveticaNeue-6f" transform="translate(568.549896 0)"/>
      <use xlink:href="#HelveticaNeue-64" transform="translate(625.94989 0)"/>
      <use xlink:href="#HelveticaNeue-65" transform="translate(685.249878 0)"/>
      <use xlink:href="#HelveticaNeue-73" transform="translate(738.949875 0)"/>
     </g>
    </g>
   </g>
   <g id="matplotlib.axis_4">
    <g id="ytick_10">
     <g id="line2d_32">
      <path d="M 390.796757 247.391176 
L 698.632763 247.391176 
" clip-path="url(#p8eb115fb2d)" style="fill: none; stroke: #e9ecef; stroke-width: 0.6; stroke-linecap: square"/>
     </g>
     <g id="line2d_33">
      <g>
       <use xlink:href="#ma21db752a5" x="390.796757" y="247.391176" style="fill: #6c757d; stroke: #6c757d; stroke-width: 0.8"/>
      </g>
     </g>
     <g id="text_24">
      <!-- 200 -->
      <g style="fill: #6c757d" transform="translate(366.618632 250.961488) scale(0.1 -0.1)">
       <use xlink:href="#HelveticaNeue-32"/>
       <use xlink:href="#HelveticaNeue-30" transform="translate(55.599991 0)"/>
       <use xlink:href="#HelveticaNeue-30" transform="translate(111.199982 0)"/>
      </g>
     </g>
    </g>
    <g id="ytick_11">
     <g id="line2d_34">
      <path d="M 390.796757 198.946404 
L 698.632763 198.946404 
" clip-path="url(#p8eb115fb2d)" style="fill: none; stroke: #e9ecef; stroke-width: 0.6; stroke-linecap: square"/>
     </g>
     <g id="line2d_35">
      <g>
       <use xlink:href="#ma21db752a5" x="390.796757" y="198.946404" style="fill: #6c757d; stroke: #6c757d; stroke-width: 0.8"/>
      </g>
     </g>
     <g id="text_25">
      <!-- 400 -->
      <g style="fill: #6c757d" transform="translate(366.618632 202.516716) scale(0.1 -0.1)">
       <use xlink:href="#HelveticaNeue-34"/>
       <use xlink:href="#HelveticaNeue-30" transform="translate(55.599991 0)"/>
       <use xlink:href="#HelveticaNeue-30" transform="translate(111.199982 0)"/>
      </g>
     </g>
    </g>
    <g id="ytick_12">
     <g id="line2d_36">
      <path d="M 390.796757 150.501631 
L 698.632763 150.501631 
" clip-path="url(#p8eb115fb2d)" style="fill: none; stroke: #e9ecef; stroke-width: 0.6; stroke-linecap: square"/>
     </g>
     <g id="line2d_37">
      <g>
       <use xlink:href="#ma21db752a5" x="390.796757" y="150.501631" style="fill: #6c757d; stroke: #6c757d; stroke-width: 0.8"/>
      </g>
     </g>
     <g id="text_26">
      <!-- 600 -->
      <g style="fill: #6c757d" transform="translate(366.618632 154.071944) scale(0.1 -0.1)">
       <defs>
        <path id="HelveticaNeue-36" d="M 2650 3379 
L 3194 3379 
Q 3142 3942 2809 4240 
Q 2477 4538 1914 4538 
Q 1427 4538 1107 4333 
Q 787 4128 595 3789 
Q 403 3450 323 3011 
Q 243 2573 243 2106 
Q 243 1747 297 1363 
Q 352 979 518 659 
Q 685 339 992 134 
Q 1299 -70 1805 -70 
Q 2234 -70 2525 74 
Q 2816 218 2992 438 
Q 3168 659 3245 928 
Q 3322 1197 3322 1446 
Q 3322 1760 3226 2029 
Q 3130 2298 2954 2496 
Q 2778 2694 2518 2806 
Q 2259 2918 1933 2918 
Q 1562 2918 1277 2777 
Q 992 2637 800 2323 
L 787 2336 
Q 794 2598 838 2899 
Q 883 3200 1001 3459 
Q 1120 3718 1331 3888 
Q 1542 4058 1888 4058 
Q 2214 4058 2412 3872 
Q 2611 3686 2650 3379 
z
M 1830 2438 
Q 2061 2438 2233 2355 
Q 2406 2272 2521 2134 
Q 2637 1997 2691 1808 
Q 2746 1619 2746 1408 
Q 2746 1210 2685 1027 
Q 2624 845 2509 704 
Q 2394 563 2224 483 
Q 2054 403 1830 403 
Q 1606 403 1430 483 
Q 1254 563 1136 697 
Q 1018 832 954 1017 
Q 890 1203 890 1414 
Q 890 1626 950 1814 
Q 1011 2003 1132 2140 
Q 1254 2278 1427 2358 
Q 1600 2438 1830 2438 
z
" transform="scale(0.015625)"/>
       </defs>
       <use xlink:href="#HelveticaNeue-36"/>
       <use xlink:href="#HelveticaNeue-30" transform="translate(55.599991 0)"/>
       <use xlink:href="#HelveticaNeue-30" transform="translate(111.199982 0)"/>
      </g>
     </g>
    </g>
    <g id="ytick_13">
     <g id="line2d_38">
      <path d="M 390.796757 102.056859 
L 698.632763 102.056859 
" clip-path="url(#p8eb115fb2d)" style="fill: none; stroke: #e9ecef; stroke-width: 0.6; stroke-linecap: square"/>
     </g>
     <g id="line2d_39">
      <g>
       <use xlink:href="#ma21db752a5" x="390.796757" y="102.056859" style="fill: #6c757d; stroke: #6c757d; stroke-width: 0.8"/>
      </g>
     </g>
     <g id="text_27">
      <!-- 800 -->
      <g style="fill: #6c757d" transform="translate(366.618632 105.627172) scale(0.1 -0.1)">
       <defs>
        <path id="HelveticaNeue-38" d="M 992 3360 
Q 992 3533 1056 3661 
Q 1120 3789 1225 3878 
Q 1331 3968 1478 4013 
Q 1626 4058 1786 4058 
Q 2118 4058 2332 3882 
Q 2547 3706 2547 3360 
Q 2547 3014 2336 2822 
Q 2125 2630 1798 2630 
Q 1632 2630 1485 2675 
Q 1338 2720 1229 2809 
Q 1120 2899 1056 3036 
Q 992 3174 992 3360 
z
M 416 3379 
Q 416 3072 589 2813 
Q 762 2554 1050 2438 
Q 666 2304 461 2006 
Q 256 1709 256 1306 
Q 256 960 374 701 
Q 493 442 701 269 
Q 909 96 1190 13 
Q 1472 -70 1798 -70 
Q 2112 -70 2387 19 
Q 2662 109 2864 285 
Q 3066 461 3184 717 
Q 3302 973 3302 1306 
Q 3302 1728 3104 2019 
Q 2906 2310 2496 2438 
Q 2784 2566 2953 2819 
Q 3123 3072 3123 3379 
Q 3123 3597 3046 3805 
Q 2970 4013 2806 4176 
Q 2643 4339 2380 4438 
Q 2118 4538 1747 4538 
Q 1485 4538 1245 4461 
Q 1005 4384 819 4237 
Q 634 4090 525 3875 
Q 416 3661 416 3379 
z
M 832 1280 
Q 832 1478 905 1638 
Q 979 1798 1110 1913 
Q 1242 2029 1418 2089 
Q 1594 2150 1792 2150 
Q 1984 2150 2153 2083 
Q 2323 2016 2451 1901 
Q 2579 1786 2652 1629 
Q 2726 1472 2726 1286 
Q 2726 1094 2659 934 
Q 2592 774 2467 656 
Q 2342 538 2172 470 
Q 2003 403 1798 403 
Q 1376 403 1104 636 
Q 832 870 832 1280 
z
" transform="scale(0.015625)"/>
       </defs>
       <use xlink:href="#HelveticaNeue-38"/>
       <use xlink:href="#HelveticaNeue-30" transform="translate(55.599991 0)"/>
       <use xlink:href="#HelveticaNeue-30" transform="translate(111.199982 0)"/>
      </g>
     </g>
    </g>
    <g id="ytick_14">
     <g id="line2d_40">
      <path d="M 390.796757 53.612087 
L 698.632763 53.612087 
" clip-path="url(#p8eb115fb2d)" style="fill: none; stroke: #e9ecef; stroke-width: 0.6; stroke-linecap: square"/>
     </g>
     <g id="line2d_41">
      <g>
       <use xlink:href="#ma21db752a5" x="390.796757" y="53.612087" style="fill: #6c757d; stroke: #6c757d; stroke-width: 0.8"/>
      </g>
     </g>
     <g id="text_28">
      <!-- 1000 -->
      <g style="fill: #6c757d" transform="translate(361.059257 57.182399) scale(0.1 -0.1)">
       <use xlink:href="#HelveticaNeue-31"/>
       <use xlink:href="#HelveticaNeue-30" transform="translate(55.599991 0)"/>
       <use xlink:href="#HelveticaNeue-30" transform="translate(111.199982 0)"/>
       <use xlink:href="#HelveticaNeue-30" transform="translate(166.799973 0)"/>
      </g>
     </g>
    </g>
   </g>
   <g id="FillBetweenPolyCollection_3">
    <defs>
     <path id="m9d201246d0" d="M 404.789302 -182.799057 
L 404.789302 -104.372663 
L 498.072941 -49.346434 
L 563.275406 -99.244393 
L 656.559044 -135.239806 
L 684.640218 -123.508427 
L 684.640218 -194.022017 
L 684.640218 -194.022017 
L 656.559044 -156.614908 
L 563.275406 -167.257557 
L 498.072941 -114.694823 
L 404.789302 -182.799057 
z
" style="stroke: #059669; stroke-opacity: 0.15"/>
    </defs>
    <g clip-path="url(#p8eb115fb2d)">
     <use xlink:href="#m9d201246d0" x="0" y="322.87176" style="fill: #059669; fill-opacity: 0.15; stroke: #059669; stroke-opacity: 0.15"/>
    </g>
   </g>
   <g id="FillBetweenPolyCollection_4">
    <defs>
     <path id="m4bdca547d6" d="M 404.789302 -76.324949 
L 404.789302 -51.059763 
L 498.072941 -51.51213 
L 563.275406 -95.151587 
L 656.559044 -96.62519 
L 684.640218 -106.53788 
L 684.640218 -127.90978 
L 684.640218 -127.90978 
L 656.559044 -201.769568 
L 563.275406 -173.530378 
L 498.072941 -116.646932 
L 404.789302 -76.324949 
z
" style="stroke: #d97706; stroke-opacity: 0.15"/>
    </defs>
    <g clip-path="url(#p8eb115fb2d)">
     <use xlink:href="#m4bdca547d6" x="0" y="322.87176" style="fill: #d97706; fill-opacity: 0.15; stroke: #d97706; stroke-opacity: 0.15"/>
    </g>
   </g>
   <g id="line2d_42">
    <path d="M 390.796757 46.143518 
L 698.632763 46.143518 
" clip-path="url(#p8eb115fb2d)" style="fill: none; stroke-dasharray: 5.55,2.4; stroke-dashoffset: 0; stroke: #2563eb; stroke-opacity: 0.7; stroke-width: 1.5"/>
   </g>
   <g id="patch_6">
    <path d="M 390.796757 284.894416 
L 390.796757 34.774428 
" style="fill: none; stroke: #495057; stroke-linejoin: miter; stroke-linecap: square"/>
   </g>
   <g id="patch_7">
    <path d="M 390.796757 284.894416 
L 698.632763 284.894416 
" style="fill: none; stroke: #495057; stroke-linejoin: miter; stroke-linecap: square"/>
   </g>
   <g id="line2d_43">
    <path d="M 404.789302 179.2859 
L 498.072941 240.851132 
L 563.275406 189.620785 
L 656.559044 176.944403 
L 684.640218 164.106538 
" clip-path="url(#p8eb115fb2d)" style="fill: none; stroke: #059669; stroke-width: 2; stroke-linecap: square"/>
    <g clip-path="url(#p8eb115fb2d)">
     <use xlink:href="#m64de0465dc" x="404.789302" y="179.2859" style="fill: #059669; stroke: #ffffff; stroke-width: 1.2"/>
     <use xlink:href="#m64de0465dc" x="498.072941" y="240.851132" style="fill: #059669; stroke: #ffffff; stroke-width: 1.2"/>
     <use xlink:href="#m64de0465dc" x="563.275406" y="189.620785" style="fill: #059669; stroke: #ffffff; stroke-width: 1.2"/>
     <use xlink:href="#m64de0465dc" x="656.559044" y="176.944403" style="fill: #059669; stroke: #ffffff; stroke-width: 1.2"/>
     <use xlink:href="#m64de0465dc" x="684.640218" y="164.106538" style="fill: #059669; stroke: #ffffff; stroke-width: 1.2"/>
    </g>
   </g>
   <g id="line2d_44">
    <path d="M 404.789302 259.179404 
L 498.072941 238.792229 
L 563.275406 188.530778 
L 656.559044 173.674381 
L 684.640218 205.64793 
" clip-path="url(#p8eb115fb2d)" style="fill: none; stroke: #d97706; stroke-width: 2; stroke-linecap: square"/>
    <g clip-path="url(#p8eb115fb2d)">
     <use xlink:href="#m58e84f8efb" x="404.789302" y="259.179404" style="fill: #d97706; stroke: #ffffff; stroke-width: 1.2"/>
     <use xlink:href="#m58e84f8efb" x="498.072941" y="238.792229" style="fill: #d97706; stroke: #ffffff; stroke-width: 1.2"/>
     <use xlink:href="#m58e84f8efb" x="563.275406" y="188.530778" style="fill: #d97706; stroke: #ffffff; stroke-width: 1.2"/>
     <use xlink:href="#m58e84f8efb" x="656.559044" y="173.674381" style="fill: #d97706; stroke: #ffffff; stroke-width: 1.2"/>
     <use xlink:href="#m58e84f8efb" x="684.640218" y="205.64793" style="fill: #d97706; stroke: #ffffff; stroke-width: 1.2"/>
    </g>
   </g>
   <g id="text_29">
    <!-- SpaceInvaders -->
    <g style="fill: #212529" transform="translate(501.379057 28.774427) scale(0.13 -0.13)">
     <defs>
      <path id="HelveticaNeue-53" d="M 3142 3232 
L 3718 3232 
Q 3706 3610 3574 3882 
Q 3443 4154 3216 4333 
Q 2989 4512 2688 4595 
Q 2387 4678 2035 4678 
Q 1722 4678 1424 4598 
Q 1126 4518 892 4355 
Q 659 4192 518 3939 
Q 378 3686 378 3341 
Q 378 3027 502 2819 
Q 627 2611 835 2480 
Q 1043 2349 1305 2269 
Q 1568 2189 1840 2128 
Q 2112 2067 2374 2009 
Q 2637 1952 2845 1859 
Q 3053 1766 3177 1619 
Q 3302 1472 3302 1235 
Q 3302 986 3200 826 
Q 3098 666 2931 573 
Q 2765 480 2557 441 
Q 2349 403 2144 403 
Q 1888 403 1645 467 
Q 1402 531 1219 665 
Q 1037 800 925 1008 
Q 813 1216 813 1504 
L 237 1504 
Q 237 1088 387 784 
Q 538 480 797 285 
Q 1056 90 1398 -6 
Q 1741 -102 2125 -102 
Q 2438 -102 2755 -28 
Q 3072 45 3328 208 
Q 3584 371 3747 630 
Q 3910 890 3910 1254 
Q 3910 1594 3785 1818 
Q 3661 2042 3453 2189 
Q 3245 2336 2982 2422 
Q 2720 2509 2448 2573 
Q 2176 2637 1913 2691 
Q 1651 2746 1443 2829 
Q 1235 2912 1110 3043 
Q 986 3174 986 3386 
Q 986 3610 1072 3760 
Q 1158 3910 1302 4000 
Q 1446 4090 1632 4128 
Q 1818 4166 2010 4166 
Q 2483 4166 2787 3945 
Q 3091 3725 3142 3232 
z
" transform="scale(0.015625)"/>
      <path id="HelveticaNeue-63" d="M 2656 2246 
L 3219 2246 
Q 3187 2541 3065 2755 
Q 2944 2970 2755 3110 
Q 2566 3251 2320 3318 
Q 2074 3386 1792 3386 
Q 1402 3386 1107 3248 
Q 813 3110 617 2870 
Q 422 2630 326 2307 
Q 230 1984 230 1613 
Q 230 1242 329 931 
Q 429 621 624 397 
Q 819 173 1110 51 
Q 1402 -70 1779 -70 
Q 2413 -70 2781 262 
Q 3149 595 3238 1210 
L 2682 1210 
Q 2630 826 2403 614 
Q 2176 403 1773 403 
Q 1517 403 1331 505 
Q 1146 608 1030 777 
Q 915 947 860 1164 
Q 806 1382 806 1613 
Q 806 1862 857 2096 
Q 909 2330 1027 2509 
Q 1146 2688 1344 2797 
Q 1542 2906 1837 2906 
Q 2182 2906 2387 2733 
Q 2592 2560 2656 2246 
z
" transform="scale(0.015625)"/>
      <path id="HelveticaNeue-49" d="M 525 4570 
L 525 0 
L 1133 0 
L 1133 4570 
L 525 4570 
z
" transform="scale(0.015625)"/>
      <path id="HelveticaNeue-76" d="M 1901 0 
L 3110 3309 
L 2541 3309 
L 1638 550 
L 1626 550 
L 698 3309 
L 90 3309 
L 1318 0 
L 1901 0 
z
" transform="scale(0.015625)"/>
     </defs>
     <use xlink:href="#HelveticaNeue-53"/>
     <use xlink:href="#HelveticaNeue-70" transform="translate(64.799988 0)"/>
     <use xlink:href="#HelveticaNeue-61" transform="translate(124.099976 0)"/>
     <use xlink:href="#HelveticaNeue-63" transform="translate(177.799973 0)"/>
     <use xlink:href="#HelveticaNeue-65" transform="translate(231.499969 0)"/>
     <use xlink:href="#HelveticaNeue-49" transform="translate(285.199966 0)"/>
     <use xlink:href="#HelveticaNeue-6e" transform="translate(311.09996 0)"/>
     <use xlink:href="#HelveticaNeue-76" transform="translate(366.699951 0)"/>
     <use xlink:href="#HelveticaNeue-61" transform="translate(416.699936 0)"/>
     <use xlink:href="#HelveticaNeue-64" transform="translate(470.399933 0)"/>
     <use xlink:href="#HelveticaNeue-65" transform="translate(529.699921 0)"/>
     <use xlink:href="#HelveticaNeue-72" transform="translate(583.399918 0)"/>
     <use xlink:href="#HelveticaNeue-73" transform="translate(616.699905 0)"/>
    </g>
   </g>
  </g>
  <g id="axes_3">
   <g id="patch_8">
    <path d="M 730.163513 284.894416 
L 1037.99952 284.894416 
L 1037.99952 34.774427 
L 730.163513 34.774427 
z
" style="fill: #ffffff"/>
   </g>
   <g id="matplotlib.axis_5">
    <g id="xtick_11">
     <g id="line2d_45">
      <g>
       <use xlink:href="#m1a3a3e0506" x="744.156059" y="284.894416" style="fill: #6c757d; stroke: #6c757d; stroke-width: 0.8"/>
      </g>
     </g>
     <g id="text_30">
      <!-- 10 -->
      <g style="fill: #6c757d" transform="translate(739.152622 298.820979) scale(0.09 -0.09)">
       <use xlink:href="#HelveticaNeue-31"/>
       <use xlink:href="#HelveticaNeue-30" transform="translate(55.599991 0)"/>
      </g>
     </g>
    </g>
    <g id="xtick_12">
     <g id="line2d_46">
      <g>
       <use xlink:href="#m1a3a3e0506" x="837.439697" y="284.894416" style="fill: #6c757d; stroke: #6c757d; stroke-width: 0.8"/>
      </g>
     </g>
     <g id="text_31">
      <!-- 100 -->
      <g style="fill: #6c757d" transform="translate(829.934541 298.820979) scale(0.09 -0.09)">
       <use xlink:href="#HelveticaNeue-31"/>
       <use xlink:href="#HelveticaNeue-30" transform="translate(55.599991 0)"/>
       <use xlink:href="#HelveticaNeue-30" transform="translate(111.199982 0)"/>
      </g>
     </g>
    </g>
    <g id="xtick_13">
     <g id="line2d_47">
      <g>
       <use xlink:href="#m1a3a3e0506" x="902.642163" y="284.894416" style="fill: #6c757d; stroke: #6c757d; stroke-width: 0.8"/>
      </g>
     </g>
     <g id="text_32">
      <!-- 500 -->
      <g style="fill: #6c757d" transform="translate(895.137006 298.820979) scale(0.09 -0.09)">
       <use xlink:href="#HelveticaNeue-35"/>
       <use xlink:href="#HelveticaNeue-30" transform="translate(55.599991 0)"/>
       <use xlink:href="#HelveticaNeue-30" transform="translate(111.199982 0)"/>
      </g>
     </g>
    </g>
    <g id="xtick_14">
     <g id="line2d_48">
      <g>
       <use xlink:href="#m1a3a3e0506" x="995.925801" y="284.894416" style="fill: #6c757d; stroke: #6c757d; stroke-width: 0.8"/>
      </g>
     </g>
     <g id="text_33">
      <!-- 5000 -->
      <g style="fill: #6c757d" transform="translate(985.918926 298.820979) scale(0.09 -0.09)">
       <use xlink:href="#HelveticaNeue-35"/>
       <use xlink:href="#HelveticaNeue-30" transform="translate(55.599991 0)"/>
       <use xlink:href="#HelveticaNeue-30" transform="translate(111.199982 0)"/>
       <use xlink:href="#HelveticaNeue-30" transform="translate(166.799973 0)"/>
      </g>
     </g>
    </g>
    <g id="xtick_15">
     <g id="line2d_49">
      <g>
       <use xlink:href="#m1a3a3e0506" x="1024.006974" y="284.894416" style="fill: #6c757d; stroke: #6c757d; stroke-width: 0.8"/>
      </g>
     </g>
     <g id="text_34">
      <!-- 10000 -->
      <g style="fill: #6c757d" transform="translate(1011.49838 298.820979) scale(0.09 -0.09)">
       <use xlink:href="#HelveticaNeue-31"/>
       <use xlink:href="#HelveticaNeue-30" transform="translate(55.599991 0)"/>
       <use xlink:href="#HelveticaNeue-30" transform="translate(111.199982 0)"/>
       <use xlink:href="#HelveticaNeue-30" transform="translate(166.799973 0)"/>
       <use xlink:href="#HelveticaNeue-30" transform="translate(222.399963 0)"/>
      </g>
     </g>
    </g>
    <g id="text_35">
     <!-- Training Episodes -->
     <g style="fill: #212529" transform="translate(836.744329 313.16301) scale(0.12 -0.12)">
      <use xlink:href="#HelveticaNeue-54"/>
      <use xlink:href="#HelveticaNeue-72" transform="translate(48.149994 0)"/>
      <use xlink:href="#HelveticaNeue-61" transform="translate(81.449982 0)"/>
      <use xlink:href="#HelveticaNeue-69" transform="translate(135.149979 0)"/>
      <use xlink:href="#HelveticaNeue-6e" transform="translate(157.349976 0)"/>
      <use xlink:href="#HelveticaNeue-69" transform="translate(212.949966 0)"/>
      <use xlink:href="#HelveticaNeue-6e" transform="translate(235.149963 0)"/>
      <use xlink:href="#HelveticaNeue-67" transform="translate(290.749954 0)"/>
      <use xlink:href="#HelveticaNeue-20" transform="translate(348.149948 0)"/>
      <use xlink:href="#HelveticaNeue-45" transform="translate(375.949936 0)"/>
      <use xlink:href="#HelveticaNeue-70" transform="translate(437.049927 0)"/>
      <use xlink:href="#HelveticaNeue-69" transform="translate(496.349915 0)"/>
      <use xlink:href="#HelveticaNeue-73" transform="translate(518.549911 0)"/>
      <use xlink:href="#HelveticaNeue-6f" transform="translate(568.549896 0)"/>
      <use xlink:href="#HelveticaNeue-64" transform="translate(625.94989 0)"/>
      <use xlink:href="#HelveticaNeue-65" transform="translate(685.249878 0)"/>
      <use xlink:href="#HelveticaNeue-73" transform="translate(738.949875 0)"/>
     </g>
    </g>
   </g>
   <g id="matplotlib.axis_6">
    <g id="ytick_15">
     <g id="line2d_50">
      <path d="M 730.163513 260.391092 
L 1037.99952 260.391092 
" clip-path="url(#p26205ba50c)" style="fill: none; stroke: #e9ecef; stroke-width: 0.6; stroke-linecap: square"/>
     </g>
     <g id="line2d_51">
      <g>
       <use xlink:href="#ma21db752a5" x="730.163513" y="260.391092" style="fill: #6c757d; stroke: #6c757d; stroke-width: 0.8"/>
      </g>
     </g>
     <g id="text_36">
      <!-- −20 -->
      <g style="fill: #6c757d" transform="translate(705.544763 263.961405) scale(0.1 -0.1)">
       <defs>
        <path id="HelveticaNeue-2212" d="M 307 1837 
L 307 1402 
L 3533 1402 
L 3533 1837 
L 307 1837 
z
" transform="scale(0.015625)"/>
       </defs>
       <use xlink:href="#HelveticaNeue-2212"/>
       <use xlink:href="#HelveticaNeue-32" transform="translate(59.999985 0)"/>
       <use xlink:href="#HelveticaNeue-30" transform="translate(115.599976 0)"/>
      </g>
     </g>
    </g>
    <g id="ytick_16">
     <g id="line2d_52">
      <path d="M 730.163513 210.143746 
L 1037.99952 210.143746 
" clip-path="url(#p26205ba50c)" style="fill: none; stroke: #e9ecef; stroke-width: 0.6; stroke-linecap: square"/>
     </g>
     <g id="line2d_53">
      <g>
       <use xlink:href="#ma21db752a5" x="730.163513" y="210.143746" style="fill: #6c757d; stroke: #6c757d; stroke-width: 0.8"/>
      </g>
     </g>
     <g id="text_37">
      <!-- −10 -->
      <g style="fill: #6c757d" transform="translate(705.544763 213.714058) scale(0.1 -0.1)">
       <use xlink:href="#HelveticaNeue-2212"/>
       <use xlink:href="#HelveticaNeue-31" transform="translate(59.999985 0)"/>
       <use xlink:href="#HelveticaNeue-30" transform="translate(115.599976 0)"/>
      </g>
     </g>
    </g>
    <g id="ytick_17">
     <g id="line2d_54">
      <path d="M 730.163513 159.896399 
L 1037.99952 159.896399 
" clip-path="url(#p26205ba50c)" style="fill: none; stroke: #e9ecef; stroke-width: 0.6; stroke-linecap: square"/>
     </g>
     <g id="line2d_55">
      <g>
       <use xlink:href="#ma21db752a5" x="730.163513" y="159.896399" style="fill: #6c757d; stroke: #6c757d; stroke-width: 0.8"/>
      </g>
     </g>
     <g id="text_38">
      <!-- 0 -->
      <g style="fill: #6c757d" transform="translate(717.104138 163.466712) scale(0.1 -0.1)">
       <use xlink:href="#HelveticaNeue-30"/>
      </g>
     </g>
    </g>
    <g id="ytick_18">
     <g id="line2d_56">
      <path d="M 730.163513 109.649053 
L 1037.99952 109.649053 
" clip-path="url(#p26205ba50c)" style="fill: none; stroke: #e9ecef; stroke-width: 0.6; stroke-linecap: square"/>
     </g>
     <g id="line2d_57">
      <g>
       <use xlink:href="#ma21db752a5" x="730.163513" y="109.649053" style="fill: #6c757d; stroke: #6c757d; stroke-width: 0.8"/>
      </g>
     </g>
     <g id="text_39">
      <!-- 10 -->
      <g style="fill: #6c757d" transform="translate(711.544763 113.219366) scale(0.1 -0.1)">
       <use xlink:href="#HelveticaNeue-31"/>
       <use xlink:href="#HelveticaNeue-30" transform="translate(55.599991 0)"/>
      </g>
     </g>
    </g>
    <g id="ytick_19">
     <g id="line2d_58">
      <path d="M 730.163513 59.401707 
L 1037.99952 59.401707 
" clip-path="url(#p26205ba50c)" style="fill: none; stroke: #e9ecef; stroke-width: 0.6; stroke-linecap: square"/>
     </g>
     <g id="line2d_59">
      <g>
       <use xlink:href="#ma21db752a5" x="730.163513" y="59.401707" style="fill: #6c757d; stroke: #6c757d; stroke-width: 0.8"/>
      </g>
     </g>
     <g id="text_40">
      <!-- 20 -->
      <g style="fill: #6c757d" transform="translate(711.544763 62.972019) scale(0.1 -0.1)">
       <use xlink:href="#HelveticaNeue-32"/>
       <use xlink:href="#HelveticaNeue-30" transform="translate(55.599991 0)"/>
      </g>
     </g>
    </g>
   </g>
   <g id="FillBetweenPolyCollection_5">
    <defs>
     <path id="m14d568d7bd" d="M 744.156059 -57.455933 
L 744.156059 -57.455933 
L 837.439697 -57.455933 
L 902.642163 -61.305877 
L 995.925801 -239.492431 
L 1024.006974 -233.513992 
L 1024.006974 -272.992194 
L 1024.006974 -272.992194 
L 995.925801 -276.728242 
L 902.642163 -120.937433 
L 837.439697 -57.455933 
L 744.156059 -57.455933 
z
" style="stroke: #059669; stroke-opacity: 0.15"/>
    </defs>
    <g clip-path="url(#p26205ba50c)">
     <use xlink:href="#m14d568d7bd" x="0" y="322.87176" style="fill: #059669; fill-opacity: 0.15; stroke: #059669; stroke-opacity: 0.15"/>
    </g>
   </g>
   <g id="FillBetweenPolyCollection_6">
    <defs>
     <path id="maf40bef967" d="M 744.156059 -57.455933 
L 744.156059 -57.455933 
L 837.439697 -57.455933 
L 902.642163 -49.346434 
L 995.925801 -145.611417 
L 1024.006974 -234.799665 
L 1024.006974 -272.041503 
L 1024.006974 -272.041503 
L 995.925801 -275.809263 
L 902.642163 -185.824081 
L 837.439697 -57.455933 
L 744.156059 -57.455933 
z
" style="stroke: #d97706; stroke-opacity: 0.15"/>
    </defs>
    <g clip-path="url(#p26205ba50c)">
     <use xlink:href="#maf40bef967" x="0" y="322.87176" style="fill: #d97706; fill-opacity: 0.15; stroke: #d97706; stroke-opacity: 0.15"/>
    </g>
   </g>
   <g id="line2d_60">
    <path d="M 730.163513 59.736689 
L 1037.99952 59.736689 
" clip-path="url(#p26205ba50c)" style="fill: none; stroke-dasharray: 5.55,2.4; stroke-dashoffset: 0; stroke: #2563eb; stroke-opacity: 0.7; stroke-width: 1.5"/>
   </g>
   <g id="patch_9">
    <path d="M 730.163513 284.894416 
L 730.163513 34.774427 
" style="fill: none; stroke: #495057; stroke-linejoin: miter; stroke-linecap: square"/>
   </g>
   <g id="patch_10">
    <path d="M 730.163513 284.894416 
L 1037.99952 284.894416 
" style="fill: none; stroke: #495057; stroke-linejoin: miter; stroke-linecap: square"/>
   </g>
   <g id="line2d_61">
    <path d="M 744.156059 265.415827 
L 837.439697 265.415827 
L 902.642163 231.750105 
L 995.925801 64.761424 
L 1024.006974 69.618667 
" clip-path="url(#p26205ba50c)" style="fill: none; stroke: #059669; stroke-width: 2; stroke-linecap: square"/>
    <g clip-path="url(#p26205ba50c)">
     <use xlink:href="#m64de0465dc" x="744.156059" y="265.415827" style="fill: #059669; stroke: #ffffff; stroke-width: 1.2"/>
     <use xlink:href="#m64de0465dc" x="837.439697" y="265.415827" style="fill: #059669; stroke: #ffffff; stroke-width: 1.2"/>
     <use xlink:href="#m64de0465dc" x="902.642163" y="231.750105" style="fill: #059669; stroke: #ffffff; stroke-width: 1.2"/>
     <use xlink:href="#m64de0465dc" x="995.925801" y="64.761424" style="fill: #059669; stroke: #ffffff; stroke-width: 1.2"/>
     <use xlink:href="#m64de0465dc" x="1024.006974" y="69.618667" style="fill: #059669; stroke: #ffffff; stroke-width: 1.2"/>
    </g>
   </g>
   <g id="line2d_62">
    <path d="M 744.156059 265.415827 
L 837.439697 265.415827 
L 902.642163 205.286502 
L 995.925801 112.16142 
L 1024.006974 69.451176 
" clip-path="url(#p26205ba50c)" style="fill: none; stroke: #d97706; stroke-width: 2; stroke-linecap: square"/>
    <g clip-path="url(#p26205ba50c)">
     <use xlink:href="#m58e84f8efb" x="744.156059" y="265.415827" style="fill: #d97706; stroke: #ffffff; stroke-width: 1.2"/>
     <use xlink:href="#m58e84f8efb" x="837.439697" y="265.415827" style="fill: #d97706; stroke: #ffffff; stroke-width: 1.2"/>
     <use xlink:href="#m58e84f8efb" x="902.642163" y="205.286502" style="fill: #d97706; stroke: #ffffff; stroke-width: 1.2"/>
     <use xlink:href="#m58e84f8efb" x="995.925801" y="112.16142" style="fill: #d97706; stroke: #ffffff; stroke-width: 1.2"/>
     <use xlink:href="#m58e84f8efb" x="1024.006974" y="69.451176" style="fill: #d97706; stroke: #ffffff; stroke-width: 1.2"/>
    </g>
   </g>
   <g id="text_41">
    <!-- Pong -->
    <g style="fill: #212529" transform="translate(868.793314 28.774427) scale(0.13 -0.13)">
     <defs>
      <path id="HelveticaNeue-50" d="M 1107 2381 
L 1107 4058 
L 2298 4058 
Q 2816 4058 3056 3843 
Q 3296 3629 3296 3219 
Q 3296 2810 3056 2592 
Q 2816 2374 2298 2381 
L 1107 2381 
z
M 499 4570 
L 499 0 
L 1107 0 
L 1107 1869 
L 2502 1869 
Q 3194 1862 3549 2220 
Q 3904 2579 3904 3219 
Q 3904 3859 3549 4214 
Q 3194 4570 2502 4570 
L 499 4570 
z
" transform="scale(0.015625)"/>
     </defs>
     <use xlink:href="#HelveticaNeue-50"/>
     <use xlink:href="#HelveticaNeue-6f" transform="translate(64.799988 0)"/>
     <use xlink:href="#HelveticaNeue-6e" transform="translate(122.199982 0)"/>
     <use xlink:href="#HelveticaNeue-67" transform="translate(177.799973 0)"/>
    </g>
   </g>
   <g id="legend_1">
    <g id="patch_11">
     <path d="M 959.59827 280.394416 
L 1033.49952 280.394416 
L 1033.49952 239.504885 
L 959.59827 239.504885 
z
" style="fill: #ffffff; opacity: 0.95; stroke: #dee2e6; stroke-linejoin: miter"/>
    </g>
    <g id="line2d_63">
     <path d="M 963.19827 246.381448 
L 972.19827 246.381448 
L 981.19827 246.381448 
" style="fill: none; stroke-dasharray: 5.55,2.4; stroke-dashoffset: 0; stroke: #2563eb; stroke-opacity: 0.7; stroke-width: 1.5"/>
    </g>
    <g id="text_42">
     <!-- Expert -->
     <g transform="translate(988.39827 249.531448) scale(0.09 -0.09)">
      <defs>
       <path id="HelveticaNeue-78" d="M 1299 1741 
L 58 0 
L 717 0 
L 1638 1370 
L 2560 0 
L 3258 0 
L 1978 1786 
L 3117 3309 
L 2464 3309 
L 1638 2150 
L 845 3309 
L 147 3309 
L 1299 1741 
z
" transform="scale(0.015625)"/>
      </defs>
      <use xlink:href="#HelveticaNeue-45"/>
      <use xlink:href="#HelveticaNeue-78" transform="translate(61.099991 0)"/>
      <use xlink:href="#HelveticaNeue-70" transform="translate(112.899979 0)"/>
      <use xlink:href="#HelveticaNeue-65" transform="translate(172.199966 0)"/>
      <use xlink:href="#HelveticaNeue-72" transform="translate(225.899963 0)"/>
      <use xlink:href="#HelveticaNeue-74" transform="translate(259.199951 0)"/>
     </g>
    </g>
    <g id="line2d_64">
     <path d="M 963.19827 259.081291 
L 972.19827 259.081291 
L 981.19827 259.081291 
" style="fill: none; stroke: #059669; stroke-width: 2; stroke-linecap: square"/>
     <g>
      <use xlink:href="#m64de0465dc" x="972.19827" y="259.081291" style="fill: #059669; stroke: #ffffff; stroke-width: 1.2"/>
     </g>
    </g>
    <g id="text_43">
     <!-- Hybrid -->
     <g transform="translate(988.39827 262.231291) scale(0.09 -0.09)">
      <defs>
       <path id="HelveticaNeue-48" d="M 499 4570 
L 499 0 
L 1107 0 
L 1107 2093 
L 3514 2093 
L 3514 0 
L 4122 0 
L 4122 4570 
L 3514 4570 
L 3514 2605 
L 1107 2605 
L 1107 4570 
L 499 4570 
z
" transform="scale(0.015625)"/>
       <path id="HelveticaNeue-79" d="M 1709 -442 
Q 1613 -685 1520 -851 
Q 1427 -1018 1315 -1123 
Q 1203 -1229 1065 -1277 
Q 928 -1325 749 -1325 
Q 653 -1325 557 -1312 
Q 461 -1299 371 -1267 
L 371 -768 
Q 442 -800 534 -822 
Q 627 -845 691 -845 
Q 858 -845 970 -765 
Q 1082 -685 1139 -538 
L 1363 19 
L 51 3309 
L 666 3309 
L 1632 602 
L 1645 602 
L 2573 3309 
L 3149 3309 
L 1709 -442 
z
" transform="scale(0.015625)"/>
       <path id="HelveticaNeue-62" d="M 429 4570 
L 429 0 
L 973 0 
L 973 442 
L 986 442 
Q 1075 294 1206 195 
Q 1338 96 1485 38 
Q 1632 -19 1782 -44 
Q 1933 -70 2054 -70 
Q 2432 -70 2717 64 
Q 3002 198 3190 432 
Q 3379 666 3472 979 
Q 3565 1293 3565 1645 
Q 3565 1997 3469 2310 
Q 3373 2624 3184 2864 
Q 2995 3104 2710 3245 
Q 2426 3386 2042 3386 
Q 1696 3386 1408 3261 
Q 1120 3136 986 2861 
L 973 2861 
L 973 4570 
L 429 4570 
z
M 2989 1683 
Q 2989 1440 2937 1209 
Q 2886 979 2771 800 
Q 2656 621 2467 512 
Q 2278 403 1997 403 
Q 1715 403 1516 508 
Q 1318 614 1193 787 
Q 1069 960 1011 1187 
Q 954 1414 954 1658 
Q 954 1888 1008 2112 
Q 1062 2336 1184 2512 
Q 1306 2688 1498 2797 
Q 1690 2906 1965 2906 
Q 2227 2906 2422 2803 
Q 2618 2701 2742 2528 
Q 2867 2355 2928 2134 
Q 2989 1914 2989 1683 
z
" transform="scale(0.015625)"/>
      </defs>
      <use xlink:href="#HelveticaNeue-48"/>
      <use xlink:href="#HelveticaNeue-79" transform="translate(72.199982 0)"/>
      <use xlink:href="#HelveticaNeue-62" transform="translate(122.199966 0)"/>
      <use xlink:href="#HelveticaNeue-72" transform="translate(181.499954 0)"/>
      <use xlink:href="#HelveticaNeue-69" transform="translate(214.799942 0)"/>
      <use xlink:href="#HelveticaNeue-64" transform="translate(236.999939 0)"/>
     </g>
    </g>
    <g id="line2d_65">
     <path d="M 963.19827 271.871135 
L 972.19827 271.871135 
L 981.19827 271.871135 
" style="fill: none; stroke: #d97706; stroke-width: 2; stroke-linecap: square"/>
     <g>
      <use xlink:href="#m58e84f8efb" x="972.19827" y="271.871135" style="fill: #d97706; stroke: #ffffff; stroke-width: 1.2"/>
     </g>
    </g>
    <g id="text_44">
     <!-- Distillation -->
     <g transform="translate(988.39827 275.021135) scale(0.09 -0.09)">
      <defs>
       <path id="HelveticaNeue-44" d="M 1107 512 
L 1107 4058 
L 2131 4058 
Q 2554 4058 2842 3939 
Q 3130 3821 3312 3593 
Q 3494 3366 3574 3043 
Q 3654 2720 3654 2310 
Q 3654 1888 3568 1590 
Q 3482 1293 3347 1094 
Q 3213 896 3043 781 
Q 2874 666 2701 605 
Q 2528 544 2374 528 
Q 2221 512 2118 512 
L 1107 512 
z
M 499 4570 
L 499 0 
L 2067 0 
Q 2637 0 3053 160 
Q 3469 320 3737 624 
Q 4006 928 4134 1373 
Q 4262 1818 4262 2394 
Q 4262 3494 3692 4032 
Q 3123 4570 2067 4570 
L 499 4570 
z
" transform="scale(0.015625)"/>
       <path id="HelveticaNeue-6c" d="M 442 4570 
L 442 0 
L 986 0 
L 986 4570 
L 442 4570 
z
" transform="scale(0.015625)"/>
      </defs>
      <use xlink:href="#HelveticaNeue-44"/>
      <use xlink:href="#HelveticaNeue-69" transform="translate(70.399994 0)"/>
      <use xlink:href="#HelveticaNeue-73" transform="translate(92.599991 0)"/>
      <use xlink:href="#HelveticaNeue-74" transform="translate(142.599976 0)"/>
      <use xlink:href="#HelveticaNeue-69" transform="translate(174.09996 0)"/>
      <use xlink:href="#HelveticaNeue-6c" transform="translate(196.299957 0)"/>
      <use xlink:href="#HelveticaNeue-6c" transform="translate(218.499954 0)"/>
      <use xlink:href="#HelveticaNeue-61" transform="translate(240.699951 0)"/>
      <use xlink:href="#HelveticaNeue-74" transform="translate(294.399948 0)"/>
      <use xlink:href="#HelveticaNeue-69" transform="translate(325.899933 0)"/>
      <use xlink:href="#HelveticaNeue-6f" transform="translate(348.09993 0)"/>
      <use xlink:href="#HelveticaNeue-6e" transform="translate(405.499924 0)"/>
     </g>
    </g>
   </g>
  </g>
  <g id="text_45">
   <!-- Sample Efficiency: Reward vs Training Episodes -->
   <g style="fill: #212529" transform="translate(321.050151 18.597656) scale(0.15 -0.15)">
    <defs>
     <path id="DejaVuSerif-Bold-53" d="M 494 225 
L 494 1331 
L 891 1331 
Q 981 806 1318 547 
Q 1656 288 2253 288 
Q 2738 288 2991 472 
Q 3244 656 3244 1013 
Q 3244 1294 3072 1450 
Q 2900 1606 2363 1741 
L 1663 1913 
Q 978 2088 700 2398 
Q 422 2709 422 3284 
Q 422 3978 883 4364 
Q 1344 4750 2175 4750 
Q 2584 4750 3026 4681 
Q 3469 4613 3944 4475 
L 3944 3444 
L 3547 3444 
Q 3456 3925 3150 4148 
Q 2844 4372 2278 4372 
Q 1816 4372 1580 4211 
Q 1344 4050 1344 3731 
Q 1344 3441 1506 3289 
Q 1669 3138 2303 2975 
L 3003 2803 
Q 3653 2641 3945 2297 
Q 4238 1953 4238 1350 
Q 4238 644 3750 276 
Q 3263 -91 2316 -91 
Q 1859 -91 1409 -12 
Q 959 66 494 225 
z
" transform="scale(0.015625)"/>
     <path id="DejaVuSerif-Bold-61" d="M 3525 2041 
L 3525 378 
L 4000 378 
L 4000 0 
L 2419 0 
L 2419 422 
Q 2200 159 1931 34 
Q 1663 -91 1319 -91 
Q 809 -91 536 182 
Q 263 456 263 966 
Q 263 1525 655 1803 
Q 1047 2081 1838 2081 
L 2419 2081 
L 2419 2278 
Q 2419 2681 2228 2873 
Q 2038 3066 1638 3066 
Q 1306 3066 1126 2930 
Q 947 2794 872 2484 
L 519 2484 
L 519 3200 
Q 816 3306 1134 3359 
Q 1453 3413 1806 3413 
Q 2697 3413 3111 3081 
Q 3525 2750 3525 2041 
z
M 2419 1044 
L 2419 1709 
L 2003 1709 
Q 1694 1709 1528 1540 
Q 1363 1372 1363 1056 
Q 1363 741 1483 584 
Q 1603 428 1850 428 
Q 2106 428 2262 597 
Q 2419 766 2419 1044 
z
" transform="scale(0.015625)"/>
     <path id="DejaVuSerif-Bold-6d" d="M 3884 2778 
Q 4116 3109 4384 3261 
Q 4653 3413 5013 3413 
Q 5584 3413 5867 3089 
Q 6150 2766 6150 2113 
L 6150 378 
L 6625 378 
L 6625 0 
L 4647 0 
L 4647 378 
L 5044 378 
L 5044 1947 
Q 5044 2569 4948 2731 
Q 4853 2894 4594 2894 
Q 4300 2894 4137 2667 
Q 3975 2441 3975 2022 
L 3975 378 
L 4372 378 
L 4372 0 
L 2472 0 
L 2472 378 
L 2869 378 
L 2869 1947 
Q 2869 2569 2772 2731 
Q 2675 2894 2419 2894 
Q 2122 2894 1959 2667 
Q 1797 2441 1797 2022 
L 1797 378 
L 2194 378 
L 2194 0 
L 219 0 
L 219 378 
L 691 378 
L 691 2944 
L 219 2944 
L 219 3322 
L 1797 3322 
L 1797 2853 
Q 1991 3144 2241 3278 
Q 2491 3413 2834 3413 
Q 3241 3413 3494 3258 
Q 3747 3103 3884 2778 
z
" transform="scale(0.015625)"/>
     <path id="DejaVuSerif-Bold-70" d="M 1728 1825 
L 1728 1497 
Q 1728 916 1876 656 
Q 2025 397 2356 397 
Q 2697 397 2836 672 
Q 2975 947 2975 1663 
Q 2975 2378 2836 2651 
Q 2697 2925 2356 2925 
Q 2025 2925 1876 2665 
Q 1728 2406 1728 1825 
z
M 622 2944 
L 147 2944 
L 147 3322 
L 1728 3322 
L 1728 2900 
Q 1869 3159 2106 3286 
Q 2344 3413 2694 3413 
Q 3403 3413 3811 2945 
Q 4219 2478 4219 1663 
Q 4219 847 3811 378 
Q 3403 -91 2694 -91 
Q 2344 -91 2106 36 
Q 1869 163 1728 422 
L 1728 -953 
L 2241 -953 
L 2241 -1331 
L 147 -1331 
L 147 -953 
L 622 -953 
L 622 2944 
z
" transform="scale(0.015625)"/>
     <path id="DejaVuSerif-Bold-6c" d="M 1797 378 
L 2272 378 
L 2272 0 
L 219 0 
L 219 378 
L 691 378 
L 691 4488 
L 219 4488 
L 219 4863 
L 1797 4863 
L 1797 378 
z
" transform="scale(0.015625)"/>
     <path id="DejaVuSerif-Bold-65" d="M 2566 1875 
Q 2566 2531 2444 2795 
Q 2322 3059 2028 3059 
Q 1744 3059 1620 2800 
Q 1497 2541 1497 1931 
L 1497 1875 
L 2566 1875 
z
M 3781 1503 
L 1497 1503 
L 1497 1478 
Q 1497 834 1690 548 
Q 1884 263 2316 263 
Q 2675 263 2897 453 
Q 3119 644 3181 1006 
L 3700 1006 
Q 3566 441 3166 175 
Q 2766 -91 2047 -91 
Q 1184 -91 723 364 
Q 263 819 263 1663 
Q 263 2488 734 2950 
Q 1206 3413 2047 3413 
Q 2872 3413 3312 2927 
Q 3753 2441 3781 1503 
z
" transform="scale(0.015625)"/>
     <path id="DejaVuSerif-Bold-20" transform="scale(0.015625)"/>
     <path id="DejaVuSerif-Bold-45" d="M 300 0 
L 300 378 
L 897 378 
L 897 4288 
L 300 4288 
L 300 4666 
L 4494 4666 
L 4494 3566 
L 4063 3566 
L 4063 4238 
L 2100 4238 
L 2100 2741 
L 3322 2741 
L 3322 3334 
L 3750 3334 
L 3750 1722 
L 3322 1722 
L 3322 2316 
L 2100 2316 
L 2100 428 
L 4122 428 
L 4122 1100 
L 4550 1100 
L 4550 0 
L 300 0 
z
" transform="scale(0.015625)"/>
     <path id="DejaVuSerif-Bold-66" d="M 3097 4031 
L 2747 4031 
Q 2722 4275 2605 4394 
Q 2488 4513 2272 4513 
Q 2022 4513 1909 4333 
Q 1797 4153 1797 3750 
L 1797 3322 
L 2631 3322 
L 2631 2944 
L 1797 2944 
L 1797 378 
L 2438 378 
L 2438 0 
L 219 0 
L 219 378 
L 691 378 
L 691 2944 
L 197 2944 
L 197 3322 
L 691 3322 
L 691 3738 
Q 691 4291 1044 4577 
Q 1397 4863 2081 4863 
Q 2347 4863 2600 4833 
Q 2853 4803 3097 4744 
L 3097 4031 
z
" transform="scale(0.015625)"/>
     <path id="DejaVuSerif-Bold-69" d="M 588 4263 
Q 588 4516 763 4689 
Q 938 4863 1191 4863 
Q 1438 4863 1611 4689 
Q 1784 4516 1784 4263 
Q 1784 4016 1611 3842 
Q 1438 3669 1191 3669 
Q 938 3669 763 3841 
Q 588 4013 588 4263 
z
M 1797 378 
L 2272 378 
L 2272 0 
L 219 0 
L 219 378 
L 691 378 
L 691 2944 
L 219 2944 
L 219 3322 
L 1797 3322 
L 1797 378 
z
" transform="scale(0.015625)"/>
     <path id="DejaVuSerif-Bold-63" d="M 3609 1038 
Q 3491 469 3123 189 
Q 2756 -91 2125 -91 
Q 1238 -91 750 368 
Q 263 828 263 1663 
Q 263 2488 744 2950 
Q 1225 3413 2081 3413 
Q 2428 3413 2781 3347 
Q 3134 3281 3500 3150 
L 3500 2228 
L 3150 2228 
Q 3100 2650 2903 2854 
Q 2706 3059 2350 3059 
Q 1888 3059 1692 2746 
Q 1497 2434 1497 1663 
Q 1497 909 1687 586 
Q 1878 263 2309 263 
Q 2644 263 2845 463 
Q 3047 663 3091 1038 
L 3609 1038 
z
" transform="scale(0.015625)"/>
     <path id="DejaVuSerif-Bold-6e" d="M 219 0 
L 219 378 
L 691 378 
L 691 2944 
L 219 2944 
L 219 3322 
L 1797 3322 
L 1797 2853 
Q 1997 3150 2253 3281 
Q 2509 3413 2900 3413 
Q 3459 3413 3745 3083 
Q 4031 2753 4031 2113 
L 4031 378 
L 4506 378 
L 4506 0 
L 2522 0 
L 2522 378 
L 2925 378 
L 2925 2144 
Q 2925 2566 2817 2730 
Q 2709 2894 2444 2894 
Q 2109 2894 1953 2648 
Q 1797 2403 1797 1869 
L 1797 378 
L 2203 378 
L 2203 0 
L 219 0 
z
" transform="scale(0.015625)"/>
     <path id="DejaVuSerif-Bold-79" d="M 1997 -750 
Q 1847 -1116 1634 -1269 
Q 1422 -1422 1063 -1422 
Q 909 -1422 721 -1387 
Q 534 -1353 313 -1288 
L 313 -594 
L 666 -597 
Q 675 -838 779 -953 
Q 884 -1069 1094 -1069 
Q 1297 -1069 1422 -958 
Q 1547 -847 1672 -538 
L 1722 -422 
L 275 2944 
L -84 2944 
L -84 3322 
L 1831 3322 
L 1831 2944 
L 1434 2944 
L 2278 978 
L 3066 2944 
L 2625 2944 
L 2625 3322 
L 3872 3322 
L 3872 2944 
L 3469 2944 
L 1997 -750 
z
" transform="scale(0.015625)"/>
     <path id="DejaVuSerif-Bold-3a" d="M 588 2541 
Q 588 2788 761 2963 
Q 934 3138 1178 3138 
Q 1422 3138 1597 2961 
Q 1772 2784 1772 2541 
Q 1772 2297 1598 2125 
Q 1425 1953 1178 1953 
Q 931 1953 759 2125 
Q 588 2297 588 2541 
z
M 588 506 
Q 588 750 761 925 
Q 934 1100 1178 1100 
Q 1422 1100 1597 925 
Q 1772 750 1772 506 
Q 1772 259 1597 84 
Q 1422 -91 1178 -91 
Q 934 -91 761 84 
Q 588 259 588 506 
z
" transform="scale(0.015625)"/>
     <path id="DejaVuSerif-Bold-52" d="M 3397 2278 
Q 3675 2238 3865 2094 
Q 4056 1950 4197 1678 
L 4878 378 
L 5356 378 
L 5356 0 
L 3822 0 
L 3078 1409 
Q 2863 1847 2711 1967 
Q 2559 2088 2291 2088 
L 2100 2088 
L 2100 378 
L 2700 378 
L 2700 0 
L 300 0 
L 300 378 
L 897 378 
L 897 4288 
L 300 4288 
L 300 4666 
L 2963 4666 
Q 3775 4666 4217 4339 
Q 4659 4013 4659 3413 
Q 4659 2925 4345 2642 
Q 4031 2359 3397 2278 
z
M 2100 2463 
L 2509 2463 
Q 2947 2463 3183 2700 
Q 3419 2938 3419 3378 
Q 3419 3819 3183 4053 
Q 2947 4288 2509 4288 
L 2100 4288 
L 2100 2463 
z
" transform="scale(0.015625)"/>
     <path id="DejaVuSerif-Bold-77" d="M 3450 3322 
L 4206 1106 
L 4831 2944 
L 4397 2944 
L 4397 3322 
L 5638 3322 
L 5638 2944 
L 5247 2944 
L 4244 0 
L 3481 0 
L 2778 2081 
L 2069 0 
L 1313 0 
L 306 2944 
L -56 2944 
L -56 3322 
L 1825 3322 
L 1825 2944 
L 1434 2944 
L 2047 1147 
L 2791 3322 
L 3450 3322 
z
" transform="scale(0.015625)"/>
     <path id="DejaVuSerif-Bold-72" d="M 3438 3359 
L 3438 2369 
L 3084 2369 
Q 3066 2634 2941 2764 
Q 2816 2894 2578 2894 
Q 2216 2894 2006 2575 
Q 1797 2256 1797 1691 
L 1797 378 
L 2400 378 
L 2400 0 
L 219 0 
L 219 378 
L 691 378 
L 691 2944 
L 184 2944 
L 184 3322 
L 1797 3322 
L 1797 2731 
Q 1959 3078 2226 3245 
Q 2494 3413 2881 3413 
Q 2978 3413 3117 3398 
Q 3256 3384 3438 3359 
z
" transform="scale(0.015625)"/>
     <path id="DejaVuSerif-Bold-64" d="M 2747 1497 
L 2747 1825 
Q 2747 2406 2597 2665 
Q 2447 2925 2119 2925 
Q 1775 2925 1636 2651 
Q 1497 2378 1497 1663 
Q 1497 947 1637 672 
Q 1778 397 2119 397 
Q 2447 397 2597 656 
Q 2747 916 2747 1497 
z
M 3853 378 
L 4325 378 
L 4325 0 
L 2747 0 
L 2747 422 
Q 2606 163 2367 36 
Q 2128 -91 1778 -91 
Q 1072 -91 667 378 
Q 263 847 263 1663 
Q 263 2481 667 2947 
Q 1072 3413 1778 3413 
Q 2128 3413 2367 3286 
Q 2606 3159 2747 2900 
L 2747 4488 
L 2272 4488 
L 2272 4863 
L 3853 4863 
L 3853 378 
z
" transform="scale(0.015625)"/>
     <path id="DejaVuSerif-Bold-76" d="M 1428 0 
L 250 2944 
L -116 2944 
L -116 3322 
L 1791 3322 
L 1791 2944 
L 1388 2944 
L 2228 844 
L 3066 2944 
L 2631 2944 
L 2631 3322 
L 3878 3322 
L 3878 2944 
L 3494 2944 
L 2316 0 
L 1428 0 
z
" transform="scale(0.015625)"/>
     <path id="DejaVuSerif-Bold-73" d="M 300 97 
L 300 1025 
L 653 1025 
Q 697 653 931 458 
Q 1166 263 1569 263 
Q 1906 263 2086 380 
Q 2266 497 2266 716 
Q 2266 916 2152 1025 
Q 2038 1134 1709 1216 
L 1253 1331 
Q 738 1459 506 1698 
Q 275 1938 275 2344 
Q 275 2884 650 3148 
Q 1025 3413 1806 3413 
Q 2100 3413 2433 3364 
Q 2766 3316 3169 3213 
L 3169 2375 
L 2816 2375 
Q 2788 2716 2573 2887 
Q 2359 3059 1959 3059 
Q 1622 3059 1448 2951 
Q 1275 2844 1275 2638 
Q 1275 2469 1375 2372 
Q 1475 2275 1734 2209 
L 2188 2094 
Q 2841 1928 3091 1684 
Q 3341 1441 3341 1006 
Q 3341 444 2939 176 
Q 2538 -91 1691 -91 
Q 1381 -91 1034 -44 
Q 688 3 300 97 
z
" transform="scale(0.015625)"/>
     <path id="DejaVuSerif-Bold-54" d="M 1159 0 
L 1159 378 
L 1778 378 
L 1778 4238 
L 500 4238 
L 500 3500 
L 72 3500 
L 72 4666 
L 4697 4666 
L 4697 3500 
L 4275 3500 
L 4275 4238 
L 2988 4238 
L 2988 378 
L 3609 378 
L 3609 0 
L 1159 0 
z
" transform="scale(0.015625)"/>
     <path id="DejaVuSerif-Bold-67" d="M 3853 2944 
L 3853 44 
Q 3853 -656 3354 -1039 
Q 2856 -1422 1947 -1422 
Q 1616 -1422 1275 -1370 
Q 934 -1319 575 -1216 
L 575 -422 
L 928 -422 
Q 975 -750 1192 -909 
Q 1409 -1069 1813 -1069 
Q 2325 -1069 2536 -823 
Q 2747 -578 2747 44 
L 2747 422 
Q 2606 163 2367 36 
Q 2128 -91 1778 -91 
Q 1072 -91 667 378 
Q 263 847 263 1663 
Q 263 2481 667 2947 
Q 1072 3413 1778 3413 
Q 2128 3413 2367 3286 
Q 2606 3159 2747 2900 
L 2747 3322 
L 4325 3322 
L 4325 2944 
L 3853 2944 
z
M 2747 1825 
Q 2747 2406 2597 2665 
Q 2447 2925 2119 2925 
Q 1775 2925 1636 2651 
Q 1497 2378 1497 1663 
Q 1497 947 1637 672 
Q 1778 397 2119 397 
Q 2447 397 2597 656 
Q 2747 916 2747 1497 
L 2747 1825 
z
" transform="scale(0.015625)"/>
     <path id="DejaVuSerif-Bold-6f" d="M 2138 263 
Q 2488 263 2630 563 
Q 2772 863 2772 1663 
Q 2772 2463 2631 2761 
Q 2491 3059 2138 3059 
Q 1784 3059 1640 2757 
Q 1497 2456 1497 1663 
Q 1497 869 1640 566 
Q 1784 263 2138 263 
z
M 2138 -91 
Q 1259 -91 761 376 
Q 263 844 263 1663 
Q 263 2484 761 2948 
Q 1259 3413 2138 3413 
Q 3019 3413 3516 2948 
Q 4013 2484 4013 1663 
Q 4013 844 3514 376 
Q 3016 -91 2138 -91 
z
" transform="scale(0.015625)"/>
    </defs>
    <use xlink:href="#DejaVuSerif-Bold-53"/>
    <use xlink:href="#DejaVuSerif-Bold-61" transform="translate(72.216797 0)"/>
    <use xlink:href="#DejaVuSerif-Bold-6d" transform="translate(137.011719 0)"/>
    <use xlink:href="#DejaVuSerif-Bold-70" transform="translate(242.822266 0)"/>
    <use xlink:href="#DejaVuSerif-Bold-6c" transform="translate(312.744141 0)"/>
    <use xlink:href="#DejaVuSerif-Bold-65" transform="translate(350.732422 0)"/>
    <use xlink:href="#DejaVuSerif-Bold-20" transform="translate(414.355469 0)"/>
    <use xlink:href="#DejaVuSerif-Bold-45" transform="translate(449.169922 0)"/>
    <use xlink:href="#DejaVuSerif-Bold-66" transform="translate(525.390625 0)"/>
    <use xlink:href="#DejaVuSerif-Bold-66" transform="translate(568.408203 0)"/>
    <use xlink:href="#DejaVuSerif-Bold-69" transform="translate(611.425781 0)"/>
    <use xlink:href="#DejaVuSerif-Bold-63" transform="translate(649.414062 0)"/>
    <use xlink:href="#DejaVuSerif-Bold-69" transform="translate(710.302734 0)"/>
    <use xlink:href="#DejaVuSerif-Bold-65" transform="translate(748.291016 0)"/>
    <use xlink:href="#DejaVuSerif-Bold-6e" transform="translate(811.914062 0)"/>
    <use xlink:href="#DejaVuSerif-Bold-63" transform="translate(884.619141 0)"/>
    <use xlink:href="#DejaVuSerif-Bold-79" transform="translate(945.507812 0)"/>
    <use xlink:href="#DejaVuSerif-Bold-3a" transform="translate(1003.613281 0)"/>
    <use xlink:href="#DejaVuSerif-Bold-20" transform="translate(1040.527344 0)"/>
    <use xlink:href="#DejaVuSerif-Bold-52" transform="translate(1075.341797 0)"/>
    <use xlink:href="#DejaVuSerif-Bold-65" transform="translate(1158.447266 0)"/>
    <use xlink:href="#DejaVuSerif-Bold-77" transform="translate(1222.070312 0)"/>
    <use xlink:href="#DejaVuSerif-Bold-61" transform="translate(1308.154297 0)"/>
    <use xlink:href="#DejaVuSerif-Bold-72" transform="translate(1372.949219 0)"/>
    <use xlink:href="#DejaVuSerif-Bold-64" transform="translate(1425.634766 0)"/>
    <use xlink:href="#DejaVuSerif-Bold-20" transform="translate(1495.556641 0)"/>
    <use xlink:href="#DejaVuSerif-Bold-76" transform="translate(1530.371094 0)"/>
    <use xlink:href="#DejaVuSerif-Bold-73" transform="translate(1588.476562 0)"/>
    <use xlink:href="#DejaVuSerif-Bold-20" transform="translate(1644.775391 0)"/>
    <use xlink:href="#DejaVuSerif-Bold-54" transform="translate(1679.589844 0)"/>
    <use xlink:href="#DejaVuSerif-Bold-72" transform="translate(1746.753906 0)"/>
    <use xlink:href="#DejaVuSerif-Bold-61" transform="translate(1799.439453 0)"/>
    <use xlink:href="#DejaVuSerif-Bold-69" transform="translate(1864.234375 0)"/>
    <use xlink:href="#DejaVuSerif-Bold-6e" transform="translate(1902.222656 0)"/>
    <use xlink:href="#DejaVuSerif-Bold-69" transform="translate(1974.927734 0)"/>
    <use xlink:href="#DejaVuSerif-Bold-6e" transform="translate(2012.916016 0)"/>
    <use xlink:href="#DejaVuSerif-Bold-67" transform="translate(2085.621094 0)"/>
    <use xlink:href="#DejaVuSerif-Bold-20" transform="translate(2155.542969 0)"/>
    <use xlink:href="#DejaVuSerif-Bold-45" transform="translate(2190.357422 0)"/>
    <use xlink:href="#DejaVuSerif-Bold-70" transform="translate(2266.578125 0)"/>
    <use xlink:href="#DejaVuSerif-Bold-69" transform="translate(2336.5 0)"/>
    <use xlink:href="#DejaVuSerif-Bold-73" transform="translate(2374.488281 0)"/>
    <use xlink:href="#DejaVuSerif-Bold-6f" transform="translate(2430.787109 0)"/>
    <use xlink:href="#DejaVuSerif-Bold-64" transform="translate(2497.486328 0)"/>
    <use xlink:href="#DejaVuSerif-Bold-65" transform="translate(2567.408203 0)"/>
    <use xlink:href="#DejaVuSerif-Bold-73" transform="translate(2631.03125 0)"/>
   </g>
  </g>
 </g>
 <defs>
  <clipPath id="p7906a19883">
   <rect x="46.31125" y="34.774427" width="307.836007" height="250.119989"/>
  </clipPath>
  <clipPath id="p8eb115fb2d">
   <rect x="390.796757" y="34.774427" width="307.836007" height="250.119989"/>
  </clipPath>
  <clipPath id="p26205ba50c">
   <rect x="730.163513" y="34.774427" width="307.836007" height="250.119989"/>
  </clipPath>
 </defs>
</svg>
