<?xml version="1.0" encoding="utf-8" standalone="no"?>
<!DOCTYPE svg PUBLIC "-//W3C//DTD SVG 1.1//EN"
  "http://www.w3.org/Graphics/SVG/1.1/DTD/svg11.dtd">
<svg xmlns:xlink="http://www.w3.org/1999/xlink" width="622.100625pt" height="338.395313pt" viewBox="0 0 622.100625 338.395313" xmlns="http://www.w3.org/2000/svg" version="1.1">
 <metadata>
  <rdf:RDF xmlns:dc="http://purl.org/dc/elements/1.1/" xmlns:cc="http://creativecommons.org/ns#" xmlns:rdf="http://www.w3.org/1999/02/22-rdf-syntax-ns#">
   <cc:Work>
    <dc:type rdf:resource="http://purl.org/dc/dcmitype/StillImage"/>
    <dc:date>2026-02-23T01:52:40.387140</dc:date>
    <dc:format>image/svg+xml</dc:format>
    <dc:creator>
     <cc:Agent>
      <dc:title>Matplotlib v3.10.8, https://matplotlib.org/</dc:title>
     </cc:Agent>
    </dc:creator>
   </cc:Work>
  </rdf:RDF>
 </metadata>
 <defs>
  <style type="text/css">*{stroke-linejoin: round; stroke-linecap: butt}</style>
 </defs>
 <g id="figure_1">
  <g id="patch_1">
   <path d="M 0 338.395313 
L 622.100625 338.395313 
L 622.100625 0 
L 0 0 
z
" style="fill: #ffffff"/>
  </g>
  <g id="axes_1">
   <g id="patch_2">
    <path d="M 56.900625 299.889375 
L 614.900625 299.889375 
L 614.900625 22.689375 
L 56.900625 22.689375 
z
" style="fill: #fafaf8"/>
   </g>
   <g id="matplotlib.axis_1">
    <g id="xtick_1">
     <g id="line2d_1">
      <path d="M 82.264261 299.889375 
L 82.264261 22.689375 
" clip-path="url(#p54146470ff)" style="fill: none; stroke-dasharray: 1.85,0.8; stroke-dashoffset: 0; stroke: #e0deda; stroke-opacity: 0.8; stroke-width: 0.5"/>
     </g>
     <g id="line2d_2">
      <defs>
       <path id="m8cdf1a4aba" d="M 0 0 
L 0 4 
" style="stroke: #000000; stroke-width: 0.8"/>
      </defs>
      <g>
       <use xlink:href="#m8cdf1a4aba" x="82.264261" y="299.889375" style="stroke: #000000; stroke-width: 0.8"/>
      </g>
     </g>
     <g id="text_1">
      <!-- 1000 -->
      <g transform="translate(72.264261 314.333125) scale(0.1 -0.1)">
       <defs>
        <path id="TimesNewRomanPSMT-31" d="M 750 3822 
L 1781 4325 
L 1884 4325 
L 1884 747 
Q 1884 391 1914 303 
Q 1944 216 2037 169 
Q 2131 122 2419 116 
L 2419 0 
L 825 0 
L 825 116 
Q 1125 122 1212 167 
Q 1300 213 1334 289 
Q 1369 366 1369 747 
L 1369 3034 
Q 1369 3497 1338 3628 
Q 1316 3728 1258 3775 
Q 1200 3822 1119 3822 
Q 1003 3822 797 3725 
L 750 3822 
z
" transform="scale(0.015625)"/>
        <path id="TimesNewRomanPSMT-30" d="M 231 2094 
Q 231 2819 450 3342 
Q 669 3866 1031 4122 
Q 1313 4325 1613 4325 
Q 2100 4325 2488 3828 
Q 2972 3213 2972 2159 
Q 2972 1422 2759 906 
Q 2547 391 2217 158 
Q 1888 -75 1581 -75 
Q 975 -75 572 641 
Q 231 1244 231 2094 
z
M 844 2016 
Q 844 1141 1059 588 
Q 1238 122 1591 122 
Q 1759 122 1940 273 
Q 2122 425 2216 781 
Q 2359 1319 2359 2297 
Q 2359 3022 2209 3506 
Q 2097 3866 1919 4016 
Q 1791 4119 1609 4119 
Q 1397 4119 1231 3928 
Q 1006 3669 925 3112 
Q 844 2556 844 2016 
z
" transform="scale(0.015625)"/>
       </defs>
       <use xlink:href="#TimesNewRomanPSMT-31"/>
       <use xlink:href="#TimesNewRomanPSMT-30" transform="translate(50 0)"/>
       <use xlink:href="#TimesNewRomanPSMT-30" transform="translate(100 0)"/>
       <use xlink:href="#TimesNewRomanPSMT-30" transform="translate(150 0)"/>
      </g>
     </g>
    </g>
    <g id="xtick_2">
     <g id="line2d_3">
      <path d="M 145.673352 299.889375 
L 145.673352 22.689375 
" clip-path="url(#p54146470ff)" style="fill: none; stroke-dasharray: 1.85,0.8; stroke-dashoffset: 0; stroke: #e0deda; stroke-opacity: 0.8; stroke-width: 0.5"/>
     </g>
     <g id="line2d_4">
      <g>
       <use xlink:href="#m8cdf1a4aba" x="145.673352" y="299.889375" style="stroke: #000000; stroke-width: 0.8"/>
      </g>
     </g>
     <g id="text_2">
      <!-- 1500 -->
      <g transform="translate(135.673352 314.333125) scale(0.1 -0.1)">
       <defs>
        <path id="TimesNewRomanPSMT-35" d="M 2778 4238 
L 2534 3706 
L 1259 3706 
L 981 3138 
Q 1809 3016 2294 2522 
Q 2709 2097 2709 1522 
Q 2709 1188 2573 903 
Q 2438 619 2231 419 
Q 2025 219 1772 97 
Q 1413 -75 1034 -75 
Q 653 -75 479 54 
Q 306 184 306 341 
Q 306 428 378 495 
Q 450 563 559 563 
Q 641 563 702 538 
Q 763 513 909 409 
Q 1144 247 1384 247 
Q 1750 247 2026 523 
Q 2303 800 2303 1197 
Q 2303 1581 2056 1914 
Q 1809 2247 1375 2428 
Q 1034 2569 447 2591 
L 1259 4238 
L 2778 4238 
z
" transform="scale(0.015625)"/>
       </defs>
       <use xlink:href="#TimesNewRomanPSMT-31"/>
       <use xlink:href="#TimesNewRomanPSMT-35" transform="translate(50 0)"/>
       <use xlink:href="#TimesNewRomanPSMT-30" transform="translate(100 0)"/>
       <use xlink:href="#TimesNewRomanPSMT-30" transform="translate(150 0)"/>
      </g>
     </g>
    </g>
    <g id="xtick_3">
     <g id="line2d_5">
      <path d="M 209.082443 299.889375 
L 209.082443 22.689375 
" clip-path="url(#p54146470ff)" style="fill: none; stroke-dasharray: 1.85,0.8; stroke-dashoffset: 0; stroke: #e0deda; stroke-opacity: 0.8; stroke-width: 0.5"/>
     </g>
     <g id="line2d_6">
      <g>
       <use xlink:href="#m8cdf1a4aba" x="209.082443" y="299.889375" style="stroke: #000000; stroke-width: 0.8"/>
      </g>
     </g>
     <g id="text_3">
      <!-- 2000 -->
      <g transform="translate(199.082443 314.333125) scale(0.1 -0.1)">
       <defs>
        <path id="TimesNewRomanPSMT-32" d="M 2934 816 
L 2638 0 
L 138 0 
L 138 116 
Q 1241 1122 1691 1759 
Q 2141 2397 2141 2925 
Q 2141 3328 1894 3587 
Q 1647 3847 1303 3847 
Q 991 3847 742 3664 
Q 494 3481 375 3128 
L 259 3128 
Q 338 3706 661 4015 
Q 984 4325 1469 4325 
Q 1984 4325 2329 3994 
Q 2675 3663 2675 3213 
Q 2675 2891 2525 2569 
Q 2294 2063 1775 1497 
Q 997 647 803 472 
L 1909 472 
Q 2247 472 2383 497 
Q 2519 522 2628 598 
Q 2738 675 2819 816 
L 2934 816 
z
" transform="scale(0.015625)"/>
       </defs>
       <use xlink:href="#TimesNewRomanPSMT-32"/>
       <use xlink:href="#TimesNewRomanPSMT-30" transform="translate(50 0)"/>
       <use xlink:href="#TimesNewRomanPSMT-30" transform="translate(100 0)"/>
       <use xlink:href="#TimesNewRomanPSMT-30" transform="translate(150 0)"/>
      </g>
     </g>
    </g>
    <g id="xtick_4">
     <g id="line2d_7">
      <path d="M 272.491534 299.889375 
L 272.491534 22.689375 
" clip-path="url(#p54146470ff)" style="fill: none; stroke-dasharray: 1.85,0.8; stroke-dashoffset: 0; stroke: #e0deda; stroke-opacity: 0.8; stroke-width: 0.5"/>
     </g>
     <g id="line2d_8">
      <g>
       <use xlink:href="#m8cdf1a4aba" x="272.491534" y="299.889375" style="stroke: #000000; stroke-width: 0.8"/>
      </g>
     </g>
     <g id="text_4">
      <!-- 2500 -->
      <g transform="translate(262.491534 314.333125) scale(0.1 -0.1)">
       <use xlink:href="#TimesNewRomanPSMT-32"/>
       <use xlink:href="#TimesNewRomanPSMT-35" transform="translate(50 0)"/>
       <use xlink:href="#TimesNewRomanPSMT-30" transform="translate(100 0)"/>
       <use xlink:href="#TimesNewRomanPSMT-30" transform="translate(150 0)"/>
      </g>
     </g>
    </g>
    <g id="xtick_5">
     <g id="line2d_9">
      <path d="M 335.900625 299.889375 
L 335.900625 22.689375 
" clip-path="url(#p54146470ff)" style="fill: none; stroke-dasharray: 1.85,0.8; stroke-dashoffset: 0; stroke: #e0deda; stroke-opacity: 0.8; stroke-width: 0.5"/>
     </g>
     <g id="line2d_10">
      <g>
       <use xlink:href="#m8cdf1a4aba" x="335.900625" y="299.889375" style="stroke: #000000; stroke-width: 0.8"/>
      </g>
     </g>
     <g id="text_5">
      <!-- 3000 -->
      <g transform="translate(325.900625 314.333125) scale(0.1 -0.1)">
       <defs>
        <path id="TimesNewRomanPSMT-33" d="M 325 3431 
Q 506 3859 782 4092 
Q 1059 4325 1472 4325 
Q 1981 4325 2253 3994 
Q 2459 3747 2459 3466 
Q 2459 3003 1878 2509 
Q 2269 2356 2469 2072 
Q 2669 1788 2669 1403 
Q 2669 853 2319 450 
Q 1863 -75 997 -75 
Q 569 -75 414 31 
Q 259 138 259 259 
Q 259 350 332 419 
Q 406 488 509 488 
Q 588 488 669 463 
Q 722 447 909 348 
Q 1097 250 1169 231 
Q 1284 197 1416 197 
Q 1734 197 1970 444 
Q 2206 691 2206 1028 
Q 2206 1275 2097 1509 
Q 2016 1684 1919 1775 
Q 1784 1900 1550 2001 
Q 1316 2103 1072 2103 
L 972 2103 
L 972 2197 
Q 1219 2228 1467 2375 
Q 1716 2522 1828 2728 
Q 1941 2934 1941 3181 
Q 1941 3503 1739 3701 
Q 1538 3900 1238 3900 
Q 753 3900 428 3381 
L 325 3431 
z
" transform="scale(0.015625)"/>
       </defs>
       <use xlink:href="#TimesNewRomanPSMT-33"/>
       <use xlink:href="#TimesNewRomanPSMT-30" transform="translate(50 0)"/>
       <use xlink:href="#TimesNewRomanPSMT-30" transform="translate(100 0)"/>
       <use xlink:href="#TimesNewRomanPSMT-30" transform="translate(150 0)"/>
      </g>
     </g>
    </g>
    <g id="xtick_6">
     <g id="line2d_11">
      <path d="M 399.309716 299.889375 
L 399.309716 22.689375 
" clip-path="url(#p54146470ff)" style="fill: none; stroke-dasharray: 1.85,0.8; stroke-dashoffset: 0; stroke: #e0deda; stroke-opacity: 0.8; stroke-width: 0.5"/>
     </g>
     <g id="line2d_12">
      <g>
       <use xlink:href="#m8cdf1a4aba" x="399.309716" y="299.889375" style="stroke: #000000; stroke-width: 0.8"/>
      </g>
     </g>
     <g id="text_6">
      <!-- 3500 -->
      <g transform="translate(389.309716 314.333125) scale(0.1 -0.1)">
       <use xlink:href="#TimesNewRomanPSMT-33"/>
       <use xlink:href="#TimesNewRomanPSMT-35" transform="translate(50 0)"/>
       <use xlink:href="#TimesNewRomanPSMT-30" transform="translate(100 0)"/>
       <use xlink:href="#TimesNewRomanPSMT-30" transform="translate(150 0)"/>
      </g>
     </g>
    </g>
    <g id="xtick_7">
     <g id="line2d_13">
      <path d="M 462.718807 299.889375 
L 462.718807 22.689375 
" clip-path="url(#p54146470ff)" style="fill: none; stroke-dasharray: 1.85,0.8; stroke-dashoffset: 0; stroke: #e0deda; stroke-opacity: 0.8; stroke-width: 0.5"/>
     </g>
     <g id="line2d_14">
      <g>
       <use xlink:href="#m8cdf1a4aba" x="462.718807" y="299.889375" style="stroke: #000000; stroke-width: 0.8"/>
      </g>
     </g>
     <g id="text_7">
      <!-- 4000 -->
      <g transform="translate(452.718807 314.333125) scale(0.1 -0.1)">
       <defs>
        <path id="TimesNewRomanPSMT-34" d="M 2978 1563 
L 2978 1119 
L 2409 1119 
L 2409 0 
L 1894 0 
L 1894 1119 
L 100 1119 
L 100 1519 
L 2066 4325 
L 2409 4325 
L 2409 1563 
L 2978 1563 
z
M 1894 1563 
L 1894 3666 
L 406 1563 
L 1894 1563 
z
" transform="scale(0.015625)"/>
       </defs>
       <use xlink:href="#TimesNewRomanPSMT-34"/>
       <use xlink:href="#TimesNewRomanPSMT-30" transform="translate(50 0)"/>
       <use xlink:href="#TimesNewRomanPSMT-30" transform="translate(100 0)"/>
       <use xlink:href="#TimesNewRomanPSMT-30" transform="translate(150 0)"/>
      </g>
     </g>
    </g>
    <g id="xtick_8">
     <g id="line2d_15">
      <path d="M 526.127898 299.889375 
L 526.127898 22.689375 
" clip-path="url(#p54146470ff)" style="fill: none; stroke-dasharray: 1.85,0.8; stroke-dashoffset: 0; stroke: #e0deda; stroke-opacity: 0.8; stroke-width: 0.5"/>
     </g>
     <g id="line2d_16">
      <g>
       <use xlink:href="#m8cdf1a4aba" x="526.127898" y="299.889375" style="stroke: #000000; stroke-width: 0.8"/>
      </g>
     </g>
     <g id="text_8">
      <!-- 4500 -->
      <g transform="translate(516.127898 314.333125) scale(0.1 -0.1)">
       <use xlink:href="#TimesNewRomanPSMT-34"/>
       <use xlink:href="#TimesNewRomanPSMT-35" transform="translate(50 0)"/>
       <use xlink:href="#TimesNewRomanPSMT-30" transform="translate(100 0)"/>
       <use xlink:href="#TimesNewRomanPSMT-30" transform="translate(150 0)"/>
      </g>
     </g>
    </g>
    <g id="xtick_9">
     <g id="line2d_17">
      <path d="M 589.536989 299.889375 
L 589.536989 22.689375 
" clip-path="url(#p54146470ff)" style="fill: none; stroke-dasharray: 1.85,0.8; stroke-dashoffset: 0; stroke: #e0deda; stroke-opacity: 0.8; stroke-width: 0.5"/>
     </g>
     <g id="line2d_18">
      <g>
       <use xlink:href="#m8cdf1a4aba" x="589.536989" y="299.889375" style="stroke: #000000; stroke-width: 0.8"/>
      </g>
     </g>
     <g id="text_9">
      <!-- 5000 -->
      <g transform="translate(579.536989 314.333125) scale(0.1 -0.1)">
       <use xlink:href="#TimesNewRomanPSMT-35"/>
       <use xlink:href="#TimesNewRomanPSMT-30" transform="translate(50 0)"/>
       <use xlink:href="#TimesNewRomanPSMT-30" transform="translate(100 0)"/>
       <use xlink:href="#TimesNewRomanPSMT-30" transform="translate(150 0)"/>
      </g>
     </g>
    </g>
    <g id="text_10">
     <!-- Training Steps -->
     <g transform="translate(298.500937 328.605938) scale(0.12 -0.12)">
      <defs>
       <path id="TimesNewRomanPS-BoldMT-54" d="M 4038 4238 
L 4038 3091 
L 3925 3091 
Q 3825 3488 3703 3661 
Q 3581 3834 3369 3938 
Q 3250 3994 2953 3994 
L 2638 3994 
L 2638 725 
Q 2638 400 2673 319 
Q 2709 238 2814 177 
Q 2919 116 3100 116 
L 3241 116 
L 3241 0 
L 1022 0 
L 1022 116 
L 1163 116 
Q 1347 116 1459 181 
Q 1541 225 1588 331 
Q 1622 406 1622 725 
L 1622 3994 
L 1316 3994 
Q 888 3994 694 3813 
Q 422 3559 350 3091 
L 231 3091 
L 231 4238 
L 4038 4238 
z
" transform="scale(0.015625)"/>
       <path id="TimesNewRomanPS-BoldMT-72" d="M 1428 2922 
L 1428 2259 
Q 1719 2713 1937 2861 
Q 2156 3009 2359 3009 
Q 2534 3009 2639 2901 
Q 2744 2794 2744 2597 
Q 2744 2388 2642 2272 
Q 2541 2156 2397 2156 
Q 2231 2156 2109 2262 
Q 1988 2369 1966 2381 
Q 1934 2400 1894 2400 
Q 1803 2400 1722 2331 
Q 1594 2225 1528 2028 
Q 1428 1725 1428 1359 
L 1428 688 
L 1431 513 
Q 1431 334 1453 284 
Q 1491 200 1564 161 
Q 1638 122 1813 113 
L 1813 0 
L 234 0 
L 234 113 
Q 425 128 492 217 
Q 559 306 559 688 
L 559 2303 
Q 559 2553 534 2622 
Q 503 2709 443 2750 
Q 384 2791 234 2806 
L 234 2922 
L 1428 2922 
z
" transform="scale(0.015625)"/>
       <path id="TimesNewRomanPS-BoldMT-61" d="M 1828 431 
Q 1294 -41 869 -41 
Q 619 -41 453 123 
Q 288 288 288 534 
Q 288 869 575 1136 
Q 863 1403 1828 1847 
L 1828 2141 
Q 1828 2472 1792 2558 
Q 1756 2644 1656 2708 
Q 1556 2772 1431 2772 
Q 1228 2772 1097 2681 
Q 1016 2625 1016 2550 
Q 1016 2484 1103 2388 
Q 1222 2253 1222 2128 
Q 1222 1975 1108 1867 
Q 994 1759 809 1759 
Q 613 1759 480 1878 
Q 347 1997 347 2156 
Q 347 2381 525 2586 
Q 703 2791 1022 2900 
Q 1341 3009 1684 3009 
Q 2100 3009 2342 2832 
Q 2584 2656 2656 2450 
Q 2700 2319 2700 1847 
L 2700 713 
Q 2700 513 2715 461 
Q 2731 409 2762 384 
Q 2794 359 2834 359 
Q 2916 359 3000 475 
L 3094 400 
Q 2938 169 2770 64 
Q 2603 -41 2391 -41 
Q 2141 -41 2000 76 
Q 1859 194 1828 431 
z
M 1828 659 
L 1828 1638 
Q 1450 1416 1266 1163 
Q 1144 994 1144 822 
Q 1144 678 1247 569 
Q 1325 484 1466 484 
Q 1622 484 1828 659 
z
" transform="scale(0.015625)"/>
       <path id="TimesNewRomanPS-BoldMT-69" d="M 919 4338 
Q 1122 4338 1262 4195 
Q 1403 4053 1403 3853 
Q 1403 3653 1261 3512 
Q 1119 3372 919 3372 
Q 719 3372 578 3512 
Q 438 3653 438 3853 
Q 438 4053 578 4195 
Q 719 4338 919 4338 
z
M 1356 2922 
L 1356 606 
Q 1356 297 1428 211 
Q 1500 125 1709 113 
L 1709 0 
L 131 0 
L 131 113 
Q 325 119 419 225 
Q 481 297 481 606 
L 481 2313 
Q 481 2622 409 2708 
Q 338 2794 131 2806 
L 131 2922 
L 1356 2922 
z
" transform="scale(0.015625)"/>
       <path id="TimesNewRomanPS-BoldMT-6e" d="M 1409 2922 
L 1409 2544 
Q 1634 2788 1840 2898 
Q 2047 3009 2284 3009 
Q 2569 3009 2756 2851 
Q 2944 2694 3006 2459 
Q 3056 2281 3056 1775 
L 3056 638 
Q 3056 300 3117 217 
Q 3178 134 3372 113 
L 3372 0 
L 1894 0 
L 1894 113 
Q 2059 134 2131 250 
Q 2181 328 2181 638 
L 2181 1938 
Q 2181 2297 2153 2390 
Q 2125 2484 2058 2536 
Q 1991 2588 1909 2588 
Q 1641 2588 1409 2203 
L 1409 638 
Q 1409 309 1470 221 
Q 1531 134 1697 113 
L 1697 0 
L 219 0 
L 219 113 
Q 403 131 481 231 
Q 534 300 534 638 
L 534 2288 
Q 534 2619 473 2700 
Q 413 2781 219 2806 
L 219 2922 
L 1409 2922 
z
" transform="scale(0.015625)"/>
       <path id="TimesNewRomanPS-BoldMT-67" d="M 2091 2888 
L 3075 2888 
L 3075 2544 
L 2516 2544 
Q 2669 2391 2728 2266 
Q 2803 2097 2803 1913 
Q 2803 1600 2629 1370 
Q 2456 1141 2157 1011 
Q 1859 881 1628 881 
Q 1609 881 1253 897 
Q 1113 897 1017 805 
Q 922 713 922 584 
Q 922 472 1008 400 
Q 1094 328 1288 328 
L 1828 334 
Q 2484 334 2731 191 
Q 3084 -9 3084 -425 
Q 3084 -691 2921 -908 
Q 2759 -1125 2494 -1228 
Q 2091 -1381 1566 -1381 
Q 1172 -1381 847 -1304 
Q 522 -1228 381 -1092 
Q 241 -956 241 -806 
Q 241 -663 348 -548 
Q 456 -434 750 -356 
Q 344 -156 344 200 
Q 344 416 509 619 
Q 675 822 1034 972 
Q 616 1125 428 1375 
Q 241 1625 241 1953 
Q 241 2381 591 2695 
Q 941 3009 1491 3009 
Q 1781 3009 2091 2888 
z
M 1550 2816 
Q 1369 2816 1244 2633 
Q 1119 2450 1119 1875 
Q 1119 1409 1242 1236 
Q 1366 1063 1534 1063 
Q 1722 1063 1847 1234 
Q 1972 1406 1972 1903 
Q 1972 2463 1831 2666 
Q 1731 2816 1550 2816 
z
M 1366 -431 
Q 1047 -431 944 -484 
Q 766 -581 766 -747 
Q 766 -906 950 -1036 
Q 1134 -1166 1644 -1166 
Q 2078 -1166 2326 -1050 
Q 2575 -934 2575 -725 
Q 2575 -647 2528 -594 
Q 2444 -500 2273 -465 
Q 2103 -431 1366 -431 
z
" transform="scale(0.015625)"/>
       <path id="TimesNewRomanPS-BoldMT-20" transform="scale(0.015625)"/>
       <path id="TimesNewRomanPS-BoldMT-53" d="M 3006 4334 
L 3041 2922 
L 2913 2922 
Q 2822 3453 2467 3776 
Q 2113 4100 1700 4100 
Q 1381 4100 1195 3929 
Q 1009 3759 1009 3538 
Q 1009 3397 1075 3288 
Q 1166 3141 1366 2997 
Q 1513 2894 2044 2631 
Q 2788 2266 3047 1941 
Q 3303 1616 3303 1197 
Q 3303 666 2889 283 
Q 2475 -100 1838 -100 
Q 1638 -100 1459 -59 
Q 1281 -19 1013 94 
Q 863 156 766 156 
Q 684 156 593 93 
Q 503 31 447 -97 
L 331 -97 
L 331 1503 
L 447 1503 
Q 584 828 976 473 
Q 1369 119 1822 119 
Q 2172 119 2380 309 
Q 2588 500 2588 753 
Q 2588 903 2508 1043 
Q 2428 1184 2265 1311 
Q 2103 1438 1691 1641 
Q 1113 1925 859 2125 
Q 606 2325 470 2572 
Q 334 2819 334 3116 
Q 334 3622 706 3978 
Q 1078 4334 1644 4334 
Q 1850 4334 2044 4284 
Q 2191 4247 2402 4145 
Q 2613 4044 2697 4044 
Q 2778 4044 2825 4094 
Q 2872 4144 2913 4334 
L 3006 4334 
z
" transform="scale(0.015625)"/>
       <path id="TimesNewRomanPS-BoldMT-74" d="M 1375 3991 
L 1375 2922 
L 2069 2922 
L 2069 2613 
L 1375 2613 
L 1375 809 
Q 1375 556 1398 482 
Q 1422 409 1481 364 
Q 1541 319 1591 319 
Q 1794 319 1975 628 
L 2069 559 
Q 1816 -41 1247 -41 
Q 969 -41 776 114 
Q 584 269 531 459 
Q 500 566 500 1034 
L 500 2613 
L 119 2613 
L 119 2722 
Q 513 3000 789 3306 
Q 1066 3613 1272 3991 
L 1375 3991 
z
" transform="scale(0.015625)"/>
       <path id="TimesNewRomanPS-BoldMT-65" d="M 2691 1566 
L 1088 1566 
Q 1116 984 1397 647 
Q 1613 388 1916 388 
Q 2103 388 2256 492 
Q 2409 597 2584 869 
L 2691 800 
Q 2453 316 2165 114 
Q 1878 -88 1500 -88 
Q 850 -88 516 413 
Q 247 816 247 1413 
Q 247 2144 642 2576 
Q 1038 3009 1569 3009 
Q 2013 3009 2339 2645 
Q 2666 2281 2691 1566 
z
M 1922 1775 
Q 1922 2278 1867 2465 
Q 1813 2653 1697 2750 
Q 1631 2806 1522 2806 
Q 1359 2806 1256 2647 
Q 1072 2369 1072 1884 
L 1072 1775 
L 1922 1775 
z
" transform="scale(0.015625)"/>
       <path id="TimesNewRomanPS-BoldMT-70" d="M 1347 297 
L 1347 -791 
Q 1347 -1016 1383 -1097 
Q 1419 -1178 1494 -1215 
Q 1569 -1253 1788 -1253 
L 1788 -1369 
L 122 -1369 
L 122 -1253 
Q 316 -1247 409 -1144 
Q 472 -1072 472 -772 
L 472 2313 
Q 472 2622 400 2708 
Q 328 2794 122 2806 
L 122 2922 
L 1347 2922 
L 1347 2538 
Q 1500 2763 1659 2863 
Q 1888 3009 2156 3009 
Q 2478 3009 2742 2806 
Q 3006 2603 3143 2245 
Q 3281 1888 3281 1475 
Q 3281 1031 3139 664 
Q 2997 297 2726 104 
Q 2456 -88 2125 -88 
Q 1884 -88 1675 19 
Q 1519 100 1347 297 
z
M 1347 613 
Q 1616 231 1922 231 
Q 2091 231 2200 409 
Q 2363 672 2363 1409 
Q 2363 2166 2184 2444 
Q 2066 2628 1866 2628 
Q 1550 2628 1347 2172 
L 1347 613 
z
" transform="scale(0.015625)"/>
       <path id="TimesNewRomanPS-BoldMT-73" d="M 2063 3003 
L 2109 2006 
L 2003 2006 
Q 1813 2450 1608 2612 
Q 1403 2775 1200 2775 
Q 1072 2775 981 2689 
Q 891 2603 891 2491 
Q 891 2406 953 2328 
Q 1053 2200 1512 1889 
Q 1972 1578 2117 1361 
Q 2263 1144 2263 875 
Q 2263 631 2141 397 
Q 2019 163 1797 37 
Q 1575 -88 1306 -88 
Q 1097 -88 747 44 
Q 653 78 619 78 
Q 516 78 447 -78 
L 344 -78 
L 294 972 
L 400 972 
Q 541 559 786 353 
Q 1031 147 1250 147 
Q 1400 147 1495 239 
Q 1591 331 1591 463 
Q 1591 613 1497 722 
Q 1403 831 1078 1053 
Q 600 1384 459 1559 
Q 253 1816 253 2125 
Q 253 2463 486 2736 
Q 719 3009 1159 3009 
Q 1397 3009 1619 2894 
Q 1703 2847 1756 2847 
Q 1813 2847 1847 2870 
Q 1881 2894 1956 3003 
L 2063 3003 
z
" transform="scale(0.015625)"/>
      </defs>
      <use xlink:href="#TimesNewRomanPS-BoldMT-54"/>
      <use xlink:href="#TimesNewRomanPS-BoldMT-72" transform="translate(59.324219 0)"/>
      <use xlink:href="#TimesNewRomanPS-BoldMT-61" transform="translate(103.708984 0)"/>
      <use xlink:href="#TimesNewRomanPS-BoldMT-69" transform="translate(153.708984 0)"/>
      <use xlink:href="#TimesNewRomanPS-BoldMT-6e" transform="translate(181.492188 0)"/>
      <use xlink:href="#TimesNewRomanPS-BoldMT-69" transform="translate(237.107422 0)"/>
      <use xlink:href="#TimesNewRomanPS-BoldMT-6e" transform="translate(264.890625 0)"/>
      <use xlink:href="#TimesNewRomanPS-BoldMT-67" transform="translate(320.505859 0)"/>
      <use xlink:href="#TimesNewRomanPS-BoldMT-20" transform="translate(370.505859 0)"/>
      <use xlink:href="#TimesNewRomanPS-BoldMT-53" transform="translate(395.505859 0)"/>
      <use xlink:href="#TimesNewRomanPS-BoldMT-74" transform="translate(451.121094 0)"/>
      <use xlink:href="#TimesNewRomanPS-BoldMT-65" transform="translate(484.421875 0)"/>
      <use xlink:href="#TimesNewRomanPS-BoldMT-70" transform="translate(528.806641 0)"/>
      <use xlink:href="#TimesNewRomanPS-BoldMT-73" transform="translate(584.421875 0)"/>
     </g>
    </g>
   </g>
   <g id="matplotlib.axis_2">
    <g id="ytick_1">
     <g id="line2d_19">
      <path d="M 56.900625 289.901011 
L 614.900625 289.901011 
" clip-path="url(#p54146470ff)" style="fill: none; stroke-dasharray: 1.85,0.8; stroke-dashoffset: 0; stroke: #e0deda; stroke-opacity: 0.8; stroke-width: 0.5"/>
     </g>
     <g id="line2d_20">
      <defs>
       <path id="m556a7419af" d="M 0 0 
L -4 0 
" style="stroke: #000000; stroke-width: 0.8"/>
      </defs>
      <g>
       <use xlink:href="#m556a7419af" x="56.900625" y="289.901011" style="stroke: #000000; stroke-width: 0.8"/>
      </g>
     </g>
     <g id="text_11">
      <!-- 0.9955 -->
      <g transform="translate(21.900625 293.372886) scale(0.1 -0.1)">
       <defs>
        <path id="TimesNewRomanPSMT-2e" d="M 800 606 
Q 947 606 1047 504 
Q 1147 403 1147 259 
Q 1147 116 1045 14 
Q 944 -88 800 -88 
Q 656 -88 554 14 
Q 453 116 453 259 
Q 453 406 554 506 
Q 656 606 800 606 
z
" transform="scale(0.015625)"/>
        <path id="TimesNewRomanPSMT-39" d="M 338 -88 
L 338 28 
Q 744 34 1094 217 
Q 1444 400 1770 856 
Q 2097 1313 2225 1859 
Q 1734 1544 1338 1544 
Q 891 1544 572 1889 
Q 253 2234 253 2806 
Q 253 3363 572 3797 
Q 956 4325 1575 4325 
Q 2097 4325 2469 3894 
Q 2925 3359 2925 2575 
Q 2925 1869 2578 1258 
Q 2231 647 1613 244 
Q 1109 -88 516 -88 
L 338 -88 
z
M 2275 2091 
Q 2331 2497 2331 2741 
Q 2331 3044 2228 3395 
Q 2125 3747 1936 3934 
Q 1747 4122 1506 4122 
Q 1228 4122 1018 3872 
Q 809 3622 809 3128 
Q 809 2469 1088 2097 
Q 1291 1828 1588 1828 
Q 1731 1828 1928 1897 
Q 2125 1966 2275 2091 
z
" transform="scale(0.015625)"/>
       </defs>
       <use xlink:href="#TimesNewRomanPSMT-30"/>
       <use xlink:href="#TimesNewRomanPSMT-2e" transform="translate(50 0)"/>
       <use xlink:href="#TimesNewRomanPSMT-39" transform="translate(75 0)"/>
       <use xlink:href="#TimesNewRomanPSMT-39" transform="translate(125 0)"/>
       <use xlink:href="#TimesNewRomanPSMT-35" transform="translate(175 0)"/>
       <use xlink:href="#TimesNewRomanPSMT-35" transform="translate(225 0)"/>
      </g>
     </g>
    </g>
    <g id="ytick_2">
     <g id="line2d_21">
      <path d="M 56.900625 258.08283 
L 614.900625 258.08283 
" clip-path="url(#p54146470ff)" style="fill: none; stroke-dasharray: 1.85,0.8; stroke-dashoffset: 0; stroke: #e0deda; stroke-opacity: 0.8; stroke-width: 0.5"/>
     </g>
     <g id="line2d_22">
      <g>
       <use xlink:href="#m556a7419af" x="56.900625" y="258.08283" style="stroke: #000000; stroke-width: 0.8"/>
      </g>
     </g>
     <g id="text_12">
      <!-- 0.9960 -->
      <g transform="translate(21.900625 261.554705) scale(0.1 -0.1)">
       <defs>
        <path id="TimesNewRomanPSMT-36" d="M 2869 4325 
L 2869 4209 
Q 2456 4169 2195 4045 
Q 1934 3922 1679 3669 
Q 1425 3416 1258 3105 
Q 1091 2794 978 2366 
Q 1428 2675 1881 2675 
Q 2316 2675 2634 2325 
Q 2953 1975 2953 1425 
Q 2953 894 2631 456 
Q 2244 -75 1606 -75 
Q 1172 -75 869 213 
Q 275 772 275 1663 
Q 275 2231 503 2743 
Q 731 3256 1154 3653 
Q 1578 4050 1965 4187 
Q 2353 4325 2688 4325 
L 2869 4325 
z
M 925 2138 
Q 869 1716 869 1456 
Q 869 1156 980 804 
Q 1091 453 1309 247 
Q 1469 100 1697 100 
Q 1969 100 2183 356 
Q 2397 613 2397 1088 
Q 2397 1622 2184 2012 
Q 1972 2403 1581 2403 
Q 1463 2403 1327 2353 
Q 1191 2303 925 2138 
z
" transform="scale(0.015625)"/>
       </defs>
       <use xlink:href="#TimesNewRomanPSMT-30"/>
       <use xlink:href="#TimesNewRomanPSMT-2e" transform="translate(50 0)"/>
       <use xlink:href="#TimesNewRomanPSMT-39" transform="translate(75 0)"/>
       <use xlink:href="#TimesNewRomanPSMT-39" transform="translate(125 0)"/>
       <use xlink:href="#TimesNewRomanPSMT-36" transform="translate(175 0)"/>
       <use xlink:href="#TimesNewRomanPSMT-30" transform="translate(225 0)"/>
      </g>
     </g>
    </g>
    <g id="ytick_3">
     <g id="line2d_23">
      <path d="M 56.900625 226.264648 
L 614.900625 226.264648 
" clip-path="url(#p54146470ff)" style="fill: none; stroke-dasharray: 1.85,0.8; stroke-dashoffset: 0; stroke: #e0deda; stroke-opacity: 0.8; stroke-width: 0.5"/>
     </g>
     <g id="line2d_24">
      <g>
       <use xlink:href="#m556a7419af" x="56.900625" y="226.264648" style="stroke: #000000; stroke-width: 0.8"/>
      </g>
     </g>
     <g id="text_13">
      <!-- 0.9965 -->
      <g transform="translate(21.900625 229.736523) scale(0.1 -0.1)">
       <use xlink:href="#TimesNewRomanPSMT-30"/>
       <use xlink:href="#TimesNewRomanPSMT-2e" transform="translate(50 0)"/>
       <use xlink:href="#TimesNewRomanPSMT-39" transform="translate(75 0)"/>
       <use xlink:href="#TimesNewRomanPSMT-39" transform="translate(125 0)"/>
       <use xlink:href="#TimesNewRomanPSMT-36" transform="translate(175 0)"/>
       <use xlink:href="#TimesNewRomanPSMT-35" transform="translate(225 0)"/>
      </g>
     </g>
    </g>
    <g id="ytick_4">
     <g id="line2d_25">
      <path d="M 56.900625 194.446466 
L 614.900625 194.446466 
" clip-path="url(#p54146470ff)" style="fill: none; stroke-dasharray: 1.85,0.8; stroke-dashoffset: 0; stroke: #e0deda; stroke-opacity: 0.8; stroke-width: 0.5"/>
     </g>
     <g id="line2d_26">
      <g>
       <use xlink:href="#m556a7419af" x="56.900625" y="194.446466" style="stroke: #000000; stroke-width: 0.8"/>
      </g>
     </g>
     <g id="text_14">
      <!-- 0.9970 -->
      <g transform="translate(21.900625 197.918341) scale(0.1 -0.1)">
       <defs>
        <path id="TimesNewRomanPSMT-37" d="M 644 4238 
L 2916 4238 
L 2916 4119 
L 1503 -88 
L 1153 -88 
L 2419 3728 
L 1253 3728 
Q 900 3728 750 3644 
Q 488 3500 328 3200 
L 238 3234 
L 644 4238 
z
" transform="scale(0.015625)"/>
       </defs>
       <use xlink:href="#TimesNewRomanPSMT-30"/>
       <use xlink:href="#TimesNewRomanPSMT-2e" transform="translate(50 0)"/>
       <use xlink:href="#TimesNewRomanPSMT-39" transform="translate(75 0)"/>
       <use xlink:href="#TimesNewRomanPSMT-39" transform="translate(125 0)"/>
       <use xlink:href="#TimesNewRomanPSMT-37" transform="translate(175 0)"/>
       <use xlink:href="#TimesNewRomanPSMT-30" transform="translate(225 0)"/>
      </g>
     </g>
    </g>
    <g id="ytick_5">
     <g id="line2d_27">
      <path d="M 56.900625 162.628284 
L 614.900625 162.628284 
" clip-path="url(#p54146470ff)" style="fill: none; stroke-dasharray: 1.85,0.8; stroke-dashoffset: 0; stroke: #e0deda; stroke-opacity: 0.8; stroke-width: 0.5"/>
     </g>
     <g id="line2d_28">
      <g>
       <use xlink:href="#m556a7419af" x="56.900625" y="162.628284" style="stroke: #000000; stroke-width: 0.8"/>
      </g>
     </g>
     <g id="text_15">
      <!-- 0.9975 -->
      <g transform="translate(21.900625 166.100159) scale(0.1 -0.1)">
       <use xlink:href="#TimesNewRomanPSMT-30"/>
       <use xlink:href="#TimesNewRomanPSMT-2e" transform="translate(50 0)"/>
       <use xlink:href="#TimesNewRomanPSMT-39" transform="translate(75 0)"/>
       <use xlink:href="#TimesNewRomanPSMT-39" transform="translate(125 0)"/>
       <use xlink:href="#TimesNewRomanPSMT-37" transform="translate(175 0)"/>
       <use xlink:href="#TimesNewRomanPSMT-35" transform="translate(225 0)"/>
      </g>
     </g>
    </g>
    <g id="ytick_6">
     <g id="line2d_29">
      <path d="M 56.900625 130.810102 
L 614.900625 130.810102 
" clip-path="url(#p54146470ff)" style="fill: none; stroke-dasharray: 1.85,0.8; stroke-dashoffset: 0; stroke: #e0deda; stroke-opacity: 0.8; stroke-width: 0.5"/>
     </g>
     <g id="line2d_30">
      <g>
       <use xlink:href="#m556a7419af" x="56.900625" y="130.810102" style="stroke: #000000; stroke-width: 0.8"/>
      </g>
     </g>
     <g id="text_16">
      <!-- 0.9980 -->
      <g transform="translate(21.900625 134.281977) scale(0.1 -0.1)">
       <defs>
        <path id="TimesNewRomanPSMT-38" d="M 1228 2134 
Q 725 2547 579 2797 
Q 434 3047 434 3316 
Q 434 3728 753 4026 
Q 1072 4325 1600 4325 
Q 2113 4325 2425 4047 
Q 2738 3769 2738 3413 
Q 2738 3175 2569 2928 
Q 2400 2681 1866 2347 
Q 2416 1922 2594 1678 
Q 2831 1359 2831 1006 
Q 2831 559 2490 242 
Q 2150 -75 1597 -75 
Q 994 -75 656 303 
Q 388 606 388 966 
Q 388 1247 577 1523 
Q 766 1800 1228 2134 
z
M 1719 2469 
Q 2094 2806 2194 3001 
Q 2294 3197 2294 3444 
Q 2294 3772 2109 3958 
Q 1925 4144 1606 4144 
Q 1288 4144 1088 3959 
Q 888 3775 888 3528 
Q 888 3366 970 3203 
Q 1053 3041 1206 2894 
L 1719 2469 
z
M 1375 2016 
Q 1116 1797 991 1539 
Q 866 1281 866 981 
Q 866 578 1086 336 
Q 1306 94 1647 94 
Q 1984 94 2187 284 
Q 2391 475 2391 747 
Q 2391 972 2272 1150 
Q 2050 1481 1375 2016 
z
" transform="scale(0.015625)"/>
       </defs>
       <use xlink:href="#TimesNewRomanPSMT-30"/>
       <use xlink:href="#TimesNewRomanPSMT-2e" transform="translate(50 0)"/>
       <use xlink:href="#TimesNewRomanPSMT-39" transform="translate(75 0)"/>
       <use xlink:href="#TimesNewRomanPSMT-39" transform="translate(125 0)"/>
       <use xlink:href="#TimesNewRomanPSMT-38" transform="translate(175 0)"/>
       <use xlink:href="#TimesNewRomanPSMT-30" transform="translate(225 0)"/>
      </g>
     </g>
    </g>
    <g id="ytick_7">
     <g id="line2d_31">
      <path d="M 56.900625 98.99192 
L 614.900625 98.99192 
" clip-path="url(#p54146470ff)" style="fill: none; stroke-dasharray: 1.85,0.8; stroke-dashoffset: 0; stroke: #e0deda; stroke-opacity: 0.8; stroke-width: 0.5"/>
     </g>
     <g id="line2d_32">
      <g>
       <use xlink:href="#m556a7419af" x="56.900625" y="98.99192" style="stroke: #000000; stroke-width: 0.8"/>
      </g>
     </g>
     <g id="text_17">
      <!-- 0.9985 -->
      <g transform="translate(21.900625 102.463795) scale(0.1 -0.1)">
       <use xlink:href="#TimesNewRomanPSMT-30"/>
       <use xlink:href="#TimesNewRomanPSMT-2e" transform="translate(50 0)"/>
       <use xlink:href="#TimesNewRomanPSMT-39" transform="translate(75 0)"/>
       <use xlink:href="#TimesNewRomanPSMT-39" transform="translate(125 0)"/>
       <use xlink:href="#TimesNewRomanPSMT-38" transform="translate(175 0)"/>
       <use xlink:href="#TimesNewRomanPSMT-35" transform="translate(225 0)"/>
      </g>
     </g>
    </g>
    <g id="ytick_8">
     <g id="line2d_33">
      <path d="M 56.900625 67.173739 
L 614.900625 67.173739 
" clip-path="url(#p54146470ff)" style="fill: none; stroke-dasharray: 1.85,0.8; stroke-dashoffset: 0; stroke: #e0deda; stroke-opacity: 0.8; stroke-width: 0.5"/>
     </g>
     <g id="line2d_34">
      <g>
       <use xlink:href="#m556a7419af" x="56.900625" y="67.173739" style="stroke: #000000; stroke-width: 0.8"/>
      </g>
     </g>
     <g id="text_18">
      <!-- 0.9990 -->
      <g transform="translate(21.900625 70.645614) scale(0.1 -0.1)">
       <use xlink:href="#TimesNewRomanPSMT-30"/>
       <use xlink:href="#TimesNewRomanPSMT-2e" transform="translate(50 0)"/>
       <use xlink:href="#TimesNewRomanPSMT-39" transform="translate(75 0)"/>
       <use xlink:href="#TimesNewRomanPSMT-39" transform="translate(125 0)"/>
       <use xlink:href="#TimesNewRomanPSMT-39" transform="translate(175 0)"/>
       <use xlink:href="#TimesNewRomanPSMT-30" transform="translate(225 0)"/>
      </g>
     </g>
    </g>
    <g id="ytick_9">
     <g id="line2d_35">
      <path d="M 56.900625 35.355557 
L 614.900625 35.355557 
" clip-path="url(#p54146470ff)" style="fill: none; stroke-dasharray: 1.85,0.8; stroke-dashoffset: 0; stroke: #e0deda; stroke-opacity: 0.8; stroke-width: 0.5"/>
     </g>
     <g id="line2d_36">
      <g>
       <use xlink:href="#m556a7419af" x="56.900625" y="35.355557" style="stroke: #000000; stroke-width: 0.8"/>
      </g>
     </g>
     <g id="text_19">
      <!-- 0.9995 -->
      <g transform="translate(21.900625 38.827432) scale(0.1 -0.1)">
       <use xlink:href="#TimesNewRomanPSMT-30"/>
       <use xlink:href="#TimesNewRomanPSMT-2e" transform="translate(50 0)"/>
       <use xlink:href="#TimesNewRomanPSMT-39" transform="translate(75 0)"/>
       <use xlink:href="#TimesNewRomanPSMT-39" transform="translate(125 0)"/>
       <use xlink:href="#TimesNewRomanPSMT-39" transform="translate(175 0)"/>
       <use xlink:href="#TimesNewRomanPSMT-35" transform="translate(225 0)"/>
      </g>
     </g>
    </g>
    <g id="text_20">
     <!-- Epsilon (Exploration) -->
     <g transform="translate(15.33375 216.799688) rotate(-90) scale(0.12 -0.12)">
      <defs>
       <path id="TimesNewRomanPS-BoldMT-45" d="M 1744 3994 
L 1744 2269 
L 1828 2269 
Q 2231 2269 2412 2522 
Q 2594 2775 2644 3269 
L 2763 3269 
L 2763 1050 
L 2644 1050 
Q 2606 1413 2486 1644 
Q 2366 1875 2206 1954 
Q 2047 2034 1744 2034 
L 1744 841 
Q 1744 491 1773 412 
Q 1803 334 1884 284 
Q 1966 234 2147 234 
L 2400 234 
Q 2994 234 3351 509 
Q 3709 784 3866 1347 
L 3981 1347 
L 3791 0 
L 128 0 
L 128 116 
L 269 116 
Q 453 116 566 181 
Q 647 225 691 331 
Q 725 406 725 725 
L 725 3513 
Q 725 3800 709 3866 
Q 678 3975 594 4034 
Q 475 4122 269 4122 
L 128 4122 
L 128 4238 
L 3675 4238 
L 3675 2984 
L 3556 2984 
Q 3466 3444 3302 3644 
Q 3138 3844 2838 3938 
Q 2663 3994 2181 3994 
L 1744 3994 
z
" transform="scale(0.015625)"/>
       <path id="TimesNewRomanPS-BoldMT-6c" d="M 1359 4238 
L 1359 606 
Q 1359 297 1431 211 
Q 1503 125 1713 113 
L 1713 0 
L 134 0 
L 134 113 
Q 328 119 422 225 
Q 484 297 484 606 
L 484 3631 
Q 484 3938 412 4023 
Q 341 4109 134 4122 
L 134 4238 
L 1359 4238 
z
" transform="scale(0.015625)"/>
       <path id="TimesNewRomanPS-BoldMT-6f" d="M 1594 3009 
Q 1975 3009 2303 2812 
Q 2631 2616 2801 2253 
Q 2972 1891 2972 1459 
Q 2972 838 2656 419 
Q 2275 -88 1603 -88 
Q 944 -88 587 375 
Q 231 838 231 1447 
Q 231 2075 595 2542 
Q 959 3009 1594 3009 
z
M 1606 2788 
Q 1447 2788 1333 2667 
Q 1219 2547 1183 2192 
Q 1147 1838 1147 1206 
Q 1147 872 1191 581 
Q 1225 359 1337 243 
Q 1450 128 1594 128 
Q 1734 128 1828 206 
Q 1950 313 1991 503 
Q 2053 800 2053 1703 
Q 2053 2234 1993 2432 
Q 1934 2631 1819 2722 
Q 1738 2788 1606 2788 
z
" transform="scale(0.015625)"/>
       <path id="TimesNewRomanPS-BoldMT-28" d="M 2056 4334 
L 2056 4191 
Q 1731 3978 1578 3775 
Q 1366 3494 1247 3053 
Q 1097 2506 1097 1525 
Q 1097 600 1233 87 
Q 1369 -425 1603 -741 
Q 1766 -959 2056 -1125 
L 2056 -1281 
Q 1303 -1028 779 -248 
Q 256 531 256 1544 
Q 256 2544 778 3314 
Q 1300 4084 2056 4334 
z
" transform="scale(0.015625)"/>
       <path id="TimesNewRomanPS-BoldMT-78" d="M 1944 1791 
L 2450 828 
Q 2713 325 2866 191 
Q 2950 119 3097 113 
L 3097 0 
L 1469 0 
L 1469 113 
Q 1659 128 1704 162 
Q 1750 197 1750 256 
Q 1750 344 1650 531 
L 1397 1006 
L 1181 691 
Q 1034 475 1016 434 
Q 991 375 991 328 
Q 991 256 1020 207 
Q 1050 159 1101 136 
Q 1153 113 1291 113 
L 1291 0 
L 147 0 
L 147 113 
Q 359 113 536 230 
Q 713 347 1050 844 
L 1291 1200 
L 788 2131 
Q 541 2588 419 2691 
Q 297 2794 147 2806 
L 147 2922 
L 1766 2922 
L 1766 2806 
L 1681 2803 
L 1519 2747 
Q 1494 2725 1494 2675 
Q 1494 2628 1509 2578 
Q 1519 2556 1597 2409 
L 1825 1984 
L 1944 2153 
Q 2194 2497 2194 2634 
Q 2194 2700 2139 2745 
Q 2084 2791 1944 2806 
L 1944 2922 
L 2978 2922 
L 2978 2806 
Q 2788 2800 2622 2689 
Q 2456 2578 2250 2259 
L 1944 1791 
z
" transform="scale(0.015625)"/>
       <path id="TimesNewRomanPS-BoldMT-29" d="M 78 -1281 
L 78 -1138 
Q 403 -922 556 -719 
Q 766 -438 888 0 
Q 1038 550 1038 1531 
Q 1038 2456 902 2967 
Q 766 3478 531 3794 
Q 369 4013 78 4178 
L 78 4334 
Q 831 4081 1354 3301 
Q 1878 2522 1878 1509 
Q 1878 513 1354 -257 
Q 831 -1028 78 -1281 
z
" transform="scale(0.015625)"/>
      </defs>
      <use xlink:href="#TimesNewRomanPS-BoldMT-45"/>
      <use xlink:href="#TimesNewRomanPS-BoldMT-70" transform="translate(66.699219 0)"/>
      <use xlink:href="#TimesNewRomanPS-BoldMT-73" transform="translate(122.314453 0)"/>
      <use xlink:href="#TimesNewRomanPS-BoldMT-69" transform="translate(161.230469 0)"/>
      <use xlink:href="#TimesNewRomanPS-BoldMT-6c" transform="translate(189.013672 0)"/>
      <use xlink:href="#TimesNewRomanPS-BoldMT-6f" transform="translate(216.796875 0)"/>
      <use xlink:href="#TimesNewRomanPS-BoldMT-6e" transform="translate(266.796875 0)"/>
      <use xlink:href="#TimesNewRomanPS-BoldMT-20" transform="translate(322.412109 0)"/>
      <use xlink:href="#TimesNewRomanPS-BoldMT-28" transform="translate(347.412109 0)"/>
      <use xlink:href="#TimesNewRomanPS-BoldMT-45" transform="translate(380.712891 0)"/>
      <use xlink:href="#TimesNewRomanPS-BoldMT-78" transform="translate(447.412109 0)"/>
      <use xlink:href="#TimesNewRomanPS-BoldMT-70" transform="translate(497.412109 0)"/>
      <use xlink:href="#TimesNewRomanPS-BoldMT-6c" transform="translate(553.027344 0)"/>
      <use xlink:href="#TimesNewRomanPS-BoldMT-6f" transform="translate(580.810547 0)"/>
      <use xlink:href="#TimesNewRomanPS-BoldMT-72" transform="translate(630.810547 0)"/>
      <use xlink:href="#TimesNewRomanPS-BoldMT-61" transform="translate(675.195312 0)"/>
      <use xlink:href="#TimesNewRomanPS-BoldMT-74" transform="translate(725.195312 0)"/>
      <use xlink:href="#TimesNewRomanPS-BoldMT-69" transform="translate(758.496094 0)"/>
      <use xlink:href="#TimesNewRomanPS-BoldMT-6f" transform="translate(786.279297 0)"/>
      <use xlink:href="#TimesNewRomanPS-BoldMT-6e" transform="translate(836.279297 0)"/>
      <use xlink:href="#TimesNewRomanPS-BoldMT-29" transform="translate(891.894531 0)"/>
     </g>
    </g>
   </g>
   <g id="line2d_37">
    <path d="M 82.264261 35.289375 
L 209.082443 98.289375 
L 335.900625 161.289375 
L 462.718807 224.289375 
L 589.536989 287.289375 
L 82.264261 35.289375 
L 82.264261 35.289375 
L 82.264261 35.289375 
L 209.082443 98.289375 
L 335.900625 161.289375 
L 462.718807 224.289375 
L 589.536989 287.289375 
L 82.264261 35.289375 
L 82.264261 35.289375 
L 209.082443 98.289375 
L 335.900625 161.289375 
L 462.718807 224.289375 
L 589.536989 287.289375 
L 82.264261 35.289375 
L 209.082443 98.289375 
L 209.082443 98.289375 
L 335.900625 161.289375 
L 462.718807 224.289375 
L 589.536989 287.289375 
L 82.264261 35.289375 
L 209.082443 98.289375 
L 335.900625 161.289375 
L 462.718807 224.289375 
L 589.536989 287.289375 
L 335.900625 161.289375 
L 462.718807 224.289375 
L 589.536989 287.289375 
L 82.264261 35.289375 
L 209.082443 98.289375 
L 335.900625 161.289375 
L 462.718807 224.289375 
L 589.536989 287.289375 
L 82.264261 35.289375 
L 209.082443 98.289375 
L 335.900625 161.289375 
L 462.718807 224.289375 
L 589.536989 287.289375 
L 82.264261 35.289375 
L 209.082443 98.289375 
L 335.900625 161.289375 
L 462.718807 224.289375 
L 589.536989 287.289375 
L 82.264261 35.289375 
L 209.082443 98.289375 
L 335.900625 161.289375 
L 462.718807 224.289375 
L 589.536989 287.289375 
" clip-path="url(#p54146470ff)" style="fill: none; stroke: #2e5090; stroke-opacity: 0.9; stroke-width: 2; stroke-linecap: square"/>
    <defs>
     <path id="m50aeae95e5" d="M 0 2.5 
C 0.663008 2.5 1.29895 2.236584 1.767767 1.767767 
C 2.236584 1.29895 2.5 0.663008 2.5 0 
C 2.5 -0.663008 2.236584 -1.29895 1.767767 -1.767767 
C 1.29895 -2.236584 0.663008 -2.5 0 -2.5 
C -0.663008 -2.5 -1.29895 -2.236584 -1.767767 -1.767767 
C -2.236584 -1.29895 -2.5 -0.663008 -2.5 0 
C -2.5 0.663008 -2.236584 1.29895 -1.767767 1.767767 
C -1.29895 2.236584 -0.663008 2.5 0 2.5 
z
" style="stroke: #ffffff; stroke-opacity: 0.9"/>
    </defs>
    <g clip-path="url(#p54146470ff)">
     <use xlink:href="#m50aeae95e5" x="82.264261" y="35.289375" style="fill: #2e5090; fill-opacity: 0.9; stroke: #ffffff; stroke-opacity: 0.9"/>
     <use xlink:href="#m50aeae95e5" x="209.082443" y="98.289375" style="fill: #2e5090; fill-opacity: 0.9; stroke: #ffffff; stroke-opacity: 0.9"/>
     <use xlink:href="#m50aeae95e5" x="335.900625" y="161.289375" style="fill: #2e5090; fill-opacity: 0.9; stroke: #ffffff; stroke-opacity: 0.9"/>
     <use xlink:href="#m50aeae95e5" x="462.718807" y="224.289375" style="fill: #2e5090; fill-opacity: 0.9; stroke: #ffffff; stroke-opacity: 0.9"/>
     <use xlink:href="#m50aeae95e5" x="589.536989" y="287.289375" style="fill: #2e5090; fill-opacity: 0.9; stroke: #ffffff; stroke-opacity: 0.9"/>
     <use xlink:href="#m50aeae95e5" x="82.264261" y="35.289375" style="fill: #2e5090; fill-opacity: 0.9; stroke: #ffffff; stroke-opacity: 0.9"/>
     <use xlink:href="#m50aeae95e5" x="82.264261" y="35.289375" style="fill: #2e5090; fill-opacity: 0.9; stroke: #ffffff; stroke-opacity: 0.9"/>
     <use xlink:href="#m50aeae95e5" x="82.264261" y="35.289375" style="fill: #2e5090; fill-opacity: 0.9; stroke: #ffffff; stroke-opacity: 0.9"/>
     <use xlink:href="#m50aeae95e5" x="209.082443" y="98.289375" style="fill: #2e5090; fill-opacity: 0.9; stroke: #ffffff; stroke-opacity: 0.9"/>
     <use xlink:href="#m50aeae95e5" x="335.900625" y="161.289375" style="fill: #2e5090; fill-opacity: 0.9; stroke: #ffffff; stroke-opacity: 0.9"/>
     <use xlink:href="#m50aeae95e5" x="462.718807" y="224.289375" style="fill: #2e5090; fill-opacity: 0.9; stroke: #ffffff; stroke-opacity: 0.9"/>
     <use xlink:href="#m50aeae95e5" x="589.536989" y="287.289375" style="fill: #2e5090; fill-opacity: 0.9; stroke: #ffffff; stroke-opacity: 0.9"/>
     <use xlink:href="#m50aeae95e5" x="82.264261" y="35.289375" style="fill: #2e5090; fill-opacity: 0.9; stroke: #ffffff; stroke-opacity: 0.9"/>
     <use xlink:href="#m50aeae95e5" x="82.264261" y="35.289375" style="fill: #2e5090; fill-opacity: 0.9; stroke: #ffffff; stroke-opacity: 0.9"/>
     <use xlink:href="#m50aeae95e5" x="209.082443" y="98.289375" style="fill: #2e5090; fill-opacity: 0.9; stroke: #ffffff; stroke-opacity: 0.9"/>
     <use xlink:href="#m50aeae95e5" x="335.900625" y="161.289375" style="fill: #2e5090; fill-opacity: 0.9; stroke: #ffffff; stroke-opacity: 0.9"/>
     <use xlink:href="#m50aeae95e5" x="462.718807" y="224.289375" style="fill: #2e5090; fill-opacity: 0.9; stroke: #ffffff; stroke-opacity: 0.9"/>
     <use xlink:href="#m50aeae95e5" x="589.536989" y="287.289375" style="fill: #2e5090; fill-opacity: 0.9; stroke: #ffffff; stroke-opacity: 0.9"/>
     <use xlink:href="#m50aeae95e5" x="82.264261" y="35.289375" style="fill: #2e5090; fill-opacity: 0.9; stroke: #ffffff; stroke-opacity: 0.9"/>
     <use xlink:href="#m50aeae95e5" x="209.082443" y="98.289375" style="fill: #2e5090; fill-opacity: 0.9; stroke: #ffffff; stroke-opacity: 0.9"/>
     <use xlink:href="#m50aeae95e5" x="209.082443" y="98.289375" style="fill: #2e5090; fill-opacity: 0.9; stroke: #ffffff; stroke-opacity: 0.9"/>
     <use xlink:href="#m50aeae95e5" x="335.900625" y="161.289375" style="fill: #2e5090; fill-opacity: 0.9; stroke: #ffffff; stroke-opacity: 0.9"/>
     <use xlink:href="#m50aeae95e5" x="462.718807" y="224.289375" style="fill: #2e5090; fill-opacity: 0.9; stroke: #ffffff; stroke-opacity: 0.9"/>
     <use xlink:href="#m50aeae95e5" x="589.536989" y="287.289375" style="fill: #2e5090; fill-opacity: 0.9; stroke: #ffffff; stroke-opacity: 0.9"/>
     <use xlink:href="#m50aeae95e5" x="82.264261" y="35.289375" style="fill: #2e5090; fill-opacity: 0.9; stroke: #ffffff; stroke-opacity: 0.9"/>
     <use xlink:href="#m50aeae95e5" x="209.082443" y="98.289375" style="fill: #2e5090; fill-opacity: 0.9; stroke: #ffffff; stroke-opacity: 0.9"/>
     <use xlink:href="#m50aeae95e5" x="335.900625" y="161.289375" style="fill: #2e5090; fill-opacity: 0.9; stroke: #ffffff; stroke-opacity: 0.9"/>
     <use xlink:href="#m50aeae95e5" x="462.718807" y="224.289375" style="fill: #2e5090; fill-opacity: 0.9; stroke: #ffffff; stroke-opacity: 0.9"/>
     <use xlink:href="#m50aeae95e5" x="589.536989" y="287.289375" style="fill: #2e5090; fill-opacity: 0.9; stroke: #ffffff; stroke-opacity: 0.9"/>
     <use xlink:href="#m50aeae95e5" x="335.900625" y="161.289375" style="fill: #2e5090; fill-opacity: 0.9; stroke: #ffffff; stroke-opacity: 0.9"/>
     <use xlink:href="#m50aeae95e5" x="462.718807" y="224.289375" style="fill: #2e5090; fill-opacity: 0.9; stroke: #ffffff; stroke-opacity: 0.9"/>
     <use xlink:href="#m50aeae95e5" x="589.536989" y="287.289375" style="fill: #2e5090; fill-opacity: 0.9; stroke: #ffffff; stroke-opacity: 0.9"/>
     <use xlink:href="#m50aeae95e5" x="82.264261" y="35.289375" style="fill: #2e5090; fill-opacity: 0.9; stroke: #ffffff; stroke-opacity: 0.9"/>
     <use xlink:href="#m50aeae95e5" x="209.082443" y="98.289375" style="fill: #2e5090; fill-opacity: 0.9; stroke: #ffffff; stroke-opacity: 0.9"/>
     <use xlink:href="#m50aeae95e5" x="335.900625" y="161.289375" style="fill: #2e5090; fill-opacity: 0.9; stroke: #ffffff; stroke-opacity: 0.9"/>
     <use xlink:href="#m50aeae95e5" x="462.718807" y="224.289375" style="fill: #2e5090; fill-opacity: 0.9; stroke: #ffffff; stroke-opacity: 0.9"/>
     <use xlink:href="#m50aeae95e5" x="589.536989" y="287.289375" style="fill: #2e5090; fill-opacity: 0.9; stroke: #ffffff; stroke-opacity: 0.9"/>
     <use xlink:href="#m50aeae95e5" x="82.264261" y="35.289375" style="fill: #2e5090; fill-opacity: 0.9; stroke: #ffffff; stroke-opacity: 0.9"/>
     <use xlink:href="#m50aeae95e5" x="209.082443" y="98.289375" style="fill: #2e5090; fill-opacity: 0.9; stroke: #ffffff; stroke-opacity: 0.9"/>
     <use xlink:href="#m50aeae95e5" x="335.900625" y="161.289375" style="fill: #2e5090; fill-opacity: 0.9; stroke: #ffffff; stroke-opacity: 0.9"/>
     <use xlink:href="#m50aeae95e5" x="462.718807" y="224.289375" style="fill: #2e5090; fill-opacity: 0.9; stroke: #ffffff; stroke-opacity: 0.9"/>
     <use xlink:href="#m50aeae95e5" x="589.536989" y="287.289375" style="fill: #2e5090; fill-opacity: 0.9; stroke: #ffffff; stroke-opacity: 0.9"/>
     <use xlink:href="#m50aeae95e5" x="82.264261" y="35.289375" style="fill: #2e5090; fill-opacity: 0.9; stroke: #ffffff; stroke-opacity: 0.9"/>
     <use xlink:href="#m50aeae95e5" x="209.082443" y="98.289375" style="fill: #2e5090; fill-opacity: 0.9; stroke: #ffffff; stroke-opacity: 0.9"/>
     <use xlink:href="#m50aeae95e5" x="335.900625" y="161.289375" style="fill: #2e5090; fill-opacity: 0.9; stroke: #ffffff; stroke-opacity: 0.9"/>
     <use xlink:href="#m50aeae95e5" x="462.718807" y="224.289375" style="fill: #2e5090; fill-opacity: 0.9; stroke: #ffffff; stroke-opacity: 0.9"/>
     <use xlink:href="#m50aeae95e5" x="589.536989" y="287.289375" style="fill: #2e5090; fill-opacity: 0.9; stroke: #ffffff; stroke-opacity: 0.9"/>
     <use xlink:href="#m50aeae95e5" x="82.264261" y="35.289375" style="fill: #2e5090; fill-opacity: 0.9; stroke: #ffffff; stroke-opacity: 0.9"/>
     <use xlink:href="#m50aeae95e5" x="209.082443" y="98.289375" style="fill: #2e5090; fill-opacity: 0.9; stroke: #ffffff; stroke-opacity: 0.9"/>
     <use xlink:href="#m50aeae95e5" x="335.900625" y="161.289375" style="fill: #2e5090; fill-opacity: 0.9; stroke: #ffffff; stroke-opacity: 0.9"/>
     <use xlink:href="#m50aeae95e5" x="462.718807" y="224.289375" style="fill: #2e5090; fill-opacity: 0.9; stroke: #ffffff; stroke-opacity: 0.9"/>
     <use xlink:href="#m50aeae95e5" x="589.536989" y="287.289375" style="fill: #2e5090; fill-opacity: 0.9; stroke: #ffffff; stroke-opacity: 0.9"/>
    </g>
   </g>
   <g id="patch_3">
    <path d="M 56.900625 299.889375 
L 56.900625 22.689375 
" style="fill: none; stroke: #2c2c2c; stroke-linejoin: miter; stroke-linecap: square"/>
   </g>
   <g id="patch_4">
    <path d="M 56.900625 299.889375 
L 614.900625 299.889375 
" style="fill: none; stroke: #2c2c2c; stroke-linejoin: miter; stroke-linecap: square"/>
   </g>
   <g id="text_21">
    <!-- Epsilon Decay During Expert Training -->
    <g transform="translate(220.249687 16.689375) scale(0.14 -0.14)">
     <defs>
      <path id="TimesNewRomanPS-BoldMT-44" d="M 84 0 
L 84 116 
L 225 116 
Q 409 116 507 173 
Q 606 231 653 331 
Q 681 397 681 725 
L 681 3513 
Q 681 3838 647 3919 
Q 613 4000 508 4061 
Q 403 4122 225 4122 
L 84 4122 
L 84 4238 
L 1981 4238 
Q 2741 4238 3203 4031 
Q 3769 3778 4061 3265 
Q 4353 2753 4353 2106 
Q 4353 1659 4209 1282 
Q 4066 906 3837 661 
Q 3609 416 3311 267 
Q 3013 119 2581 38 
Q 2391 0 1981 0 
L 84 0 
z
M 1700 3997 
L 1700 691 
Q 1700 428 1725 368 
Q 1750 309 1809 278 
Q 1894 231 2053 231 
Q 2575 231 2850 588 
Q 3225 1069 3225 2081 
Q 3225 2897 2969 3384 
Q 2766 3766 2447 3903 
Q 2222 4000 1700 3997 
z
" transform="scale(0.015625)"/>
      <path id="TimesNewRomanPS-BoldMT-63" d="M 2600 753 
L 2697 678 
Q 2491 291 2183 101 
Q 1875 -88 1528 -88 
Q 944 -88 594 353 
Q 244 794 244 1413 
Q 244 2009 563 2463 
Q 947 3009 1622 3009 
Q 2075 3009 2342 2781 
Q 2609 2553 2609 2272 
Q 2609 2094 2501 1987 
Q 2394 1881 2219 1881 
Q 2034 1881 1914 2003 
Q 1794 2125 1766 2438 
Q 1747 2634 1675 2713 
Q 1603 2791 1506 2791 
Q 1356 2791 1250 2631 
Q 1088 2391 1088 1894 
Q 1088 1481 1219 1104 
Q 1350 728 1578 544 
Q 1750 409 1984 409 
Q 2138 409 2275 481 
Q 2413 553 2600 753 
z
" transform="scale(0.015625)"/>
      <path id="TimesNewRomanPS-BoldMT-79" d="M 1556 -119 
L 613 2047 
Q 400 2538 298 2650 
Q 197 2763 53 2806 
L 53 2922 
L 1606 2922 
L 1606 2806 
Q 1453 2800 1390 2747 
Q 1328 2694 1328 2619 
Q 1328 2500 1484 2150 
L 1984 1006 
L 2325 1891 
Q 2509 2363 2509 2547 
Q 2509 2663 2432 2731 
Q 2356 2800 2163 2806 
L 2163 2922 
L 3141 2922 
L 3141 2806 
Q 2997 2791 2906 2695 
Q 2816 2600 2603 2047 
L 1769 -119 
Q 1453 -931 1300 -1119 
Q 1084 -1381 759 -1381 
Q 500 -1381 339 -1232 
Q 178 -1084 178 -875 
Q 178 -694 289 -575 
Q 400 -456 563 -456 
Q 719 -456 814 -556 
Q 909 -656 913 -866 
Q 916 -984 941 -1019 
Q 966 -1053 1013 -1053 
Q 1088 -1053 1172 -963 
Q 1297 -831 1466 -363 
L 1556 -119 
z
" transform="scale(0.015625)"/>
      <path id="TimesNewRomanPS-BoldMT-75" d="M 3038 2922 
L 3038 634 
Q 3038 300 3100 217 
Q 3163 134 3353 113 
L 3353 0 
L 2163 0 
L 2163 391 
Q 1953 141 1743 26 
Q 1534 -88 1275 -88 
Q 1028 -88 836 64 
Q 644 216 578 419 
Q 513 622 513 1128 
L 513 2288 
Q 513 2619 452 2700 
Q 391 2781 197 2806 
L 197 2922 
L 1388 2922 
L 1388 925 
Q 1388 613 1417 522 
Q 1447 431 1511 384 
Q 1575 338 1659 338 
Q 1772 338 1863 397 
Q 1988 478 2163 725 
L 2163 2288 
Q 2163 2619 2102 2700 
Q 2041 2781 1847 2806 
L 1847 2922 
L 3038 2922 
z
" transform="scale(0.015625)"/>
     </defs>
     <use xlink:href="#TimesNewRomanPS-BoldMT-45"/>
     <use xlink:href="#TimesNewRomanPS-BoldMT-70" transform="translate(66.699219 0)"/>
     <use xlink:href="#TimesNewRomanPS-BoldMT-73" transform="translate(122.314453 0)"/>
     <use xlink:href="#TimesNewRomanPS-BoldMT-69" transform="translate(161.230469 0)"/>
     <use xlink:href="#TimesNewRomanPS-BoldMT-6c" transform="translate(189.013672 0)"/>
     <use xlink:href="#TimesNewRomanPS-BoldMT-6f" transform="translate(216.796875 0)"/>
     <use xlink:href="#TimesNewRomanPS-BoldMT-6e" transform="translate(266.796875 0)"/>
     <use xlink:href="#TimesNewRomanPS-BoldMT-20" transform="translate(322.412109 0)"/>
     <use xlink:href="#TimesNewRomanPS-BoldMT-44" transform="translate(347.412109 0)"/>
     <use xlink:href="#TimesNewRomanPS-BoldMT-65" transform="translate(419.628906 0)"/>
     <use xlink:href="#TimesNewRomanPS-BoldMT-63" transform="translate(464.013672 0)"/>
     <use xlink:href="#TimesNewRomanPS-BoldMT-61" transform="translate(508.398438 0)"/>
     <use xlink:href="#TimesNewRomanPS-BoldMT-79" transform="translate(558.398438 0)"/>
     <use xlink:href="#TimesNewRomanPS-BoldMT-20" transform="translate(608.398438 0)"/>
     <use xlink:href="#TimesNewRomanPS-BoldMT-44" transform="translate(633.398438 0)"/>
     <use xlink:href="#TimesNewRomanPS-BoldMT-75" transform="translate(705.615234 0)"/>
     <use xlink:href="#TimesNewRomanPS-BoldMT-72" transform="translate(761.230469 0)"/>
     <use xlink:href="#TimesNewRomanPS-BoldMT-69" transform="translate(805.615234 0)"/>
     <use xlink:href="#TimesNewRomanPS-BoldMT-6e" transform="translate(833.398438 0)"/>
     <use xlink:href="#TimesNewRomanPS-BoldMT-67" transform="translate(889.013672 0)"/>
     <use xlink:href="#TimesNewRomanPS-BoldMT-20" transform="translate(939.013672 0)"/>
     <use xlink:href="#TimesNewRomanPS-BoldMT-45" transform="translate(964.013672 0)"/>
     <use xlink:href="#TimesNewRomanPS-BoldMT-78" transform="translate(1030.712891 0)"/>
     <use xlink:href="#TimesNewRomanPS-BoldMT-70" transform="translate(1080.712891 0)"/>
     <use xlink:href="#TimesNewRomanPS-BoldMT-65" transform="translate(1136.328125 0)"/>
     <use xlink:href="#TimesNewRomanPS-BoldMT-72" transform="translate(1180.712891 0)"/>
     <use xlink:href="#TimesNewRomanPS-BoldMT-74" transform="translate(1225.097656 0)"/>
     <use xlink:href="#TimesNewRomanPS-BoldMT-20" transform="translate(1258.398438 0)"/>
     <use xlink:href="#TimesNewRomanPS-BoldMT-54" transform="translate(1281.648438 0)"/>
     <use xlink:href="#TimesNewRomanPS-BoldMT-72" transform="translate(1340.972656 0)"/>
     <use xlink:href="#TimesNewRomanPS-BoldMT-61" transform="translate(1385.357422 0)"/>
     <use xlink:href="#TimesNewRomanPS-BoldMT-69" transform="translate(1435.357422 0)"/>
     <use xlink:href="#TimesNewRomanPS-BoldMT-6e" transform="translate(1463.140625 0)"/>
     <use xlink:href="#TimesNewRomanPS-BoldMT-69" transform="translate(1518.755859 0)"/>
     <use xlink:href="#TimesNewRomanPS-BoldMT-6e" transform="translate(1546.539062 0)"/>
     <use xlink:href="#TimesNewRomanPS-BoldMT-67" transform="translate(1602.154297 0)"/>
    </g>
   </g>
   <g id="legend_1">
    <g id="patch_5">
     <path d="M 555.339687 44.847188 
L 607.900625 44.847188 
Q 609.900625 44.847188 609.900625 42.847188 
L 609.900625 29.689375 
Q 609.900625 27.689375 607.900625 27.689375 
L 555.339687 27.689375 
Q 553.339687 27.689375 553.339687 29.689375 
L 553.339687 42.847188 
Q 553.339687 44.847188 555.339687 44.847188 
z
" style="fill: #fafaf8; opacity: 0.95; stroke: #cccccc; stroke-linejoin: miter"/>
    </g>
    <g id="line2d_38">
     <path d="M 557.339687 35.189375 
L 567.339687 35.189375 
L 577.339687 35.189375 
" style="fill: none; stroke: #2e5090; stroke-opacity: 0.9; stroke-width: 2; stroke-linecap: square"/>
     <g>
      <use xlink:href="#m50aeae95e5" x="567.339687" y="35.189375" style="fill: #2e5090; fill-opacity: 0.9; stroke: #ffffff; stroke-opacity: 0.9"/>
     </g>
    </g>
    <g id="text_22">
     <!-- Pong -->
     <g transform="translate(585.339687 38.689375) scale(0.1 -0.1)">
      <defs>
       <path id="TimesNewRomanPSMT-50" d="M 1313 1984 
L 1313 750 
Q 1313 350 1400 253 
Q 1519 116 1759 116 
L 1922 116 
L 1922 0 
L 106 0 
L 106 116 
L 266 116 
Q 534 116 650 291 
Q 713 388 713 750 
L 713 3488 
Q 713 3888 628 3984 
Q 506 4122 266 4122 
L 106 4122 
L 106 4238 
L 1659 4238 
Q 2228 4238 2556 4120 
Q 2884 4003 3109 3725 
Q 3334 3447 3334 3066 
Q 3334 2547 2992 2222 
Q 2650 1897 2025 1897 
Q 1872 1897 1694 1919 
Q 1516 1941 1313 1984 
z
M 1313 2163 
Q 1478 2131 1606 2115 
Q 1734 2100 1825 2100 
Q 2150 2100 2386 2351 
Q 2622 2603 2622 3003 
Q 2622 3278 2509 3514 
Q 2397 3750 2190 3867 
Q 1984 3984 1722 3984 
Q 1563 3984 1313 3925 
L 1313 2163 
z
" transform="scale(0.015625)"/>
       <path id="TimesNewRomanPSMT-6f" d="M 1600 2947 
Q 2250 2947 2644 2453 
Q 2978 2031 2978 1484 
Q 2978 1100 2793 706 
Q 2609 313 2286 112 
Q 1963 -88 1566 -88 
Q 919 -88 538 428 
Q 216 863 216 1403 
Q 216 1797 411 2186 
Q 606 2575 925 2761 
Q 1244 2947 1600 2947 
z
M 1503 2744 
Q 1338 2744 1170 2645 
Q 1003 2547 900 2300 
Q 797 2053 797 1666 
Q 797 1041 1045 587 
Q 1294 134 1700 134 
Q 2003 134 2200 384 
Q 2397 634 2397 1244 
Q 2397 2006 2069 2444 
Q 1847 2744 1503 2744 
z
" transform="scale(0.015625)"/>
       <path id="TimesNewRomanPSMT-6e" d="M 1034 2341 
Q 1538 2947 1994 2947 
Q 2228 2947 2397 2830 
Q 2566 2713 2666 2444 
Q 2734 2256 2734 1869 
L 2734 647 
Q 2734 375 2778 278 
Q 2813 200 2889 156 
Q 2966 113 3172 113 
L 3172 0 
L 1756 0 
L 1756 113 
L 1816 113 
Q 2016 113 2095 173 
Q 2175 234 2206 353 
Q 2219 400 2219 647 
L 2219 1819 
Q 2219 2209 2117 2386 
Q 2016 2563 1775 2563 
Q 1403 2563 1034 2156 
L 1034 647 
Q 1034 356 1069 288 
Q 1113 197 1189 155 
Q 1266 113 1500 113 
L 1500 0 
L 84 0 
L 84 113 
L 147 113 
Q 366 113 442 223 
Q 519 334 519 647 
L 519 1709 
Q 519 2225 495 2337 
Q 472 2450 423 2490 
Q 375 2531 294 2531 
Q 206 2531 84 2484 
L 38 2597 
L 900 2947 
L 1034 2947 
L 1034 2341 
z
" transform="scale(0.015625)"/>
       <path id="TimesNewRomanPSMT-67" d="M 966 1044 
Q 703 1172 562 1401 
Q 422 1631 422 1909 
Q 422 2334 742 2640 
Q 1063 2947 1563 2947 
Q 1972 2947 2272 2747 
L 2878 2747 
Q 3013 2747 3034 2739 
Q 3056 2731 3066 2713 
Q 3084 2684 3084 2613 
Q 3084 2531 3069 2500 
Q 3059 2484 3036 2475 
Q 3013 2466 2878 2466 
L 2506 2466 
Q 2681 2241 2681 1891 
Q 2681 1491 2375 1206 
Q 2069 922 1553 922 
Q 1341 922 1119 984 
Q 981 866 932 777 
Q 884 688 884 625 
Q 884 572 936 522 
Q 988 472 1138 450 
Q 1225 438 1575 428 
Q 2219 413 2409 384 
Q 2700 344 2873 169 
Q 3047 -6 3047 -263 
Q 3047 -616 2716 -925 
Q 2228 -1381 1444 -1381 
Q 841 -1381 425 -1109 
Q 191 -953 191 -784 
Q 191 -709 225 -634 
Q 278 -519 444 -313 
Q 466 -284 763 25 
Q 600 122 533 198 
Q 466 275 466 372 
Q 466 481 555 628 
Q 644 775 966 1044 
z
M 1509 2797 
Q 1278 2797 1122 2612 
Q 966 2428 966 2047 
Q 966 1553 1178 1281 
Q 1341 1075 1591 1075 
Q 1828 1075 1981 1253 
Q 2134 1431 2134 1813 
Q 2134 2309 1919 2591 
Q 1759 2797 1509 2797 
z
M 934 0 
Q 788 -159 713 -296 
Q 638 -434 638 -550 
Q 638 -700 819 -813 
Q 1131 -1006 1722 -1006 
Q 2284 -1006 2551 -807 
Q 2819 -609 2819 -384 
Q 2819 -222 2659 -153 
Q 2497 -84 2016 -72 
Q 1313 -53 934 0 
z
" transform="scale(0.015625)"/>
      </defs>
      <use xlink:href="#TimesNewRomanPSMT-50"/>
      <use xlink:href="#TimesNewRomanPSMT-6f" transform="translate(55.615234 0)"/>
      <use xlink:href="#TimesNewRomanPSMT-6e" transform="translate(105.615234 0)"/>
      <use xlink:href="#TimesNewRomanPSMT-67" transform="translate(155.615234 0)"/>
     </g>
    </g>
   </g>
  </g>
 </g>
 <defs>
  <clipPath id="p54146470ff">
   <rect x="56.900625" y="22.689375" width="558" height="277.2"/>
  </clipPath>
 </defs>
</svg>
