<?xml version="1.0" encoding="utf-8" standalone="no"?>
<!DOCTYPE svg PUBLIC "-//W3C//DTD SVG 1.1//EN"
  "http://www.w3.org/Graphics/SVG/1.1/DTD/svg11.dtd">
<svg xmlns:xlink="http://www.w3.org/1999/xlink" width="512.39952pt" height="332.39952pt" viewBox="0 0 512.39952 332.39952" xmlns="http://www.w3.org/2000/svg" version="1.1">
 <metadata>
  <rdf:RDF xmlns:dc="http://purl.org/dc/elements/1.1/" xmlns:cc="http://creativecommons.org/ns#" xmlns:rdf="http://www.w3.org/1999/02/22-rdf-syntax-ns#">
   <cc:Work>
    <dc:type rdf:resource="http://purl.org/dc/dcmitype/StillImage"/>
    <dc:date>2026-02-24T03:26:59.165721</dc:date>
    <dc:format>image/svg+xml</dc:format>
    <dc:creator>
     <cc:Agent>
      <dc:title>Matplotlib v3.10.8, https://matplotlib.org/</dc:title>
     </cc:Agent>
    </dc:creator>
   </cc:Work>
  </rdf:RDF>
 </metadata>
 <defs>
  <style type="text/css">*{stroke-linejoin: round; stroke-linecap: butt}</style>
 </defs>
 <g id="figure_1">
  <g id="patch_1">
   <path d="M 0 332.39952 
L 512.39952 332.39952 
L 512.39952 0 
L 0 0 
z
" style="fill: #ffffff"/>
  </g>
  <g id="axes_1">
   <g id="patch_2">
    <path d="M 41.599375 294.217332 
L 505.19952 294.217332 
L 505.19952 22.226875 
L 41.599375 22.226875 
z
" style="fill: #fafafa"/>
   </g>
   <g id="matplotlib.axis_1">
    <g id="xtick_1">
     <g id="line2d_1">
      <path d="M 58.414991 294.217332 
L 58.414991 22.226875 
" clip-path="url(#p66f4ed25e0)" style="fill: none; stroke: #e0e0e0; stroke-opacity: 0.7; stroke-width: 0.6; stroke-linecap: square"/>
     </g>
     <g id="line2d_2">
      <defs>
       <path id="m512a4a9178" d="M 0 0 
L 0 3.5 
" style="stroke: #000000"/>
      </defs>
      <g>
       <use xlink:href="#m512a4a9178" x="58.414991" y="294.217332" style="stroke: #000000"/>
      </g>
     </g>
     <g id="text_1">
      <!-- 0k -->
      <g transform="translate(53.414991 308.161082) scale(0.1 -0.1)">
       <defs>
        <path id="TimesNewRomanPSMT-30" d="M 231 2094 
Q 231 2819 450 3342 
Q 669 3866 1031 4122 
Q 1313 4325 1613 4325 
Q 2100 4325 2488 3828 
Q 2972 3213 2972 2159 
Q 2972 1422 2759 906 
Q 2547 391 2217 158 
Q 1888 -75 1581 -75 
Q 975 -75 572 641 
Q 231 1244 231 2094 
z
M 844 2016 
Q 844 1141 1059 588 
Q 1238 122 1591 122 
Q 1759 122 1940 273 
Q 2122 425 2216 781 
Q 2359 1319 2359 2297 
Q 2359 3022 2209 3506 
Q 2097 3866 1919 4016 
Q 1791 4119 1609 4119 
Q 1397 4119 1231 3928 
Q 1006 3669 925 3112 
Q 844 2556 844 2016 
z
" transform="scale(0.015625)"/>
        <path id="TimesNewRomanPSMT-6b" d="M 1047 4444 
L 1047 1594 
L 1775 2259 
Q 2006 2472 2044 2528 
Q 2069 2566 2069 2603 
Q 2069 2666 2017 2711 
Q 1966 2756 1847 2763 
L 1847 2863 
L 3091 2863 
L 3091 2763 
Q 2834 2756 2664 2684 
Q 2494 2613 2291 2428 
L 1556 1750 
L 2291 822 
Q 2597 438 2703 334 
Q 2853 188 2966 144 
Q 3044 113 3238 113 
L 3238 0 
L 1847 0 
L 1847 113 
Q 1966 116 2008 148 
Q 2050 181 2050 241 
Q 2050 313 1925 472 
L 1047 1594 
L 1047 644 
Q 1047 366 1086 278 
Q 1125 191 1197 153 
Q 1269 116 1509 113 
L 1509 0 
L 53 0 
L 53 113 
Q 272 113 381 166 
Q 447 200 481 272 
Q 528 375 528 628 
L 528 3234 
Q 528 3731 506 3842 
Q 484 3953 434 3995 
Q 384 4038 303 4038 
Q 238 4038 106 3984 
L 53 4094 
L 903 4444 
L 1047 4444 
z
" transform="scale(0.015625)"/>
       </defs>
       <use xlink:href="#TimesNewRomanPSMT-30"/>
       <use xlink:href="#TimesNewRomanPSMT-6b" transform="translate(50 0)"/>
      </g>
     </g>
    </g>
    <g id="xtick_2">
     <g id="line2d_3">
      <path d="M 143.55735 294.217332 
L 143.55735 22.226875 
" clip-path="url(#p66f4ed25e0)" style="fill: none; stroke: #e0e0e0; stroke-opacity: 0.7; stroke-width: 0.6; stroke-linecap: square"/>
     </g>
     <g id="line2d_4">
      <g>
       <use xlink:href="#m512a4a9178" x="143.55735" y="294.217332" style="stroke: #000000"/>
      </g>
     </g>
     <g id="text_2">
      <!-- 200k -->
      <g transform="translate(133.55735 308.161082) scale(0.1 -0.1)">
       <defs>
        <path id="TimesNewRomanPSMT-32" d="M 2934 816 
L 2638 0 
L 138 0 
L 138 116 
Q 1241 1122 1691 1759 
Q 2141 2397 2141 2925 
Q 2141 3328 1894 3587 
Q 1647 3847 1303 3847 
Q 991 3847 742 3664 
Q 494 3481 375 3128 
L 259 3128 
Q 338 3706 661 4015 
Q 984 4325 1469 4325 
Q 1984 4325 2329 3994 
Q 2675 3663 2675 3213 
Q 2675 2891 2525 2569 
Q 2294 2063 1775 1497 
Q 997 647 803 472 
L 1909 472 
Q 2247 472 2383 497 
Q 2519 522 2628 598 
Q 2738 675 2819 816 
L 2934 816 
z
" transform="scale(0.015625)"/>
       </defs>
       <use xlink:href="#TimesNewRomanPSMT-32"/>
       <use xlink:href="#TimesNewRomanPSMT-30" transform="translate(50 0)"/>
       <use xlink:href="#TimesNewRomanPSMT-30" transform="translate(100 0)"/>
       <use xlink:href="#TimesNewRomanPSMT-6b" transform="translate(150 0)"/>
      </g>
     </g>
    </g>
    <g id="xtick_3">
     <g id="line2d_5">
      <path d="M 228.699709 294.217332 
L 228.699709 22.226875 
" clip-path="url(#p66f4ed25e0)" style="fill: none; stroke: #e0e0e0; stroke-opacity: 0.7; stroke-width: 0.6; stroke-linecap: square"/>
     </g>
     <g id="line2d_6">
      <g>
       <use xlink:href="#m512a4a9178" x="228.699709" y="294.217332" style="stroke: #000000"/>
      </g>
     </g>
     <g id="text_3">
      <!-- 400k -->
      <g transform="translate(218.699709 308.161082) scale(0.1 -0.1)">
       <defs>
        <path id="TimesNewRomanPSMT-34" d="M 2978 1563 
L 2978 1119 
L 2409 1119 
L 2409 0 
L 1894 0 
L 1894 1119 
L 100 1119 
L 100 1519 
L 2066 4325 
L 2409 4325 
L 2409 1563 
L 2978 1563 
z
M 1894 1563 
L 1894 3666 
L 406 1563 
L 1894 1563 
z
" transform="scale(0.015625)"/>
       </defs>
       <use xlink:href="#TimesNewRomanPSMT-34"/>
       <use xlink:href="#TimesNewRomanPSMT-30" transform="translate(50 0)"/>
       <use xlink:href="#TimesNewRomanPSMT-30" transform="translate(100 0)"/>
       <use xlink:href="#TimesNewRomanPSMT-6b" transform="translate(150 0)"/>
      </g>
     </g>
    </g>
    <g id="xtick_4">
     <g id="line2d_7">
      <path d="M 313.842068 294.217332 
L 313.842068 22.226875 
" clip-path="url(#p66f4ed25e0)" style="fill: none; stroke: #e0e0e0; stroke-opacity: 0.7; stroke-width: 0.6; stroke-linecap: square"/>
     </g>
     <g id="line2d_8">
      <g>
       <use xlink:href="#m512a4a9178" x="313.842068" y="294.217332" style="stroke: #000000"/>
      </g>
     </g>
     <g id="text_4">
      <!-- 600k -->
      <g transform="translate(303.842068 308.161082) scale(0.1 -0.1)">
       <defs>
        <path id="TimesNewRomanPSMT-36" d="M 2869 4325 
L 2869 4209 
Q 2456 4169 2195 4045 
Q 1934 3922 1679 3669 
Q 1425 3416 1258 3105 
Q 1091 2794 978 2366 
Q 1428 2675 1881 2675 
Q 2316 2675 2634 2325 
Q 2953 1975 2953 1425 
Q 2953 894 2631 456 
Q 2244 -75 1606 -75 
Q 1172 -75 869 213 
Q 275 772 275 1663 
Q 275 2231 503 2743 
Q 731 3256 1154 3653 
Q 1578 4050 1965 4187 
Q 2353 4325 2688 4325 
L 2869 4325 
z
M 925 2138 
Q 869 1716 869 1456 
Q 869 1156 980 804 
Q 1091 453 1309 247 
Q 1469 100 1697 100 
Q 1969 100 2183 356 
Q 2397 613 2397 1088 
Q 2397 1622 2184 2012 
Q 1972 2403 1581 2403 
Q 1463 2403 1327 2353 
Q 1191 2303 925 2138 
z
" transform="scale(0.015625)"/>
       </defs>
       <use xlink:href="#TimesNewRomanPSMT-36"/>
       <use xlink:href="#TimesNewRomanPSMT-30" transform="translate(50 0)"/>
       <use xlink:href="#TimesNewRomanPSMT-30" transform="translate(100 0)"/>
       <use xlink:href="#TimesNewRomanPSMT-6b" transform="translate(150 0)"/>
      </g>
     </g>
    </g>
    <g id="xtick_5">
     <g id="line2d_9">
      <path d="M 398.984427 294.217332 
L 398.984427 22.226875 
" clip-path="url(#p66f4ed25e0)" style="fill: none; stroke: #e0e0e0; stroke-opacity: 0.7; stroke-width: 0.6; stroke-linecap: square"/>
     </g>
     <g id="line2d_10">
      <g>
       <use xlink:href="#m512a4a9178" x="398.984427" y="294.217332" style="stroke: #000000"/>
      </g>
     </g>
     <g id="text_5">
      <!-- 800k -->
      <g transform="translate(388.984427 308.161082) scale(0.1 -0.1)">
       <defs>
        <path id="TimesNewRomanPSMT-38" d="M 1228 2134 
Q 725 2547 579 2797 
Q 434 3047 434 3316 
Q 434 3728 753 4026 
Q 1072 4325 1600 4325 
Q 2113 4325 2425 4047 
Q 2738 3769 2738 3413 
Q 2738 3175 2569 2928 
Q 2400 2681 1866 2347 
Q 2416 1922 2594 1678 
Q 2831 1359 2831 1006 
Q 2831 559 2490 242 
Q 2150 -75 1597 -75 
Q 994 -75 656 303 
Q 388 606 388 966 
Q 388 1247 577 1523 
Q 766 1800 1228 2134 
z
M 1719 2469 
Q 2094 2806 2194 3001 
Q 2294 3197 2294 3444 
Q 2294 3772 2109 3958 
Q 1925 4144 1606 4144 
Q 1288 4144 1088 3959 
Q 888 3775 888 3528 
Q 888 3366 970 3203 
Q 1053 3041 1206 2894 
L 1719 2469 
z
M 1375 2016 
Q 1116 1797 991 1539 
Q 866 1281 866 981 
Q 866 578 1086 336 
Q 1306 94 1647 94 
Q 1984 94 2187 284 
Q 2391 475 2391 747 
Q 2391 972 2272 1150 
Q 2050 1481 1375 2016 
z
" transform="scale(0.015625)"/>
       </defs>
       <use xlink:href="#TimesNewRomanPSMT-38"/>
       <use xlink:href="#TimesNewRomanPSMT-30" transform="translate(50 0)"/>
       <use xlink:href="#TimesNewRomanPSMT-30" transform="translate(100 0)"/>
       <use xlink:href="#TimesNewRomanPSMT-6b" transform="translate(150 0)"/>
      </g>
     </g>
    </g>
    <g id="xtick_6">
     <g id="line2d_11">
      <path d="M 484.126786 294.217332 
L 484.126786 22.226875 
" clip-path="url(#p66f4ed25e0)" style="fill: none; stroke: #e0e0e0; stroke-opacity: 0.7; stroke-width: 0.6; stroke-linecap: square"/>
     </g>
     <g id="line2d_12">
      <g>
       <use xlink:href="#m512a4a9178" x="484.126786" y="294.217332" style="stroke: #000000"/>
      </g>
     </g>
     <g id="text_6">
      <!-- 1.0M -->
      <g transform="translate(473.430692 308.161082) scale(0.1 -0.1)">
       <defs>
        <path id="TimesNewRomanPSMT-31" d="M 750 3822 
L 1781 4325 
L 1884 4325 
L 1884 747 
Q 1884 391 1914 303 
Q 1944 216 2037 169 
Q 2131 122 2419 116 
L 2419 0 
L 825 0 
L 825 116 
Q 1125 122 1212 167 
Q 1300 213 1334 289 
Q 1369 366 1369 747 
L 1369 3034 
Q 1369 3497 1338 3628 
Q 1316 3728 1258 3775 
Q 1200 3822 1119 3822 
Q 1003 3822 797 3725 
L 750 3822 
z
" transform="scale(0.015625)"/>
        <path id="TimesNewRomanPSMT-2e" d="M 800 606 
Q 947 606 1047 504 
Q 1147 403 1147 259 
Q 1147 116 1045 14 
Q 944 -88 800 -88 
Q 656 -88 554 14 
Q 453 116 453 259 
Q 453 406 554 506 
Q 656 606 800 606 
z
" transform="scale(0.015625)"/>
        <path id="TimesNewRomanPSMT-4d" d="M 2619 0 
L 981 3566 
L 981 734 
Q 981 344 1066 247 
Q 1181 116 1431 116 
L 1581 116 
L 1581 0 
L 106 0 
L 106 116 
L 256 116 
Q 525 116 638 278 
Q 706 378 706 734 
L 706 3503 
Q 706 3784 644 3909 
Q 600 4000 483 4061 
Q 366 4122 106 4122 
L 106 4238 
L 1306 4238 
L 2844 922 
L 4356 4238 
L 5556 4238 
L 5556 4122 
L 5409 4122 
Q 5138 4122 5025 3959 
Q 4956 3859 4956 3503 
L 4956 734 
Q 4956 344 5044 247 
Q 5159 116 5409 116 
L 5556 116 
L 5556 0 
L 3756 0 
L 3756 116 
L 3906 116 
Q 4178 116 4288 278 
Q 4356 378 4356 734 
L 4356 3566 
L 2722 0 
L 2619 0 
z
" transform="scale(0.015625)"/>
       </defs>
       <use xlink:href="#TimesNewRomanPSMT-31"/>
       <use xlink:href="#TimesNewRomanPSMT-2e" transform="translate(50 0)"/>
       <use xlink:href="#TimesNewRomanPSMT-30" transform="translate(75 0)"/>
       <use xlink:href="#TimesNewRomanPSMT-4d" transform="translate(125 0)"/>
      </g>
     </g>
    </g>
    <g id="text_7">
     <!-- Environment Steps -->
     <g transform="translate(227.570697 322.632645) scale(0.12 -0.12)">
      <defs>
       <path id="TimesNewRomanPSMT-45" d="M 1338 4006 
L 1338 2331 
L 2269 2331 
Q 2631 2331 2753 2441 
Q 2916 2584 2934 2947 
L 3050 2947 
L 3050 1472 
L 2934 1472 
Q 2891 1781 2847 1869 
Q 2791 1978 2662 2040 
Q 2534 2103 2269 2103 
L 1338 2103 
L 1338 706 
Q 1338 425 1363 364 
Q 1388 303 1450 267 
Q 1513 231 1688 231 
L 2406 231 
Q 2766 231 2928 281 
Q 3091 331 3241 478 
Q 3434 672 3638 1063 
L 3763 1063 
L 3397 0 
L 131 0 
L 131 116 
L 281 116 
Q 431 116 566 188 
Q 666 238 702 338 
Q 738 438 738 747 
L 738 3500 
Q 738 3903 656 3997 
Q 544 4122 281 4122 
L 131 4122 
L 131 4238 
L 3397 4238 
L 3444 3309 
L 3322 3309 
Q 3256 3644 3176 3769 
Q 3097 3894 2941 3959 
Q 2816 4006 2500 4006 
L 1338 4006 
z
" transform="scale(0.015625)"/>
       <path id="TimesNewRomanPSMT-6e" d="M 1034 2341 
Q 1538 2947 1994 2947 
Q 2228 2947 2397 2830 
Q 2566 2713 2666 2444 
Q 2734 2256 2734 1869 
L 2734 647 
Q 2734 375 2778 278 
Q 2813 200 2889 156 
Q 2966 113 3172 113 
L 3172 0 
L 1756 0 
L 1756 113 
L 1816 113 
Q 2016 113 2095 173 
Q 2175 234 2206 353 
Q 2219 400 2219 647 
L 2219 1819 
Q 2219 2209 2117 2386 
Q 2016 2563 1775 2563 
Q 1403 2563 1034 2156 
L 1034 647 
Q 1034 356 1069 288 
Q 1113 197 1189 155 
Q 1266 113 1500 113 
L 1500 0 
L 84 0 
L 84 113 
L 147 113 
Q 366 113 442 223 
Q 519 334 519 647 
L 519 1709 
Q 519 2225 495 2337 
Q 472 2450 423 2490 
Q 375 2531 294 2531 
Q 206 2531 84 2484 
L 38 2597 
L 900 2947 
L 1034 2947 
L 1034 2341 
z
" transform="scale(0.015625)"/>
       <path id="TimesNewRomanPSMT-76" d="M 53 2863 
L 1400 2863 
L 1400 2747 
L 1313 2747 
Q 1191 2747 1127 2687 
Q 1063 2628 1063 2528 
Q 1063 2419 1128 2269 
L 1794 688 
L 2463 2328 
Q 2534 2503 2534 2594 
Q 2534 2638 2509 2666 
Q 2475 2713 2422 2730 
Q 2369 2747 2206 2747 
L 2206 2863 
L 3141 2863 
L 3141 2747 
Q 2978 2734 2916 2681 
Q 2806 2588 2719 2369 
L 1703 -88 
L 1575 -88 
L 553 2328 
Q 484 2497 421 2570 
Q 359 2644 263 2694 
Q 209 2722 53 2747 
L 53 2863 
z
" transform="scale(0.015625)"/>
       <path id="TimesNewRomanPSMT-69" d="M 928 4444 
Q 1059 4444 1151 4351 
Q 1244 4259 1244 4128 
Q 1244 3997 1151 3903 
Q 1059 3809 928 3809 
Q 797 3809 703 3903 
Q 609 3997 609 4128 
Q 609 4259 701 4351 
Q 794 4444 928 4444 
z
M 1188 2947 
L 1188 647 
Q 1188 378 1227 289 
Q 1266 200 1342 156 
Q 1419 113 1622 113 
L 1622 0 
L 231 0 
L 231 113 
Q 441 113 512 153 
Q 584 194 626 287 
Q 669 381 669 647 
L 669 1750 
Q 669 2216 641 2353 
Q 619 2453 572 2492 
Q 525 2531 444 2531 
Q 356 2531 231 2484 
L 188 2597 
L 1050 2947 
L 1188 2947 
z
" transform="scale(0.015625)"/>
       <path id="TimesNewRomanPSMT-72" d="M 1038 2947 
L 1038 2303 
Q 1397 2947 1775 2947 
Q 1947 2947 2059 2842 
Q 2172 2738 2172 2600 
Q 2172 2478 2090 2393 
Q 2009 2309 1897 2309 
Q 1788 2309 1652 2417 
Q 1516 2525 1450 2525 
Q 1394 2525 1328 2463 
Q 1188 2334 1038 2041 
L 1038 669 
Q 1038 431 1097 309 
Q 1138 225 1241 169 
Q 1344 113 1538 113 
L 1538 0 
L 72 0 
L 72 113 
Q 291 113 397 181 
Q 475 231 506 341 
Q 522 394 522 644 
L 522 1753 
Q 522 2253 501 2348 
Q 481 2444 426 2487 
Q 372 2531 291 2531 
Q 194 2531 72 2484 
L 41 2597 
L 906 2947 
L 1038 2947 
z
" transform="scale(0.015625)"/>
       <path id="TimesNewRomanPSMT-6f" d="M 1600 2947 
Q 2250 2947 2644 2453 
Q 2978 2031 2978 1484 
Q 2978 1100 2793 706 
Q 2609 313 2286 112 
Q 1963 -88 1566 -88 
Q 919 -88 538 428 
Q 216 863 216 1403 
Q 216 1797 411 2186 
Q 606 2575 925 2761 
Q 1244 2947 1600 2947 
z
M 1503 2744 
Q 1338 2744 1170 2645 
Q 1003 2547 900 2300 
Q 797 2053 797 1666 
Q 797 1041 1045 587 
Q 1294 134 1700 134 
Q 2003 134 2200 384 
Q 2397 634 2397 1244 
Q 2397 2006 2069 2444 
Q 1847 2744 1503 2744 
z
" transform="scale(0.015625)"/>
       <path id="TimesNewRomanPSMT-6d" d="M 1050 2338 
Q 1363 2650 1419 2697 
Q 1559 2816 1721 2881 
Q 1884 2947 2044 2947 
Q 2313 2947 2506 2790 
Q 2700 2634 2766 2338 
Q 3088 2713 3309 2830 
Q 3531 2947 3766 2947 
Q 3994 2947 4170 2830 
Q 4347 2713 4450 2447 
Q 4519 2266 4519 1878 
L 4519 647 
Q 4519 378 4559 278 
Q 4591 209 4675 161 
Q 4759 113 4950 113 
L 4950 0 
L 3538 0 
L 3538 113 
L 3597 113 
Q 3781 113 3884 184 
Q 3956 234 3988 344 
Q 4000 397 4000 647 
L 4000 1878 
Q 4000 2228 3916 2372 
Q 3794 2572 3525 2572 
Q 3359 2572 3192 2489 
Q 3025 2406 2788 2181 
L 2781 2147 
L 2788 2013 
L 2788 647 
Q 2788 353 2820 281 
Q 2853 209 2943 161 
Q 3034 113 3253 113 
L 3253 0 
L 1806 0 
L 1806 113 
Q 2044 113 2133 169 
Q 2222 225 2256 338 
Q 2272 391 2272 647 
L 2272 1878 
Q 2272 2228 2169 2381 
Q 2031 2581 1784 2581 
Q 1616 2581 1450 2491 
Q 1191 2353 1050 2181 
L 1050 647 
Q 1050 366 1089 281 
Q 1128 197 1204 155 
Q 1281 113 1516 113 
L 1516 0 
L 100 0 
L 100 113 
Q 297 113 375 155 
Q 453 197 493 289 
Q 534 381 534 647 
L 534 1741 
Q 534 2213 506 2350 
Q 484 2453 437 2492 
Q 391 2531 309 2531 
Q 222 2531 100 2484 
L 53 2597 
L 916 2947 
L 1050 2947 
L 1050 2338 
z
" transform="scale(0.015625)"/>
       <path id="TimesNewRomanPSMT-65" d="M 681 1784 
Q 678 1147 991 784 
Q 1303 422 1725 422 
Q 2006 422 2214 576 
Q 2422 731 2563 1106 
L 2659 1044 
Q 2594 616 2278 264 
Q 1963 -88 1488 -88 
Q 972 -88 605 314 
Q 238 716 238 1394 
Q 238 2128 614 2539 
Q 991 2950 1559 2950 
Q 2041 2950 2350 2633 
Q 2659 2316 2659 1784 
L 681 1784 
z
M 681 1966 
L 2006 1966 
Q 1991 2241 1941 2353 
Q 1863 2528 1708 2628 
Q 1553 2728 1384 2728 
Q 1125 2728 920 2526 
Q 716 2325 681 1966 
z
" transform="scale(0.015625)"/>
       <path id="TimesNewRomanPSMT-74" d="M 1031 3803 
L 1031 2863 
L 1700 2863 
L 1700 2644 
L 1031 2644 
L 1031 788 
Q 1031 509 1111 412 
Q 1191 316 1316 316 
Q 1419 316 1516 380 
Q 1613 444 1666 569 
L 1788 569 
Q 1678 263 1478 108 
Q 1278 -47 1066 -47 
Q 922 -47 784 33 
Q 647 113 581 261 
Q 516 409 516 719 
L 516 2644 
L 63 2644 
L 63 2747 
Q 234 2816 414 2980 
Q 594 3144 734 3369 
Q 806 3488 934 3803 
L 1031 3803 
z
" transform="scale(0.015625)"/>
       <path id="TimesNewRomanPSMT-20" transform="scale(0.015625)"/>
       <path id="TimesNewRomanPSMT-53" d="M 2934 4334 
L 2934 2869 
L 2819 2869 
Q 2763 3291 2617 3541 
Q 2472 3791 2203 3937 
Q 1934 4084 1647 4084 
Q 1322 4084 1109 3886 
Q 897 3688 897 3434 
Q 897 3241 1031 3081 
Q 1225 2847 1953 2456 
Q 2547 2138 2764 1967 
Q 2981 1797 3098 1565 
Q 3216 1334 3216 1081 
Q 3216 600 2842 251 
Q 2469 -97 1881 -97 
Q 1697 -97 1534 -69 
Q 1438 -53 1133 45 
Q 828 144 747 144 
Q 669 144 623 97 
Q 578 50 556 -97 
L 441 -97 
L 441 1356 
L 556 1356 
Q 638 900 775 673 
Q 913 447 1195 297 
Q 1478 147 1816 147 
Q 2206 147 2432 353 
Q 2659 559 2659 841 
Q 2659 997 2573 1156 
Q 2488 1316 2306 1453 
Q 2184 1547 1640 1851 
Q 1097 2156 867 2337 
Q 638 2519 519 2737 
Q 400 2956 400 3219 
Q 400 3675 750 4004 
Q 1100 4334 1641 4334 
Q 1978 4334 2356 4169 
Q 2531 4091 2603 4091 
Q 2684 4091 2736 4139 
Q 2788 4188 2819 4334 
L 2934 4334 
z
" transform="scale(0.015625)"/>
       <path id="TimesNewRomanPSMT-70" d="M -6 2578 
L 875 2934 
L 994 2934 
L 994 2266 
Q 1216 2644 1439 2795 
Q 1663 2947 1909 2947 
Q 2341 2947 2628 2609 
Q 2981 2197 2981 1534 
Q 2981 794 2556 309 
Q 2206 -88 1675 -88 
Q 1444 -88 1275 -22 
Q 1150 25 994 166 
L 994 -706 
Q 994 -1000 1030 -1079 
Q 1066 -1159 1155 -1206 
Q 1244 -1253 1478 -1253 
L 1478 -1369 
L -22 -1369 
L -22 -1253 
L 56 -1253 
Q 228 -1256 350 -1188 
Q 409 -1153 442 -1076 
Q 475 -1000 475 -688 
L 475 2019 
Q 475 2297 450 2372 
Q 425 2447 370 2484 
Q 316 2522 222 2522 
Q 147 2522 31 2478 
L -6 2578 
z
M 994 2081 
L 994 1013 
Q 994 666 1022 556 
Q 1066 375 1236 237 
Q 1406 100 1666 100 
Q 1978 100 2172 344 
Q 2425 663 2425 1241 
Q 2425 1897 2138 2250 
Q 1938 2494 1663 2494 
Q 1513 2494 1366 2419 
Q 1253 2363 994 2081 
z
" transform="scale(0.015625)"/>
       <path id="TimesNewRomanPSMT-73" d="M 2050 2947 
L 2050 1972 
L 1947 1972 
Q 1828 2431 1642 2597 
Q 1456 2763 1169 2763 
Q 950 2763 815 2647 
Q 681 2531 681 2391 
Q 681 2216 781 2091 
Q 878 1963 1175 1819 
L 1631 1597 
Q 2266 1288 2266 781 
Q 2266 391 1970 151 
Q 1675 -88 1309 -88 
Q 1047 -88 709 6 
Q 606 38 541 38 
Q 469 38 428 -44 
L 325 -44 
L 325 978 
L 428 978 
Q 516 541 762 319 
Q 1009 97 1316 97 
Q 1531 97 1667 223 
Q 1803 350 1803 528 
Q 1803 744 1651 891 
Q 1500 1038 1047 1263 
Q 594 1488 453 1669 
Q 313 1847 313 2119 
Q 313 2472 555 2709 
Q 797 2947 1181 2947 
Q 1350 2947 1591 2875 
Q 1750 2828 1803 2828 
Q 1853 2828 1881 2850 
Q 1909 2872 1947 2947 
L 2050 2947 
z
" transform="scale(0.015625)"/>
      </defs>
      <use xlink:href="#TimesNewRomanPSMT-45"/>
      <use xlink:href="#TimesNewRomanPSMT-6e" transform="translate(61.083984 0)"/>
      <use xlink:href="#TimesNewRomanPSMT-76" transform="translate(111.083984 0)"/>
      <use xlink:href="#TimesNewRomanPSMT-69" transform="translate(161.083984 0)"/>
      <use xlink:href="#TimesNewRomanPSMT-72" transform="translate(188.867188 0)"/>
      <use xlink:href="#TimesNewRomanPSMT-6f" transform="translate(222.167969 0)"/>
      <use xlink:href="#TimesNewRomanPSMT-6e" transform="translate(272.167969 0)"/>
      <use xlink:href="#TimesNewRomanPSMT-6d" transform="translate(322.167969 0)"/>
      <use xlink:href="#TimesNewRomanPSMT-65" transform="translate(399.951172 0)"/>
      <use xlink:href="#TimesNewRomanPSMT-6e" transform="translate(444.335938 0)"/>
      <use xlink:href="#TimesNewRomanPSMT-74" transform="translate(494.335938 0)"/>
      <use xlink:href="#TimesNewRomanPSMT-20" transform="translate(522.119141 0)"/>
      <use xlink:href="#TimesNewRomanPSMT-53" transform="translate(547.119141 0)"/>
      <use xlink:href="#TimesNewRomanPSMT-74" transform="translate(602.734375 0)"/>
      <use xlink:href="#TimesNewRomanPSMT-65" transform="translate(630.517578 0)"/>
      <use xlink:href="#TimesNewRomanPSMT-70" transform="translate(674.902344 0)"/>
      <use xlink:href="#TimesNewRomanPSMT-73" transform="translate(724.902344 0)"/>
     </g>
    </g>
   </g>
   <g id="matplotlib.axis_2">
    <g id="ytick_1">
     <g id="line2d_13">
      <path d="M 41.599375 282.39166 
L 505.19952 282.39166 
" clip-path="url(#p66f4ed25e0)" style="fill: none; stroke: #e0e0e0; stroke-opacity: 0.7; stroke-width: 0.6; stroke-linecap: square"/>
     </g>
     <g id="line2d_14">
      <defs>
       <path id="md3e4ce026e" d="M 0 0 
L -3.5 0 
" style="stroke: #000000"/>
      </defs>
      <g>
       <use xlink:href="#md3e4ce026e" x="41.599375" y="282.39166" style="stroke: #000000"/>
      </g>
     </g>
     <g id="text_8">
      <!-- 0.0 -->
      <g transform="translate(22.099375 285.863535) scale(0.1 -0.1)">
       <use xlink:href="#TimesNewRomanPSMT-30"/>
       <use xlink:href="#TimesNewRomanPSMT-2e" transform="translate(50 0)"/>
       <use xlink:href="#TimesNewRomanPSMT-30" transform="translate(75 0)"/>
      </g>
     </g>
    </g>
    <g id="ytick_2">
     <g id="line2d_15">
      <path d="M 41.599375 235.088972 
L 505.19952 235.088972 
" clip-path="url(#p66f4ed25e0)" style="fill: none; stroke: #e0e0e0; stroke-opacity: 0.7; stroke-width: 0.6; stroke-linecap: square"/>
     </g>
     <g id="line2d_16">
      <g>
       <use xlink:href="#md3e4ce026e" x="41.599375" y="235.088972" style="stroke: #000000"/>
      </g>
     </g>
     <g id="text_9">
      <!-- 0.2 -->
      <g transform="translate(22.099375 238.560847) scale(0.1 -0.1)">
       <use xlink:href="#TimesNewRomanPSMT-30"/>
       <use xlink:href="#TimesNewRomanPSMT-2e" transform="translate(50 0)"/>
       <use xlink:href="#TimesNewRomanPSMT-32" transform="translate(75 0)"/>
      </g>
     </g>
    </g>
    <g id="ytick_3">
     <g id="line2d_17">
      <path d="M 41.599375 187.786284 
L 505.19952 187.786284 
" clip-path="url(#p66f4ed25e0)" style="fill: none; stroke: #e0e0e0; stroke-opacity: 0.7; stroke-width: 0.6; stroke-linecap: square"/>
     </g>
     <g id="line2d_18">
      <g>
       <use xlink:href="#md3e4ce026e" x="41.599375" y="187.786284" style="stroke: #000000"/>
      </g>
     </g>
     <g id="text_10">
      <!-- 0.4 -->
      <g transform="translate(22.099375 191.258159) scale(0.1 -0.1)">
       <use xlink:href="#TimesNewRomanPSMT-30"/>
       <use xlink:href="#TimesNewRomanPSMT-2e" transform="translate(50 0)"/>
       <use xlink:href="#TimesNewRomanPSMT-34" transform="translate(75 0)"/>
      </g>
     </g>
    </g>
    <g id="ytick_4">
     <g id="line2d_19">
      <path d="M 41.599375 140.483596 
L 505.19952 140.483596 
" clip-path="url(#p66f4ed25e0)" style="fill: none; stroke: #e0e0e0; stroke-opacity: 0.7; stroke-width: 0.6; stroke-linecap: square"/>
     </g>
     <g id="line2d_20">
      <g>
       <use xlink:href="#md3e4ce026e" x="41.599375" y="140.483596" style="stroke: #000000"/>
      </g>
     </g>
     <g id="text_11">
      <!-- 0.6 -->
      <g transform="translate(22.099375 143.955471) scale(0.1 -0.1)">
       <use xlink:href="#TimesNewRomanPSMT-30"/>
       <use xlink:href="#TimesNewRomanPSMT-2e" transform="translate(50 0)"/>
       <use xlink:href="#TimesNewRomanPSMT-36" transform="translate(75 0)"/>
      </g>
     </g>
    </g>
    <g id="ytick_5">
     <g id="line2d_21">
      <path d="M 41.599375 93.180907 
L 505.19952 93.180907 
" clip-path="url(#p66f4ed25e0)" style="fill: none; stroke: #e0e0e0; stroke-opacity: 0.7; stroke-width: 0.6; stroke-linecap: square"/>
     </g>
     <g id="line2d_22">
      <g>
       <use xlink:href="#md3e4ce026e" x="41.599375" y="93.180907" style="stroke: #000000"/>
      </g>
     </g>
     <g id="text_12">
      <!-- 0.8 -->
      <g transform="translate(22.099375 96.652782) scale(0.1 -0.1)">
       <use xlink:href="#TimesNewRomanPSMT-30"/>
       <use xlink:href="#TimesNewRomanPSMT-2e" transform="translate(50 0)"/>
       <use xlink:href="#TimesNewRomanPSMT-38" transform="translate(75 0)"/>
      </g>
     </g>
    </g>
    <g id="ytick_6">
     <g id="line2d_23">
      <path d="M 41.599375 45.878219 
L 505.19952 45.878219 
" clip-path="url(#p66f4ed25e0)" style="fill: none; stroke: #e0e0e0; stroke-opacity: 0.7; stroke-width: 0.6; stroke-linecap: square"/>
     </g>
     <g id="line2d_24">
      <g>
       <use xlink:href="#md3e4ce026e" x="41.599375" y="45.878219" style="stroke: #000000"/>
      </g>
     </g>
     <g id="text_13">
      <!-- 1.0 -->
      <g transform="translate(22.099375 49.350094) scale(0.1 -0.1)">
       <use xlink:href="#TimesNewRomanPSMT-31"/>
       <use xlink:href="#TimesNewRomanPSMT-2e" transform="translate(50 0)"/>
       <use xlink:href="#TimesNewRomanPSMT-30" transform="translate(75 0)"/>
      </g>
     </g>
    </g>
    <g id="text_14">
     <!-- Normalized Reward (min-max) -->
     <g transform="translate(15.5325 233.861479) rotate(-90) scale(0.12 -0.12)">
      <defs>
       <path id="TimesNewRomanPSMT-4e" d="M -84 4238 
L 1066 4238 
L 3656 1059 
L 3656 3503 
Q 3656 3894 3569 3991 
Q 3453 4122 3203 4122 
L 3056 4122 
L 3056 4238 
L 4531 4238 
L 4531 4122 
L 4381 4122 
Q 4113 4122 4000 3959 
Q 3931 3859 3931 3503 
L 3931 -69 
L 3819 -69 
L 1025 3344 
L 1025 734 
Q 1025 344 1109 247 
Q 1228 116 1475 116 
L 1625 116 
L 1625 0 
L 150 0 
L 150 116 
L 297 116 
Q 569 116 681 278 
Q 750 378 750 734 
L 750 3681 
Q 566 3897 470 3965 
Q 375 4034 191 4094 
Q 100 4122 -84 4122 
L -84 4238 
z
" transform="scale(0.015625)"/>
       <path id="TimesNewRomanPSMT-61" d="M 1822 413 
Q 1381 72 1269 19 
Q 1100 -59 909 -59 
Q 613 -59 420 144 
Q 228 347 228 678 
Q 228 888 322 1041 
Q 450 1253 767 1440 
Q 1084 1628 1822 1897 
L 1822 2009 
Q 1822 2438 1686 2597 
Q 1550 2756 1291 2756 
Q 1094 2756 978 2650 
Q 859 2544 859 2406 
L 866 2225 
Q 866 2081 792 2003 
Q 719 1925 600 1925 
Q 484 1925 411 2006 
Q 338 2088 338 2228 
Q 338 2497 613 2722 
Q 888 2947 1384 2947 
Q 1766 2947 2009 2819 
Q 2194 2722 2281 2516 
Q 2338 2381 2338 1966 
L 2338 994 
Q 2338 584 2353 492 
Q 2369 400 2405 369 
Q 2441 338 2488 338 
Q 2538 338 2575 359 
Q 2641 400 2828 588 
L 2828 413 
Q 2478 -56 2159 -56 
Q 2006 -56 1915 50 
Q 1825 156 1822 413 
z
M 1822 616 
L 1822 1706 
Q 1350 1519 1213 1441 
Q 966 1303 859 1153 
Q 753 1003 753 825 
Q 753 600 887 451 
Q 1022 303 1197 303 
Q 1434 303 1822 616 
z
" transform="scale(0.015625)"/>
       <path id="TimesNewRomanPSMT-6c" d="M 1184 4444 
L 1184 647 
Q 1184 378 1223 290 
Q 1263 203 1344 158 
Q 1425 113 1647 113 
L 1647 0 
L 244 0 
L 244 113 
Q 441 113 512 153 
Q 584 194 625 287 
Q 666 381 666 647 
L 666 3247 
Q 666 3731 644 3842 
Q 622 3953 573 3993 
Q 525 4034 450 4034 
Q 369 4034 244 3984 
L 191 4094 
L 1044 4444 
L 1184 4444 
z
" transform="scale(0.015625)"/>
       <path id="TimesNewRomanPSMT-7a" d="M 2688 878 
L 2653 0 
L 128 0 
L 128 113 
L 2028 2644 
L 1091 2644 
Q 788 2644 694 2605 
Q 600 2566 541 2456 
Q 456 2300 444 2069 
L 319 2069 
L 338 2863 
L 2738 2863 
L 2738 2747 
L 819 209 
L 1863 209 
Q 2191 209 2308 264 
Q 2425 319 2497 456 
Q 2547 556 2581 878 
L 2688 878 
z
" transform="scale(0.015625)"/>
       <path id="TimesNewRomanPSMT-64" d="M 2222 322 
Q 2013 103 1813 7 
Q 1613 -88 1381 -88 
Q 913 -88 563 304 
Q 213 697 213 1313 
Q 213 1928 600 2439 
Q 988 2950 1597 2950 
Q 1975 2950 2222 2709 
L 2222 3238 
Q 2222 3728 2198 3840 
Q 2175 3953 2125 3993 
Q 2075 4034 2000 4034 
Q 1919 4034 1784 3984 
L 1744 4094 
L 2597 4444 
L 2738 4444 
L 2738 1134 
Q 2738 631 2761 520 
Q 2784 409 2836 365 
Q 2888 322 2956 322 
Q 3041 322 3181 375 
L 3216 266 
L 2366 -88 
L 2222 -88 
L 2222 322 
z
M 2222 541 
L 2222 2016 
Q 2203 2228 2109 2403 
Q 2016 2578 1861 2667 
Q 1706 2756 1559 2756 
Q 1284 2756 1069 2509 
Q 784 2184 784 1559 
Q 784 928 1059 592 
Q 1334 256 1672 256 
Q 1956 256 2222 541 
z
" transform="scale(0.015625)"/>
       <path id="TimesNewRomanPSMT-52" d="M 4325 0 
L 3194 0 
L 1759 1981 
Q 1600 1975 1500 1975 
Q 1459 1975 1412 1976 
Q 1366 1978 1316 1981 
L 1316 750 
Q 1316 350 1403 253 
Q 1522 116 1759 116 
L 1925 116 
L 1925 0 
L 109 0 
L 109 116 
L 269 116 
Q 538 116 653 291 
Q 719 388 719 750 
L 719 3488 
Q 719 3888 631 3984 
Q 509 4122 269 4122 
L 109 4122 
L 109 4238 
L 1653 4238 
Q 2328 4238 2648 4139 
Q 2969 4041 3192 3777 
Q 3416 3513 3416 3147 
Q 3416 2756 3161 2468 
Q 2906 2181 2372 2063 
L 3247 847 
Q 3547 428 3762 290 
Q 3978 153 4325 116 
L 4325 0 
z
M 1316 2178 
Q 1375 2178 1419 2176 
Q 1463 2175 1491 2175 
Q 2097 2175 2405 2437 
Q 2713 2700 2713 3106 
Q 2713 3503 2464 3751 
Q 2216 4000 1806 4000 
Q 1625 4000 1316 3941 
L 1316 2178 
z
" transform="scale(0.015625)"/>
       <path id="TimesNewRomanPSMT-77" d="M 41 2863 
L 1241 2863 
L 1241 2747 
Q 1075 2734 1023 2687 
Q 972 2641 972 2553 
Q 972 2456 1025 2319 
L 1638 672 
L 2253 2013 
L 2091 2434 
Q 2016 2622 1894 2694 
Q 1825 2738 1638 2747 
L 1638 2863 
L 3000 2863 
L 3000 2747 
Q 2775 2738 2681 2666 
Q 2619 2616 2619 2506 
Q 2619 2444 2644 2378 
L 3294 734 
L 3897 2319 
Q 3959 2488 3959 2588 
Q 3959 2647 3898 2694 
Q 3838 2741 3659 2747 
L 3659 2863 
L 4563 2863 
L 4563 2747 
Q 4291 2706 4163 2378 
L 3206 -88 
L 3078 -88 
L 2363 1741 
L 1528 -88 
L 1413 -88 
L 494 2319 
Q 403 2547 315 2626 
Q 228 2706 41 2747 
L 41 2863 
z
" transform="scale(0.015625)"/>
       <path id="TimesNewRomanPSMT-28" d="M 1988 -1253 
L 1988 -1369 
Q 1516 -1131 1200 -813 
Q 750 -359 506 256 
Q 263 872 263 1534 
Q 263 2503 741 3301 
Q 1219 4100 1988 4444 
L 1988 4313 
Q 1603 4100 1356 3731 
Q 1109 3363 987 2797 
Q 866 2231 866 1616 
Q 866 947 969 400 
Q 1050 -31 1165 -292 
Q 1281 -553 1476 -793 
Q 1672 -1034 1988 -1253 
z
" transform="scale(0.015625)"/>
       <path id="TimesNewRomanPSMT-2d" d="M 259 1672 
L 1875 1672 
L 1875 1200 
L 259 1200 
L 259 1672 
z
" transform="scale(0.015625)"/>
       <path id="TimesNewRomanPSMT-78" d="M 84 2863 
L 1431 2863 
L 1431 2747 
Q 1303 2747 1251 2703 
Q 1200 2659 1200 2588 
Q 1200 2513 1309 2356 
Q 1344 2306 1413 2200 
L 1616 1875 
L 1850 2200 
Q 2075 2509 2075 2591 
Q 2075 2656 2022 2701 
Q 1969 2747 1850 2747 
L 1850 2863 
L 2819 2863 
L 2819 2747 
Q 2666 2738 2553 2663 
Q 2400 2556 2134 2200 
L 1744 1678 
L 2456 653 
Q 2719 275 2831 198 
Q 2944 122 3122 113 
L 3122 0 
L 1772 0 
L 1772 113 
Q 1913 113 1991 175 
Q 2050 219 2050 291 
Q 2050 363 1850 653 
L 1431 1266 
L 972 653 
Q 759 369 759 316 
Q 759 241 829 180 
Q 900 119 1041 113 
L 1041 0 
L 106 0 
L 106 113 
Q 219 128 303 191 
Q 422 281 703 653 
L 1303 1450 
L 759 2238 
Q 528 2575 401 2661 
Q 275 2747 84 2747 
L 84 2863 
z
" transform="scale(0.015625)"/>
       <path id="TimesNewRomanPSMT-29" d="M 144 4313 
L 144 4444 
Q 619 4209 934 3891 
Q 1381 3434 1625 2820 
Q 1869 2206 1869 1541 
Q 1869 572 1392 -226 
Q 916 -1025 144 -1369 
L 144 -1253 
Q 528 -1038 776 -670 
Q 1025 -303 1145 264 
Q 1266 831 1266 1447 
Q 1266 2113 1163 2663 
Q 1084 3094 967 3353 
Q 850 3613 656 3853 
Q 463 4094 144 4313 
z
" transform="scale(0.015625)"/>
      </defs>
      <use xlink:href="#TimesNewRomanPSMT-4e"/>
      <use xlink:href="#TimesNewRomanPSMT-6f" transform="translate(72.216797 0)"/>
      <use xlink:href="#TimesNewRomanPSMT-72" transform="translate(122.216797 0)"/>
      <use xlink:href="#TimesNewRomanPSMT-6d" transform="translate(155.517578 0)"/>
      <use xlink:href="#TimesNewRomanPSMT-61" transform="translate(233.300781 0)"/>
      <use xlink:href="#TimesNewRomanPSMT-6c" transform="translate(277.685547 0)"/>
      <use xlink:href="#TimesNewRomanPSMT-69" transform="translate(305.46875 0)"/>
      <use xlink:href="#TimesNewRomanPSMT-7a" transform="translate(333.251953 0)"/>
      <use xlink:href="#TimesNewRomanPSMT-65" transform="translate(377.636719 0)"/>
      <use xlink:href="#TimesNewRomanPSMT-64" transform="translate(422.021484 0)"/>
      <use xlink:href="#TimesNewRomanPSMT-20" transform="translate(472.021484 0)"/>
      <use xlink:href="#TimesNewRomanPSMT-52" transform="translate(497.021484 0)"/>
      <use xlink:href="#TimesNewRomanPSMT-65" transform="translate(563.720703 0)"/>
      <use xlink:href="#TimesNewRomanPSMT-77" transform="translate(608.105469 0)"/>
      <use xlink:href="#TimesNewRomanPSMT-61" transform="translate(680.322266 0)"/>
      <use xlink:href="#TimesNewRomanPSMT-72" transform="translate(724.707031 0)"/>
      <use xlink:href="#TimesNewRomanPSMT-64" transform="translate(758.007812 0)"/>
      <use xlink:href="#TimesNewRomanPSMT-20" transform="translate(808.007812 0)"/>
      <use xlink:href="#TimesNewRomanPSMT-28" transform="translate(833.007812 0)"/>
      <use xlink:href="#TimesNewRomanPSMT-6d" transform="translate(866.308594 0)"/>
      <use xlink:href="#TimesNewRomanPSMT-69" transform="translate(944.091797 0)"/>
      <use xlink:href="#TimesNewRomanPSMT-6e" transform="translate(971.875 0)"/>
      <use xlink:href="#TimesNewRomanPSMT-2d" transform="translate(1021.875 0)"/>
      <use xlink:href="#TimesNewRomanPSMT-6d" transform="translate(1055.175781 0)"/>
      <use xlink:href="#TimesNewRomanPSMT-61" transform="translate(1132.958984 0)"/>
      <use xlink:href="#TimesNewRomanPSMT-78" transform="translate(1177.34375 0)"/>
      <use xlink:href="#TimesNewRomanPSMT-29" transform="translate(1227.34375 0)"/>
     </g>
    </g>
   </g>
   <g id="line2d_25">
    <path d="M 62.672109 280.993551 
L 66.929227 280.993551 
L 71.186345 280.993551 
L 75.443463 280.993551 
L 79.700581 280.993551 
L 83.957699 282.39166 
L 88.214817 282.39166 
L 92.471935 282.39166 
L 96.729052 282.39166 
L 100.98617 282.39166 
L 105.243288 281.692606 
L 109.500406 281.22657 
L 113.757524 281.22657 
L 118.014642 281.22657 
L 122.27176 281.22657 
L 126.528878 281.925624 
L 130.785996 282.39166 
L 135.043114 282.39166 
L 139.300232 280.760533 
L 143.55735 278.896388 
L 147.814468 278.896388 
L 152.071586 277.265261 
L 156.328704 274.236025 
L 160.585822 271.206788 
L 164.84294 272.371879 
L 169.100058 270.041697 
L 173.357176 271.206788 
L 177.614294 274.236025 
L 181.871412 274.003006 
L 186.128529 273.070934 
L 190.385647 270.740752 
L 194.642765 267.245479 
L 198.899883 264.915298 
L 203.157001 265.148316 
L 207.414119 265.381334 
L 211.671237 265.381334 
L 215.928355 267.012461 
L 220.185473 264.449261 
L 224.442591 266.313407 
L 228.699709 258.390789 
L 232.956827 256.293626 
L 237.213945 253.031371 
L 241.471063 245.807808 
L 245.728181 239.516317 
L 249.985299 238.584245 
L 254.242417 236.487081 
L 258.499535 232.991809 
L 262.756653 234.389918 
L 267.013771 240.681408 
L 271.270889 243.943663 
L 275.528006 248.837044 
L 279.785124 250.934208 
L 284.042242 253.730426 
L 288.29936 223.205046 
L 292.556478 222.972027 
L 296.813596 210.855083 
L 301.070714 208.524901 
L 305.327832 215.515446 
L 309.58495 246.506862 
L 313.842068 239.283299 
L 318.099186 246.739881 
L 322.356304 234.622936 
L 326.613422 226.234282 
L 330.87054 220.175809 
L 335.127658 225.069191 
L 339.384776 223.205046 
L 343.641894 234.855954 
L 347.899012 232.059736 
L 352.15613 231.127663 
L 356.413248 212.253192 
L 360.670366 180.562721 
L 364.927483 181.727812 
L 369.184601 171.241994 
L 373.441719 149.105268 
L 377.698837 154.231668 
L 381.955955 181.494793 
L 386.213073 164.717485 
L 390.470191 169.610867 
L 394.727309 167.746721 
L 398.984427 178.698575 
L 403.241545 172.873121 
L 407.498663 186.155157 
L 411.755781 189.417411 
L 416.012899 210.156028 
L 420.270017 205.495665 
L 424.527135 202.932465 
L 428.784253 188.718357 
L 433.041371 177.766503 
L 437.298489 160.756176 
L 441.555607 143.279814 
L 445.812725 143.74585 
L 450.069843 151.668468 
L 454.32696 138.852468 
L 458.584078 121.143088 
L 462.841196 142.813777 
L 467.098314 123.007233 
L 471.355432 102.96767 
L 475.61255 102.501634 
L 479.869668 111.123306 
L 484.126786 85.25829 
" clip-path="url(#p66f4ed25e0)" style="fill: none; stroke: #a8d8ea; stroke-width: 2; stroke-linecap: square"/>
    <defs>
     <path id="m7cfb698d52" d="M 0 2.5 
C 0.663008 2.5 1.29895 2.236584 1.767767 1.767767 
C 2.236584 1.29895 2.5 0.663008 2.5 0 
C 2.5 -0.663008 2.236584 -1.29895 1.767767 -1.767767 
C 1.29895 -2.236584 0.663008 -2.5 0 -2.5 
C -0.663008 -2.5 -1.29895 -2.236584 -1.767767 -1.767767 
C -2.236584 -1.29895 -2.5 -0.663008 -2.5 0 
C -2.5 0.663008 -2.236584 1.29895 -1.767767 1.767767 
C -1.29895 2.236584 -0.663008 2.5 0 2.5 
z
" style="stroke: #1a1a1a; stroke-width: 0.8"/>
    </defs>
    <g clip-path="url(#p66f4ed25e0)">
     <use xlink:href="#m7cfb698d52" x="62.672109" y="280.993551" style="fill: #a8d8ea; stroke: #1a1a1a; stroke-width: 0.8"/>
     <use xlink:href="#m7cfb698d52" x="96.729052" y="282.39166" style="fill: #a8d8ea; stroke: #1a1a1a; stroke-width: 0.8"/>
     <use xlink:href="#m7cfb698d52" x="130.785996" y="282.39166" style="fill: #a8d8ea; stroke: #1a1a1a; stroke-width: 0.8"/>
     <use xlink:href="#m7cfb698d52" x="164.84294" y="272.371879" style="fill: #a8d8ea; stroke: #1a1a1a; stroke-width: 0.8"/>
     <use xlink:href="#m7cfb698d52" x="198.899883" y="264.915298" style="fill: #a8d8ea; stroke: #1a1a1a; stroke-width: 0.8"/>
     <use xlink:href="#m7cfb698d52" x="232.956827" y="256.293626" style="fill: #a8d8ea; stroke: #1a1a1a; stroke-width: 0.8"/>
     <use xlink:href="#m7cfb698d52" x="267.013771" y="240.681408" style="fill: #a8d8ea; stroke: #1a1a1a; stroke-width: 0.8"/>
     <use xlink:href="#m7cfb698d52" x="301.070714" y="208.524901" style="fill: #a8d8ea; stroke: #1a1a1a; stroke-width: 0.8"/>
     <use xlink:href="#m7cfb698d52" x="335.127658" y="225.069191" style="fill: #a8d8ea; stroke: #1a1a1a; stroke-width: 0.8"/>
     <use xlink:href="#m7cfb698d52" x="369.184601" y="171.241994" style="fill: #a8d8ea; stroke: #1a1a1a; stroke-width: 0.8"/>
     <use xlink:href="#m7cfb698d52" x="403.241545" y="172.873121" style="fill: #a8d8ea; stroke: #1a1a1a; stroke-width: 0.8"/>
     <use xlink:href="#m7cfb698d52" x="437.298489" y="160.756176" style="fill: #a8d8ea; stroke: #1a1a1a; stroke-width: 0.8"/>
     <use xlink:href="#m7cfb698d52" x="471.355432" y="102.96767" style="fill: #a8d8ea; stroke: #1a1a1a; stroke-width: 0.8"/>
    </g>
   </g>
   <g id="line2d_26">
    <path d="M 62.672109 282.040837 
L 66.929227 281.573073 
L 71.186345 281.105308 
L 75.443463 281.046837 
L 79.700581 281.046837 
L 83.957699 281.397661 
L 88.214817 281.865425 
L 92.471935 281.748484 
L 96.729052 281.631543 
L 100.98617 281.456131 
L 105.243288 280.696014 
L 109.500406 278.883426 
L 113.757524 278.006368 
L 118.014642 277.129309 
L 122.27176 275.024369 
L 126.528878 274.030369 
L 130.785996 272.802488 
L 135.043114 272.217782 
L 139.300232 269.294254 
L 143.55735 266.136843 
L 147.814468 264.324255 
L 152.071586 265.025902 
L 156.328704 261.576139 
L 160.585822 262.160844 
L 164.84294 265.142843 
L 169.100058 263.096374 
L 173.357176 261.810021 
L 177.614294 263.096374 
L 181.871412 262.453197 
L 186.128529 257.834023 
L 190.385647 257.132376 
L 194.642765 257.190846 
L 198.899883 257.950964 
L 203.157001 256.021435 
L 207.414119 254.676612 
L 211.671237 253.624142 
L 215.928355 243.918028 
L 220.185473 244.210381 
L 224.442591 244.210381 
L 228.699709 248.537202 
L 232.956827 243.976498 
L 237.213945 244.444263 
L 241.471063 239.591206 
L 245.728181 241.520734 
L 249.985299 240.819088 
L 254.242417 237.778618 
L 258.499535 243.15791 
L 262.756653 245.321321 
L 267.013771 227.838622 
L 271.270889 230.177445 
L 275.528006 242.924028 
L 279.785124 233.217914 
L 284.042242 231.522268 
L 288.29936 248.361791 
L 292.556478 235.790619 
L 296.813596 229.124974 
L 301.070714 229.358857 
L 305.327832 227.60474 
L 309.58495 222.5178 
L 313.842068 223.687212 
L 318.099186 219.711213 
L 322.356304 207.841688 
L 326.613422 199.714279 
L 330.87054 201.994632 
L 335.127658 209.595805 
L 339.384776 199.714279 
L 343.641894 200.240515 
L 347.899012 208.660276 
L 352.15613 197.200045 
L 356.413248 172.233113 
L 360.670366 177.846288 
L 364.927483 186.441461 
L 369.184601 190.592871 
L 373.441719 193.048635 
L 377.698837 198.486398 
L 381.955955 212.928627 
L 386.213073 197.024633 
L 390.470191 195.387458 
L 394.727309 196.089104 
L 398.984427 201.994632 
L 403.241545 191.5284 
L 407.498663 201.526867 
L 411.755781 174.221112 
L 416.012899 175.448994 
L 420.270017 187.143108 
L 424.527135 184.745814 
L 428.784253 197.316986 
L 433.041371 224.622741 
L 437.298489 221.933095 
L 441.555607 221.231448 
L 445.812725 221.056036 
L 450.069843 212.16851 
L 454.32696 199.421927 
L 458.584078 213.630274 
L 462.841196 198.194045 
L 467.098314 207.315453 
L 471.355432 187.903225 
L 475.61255 159.837353 
L 479.869668 115.575134 
L 484.126786 92.596202 
" clip-path="url(#p66f4ed25e0)" style="fill: none; stroke: #ffd8b1; stroke-width: 2; stroke-linecap: square"/>
    <defs>
     <path id="m81b531999e" d="M -2.5 2.5 
L 2.5 2.5 
L 2.5 -2.5 
L -2.5 -2.5 
z
" style="stroke: #1a1a1a; stroke-width: 0.8; stroke-linejoin: miter"/>
    </defs>
    <g clip-path="url(#p66f4ed25e0)">
     <use xlink:href="#m81b531999e" x="62.672109" y="282.040837" style="fill: #ffd8b1; stroke: #1a1a1a; stroke-width: 0.8; stroke-linejoin: miter"/>
     <use xlink:href="#m81b531999e" x="96.729052" y="281.631543" style="fill: #ffd8b1; stroke: #1a1a1a; stroke-width: 0.8; stroke-linejoin: miter"/>
     <use xlink:href="#m81b531999e" x="130.785996" y="272.802488" style="fill: #ffd8b1; stroke: #1a1a1a; stroke-width: 0.8; stroke-linejoin: miter"/>
     <use xlink:href="#m81b531999e" x="164.84294" y="265.142843" style="fill: #ffd8b1; stroke: #1a1a1a; stroke-width: 0.8; stroke-linejoin: miter"/>
     <use xlink:href="#m81b531999e" x="198.899883" y="257.950964" style="fill: #ffd8b1; stroke: #1a1a1a; stroke-width: 0.8; stroke-linejoin: miter"/>
     <use xlink:href="#m81b531999e" x="232.956827" y="243.976498" style="fill: #ffd8b1; stroke: #1a1a1a; stroke-width: 0.8; stroke-linejoin: miter"/>
     <use xlink:href="#m81b531999e" x="267.013771" y="227.838622" style="fill: #ffd8b1; stroke: #1a1a1a; stroke-width: 0.8; stroke-linejoin: miter"/>
     <use xlink:href="#m81b531999e" x="301.070714" y="229.358857" style="fill: #ffd8b1; stroke: #1a1a1a; stroke-width: 0.8; stroke-linejoin: miter"/>
     <use xlink:href="#m81b531999e" x="335.127658" y="209.595805" style="fill: #ffd8b1; stroke: #1a1a1a; stroke-width: 0.8; stroke-linejoin: miter"/>
     <use xlink:href="#m81b531999e" x="369.184601" y="190.592871" style="fill: #ffd8b1; stroke: #1a1a1a; stroke-width: 0.8; stroke-linejoin: miter"/>
     <use xlink:href="#m81b531999e" x="403.241545" y="191.5284" style="fill: #ffd8b1; stroke: #1a1a1a; stroke-width: 0.8; stroke-linejoin: miter"/>
     <use xlink:href="#m81b531999e" x="437.298489" y="221.933095" style="fill: #ffd8b1; stroke: #1a1a1a; stroke-width: 0.8; stroke-linejoin: miter"/>
     <use xlink:href="#m81b531999e" x="471.355432" y="187.903225" style="fill: #ffd8b1; stroke: #1a1a1a; stroke-width: 0.8; stroke-linejoin: miter"/>
    </g>
   </g>
   <g id="line2d_27">
    <path d="M 62.672109 265.178646 
L 66.929227 260.114047 
L 71.186345 258.789969 
L 75.443463 252.633006 
L 79.700581 255.976303 
L 83.957699 256.307323 
L 88.214817 251.474438 
L 92.471935 249.057996 
L 96.729052 240.087367 
L 100.98617 235.05587 
L 105.243288 227.24381 
L 109.500406 234.261423 
L 113.757524 222.874352 
L 118.014642 226.879688 
L 122.27176 224.496348 
L 126.528878 214.300947 
L 130.785996 201.424288 
L 135.043114 199.371967 
L 139.300232 198.57752 
L 143.55735 191.427499 
L 147.814468 208.938431 
L 152.071586 198.511316 
L 156.328704 193.049494 
L 160.585822 183.549234 
L 164.84294 184.906414 
L 169.100058 183.218215 
L 173.357176 189.706197 
L 177.614294 197.187238 
L 181.871412 205.264114 
L 186.128529 205.462726 
L 190.385647 206.157867 
L 194.642765 206.091663 
L 198.899883 204.039342 
L 203.157001 194.770796 
L 207.414119 200.298821 
L 211.671237 203.443507 
L 215.928355 202.946978 
L 220.185473 211.255567 
L 224.442591 217.875958 
L 228.699709 203.509711 
L 232.956827 195.366631 
L 237.213945 196.955524 
L 241.471063 188.514527 
L 245.728181 182.523074 
L 249.985299 176.333009 
L 254.242417 179.245981 
L 258.499535 184.476089 
L 262.756653 178.848757 
L 267.013771 182.820991 
L 271.270889 203.145589 
L 275.528006 191.129581 
L 279.785124 185.767065 
L 284.042242 188.613833 
L 288.29936 179.245981 
L 292.556478 161.867456 
L 296.813596 168.322337 
L 301.070714 161.238519 
L 305.327832 148.494268 
L 309.58495 142.866936 
L 313.842068 152.896827 
L 318.099186 143.231058 
L 322.356304 139.19262 
L 326.613422 148.295656 
L 330.87054 166.369321 
L 335.127658 146.938476 
L 339.384776 154.783639 
L 343.641894 153.658172 
L 347.899012 142.966242 
L 352.15613 122.807154 
L 356.413248 129.096524 
L 360.670366 127.309019 
L 364.927483 125.091188 
L 369.184601 137.239604 
L 373.441719 151.705157 
L 377.698837 158.358649 
L 381.955955 153.856784 
L 386.213073 144.819951 
L 390.470191 132.638433 
L 394.727309 118.239084 
L 398.984427 99.999909 
L 403.241545 100.198521 
L 407.498663 112.446243 
L 411.755781 115.226807 
L 416.012899 121.317566 
L 420.270017 127.805548 
L 424.527135 121.847197 
L 428.784253 124.760169 
L 433.041371 122.972663 
L 437.298489 113.968933 
L 441.555607 113.008976 
L 445.812725 100.728152 
L 450.069843 100.794356 
L 454.32696 102.317046 
L 458.584078 111.420083 
L 462.841196 119.000429 
L 467.098314 141.774572 
L 471.355432 136.974789 
L 475.61255 148.858389 
L 479.869668 157.597304 
L 484.126786 165.707282 
" clip-path="url(#p66f4ed25e0)" style="fill: none; stroke: #b5ead7; stroke-width: 2; stroke-linecap: square"/>
    <defs>
     <path id="mf8bc77425b" d="M 0 -2.5 
L -2.5 2.5 
L 2.5 2.5 
z
" style="stroke: #1a1a1a; stroke-width: 0.8; stroke-linejoin: miter"/>
    </defs>
    <g clip-path="url(#p66f4ed25e0)">
     <use xlink:href="#mf8bc77425b" x="62.672109" y="265.178646" style="fill: #b5ead7; stroke: #1a1a1a; stroke-width: 0.8; stroke-linejoin: miter"/>
     <use xlink:href="#mf8bc77425b" x="96.729052" y="240.087367" style="fill: #b5ead7; stroke: #1a1a1a; stroke-width: 0.8; stroke-linejoin: miter"/>
     <use xlink:href="#mf8bc77425b" x="130.785996" y="201.424288" style="fill: #b5ead7; stroke: #1a1a1a; stroke-width: 0.8; stroke-linejoin: miter"/>
     <use xlink:href="#mf8bc77425b" x="164.84294" y="184.906414" style="fill: #b5ead7; stroke: #1a1a1a; stroke-width: 0.8; stroke-linejoin: miter"/>
     <use xlink:href="#mf8bc77425b" x="198.899883" y="204.039342" style="fill: #b5ead7; stroke: #1a1a1a; stroke-width: 0.8; stroke-linejoin: miter"/>
     <use xlink:href="#mf8bc77425b" x="232.956827" y="195.366631" style="fill: #b5ead7; stroke: #1a1a1a; stroke-width: 0.8; stroke-linejoin: miter"/>
     <use xlink:href="#mf8bc77425b" x="267.013771" y="182.820991" style="fill: #b5ead7; stroke: #1a1a1a; stroke-width: 0.8; stroke-linejoin: miter"/>
     <use xlink:href="#mf8bc77425b" x="301.070714" y="161.238519" style="fill: #b5ead7; stroke: #1a1a1a; stroke-width: 0.8; stroke-linejoin: miter"/>
     <use xlink:href="#mf8bc77425b" x="335.127658" y="146.938476" style="fill: #b5ead7; stroke: #1a1a1a; stroke-width: 0.8; stroke-linejoin: miter"/>
     <use xlink:href="#mf8bc77425b" x="369.184601" y="137.239604" style="fill: #b5ead7; stroke: #1a1a1a; stroke-width: 0.8; stroke-linejoin: miter"/>
     <use xlink:href="#mf8bc77425b" x="403.241545" y="100.198521" style="fill: #b5ead7; stroke: #1a1a1a; stroke-width: 0.8; stroke-linejoin: miter"/>
     <use xlink:href="#mf8bc77425b" x="437.298489" y="113.968933" style="fill: #b5ead7; stroke: #1a1a1a; stroke-width: 0.8; stroke-linejoin: miter"/>
     <use xlink:href="#mf8bc77425b" x="471.355432" y="136.974789" style="fill: #b5ead7; stroke: #1a1a1a; stroke-width: 0.8; stroke-linejoin: miter"/>
    </g>
   </g>
   <g id="patch_3">
    <path d="M 41.599375 294.217332 
L 41.599375 22.226875 
" style="fill: none; stroke: #1a1a1a; stroke-width: 1.2; stroke-linejoin: miter; stroke-linecap: square"/>
   </g>
   <g id="patch_4">
    <path d="M 505.19952 294.217332 
L 505.19952 22.226875 
" style="fill: none; stroke: #1a1a1a; stroke-width: 1.2; stroke-linejoin: miter; stroke-linecap: square"/>
   </g>
   <g id="patch_5">
    <path d="M 41.599375 294.217332 
L 505.19952 294.217332 
" style="fill: none; stroke: #1a1a1a; stroke-width: 1.2; stroke-linejoin: miter; stroke-linecap: square"/>
   </g>
   <g id="patch_6">
    <path d="M 41.599375 22.226875 
L 505.19952 22.226875 
" style="fill: none; stroke: #1a1a1a; stroke-width: 1.2; stroke-linejoin: miter; stroke-linecap: square"/>
   </g>
   <g id="text_15">
    <!-- Expert Training Progress — Normalized Comparison -->
    <g transform="translate(134.561479 16.226875) scale(0.13 -0.13)">
     <defs>
      <path id="TimesNewRomanPSMT-54" d="M 3703 4238 
L 3750 3244 
L 3631 3244 
Q 3597 3506 3538 3619 
Q 3441 3800 3280 3886 
Q 3119 3972 2856 3972 
L 2259 3972 
L 2259 734 
Q 2259 344 2344 247 
Q 2463 116 2709 116 
L 2856 116 
L 2856 0 
L 1059 0 
L 1059 116 
L 1209 116 
Q 1478 116 1591 278 
Q 1659 378 1659 734 
L 1659 3972 
L 1150 3972 
Q 853 3972 728 3928 
Q 566 3869 450 3700 
Q 334 3531 313 3244 
L 194 3244 
L 244 4238 
L 3703 4238 
z
" transform="scale(0.015625)"/>
      <path id="TimesNewRomanPSMT-67" d="M 966 1044 
Q 703 1172 562 1401 
Q 422 1631 422 1909 
Q 422 2334 742 2640 
Q 1063 2947 1563 2947 
Q 1972 2947 2272 2747 
L 2878 2747 
Q 3013 2747 3034 2739 
Q 3056 2731 3066 2713 
Q 3084 2684 3084 2613 
Q 3084 2531 3069 2500 
Q 3059 2484 3036 2475 
Q 3013 2466 2878 2466 
L 2506 2466 
Q 2681 2241 2681 1891 
Q 2681 1491 2375 1206 
Q 2069 922 1553 922 
Q 1341 922 1119 984 
Q 981 866 932 777 
Q 884 688 884 625 
Q 884 572 936 522 
Q 988 472 1138 450 
Q 1225 438 1575 428 
Q 2219 413 2409 384 
Q 2700 344 2873 169 
Q 3047 -6 3047 -263 
Q 3047 -616 2716 -925 
Q 2228 -1381 1444 -1381 
Q 841 -1381 425 -1109 
Q 191 -953 191 -784 
Q 191 -709 225 -634 
Q 278 -519 444 -313 
Q 466 -284 763 25 
Q 600 122 533 198 
Q 466 275 466 372 
Q 466 481 555 628 
Q 644 775 966 1044 
z
M 1509 2797 
Q 1278 2797 1122 2612 
Q 966 2428 966 2047 
Q 966 1553 1178 1281 
Q 1341 1075 1591 1075 
Q 1828 1075 1981 1253 
Q 2134 1431 2134 1813 
Q 2134 2309 1919 2591 
Q 1759 2797 1509 2797 
z
M 934 0 
Q 788 -159 713 -296 
Q 638 -434 638 -550 
Q 638 -700 819 -813 
Q 1131 -1006 1722 -1006 
Q 2284 -1006 2551 -807 
Q 2819 -609 2819 -384 
Q 2819 -222 2659 -153 
Q 2497 -84 2016 -72 
Q 1313 -53 934 0 
z
" transform="scale(0.015625)"/>
      <path id="TimesNewRomanPSMT-50" d="M 1313 1984 
L 1313 750 
Q 1313 350 1400 253 
Q 1519 116 1759 116 
L 1922 116 
L 1922 0 
L 106 0 
L 106 116 
L 266 116 
Q 534 116 650 291 
Q 713 388 713 750 
L 713 3488 
Q 713 3888 628 3984 
Q 506 4122 266 4122 
L 106 4122 
L 106 4238 
L 1659 4238 
Q 2228 4238 2556 4120 
Q 2884 4003 3109 3725 
Q 3334 3447 3334 3066 
Q 3334 2547 2992 2222 
Q 2650 1897 2025 1897 
Q 1872 1897 1694 1919 
Q 1516 1941 1313 1984 
z
M 1313 2163 
Q 1478 2131 1606 2115 
Q 1734 2100 1825 2100 
Q 2150 2100 2386 2351 
Q 2622 2603 2622 3003 
Q 2622 3278 2509 3514 
Q 2397 3750 2190 3867 
Q 1984 3984 1722 3984 
Q 1563 3984 1313 3925 
L 1313 2163 
z
" transform="scale(0.015625)"/>
      <path id="TimesNewRomanPSMT-2014" d="M 6456 1416 
L -59 1416 
L -59 1647 
L 6456 1647 
L 6456 1416 
z
" transform="scale(0.015625)"/>
      <path id="TimesNewRomanPSMT-43" d="M 3853 4334 
L 3950 2894 
L 3853 2894 
Q 3659 3541 3300 3825 
Q 2941 4109 2438 4109 
Q 2016 4109 1675 3895 
Q 1334 3681 1139 3212 
Q 944 2744 944 2047 
Q 944 1472 1128 1050 
Q 1313 628 1683 403 
Q 2053 178 2528 178 
Q 2941 178 3256 354 
Q 3572 531 3950 1056 
L 4047 994 
Q 3728 428 3303 165 
Q 2878 -97 2294 -97 
Q 1241 -97 663 684 
Q 231 1266 231 2053 
Q 231 2688 515 3219 
Q 800 3750 1298 4042 
Q 1797 4334 2388 4334 
Q 2847 4334 3294 4109 
Q 3425 4041 3481 4041 
Q 3566 4041 3628 4100 
Q 3709 4184 3744 4334 
L 3853 4334 
z
" transform="scale(0.015625)"/>
     </defs>
     <use xlink:href="#TimesNewRomanPSMT-45"/>
     <use xlink:href="#TimesNewRomanPSMT-78" transform="translate(61.083984 0)"/>
     <use xlink:href="#TimesNewRomanPSMT-70" transform="translate(111.083984 0)"/>
     <use xlink:href="#TimesNewRomanPSMT-65" transform="translate(161.083984 0)"/>
     <use xlink:href="#TimesNewRomanPSMT-72" transform="translate(205.46875 0)"/>
     <use xlink:href="#TimesNewRomanPSMT-74" transform="translate(238.769531 0)"/>
     <use xlink:href="#TimesNewRomanPSMT-20" transform="translate(266.552734 0)"/>
     <use xlink:href="#TimesNewRomanPSMT-54" transform="translate(289.802734 0)"/>
     <use xlink:href="#TimesNewRomanPSMT-72" transform="translate(347.386719 0)"/>
     <use xlink:href="#TimesNewRomanPSMT-61" transform="translate(380.6875 0)"/>
     <use xlink:href="#TimesNewRomanPSMT-69" transform="translate(425.072266 0)"/>
     <use xlink:href="#TimesNewRomanPSMT-6e" transform="translate(452.855469 0)"/>
     <use xlink:href="#TimesNewRomanPSMT-69" transform="translate(502.855469 0)"/>
     <use xlink:href="#TimesNewRomanPSMT-6e" transform="translate(530.638672 0)"/>
     <use xlink:href="#TimesNewRomanPSMT-67" transform="translate(580.638672 0)"/>
     <use xlink:href="#TimesNewRomanPSMT-20" transform="translate(630.638672 0)"/>
     <use xlink:href="#TimesNewRomanPSMT-50" transform="translate(655.638672 0)"/>
     <use xlink:href="#TimesNewRomanPSMT-72" transform="translate(711.253906 0)"/>
     <use xlink:href="#TimesNewRomanPSMT-6f" transform="translate(744.554688 0)"/>
     <use xlink:href="#TimesNewRomanPSMT-67" transform="translate(794.554688 0)"/>
     <use xlink:href="#TimesNewRomanPSMT-72" transform="translate(844.554688 0)"/>
     <use xlink:href="#TimesNewRomanPSMT-65" transform="translate(877.855469 0)"/>
     <use xlink:href="#TimesNewRomanPSMT-73" transform="translate(922.240234 0)"/>
     <use xlink:href="#TimesNewRomanPSMT-73" transform="translate(961.15625 0)"/>
     <use xlink:href="#TimesNewRomanPSMT-20" transform="translate(1000.072266 0)"/>
     <use xlink:href="#TimesNewRomanPSMT-2014" transform="translate(1025.072266 0)"/>
     <use xlink:href="#TimesNewRomanPSMT-20" transform="translate(1125.072266 0)"/>
     <use xlink:href="#TimesNewRomanPSMT-4e" transform="translate(1150.072266 0)"/>
     <use xlink:href="#TimesNewRomanPSMT-6f" transform="translate(1222.289062 0)"/>
     <use xlink:href="#TimesNewRomanPSMT-72" transform="translate(1272.289062 0)"/>
     <use xlink:href="#TimesNewRomanPSMT-6d" transform="translate(1305.589844 0)"/>
     <use xlink:href="#TimesNewRomanPSMT-61" transform="translate(1383.373047 0)"/>
     <use xlink:href="#TimesNewRomanPSMT-6c" transform="translate(1427.757812 0)"/>
     <use xlink:href="#TimesNewRomanPSMT-69" transform="translate(1455.541016 0)"/>
     <use xlink:href="#TimesNewRomanPSMT-7a" transform="translate(1483.324219 0)"/>
     <use xlink:href="#TimesNewRomanPSMT-65" transform="translate(1527.708984 0)"/>
     <use xlink:href="#TimesNewRomanPSMT-64" transform="translate(1572.09375 0)"/>
     <use xlink:href="#TimesNewRomanPSMT-20" transform="translate(1622.09375 0)"/>
     <use xlink:href="#TimesNewRomanPSMT-43" transform="translate(1647.09375 0)"/>
     <use xlink:href="#TimesNewRomanPSMT-6f" transform="translate(1713.792969 0)"/>
     <use xlink:href="#TimesNewRomanPSMT-6d" transform="translate(1763.792969 0)"/>
     <use xlink:href="#TimesNewRomanPSMT-70" transform="translate(1841.576172 0)"/>
     <use xlink:href="#TimesNewRomanPSMT-61" transform="translate(1891.576172 0)"/>
     <use xlink:href="#TimesNewRomanPSMT-72" transform="translate(1935.960938 0)"/>
     <use xlink:href="#TimesNewRomanPSMT-69" transform="translate(1969.261719 0)"/>
     <use xlink:href="#TimesNewRomanPSMT-73" transform="translate(1997.044922 0)"/>
     <use xlink:href="#TimesNewRomanPSMT-6f" transform="translate(2035.960938 0)"/>
     <use xlink:href="#TimesNewRomanPSMT-6e" transform="translate(2085.960938 0)"/>
    </g>
   </g>
   <g id="legend_1">
    <g id="patch_7">
     <path d="M 405.891707 72.662812 
L 500.19952 72.662812 
L 500.19952 27.226875 
L 405.891707 27.226875 
z
" style="fill: #fafafa; opacity: 0.9; stroke: #1a1a1a; stroke-linejoin: miter"/>
    </g>
    <g id="line2d_28">
     <path d="M 409.891707 34.726875 
L 419.891707 34.726875 
L 429.891707 34.726875 
" style="fill: none; stroke: #a8d8ea; stroke-width: 2; stroke-linecap: square"/>
     <g>
      <use xlink:href="#m7cfb698d52" x="419.891707" y="34.726875" style="fill: #a8d8ea; stroke: #1a1a1a; stroke-width: 0.8"/>
     </g>
    </g>
    <g id="text_16">
     <!-- Pong -->
     <g transform="translate(437.891707 38.226875) scale(0.1 -0.1)">
      <use xlink:href="#TimesNewRomanPSMT-50"/>
      <use xlink:href="#TimesNewRomanPSMT-6f" transform="translate(55.615234 0)"/>
      <use xlink:href="#TimesNewRomanPSMT-6e" transform="translate(105.615234 0)"/>
      <use xlink:href="#TimesNewRomanPSMT-67" transform="translate(155.615234 0)"/>
     </g>
    </g>
    <g id="line2d_29">
     <path d="M 409.891707 48.884687 
L 419.891707 48.884687 
L 429.891707 48.884687 
" style="fill: none; stroke: #ffd8b1; stroke-width: 2; stroke-linecap: square"/>
     <g>
      <use xlink:href="#m81b531999e" x="419.891707" y="48.884687" style="fill: #ffd8b1; stroke: #1a1a1a; stroke-width: 0.8; stroke-linejoin: miter"/>
     </g>
    </g>
    <g id="text_17">
     <!-- Breakout -->
     <g transform="translate(437.891707 52.384687) scale(0.1 -0.1)">
      <defs>
       <path id="TimesNewRomanPSMT-42" d="M 2956 2163 
Q 3397 2069 3616 1863 
Q 3919 1575 3919 1159 
Q 3919 844 3719 555 
Q 3519 266 3170 133 
Q 2822 0 2106 0 
L 106 0 
L 106 116 
L 266 116 
Q 531 116 647 284 
Q 719 394 719 750 
L 719 3488 
Q 719 3881 628 3984 
Q 506 4122 266 4122 
L 106 4122 
L 106 4238 
L 1938 4238 
Q 2450 4238 2759 4163 
Q 3228 4050 3475 3764 
Q 3722 3478 3722 3106 
Q 3722 2788 3528 2536 
Q 3334 2284 2956 2163 
z
M 1319 2331 
Q 1434 2309 1582 2298 
Q 1731 2288 1909 2288 
Q 2366 2288 2595 2386 
Q 2825 2484 2947 2687 
Q 3069 2891 3069 3131 
Q 3069 3503 2766 3765 
Q 2463 4028 1881 4028 
Q 1569 4028 1319 3959 
L 1319 2331 
z
M 1319 306 
Q 1681 222 2034 222 
Q 2600 222 2897 476 
Q 3194 731 3194 1106 
Q 3194 1353 3059 1581 
Q 2925 1809 2622 1940 
Q 2319 2072 1872 2072 
Q 1678 2072 1540 2065 
Q 1403 2059 1319 2044 
L 1319 306 
z
" transform="scale(0.015625)"/>
       <path id="TimesNewRomanPSMT-75" d="M 2709 2863 
L 2709 1128 
Q 2709 631 2732 520 
Q 2756 409 2807 365 
Q 2859 322 2928 322 
Q 3025 322 3147 375 
L 3191 266 
L 2334 -88 
L 2194 -88 
L 2194 519 
Q 1825 119 1631 15 
Q 1438 -88 1222 -88 
Q 981 -88 804 51 
Q 628 191 559 409 
Q 491 628 491 1028 
L 491 2306 
Q 491 2509 447 2587 
Q 403 2666 317 2708 
Q 231 2750 6 2747 
L 6 2863 
L 1009 2863 
L 1009 947 
Q 1009 547 1148 422 
Q 1288 297 1484 297 
Q 1619 297 1789 381 
Q 1959 466 2194 703 
L 2194 2325 
Q 2194 2569 2105 2655 
Q 2016 2741 1734 2747 
L 1734 2863 
L 2709 2863 
z
" transform="scale(0.015625)"/>
      </defs>
      <use xlink:href="#TimesNewRomanPSMT-42"/>
      <use xlink:href="#TimesNewRomanPSMT-72" transform="translate(66.699219 0)"/>
      <use xlink:href="#TimesNewRomanPSMT-65" transform="translate(100 0)"/>
      <use xlink:href="#TimesNewRomanPSMT-61" transform="translate(144.384766 0)"/>
      <use xlink:href="#TimesNewRomanPSMT-6b" transform="translate(188.769531 0)"/>
      <use xlink:href="#TimesNewRomanPSMT-6f" transform="translate(238.769531 0)"/>
      <use xlink:href="#TimesNewRomanPSMT-75" transform="translate(288.769531 0)"/>
      <use xlink:href="#TimesNewRomanPSMT-74" transform="translate(338.769531 0)"/>
     </g>
    </g>
    <g id="line2d_30">
     <path d="M 409.891707 63.02375 
L 419.891707 63.02375 
L 429.891707 63.02375 
" style="fill: none; stroke: #b5ead7; stroke-width: 2; stroke-linecap: square"/>
     <g>
      <use xlink:href="#mf8bc77425b" x="419.891707" y="63.02375" style="fill: #b5ead7; stroke: #1a1a1a; stroke-width: 0.8; stroke-linejoin: miter"/>
     </g>
    </g>
    <g id="text_18">
     <!-- SpaceInvaders -->
     <g transform="translate(437.891707 66.52375) scale(0.1 -0.1)">
      <defs>
       <path id="TimesNewRomanPSMT-63" d="M 2631 1088 
Q 2516 522 2178 217 
Q 1841 -88 1431 -88 
Q 944 -88 581 321 
Q 219 731 219 1428 
Q 219 2103 620 2525 
Q 1022 2947 1584 2947 
Q 2006 2947 2278 2723 
Q 2550 2500 2550 2259 
Q 2550 2141 2473 2067 
Q 2397 1994 2259 1994 
Q 2075 1994 1981 2113 
Q 1928 2178 1911 2362 
Q 1894 2547 1784 2644 
Q 1675 2738 1481 2738 
Q 1169 2738 978 2506 
Q 725 2200 725 1697 
Q 725 1184 976 792 
Q 1228 400 1656 400 
Q 1963 400 2206 609 
Q 2378 753 2541 1131 
L 2631 1088 
z
" transform="scale(0.015625)"/>
       <path id="TimesNewRomanPSMT-49" d="M 1975 116 
L 1975 0 
L 159 0 
L 159 116 
L 309 116 
Q 572 116 691 269 
Q 766 369 766 750 
L 766 3488 
Q 766 3809 725 3913 
Q 694 3991 597 4047 
Q 459 4122 309 4122 
L 159 4122 
L 159 4238 
L 1975 4238 
L 1975 4122 
L 1822 4122 
Q 1563 4122 1444 3969 
Q 1366 3869 1366 3488 
L 1366 750 
Q 1366 428 1406 325 
Q 1438 247 1538 191 
Q 1672 116 1822 116 
L 1975 116 
z
" transform="scale(0.015625)"/>
      </defs>
      <use xlink:href="#TimesNewRomanPSMT-53"/>
      <use xlink:href="#TimesNewRomanPSMT-70" transform="translate(55.615234 0)"/>
      <use xlink:href="#TimesNewRomanPSMT-61" transform="translate(105.615234 0)"/>
      <use xlink:href="#TimesNewRomanPSMT-63" transform="translate(150 0)"/>
      <use xlink:href="#TimesNewRomanPSMT-65" transform="translate(194.384766 0)"/>
      <use xlink:href="#TimesNewRomanPSMT-49" transform="translate(238.769531 0)"/>
      <use xlink:href="#TimesNewRomanPSMT-6e" transform="translate(272.070312 0)"/>
      <use xlink:href="#TimesNewRomanPSMT-76" transform="translate(322.070312 0)"/>
      <use xlink:href="#TimesNewRomanPSMT-61" transform="translate(372.070312 0)"/>
      <use xlink:href="#TimesNewRomanPSMT-64" transform="translate(416.455078 0)"/>
      <use xlink:href="#TimesNewRomanPSMT-65" transform="translate(466.455078 0)"/>
      <use xlink:href="#TimesNewRomanPSMT-72" transform="translate(510.839844 0)"/>
      <use xlink:href="#TimesNewRomanPSMT-73" transform="translate(544.140625 0)"/>
     </g>
    </g>
   </g>
  </g>
 </g>
 <defs>
  <clipPath id="p66f4ed25e0">
   <rect x="41.599375" y="22.226875" width="463.600145" height="271.990458"/>
  </clipPath>
 </defs>
</svg>
