<?xml version="1.0" encoding="utf-8" standalone="no"?>
<!DOCTYPE svg PUBLIC "-//W3C//DTD SVG 1.1//EN"
  "http://www.w3.org/Graphics/SVG/1.1/DTD/svg11.dtd">
<svg xmlns:xlink="http://www.w3.org/1999/xlink" width="512.39952pt" height="332.39952pt" viewBox="0 0 512.39952 332.39952" xmlns="http://www.w3.org/2000/svg" version="1.1">
 <metadata>
  <rdf:RDF xmlns:dc="http://purl.org/dc/elements/1.1/" xmlns:cc="http://creativecommons.org/ns#" xmlns:rdf="http://www.w3.org/1999/02/22-rdf-syntax-ns#">
   <cc:Work>
    <dc:type rdf:resource="http://purl.org/dc/dcmitype/StillImage"/>
    <dc:date>2026-02-27T09:28:51.770019</dc:date>
    <dc:format>image/svg+xml</dc:format>
    <dc:creator>
     <cc:Agent>
      <dc:title>Matplotlib v3.8.0, https://matplotlib.org/</dc:title>
     </cc:Agent>
    </dc:creator>
   </cc:Work>
  </rdf:RDF>
 </metadata>
 <defs>
  <style type="text/css">*{stroke-linejoin: round; stroke-linecap: butt}</style>
 </defs>
 <g id="figure_1">
  <g id="patch_1">
   <path d="M 0 332.39952 
L 512.39952 332.39952 
L 512.39952 0 
L 0 0 
z
" style="fill: #ffffff"/>
  </g>
  <g id="axes_1">
   <g id="patch_2">
    <path d="M 52.079375 292.907645 
L 505.19952 292.907645 
L 505.19952 23.077969 
L 52.079375 23.077969 
z
" style="fill: #fafafa"/>
   </g>
   <g id="matplotlib.axis_1">
    <g id="xtick_1">
     <g id="line2d_1">
      <path d="M 137.716914 292.907645 
L 137.716914 23.077969 
" clip-path="url(#p3dc7ba5264)" style="fill: none; stroke: #e0e0e0; stroke-opacity: 0.7; stroke-width: 0.6; stroke-linecap: square"/>
     </g>
     <g id="line2d_2">
      <defs>
       <path id="m7faa97b46d" d="M 0 0 
L 0 3.5 
" style="stroke: #000000"/>
      </defs>
      <g>
       <use xlink:href="#m7faa97b46d" x="137.716914" y="292.907645" style="stroke: #000000"/>
      </g>
     </g>
     <g id="text_1">
      <!-- 200k -->
      <g transform="translate(125.143477 307.506082) scale(0.1 -0.1)">
       <defs>
        <path id="DejaVuSerif-32" d="M 819 3553 
L 469 3553 
L 469 4384 
Q 803 4563 1142 4656 
Q 1481 4750 1806 4750 
Q 2534 4750 2956 4397 
Q 3378 4044 3378 3438 
Q 3378 2753 2422 1800 
Q 2347 1728 2309 1691 
L 1131 513 
L 3078 513 
L 3078 1088 
L 3444 1088 
L 3444 0 
L 434 0 
L 434 341 
L 1850 1753 
Q 2319 2222 2519 2614 
Q 2719 3006 2719 3438 
Q 2719 3909 2473 4175 
Q 2228 4441 1797 4441 
Q 1350 4441 1106 4219 
Q 863 3997 819 3553 
z
" transform="scale(0.015625)"/>
        <path id="DejaVuSerif-30" d="M 2034 219 
Q 2513 219 2750 744 
Q 2988 1269 2988 2328 
Q 2988 3391 2750 3916 
Q 2513 4441 2034 4441 
Q 1556 4441 1318 3916 
Q 1081 3391 1081 2328 
Q 1081 1269 1318 744 
Q 1556 219 2034 219 
z
M 2034 -91 
Q 1275 -91 848 546 
Q 422 1184 422 2328 
Q 422 3475 848 4112 
Q 1275 4750 2034 4750 
Q 2797 4750 3222 4112 
Q 3647 3475 3647 2328 
Q 3647 1184 3222 546 
Q 2797 -91 2034 -91 
z
" transform="scale(0.015625)"/>
        <path id="DejaVuSerif-6b" d="M 1831 0 
L 219 0 
L 219 331 
L 738 331 
L 738 4531 
L 184 4531 
L 184 4863 
L 1313 4863 
L 1313 1697 
L 2713 2988 
L 2234 2988 
L 2234 3322 
L 3738 3322 
L 3738 2988 
L 3169 2988 
L 2181 2075 
L 3444 331 
L 3922 331 
L 3922 0 
L 2284 0 
L 2284 331 
L 2759 331 
L 1766 1697 
L 1313 1275 
L 1313 331 
L 1831 331 
L 1831 0 
z
" transform="scale(0.015625)"/>
       </defs>
       <use xlink:href="#DejaVuSerif-32"/>
       <use xlink:href="#DejaVuSerif-30" x="63.623047"/>
       <use xlink:href="#DejaVuSerif-30" x="127.246094"/>
       <use xlink:href="#DejaVuSerif-6b" x="190.869141"/>
      </g>
     </g>
    </g>
    <g id="xtick_2">
     <g id="line2d_3">
      <path d="M 224.438473 292.907645 
L 224.438473 23.077969 
" clip-path="url(#p3dc7ba5264)" style="fill: none; stroke: #e0e0e0; stroke-opacity: 0.7; stroke-width: 0.6; stroke-linecap: square"/>
     </g>
     <g id="line2d_4">
      <g>
       <use xlink:href="#m7faa97b46d" x="224.438473" y="292.907645" style="stroke: #000000"/>
      </g>
     </g>
     <g id="text_2">
      <!-- 400k -->
      <g transform="translate(211.865036 307.506082) scale(0.1 -0.1)">
       <defs>
        <path id="DejaVuSerif-34" d="M 2234 1581 
L 2234 4063 
L 641 1581 
L 2234 1581 
z
M 3609 0 
L 1484 0 
L 1484 331 
L 2234 331 
L 2234 1247 
L 197 1247 
L 197 1588 
L 2241 4750 
L 2859 4750 
L 2859 1581 
L 3750 1581 
L 3750 1247 
L 2859 1247 
L 2859 331 
L 3609 331 
L 3609 0 
z
" transform="scale(0.015625)"/>
       </defs>
       <use xlink:href="#DejaVuSerif-34"/>
       <use xlink:href="#DejaVuSerif-30" x="63.623047"/>
       <use xlink:href="#DejaVuSerif-30" x="127.246094"/>
       <use xlink:href="#DejaVuSerif-6b" x="190.869141"/>
      </g>
     </g>
    </g>
    <g id="xtick_3">
     <g id="line2d_5">
      <path d="M 311.160032 292.907645 
L 311.160032 23.077969 
" clip-path="url(#p3dc7ba5264)" style="fill: none; stroke: #e0e0e0; stroke-opacity: 0.7; stroke-width: 0.6; stroke-linecap: square"/>
     </g>
     <g id="line2d_6">
      <g>
       <use xlink:href="#m7faa97b46d" x="311.160032" y="292.907645" style="stroke: #000000"/>
      </g>
     </g>
     <g id="text_3">
      <!-- 600k -->
      <g transform="translate(298.586595 307.506082) scale(0.1 -0.1)">
       <defs>
        <path id="DejaVuSerif-36" d="M 2094 219 
Q 2534 219 2771 542 
Q 3009 866 3009 1472 
Q 3009 2078 2771 2401 
Q 2534 2725 2094 2725 
Q 1647 2725 1412 2412 
Q 1178 2100 1178 1509 
Q 1178 888 1415 553 
Q 1653 219 2094 219 
z
M 1075 2569 
Q 1288 2803 1556 2918 
Q 1825 3034 2163 3034 
Q 2859 3034 3264 2615 
Q 3669 2197 3669 1472 
Q 3669 763 3233 336 
Q 2797 -91 2069 -91 
Q 1278 -91 853 498 
Q 428 1088 428 2181 
Q 428 3406 931 4078 
Q 1434 4750 2350 4750 
Q 2597 4750 2869 4703 
Q 3141 4656 3425 4563 
L 3425 3794 
L 3072 3794 
Q 3034 4109 2831 4275 
Q 2628 4441 2284 4441 
Q 1678 4441 1381 3981 
Q 1084 3522 1075 2569 
z
" transform="scale(0.015625)"/>
       </defs>
       <use xlink:href="#DejaVuSerif-36"/>
       <use xlink:href="#DejaVuSerif-30" x="63.623047"/>
       <use xlink:href="#DejaVuSerif-30" x="127.246094"/>
       <use xlink:href="#DejaVuSerif-6b" x="190.869141"/>
      </g>
     </g>
    </g>
    <g id="xtick_4">
     <g id="line2d_7">
      <path d="M 397.881591 292.907645 
L 397.881591 23.077969 
" clip-path="url(#p3dc7ba5264)" style="fill: none; stroke: #e0e0e0; stroke-opacity: 0.7; stroke-width: 0.6; stroke-linecap: square"/>
     </g>
     <g id="line2d_8">
      <g>
       <use xlink:href="#m7faa97b46d" x="397.881591" y="292.907645" style="stroke: #000000"/>
      </g>
     </g>
     <g id="text_4">
      <!-- 800k -->
      <g transform="translate(385.308153 307.506082) scale(0.1 -0.1)">
       <defs>
        <path id="DejaVuSerif-38" d="M 2981 1275 
Q 2981 1775 2732 2051 
Q 2484 2328 2034 2328 
Q 1584 2328 1336 2051 
Q 1088 1775 1088 1275 
Q 1088 772 1336 495 
Q 1584 219 2034 219 
Q 2484 219 2732 495 
Q 2981 772 2981 1275 
z
M 2853 3541 
Q 2853 3966 2637 4203 
Q 2422 4441 2034 4441 
Q 1650 4441 1433 4203 
Q 1216 3966 1216 3541 
Q 1216 3113 1433 2875 
Q 1650 2638 2034 2638 
Q 2422 2638 2637 2875 
Q 2853 3113 2853 3541 
z
M 2516 2484 
Q 3047 2413 3344 2092 
Q 3641 1772 3641 1275 
Q 3641 619 3225 264 
Q 2809 -91 2034 -91 
Q 1263 -91 845 264 
Q 428 619 428 1275 
Q 428 1772 725 2092 
Q 1022 2413 1556 2484 
Q 1084 2569 832 2842 
Q 581 3116 581 3541 
Q 581 4103 968 4426 
Q 1356 4750 2034 4750 
Q 2713 4750 3100 4426 
Q 3488 4103 3488 3541 
Q 3488 3116 3236 2842 
Q 2984 2569 2516 2484 
z
" transform="scale(0.015625)"/>
       </defs>
       <use xlink:href="#DejaVuSerif-38"/>
       <use xlink:href="#DejaVuSerif-30" x="63.623047"/>
       <use xlink:href="#DejaVuSerif-30" x="127.246094"/>
       <use xlink:href="#DejaVuSerif-6b" x="190.869141"/>
      </g>
     </g>
    </g>
    <g id="xtick_5">
     <g id="line2d_9">
      <path d="M 484.60315 292.907645 
L 484.60315 23.077969 
" clip-path="url(#p3dc7ba5264)" style="fill: none; stroke: #e0e0e0; stroke-opacity: 0.7; stroke-width: 0.6; stroke-linecap: square"/>
     </g>
     <g id="line2d_10">
      <g>
       <use xlink:href="#m7faa97b46d" x="484.60315" y="292.907645" style="stroke: #000000"/>
      </g>
     </g>
     <g id="text_5">
      <!-- 1.0M -->
      <g transform="translate(471.532056 307.506082) scale(0.1 -0.1)">
       <defs>
        <path id="DejaVuSerif-31" d="M 909 0 
L 909 331 
L 1722 331 
L 1722 4213 
L 781 3603 
L 781 4013 
L 1919 4750 
L 2350 4750 
L 2350 331 
L 3163 331 
L 3163 0 
L 909 0 
z
" transform="scale(0.015625)"/>
        <path id="DejaVuSerif-2e" d="M 603 325 
Q 603 500 722 622 
Q 841 744 1019 744 
Q 1191 744 1312 622 
Q 1434 500 1434 325 
Q 1434 153 1312 31 
Q 1191 -91 1019 -91 
Q 841 -91 722 29 
Q 603 150 603 325 
z
" transform="scale(0.015625)"/>
        <path id="DejaVuSerif-4d" d="M 353 0 
L 353 331 
L 947 331 
L 947 4331 
L 319 4331 
L 319 4666 
L 1678 4666 
L 3316 1344 
L 4953 4666 
L 6228 4666 
L 6228 4331 
L 5606 4331 
L 5606 331 
L 6203 331 
L 6203 0 
L 4378 0 
L 4378 331 
L 4972 331 
L 4972 3938 
L 3372 684 
L 2931 684 
L 1331 3938 
L 1331 331 
L 1925 331 
L 1925 0 
L 353 0 
z
" transform="scale(0.015625)"/>
       </defs>
       <use xlink:href="#DejaVuSerif-31"/>
       <use xlink:href="#DejaVuSerif-2e" x="63.623047"/>
       <use xlink:href="#DejaVuSerif-30" x="95.410156"/>
       <use xlink:href="#DejaVuSerif-4d" x="159.033203"/>
      </g>
     </g>
    </g>
    <g id="text_6">
     <!-- Environment Steps -->
     <g transform="translate(220.32601 322.703895) scale(0.12 -0.12)">
      <defs>
       <path id="DejaVuSerif-45" d="M 353 0 
L 353 331 
L 947 331 
L 947 4331 
L 353 4331 
L 353 4666 
L 4109 4666 
L 4109 3628 
L 3725 3628 
L 3725 4281 
L 1581 4281 
L 1581 2719 
L 3109 2719 
L 3109 3303 
L 3494 3303 
L 3494 1753 
L 3109 1753 
L 3109 2338 
L 1581 2338 
L 1581 384 
L 3775 384 
L 3775 1038 
L 4159 1038 
L 4159 0 
L 353 0 
z
" transform="scale(0.015625)"/>
       <path id="DejaVuSerif-6e" d="M 263 0 
L 263 331 
L 781 331 
L 781 2988 
L 231 2988 
L 231 3322 
L 1356 3322 
L 1356 2731 
Q 1516 3069 1770 3241 
Q 2025 3413 2363 3413 
Q 2913 3413 3172 3097 
Q 3431 2781 3431 2113 
L 3431 331 
L 3944 331 
L 3944 0 
L 2356 0 
L 2356 331 
L 2853 331 
L 2853 1931 
Q 2853 2541 2703 2767 
Q 2553 2994 2175 2994 
Q 1775 2994 1565 2701 
Q 1356 2409 1356 1850 
L 1356 331 
L 1856 331 
L 1856 0 
L 263 0 
z
" transform="scale(0.015625)"/>
       <path id="DejaVuSerif-76" d="M 1581 0 
L 359 2988 
L -19 2988 
L -19 3322 
L 1509 3322 
L 1509 2988 
L 978 2988 
L 1913 703 
L 2847 2988 
L 2350 2988 
L 2350 3322 
L 3597 3322 
L 3597 2988 
L 3225 2988 
L 2003 0 
L 1581 0 
z
" transform="scale(0.015625)"/>
       <path id="DejaVuSerif-69" d="M 622 4353 
Q 622 4497 726 4603 
Q 831 4709 978 4709 
Q 1122 4709 1226 4603 
Q 1331 4497 1331 4353 
Q 1331 4206 1228 4103 
Q 1125 4000 978 4000 
Q 831 4000 726 4103 
Q 622 4206 622 4353 
z
M 1356 331 
L 1900 331 
L 1900 0 
L 231 0 
L 231 331 
L 781 331 
L 781 2988 
L 231 2988 
L 231 3322 
L 1356 3322 
L 1356 331 
z
" transform="scale(0.015625)"/>
       <path id="DejaVuSerif-72" d="M 3059 3328 
L 3059 2497 
L 2728 2497 
Q 2713 2744 2591 2866 
Q 2469 2988 2234 2988 
Q 1809 2988 1582 2694 
Q 1356 2400 1356 1850 
L 1356 331 
L 2022 331 
L 2022 0 
L 263 0 
L 263 331 
L 781 331 
L 781 2994 
L 231 2994 
L 231 3322 
L 1356 3322 
L 1356 2731 
Q 1525 3078 1790 3245 
Q 2056 3413 2438 3413 
Q 2578 3413 2733 3391 
Q 2888 3369 3059 3328 
z
" transform="scale(0.015625)"/>
       <path id="DejaVuSerif-6f" d="M 1925 219 
Q 2388 219 2623 584 
Q 2859 950 2859 1663 
Q 2859 2375 2623 2739 
Q 2388 3103 1925 3103 
Q 1463 3103 1227 2739 
Q 991 2375 991 1663 
Q 991 950 1228 584 
Q 1466 219 1925 219 
z
M 1925 -91 
Q 1200 -91 759 389 
Q 319 869 319 1663 
Q 319 2456 758 2934 
Q 1197 3413 1925 3413 
Q 2653 3413 3092 2934 
Q 3531 2456 3531 1663 
Q 3531 869 3092 389 
Q 2653 -91 1925 -91 
z
" transform="scale(0.015625)"/>
       <path id="DejaVuSerif-6d" d="M 3316 2675 
Q 3481 3041 3739 3227 
Q 3997 3413 4341 3413 
Q 4863 3413 5119 3089 
Q 5375 2766 5375 2113 
L 5375 331 
L 5894 331 
L 5894 0 
L 4300 0 
L 4300 331 
L 4800 331 
L 4800 2047 
Q 4800 2556 4650 2772 
Q 4500 2988 4153 2988 
Q 3769 2988 3567 2697 
Q 3366 2406 3366 1850 
L 3366 331 
L 3866 331 
L 3866 0 
L 2291 0 
L 2291 331 
L 2791 331 
L 2791 2069 
Q 2791 2566 2641 2777 
Q 2491 2988 2144 2988 
Q 1759 2988 1557 2697 
Q 1356 2406 1356 1850 
L 1356 331 
L 1856 331 
L 1856 0 
L 263 0 
L 263 331 
L 781 331 
L 781 2994 
L 231 2994 
L 231 3322 
L 1356 3322 
L 1356 2731 
Q 1516 3063 1762 3238 
Q 2009 3413 2322 3413 
Q 2709 3413 2968 3220 
Q 3228 3028 3316 2675 
z
" transform="scale(0.015625)"/>
       <path id="DejaVuSerif-65" d="M 3469 1600 
L 991 1600 
L 991 1575 
Q 991 903 1244 561 
Q 1497 219 1991 219 
Q 2369 219 2611 417 
Q 2853 616 2950 1006 
L 3413 1006 
Q 3275 459 2904 184 
Q 2534 -91 1931 -91 
Q 1203 -91 761 389 
Q 319 869 319 1663 
Q 319 2450 753 2931 
Q 1188 3413 1894 3413 
Q 2647 3413 3050 2948 
Q 3453 2484 3469 1600 
z
M 2791 1931 
Q 2772 2513 2545 2808 
Q 2319 3103 1894 3103 
Q 1497 3103 1269 2806 
Q 1041 2509 991 1931 
L 2791 1931 
z
" transform="scale(0.015625)"/>
       <path id="DejaVuSerif-74" d="M 691 2988 
L 184 2988 
L 184 3322 
L 691 3322 
L 691 4353 
L 1269 4353 
L 1269 3322 
L 2350 3322 
L 2350 2988 
L 1269 2988 
L 1269 878 
Q 1269 456 1350 337 
Q 1431 219 1650 219 
Q 1875 219 1978 351 
Q 2081 484 2088 781 
L 2522 781 
Q 2497 328 2275 118 
Q 2053 -91 1600 -91 
Q 1103 -91 897 129 
Q 691 350 691 878 
L 691 2988 
z
" transform="scale(0.015625)"/>
       <path id="DejaVuSerif-20" transform="scale(0.015625)"/>
       <path id="DejaVuSerif-53" d="M 594 225 
L 594 1288 
L 953 1284 
Q 969 753 1261 498 
Q 1553 244 2150 244 
Q 2706 244 2998 464 
Q 3291 684 3291 1106 
Q 3291 1444 3114 1625 
Q 2938 1806 2369 1978 
L 1753 2163 
Q 1084 2366 811 2669 
Q 538 2972 538 3500 
Q 538 4094 959 4422 
Q 1381 4750 2144 4750 
Q 2469 4750 2856 4679 
Q 3244 4609 3681 4475 
L 3681 3481 
L 3328 3481 
Q 3275 3975 2998 4195 
Q 2722 4416 2156 4416 
Q 1663 4416 1405 4214 
Q 1147 4013 1147 3628 
Q 1147 3294 1340 3103 
Q 1534 2913 2163 2725 
L 2741 2553 
Q 3375 2363 3645 2067 
Q 3916 1772 3916 1275 
Q 3916 597 3481 253 
Q 3047 -91 2188 -91 
Q 1803 -91 1404 -12 
Q 1006 66 594 225 
z
" transform="scale(0.015625)"/>
       <path id="DejaVuSerif-70" d="M 1313 1825 
L 1313 1497 
Q 1313 897 1542 583 
Q 1772 269 2209 269 
Q 2650 269 2876 622 
Q 3103 975 3103 1663 
Q 3103 2353 2876 2703 
Q 2650 3053 2209 3053 
Q 1772 3053 1542 2737 
Q 1313 2422 1313 1825 
z
M 738 2988 
L 184 2988 
L 184 3322 
L 1313 3322 
L 1313 2803 
Q 1481 3116 1742 3264 
Q 2003 3413 2388 3413 
Q 3000 3413 3387 2928 
Q 3775 2444 3775 1663 
Q 3775 881 3387 395 
Q 3000 -91 2388 -91 
Q 2003 -91 1742 57 
Q 1481 206 1313 519 
L 1313 -997 
L 1856 -997 
L 1856 -1331 
L 184 -1331 
L 184 -997 
L 738 -997 
L 738 2988 
z
" transform="scale(0.015625)"/>
       <path id="DejaVuSerif-73" d="M 359 184 
L 359 959 
L 691 959 
Q 703 588 923 403 
Q 1144 219 1575 219 
Q 1963 219 2166 364 
Q 2369 509 2369 788 
Q 2369 1006 2220 1140 
Q 2072 1275 1594 1428 
L 1178 1569 
Q 750 1706 558 1912 
Q 366 2119 366 2438 
Q 366 2894 700 3153 
Q 1034 3413 1625 3413 
Q 1888 3413 2178 3344 
Q 2469 3275 2778 3144 
L 2778 2419 
L 2447 2419 
Q 2434 2741 2221 2922 
Q 2009 3103 1644 3103 
Q 1281 3103 1095 2975 
Q 909 2847 909 2591 
Q 909 2381 1050 2254 
Q 1191 2128 1613 1997 
L 2069 1856 
Q 2541 1709 2748 1489 
Q 2956 1269 2956 922 
Q 2956 450 2595 179 
Q 2234 -91 1600 -91 
Q 1278 -91 972 -22 
Q 666 47 359 184 
z
" transform="scale(0.015625)"/>
      </defs>
      <use xlink:href="#DejaVuSerif-45"/>
      <use xlink:href="#DejaVuSerif-6e" x="72.998047"/>
      <use xlink:href="#DejaVuSerif-76" x="137.402344"/>
      <use xlink:href="#DejaVuSerif-69" x="193.896484"/>
      <use xlink:href="#DejaVuSerif-72" x="225.878906"/>
      <use xlink:href="#DejaVuSerif-6f" x="273.681641"/>
      <use xlink:href="#DejaVuSerif-6e" x="333.886719"/>
      <use xlink:href="#DejaVuSerif-6d" x="398.291016"/>
      <use xlink:href="#DejaVuSerif-65" x="493.115234"/>
      <use xlink:href="#DejaVuSerif-6e" x="552.294922"/>
      <use xlink:href="#DejaVuSerif-74" x="616.699219"/>
      <use xlink:href="#DejaVuSerif-20" x="656.884766"/>
      <use xlink:href="#DejaVuSerif-53" x="688.671875"/>
      <use xlink:href="#DejaVuSerif-74" x="757.177734"/>
      <use xlink:href="#DejaVuSerif-65" x="797.363281"/>
      <use xlink:href="#DejaVuSerif-70" x="856.542969"/>
      <use xlink:href="#DejaVuSerif-73" x="920.556641"/>
     </g>
    </g>
   </g>
   <g id="matplotlib.axis_2">
    <g id="ytick_1">
     <g id="line2d_11">
      <path d="M 52.079375 280.64266 
L 505.19952 280.64266 
" clip-path="url(#p3dc7ba5264)" style="fill: none; stroke: #e0e0e0; stroke-opacity: 0.7; stroke-width: 0.6; stroke-linecap: square"/>
     </g>
     <g id="line2d_12">
      <defs>
       <path id="m408d8d4d97" d="M 0 0 
L -3.5 0 
" style="stroke: #000000"/>
      </defs>
      <g>
       <use xlink:href="#m408d8d4d97" x="52.079375" y="280.64266" style="stroke: #000000"/>
      </g>
     </g>
     <g id="text_7">
      <!-- 0.00 -->
      <g transform="translate(22.81375 284.441878) scale(0.1 -0.1)">
       <use xlink:href="#DejaVuSerif-30"/>
       <use xlink:href="#DejaVuSerif-2e" x="63.623047"/>
       <use xlink:href="#DejaVuSerif-30" x="95.410156"/>
       <use xlink:href="#DejaVuSerif-30" x="159.033203"/>
      </g>
     </g>
    </g>
    <g id="ytick_2">
     <g id="line2d_13">
      <path d="M 52.079375 249.980197 
L 505.19952 249.980197 
" clip-path="url(#p3dc7ba5264)" style="fill: none; stroke: #e0e0e0; stroke-opacity: 0.7; stroke-width: 0.6; stroke-linecap: square"/>
     </g>
     <g id="line2d_14">
      <g>
       <use xlink:href="#m408d8d4d97" x="52.079375" y="249.980197" style="stroke: #000000"/>
      </g>
     </g>
     <g id="text_8">
      <!-- 0.25 -->
      <g transform="translate(22.81375 253.779415) scale(0.1 -0.1)">
       <defs>
        <path id="DejaVuSerif-35" d="M 3219 4666 
L 3219 4153 
L 1081 4153 
L 1081 2816 
Q 1244 2928 1461 2984 
Q 1678 3041 1947 3041 
Q 2703 3041 3140 2622 
Q 3578 2203 3578 1478 
Q 3578 738 3136 323 
Q 2694 -91 1894 -91 
Q 1572 -91 1234 -12 
Q 897 66 544 225 
L 544 1131 
L 897 1131 
Q 925 688 1179 453 
Q 1434 219 1894 219 
Q 2388 219 2653 544 
Q 2919 869 2919 1478 
Q 2919 2084 2655 2407 
Q 2391 2731 1894 2731 
Q 1613 2731 1398 2631 
Q 1184 2531 1019 2322 
L 750 2322 
L 750 4666 
L 3219 4666 
z
" transform="scale(0.015625)"/>
       </defs>
       <use xlink:href="#DejaVuSerif-30"/>
       <use xlink:href="#DejaVuSerif-2e" x="63.623047"/>
       <use xlink:href="#DejaVuSerif-32" x="95.410156"/>
       <use xlink:href="#DejaVuSerif-35" x="159.033203"/>
      </g>
     </g>
    </g>
    <g id="ytick_3">
     <g id="line2d_15">
      <path d="M 52.079375 219.317733 
L 505.19952 219.317733 
" clip-path="url(#p3dc7ba5264)" style="fill: none; stroke: #e0e0e0; stroke-opacity: 0.7; stroke-width: 0.6; stroke-linecap: square"/>
     </g>
     <g id="line2d_16">
      <g>
       <use xlink:href="#m408d8d4d97" x="52.079375" y="219.317733" style="stroke: #000000"/>
      </g>
     </g>
     <g id="text_9">
      <!-- 0.50 -->
      <g transform="translate(22.81375 223.116952) scale(0.1 -0.1)">
       <use xlink:href="#DejaVuSerif-30"/>
       <use xlink:href="#DejaVuSerif-2e" x="63.623047"/>
       <use xlink:href="#DejaVuSerif-35" x="95.410156"/>
       <use xlink:href="#DejaVuSerif-30" x="159.033203"/>
      </g>
     </g>
    </g>
    <g id="ytick_4">
     <g id="line2d_17">
      <path d="M 52.079375 188.65527 
L 505.19952 188.65527 
" clip-path="url(#p3dc7ba5264)" style="fill: none; stroke: #e0e0e0; stroke-opacity: 0.7; stroke-width: 0.6; stroke-linecap: square"/>
     </g>
     <g id="line2d_18">
      <g>
       <use xlink:href="#m408d8d4d97" x="52.079375" y="188.65527" style="stroke: #000000"/>
      </g>
     </g>
     <g id="text_10">
      <!-- 0.75 -->
      <g transform="translate(22.81375 192.454489) scale(0.1 -0.1)">
       <defs>
        <path id="DejaVuSerif-37" d="M 3609 4347 
L 1784 0 
L 1319 0 
L 3059 4153 
L 903 4153 
L 903 3578 
L 538 3578 
L 538 4666 
L 3609 4666 
L 3609 4347 
z
" transform="scale(0.015625)"/>
       </defs>
       <use xlink:href="#DejaVuSerif-30"/>
       <use xlink:href="#DejaVuSerif-2e" x="63.623047"/>
       <use xlink:href="#DejaVuSerif-37" x="95.410156"/>
       <use xlink:href="#DejaVuSerif-35" x="159.033203"/>
      </g>
     </g>
    </g>
    <g id="ytick_5">
     <g id="line2d_19">
      <path d="M 52.079375 157.992807 
L 505.19952 157.992807 
" clip-path="url(#p3dc7ba5264)" style="fill: none; stroke: #e0e0e0; stroke-opacity: 0.7; stroke-width: 0.6; stroke-linecap: square"/>
     </g>
     <g id="line2d_20">
      <g>
       <use xlink:href="#m408d8d4d97" x="52.079375" y="157.992807" style="stroke: #000000"/>
      </g>
     </g>
     <g id="text_11">
      <!-- 1.00 -->
      <g transform="translate(22.81375 161.792026) scale(0.1 -0.1)">
       <use xlink:href="#DejaVuSerif-31"/>
       <use xlink:href="#DejaVuSerif-2e" x="63.623047"/>
       <use xlink:href="#DejaVuSerif-30" x="95.410156"/>
       <use xlink:href="#DejaVuSerif-30" x="159.033203"/>
      </g>
     </g>
    </g>
    <g id="ytick_6">
     <g id="line2d_21">
      <path d="M 52.079375 127.330344 
L 505.19952 127.330344 
" clip-path="url(#p3dc7ba5264)" style="fill: none; stroke: #e0e0e0; stroke-opacity: 0.7; stroke-width: 0.6; stroke-linecap: square"/>
     </g>
     <g id="line2d_22">
      <g>
       <use xlink:href="#m408d8d4d97" x="52.079375" y="127.330344" style="stroke: #000000"/>
      </g>
     </g>
     <g id="text_12">
      <!-- 1.25 -->
      <g transform="translate(22.81375 131.129562) scale(0.1 -0.1)">
       <use xlink:href="#DejaVuSerif-31"/>
       <use xlink:href="#DejaVuSerif-2e" x="63.623047"/>
       <use xlink:href="#DejaVuSerif-32" x="95.410156"/>
       <use xlink:href="#DejaVuSerif-35" x="159.033203"/>
      </g>
     </g>
    </g>
    <g id="ytick_7">
     <g id="line2d_23">
      <path d="M 52.079375 96.66788 
L 505.19952 96.66788 
" clip-path="url(#p3dc7ba5264)" style="fill: none; stroke: #e0e0e0; stroke-opacity: 0.7; stroke-width: 0.6; stroke-linecap: square"/>
     </g>
     <g id="line2d_24">
      <g>
       <use xlink:href="#m408d8d4d97" x="52.079375" y="96.66788" style="stroke: #000000"/>
      </g>
     </g>
     <g id="text_13">
      <!-- 1.50 -->
      <g transform="translate(22.81375 100.467099) scale(0.1 -0.1)">
       <use xlink:href="#DejaVuSerif-31"/>
       <use xlink:href="#DejaVuSerif-2e" x="63.623047"/>
       <use xlink:href="#DejaVuSerif-35" x="95.410156"/>
       <use xlink:href="#DejaVuSerif-30" x="159.033203"/>
      </g>
     </g>
    </g>
    <g id="ytick_8">
     <g id="line2d_25">
      <path d="M 52.079375 66.005417 
L 505.19952 66.005417 
" clip-path="url(#p3dc7ba5264)" style="fill: none; stroke: #e0e0e0; stroke-opacity: 0.7; stroke-width: 0.6; stroke-linecap: square"/>
     </g>
     <g id="line2d_26">
      <g>
       <use xlink:href="#m408d8d4d97" x="52.079375" y="66.005417" style="stroke: #000000"/>
      </g>
     </g>
     <g id="text_14">
      <!-- 1.75 -->
      <g transform="translate(22.81375 69.804636) scale(0.1 -0.1)">
       <use xlink:href="#DejaVuSerif-31"/>
       <use xlink:href="#DejaVuSerif-2e" x="63.623047"/>
       <use xlink:href="#DejaVuSerif-37" x="95.410156"/>
       <use xlink:href="#DejaVuSerif-35" x="159.033203"/>
      </g>
     </g>
    </g>
    <g id="ytick_9">
     <g id="line2d_27">
      <path d="M 52.079375 35.342954 
L 505.19952 35.342954 
" clip-path="url(#p3dc7ba5264)" style="fill: none; stroke: #e0e0e0; stroke-opacity: 0.7; stroke-width: 0.6; stroke-linecap: square"/>
     </g>
     <g id="line2d_28">
      <g>
       <use xlink:href="#m408d8d4d97" x="52.079375" y="35.342954" style="stroke: #000000"/>
      </g>
     </g>
     <g id="text_15">
      <!-- 2.00 -->
      <g transform="translate(22.81375 39.142173) scale(0.1 -0.1)">
       <use xlink:href="#DejaVuSerif-32"/>
       <use xlink:href="#DejaVuSerif-2e" x="63.623047"/>
       <use xlink:href="#DejaVuSerif-30" x="95.410156"/>
       <use xlink:href="#DejaVuSerif-30" x="159.033203"/>
      </g>
     </g>
    </g>
    <g id="text_16">
     <!-- Mean Evaluation Reward -->
     <g transform="translate(16.318125 234.949369) rotate(-90) scale(0.12 -0.12)">
      <defs>
       <path id="DejaVuSerif-61" d="M 2547 1044 
L 2547 1747 
L 1806 1747 
Q 1378 1747 1168 1562 
Q 959 1378 959 997 
Q 959 650 1171 447 
Q 1384 244 1747 244 
Q 2106 244 2326 466 
Q 2547 688 2547 1044 
z
M 3122 2075 
L 3122 331 
L 3634 331 
L 3634 0 
L 2547 0 
L 2547 359 
Q 2356 128 2106 18 
Q 1856 -91 1522 -91 
Q 969 -91 644 203 
Q 319 497 319 997 
Q 319 1513 691 1797 
Q 1063 2081 1741 2081 
L 2547 2081 
L 2547 2309 
Q 2547 2688 2317 2895 
Q 2088 3103 1672 3103 
Q 1328 3103 1125 2947 
Q 922 2791 872 2484 
L 575 2484 
L 575 3156 
Q 875 3284 1158 3348 
Q 1441 3413 1709 3413 
Q 2400 3413 2761 3070 
Q 3122 2728 3122 2075 
z
" transform="scale(0.015625)"/>
       <path id="DejaVuSerif-6c" d="M 1313 331 
L 1856 331 
L 1856 0 
L 184 0 
L 184 331 
L 738 331 
L 738 4531 
L 184 4531 
L 184 4863 
L 1313 4863 
L 1313 331 
z
" transform="scale(0.015625)"/>
       <path id="DejaVuSerif-75" d="M 2266 3322 
L 3341 3322 
L 3341 331 
L 3884 331 
L 3884 0 
L 2766 0 
L 2766 588 
Q 2606 256 2353 82 
Q 2100 -91 1766 -91 
Q 1213 -91 952 223 
Q 691 538 691 1209 
L 691 2988 
L 172 2988 
L 172 3322 
L 1269 3322 
L 1269 1388 
Q 1269 781 1417 556 
Q 1566 331 1947 331 
Q 2347 331 2556 625 
Q 2766 919 2766 1478 
L 2766 2988 
L 2266 2988 
L 2266 3322 
z
" transform="scale(0.015625)"/>
       <path id="DejaVuSerif-52" d="M 3066 2316 
Q 3284 2256 3442 2114 
Q 3600 1972 3725 1716 
L 4403 331 
L 4972 331 
L 4972 0 
L 3872 0 
L 3144 1484 
Q 2934 1916 2759 2042 
Q 2584 2169 2278 2169 
L 1581 2169 
L 1581 331 
L 2241 331 
L 2241 0 
L 353 0 
L 353 331 
L 947 331 
L 947 4331 
L 353 4331 
L 353 4666 
L 2719 4666 
Q 3400 4666 3770 4341 
Q 4141 4016 4141 3419 
Q 4141 2938 3870 2661 
Q 3600 2384 3066 2316 
z
M 1581 2503 
L 2503 2503 
Q 2975 2503 3200 2726 
Q 3425 2950 3425 3419 
Q 3425 3888 3200 4109 
Q 2975 4331 2503 4331 
L 1581 4331 
L 1581 2503 
z
" transform="scale(0.015625)"/>
       <path id="DejaVuSerif-77" d="M 3072 3322 
L 3922 728 
L 4672 2988 
L 4191 2988 
L 4191 3322 
L 5394 3322 
L 5394 2988 
L 5025 2988 
L 4038 0 
L 3559 0 
L 2741 2484 
L 1919 0 
L 1459 0 
L 475 2988 
L 103 2988 
L 103 3322 
L 1606 3322 
L 1606 2988 
L 1069 2988 
L 1813 728 
L 2669 3322 
L 3072 3322 
z
" transform="scale(0.015625)"/>
       <path id="DejaVuSerif-64" d="M 3359 331 
L 3909 331 
L 3909 0 
L 2784 0 
L 2784 519 
Q 2616 206 2355 57 
Q 2094 -91 1709 -91 
Q 1097 -91 708 395 
Q 319 881 319 1663 
Q 319 2444 706 2928 
Q 1094 3413 1709 3413 
Q 2094 3413 2355 3264 
Q 2616 3116 2784 2803 
L 2784 4531 
L 2241 4531 
L 2241 4863 
L 3359 4863 
L 3359 331 
z
M 2784 1497 
L 2784 1825 
Q 2784 2422 2554 2737 
Q 2325 3053 1888 3053 
Q 1444 3053 1217 2703 
Q 991 2353 991 1663 
Q 991 975 1217 622 
Q 1444 269 1888 269 
Q 2325 269 2554 583 
Q 2784 897 2784 1497 
z
" transform="scale(0.015625)"/>
      </defs>
      <use xlink:href="#DejaVuSerif-4d"/>
      <use xlink:href="#DejaVuSerif-65" x="102.392578"/>
      <use xlink:href="#DejaVuSerif-61" x="161.572266"/>
      <use xlink:href="#DejaVuSerif-6e" x="221.191406"/>
      <use xlink:href="#DejaVuSerif-20" x="285.595703"/>
      <use xlink:href="#DejaVuSerif-45" x="317.382812"/>
      <use xlink:href="#DejaVuSerif-76" x="390.380859"/>
      <use xlink:href="#DejaVuSerif-61" x="446.875"/>
      <use xlink:href="#DejaVuSerif-6c" x="506.494141"/>
      <use xlink:href="#DejaVuSerif-75" x="538.476562"/>
      <use xlink:href="#DejaVuSerif-61" x="602.880859"/>
      <use xlink:href="#DejaVuSerif-74" x="662.5"/>
      <use xlink:href="#DejaVuSerif-69" x="702.685547"/>
      <use xlink:href="#DejaVuSerif-6f" x="734.667969"/>
      <use xlink:href="#DejaVuSerif-6e" x="794.873047"/>
      <use xlink:href="#DejaVuSerif-20" x="859.277344"/>
      <use xlink:href="#DejaVuSerif-52" x="891.064453"/>
      <use xlink:href="#DejaVuSerif-65" x="966.357422"/>
      <use xlink:href="#DejaVuSerif-77" x="1025.537109"/>
      <use xlink:href="#DejaVuSerif-61" x="1111.132812"/>
      <use xlink:href="#DejaVuSerif-72" x="1170.751953"/>
      <use xlink:href="#DejaVuSerif-64" x="1218.554688"/>
     </g>
    </g>
   </g>
   <g id="line2d_29">
    <path d="M 72.675745 35.342954 
L 94.356135 256.112689 
L 116.036525 182.522777 
L 137.716914 256.112689 
L 159.397304 256.112689 
L 181.077694 280.64266 
L 202.758084 280.64266 
L 224.438473 280.64266 
L 246.118863 231.582719 
L 267.799253 280.64266 
L 289.479642 280.64266 
L 311.160032 280.64266 
L 332.840422 280.64266 
L 354.520811 231.582719 
L 376.201201 280.64266 
L 397.881591 280.64266 
L 419.561981 280.64266 
L 441.24237 280.64266 
L 462.92276 280.64266 
L 484.60315 231.582719 
" clip-path="url(#p3dc7ba5264)" style="fill: none; stroke: #ffd8b1; stroke-opacity: 0.3; stroke-width: 0.8; stroke-linecap: square"/>
   </g>
   <g id="line2d_30">
    <path d="M 72.675745 108.932866 
L 94.356135 153.086813 
L 116.036525 197.24076 
L 137.716914 246.300701 
L 159.397304 251.206695 
L 181.077694 270.830671 
L 202.758084 265.924677 
L 224.438473 270.830671 
L 246.118863 270.830671 
L 267.799253 270.830671 
L 289.479642 270.830671 
L 311.160032 270.830671 
L 332.840422 270.830671 
L 354.520811 270.830671 
L 376.201201 270.830671 
L 397.881591 270.830671 
L 419.561981 280.64266 
L 441.24237 270.830671 
L 462.92276 261.018683 
L 484.60315 251.206695 
" clip-path="url(#p3dc7ba5264)" style="fill: none; stroke: #ffd8b1; stroke-width: 2; stroke-linecap: square"/>
    <defs>
     <path id="m1cc5b98a78" d="M -2 2 
L 2 2 
L 2 -2 
L -2 -2 
z
" style="stroke: #1a1a1a; stroke-width: 0.8; stroke-linejoin: miter"/>
    </defs>
    <g clip-path="url(#p3dc7ba5264)">
     <use xlink:href="#m1cc5b98a78" x="72.675745" y="108.932866" style="fill: #ffd8b1; stroke: #1a1a1a; stroke-width: 0.8; stroke-linejoin: miter"/>
     <use xlink:href="#m1cc5b98a78" x="94.356135" y="153.086813" style="fill: #ffd8b1; stroke: #1a1a1a; stroke-width: 0.8; stroke-linejoin: miter"/>
     <use xlink:href="#m1cc5b98a78" x="116.036525" y="197.24076" style="fill: #ffd8b1; stroke: #1a1a1a; stroke-width: 0.8; stroke-linejoin: miter"/>
     <use xlink:href="#m1cc5b98a78" x="137.716914" y="246.300701" style="fill: #ffd8b1; stroke: #1a1a1a; stroke-width: 0.8; stroke-linejoin: miter"/>
     <use xlink:href="#m1cc5b98a78" x="159.397304" y="251.206695" style="fill: #ffd8b1; stroke: #1a1a1a; stroke-width: 0.8; stroke-linejoin: miter"/>
     <use xlink:href="#m1cc5b98a78" x="181.077694" y="270.830671" style="fill: #ffd8b1; stroke: #1a1a1a; stroke-width: 0.8; stroke-linejoin: miter"/>
     <use xlink:href="#m1cc5b98a78" x="202.758084" y="265.924677" style="fill: #ffd8b1; stroke: #1a1a1a; stroke-width: 0.8; stroke-linejoin: miter"/>
     <use xlink:href="#m1cc5b98a78" x="224.438473" y="270.830671" style="fill: #ffd8b1; stroke: #1a1a1a; stroke-width: 0.8; stroke-linejoin: miter"/>
     <use xlink:href="#m1cc5b98a78" x="246.118863" y="270.830671" style="fill: #ffd8b1; stroke: #1a1a1a; stroke-width: 0.8; stroke-linejoin: miter"/>
     <use xlink:href="#m1cc5b98a78" x="267.799253" y="270.830671" style="fill: #ffd8b1; stroke: #1a1a1a; stroke-width: 0.8; stroke-linejoin: miter"/>
     <use xlink:href="#m1cc5b98a78" x="289.479642" y="270.830671" style="fill: #ffd8b1; stroke: #1a1a1a; stroke-width: 0.8; stroke-linejoin: miter"/>
     <use xlink:href="#m1cc5b98a78" x="311.160032" y="270.830671" style="fill: #ffd8b1; stroke: #1a1a1a; stroke-width: 0.8; stroke-linejoin: miter"/>
     <use xlink:href="#m1cc5b98a78" x="332.840422" y="270.830671" style="fill: #ffd8b1; stroke: #1a1a1a; stroke-width: 0.8; stroke-linejoin: miter"/>
     <use xlink:href="#m1cc5b98a78" x="354.520811" y="270.830671" style="fill: #ffd8b1; stroke: #1a1a1a; stroke-width: 0.8; stroke-linejoin: miter"/>
     <use xlink:href="#m1cc5b98a78" x="376.201201" y="270.830671" style="fill: #ffd8b1; stroke: #1a1a1a; stroke-width: 0.8; stroke-linejoin: miter"/>
     <use xlink:href="#m1cc5b98a78" x="397.881591" y="270.830671" style="fill: #ffd8b1; stroke: #1a1a1a; stroke-width: 0.8; stroke-linejoin: miter"/>
     <use xlink:href="#m1cc5b98a78" x="419.561981" y="280.64266" style="fill: #ffd8b1; stroke: #1a1a1a; stroke-width: 0.8; stroke-linejoin: miter"/>
     <use xlink:href="#m1cc5b98a78" x="441.24237" y="270.830671" style="fill: #ffd8b1; stroke: #1a1a1a; stroke-width: 0.8; stroke-linejoin: miter"/>
     <use xlink:href="#m1cc5b98a78" x="462.92276" y="261.018683" style="fill: #ffd8b1; stroke: #1a1a1a; stroke-width: 0.8; stroke-linejoin: miter"/>
     <use xlink:href="#m1cc5b98a78" x="484.60315" y="251.206695" style="fill: #ffd8b1; stroke: #1a1a1a; stroke-width: 0.8; stroke-linejoin: miter"/>
    </g>
   </g>
   <g id="patch_3">
    <path d="M 52.079375 292.907645 
L 52.079375 23.077969 
" style="fill: none; stroke: #1a1a1a; stroke-width: 1.2; stroke-linejoin: miter; stroke-linecap: square"/>
   </g>
   <g id="patch_4">
    <path d="M 505.19952 292.907645 
L 505.19952 23.077969 
" style="fill: none; stroke: #1a1a1a; stroke-width: 1.2; stroke-linejoin: miter; stroke-linecap: square"/>
   </g>
   <g id="patch_5">
    <path d="M 52.079375 292.907645 
L 505.19952 292.907645 
" style="fill: none; stroke: #1a1a1a; stroke-width: 1.2; stroke-linejoin: miter; stroke-linecap: square"/>
   </g>
   <g id="patch_6">
    <path d="M 52.079375 23.077969 
L 505.19952 23.077969 
" style="fill: none; stroke: #1a1a1a; stroke-width: 1.2; stroke-linejoin: miter; stroke-linecap: square"/>
   </g>
   <g id="text_17">
    <!-- Breakout Expert — Training Reward Curve -->
    <g transform="translate(136.171635 17.077969) scale(0.13 -0.13)">
     <defs>
      <path id="DejaVuSerif-42" d="M 1581 331 
L 2516 331 
Q 3078 331 3337 575 
Q 3597 819 3597 1350 
Q 3597 1878 3339 2120 
Q 3081 2363 2516 2363 
L 1581 2363 
L 1581 331 
z
M 1581 2694 
L 2375 2694 
Q 2888 2694 3123 2891 
Q 3359 3088 3359 3513 
Q 3359 3941 3123 4136 
Q 2888 4331 2375 4331 
L 1581 4331 
L 1581 2694 
z
M 353 0 
L 353 331 
L 947 331 
L 947 4331 
L 353 4331 
L 353 4666 
L 2656 4666 
Q 3363 4666 3720 4377 
Q 4078 4088 4078 3513 
Q 4078 3097 3829 2850 
Q 3581 2603 3103 2547 
Q 3697 2472 4005 2167 
Q 4313 1863 4313 1350 
Q 4313 656 3875 328 
Q 3438 0 2509 0 
L 353 0 
z
" transform="scale(0.015625)"/>
      <path id="DejaVuSerif-78" d="M 1863 2028 
L 2559 2988 
L 2113 2988 
L 2113 3322 
L 3391 3322 
L 3391 2988 
L 2950 2988 
L 2059 1759 
L 3097 331 
L 3531 331 
L 3531 0 
L 1997 0 
L 1997 331 
L 2419 331 
L 1697 1325 
L 972 331 
L 1403 331 
L 1403 0 
L 141 0 
L 141 331 
L 581 331 
L 1497 1594 
L 488 2988 
L 78 2988 
L 78 3322 
L 1563 3322 
L 1563 2988 
L 1166 2988 
L 1863 2028 
z
" transform="scale(0.015625)"/>
      <path id="DejaVuSerif-2014" d="M 281 1906 
L 6119 1906 
L 6119 1491 
L 281 1491 
L 281 1906 
z
" transform="scale(0.015625)"/>
      <path id="DejaVuSerif-54" d="M 1222 0 
L 1222 331 
L 1819 331 
L 1819 4294 
L 447 4294 
L 447 3566 
L 63 3566 
L 63 4666 
L 4206 4666 
L 4206 3566 
L 3822 3566 
L 3822 4294 
L 2450 4294 
L 2450 331 
L 3047 331 
L 3047 0 
L 1222 0 
z
" transform="scale(0.015625)"/>
      <path id="DejaVuSerif-67" d="M 3359 2988 
L 3359 72 
Q 3359 -644 2965 -1033 
Q 2572 -1422 1844 -1422 
Q 1516 -1422 1216 -1362 
Q 916 -1303 641 -1184 
L 641 -488 
L 941 -488 
Q 997 -813 1206 -963 
Q 1416 -1113 1806 -1113 
Q 2313 -1113 2548 -827 
Q 2784 -541 2784 72 
L 2784 519 
Q 2616 206 2355 57 
Q 2094 -91 1709 -91 
Q 1097 -91 708 395 
Q 319 881 319 1663 
Q 319 2444 706 2928 
Q 1094 3413 1709 3413 
Q 2094 3413 2355 3264 
Q 2616 3116 2784 2803 
L 2784 3322 
L 3909 3322 
L 3909 2988 
L 3359 2988 
z
M 2784 1825 
Q 2784 2422 2554 2737 
Q 2325 3053 1888 3053 
Q 1444 3053 1217 2703 
Q 991 2353 991 1663 
Q 991 975 1217 622 
Q 1444 269 1888 269 
Q 2325 269 2554 583 
Q 2784 897 2784 1497 
L 2784 1825 
z
" transform="scale(0.015625)"/>
      <path id="DejaVuSerif-43" d="M 4513 1234 
Q 4306 581 3820 245 
Q 3334 -91 2591 -91 
Q 2134 -91 1743 65 
Q 1353 222 1050 525 
Q 700 875 529 1320 
Q 359 1766 359 2328 
Q 359 3416 987 4083 
Q 1616 4750 2644 4750 
Q 3025 4750 3456 4650 
Q 3888 4550 4384 4347 
L 4384 3272 
L 4031 3272 
Q 3916 3859 3567 4137 
Q 3219 4416 2591 4416 
Q 1844 4416 1459 3886 
Q 1075 3356 1075 2328 
Q 1075 1303 1459 773 
Q 1844 244 2591 244 
Q 3113 244 3450 492 
Q 3788 741 3938 1234 
L 4513 1234 
z
" transform="scale(0.015625)"/>
     </defs>
     <use xlink:href="#DejaVuSerif-42"/>
     <use xlink:href="#DejaVuSerif-72" x="73.486328"/>
     <use xlink:href="#DejaVuSerif-65" x="121.289062"/>
     <use xlink:href="#DejaVuSerif-61" x="180.46875"/>
     <use xlink:href="#DejaVuSerif-6b" x="240.087891"/>
     <use xlink:href="#DejaVuSerif-6f" x="300.683594"/>
     <use xlink:href="#DejaVuSerif-75" x="360.888672"/>
     <use xlink:href="#DejaVuSerif-74" x="425.292969"/>
     <use xlink:href="#DejaVuSerif-20" x="465.478516"/>
     <use xlink:href="#DejaVuSerif-45" x="497.265625"/>
     <use xlink:href="#DejaVuSerif-78" x="570.263672"/>
     <use xlink:href="#DejaVuSerif-70" x="626.660156"/>
     <use xlink:href="#DejaVuSerif-65" x="690.673828"/>
     <use xlink:href="#DejaVuSerif-72" x="749.853516"/>
     <use xlink:href="#DejaVuSerif-74" x="797.65625"/>
     <use xlink:href="#DejaVuSerif-20" x="837.841797"/>
     <use xlink:href="#DejaVuSerif-2014" x="869.628906"/>
     <use xlink:href="#DejaVuSerif-20" x="969.628906"/>
     <use xlink:href="#DejaVuSerif-54" x="1001.416016"/>
     <use xlink:href="#DejaVuSerif-72" x="1068.115234"/>
     <use xlink:href="#DejaVuSerif-61" x="1115.917969"/>
     <use xlink:href="#DejaVuSerif-69" x="1175.537109"/>
     <use xlink:href="#DejaVuSerif-6e" x="1207.519531"/>
     <use xlink:href="#DejaVuSerif-69" x="1271.923828"/>
     <use xlink:href="#DejaVuSerif-6e" x="1303.90625"/>
     <use xlink:href="#DejaVuSerif-67" x="1368.310547"/>
     <use xlink:href="#DejaVuSerif-20" x="1432.324219"/>
     <use xlink:href="#DejaVuSerif-52" x="1464.111328"/>
     <use xlink:href="#DejaVuSerif-65" x="1539.404297"/>
     <use xlink:href="#DejaVuSerif-77" x="1598.583984"/>
     <use xlink:href="#DejaVuSerif-61" x="1684.179688"/>
     <use xlink:href="#DejaVuSerif-72" x="1743.798828"/>
     <use xlink:href="#DejaVuSerif-64" x="1791.601562"/>
     <use xlink:href="#DejaVuSerif-20" x="1855.615234"/>
     <use xlink:href="#DejaVuSerif-43" x="1887.402344"/>
     <use xlink:href="#DejaVuSerif-75" x="1963.916016"/>
     <use xlink:href="#DejaVuSerif-72" x="2028.320312"/>
     <use xlink:href="#DejaVuSerif-76" x="2076.123047"/>
     <use xlink:href="#DejaVuSerif-65" x="2132.617188"/>
    </g>
   </g>
   <g id="legend_1">
    <g id="patch_7">
     <path d="M 378.763582 75.112344 
L 500.19952 75.112344 
L 500.19952 28.077969 
L 378.763582 28.077969 
z
" style="fill: #fafafa; opacity: 0.9; stroke: #1a1a1a; stroke-linejoin: miter"/>
    </g>
    <g id="line2d_31">
     <path d="M 382.763582 36.176406 
L 392.763582 36.176406 
L 402.763582 36.176406 
" style="fill: none; stroke: #ffd8b1; stroke-opacity: 0.3; stroke-width: 0.8; stroke-linecap: square"/>
    </g>
    <g id="text_18">
     <!-- Raw -->
     <g transform="translate(410.763582 39.676406) scale(0.1 -0.1)">
      <use xlink:href="#DejaVuSerif-52"/>
      <use xlink:href="#DejaVuSerif-61" x="77.542969"/>
      <use xlink:href="#DejaVuSerif-77" x="137.162109"/>
     </g>
    </g>
    <g id="line2d_32">
     <path d="M 382.763582 50.854531 
L 392.763582 50.854531 
L 402.763582 50.854531 
" style="fill: none; stroke: #ffd8b1; stroke-width: 2; stroke-linecap: square"/>
     <g>
      <use xlink:href="#m1cc5b98a78" x="392.763582" y="50.854531" style="fill: #ffd8b1; stroke: #1a1a1a; stroke-width: 0.8; stroke-linejoin: miter"/>
     </g>
    </g>
    <g id="text_19">
     <!-- Smoothed (w=5) -->
     <g transform="translate(410.763582 54.354531) scale(0.1 -0.1)">
      <defs>
       <path id="DejaVuSerif-68" d="M 263 0 
L 263 331 
L 781 331 
L 781 4531 
L 231 4531 
L 231 4863 
L 1356 4863 
L 1356 2731 
Q 1516 3069 1770 3241 
Q 2025 3413 2363 3413 
Q 2913 3413 3172 3097 
Q 3431 2781 3431 2113 
L 3431 331 
L 3944 331 
L 3944 0 
L 2356 0 
L 2356 331 
L 2853 331 
L 2853 1931 
Q 2853 2541 2704 2764 
Q 2556 2988 2175 2988 
Q 1775 2988 1565 2697 
Q 1356 2406 1356 1850 
L 1356 331 
L 1856 331 
L 1856 0 
L 263 0 
z
" transform="scale(0.015625)"/>
       <path id="DejaVuSerif-28" d="M 2041 -997 
Q 1281 -656 893 83 
Q 506 822 506 1931 
Q 506 3044 893 3783 
Q 1281 4522 2041 4863 
L 2041 4556 
Q 1559 4225 1350 3623 
Q 1141 3022 1141 1931 
Q 1141 844 1350 242 
Q 1559 -359 2041 -691 
L 2041 -997 
z
" transform="scale(0.015625)"/>
       <path id="DejaVuSerif-3d" d="M 678 2894 
L 4684 2894 
L 4684 2394 
L 678 2394 
L 678 2894 
z
M 678 1619 
L 4684 1619 
L 4684 1119 
L 678 1119 
L 678 1619 
z
" transform="scale(0.015625)"/>
       <path id="DejaVuSerif-29" d="M 453 -997 
L 453 -691 
Q 934 -359 1145 242 
Q 1356 844 1356 1931 
Q 1356 3022 1145 3623 
Q 934 4225 453 4556 
L 453 4863 
Q 1216 4522 1603 3783 
Q 1991 3044 1991 1931 
Q 1991 822 1603 83 
Q 1216 -656 453 -997 
z
" transform="scale(0.015625)"/>
      </defs>
      <use xlink:href="#DejaVuSerif-53"/>
      <use xlink:href="#DejaVuSerif-6d" x="68.505859"/>
      <use xlink:href="#DejaVuSerif-6f" x="163.330078"/>
      <use xlink:href="#DejaVuSerif-6f" x="223.535156"/>
      <use xlink:href="#DejaVuSerif-74" x="283.740234"/>
      <use xlink:href="#DejaVuSerif-68" x="323.925781"/>
      <use xlink:href="#DejaVuSerif-65" x="388.330078"/>
      <use xlink:href="#DejaVuSerif-64" x="447.509766"/>
      <use xlink:href="#DejaVuSerif-20" x="511.523438"/>
      <use xlink:href="#DejaVuSerif-28" x="543.310547"/>
      <use xlink:href="#DejaVuSerif-77" x="582.324219"/>
      <use xlink:href="#DejaVuSerif-3d" x="667.919922"/>
      <use xlink:href="#DejaVuSerif-35" x="751.708984"/>
      <use xlink:href="#DejaVuSerif-29" x="815.332031"/>
     </g>
    </g>
    <g id="line2d_33">
     <path d="M 382.763582 65.532656 
L 392.763582 65.532656 
L 402.763582 65.532656 
" style="fill: none; stroke: #ff4444; stroke-width: 1.5; stroke-linecap: square"/>
     <defs>
      <path id="m91dc0e5a0f" d="M 0 -7 
L -1.571598 -2.163119 
L -6.657396 -2.163119 
L -2.542899 0.826238 
L -4.114497 5.663119 
L -0 2.673762 
L 4.114497 5.663119 
L 2.542899 0.826238 
L 6.657396 -2.163119 
L 1.571598 -2.163119 
z
" style="stroke: #1a1a1a; stroke-linejoin: bevel"/>
     </defs>
     <g>
      <use xlink:href="#m91dc0e5a0f" x="392.763582" y="65.532656" style="fill: #ff4444; stroke: #1a1a1a; stroke-linejoin: bevel"/>
     </g>
    </g>
    <g id="text_20">
     <!-- Best: 2.0 -->
     <g transform="translate(410.763582 69.032656) scale(0.1 -0.1)">
      <defs>
       <path id="DejaVuSerif-3a" d="M 666 325 
Q 666 500 786 622 
Q 906 744 1081 744 
Q 1256 744 1376 622 
Q 1497 500 1497 325 
Q 1497 150 1378 29 
Q 1259 -91 1081 -91 
Q 903 -91 784 29 
Q 666 150 666 325 
z
M 666 2363 
Q 666 2538 786 2658 
Q 906 2778 1081 2778 
Q 1259 2778 1378 2659 
Q 1497 2541 1497 2363 
Q 1497 2184 1378 2065 
Q 1259 1947 1081 1947 
Q 906 1947 786 2067 
Q 666 2188 666 2363 
z
" transform="scale(0.015625)"/>
      </defs>
      <use xlink:href="#DejaVuSerif-42"/>
      <use xlink:href="#DejaVuSerif-65" x="73.486328"/>
      <use xlink:href="#DejaVuSerif-73" x="132.666016"/>
      <use xlink:href="#DejaVuSerif-74" x="183.984375"/>
      <use xlink:href="#DejaVuSerif-3a" x="224.169922"/>
      <use xlink:href="#DejaVuSerif-20" x="257.861328"/>
      <use xlink:href="#DejaVuSerif-32" x="289.648438"/>
      <use xlink:href="#DejaVuSerif-2e" x="353.271484"/>
      <use xlink:href="#DejaVuSerif-30" x="385.058594"/>
     </g>
    </g>
   </g>
   <g id="line2d_34">
    <path d="M 72.675745 35.342954 
" clip-path="url(#p3dc7ba5264)" style="fill: none; stroke: #ff4444; stroke-width: 1.5; stroke-linecap: square"/>
    <g clip-path="url(#p3dc7ba5264)">
     <use xlink:href="#m91dc0e5a0f" x="72.675745" y="35.342954" style="fill: #ff4444; stroke: #1a1a1a; stroke-linejoin: bevel"/>
    </g>
   </g>
  </g>
 </g>
 <defs>
  <clipPath id="p3dc7ba5264">
   <rect x="52.079375" y="23.077969" width="453.120145" height="269.829676"/>
  </clipPath>
 </defs>
</svg>
