<?xml version="1.0" encoding="utf-8" standalone="no"?>
<!DOCTYPE svg PUBLIC "-//W3C//DTD SVG 1.1//EN"
  "http://www.w3.org/Graphics/SVG/1.1/DTD/svg11.dtd">
<svg xmlns:xlink="http://www.w3.org/1999/xlink" width="1196.39952pt" height="341.87976pt" viewBox="0 0 1196.39952 341.87976" xmlns="http://www.w3.org/2000/svg" version="1.1">
 <metadata>
  <rdf:RDF xmlns:dc="http://purl.org/dc/elements/1.1/" xmlns:cc="http://creativecommons.org/ns#" xmlns:rdf="http://www.w3.org/1999/02/22-rdf-syntax-ns#">
   <cc:Work>
    <dc:type rdf:resource="http://purl.org/dc/dcmitype/StillImage"/>
    <dc:date>2026-02-28T01:54:02.785705</dc:date>
    <dc:format>image/svg+xml</dc:format>
    <dc:creator>
     <cc:Agent>
      <dc:title>Matplotlib v3.8.0, https://matplotlib.org/</dc:title>
     </cc:Agent>
    </dc:creator>
   </cc:Work>
  </rdf:RDF>
 </metadata>
 <defs>
  <style type="text/css">*{stroke-linejoin: round; stroke-linecap: butt}</style>
 </defs>
 <g id="figure_1">
  <g id="patch_1">
   <path d="M 0 341.87976 
L 1196.39952 341.87976 
L 1196.39952 0 
L 0 0 
z
" style="fill: #ffffff"/>
  </g>
  <g id="axes_1">
   <g id="patch_2">
    <path d="M 50.918438 302.387885 
L 395.143798 302.387885 
L 395.143798 32.558209 
L 50.918438 32.558209 
z
" style="fill: #fafafa"/>
   </g>
   <g id="matplotlib.axis_1">
    <g id="xtick_1">
     <g id="line2d_1">
      <path d="M 61.26111 302.387885 
L 61.26111 32.558209 
" clip-path="url(#pcad31ca43c)" style="fill: none; stroke: #e0e0e0; stroke-opacity: 0.7; stroke-width: 0.6; stroke-linecap: square"/>
     </g>
     <g id="line2d_2">
      <defs>
       <path id="m7fe0638268" d="M 0 0 
L 0 3.5 
" style="stroke: #000000"/>
      </defs>
      <g>
       <use xlink:href="#m7fe0638268" x="61.26111" y="302.387885" style="stroke: #000000"/>
      </g>
     </g>
     <g id="text_1">
      <!-- 0k -->
      <g transform="translate(55.050173 316.986322) scale(0.1 -0.1)">
       <defs>
        <path id="DejaVuSerif-30" d="M 2034 219 
Q 2513 219 2750 744 
Q 2988 1269 2988 2328 
Q 2988 3391 2750 3916 
Q 2513 4441 2034 4441 
Q 1556 4441 1318 3916 
Q 1081 3391 1081 2328 
Q 1081 1269 1318 744 
Q 1556 219 2034 219 
z
M 2034 -91 
Q 1275 -91 848 546 
Q 422 1184 422 2328 
Q 422 3475 848 4112 
Q 1275 4750 2034 4750 
Q 2797 4750 3222 4112 
Q 3647 3475 3647 2328 
Q 3647 1184 3222 546 
Q 2797 -91 2034 -91 
z
" transform="scale(0.015625)"/>
        <path id="DejaVuSerif-6b" d="M 1831 0 
L 219 0 
L 219 331 
L 738 331 
L 738 4531 
L 184 4531 
L 184 4863 
L 1313 4863 
L 1313 1697 
L 2713 2988 
L 2234 2988 
L 2234 3322 
L 3738 3322 
L 3738 2988 
L 3169 2988 
L 2181 2075 
L 3444 331 
L 3922 331 
L 3922 0 
L 2284 0 
L 2284 331 
L 2759 331 
L 1766 1697 
L 1313 1275 
L 1313 331 
L 1831 331 
L 1831 0 
z
" transform="scale(0.015625)"/>
       </defs>
       <use xlink:href="#DejaVuSerif-30"/>
       <use xlink:href="#DejaVuSerif-6b" x="63.623047"/>
      </g>
     </g>
    </g>
    <g id="xtick_2">
     <g id="line2d_3">
      <path d="M 114.300457 302.387885 
L 114.300457 32.558209 
" clip-path="url(#pcad31ca43c)" style="fill: none; stroke: #e0e0e0; stroke-opacity: 0.7; stroke-width: 0.6; stroke-linecap: square"/>
     </g>
     <g id="line2d_4">
      <g>
       <use xlink:href="#m7fe0638268" x="114.300457" y="302.387885" style="stroke: #000000"/>
      </g>
     </g>
     <g id="text_2">
      <!-- 500k -->
      <g transform="translate(101.727019 316.986322) scale(0.1 -0.1)">
       <defs>
        <path id="DejaVuSerif-35" d="M 3219 4666 
L 3219 4153 
L 1081 4153 
L 1081 2816 
Q 1244 2928 1461 2984 
Q 1678 3041 1947 3041 
Q 2703 3041 3140 2622 
Q 3578 2203 3578 1478 
Q 3578 738 3136 323 
Q 2694 -91 1894 -91 
Q 1572 -91 1234 -12 
Q 897 66 544 225 
L 544 1131 
L 897 1131 
Q 925 688 1179 453 
Q 1434 219 1894 219 
Q 2388 219 2653 544 
Q 2919 869 2919 1478 
Q 2919 2084 2655 2407 
Q 2391 2731 1894 2731 
Q 1613 2731 1398 2631 
Q 1184 2531 1019 2322 
L 750 2322 
L 750 4666 
L 3219 4666 
z
" transform="scale(0.015625)"/>
       </defs>
       <use xlink:href="#DejaVuSerif-35"/>
       <use xlink:href="#DejaVuSerif-30" x="63.623047"/>
       <use xlink:href="#DejaVuSerif-30" x="127.246094"/>
       <use xlink:href="#DejaVuSerif-6b" x="190.869141"/>
      </g>
     </g>
    </g>
    <g id="xtick_3">
     <g id="line2d_5">
      <path d="M 167.339804 302.387885 
L 167.339804 32.558209 
" clip-path="url(#pcad31ca43c)" style="fill: none; stroke: #e0e0e0; stroke-opacity: 0.7; stroke-width: 0.6; stroke-linecap: square"/>
     </g>
     <g id="line2d_6">
      <g>
       <use xlink:href="#m7fe0638268" x="167.339804" y="302.387885" style="stroke: #000000"/>
      </g>
     </g>
     <g id="text_3">
      <!-- 1.0M -->
      <g transform="translate(154.26871 316.986322) scale(0.1 -0.1)">
       <defs>
        <path id="DejaVuSerif-31" d="M 909 0 
L 909 331 
L 1722 331 
L 1722 4213 
L 781 3603 
L 781 4013 
L 1919 4750 
L 2350 4750 
L 2350 331 
L 3163 331 
L 3163 0 
L 909 0 
z
" transform="scale(0.015625)"/>
        <path id="DejaVuSerif-2e" d="M 603 325 
Q 603 500 722 622 
Q 841 744 1019 744 
Q 1191 744 1312 622 
Q 1434 500 1434 325 
Q 1434 153 1312 31 
Q 1191 -91 1019 -91 
Q 841 -91 722 29 
Q 603 150 603 325 
z
" transform="scale(0.015625)"/>
        <path id="DejaVuSerif-4d" d="M 353 0 
L 353 331 
L 947 331 
L 947 4331 
L 319 4331 
L 319 4666 
L 1678 4666 
L 3316 1344 
L 4953 4666 
L 6228 4666 
L 6228 4331 
L 5606 4331 
L 5606 331 
L 6203 331 
L 6203 0 
L 4378 0 
L 4378 331 
L 4972 331 
L 4972 3938 
L 3372 684 
L 2931 684 
L 1331 3938 
L 1331 331 
L 1925 331 
L 1925 0 
L 353 0 
z
" transform="scale(0.015625)"/>
       </defs>
       <use xlink:href="#DejaVuSerif-31"/>
       <use xlink:href="#DejaVuSerif-2e" x="63.623047"/>
       <use xlink:href="#DejaVuSerif-30" x="95.410156"/>
       <use xlink:href="#DejaVuSerif-4d" x="159.033203"/>
      </g>
     </g>
    </g>
    <g id="xtick_4">
     <g id="line2d_7">
      <path d="M 220.379151 302.387885 
L 220.379151 32.558209 
" clip-path="url(#pcad31ca43c)" style="fill: none; stroke: #e0e0e0; stroke-opacity: 0.7; stroke-width: 0.6; stroke-linecap: square"/>
     </g>
     <g id="line2d_8">
      <g>
       <use xlink:href="#m7fe0638268" x="220.379151" y="302.387885" style="stroke: #000000"/>
      </g>
     </g>
     <g id="text_4">
      <!-- 1.5M -->
      <g transform="translate(207.308057 316.986322) scale(0.1 -0.1)">
       <use xlink:href="#DejaVuSerif-31"/>
       <use xlink:href="#DejaVuSerif-2e" x="63.623047"/>
       <use xlink:href="#DejaVuSerif-35" x="95.410156"/>
       <use xlink:href="#DejaVuSerif-4d" x="159.033203"/>
      </g>
     </g>
    </g>
    <g id="xtick_5">
     <g id="line2d_9">
      <path d="M 273.418497 302.387885 
L 273.418497 32.558209 
" clip-path="url(#pcad31ca43c)" style="fill: none; stroke: #e0e0e0; stroke-opacity: 0.7; stroke-width: 0.6; stroke-linecap: square"/>
     </g>
     <g id="line2d_10">
      <g>
       <use xlink:href="#m7fe0638268" x="273.418497" y="302.387885" style="stroke: #000000"/>
      </g>
     </g>
     <g id="text_5">
      <!-- 2.0M -->
      <g transform="translate(260.347404 316.986322) scale(0.1 -0.1)">
       <defs>
        <path id="DejaVuSerif-32" d="M 819 3553 
L 469 3553 
L 469 4384 
Q 803 4563 1142 4656 
Q 1481 4750 1806 4750 
Q 2534 4750 2956 4397 
Q 3378 4044 3378 3438 
Q 3378 2753 2422 1800 
Q 2347 1728 2309 1691 
L 1131 513 
L 3078 513 
L 3078 1088 
L 3444 1088 
L 3444 0 
L 434 0 
L 434 341 
L 1850 1753 
Q 2319 2222 2519 2614 
Q 2719 3006 2719 3438 
Q 2719 3909 2473 4175 
Q 2228 4441 1797 4441 
Q 1350 4441 1106 4219 
Q 863 3997 819 3553 
z
" transform="scale(0.015625)"/>
       </defs>
       <use xlink:href="#DejaVuSerif-32"/>
       <use xlink:href="#DejaVuSerif-2e" x="63.623047"/>
       <use xlink:href="#DejaVuSerif-30" x="95.410156"/>
       <use xlink:href="#DejaVuSerif-4d" x="159.033203"/>
      </g>
     </g>
    </g>
    <g id="xtick_6">
     <g id="line2d_11">
      <path d="M 326.457844 302.387885 
L 326.457844 32.558209 
" clip-path="url(#pcad31ca43c)" style="fill: none; stroke: #e0e0e0; stroke-opacity: 0.7; stroke-width: 0.6; stroke-linecap: square"/>
     </g>
     <g id="line2d_12">
      <g>
       <use xlink:href="#m7fe0638268" x="326.457844" y="302.387885" style="stroke: #000000"/>
      </g>
     </g>
     <g id="text_6">
      <!-- 2.5M -->
      <g transform="translate(313.38675 316.986322) scale(0.1 -0.1)">
       <use xlink:href="#DejaVuSerif-32"/>
       <use xlink:href="#DejaVuSerif-2e" x="63.623047"/>
       <use xlink:href="#DejaVuSerif-35" x="95.410156"/>
       <use xlink:href="#DejaVuSerif-4d" x="159.033203"/>
      </g>
     </g>
    </g>
    <g id="xtick_7">
     <g id="line2d_13">
      <path d="M 379.497191 302.387885 
L 379.497191 32.558209 
" clip-path="url(#pcad31ca43c)" style="fill: none; stroke: #e0e0e0; stroke-opacity: 0.7; stroke-width: 0.6; stroke-linecap: square"/>
     </g>
     <g id="line2d_14">
      <g>
       <use xlink:href="#m7fe0638268" x="379.497191" y="302.387885" style="stroke: #000000"/>
      </g>
     </g>
     <g id="text_7">
      <!-- 3.0M -->
      <g transform="translate(366.426097 316.986322) scale(0.1 -0.1)">
       <defs>
        <path id="DejaVuSerif-33" d="M 622 4469 
Q 988 4606 1323 4678 
Q 1659 4750 1953 4750 
Q 2638 4750 3022 4454 
Q 3406 4159 3406 3634 
Q 3406 3213 3140 2930 
Q 2875 2647 2388 2547 
Q 2963 2466 3280 2130 
Q 3597 1794 3597 1259 
Q 3597 606 3158 257 
Q 2719 -91 1894 -91 
Q 1528 -91 1179 -12 
Q 831 66 488 225 
L 488 1131 
L 838 1131 
Q 869 681 1141 450 
Q 1413 219 1906 219 
Q 2384 219 2661 495 
Q 2938 772 2938 1253 
Q 2938 1803 2653 2086 
Q 2369 2369 1819 2369 
L 1522 2369 
L 1522 2688 
L 1678 2688 
Q 2225 2688 2498 2914 
Q 2772 3141 2772 3597 
Q 2772 4006 2547 4223 
Q 2322 4441 1900 4441 
Q 1478 4441 1245 4241 
Q 1013 4041 972 3647 
L 622 3647 
L 622 4469 
z
" transform="scale(0.015625)"/>
       </defs>
       <use xlink:href="#DejaVuSerif-33"/>
       <use xlink:href="#DejaVuSerif-2e" x="63.623047"/>
       <use xlink:href="#DejaVuSerif-30" x="95.410156"/>
       <use xlink:href="#DejaVuSerif-4d" x="159.033203"/>
      </g>
     </g>
    </g>
    <g id="text_8">
     <!-- Environment Steps -->
     <g transform="translate(164.71768 332.184135) scale(0.12 -0.12)">
      <defs>
       <path id="DejaVuSerif-45" d="M 353 0 
L 353 331 
L 947 331 
L 947 4331 
L 353 4331 
L 353 4666 
L 4109 4666 
L 4109 3628 
L 3725 3628 
L 3725 4281 
L 1581 4281 
L 1581 2719 
L 3109 2719 
L 3109 3303 
L 3494 3303 
L 3494 1753 
L 3109 1753 
L 3109 2338 
L 1581 2338 
L 1581 384 
L 3775 384 
L 3775 1038 
L 4159 1038 
L 4159 0 
L 353 0 
z
" transform="scale(0.015625)"/>
       <path id="DejaVuSerif-6e" d="M 263 0 
L 263 331 
L 781 331 
L 781 2988 
L 231 2988 
L 231 3322 
L 1356 3322 
L 1356 2731 
Q 1516 3069 1770 3241 
Q 2025 3413 2363 3413 
Q 2913 3413 3172 3097 
Q 3431 2781 3431 2113 
L 3431 331 
L 3944 331 
L 3944 0 
L 2356 0 
L 2356 331 
L 2853 331 
L 2853 1931 
Q 2853 2541 2703 2767 
Q 2553 2994 2175 2994 
Q 1775 2994 1565 2701 
Q 1356 2409 1356 1850 
L 1356 331 
L 1856 331 
L 1856 0 
L 263 0 
z
" transform="scale(0.015625)"/>
       <path id="DejaVuSerif-76" d="M 1581 0 
L 359 2988 
L -19 2988 
L -19 3322 
L 1509 3322 
L 1509 2988 
L 978 2988 
L 1913 703 
L 2847 2988 
L 2350 2988 
L 2350 3322 
L 3597 3322 
L 3597 2988 
L 3225 2988 
L 2003 0 
L 1581 0 
z
" transform="scale(0.015625)"/>
       <path id="DejaVuSerif-69" d="M 622 4353 
Q 622 4497 726 4603 
Q 831 4709 978 4709 
Q 1122 4709 1226 4603 
Q 1331 4497 1331 4353 
Q 1331 4206 1228 4103 
Q 1125 4000 978 4000 
Q 831 4000 726 4103 
Q 622 4206 622 4353 
z
M 1356 331 
L 1900 331 
L 1900 0 
L 231 0 
L 231 331 
L 781 331 
L 781 2988 
L 231 2988 
L 231 3322 
L 1356 3322 
L 1356 331 
z
" transform="scale(0.015625)"/>
       <path id="DejaVuSerif-72" d="M 3059 3328 
L 3059 2497 
L 2728 2497 
Q 2713 2744 2591 2866 
Q 2469 2988 2234 2988 
Q 1809 2988 1582 2694 
Q 1356 2400 1356 1850 
L 1356 331 
L 2022 331 
L 2022 0 
L 263 0 
L 263 331 
L 781 331 
L 781 2994 
L 231 2994 
L 231 3322 
L 1356 3322 
L 1356 2731 
Q 1525 3078 1790 3245 
Q 2056 3413 2438 3413 
Q 2578 3413 2733 3391 
Q 2888 3369 3059 3328 
z
" transform="scale(0.015625)"/>
       <path id="DejaVuSerif-6f" d="M 1925 219 
Q 2388 219 2623 584 
Q 2859 950 2859 1663 
Q 2859 2375 2623 2739 
Q 2388 3103 1925 3103 
Q 1463 3103 1227 2739 
Q 991 2375 991 1663 
Q 991 950 1228 584 
Q 1466 219 1925 219 
z
M 1925 -91 
Q 1200 -91 759 389 
Q 319 869 319 1663 
Q 319 2456 758 2934 
Q 1197 3413 1925 3413 
Q 2653 3413 3092 2934 
Q 3531 2456 3531 1663 
Q 3531 869 3092 389 
Q 2653 -91 1925 -91 
z
" transform="scale(0.015625)"/>
       <path id="DejaVuSerif-6d" d="M 3316 2675 
Q 3481 3041 3739 3227 
Q 3997 3413 4341 3413 
Q 4863 3413 5119 3089 
Q 5375 2766 5375 2113 
L 5375 331 
L 5894 331 
L 5894 0 
L 4300 0 
L 4300 331 
L 4800 331 
L 4800 2047 
Q 4800 2556 4650 2772 
Q 4500 2988 4153 2988 
Q 3769 2988 3567 2697 
Q 3366 2406 3366 1850 
L 3366 331 
L 3866 331 
L 3866 0 
L 2291 0 
L 2291 331 
L 2791 331 
L 2791 2069 
Q 2791 2566 2641 2777 
Q 2491 2988 2144 2988 
Q 1759 2988 1557 2697 
Q 1356 2406 1356 1850 
L 1356 331 
L 1856 331 
L 1856 0 
L 263 0 
L 263 331 
L 781 331 
L 781 2994 
L 231 2994 
L 231 3322 
L 1356 3322 
L 1356 2731 
Q 1516 3063 1762 3238 
Q 2009 3413 2322 3413 
Q 2709 3413 2968 3220 
Q 3228 3028 3316 2675 
z
" transform="scale(0.015625)"/>
       <path id="DejaVuSerif-65" d="M 3469 1600 
L 991 1600 
L 991 1575 
Q 991 903 1244 561 
Q 1497 219 1991 219 
Q 2369 219 2611 417 
Q 2853 616 2950 1006 
L 3413 1006 
Q 3275 459 2904 184 
Q 2534 -91 1931 -91 
Q 1203 -91 761 389 
Q 319 869 319 1663 
Q 319 2450 753 2931 
Q 1188 3413 1894 3413 
Q 2647 3413 3050 2948 
Q 3453 2484 3469 1600 
z
M 2791 1931 
Q 2772 2513 2545 2808 
Q 2319 3103 1894 3103 
Q 1497 3103 1269 2806 
Q 1041 2509 991 1931 
L 2791 1931 
z
" transform="scale(0.015625)"/>
       <path id="DejaVuSerif-74" d="M 691 2988 
L 184 2988 
L 184 3322 
L 691 3322 
L 691 4353 
L 1269 4353 
L 1269 3322 
L 2350 3322 
L 2350 2988 
L 1269 2988 
L 1269 878 
Q 1269 456 1350 337 
Q 1431 219 1650 219 
Q 1875 219 1978 351 
Q 2081 484 2088 781 
L 2522 781 
Q 2497 328 2275 118 
Q 2053 -91 1600 -91 
Q 1103 -91 897 129 
Q 691 350 691 878 
L 691 2988 
z
" transform="scale(0.015625)"/>
       <path id="DejaVuSerif-20" transform="scale(0.015625)"/>
       <path id="DejaVuSerif-53" d="M 594 225 
L 594 1288 
L 953 1284 
Q 969 753 1261 498 
Q 1553 244 2150 244 
Q 2706 244 2998 464 
Q 3291 684 3291 1106 
Q 3291 1444 3114 1625 
Q 2938 1806 2369 1978 
L 1753 2163 
Q 1084 2366 811 2669 
Q 538 2972 538 3500 
Q 538 4094 959 4422 
Q 1381 4750 2144 4750 
Q 2469 4750 2856 4679 
Q 3244 4609 3681 4475 
L 3681 3481 
L 3328 3481 
Q 3275 3975 2998 4195 
Q 2722 4416 2156 4416 
Q 1663 4416 1405 4214 
Q 1147 4013 1147 3628 
Q 1147 3294 1340 3103 
Q 1534 2913 2163 2725 
L 2741 2553 
Q 3375 2363 3645 2067 
Q 3916 1772 3916 1275 
Q 3916 597 3481 253 
Q 3047 -91 2188 -91 
Q 1803 -91 1404 -12 
Q 1006 66 594 225 
z
" transform="scale(0.015625)"/>
       <path id="DejaVuSerif-70" d="M 1313 1825 
L 1313 1497 
Q 1313 897 1542 583 
Q 1772 269 2209 269 
Q 2650 269 2876 622 
Q 3103 975 3103 1663 
Q 3103 2353 2876 2703 
Q 2650 3053 2209 3053 
Q 1772 3053 1542 2737 
Q 1313 2422 1313 1825 
z
M 738 2988 
L 184 2988 
L 184 3322 
L 1313 3322 
L 1313 2803 
Q 1481 3116 1742 3264 
Q 2003 3413 2388 3413 
Q 3000 3413 3387 2928 
Q 3775 2444 3775 1663 
Q 3775 881 3387 395 
Q 3000 -91 2388 -91 
Q 2003 -91 1742 57 
Q 1481 206 1313 519 
L 1313 -997 
L 1856 -997 
L 1856 -1331 
L 184 -1331 
L 184 -997 
L 738 -997 
L 738 2988 
z
" transform="scale(0.015625)"/>
       <path id="DejaVuSerif-73" d="M 359 184 
L 359 959 
L 691 959 
Q 703 588 923 403 
Q 1144 219 1575 219 
Q 1963 219 2166 364 
Q 2369 509 2369 788 
Q 2369 1006 2220 1140 
Q 2072 1275 1594 1428 
L 1178 1569 
Q 750 1706 558 1912 
Q 366 2119 366 2438 
Q 366 2894 700 3153 
Q 1034 3413 1625 3413 
Q 1888 3413 2178 3344 
Q 2469 3275 2778 3144 
L 2778 2419 
L 2447 2419 
Q 2434 2741 2221 2922 
Q 2009 3103 1644 3103 
Q 1281 3103 1095 2975 
Q 909 2847 909 2591 
Q 909 2381 1050 2254 
Q 1191 2128 1613 1997 
L 2069 1856 
Q 2541 1709 2748 1489 
Q 2956 1269 2956 922 
Q 2956 450 2595 179 
Q 2234 -91 1600 -91 
Q 1278 -91 972 -22 
Q 666 47 359 184 
z
" transform="scale(0.015625)"/>
      </defs>
      <use xlink:href="#DejaVuSerif-45"/>
      <use xlink:href="#DejaVuSerif-6e" x="72.998047"/>
      <use xlink:href="#DejaVuSerif-76" x="137.402344"/>
      <use xlink:href="#DejaVuSerif-69" x="193.896484"/>
      <use xlink:href="#DejaVuSerif-72" x="225.878906"/>
      <use xlink:href="#DejaVuSerif-6f" x="273.681641"/>
      <use xlink:href="#DejaVuSerif-6e" x="333.886719"/>
      <use xlink:href="#DejaVuSerif-6d" x="398.291016"/>
      <use xlink:href="#DejaVuSerif-65" x="493.115234"/>
      <use xlink:href="#DejaVuSerif-6e" x="552.294922"/>
      <use xlink:href="#DejaVuSerif-74" x="616.699219"/>
      <use xlink:href="#DejaVuSerif-20" x="656.884766"/>
      <use xlink:href="#DejaVuSerif-53" x="688.671875"/>
      <use xlink:href="#DejaVuSerif-74" x="757.177734"/>
      <use xlink:href="#DejaVuSerif-65" x="797.363281"/>
      <use xlink:href="#DejaVuSerif-70" x="856.542969"/>
      <use xlink:href="#DejaVuSerif-73" x="920.556641"/>
     </g>
    </g>
   </g>
   <g id="matplotlib.axis_2">
    <g id="ytick_1">
     <g id="line2d_15">
      <path d="M 50.918438 284.169023 
L 395.143798 284.169023 
" clip-path="url(#pcad31ca43c)" style="fill: none; stroke: #e0e0e0; stroke-opacity: 0.7; stroke-width: 0.6; stroke-linecap: square"/>
     </g>
     <g id="line2d_16">
      <defs>
       <path id="m75bb87452a" d="M 0 0 
L -3.5 0 
" style="stroke: #000000"/>
      </defs>
      <g>
       <use xlink:href="#m75bb87452a" x="50.918438" y="284.169023" style="stroke: #000000"/>
      </g>
     </g>
     <g id="text_9">
      <!-- −20 -->
      <g transform="translate(22.81375 287.968242) scale(0.1 -0.1)">
       <defs>
        <path id="DejaVuSerif-2212" d="M 678 2259 
L 4684 2259 
L 4684 1753 
L 678 1753 
L 678 2259 
z
" transform="scale(0.015625)"/>
       </defs>
       <use xlink:href="#DejaVuSerif-2212"/>
       <use xlink:href="#DejaVuSerif-32" x="83.789062"/>
       <use xlink:href="#DejaVuSerif-30" x="147.412109"/>
      </g>
     </g>
    </g>
    <g id="ytick_2">
     <g id="line2d_17">
      <path d="M 50.918438 224.63026 
L 395.143798 224.63026 
" clip-path="url(#pcad31ca43c)" style="fill: none; stroke: #e0e0e0; stroke-opacity: 0.7; stroke-width: 0.6; stroke-linecap: square"/>
     </g>
     <g id="line2d_18">
      <g>
       <use xlink:href="#m75bb87452a" x="50.918438" y="224.63026" style="stroke: #000000"/>
      </g>
     </g>
     <g id="text_10">
      <!-- −10 -->
      <g transform="translate(22.81375 228.429479) scale(0.1 -0.1)">
       <use xlink:href="#DejaVuSerif-2212"/>
       <use xlink:href="#DejaVuSerif-31" x="83.789062"/>
       <use xlink:href="#DejaVuSerif-30" x="147.412109"/>
      </g>
     </g>
    </g>
    <g id="ytick_3">
     <g id="line2d_19">
      <path d="M 50.918438 165.091496 
L 395.143798 165.091496 
" clip-path="url(#pcad31ca43c)" style="fill: none; stroke: #e0e0e0; stroke-opacity: 0.7; stroke-width: 0.6; stroke-linecap: square"/>
     </g>
     <g id="line2d_20">
      <g>
       <use xlink:href="#m75bb87452a" x="50.918438" y="165.091496" style="stroke: #000000"/>
      </g>
     </g>
     <g id="text_11">
      <!-- 0 -->
      <g transform="translate(37.555937 168.890715) scale(0.1 -0.1)">
       <use xlink:href="#DejaVuSerif-30"/>
      </g>
     </g>
    </g>
    <g id="ytick_4">
     <g id="line2d_21">
      <path d="M 50.918438 105.552733 
L 395.143798 105.552733 
" clip-path="url(#pcad31ca43c)" style="fill: none; stroke: #e0e0e0; stroke-opacity: 0.7; stroke-width: 0.6; stroke-linecap: square"/>
     </g>
     <g id="line2d_22">
      <g>
       <use xlink:href="#m75bb87452a" x="50.918438" y="105.552733" style="stroke: #000000"/>
      </g>
     </g>
     <g id="text_12">
      <!-- 10 -->
      <g transform="translate(31.193438 109.351952) scale(0.1 -0.1)">
       <use xlink:href="#DejaVuSerif-31"/>
       <use xlink:href="#DejaVuSerif-30" x="63.623047"/>
      </g>
     </g>
    </g>
    <g id="ytick_5">
     <g id="line2d_23">
      <path d="M 50.918438 46.013969 
L 395.143798 46.013969 
" clip-path="url(#pcad31ca43c)" style="fill: none; stroke: #e0e0e0; stroke-opacity: 0.7; stroke-width: 0.6; stroke-linecap: square"/>
     </g>
     <g id="line2d_24">
      <g>
       <use xlink:href="#m75bb87452a" x="50.918438" y="46.013969" style="stroke: #000000"/>
      </g>
     </g>
     <g id="text_13">
      <!-- 20 -->
      <g transform="translate(31.193438 49.813188) scale(0.1 -0.1)">
       <use xlink:href="#DejaVuSerif-32"/>
       <use xlink:href="#DejaVuSerif-30" x="63.623047"/>
      </g>
     </g>
    </g>
    <g id="text_14">
     <!-- Mean Eval Reward -->
     <g transform="translate(16.318125 225.180859) rotate(-90) scale(0.12 -0.12)">
      <defs>
       <path id="DejaVuSerif-61" d="M 2547 1044 
L 2547 1747 
L 1806 1747 
Q 1378 1747 1168 1562 
Q 959 1378 959 997 
Q 959 650 1171 447 
Q 1384 244 1747 244 
Q 2106 244 2326 466 
Q 2547 688 2547 1044 
z
M 3122 2075 
L 3122 331 
L 3634 331 
L 3634 0 
L 2547 0 
L 2547 359 
Q 2356 128 2106 18 
Q 1856 -91 1522 -91 
Q 969 -91 644 203 
Q 319 497 319 997 
Q 319 1513 691 1797 
Q 1063 2081 1741 2081 
L 2547 2081 
L 2547 2309 
Q 2547 2688 2317 2895 
Q 2088 3103 1672 3103 
Q 1328 3103 1125 2947 
Q 922 2791 872 2484 
L 575 2484 
L 575 3156 
Q 875 3284 1158 3348 
Q 1441 3413 1709 3413 
Q 2400 3413 2761 3070 
Q 3122 2728 3122 2075 
z
" transform="scale(0.015625)"/>
       <path id="DejaVuSerif-6c" d="M 1313 331 
L 1856 331 
L 1856 0 
L 184 0 
L 184 331 
L 738 331 
L 738 4531 
L 184 4531 
L 184 4863 
L 1313 4863 
L 1313 331 
z
" transform="scale(0.015625)"/>
       <path id="DejaVuSerif-52" d="M 3066 2316 
Q 3284 2256 3442 2114 
Q 3600 1972 3725 1716 
L 4403 331 
L 4972 331 
L 4972 0 
L 3872 0 
L 3144 1484 
Q 2934 1916 2759 2042 
Q 2584 2169 2278 2169 
L 1581 2169 
L 1581 331 
L 2241 331 
L 2241 0 
L 353 0 
L 353 331 
L 947 331 
L 947 4331 
L 353 4331 
L 353 4666 
L 2719 4666 
Q 3400 4666 3770 4341 
Q 4141 4016 4141 3419 
Q 4141 2938 3870 2661 
Q 3600 2384 3066 2316 
z
M 1581 2503 
L 2503 2503 
Q 2975 2503 3200 2726 
Q 3425 2950 3425 3419 
Q 3425 3888 3200 4109 
Q 2975 4331 2503 4331 
L 1581 4331 
L 1581 2503 
z
" transform="scale(0.015625)"/>
       <path id="DejaVuSerif-77" d="M 3072 3322 
L 3922 728 
L 4672 2988 
L 4191 2988 
L 4191 3322 
L 5394 3322 
L 5394 2988 
L 5025 2988 
L 4038 0 
L 3559 0 
L 2741 2484 
L 1919 0 
L 1459 0 
L 475 2988 
L 103 2988 
L 103 3322 
L 1606 3322 
L 1606 2988 
L 1069 2988 
L 1813 728 
L 2669 3322 
L 3072 3322 
z
" transform="scale(0.015625)"/>
       <path id="DejaVuSerif-64" d="M 3359 331 
L 3909 331 
L 3909 0 
L 2784 0 
L 2784 519 
Q 2616 206 2355 57 
Q 2094 -91 1709 -91 
Q 1097 -91 708 395 
Q 319 881 319 1663 
Q 319 2444 706 2928 
Q 1094 3413 1709 3413 
Q 2094 3413 2355 3264 
Q 2616 3116 2784 2803 
L 2784 4531 
L 2241 4531 
L 2241 4863 
L 3359 4863 
L 3359 331 
z
M 2784 1497 
L 2784 1825 
Q 2784 2422 2554 2737 
Q 2325 3053 1888 3053 
Q 1444 3053 1217 2703 
Q 991 2353 991 1663 
Q 991 975 1217 622 
Q 1444 269 1888 269 
Q 2325 269 2554 583 
Q 2784 897 2784 1497 
z
" transform="scale(0.015625)"/>
      </defs>
      <use xlink:href="#DejaVuSerif-4d"/>
      <use xlink:href="#DejaVuSerif-65" x="102.392578"/>
      <use xlink:href="#DejaVuSerif-61" x="161.572266"/>
      <use xlink:href="#DejaVuSerif-6e" x="221.191406"/>
      <use xlink:href="#DejaVuSerif-20" x="285.595703"/>
      <use xlink:href="#DejaVuSerif-45" x="317.382812"/>
      <use xlink:href="#DejaVuSerif-76" x="390.380859"/>
      <use xlink:href="#DejaVuSerif-61" x="446.875"/>
      <use xlink:href="#DejaVuSerif-6c" x="506.494141"/>
      <use xlink:href="#DejaVuSerif-20" x="538.476562"/>
      <use xlink:href="#DejaVuSerif-52" x="570.263672"/>
      <use xlink:href="#DejaVuSerif-65" x="645.556641"/>
      <use xlink:href="#DejaVuSerif-77" x="704.736328"/>
      <use xlink:href="#DejaVuSerif-61" x="790.332031"/>
      <use xlink:href="#DejaVuSerif-72" x="849.951172"/>
      <use xlink:href="#DejaVuSerif-64" x="897.753906"/>
     </g>
    </g>
   </g>
   <g id="line2d_25">
    <path d="M 66.565045 290.1229 
L 71.868979 290.1229 
L 77.172914 290.1229 
L 82.476849 290.1229 
L 87.780784 286.550574 
L 93.084718 280.596698 
L 98.388653 290.1229 
L 103.692588 286.550574 
L 108.996522 280.596698 
L 114.300457 271.070495 
L 119.604392 282.978248 
L 124.908326 261.544293 
L 130.212261 255.590417 
L 135.516196 248.445765 
L 140.82013 254.399642 
L 146.124065 278.215147 
L 151.428 249.636541 
L 156.731934 274.642821 
L 162.035869 259.162743 
L 167.339804 244.873439 
L 172.643738 235.942625 
L 177.947673 259.75813 
L 183.251608 262.139681 
L 188.555542 258.567355 
L 193.859477 184.739288 
L 199.163412 227.01181 
L 204.467347 209.745569 
L 209.771281 240.110338 
L 215.075216 206.768631 
L 220.379151 209.745569 
L 225.683085 243.087277 
L 230.98702 237.1334 
L 236.290955 197.242429 
L 241.594889 223.439485 
L 246.898824 166.282272 
L 252.202759 168.663822 
L 257.506693 141.871379 
L 262.810628 212.722507 
L 268.114563 166.877659 
L 273.418497 202.600917 
L 278.722432 178.785412 
L 284.026367 171.64076 
L 289.330301 123.414362 
L 294.634236 156.160682 
L 299.938171 121.628199 
L 305.242105 122.818974 
L 310.54604 91.858817 
L 315.849975 54.944784 
L 321.15391 68.043312 
L 326.457844 108.529671 
L 331.761779 72.806413 
L 337.065714 85.309553 
L 342.369648 161.519171 
L 347.673583 80.546452 
L 352.977518 140.085216 
L 358.281452 88.881879 
L 363.585387 106.14812 
L 368.889322 64.470986 
L 374.193256 54.349396 
L 379.497191 44.823194 
" clip-path="url(#pcad31ca43c)" style="fill: none; stroke: #a8d8ea; stroke-opacity: 0.3; stroke-width: 0.8; stroke-linecap: square"/>
   </g>
   <g id="line2d_26">
    <path d="M 66.565045 290.1229 
L 71.868979 290.1229 
L 77.172914 289.408435 
L 82.476849 287.503194 
L 87.780784 287.503194 
L 93.084718 286.788729 
L 98.388653 284.883489 
L 103.692588 281.787473 
L 108.996522 282.263783 
L 114.300457 276.548062 
L 119.604392 270.35603 
L 124.908326 263.925844 
L 130.212261 260.591673 
L 135.516196 259.639053 
L 140.82013 257.257502 
L 146.124065 261.067983 
L 151.428 263.211379 
L 156.731934 261.306138 
L 162.035869 252.851634 
L 167.339804 254.875952 
L 172.643738 252.375324 
L 177.947673 252.256246 
L 183.251608 240.229416 
L 188.555542 238.443253 
L 193.859477 228.440741 
L 199.163412 224.034872 
L 204.467347 213.675127 
L 209.771281 218.676383 
L 215.075216 221.891477 
L 220.379151 227.369043 
L 225.683085 218.795461 
L 230.98702 222.129632 
L 236.290955 213.436972 
L 241.594889 198.552281 
L 246.898824 179.499877 
L 252.202759 182.595893 
L 257.506693 171.283528 
L 262.810628 178.547257 
L 268.114563 180.571575 
L 273.418497 186.525451 
L 278.722432 168.663822 
L 284.026367 166.520427 
L 289.330301 150.325883 
L 294.634236 139.132595 
L 299.938171 123.176207 
L 305.242105 109.482291 
L 310.54604 91.858817 
L 315.849975 89.239112 
L 321.15391 79.236599 
L 326.457844 77.926747 
L 331.761779 99.241624 
L 337.065714 101.742252 
L 342.369648 108.053361 
L 347.673583 111.268454 
L 352.977518 115.436168 
L 358.281452 96.026531 
L 363.585387 90.787119 
L 368.889322 71.734715 
L 374.193256 62.922978 
L 379.497191 50.657993 
" clip-path="url(#pcad31ca43c)" style="fill: none; stroke: #a8d8ea; stroke-width: 2; stroke-linecap: square"/>
    <defs>
     <path id="m40f81116f7" d="M 0 2 
C 0.530406 2 1.03916 1.789267 1.414214 1.414214 
C 1.789267 1.03916 2 0.530406 2 0 
C 2 -0.530406 1.789267 -1.03916 1.414214 -1.414214 
C 1.03916 -1.789267 0.530406 -2 0 -2 
C -0.530406 -2 -1.03916 -1.789267 -1.414214 -1.414214 
C -1.789267 -1.03916 -2 -0.530406 -2 0 
C -2 0.530406 -1.789267 1.03916 -1.414214 1.414214 
C -1.03916 1.789267 -0.530406 2 0 2 
z
" style="stroke: #1a1a1a; stroke-width: 0.8"/>
    </defs>
    <g clip-path="url(#pcad31ca43c)">
     <use xlink:href="#m40f81116f7" x="66.565045" y="290.1229" style="fill: #a8d8ea; stroke: #1a1a1a; stroke-width: 0.8"/>
     <use xlink:href="#m40f81116f7" x="93.084718" y="286.788729" style="fill: #a8d8ea; stroke: #1a1a1a; stroke-width: 0.8"/>
     <use xlink:href="#m40f81116f7" x="119.604392" y="270.35603" style="fill: #a8d8ea; stroke: #1a1a1a; stroke-width: 0.8"/>
     <use xlink:href="#m40f81116f7" x="146.124065" y="261.067983" style="fill: #a8d8ea; stroke: #1a1a1a; stroke-width: 0.8"/>
     <use xlink:href="#m40f81116f7" x="172.643738" y="252.375324" style="fill: #a8d8ea; stroke: #1a1a1a; stroke-width: 0.8"/>
     <use xlink:href="#m40f81116f7" x="199.163412" y="224.034872" style="fill: #a8d8ea; stroke: #1a1a1a; stroke-width: 0.8"/>
     <use xlink:href="#m40f81116f7" x="225.683085" y="218.795461" style="fill: #a8d8ea; stroke: #1a1a1a; stroke-width: 0.8"/>
     <use xlink:href="#m40f81116f7" x="252.202759" y="182.595893" style="fill: #a8d8ea; stroke: #1a1a1a; stroke-width: 0.8"/>
     <use xlink:href="#m40f81116f7" x="278.722432" y="168.663822" style="fill: #a8d8ea; stroke: #1a1a1a; stroke-width: 0.8"/>
     <use xlink:href="#m40f81116f7" x="305.242105" y="109.482291" style="fill: #a8d8ea; stroke: #1a1a1a; stroke-width: 0.8"/>
     <use xlink:href="#m40f81116f7" x="331.761779" y="99.241624" style="fill: #a8d8ea; stroke: #1a1a1a; stroke-width: 0.8"/>
     <use xlink:href="#m40f81116f7" x="358.281452" y="96.026531" style="fill: #a8d8ea; stroke: #1a1a1a; stroke-width: 0.8"/>
    </g>
   </g>
   <g id="patch_3">
    <path d="M 50.918438 302.387885 
L 50.918438 32.558209 
" style="fill: none; stroke: #1a1a1a; stroke-width: 1.2; stroke-linejoin: miter; stroke-linecap: square"/>
   </g>
   <g id="patch_4">
    <path d="M 395.143798 302.387885 
L 395.143798 32.558209 
" style="fill: none; stroke: #1a1a1a; stroke-width: 1.2; stroke-linejoin: miter; stroke-linecap: square"/>
   </g>
   <g id="patch_5">
    <path d="M 50.918438 302.387885 
L 395.143798 302.387885 
" style="fill: none; stroke: #1a1a1a; stroke-width: 1.2; stroke-linejoin: miter; stroke-linecap: square"/>
   </g>
   <g id="patch_6">
    <path d="M 50.918438 32.558209 
L 395.143798 32.558209 
" style="fill: none; stroke: #1a1a1a; stroke-width: 1.2; stroke-linejoin: miter; stroke-linecap: square"/>
   </g>
   <g id="text_15">
    <!-- Pong (Best: 20.2) -->
    <g transform="translate(166.220102 26.558209) scale(0.13 -0.13)">
     <defs>
      <path id="DejaVuSerif-50" d="M 1581 2375 
L 2406 2375 
Q 2872 2375 3115 2626 
Q 3359 2878 3359 3353 
Q 3359 3831 3115 4081 
Q 2872 4331 2406 4331 
L 1581 4331 
L 1581 2375 
z
M 353 0 
L 353 331 
L 947 331 
L 947 4331 
L 353 4331 
L 353 4666 
L 2559 4666 
Q 3259 4666 3668 4311 
Q 4078 3956 4078 3353 
Q 4078 2753 3668 2397 
Q 3259 2041 2559 2041 
L 1581 2041 
L 1581 331 
L 2303 331 
L 2303 0 
L 353 0 
z
" transform="scale(0.015625)"/>
      <path id="DejaVuSerif-67" d="M 3359 2988 
L 3359 72 
Q 3359 -644 2965 -1033 
Q 2572 -1422 1844 -1422 
Q 1516 -1422 1216 -1362 
Q 916 -1303 641 -1184 
L 641 -488 
L 941 -488 
Q 997 -813 1206 -963 
Q 1416 -1113 1806 -1113 
Q 2313 -1113 2548 -827 
Q 2784 -541 2784 72 
L 2784 519 
Q 2616 206 2355 57 
Q 2094 -91 1709 -91 
Q 1097 -91 708 395 
Q 319 881 319 1663 
Q 319 2444 706 2928 
Q 1094 3413 1709 3413 
Q 2094 3413 2355 3264 
Q 2616 3116 2784 2803 
L 2784 3322 
L 3909 3322 
L 3909 2988 
L 3359 2988 
z
M 2784 1825 
Q 2784 2422 2554 2737 
Q 2325 3053 1888 3053 
Q 1444 3053 1217 2703 
Q 991 2353 991 1663 
Q 991 975 1217 622 
Q 1444 269 1888 269 
Q 2325 269 2554 583 
Q 2784 897 2784 1497 
L 2784 1825 
z
" transform="scale(0.015625)"/>
      <path id="DejaVuSerif-28" d="M 2041 -997 
Q 1281 -656 893 83 
Q 506 822 506 1931 
Q 506 3044 893 3783 
Q 1281 4522 2041 4863 
L 2041 4556 
Q 1559 4225 1350 3623 
Q 1141 3022 1141 1931 
Q 1141 844 1350 242 
Q 1559 -359 2041 -691 
L 2041 -997 
z
" transform="scale(0.015625)"/>
      <path id="DejaVuSerif-42" d="M 1581 331 
L 2516 331 
Q 3078 331 3337 575 
Q 3597 819 3597 1350 
Q 3597 1878 3339 2120 
Q 3081 2363 2516 2363 
L 1581 2363 
L 1581 331 
z
M 1581 2694 
L 2375 2694 
Q 2888 2694 3123 2891 
Q 3359 3088 3359 3513 
Q 3359 3941 3123 4136 
Q 2888 4331 2375 4331 
L 1581 4331 
L 1581 2694 
z
M 353 0 
L 353 331 
L 947 331 
L 947 4331 
L 353 4331 
L 353 4666 
L 2656 4666 
Q 3363 4666 3720 4377 
Q 4078 4088 4078 3513 
Q 4078 3097 3829 2850 
Q 3581 2603 3103 2547 
Q 3697 2472 4005 2167 
Q 4313 1863 4313 1350 
Q 4313 656 3875 328 
Q 3438 0 2509 0 
L 353 0 
z
" transform="scale(0.015625)"/>
      <path id="DejaVuSerif-3a" d="M 666 325 
Q 666 500 786 622 
Q 906 744 1081 744 
Q 1256 744 1376 622 
Q 1497 500 1497 325 
Q 1497 150 1378 29 
Q 1259 -91 1081 -91 
Q 903 -91 784 29 
Q 666 150 666 325 
z
M 666 2363 
Q 666 2538 786 2658 
Q 906 2778 1081 2778 
Q 1259 2778 1378 2659 
Q 1497 2541 1497 2363 
Q 1497 2184 1378 2065 
Q 1259 1947 1081 1947 
Q 906 1947 786 2067 
Q 666 2188 666 2363 
z
" transform="scale(0.015625)"/>
      <path id="DejaVuSerif-29" d="M 453 -997 
L 453 -691 
Q 934 -359 1145 242 
Q 1356 844 1356 1931 
Q 1356 3022 1145 3623 
Q 934 4225 453 4556 
L 453 4863 
Q 1216 4522 1603 3783 
Q 1991 3044 1991 1931 
Q 1991 822 1603 83 
Q 1216 -656 453 -997 
z
" transform="scale(0.015625)"/>
     </defs>
     <use xlink:href="#DejaVuSerif-50"/>
     <use xlink:href="#DejaVuSerif-6f" x="63.285156"/>
     <use xlink:href="#DejaVuSerif-6e" x="123.490234"/>
     <use xlink:href="#DejaVuSerif-67" x="187.894531"/>
     <use xlink:href="#DejaVuSerif-20" x="251.908203"/>
     <use xlink:href="#DejaVuSerif-28" x="283.695312"/>
     <use xlink:href="#DejaVuSerif-42" x="322.708984"/>
     <use xlink:href="#DejaVuSerif-65" x="396.195312"/>
     <use xlink:href="#DejaVuSerif-73" x="455.375"/>
     <use xlink:href="#DejaVuSerif-74" x="506.693359"/>
     <use xlink:href="#DejaVuSerif-3a" x="546.878906"/>
     <use xlink:href="#DejaVuSerif-20" x="580.570312"/>
     <use xlink:href="#DejaVuSerif-32" x="612.357422"/>
     <use xlink:href="#DejaVuSerif-30" x="675.980469"/>
     <use xlink:href="#DejaVuSerif-2e" x="739.603516"/>
     <use xlink:href="#DejaVuSerif-32" x="771.390625"/>
     <use xlink:href="#DejaVuSerif-29" x="835.013672"/>
    </g>
   </g>
   <g id="line2d_27">
    <path d="M 379.497191 44.823194 
" clip-path="url(#pcad31ca43c)" style="fill: none; stroke: #ff4444; stroke-width: 1.5; stroke-linecap: square"/>
    <defs>
     <path id="m2fada526d8" d="M 0 -7 
L -1.571598 -2.163119 
L -6.657396 -2.163119 
L -2.542899 0.826238 
L -4.114497 5.663119 
L -0 2.673762 
L 4.114497 5.663119 
L 2.542899 0.826238 
L 6.657396 -2.163119 
L 1.571598 -2.163119 
z
" style="stroke: #1a1a1a; stroke-linejoin: bevel"/>
    </defs>
    <g clip-path="url(#pcad31ca43c)">
     <use xlink:href="#m2fada526d8" x="379.497191" y="44.823194" style="fill: #ff4444; stroke: #1a1a1a; stroke-linejoin: bevel"/>
    </g>
   </g>
  </g>
  <g id="axes_2">
   <g id="patch_7">
    <path d="M 444.765048 302.387885 
L 788.990409 302.387885 
L 788.990409 32.558209 
L 444.765048 32.558209 
z
" style="fill: #fafafa"/>
   </g>
   <g id="matplotlib.axis_3">
    <g id="xtick_8">
     <g id="line2d_28">
      <path d="M 455.107721 302.387885 
L 455.107721 32.558209 
" clip-path="url(#p10388b6541)" style="fill: none; stroke: #e0e0e0; stroke-opacity: 0.7; stroke-width: 0.6; stroke-linecap: square"/>
     </g>
     <g id="line2d_29">
      <g>
       <use xlink:href="#m7fe0638268" x="455.107721" y="302.387885" style="stroke: #000000"/>
      </g>
     </g>
     <g id="text_16">
      <!-- 0k -->
      <g transform="translate(448.896783 316.986322) scale(0.1 -0.1)">
       <use xlink:href="#DejaVuSerif-30"/>
       <use xlink:href="#DejaVuSerif-6b" x="63.623047"/>
      </g>
     </g>
    </g>
    <g id="xtick_9">
     <g id="line2d_30">
      <path d="M 508.147068 302.387885 
L 508.147068 32.558209 
" clip-path="url(#p10388b6541)" style="fill: none; stroke: #e0e0e0; stroke-opacity: 0.7; stroke-width: 0.6; stroke-linecap: square"/>
     </g>
     <g id="line2d_31">
      <g>
       <use xlink:href="#m7fe0638268" x="508.147068" y="302.387885" style="stroke: #000000"/>
      </g>
     </g>
     <g id="text_17">
      <!-- 500k -->
      <g transform="translate(495.57363 316.986322) scale(0.1 -0.1)">
       <use xlink:href="#DejaVuSerif-35"/>
       <use xlink:href="#DejaVuSerif-30" x="63.623047"/>
       <use xlink:href="#DejaVuSerif-30" x="127.246094"/>
       <use xlink:href="#DejaVuSerif-6b" x="190.869141"/>
      </g>
     </g>
    </g>
    <g id="xtick_10">
     <g id="line2d_32">
      <path d="M 561.186415 302.387885 
L 561.186415 32.558209 
" clip-path="url(#p10388b6541)" style="fill: none; stroke: #e0e0e0; stroke-opacity: 0.7; stroke-width: 0.6; stroke-linecap: square"/>
     </g>
     <g id="line2d_33">
      <g>
       <use xlink:href="#m7fe0638268" x="561.186415" y="302.387885" style="stroke: #000000"/>
      </g>
     </g>
     <g id="text_18">
      <!-- 1.0M -->
      <g transform="translate(548.115321 316.986322) scale(0.1 -0.1)">
       <use xlink:href="#DejaVuSerif-31"/>
       <use xlink:href="#DejaVuSerif-2e" x="63.623047"/>
       <use xlink:href="#DejaVuSerif-30" x="95.410156"/>
       <use xlink:href="#DejaVuSerif-4d" x="159.033203"/>
      </g>
     </g>
    </g>
    <g id="xtick_11">
     <g id="line2d_34">
      <path d="M 614.225761 302.387885 
L 614.225761 32.558209 
" clip-path="url(#p10388b6541)" style="fill: none; stroke: #e0e0e0; stroke-opacity: 0.7; stroke-width: 0.6; stroke-linecap: square"/>
     </g>
     <g id="line2d_35">
      <g>
       <use xlink:href="#m7fe0638268" x="614.225761" y="302.387885" style="stroke: #000000"/>
      </g>
     </g>
     <g id="text_19">
      <!-- 1.5M -->
      <g transform="translate(601.154668 316.986322) scale(0.1 -0.1)">
       <use xlink:href="#DejaVuSerif-31"/>
       <use xlink:href="#DejaVuSerif-2e" x="63.623047"/>
       <use xlink:href="#DejaVuSerif-35" x="95.410156"/>
       <use xlink:href="#DejaVuSerif-4d" x="159.033203"/>
      </g>
     </g>
    </g>
    <g id="xtick_12">
     <g id="line2d_36">
      <path d="M 667.265108 302.387885 
L 667.265108 32.558209 
" clip-path="url(#p10388b6541)" style="fill: none; stroke: #e0e0e0; stroke-opacity: 0.7; stroke-width: 0.6; stroke-linecap: square"/>
     </g>
     <g id="line2d_37">
      <g>
       <use xlink:href="#m7fe0638268" x="667.265108" y="302.387885" style="stroke: #000000"/>
      </g>
     </g>
     <g id="text_20">
      <!-- 2.0M -->
      <g transform="translate(654.194014 316.986322) scale(0.1 -0.1)">
       <use xlink:href="#DejaVuSerif-32"/>
       <use xlink:href="#DejaVuSerif-2e" x="63.623047"/>
       <use xlink:href="#DejaVuSerif-30" x="95.410156"/>
       <use xlink:href="#DejaVuSerif-4d" x="159.033203"/>
      </g>
     </g>
    </g>
    <g id="xtick_13">
     <g id="line2d_38">
      <path d="M 720.304455 302.387885 
L 720.304455 32.558209 
" clip-path="url(#p10388b6541)" style="fill: none; stroke: #e0e0e0; stroke-opacity: 0.7; stroke-width: 0.6; stroke-linecap: square"/>
     </g>
     <g id="line2d_39">
      <g>
       <use xlink:href="#m7fe0638268" x="720.304455" y="302.387885" style="stroke: #000000"/>
      </g>
     </g>
     <g id="text_21">
      <!-- 2.5M -->
      <g transform="translate(707.233361 316.986322) scale(0.1 -0.1)">
       <use xlink:href="#DejaVuSerif-32"/>
       <use xlink:href="#DejaVuSerif-2e" x="63.623047"/>
       <use xlink:href="#DejaVuSerif-35" x="95.410156"/>
       <use xlink:href="#DejaVuSerif-4d" x="159.033203"/>
      </g>
     </g>
    </g>
    <g id="xtick_14">
     <g id="line2d_40">
      <path d="M 773.343802 302.387885 
L 773.343802 32.558209 
" clip-path="url(#p10388b6541)" style="fill: none; stroke: #e0e0e0; stroke-opacity: 0.7; stroke-width: 0.6; stroke-linecap: square"/>
     </g>
     <g id="line2d_41">
      <g>
       <use xlink:href="#m7fe0638268" x="773.343802" y="302.387885" style="stroke: #000000"/>
      </g>
     </g>
     <g id="text_22">
      <!-- 3.0M -->
      <g transform="translate(760.272708 316.986322) scale(0.1 -0.1)">
       <use xlink:href="#DejaVuSerif-33"/>
       <use xlink:href="#DejaVuSerif-2e" x="63.623047"/>
       <use xlink:href="#DejaVuSerif-30" x="95.410156"/>
       <use xlink:href="#DejaVuSerif-4d" x="159.033203"/>
      </g>
     </g>
    </g>
    <g id="text_23">
     <!-- Environment Steps -->
     <g transform="translate(558.564291 332.184135) scale(0.12 -0.12)">
      <use xlink:href="#DejaVuSerif-45"/>
      <use xlink:href="#DejaVuSerif-6e" x="72.998047"/>
      <use xlink:href="#DejaVuSerif-76" x="137.402344"/>
      <use xlink:href="#DejaVuSerif-69" x="193.896484"/>
      <use xlink:href="#DejaVuSerif-72" x="225.878906"/>
      <use xlink:href="#DejaVuSerif-6f" x="273.681641"/>
      <use xlink:href="#DejaVuSerif-6e" x="333.886719"/>
      <use xlink:href="#DejaVuSerif-6d" x="398.291016"/>
      <use xlink:href="#DejaVuSerif-65" x="493.115234"/>
      <use xlink:href="#DejaVuSerif-6e" x="552.294922"/>
      <use xlink:href="#DejaVuSerif-74" x="616.699219"/>
      <use xlink:href="#DejaVuSerif-20" x="656.884766"/>
      <use xlink:href="#DejaVuSerif-53" x="688.671875"/>
      <use xlink:href="#DejaVuSerif-74" x="757.177734"/>
      <use xlink:href="#DejaVuSerif-65" x="797.363281"/>
      <use xlink:href="#DejaVuSerif-70" x="856.542969"/>
      <use xlink:href="#DejaVuSerif-73" x="920.556641"/>
     </g>
    </g>
   </g>
   <g id="matplotlib.axis_4">
    <g id="ytick_6">
     <g id="line2d_42">
      <path d="M 444.765048 290.1229 
L 788.990409 290.1229 
" clip-path="url(#p10388b6541)" style="fill: none; stroke: #e0e0e0; stroke-opacity: 0.7; stroke-width: 0.6; stroke-linecap: square"/>
     </g>
     <g id="line2d_43">
      <g>
       <use xlink:href="#m75bb87452a" x="444.765048" y="290.1229" style="stroke: #000000"/>
      </g>
     </g>
     <g id="text_24">
      <!-- 0 -->
      <g transform="translate(431.402548 293.922118) scale(0.1 -0.1)">
       <use xlink:href="#DejaVuSerif-30"/>
      </g>
     </g>
    </g>
    <g id="ytick_7">
     <g id="line2d_44">
      <path d="M 444.765048 258.373003 
L 788.990409 258.373003 
" clip-path="url(#p10388b6541)" style="fill: none; stroke: #e0e0e0; stroke-opacity: 0.7; stroke-width: 0.6; stroke-linecap: square"/>
     </g>
     <g id="line2d_45">
      <g>
       <use xlink:href="#m75bb87452a" x="444.765048" y="258.373003" style="stroke: #000000"/>
      </g>
     </g>
     <g id="text_25">
      <!-- 50 -->
      <g transform="translate(425.040048 262.172221) scale(0.1 -0.1)">
       <use xlink:href="#DejaVuSerif-35"/>
       <use xlink:href="#DejaVuSerif-30" x="63.623047"/>
      </g>
     </g>
    </g>
    <g id="ytick_8">
     <g id="line2d_46">
      <path d="M 444.765048 226.623105 
L 788.990409 226.623105 
" clip-path="url(#p10388b6541)" style="fill: none; stroke: #e0e0e0; stroke-opacity: 0.7; stroke-width: 0.6; stroke-linecap: square"/>
     </g>
     <g id="line2d_47">
      <g>
       <use xlink:href="#m75bb87452a" x="444.765048" y="226.623105" style="stroke: #000000"/>
      </g>
     </g>
     <g id="text_26">
      <!-- 100 -->
      <g transform="translate(418.677548 230.422324) scale(0.1 -0.1)">
       <use xlink:href="#DejaVuSerif-31"/>
       <use xlink:href="#DejaVuSerif-30" x="63.623047"/>
       <use xlink:href="#DejaVuSerif-30" x="127.246094"/>
      </g>
     </g>
    </g>
    <g id="ytick_9">
     <g id="line2d_48">
      <path d="M 444.765048 194.873208 
L 788.990409 194.873208 
" clip-path="url(#p10388b6541)" style="fill: none; stroke: #e0e0e0; stroke-opacity: 0.7; stroke-width: 0.6; stroke-linecap: square"/>
     </g>
     <g id="line2d_49">
      <g>
       <use xlink:href="#m75bb87452a" x="444.765048" y="194.873208" style="stroke: #000000"/>
      </g>
     </g>
     <g id="text_27">
      <!-- 150 -->
      <g transform="translate(418.677548 198.672427) scale(0.1 -0.1)">
       <use xlink:href="#DejaVuSerif-31"/>
       <use xlink:href="#DejaVuSerif-35" x="63.623047"/>
       <use xlink:href="#DejaVuSerif-30" x="127.246094"/>
      </g>
     </g>
    </g>
    <g id="ytick_10">
     <g id="line2d_50">
      <path d="M 444.765048 163.123311 
L 788.990409 163.123311 
" clip-path="url(#p10388b6541)" style="fill: none; stroke: #e0e0e0; stroke-opacity: 0.7; stroke-width: 0.6; stroke-linecap: square"/>
     </g>
     <g id="line2d_51">
      <g>
       <use xlink:href="#m75bb87452a" x="444.765048" y="163.123311" style="stroke: #000000"/>
      </g>
     </g>
     <g id="text_28">
      <!-- 200 -->
      <g transform="translate(418.677548 166.92253) scale(0.1 -0.1)">
       <use xlink:href="#DejaVuSerif-32"/>
       <use xlink:href="#DejaVuSerif-30" x="63.623047"/>
       <use xlink:href="#DejaVuSerif-30" x="127.246094"/>
      </g>
     </g>
    </g>
    <g id="ytick_11">
     <g id="line2d_52">
      <path d="M 444.765048 131.373414 
L 788.990409 131.373414 
" clip-path="url(#p10388b6541)" style="fill: none; stroke: #e0e0e0; stroke-opacity: 0.7; stroke-width: 0.6; stroke-linecap: square"/>
     </g>
     <g id="line2d_53">
      <g>
       <use xlink:href="#m75bb87452a" x="444.765048" y="131.373414" style="stroke: #000000"/>
      </g>
     </g>
     <g id="text_29">
      <!-- 250 -->
      <g transform="translate(418.677548 135.172633) scale(0.1 -0.1)">
       <use xlink:href="#DejaVuSerif-32"/>
       <use xlink:href="#DejaVuSerif-35" x="63.623047"/>
       <use xlink:href="#DejaVuSerif-30" x="127.246094"/>
      </g>
     </g>
    </g>
    <g id="ytick_12">
     <g id="line2d_54">
      <path d="M 444.765048 99.623517 
L 788.990409 99.623517 
" clip-path="url(#p10388b6541)" style="fill: none; stroke: #e0e0e0; stroke-opacity: 0.7; stroke-width: 0.6; stroke-linecap: square"/>
     </g>
     <g id="line2d_55">
      <g>
       <use xlink:href="#m75bb87452a" x="444.765048" y="99.623517" style="stroke: #000000"/>
      </g>
     </g>
     <g id="text_30">
      <!-- 300 -->
      <g transform="translate(418.677548 103.422735) scale(0.1 -0.1)">
       <use xlink:href="#DejaVuSerif-33"/>
       <use xlink:href="#DejaVuSerif-30" x="63.623047"/>
       <use xlink:href="#DejaVuSerif-30" x="127.246094"/>
      </g>
     </g>
    </g>
    <g id="ytick_13">
     <g id="line2d_56">
      <path d="M 444.765048 67.873619 
L 788.990409 67.873619 
" clip-path="url(#p10388b6541)" style="fill: none; stroke: #e0e0e0; stroke-opacity: 0.7; stroke-width: 0.6; stroke-linecap: square"/>
     </g>
     <g id="line2d_57">
      <g>
       <use xlink:href="#m75bb87452a" x="444.765048" y="67.873619" style="stroke: #000000"/>
      </g>
     </g>
     <g id="text_31">
      <!-- 350 -->
      <g transform="translate(418.677548 71.672838) scale(0.1 -0.1)">
       <use xlink:href="#DejaVuSerif-33"/>
       <use xlink:href="#DejaVuSerif-35" x="63.623047"/>
       <use xlink:href="#DejaVuSerif-30" x="127.246094"/>
      </g>
     </g>
    </g>
    <g id="ytick_14">
     <g id="line2d_58">
      <path d="M 444.765048 36.123722 
L 788.990409 36.123722 
" clip-path="url(#p10388b6541)" style="fill: none; stroke: #e0e0e0; stroke-opacity: 0.7; stroke-width: 0.6; stroke-linecap: square"/>
     </g>
     <g id="line2d_59">
      <g>
       <use xlink:href="#m75bb87452a" x="444.765048" y="36.123722" style="stroke: #000000"/>
      </g>
     </g>
     <g id="text_32">
      <!-- 400 -->
      <g transform="translate(418.677548 39.922941) scale(0.1 -0.1)">
       <defs>
        <path id="DejaVuSerif-34" d="M 2234 1581 
L 2234 4063 
L 641 1581 
L 2234 1581 
z
M 3609 0 
L 1484 0 
L 1484 331 
L 2234 331 
L 2234 1247 
L 197 1247 
L 197 1588 
L 2241 4750 
L 2859 4750 
L 2859 1581 
L 3750 1581 
L 3750 1247 
L 2859 1247 
L 2859 331 
L 3609 331 
L 3609 0 
z
" transform="scale(0.015625)"/>
       </defs>
       <use xlink:href="#DejaVuSerif-34"/>
       <use xlink:href="#DejaVuSerif-30" x="63.623047"/>
       <use xlink:href="#DejaVuSerif-30" x="127.246094"/>
      </g>
     </g>
    </g>
    <g id="text_33">
     <!-- Mean Eval Reward -->
     <g transform="translate(412.181923 225.180859) rotate(-90) scale(0.12 -0.12)">
      <use xlink:href="#DejaVuSerif-4d"/>
      <use xlink:href="#DejaVuSerif-65" x="102.392578"/>
      <use xlink:href="#DejaVuSerif-61" x="161.572266"/>
      <use xlink:href="#DejaVuSerif-6e" x="221.191406"/>
      <use xlink:href="#DejaVuSerif-20" x="285.595703"/>
      <use xlink:href="#DejaVuSerif-45" x="317.382812"/>
      <use xlink:href="#DejaVuSerif-76" x="390.380859"/>
      <use xlink:href="#DejaVuSerif-61" x="446.875"/>
      <use xlink:href="#DejaVuSerif-6c" x="506.494141"/>
      <use xlink:href="#DejaVuSerif-20" x="538.476562"/>
      <use xlink:href="#DejaVuSerif-52" x="570.263672"/>
      <use xlink:href="#DejaVuSerif-65" x="645.556641"/>
      <use xlink:href="#DejaVuSerif-77" x="704.736328"/>
      <use xlink:href="#DejaVuSerif-61" x="790.332031"/>
      <use xlink:href="#DejaVuSerif-72" x="849.951172"/>
      <use xlink:href="#DejaVuSerif-64" x="897.753906"/>
     </g>
    </g>
   </g>
   <g id="line2d_60">
    <path d="M 460.411656 287.836907 
L 465.71559 288.027407 
L 471.019525 288.725904 
L 476.32346 288.979903 
L 481.627394 290.1229 
L 486.931329 289.551402 
L 492.235264 282.883923 
L 497.539198 280.216932 
L 502.843133 278.756437 
L 508.147068 276.724443 
L 513.451002 278.184938 
L 518.754937 271.961959 
L 524.058872 264.913481 
L 529.362807 264.849982 
L 534.666741 261.230493 
L 539.970676 246.435041 
L 545.274611 253.420019 
L 550.578545 249.86403 
L 555.88248 237.926069 
L 561.186415 240.212061 
L 566.490349 215.510641 
L 571.794284 217.669634 
L 577.098219 226.242107 
L 582.402153 218.87613 
L 587.706088 240.974059 
L 593.010023 192.714215 
L 598.313957 184.522742 
L 603.617892 189.285226 
L 608.921827 165.409304 
L 614.225761 177.601264 
L 619.529696 126.102931 
L 624.833631 130.928915 
L 630.137565 211.192655 
L 635.4415 151.566348 
L 640.745435 122.737442 
L 646.049369 128.515923 
L 651.353304 228.718599 
L 656.657239 176.331268 
L 661.961174 131.563913 
L 667.265108 119.625952 
L 672.569043 113.529972 
L 677.872978 102.925506 
L 683.176912 88.257053 
L 688.480847 76.128593 
L 693.784782 101.59201 
L 699.088716 92.25754 
L 704.392651 192.079217 
L 709.696586 98.798019 
L 715.00052 126.547429 
L 720.304455 44.823194 
L 725.60839 97.909022 
L 730.912324 85.463062 
L 736.216259 111.243979 
L 741.520194 108.830987 
L 746.824128 106.544994 
L 752.128063 72.636104 
L 757.431998 73.144102 
L 762.735932 86.796558 
L 768.039867 68.127619 
L 773.343802 49.14118 
" clip-path="url(#p10388b6541)" style="fill: none; stroke: #ffd8b1; stroke-opacity: 0.3; stroke-width: 0.8; stroke-linecap: square"/>
   </g>
   <g id="line2d_61">
    <path d="M 460.411656 288.052806 
L 465.71559 288.281406 
L 471.019525 288.738604 
L 476.32346 289.081503 
L 481.627394 288.052806 
L 486.931329 286.351012 
L 492.235264 284.306319 
L 497.539198 281.626627 
L 502.843133 279.353335 
L 508.147068 277.168942 
L 513.451002 274.108252 
L 518.754937 271.326961 
L 524.058872 268.228171 
L 529.362807 261.878191 
L 534.666741 258.169803 
L 539.970676 255.159913 
L 545.274611 249.77513 
L 550.578545 245.571444 
L 555.88248 239.386564 
L 561.186415 232.236487 
L 566.490349 227.512102 
L 571.794284 223.702115 
L 577.098219 223.854514 
L 582.402153 219.295229 
L 587.706088 212.665851 
L 593.010023 205.274474 
L 598.313957 194.581109 
L 603.617892 181.90655 
L 608.921827 168.584293 
L 614.225761 157.865528 
L 619.529696 162.247014 
L 624.833631 159.478423 
L 630.137565 148.505658 
L 635.4415 148.988257 
L 640.745435 168.546193 
L 646.049369 161.573916 
L 651.353304 157.573429 
L 656.657239 156.951131 
L 661.961174 153.953941 
L 667.265108 128.795322 
L 672.569043 111.180479 
L 677.872978 100.093415 
L 683.176912 96.486627 
L 688.480847 92.232141 
L 693.784782 110.062883 
L 699.088716 112.171076 
L 704.392651 122.254843 
L 709.696586 110.90108 
L 715.00052 112.031376 
L 720.304455 90.708145 
L 725.60839 93.197337 
L 730.912324 89.654049 
L 736.216259 101.998409 
L 741.520194 96.943825 
L 746.824128 94.480033 
L 752.128063 89.590549 
L 757.431998 81.449875 
L 762.735932 69.969113 
L 768.039867 65.270128 
L 773.343802 60.469543 
" clip-path="url(#p10388b6541)" style="fill: none; stroke: #ffd8b1; stroke-width: 2; stroke-linecap: square"/>
    <defs>
     <path id="m92086779ed" d="M -2 2 
L 2 2 
L 2 -2 
L -2 -2 
z
" style="stroke: #1a1a1a; stroke-width: 0.8; stroke-linejoin: miter"/>
    </defs>
    <g clip-path="url(#p10388b6541)">
     <use xlink:href="#m92086779ed" x="460.411656" y="288.052806" style="fill: #ffd8b1; stroke: #1a1a1a; stroke-width: 0.8; stroke-linejoin: miter"/>
     <use xlink:href="#m92086779ed" x="486.931329" y="286.351012" style="fill: #ffd8b1; stroke: #1a1a1a; stroke-width: 0.8; stroke-linejoin: miter"/>
     <use xlink:href="#m92086779ed" x="513.451002" y="274.108252" style="fill: #ffd8b1; stroke: #1a1a1a; stroke-width: 0.8; stroke-linejoin: miter"/>
     <use xlink:href="#m92086779ed" x="539.970676" y="255.159913" style="fill: #ffd8b1; stroke: #1a1a1a; stroke-width: 0.8; stroke-linejoin: miter"/>
     <use xlink:href="#m92086779ed" x="566.490349" y="227.512102" style="fill: #ffd8b1; stroke: #1a1a1a; stroke-width: 0.8; stroke-linejoin: miter"/>
     <use xlink:href="#m92086779ed" x="593.010023" y="205.274474" style="fill: #ffd8b1; stroke: #1a1a1a; stroke-width: 0.8; stroke-linejoin: miter"/>
     <use xlink:href="#m92086779ed" x="619.529696" y="162.247014" style="fill: #ffd8b1; stroke: #1a1a1a; stroke-width: 0.8; stroke-linejoin: miter"/>
     <use xlink:href="#m92086779ed" x="646.049369" y="161.573916" style="fill: #ffd8b1; stroke: #1a1a1a; stroke-width: 0.8; stroke-linejoin: miter"/>
     <use xlink:href="#m92086779ed" x="672.569043" y="111.180479" style="fill: #ffd8b1; stroke: #1a1a1a; stroke-width: 0.8; stroke-linejoin: miter"/>
     <use xlink:href="#m92086779ed" x="699.088716" y="112.171076" style="fill: #ffd8b1; stroke: #1a1a1a; stroke-width: 0.8; stroke-linejoin: miter"/>
     <use xlink:href="#m92086779ed" x="725.60839" y="93.197337" style="fill: #ffd8b1; stroke: #1a1a1a; stroke-width: 0.8; stroke-linejoin: miter"/>
     <use xlink:href="#m92086779ed" x="752.128063" y="89.590549" style="fill: #ffd8b1; stroke: #1a1a1a; stroke-width: 0.8; stroke-linejoin: miter"/>
    </g>
   </g>
   <g id="patch_8">
    <path d="M 444.765048 302.387885 
L 444.765048 32.558209 
" style="fill: none; stroke: #1a1a1a; stroke-width: 1.2; stroke-linejoin: miter; stroke-linecap: square"/>
   </g>
   <g id="patch_9">
    <path d="M 788.990409 302.387885 
L 788.990409 32.558209 
" style="fill: none; stroke: #1a1a1a; stroke-width: 1.2; stroke-linejoin: miter; stroke-linecap: square"/>
   </g>
   <g id="patch_10">
    <path d="M 444.765048 302.387885 
L 788.990409 302.387885 
" style="fill: none; stroke: #1a1a1a; stroke-width: 1.2; stroke-linejoin: miter; stroke-linecap: square"/>
   </g>
   <g id="patch_11">
    <path d="M 444.765048 32.558209 
L 788.990409 32.558209 
" style="fill: none; stroke: #1a1a1a; stroke-width: 1.2; stroke-linejoin: miter; stroke-linecap: square"/>
   </g>
   <g id="text_34">
    <!-- Breakout (Best: 386.3) -->
    <g transform="translate(542.04851 26.558209) scale(0.13 -0.13)">
     <defs>
      <path id="DejaVuSerif-75" d="M 2266 3322 
L 3341 3322 
L 3341 331 
L 3884 331 
L 3884 0 
L 2766 0 
L 2766 588 
Q 2606 256 2353 82 
Q 2100 -91 1766 -91 
Q 1213 -91 952 223 
Q 691 538 691 1209 
L 691 2988 
L 172 2988 
L 172 3322 
L 1269 3322 
L 1269 1388 
Q 1269 781 1417 556 
Q 1566 331 1947 331 
Q 2347 331 2556 625 
Q 2766 919 2766 1478 
L 2766 2988 
L 2266 2988 
L 2266 3322 
z
" transform="scale(0.015625)"/>
      <path id="DejaVuSerif-38" d="M 2981 1275 
Q 2981 1775 2732 2051 
Q 2484 2328 2034 2328 
Q 1584 2328 1336 2051 
Q 1088 1775 1088 1275 
Q 1088 772 1336 495 
Q 1584 219 2034 219 
Q 2484 219 2732 495 
Q 2981 772 2981 1275 
z
M 2853 3541 
Q 2853 3966 2637 4203 
Q 2422 4441 2034 4441 
Q 1650 4441 1433 4203 
Q 1216 3966 1216 3541 
Q 1216 3113 1433 2875 
Q 1650 2638 2034 2638 
Q 2422 2638 2637 2875 
Q 2853 3113 2853 3541 
z
M 2516 2484 
Q 3047 2413 3344 2092 
Q 3641 1772 3641 1275 
Q 3641 619 3225 264 
Q 2809 -91 2034 -91 
Q 1263 -91 845 264 
Q 428 619 428 1275 
Q 428 1772 725 2092 
Q 1022 2413 1556 2484 
Q 1084 2569 832 2842 
Q 581 3116 581 3541 
Q 581 4103 968 4426 
Q 1356 4750 2034 4750 
Q 2713 4750 3100 4426 
Q 3488 4103 3488 3541 
Q 3488 3116 3236 2842 
Q 2984 2569 2516 2484 
z
" transform="scale(0.015625)"/>
      <path id="DejaVuSerif-36" d="M 2094 219 
Q 2534 219 2771 542 
Q 3009 866 3009 1472 
Q 3009 2078 2771 2401 
Q 2534 2725 2094 2725 
Q 1647 2725 1412 2412 
Q 1178 2100 1178 1509 
Q 1178 888 1415 553 
Q 1653 219 2094 219 
z
M 1075 2569 
Q 1288 2803 1556 2918 
Q 1825 3034 2163 3034 
Q 2859 3034 3264 2615 
Q 3669 2197 3669 1472 
Q 3669 763 3233 336 
Q 2797 -91 2069 -91 
Q 1278 -91 853 498 
Q 428 1088 428 2181 
Q 428 3406 931 4078 
Q 1434 4750 2350 4750 
Q 2597 4750 2869 4703 
Q 3141 4656 3425 4563 
L 3425 3794 
L 3072 3794 
Q 3034 4109 2831 4275 
Q 2628 4441 2284 4441 
Q 1678 4441 1381 3981 
Q 1084 3522 1075 2569 
z
" transform="scale(0.015625)"/>
     </defs>
     <use xlink:href="#DejaVuSerif-42"/>
     <use xlink:href="#DejaVuSerif-72" x="73.486328"/>
     <use xlink:href="#DejaVuSerif-65" x="121.289062"/>
     <use xlink:href="#DejaVuSerif-61" x="180.46875"/>
     <use xlink:href="#DejaVuSerif-6b" x="240.087891"/>
     <use xlink:href="#DejaVuSerif-6f" x="300.683594"/>
     <use xlink:href="#DejaVuSerif-75" x="360.888672"/>
     <use xlink:href="#DejaVuSerif-74" x="425.292969"/>
     <use xlink:href="#DejaVuSerif-20" x="465.478516"/>
     <use xlink:href="#DejaVuSerif-28" x="497.265625"/>
     <use xlink:href="#DejaVuSerif-42" x="536.279297"/>
     <use xlink:href="#DejaVuSerif-65" x="609.765625"/>
     <use xlink:href="#DejaVuSerif-73" x="668.945312"/>
     <use xlink:href="#DejaVuSerif-74" x="720.263672"/>
     <use xlink:href="#DejaVuSerif-3a" x="760.449219"/>
     <use xlink:href="#DejaVuSerif-20" x="794.140625"/>
     <use xlink:href="#DejaVuSerif-33" x="825.927734"/>
     <use xlink:href="#DejaVuSerif-38" x="889.550781"/>
     <use xlink:href="#DejaVuSerif-36" x="953.173828"/>
     <use xlink:href="#DejaVuSerif-2e" x="1016.796875"/>
     <use xlink:href="#DejaVuSerif-33" x="1048.583984"/>
     <use xlink:href="#DejaVuSerif-29" x="1112.207031"/>
    </g>
   </g>
   <g id="line2d_62">
    <path d="M 720.304455 44.823194 
" clip-path="url(#p10388b6541)" style="fill: none; stroke: #ff4444; stroke-width: 1.5; stroke-linecap: square"/>
    <g clip-path="url(#p10388b6541)">
     <use xlink:href="#m2fada526d8" x="720.304455" y="44.823194" style="fill: #ff4444; stroke: #1a1a1a; stroke-linejoin: bevel"/>
    </g>
   </g>
  </g>
  <g id="axes_3">
   <g id="patch_12">
    <path d="M 844.974159 302.387885 
L 1189.19952 302.387885 
L 1189.19952 32.558209 
L 844.974159 32.558209 
z
" style="fill: #fafafa"/>
   </g>
   <g id="matplotlib.axis_5">
    <g id="xtick_15">
     <g id="line2d_63">
      <path d="M 855.316832 302.387885 
L 855.316832 32.558209 
" clip-path="url(#p487f11413d)" style="fill: none; stroke: #e0e0e0; stroke-opacity: 0.7; stroke-width: 0.6; stroke-linecap: square"/>
     </g>
     <g id="line2d_64">
      <g>
       <use xlink:href="#m7fe0638268" x="855.316832" y="302.387885" style="stroke: #000000"/>
      </g>
     </g>
     <g id="text_35">
      <!-- 0k -->
      <g transform="translate(849.105894 316.986322) scale(0.1 -0.1)">
       <use xlink:href="#DejaVuSerif-30"/>
       <use xlink:href="#DejaVuSerif-6b" x="63.623047"/>
      </g>
     </g>
    </g>
    <g id="xtick_16">
     <g id="line2d_65">
      <path d="M 908.356179 302.387885 
L 908.356179 32.558209 
" clip-path="url(#p487f11413d)" style="fill: none; stroke: #e0e0e0; stroke-opacity: 0.7; stroke-width: 0.6; stroke-linecap: square"/>
     </g>
     <g id="line2d_66">
      <g>
       <use xlink:href="#m7fe0638268" x="908.356179" y="302.387885" style="stroke: #000000"/>
      </g>
     </g>
     <g id="text_36">
      <!-- 500k -->
      <g transform="translate(895.782741 316.986322) scale(0.1 -0.1)">
       <use xlink:href="#DejaVuSerif-35"/>
       <use xlink:href="#DejaVuSerif-30" x="63.623047"/>
       <use xlink:href="#DejaVuSerif-30" x="127.246094"/>
       <use xlink:href="#DejaVuSerif-6b" x="190.869141"/>
      </g>
     </g>
    </g>
    <g id="xtick_17">
     <g id="line2d_67">
      <path d="M 961.395525 302.387885 
L 961.395525 32.558209 
" clip-path="url(#p487f11413d)" style="fill: none; stroke: #e0e0e0; stroke-opacity: 0.7; stroke-width: 0.6; stroke-linecap: square"/>
     </g>
     <g id="line2d_68">
      <g>
       <use xlink:href="#m7fe0638268" x="961.395525" y="302.387885" style="stroke: #000000"/>
      </g>
     </g>
     <g id="text_37">
      <!-- 1.0M -->
      <g transform="translate(948.324432 316.986322) scale(0.1 -0.1)">
       <use xlink:href="#DejaVuSerif-31"/>
       <use xlink:href="#DejaVuSerif-2e" x="63.623047"/>
       <use xlink:href="#DejaVuSerif-30" x="95.410156"/>
       <use xlink:href="#DejaVuSerif-4d" x="159.033203"/>
      </g>
     </g>
    </g>
    <g id="xtick_18">
     <g id="line2d_69">
      <path d="M 1014.434872 302.387885 
L 1014.434872 32.558209 
" clip-path="url(#p487f11413d)" style="fill: none; stroke: #e0e0e0; stroke-opacity: 0.7; stroke-width: 0.6; stroke-linecap: square"/>
     </g>
     <g id="line2d_70">
      <g>
       <use xlink:href="#m7fe0638268" x="1014.434872" y="302.387885" style="stroke: #000000"/>
      </g>
     </g>
     <g id="text_38">
      <!-- 1.5M -->
      <g transform="translate(1001.363778 316.986322) scale(0.1 -0.1)">
       <use xlink:href="#DejaVuSerif-31"/>
       <use xlink:href="#DejaVuSerif-2e" x="63.623047"/>
       <use xlink:href="#DejaVuSerif-35" x="95.410156"/>
       <use xlink:href="#DejaVuSerif-4d" x="159.033203"/>
      </g>
     </g>
    </g>
    <g id="xtick_19">
     <g id="line2d_71">
      <path d="M 1067.474219 302.387885 
L 1067.474219 32.558209 
" clip-path="url(#p487f11413d)" style="fill: none; stroke: #e0e0e0; stroke-opacity: 0.7; stroke-width: 0.6; stroke-linecap: square"/>
     </g>
     <g id="line2d_72">
      <g>
       <use xlink:href="#m7fe0638268" x="1067.474219" y="302.387885" style="stroke: #000000"/>
      </g>
     </g>
     <g id="text_39">
      <!-- 2.0M -->
      <g transform="translate(1054.403125 316.986322) scale(0.1 -0.1)">
       <use xlink:href="#DejaVuSerif-32"/>
       <use xlink:href="#DejaVuSerif-2e" x="63.623047"/>
       <use xlink:href="#DejaVuSerif-30" x="95.410156"/>
       <use xlink:href="#DejaVuSerif-4d" x="159.033203"/>
      </g>
     </g>
    </g>
    <g id="xtick_20">
     <g id="line2d_73">
      <path d="M 1120.513566 302.387885 
L 1120.513566 32.558209 
" clip-path="url(#p487f11413d)" style="fill: none; stroke: #e0e0e0; stroke-opacity: 0.7; stroke-width: 0.6; stroke-linecap: square"/>
     </g>
     <g id="line2d_74">
      <g>
       <use xlink:href="#m7fe0638268" x="1120.513566" y="302.387885" style="stroke: #000000"/>
      </g>
     </g>
     <g id="text_40">
      <!-- 2.5M -->
      <g transform="translate(1107.442472 316.986322) scale(0.1 -0.1)">
       <use xlink:href="#DejaVuSerif-32"/>
       <use xlink:href="#DejaVuSerif-2e" x="63.623047"/>
       <use xlink:href="#DejaVuSerif-35" x="95.410156"/>
       <use xlink:href="#DejaVuSerif-4d" x="159.033203"/>
      </g>
     </g>
    </g>
    <g id="xtick_21">
     <g id="line2d_75">
      <path d="M 1173.552913 302.387885 
L 1173.552913 32.558209 
" clip-path="url(#p487f11413d)" style="fill: none; stroke: #e0e0e0; stroke-opacity: 0.7; stroke-width: 0.6; stroke-linecap: square"/>
     </g>
     <g id="line2d_76">
      <g>
       <use xlink:href="#m7fe0638268" x="1173.552913" y="302.387885" style="stroke: #000000"/>
      </g>
     </g>
     <g id="text_41">
      <!-- 3.0M -->
      <g transform="translate(1160.481819 316.986322) scale(0.1 -0.1)">
       <use xlink:href="#DejaVuSerif-33"/>
       <use xlink:href="#DejaVuSerif-2e" x="63.623047"/>
       <use xlink:href="#DejaVuSerif-30" x="95.410156"/>
       <use xlink:href="#DejaVuSerif-4d" x="159.033203"/>
      </g>
     </g>
    </g>
    <g id="text_42">
     <!-- Environment Steps -->
     <g transform="translate(958.773402 332.184135) scale(0.12 -0.12)">
      <use xlink:href="#DejaVuSerif-45"/>
      <use xlink:href="#DejaVuSerif-6e" x="72.998047"/>
      <use xlink:href="#DejaVuSerif-76" x="137.402344"/>
      <use xlink:href="#DejaVuSerif-69" x="193.896484"/>
      <use xlink:href="#DejaVuSerif-72" x="225.878906"/>
      <use xlink:href="#DejaVuSerif-6f" x="273.681641"/>
      <use xlink:href="#DejaVuSerif-6e" x="333.886719"/>
      <use xlink:href="#DejaVuSerif-6d" x="398.291016"/>
      <use xlink:href="#DejaVuSerif-65" x="493.115234"/>
      <use xlink:href="#DejaVuSerif-6e" x="552.294922"/>
      <use xlink:href="#DejaVuSerif-74" x="616.699219"/>
      <use xlink:href="#DejaVuSerif-20" x="656.884766"/>
      <use xlink:href="#DejaVuSerif-53" x="688.671875"/>
      <use xlink:href="#DejaVuSerif-74" x="757.177734"/>
      <use xlink:href="#DejaVuSerif-65" x="797.363281"/>
      <use xlink:href="#DejaVuSerif-70" x="856.542969"/>
      <use xlink:href="#DejaVuSerif-73" x="920.556641"/>
     </g>
    </g>
   </g>
   <g id="matplotlib.axis_6">
    <g id="ytick_15">
     <g id="line2d_77">
      <path d="M 844.974159 290.1229 
L 1189.19952 290.1229 
" clip-path="url(#p487f11413d)" style="fill: none; stroke: #e0e0e0; stroke-opacity: 0.7; stroke-width: 0.6; stroke-linecap: square"/>
     </g>
     <g id="line2d_78">
      <g>
       <use xlink:href="#m75bb87452a" x="844.974159" y="290.1229" style="stroke: #000000"/>
      </g>
     </g>
     <g id="text_43">
      <!-- 0 -->
      <g transform="translate(831.611659 293.922118) scale(0.1 -0.1)">
       <use xlink:href="#DejaVuSerif-30"/>
      </g>
     </g>
    </g>
    <g id="ytick_16">
     <g id="line2d_79">
      <path d="M 844.974159 247.9208 
L 1189.19952 247.9208 
" clip-path="url(#p487f11413d)" style="fill: none; stroke: #e0e0e0; stroke-opacity: 0.7; stroke-width: 0.6; stroke-linecap: square"/>
     </g>
     <g id="line2d_80">
      <g>
       <use xlink:href="#m75bb87452a" x="844.974159" y="247.9208" style="stroke: #000000"/>
      </g>
     </g>
     <g id="text_44">
      <!-- 200 -->
      <g transform="translate(818.886659 251.720019) scale(0.1 -0.1)">
       <use xlink:href="#DejaVuSerif-32"/>
       <use xlink:href="#DejaVuSerif-30" x="63.623047"/>
       <use xlink:href="#DejaVuSerif-30" x="127.246094"/>
      </g>
     </g>
    </g>
    <g id="ytick_17">
     <g id="line2d_81">
      <path d="M 844.974159 205.7187 
L 1189.19952 205.7187 
" clip-path="url(#p487f11413d)" style="fill: none; stroke: #e0e0e0; stroke-opacity: 0.7; stroke-width: 0.6; stroke-linecap: square"/>
     </g>
     <g id="line2d_82">
      <g>
       <use xlink:href="#m75bb87452a" x="844.974159" y="205.7187" style="stroke: #000000"/>
      </g>
     </g>
     <g id="text_45">
      <!-- 400 -->
      <g transform="translate(818.886659 209.517919) scale(0.1 -0.1)">
       <use xlink:href="#DejaVuSerif-34"/>
       <use xlink:href="#DejaVuSerif-30" x="63.623047"/>
       <use xlink:href="#DejaVuSerif-30" x="127.246094"/>
      </g>
     </g>
    </g>
    <g id="ytick_18">
     <g id="line2d_83">
      <path d="M 844.974159 163.5166 
L 1189.19952 163.5166 
" clip-path="url(#p487f11413d)" style="fill: none; stroke: #e0e0e0; stroke-opacity: 0.7; stroke-width: 0.6; stroke-linecap: square"/>
     </g>
     <g id="line2d_84">
      <g>
       <use xlink:href="#m75bb87452a" x="844.974159" y="163.5166" style="stroke: #000000"/>
      </g>
     </g>
     <g id="text_46">
      <!-- 600 -->
      <g transform="translate(818.886659 167.315819) scale(0.1 -0.1)">
       <use xlink:href="#DejaVuSerif-36"/>
       <use xlink:href="#DejaVuSerif-30" x="63.623047"/>
       <use xlink:href="#DejaVuSerif-30" x="127.246094"/>
      </g>
     </g>
    </g>
    <g id="ytick_19">
     <g id="line2d_85">
      <path d="M 844.974159 121.3145 
L 1189.19952 121.3145 
" clip-path="url(#p487f11413d)" style="fill: none; stroke: #e0e0e0; stroke-opacity: 0.7; stroke-width: 0.6; stroke-linecap: square"/>
     </g>
     <g id="line2d_86">
      <g>
       <use xlink:href="#m75bb87452a" x="844.974159" y="121.3145" style="stroke: #000000"/>
      </g>
     </g>
     <g id="text_47">
      <!-- 800 -->
      <g transform="translate(818.886659 125.113719) scale(0.1 -0.1)">
       <use xlink:href="#DejaVuSerif-38"/>
       <use xlink:href="#DejaVuSerif-30" x="63.623047"/>
       <use xlink:href="#DejaVuSerif-30" x="127.246094"/>
      </g>
     </g>
    </g>
    <g id="ytick_20">
     <g id="line2d_87">
      <path d="M 844.974159 79.1124 
L 1189.19952 79.1124 
" clip-path="url(#p487f11413d)" style="fill: none; stroke: #e0e0e0; stroke-opacity: 0.7; stroke-width: 0.6; stroke-linecap: square"/>
     </g>
     <g id="line2d_88">
      <g>
       <use xlink:href="#m75bb87452a" x="844.974159" y="79.1124" style="stroke: #000000"/>
      </g>
     </g>
     <g id="text_48">
      <!-- 1000 -->
      <g transform="translate(812.524159 82.911619) scale(0.1 -0.1)">
       <use xlink:href="#DejaVuSerif-31"/>
       <use xlink:href="#DejaVuSerif-30" x="63.623047"/>
       <use xlink:href="#DejaVuSerif-30" x="127.246094"/>
       <use xlink:href="#DejaVuSerif-30" x="190.869141"/>
      </g>
     </g>
    </g>
    <g id="ytick_21">
     <g id="line2d_89">
      <path d="M 844.974159 36.9103 
L 1189.19952 36.9103 
" clip-path="url(#p487f11413d)" style="fill: none; stroke: #e0e0e0; stroke-opacity: 0.7; stroke-width: 0.6; stroke-linecap: square"/>
     </g>
     <g id="line2d_90">
      <g>
       <use xlink:href="#m75bb87452a" x="844.974159" y="36.9103" style="stroke: #000000"/>
      </g>
     </g>
     <g id="text_49">
      <!-- 1200 -->
      <g transform="translate(812.524159 40.709519) scale(0.1 -0.1)">
       <use xlink:href="#DejaVuSerif-31"/>
       <use xlink:href="#DejaVuSerif-32" x="63.623047"/>
       <use xlink:href="#DejaVuSerif-30" x="127.246094"/>
       <use xlink:href="#DejaVuSerif-30" x="190.869141"/>
      </g>
     </g>
    </g>
    <g id="text_50">
     <!-- Mean Eval Reward -->
     <g transform="translate(806.028534 225.180859) rotate(-90) scale(0.12 -0.12)">
      <use xlink:href="#DejaVuSerif-4d"/>
      <use xlink:href="#DejaVuSerif-65" x="102.392578"/>
      <use xlink:href="#DejaVuSerif-61" x="161.572266"/>
      <use xlink:href="#DejaVuSerif-6e" x="221.191406"/>
      <use xlink:href="#DejaVuSerif-20" x="285.595703"/>
      <use xlink:href="#DejaVuSerif-45" x="317.382812"/>
      <use xlink:href="#DejaVuSerif-76" x="390.380859"/>
      <use xlink:href="#DejaVuSerif-61" x="446.875"/>
      <use xlink:href="#DejaVuSerif-6c" x="506.494141"/>
      <use xlink:href="#DejaVuSerif-20" x="538.476562"/>
      <use xlink:href="#DejaVuSerif-52" x="570.263672"/>
      <use xlink:href="#DejaVuSerif-65" x="645.556641"/>
      <use xlink:href="#DejaVuSerif-77" x="704.736328"/>
      <use xlink:href="#DejaVuSerif-61" x="790.332031"/>
      <use xlink:href="#DejaVuSerif-72" x="849.951172"/>
      <use xlink:href="#DejaVuSerif-64" x="897.753906"/>
     </g>
    </g>
   </g>
   <g id="line2d_91">
    <path d="M 860.620766 290.1229 
L 865.924701 254.251115 
L 871.228636 264.80164 
L 876.532571 269.02185 
L 881.836505 263.746587 
L 887.14044 220.700445 
L 892.444375 202.131521 
L 897.748309 158.874369 
L 903.052244 254.462125 
L 908.356179 193.902112 
L 913.660113 233.572086 
L 918.964048 229.562886 
L 924.267983 201.287479 
L 929.571917 186.938765 
L 934.875852 149.800918 
L 940.179787 174.067125 
L 945.483721 170.479946 
L 950.787656 150.222939 
L 956.091591 205.296679 
L 961.395525 90.506967 
L 966.69946 146.108234 
L 972.003395 91.56202 
L 977.307329 160.351443 
L 982.611264 142.626561 
L 987.915199 160.140432 
L 993.219134 96.942787 
L 998.523068 165.943221 
L 1003.827003 141.571508 
L 1009.130938 173.328588 
L 1014.434872 170.796462 
L 1019.738807 181.769008 
L 1025.042742 135.030183 
L 1030.346676 160.878969 
L 1035.650611 159.823916 
L 1040.954546 104.644671 
L 1046.25848 158.768864 
L 1051.562415 158.030327 
L 1056.86635 148.85137 
L 1062.170284 173.856114 
L 1067.474219 120.048437 
L 1072.778154 126.800773 
L 1078.082088 132.181541 
L 1083.386023 149.906423 
L 1088.689958 169.213883 
L 1093.993892 164.993674 
L 1099.297827 124.901679 
L 1104.601762 83.754631 
L 1109.905697 171.007473 
L 1115.209631 44.823194 
L 1120.513566 150.85597 
L 1125.817501 107.387807 
L 1131.121435 67.612328 
L 1136.42537 169.74141 
L 1141.729305 117.410806 
L 1147.033239 121.736521 
L 1152.337174 172.062525 
L 1157.641109 54.213161 
L 1162.945043 170.268936 
L 1168.248978 59.066403 
L 1173.552913 140.727466 
" clip-path="url(#p487f11413d)" style="fill: none; stroke: #b5ead7; stroke-opacity: 0.3; stroke-width: 0.8; stroke-linecap: square"/>
   </g>
   <g id="line2d_92">
    <path d="M 860.620766 277.884291 
L 865.924701 273.664081 
L 871.228636 268.388818 
L 876.532571 254.504327 
L 881.836505 244.080409 
L 887.14044 222.894955 
L 892.444375 219.98301 
L 897.748309 206.014115 
L 903.052244 208.588443 
L 908.356179 214.074716 
L 913.660113 222.557338 
L 918.964048 209.052666 
L 924.267983 200.232427 
L 929.571917 188.331435 
L 934.875852 176.514847 
L 940.179787 166.301939 
L 945.483721 169.973521 
L 950.787656 158.114731 
L 956.091591 152.522953 
L 961.395525 136.739368 
L 966.69946 138.765068 
L 972.003395 126.231045 
L 977.307329 140.157738 
L 982.611264 130.324648 
L 987.915199 145.200889 
L 993.219134 141.444902 
L 998.523068 147.585307 
L 1003.827003 149.716513 
L 1009.130938 166.681758 
L 1014.434872 160.49915 
L 1019.738807 164.360642 
L 1025.042742 161.659708 
L 1030.346676 148.429349 
L 1035.650611 143.82932 
L 1040.954546 148.429349 
L 1046.25848 146.02383 
L 1051.562415 148.830269 
L 1056.86635 151.911023 
L 1062.170284 145.517404 
L 1067.474219 140.347647 
L 1072.778154 140.558658 
L 1078.082088 139.630211 
L 1083.386023 148.619259 
L 1088.689958 148.23944 
L 1093.993892 138.554058 
L 1099.297827 142.774268 
L 1104.601762 117.89613 
L 1109.905697 115.068589 
L 1115.209631 111.565815 
L 1120.513566 108.337354 
L 1125.817501 108.084142 
L 1131.121435 122.601664 
L 1136.42537 116.777774 
L 1141.729305 129.712718 
L 1147.033239 127.032885 
L 1152.337174 127.13839 
L 1157.641109 115.469509 
L 1162.945043 119.267698 
L 1168.248978 113.000686 
L 1173.552913 130.303547 
" clip-path="url(#p487f11413d)" style="fill: none; stroke: #b5ead7; stroke-width: 2; stroke-linecap: square"/>
    <defs>
     <path id="m639ff95661" d="M 0 -2 
L -2 2 
L 2 2 
z
" style="stroke: #1a1a1a; stroke-width: 0.8; stroke-linejoin: miter"/>
    </defs>
    <g clip-path="url(#p487f11413d)">
     <use xlink:href="#m639ff95661" x="860.620766" y="277.884291" style="fill: #b5ead7; stroke: #1a1a1a; stroke-width: 0.8; stroke-linejoin: miter"/>
     <use xlink:href="#m639ff95661" x="887.14044" y="222.894955" style="fill: #b5ead7; stroke: #1a1a1a; stroke-width: 0.8; stroke-linejoin: miter"/>
     <use xlink:href="#m639ff95661" x="913.660113" y="222.557338" style="fill: #b5ead7; stroke: #1a1a1a; stroke-width: 0.8; stroke-linejoin: miter"/>
     <use xlink:href="#m639ff95661" x="940.179787" y="166.301939" style="fill: #b5ead7; stroke: #1a1a1a; stroke-width: 0.8; stroke-linejoin: miter"/>
     <use xlink:href="#m639ff95661" x="966.69946" y="138.765068" style="fill: #b5ead7; stroke: #1a1a1a; stroke-width: 0.8; stroke-linejoin: miter"/>
     <use xlink:href="#m639ff95661" x="993.219134" y="141.444902" style="fill: #b5ead7; stroke: #1a1a1a; stroke-width: 0.8; stroke-linejoin: miter"/>
     <use xlink:href="#m639ff95661" x="1019.738807" y="164.360642" style="fill: #b5ead7; stroke: #1a1a1a; stroke-width: 0.8; stroke-linejoin: miter"/>
     <use xlink:href="#m639ff95661" x="1046.25848" y="146.02383" style="fill: #b5ead7; stroke: #1a1a1a; stroke-width: 0.8; stroke-linejoin: miter"/>
     <use xlink:href="#m639ff95661" x="1072.778154" y="140.558658" style="fill: #b5ead7; stroke: #1a1a1a; stroke-width: 0.8; stroke-linejoin: miter"/>
     <use xlink:href="#m639ff95661" x="1099.297827" y="142.774268" style="fill: #b5ead7; stroke: #1a1a1a; stroke-width: 0.8; stroke-linejoin: miter"/>
     <use xlink:href="#m639ff95661" x="1125.817501" y="108.084142" style="fill: #b5ead7; stroke: #1a1a1a; stroke-width: 0.8; stroke-linejoin: miter"/>
     <use xlink:href="#m639ff95661" x="1152.337174" y="127.13839" style="fill: #b5ead7; stroke: #1a1a1a; stroke-width: 0.8; stroke-linejoin: miter"/>
    </g>
   </g>
   <g id="patch_13">
    <path d="M 844.974159 302.387885 
L 844.974159 32.558209 
" style="fill: none; stroke: #1a1a1a; stroke-width: 1.2; stroke-linejoin: miter; stroke-linecap: square"/>
   </g>
   <g id="patch_14">
    <path d="M 1189.19952 302.387885 
L 1189.19952 32.558209 
" style="fill: none; stroke: #1a1a1a; stroke-width: 1.2; stroke-linejoin: miter; stroke-linecap: square"/>
   </g>
   <g id="patch_15">
    <path d="M 844.974159 302.387885 
L 1189.19952 302.387885 
" style="fill: none; stroke: #1a1a1a; stroke-width: 1.2; stroke-linejoin: miter; stroke-linecap: square"/>
   </g>
   <g id="patch_16">
    <path d="M 844.974159 32.558209 
L 1189.19952 32.558209 
" style="fill: none; stroke: #1a1a1a; stroke-width: 1.2; stroke-linejoin: miter; stroke-linecap: square"/>
   </g>
   <g id="text_51">
    <!-- SpaceInvaders (Best: 1162.5) -->
    <g transform="translate(919.649808 26.558209) scale(0.13 -0.13)">
     <defs>
      <path id="DejaVuSerif-63" d="M 3291 997 
Q 3169 466 2822 187 
Q 2475 -91 1925 -91 
Q 1200 -91 759 389 
Q 319 869 319 1663 
Q 319 2459 759 2936 
Q 1200 3413 1925 3413 
Q 2241 3413 2553 3339 
Q 2866 3266 3181 3116 
L 3181 2266 
L 2847 2266 
Q 2781 2703 2561 2903 
Q 2341 3103 1931 3103 
Q 1466 3103 1228 2742 
Q 991 2381 991 1663 
Q 991 944 1227 581 
Q 1463 219 1931 219 
Q 2303 219 2525 412 
Q 2747 606 2828 997 
L 3291 997 
z
" transform="scale(0.015625)"/>
      <path id="DejaVuSerif-49" d="M 1581 331 
L 2175 331 
L 2175 0 
L 353 0 
L 353 331 
L 947 331 
L 947 4331 
L 353 4331 
L 353 4666 
L 2175 4666 
L 2175 4331 
L 1581 4331 
L 1581 331 
z
" transform="scale(0.015625)"/>
     </defs>
     <use xlink:href="#DejaVuSerif-53"/>
     <use xlink:href="#DejaVuSerif-70" x="68.505859"/>
     <use xlink:href="#DejaVuSerif-61" x="132.519531"/>
     <use xlink:href="#DejaVuSerif-63" x="192.138672"/>
     <use xlink:href="#DejaVuSerif-65" x="248.144531"/>
     <use xlink:href="#DejaVuSerif-49" x="307.324219"/>
     <use xlink:href="#DejaVuSerif-6e" x="346.826172"/>
     <use xlink:href="#DejaVuSerif-76" x="411.230469"/>
     <use xlink:href="#DejaVuSerif-61" x="467.724609"/>
     <use xlink:href="#DejaVuSerif-64" x="527.34375"/>
     <use xlink:href="#DejaVuSerif-65" x="591.357422"/>
     <use xlink:href="#DejaVuSerif-72" x="650.537109"/>
     <use xlink:href="#DejaVuSerif-73" x="698.339844"/>
     <use xlink:href="#DejaVuSerif-20" x="749.658203"/>
     <use xlink:href="#DejaVuSerif-28" x="781.445312"/>
     <use xlink:href="#DejaVuSerif-42" x="820.458984"/>
     <use xlink:href="#DejaVuSerif-65" x="893.945312"/>
     <use xlink:href="#DejaVuSerif-73" x="953.125"/>
     <use xlink:href="#DejaVuSerif-74" x="1004.443359"/>
     <use xlink:href="#DejaVuSerif-3a" x="1044.628906"/>
     <use xlink:href="#DejaVuSerif-20" x="1078.320312"/>
     <use xlink:href="#DejaVuSerif-31" x="1110.107422"/>
     <use xlink:href="#DejaVuSerif-31" x="1173.730469"/>
     <use xlink:href="#DejaVuSerif-36" x="1237.353516"/>
     <use xlink:href="#DejaVuSerif-32" x="1300.976562"/>
     <use xlink:href="#DejaVuSerif-2e" x="1364.599609"/>
     <use xlink:href="#DejaVuSerif-35" x="1396.386719"/>
     <use xlink:href="#DejaVuSerif-29" x="1460.009766"/>
    </g>
   </g>
   <g id="line2d_93">
    <path d="M 1115.209631 44.823194 
" clip-path="url(#p487f11413d)" style="fill: none; stroke: #ff4444; stroke-width: 1.5; stroke-linecap: square"/>
    <g clip-path="url(#p487f11413d)">
     <use xlink:href="#m2fada526d8" x="1115.209631" y="44.823194" style="fill: #ff4444; stroke: #1a1a1a; stroke-linejoin: bevel"/>
    </g>
   </g>
  </g>
  <g id="text_52">
   <!-- Expert DQN Training — Evaluation Reward Curves -->
   <g transform="translate(400.81726 17.837812) scale(0.14 -0.14)">
    <defs>
     <path id="DejaVuSerif-Bold-45" d="M 300 0 
L 300 378 
L 897 378 
L 897 4288 
L 300 4288 
L 300 4666 
L 4494 4666 
L 4494 3566 
L 4063 3566 
L 4063 4238 
L 2100 4238 
L 2100 2741 
L 3322 2741 
L 3322 3334 
L 3750 3334 
L 3750 1722 
L 3322 1722 
L 3322 2316 
L 2100 2316 
L 2100 428 
L 4122 428 
L 4122 1100 
L 4550 1100 
L 4550 0 
L 300 0 
z
" transform="scale(0.015625)"/>
     <path id="DejaVuSerif-Bold-78" d="M 2247 2119 
L 2834 2944 
L 2425 2944 
L 2425 3322 
L 3719 3322 
L 3719 2944 
L 3278 2944 
L 2431 1759 
L 3419 378 
L 3859 378 
L 3859 0 
L 1747 0 
L 1747 378 
L 2175 378 
L 1550 1253 
L 922 378 
L 1369 378 
L 1369 0 
L 0 0 
L 0 378 
L 475 378 
L 1356 1619 
L 403 2944 
L 31 2944 
L 31 3322 
L 2059 3322 
L 2059 2944 
L 1656 2944 
L 2247 2119 
z
" transform="scale(0.015625)"/>
     <path id="DejaVuSerif-Bold-70" d="M 1728 1825 
L 1728 1497 
Q 1728 916 1876 656 
Q 2025 397 2356 397 
Q 2697 397 2836 672 
Q 2975 947 2975 1663 
Q 2975 2378 2836 2651 
Q 2697 2925 2356 2925 
Q 2025 2925 1876 2665 
Q 1728 2406 1728 1825 
z
M 622 2944 
L 147 2944 
L 147 3322 
L 1728 3322 
L 1728 2900 
Q 1869 3159 2106 3286 
Q 2344 3413 2694 3413 
Q 3403 3413 3811 2945 
Q 4219 2478 4219 1663 
Q 4219 847 3811 378 
Q 3403 -91 2694 -91 
Q 2344 -91 2106 36 
Q 1869 163 1728 422 
L 1728 -953 
L 2241 -953 
L 2241 -1331 
L 147 -1331 
L 147 -953 
L 622 -953 
L 622 2944 
z
" transform="scale(0.015625)"/>
     <path id="DejaVuSerif-Bold-65" d="M 2566 1875 
Q 2566 2531 2444 2795 
Q 2322 3059 2028 3059 
Q 1744 3059 1620 2800 
Q 1497 2541 1497 1931 
L 1497 1875 
L 2566 1875 
z
M 3781 1503 
L 1497 1503 
L 1497 1478 
Q 1497 834 1690 548 
Q 1884 263 2316 263 
Q 2675 263 2897 453 
Q 3119 644 3181 1006 
L 3700 1006 
Q 3566 441 3166 175 
Q 2766 -91 2047 -91 
Q 1184 -91 723 364 
Q 263 819 263 1663 
Q 263 2488 734 2950 
Q 1206 3413 2047 3413 
Q 2872 3413 3312 2927 
Q 3753 2441 3781 1503 
z
" transform="scale(0.015625)"/>
     <path id="DejaVuSerif-Bold-72" d="M 3438 3359 
L 3438 2369 
L 3084 2369 
Q 3066 2634 2941 2764 
Q 2816 2894 2578 2894 
Q 2216 2894 2006 2575 
Q 1797 2256 1797 1691 
L 1797 378 
L 2400 378 
L 2400 0 
L 219 0 
L 219 378 
L 691 378 
L 691 2944 
L 184 2944 
L 184 3322 
L 1797 3322 
L 1797 2731 
Q 1959 3078 2226 3245 
Q 2494 3413 2881 3413 
Q 2978 3413 3117 3398 
Q 3256 3384 3438 3359 
z
" transform="scale(0.015625)"/>
     <path id="DejaVuSerif-Bold-74" d="M 634 2944 
L 153 2944 
L 153 3322 
L 634 3322 
L 634 4353 
L 1741 4353 
L 1741 3322 
L 2663 3322 
L 2663 2944 
L 1741 2944 
L 1741 909 
Q 1741 475 1809 369 
Q 1878 263 2059 263 
Q 2259 263 2356 397 
Q 2453 531 2459 813 
L 2925 813 
Q 2897 313 2651 111 
Q 2406 -91 1806 -91 
Q 1122 -91 878 123 
Q 634 338 634 909 
L 634 2944 
z
" transform="scale(0.015625)"/>
     <path id="DejaVuSerif-Bold-20" transform="scale(0.015625)"/>
     <path id="DejaVuSerif-Bold-44" d="M 2100 378 
L 2534 378 
Q 3266 378 3605 847 
Q 3944 1316 3944 2338 
Q 3944 3353 3606 3820 
Q 3269 4288 2534 4288 
L 2100 4288 
L 2100 378 
z
M 300 0 
L 300 378 
L 897 378 
L 897 4288 
L 300 4288 
L 300 4666 
L 2694 4666 
Q 3950 4666 4615 4066 
Q 5281 3466 5281 2338 
Q 5281 1203 4614 601 
Q 3947 0 2694 0 
L 300 0 
z
" transform="scale(0.015625)"/>
     <path id="DejaVuSerif-Bold-51" d="M 2766 -91 
Q 1584 -72 926 565 
Q 269 1203 269 2328 
Q 269 3459 939 4104 
Q 1609 4750 2784 4750 
Q 3963 4750 4631 4106 
Q 5300 3463 5300 2328 
Q 5300 1334 4786 715 
Q 4272 97 3322 -50 
Q 3488 -228 3725 -306 
Q 3963 -384 4341 -384 
L 4500 -384 
L 4500 -1153 
L 4409 -1153 
Q 3816 -1153 3419 -897 
Q 3022 -641 2766 -91 
z
M 2784 288 
Q 3381 288 3672 791 
Q 3963 1294 3963 2328 
Q 3963 3366 3672 3869 
Q 3381 4372 2784 4372 
Q 2191 4372 1898 3864 
Q 1606 3356 1606 2328 
Q 1606 1303 1898 795 
Q 2191 288 2784 288 
z
" transform="scale(0.015625)"/>
     <path id="DejaVuSerif-Bold-4e" d="M 281 0 
L 281 378 
L 878 378 
L 878 4288 
L 281 4288 
L 281 4666 
L 1741 4666 
L 4556 1363 
L 4556 4288 
L 3963 4288 
L 3963 4666 
L 5594 4666 
L 5594 4288 
L 4997 4288 
L 4997 0 
L 4178 0 
L 1319 3372 
L 1319 378 
L 1913 378 
L 1913 0 
L 281 0 
z
" transform="scale(0.015625)"/>
     <path id="DejaVuSerif-Bold-54" d="M 1159 0 
L 1159 378 
L 1778 378 
L 1778 4238 
L 500 4238 
L 500 3500 
L 72 3500 
L 72 4666 
L 4697 4666 
L 4697 3500 
L 4275 3500 
L 4275 4238 
L 2988 4238 
L 2988 378 
L 3609 378 
L 3609 0 
L 1159 0 
z
" transform="scale(0.015625)"/>
     <path id="DejaVuSerif-Bold-61" d="M 3525 2041 
L 3525 378 
L 4000 378 
L 4000 0 
L 2419 0 
L 2419 422 
Q 2200 159 1931 34 
Q 1663 -91 1319 -91 
Q 809 -91 536 182 
Q 263 456 263 966 
Q 263 1525 655 1803 
Q 1047 2081 1838 2081 
L 2419 2081 
L 2419 2278 
Q 2419 2681 2228 2873 
Q 2038 3066 1638 3066 
Q 1306 3066 1126 2930 
Q 947 2794 872 2484 
L 519 2484 
L 519 3200 
Q 816 3306 1134 3359 
Q 1453 3413 1806 3413 
Q 2697 3413 3111 3081 
Q 3525 2750 3525 2041 
z
M 2419 1044 
L 2419 1709 
L 2003 1709 
Q 1694 1709 1528 1540 
Q 1363 1372 1363 1056 
Q 1363 741 1483 584 
Q 1603 428 1850 428 
Q 2106 428 2262 597 
Q 2419 766 2419 1044 
z
" transform="scale(0.015625)"/>
     <path id="DejaVuSerif-Bold-69" d="M 588 4263 
Q 588 4516 763 4689 
Q 938 4863 1191 4863 
Q 1438 4863 1611 4689 
Q 1784 4516 1784 4263 
Q 1784 4016 1611 3842 
Q 1438 3669 1191 3669 
Q 938 3669 763 3841 
Q 588 4013 588 4263 
z
M 1797 378 
L 2272 378 
L 2272 0 
L 219 0 
L 219 378 
L 691 378 
L 691 2944 
L 219 2944 
L 219 3322 
L 1797 3322 
L 1797 378 
z
" transform="scale(0.015625)"/>
     <path id="DejaVuSerif-Bold-6e" d="M 219 0 
L 219 378 
L 691 378 
L 691 2944 
L 219 2944 
L 219 3322 
L 1797 3322 
L 1797 2853 
Q 1997 3150 2253 3281 
Q 2509 3413 2900 3413 
Q 3459 3413 3745 3083 
Q 4031 2753 4031 2113 
L 4031 378 
L 4506 378 
L 4506 0 
L 2522 0 
L 2522 378 
L 2925 378 
L 2925 2144 
Q 2925 2566 2817 2730 
Q 2709 2894 2444 2894 
Q 2109 2894 1953 2648 
Q 1797 2403 1797 1869 
L 1797 378 
L 2203 378 
L 2203 0 
L 219 0 
z
" transform="scale(0.015625)"/>
     <path id="DejaVuSerif-Bold-67" d="M 3853 2944 
L 3853 44 
Q 3853 -656 3354 -1039 
Q 2856 -1422 1947 -1422 
Q 1616 -1422 1275 -1370 
Q 934 -1319 575 -1216 
L 575 -422 
L 928 -422 
Q 975 -750 1192 -909 
Q 1409 -1069 1813 -1069 
Q 2325 -1069 2536 -823 
Q 2747 -578 2747 44 
L 2747 422 
Q 2606 163 2367 36 
Q 2128 -91 1778 -91 
Q 1072 -91 667 378 
Q 263 847 263 1663 
Q 263 2481 667 2947 
Q 1072 3413 1778 3413 
Q 2128 3413 2367 3286 
Q 2606 3159 2747 2900 
L 2747 3322 
L 4325 3322 
L 4325 2944 
L 3853 2944 
z
M 2747 1825 
Q 2747 2406 2597 2665 
Q 2447 2925 2119 2925 
Q 1775 2925 1636 2651 
Q 1497 2378 1497 1663 
Q 1497 947 1637 672 
Q 1778 397 2119 397 
Q 2447 397 2597 656 
Q 2747 916 2747 1497 
L 2747 1825 
z
" transform="scale(0.015625)"/>
     <path id="DejaVuSerif-Bold-2014" d="M 344 2075 
L 6056 2075 
L 6056 1325 
L 344 1325 
L 344 2075 
z
" transform="scale(0.015625)"/>
     <path id="DejaVuSerif-Bold-76" d="M 1428 0 
L 250 2944 
L -116 2944 
L -116 3322 
L 1791 3322 
L 1791 2944 
L 1388 2944 
L 2228 844 
L 3066 2944 
L 2631 2944 
L 2631 3322 
L 3878 3322 
L 3878 2944 
L 3494 2944 
L 2316 0 
L 1428 0 
z
" transform="scale(0.015625)"/>
     <path id="DejaVuSerif-Bold-6c" d="M 1797 378 
L 2272 378 
L 2272 0 
L 219 0 
L 219 378 
L 691 378 
L 691 4488 
L 219 4488 
L 219 4863 
L 1797 4863 
L 1797 378 
z
" transform="scale(0.015625)"/>
     <path id="DejaVuSerif-Bold-75" d="M 3963 3322 
L 3963 378 
L 4434 378 
L 4434 0 
L 2853 0 
L 2853 469 
Q 2656 172 2400 40 
Q 2144 -91 1753 -91 
Q 1194 -91 908 239 
Q 622 569 622 1209 
L 622 2944 
L 147 2944 
L 147 3322 
L 1728 3322 
L 1728 1381 
Q 1728 763 1831 595 
Q 1934 428 2209 428 
Q 2544 428 2698 675 
Q 2853 922 2853 1459 
L 2853 2944 
L 2450 2944 
L 2450 3322 
L 3963 3322 
z
" transform="scale(0.015625)"/>
     <path id="DejaVuSerif-Bold-6f" d="M 2138 263 
Q 2488 263 2630 563 
Q 2772 863 2772 1663 
Q 2772 2463 2631 2761 
Q 2491 3059 2138 3059 
Q 1784 3059 1640 2757 
Q 1497 2456 1497 1663 
Q 1497 869 1640 566 
Q 1784 263 2138 263 
z
M 2138 -91 
Q 1259 -91 761 376 
Q 263 844 263 1663 
Q 263 2484 761 2948 
Q 1259 3413 2138 3413 
Q 3019 3413 3516 2948 
Q 4013 2484 4013 1663 
Q 4013 844 3514 376 
Q 3016 -91 2138 -91 
z
" transform="scale(0.015625)"/>
     <path id="DejaVuSerif-Bold-52" d="M 3397 2278 
Q 3675 2238 3865 2094 
Q 4056 1950 4197 1678 
L 4878 378 
L 5356 378 
L 5356 0 
L 3822 0 
L 3078 1409 
Q 2863 1847 2711 1967 
Q 2559 2088 2291 2088 
L 2100 2088 
L 2100 378 
L 2700 378 
L 2700 0 
L 300 0 
L 300 378 
L 897 378 
L 897 4288 
L 300 4288 
L 300 4666 
L 2963 4666 
Q 3775 4666 4217 4339 
Q 4659 4013 4659 3413 
Q 4659 2925 4345 2642 
Q 4031 2359 3397 2278 
z
M 2100 2463 
L 2509 2463 
Q 2947 2463 3183 2700 
Q 3419 2938 3419 3378 
Q 3419 3819 3183 4053 
Q 2947 4288 2509 4288 
L 2100 4288 
L 2100 2463 
z
" transform="scale(0.015625)"/>
     <path id="DejaVuSerif-Bold-77" d="M 3450 3322 
L 4206 1106 
L 4831 2944 
L 4397 2944 
L 4397 3322 
L 5638 3322 
L 5638 2944 
L 5247 2944 
L 4244 0 
L 3481 0 
L 2778 2081 
L 2069 0 
L 1313 0 
L 306 2944 
L -56 2944 
L -56 3322 
L 1825 3322 
L 1825 2944 
L 1434 2944 
L 2047 1147 
L 2791 3322 
L 3450 3322 
z
" transform="scale(0.015625)"/>
     <path id="DejaVuSerif-Bold-64" d="M 2747 1497 
L 2747 1825 
Q 2747 2406 2597 2665 
Q 2447 2925 2119 2925 
Q 1775 2925 1636 2651 
Q 1497 2378 1497 1663 
Q 1497 947 1637 672 
Q 1778 397 2119 397 
Q 2447 397 2597 656 
Q 2747 916 2747 1497 
z
M 3853 378 
L 4325 378 
L 4325 0 
L 2747 0 
L 2747 422 
Q 2606 163 2367 36 
Q 2128 -91 1778 -91 
Q 1072 -91 667 378 
Q 263 847 263 1663 
Q 263 2481 667 2947 
Q 1072 3413 1778 3413 
Q 2128 3413 2367 3286 
Q 2606 3159 2747 2900 
L 2747 4488 
L 2272 4488 
L 2272 4863 
L 3853 4863 
L 3853 378 
z
" transform="scale(0.015625)"/>
     <path id="DejaVuSerif-Bold-43" d="M 4769 1331 
Q 4584 609 4106 259 
Q 3628 -91 2822 -91 
Q 1641 -91 955 561 
Q 269 1213 269 2328 
Q 269 3447 955 4098 
Q 1641 4750 2822 4750 
Q 3238 4750 3688 4650 
Q 4138 4550 4641 4347 
L 4641 3200 
L 4244 3200 
Q 4122 3788 3800 4080 
Q 3478 4372 2950 4372 
Q 2269 4372 1937 3870 
Q 1606 3369 1606 2328 
Q 1606 1288 1937 788 
Q 2269 288 2956 288 
Q 3422 288 3717 547 
Q 4013 806 4147 1331 
L 4769 1331 
z
" transform="scale(0.015625)"/>
     <path id="DejaVuSerif-Bold-73" d="M 300 97 
L 300 1025 
L 653 1025 
Q 697 653 931 458 
Q 1166 263 1569 263 
Q 1906 263 2086 380 
Q 2266 497 2266 716 
Q 2266 916 2152 1025 
Q 2038 1134 1709 1216 
L 1253 1331 
Q 738 1459 506 1698 
Q 275 1938 275 2344 
Q 275 2884 650 3148 
Q 1025 3413 1806 3413 
Q 2100 3413 2433 3364 
Q 2766 3316 3169 3213 
L 3169 2375 
L 2816 2375 
Q 2788 2716 2573 2887 
Q 2359 3059 1959 3059 
Q 1622 3059 1448 2951 
Q 1275 2844 1275 2638 
Q 1275 2469 1375 2372 
Q 1475 2275 1734 2209 
L 2188 2094 
Q 2841 1928 3091 1684 
Q 3341 1441 3341 1006 
Q 3341 444 2939 176 
Q 2538 -91 1691 -91 
Q 1381 -91 1034 -44 
Q 688 3 300 97 
z
" transform="scale(0.015625)"/>
    </defs>
    <use xlink:href="#DejaVuSerif-Bold-45"/>
    <use xlink:href="#DejaVuSerif-Bold-78" x="76.220703"/>
    <use xlink:href="#DejaVuSerif-Bold-70" x="135.839844"/>
    <use xlink:href="#DejaVuSerif-Bold-65" x="205.761719"/>
    <use xlink:href="#DejaVuSerif-Bold-72" x="269.384766"/>
    <use xlink:href="#DejaVuSerif-Bold-74" x="322.070312"/>
    <use xlink:href="#DejaVuSerif-Bold-20" x="368.261719"/>
    <use xlink:href="#DejaVuSerif-Bold-44" x="403.076172"/>
    <use xlink:href="#DejaVuSerif-Bold-51" x="489.794922"/>
    <use xlink:href="#DejaVuSerif-Bold-4e" x="576.904297"/>
    <use xlink:href="#DejaVuSerif-Bold-20" x="668.310547"/>
    <use xlink:href="#DejaVuSerif-Bold-54" x="703.125"/>
    <use xlink:href="#DejaVuSerif-Bold-72" x="770.289062"/>
    <use xlink:href="#DejaVuSerif-Bold-61" x="822.974609"/>
    <use xlink:href="#DejaVuSerif-Bold-69" x="887.769531"/>
    <use xlink:href="#DejaVuSerif-Bold-6e" x="925.757812"/>
    <use xlink:href="#DejaVuSerif-Bold-69" x="998.462891"/>
    <use xlink:href="#DejaVuSerif-Bold-6e" x="1036.451172"/>
    <use xlink:href="#DejaVuSerif-Bold-67" x="1109.15625"/>
    <use xlink:href="#DejaVuSerif-Bold-20" x="1179.078125"/>
    <use xlink:href="#DejaVuSerif-Bold-2014" x="1213.892578"/>
    <use xlink:href="#DejaVuSerif-Bold-20" x="1313.892578"/>
    <use xlink:href="#DejaVuSerif-Bold-45" x="1348.707031"/>
    <use xlink:href="#DejaVuSerif-Bold-76" x="1424.927734"/>
    <use xlink:href="#DejaVuSerif-Bold-61" x="1483.033203"/>
    <use xlink:href="#DejaVuSerif-Bold-6c" x="1547.828125"/>
    <use xlink:href="#DejaVuSerif-Bold-75" x="1585.816406"/>
    <use xlink:href="#DejaVuSerif-Bold-61" x="1658.521484"/>
    <use xlink:href="#DejaVuSerif-Bold-74" x="1723.316406"/>
    <use xlink:href="#DejaVuSerif-Bold-69" x="1769.507812"/>
    <use xlink:href="#DejaVuSerif-Bold-6f" x="1807.496094"/>
    <use xlink:href="#DejaVuSerif-Bold-6e" x="1874.195312"/>
    <use xlink:href="#DejaVuSerif-Bold-20" x="1946.900391"/>
    <use xlink:href="#DejaVuSerif-Bold-52" x="1981.714844"/>
    <use xlink:href="#DejaVuSerif-Bold-65" x="2064.820312"/>
    <use xlink:href="#DejaVuSerif-Bold-77" x="2128.443359"/>
    <use xlink:href="#DejaVuSerif-Bold-61" x="2214.527344"/>
    <use xlink:href="#DejaVuSerif-Bold-72" x="2279.322266"/>
    <use xlink:href="#DejaVuSerif-Bold-64" x="2332.007812"/>
    <use xlink:href="#DejaVuSerif-Bold-20" x="2401.929688"/>
    <use xlink:href="#DejaVuSerif-Bold-43" x="2436.744141"/>
    <use xlink:href="#DejaVuSerif-Bold-75" x="2516.333984"/>
    <use xlink:href="#DejaVuSerif-Bold-72" x="2589.039062"/>
    <use xlink:href="#DejaVuSerif-Bold-76" x="2641.724609"/>
    <use xlink:href="#DejaVuSerif-Bold-65" x="2699.830078"/>
    <use xlink:href="#DejaVuSerif-Bold-73" x="2763.453125"/>
   </g>
  </g>
 </g>
 <defs>
  <clipPath id="pcad31ca43c">
   <rect x="50.918438" y="32.558209" width="344.225361" height="269.829676"/>
  </clipPath>
  <clipPath id="p10388b6541">
   <rect x="444.765048" y="32.558209" width="344.225361" height="269.829676"/>
  </clipPath>
  <clipPath id="p487f11413d">
   <rect x="844.974159" y="32.558209" width="344.225361" height="269.829676"/>
  </clipPath>
 </defs>
</svg>
