<?xml version="1.0" encoding="utf-8" standalone="no"?>
<!DOCTYPE svg PUBLIC "-//W3C//DTD SVG 1.1//EN"
  "http://www.w3.org/Graphics/SVG/1.1/DTD/svg11.dtd">
<svg xmlns:xlink="http://www.w3.org/1999/xlink" width="512.39952pt" height="332.39952pt" viewBox="0 0 512.39952 332.39952" xmlns="http://www.w3.org/2000/svg" version="1.1">
 <metadata>
  <rdf:RDF xmlns:dc="http://purl.org/dc/elements/1.1/" xmlns:cc="http://creativecommons.org/ns#" xmlns:rdf="http://www.w3.org/1999/02/22-rdf-syntax-ns#">
   <cc:Work>
    <dc:type rdf:resource="http://purl.org/dc/dcmitype/StillImage"/>
    <dc:date>2026-02-24T03:26:58.797102</dc:date>
    <dc:format>image/svg+xml</dc:format>
    <dc:creator>
     <cc:Agent>
      <dc:title>Matplotlib v3.10.8, https://matplotlib.org/</dc:title>
     </cc:Agent>
    </dc:creator>
   </cc:Work>
  </rdf:RDF>
 </metadata>
 <defs>
  <style type="text/css">*{stroke-linejoin: round; stroke-linecap: butt}</style>
 </defs>
 <g id="figure_1">
  <g id="patch_1">
   <path d="M 0 332.39952 
L 512.39952 332.39952 
L 512.39952 0 
L 0 0 
z
" style="fill: #ffffff"/>
  </g>
  <g id="axes_1">
   <g id="patch_2">
    <path d="M 44.099375 294.217332 
L 505.19952 294.217332 
L 505.19952 22.226875 
L 44.099375 22.226875 
z
" style="fill: #fafafa"/>
   </g>
   <g id="matplotlib.axis_1">
    <g id="xtick_1">
     <g id="line2d_1">
      <path d="M 60.824311 294.217332 
L 60.824311 22.226875 
" clip-path="url(#p4acb636c8d)" style="fill: none; stroke: #e0e0e0; stroke-opacity: 0.7; stroke-width: 0.6; stroke-linecap: square"/>
     </g>
     <g id="line2d_2">
      <defs>
       <path id="m5a095d2bca" d="M 0 0 
L 0 3.5 
" style="stroke: #000000"/>
      </defs>
      <g>
       <use xlink:href="#m5a095d2bca" x="60.824311" y="294.217332" style="stroke: #000000"/>
      </g>
     </g>
     <g id="text_1">
      <!-- 0k -->
      <g transform="translate(55.824311 308.161082) scale(0.1 -0.1)">
       <defs>
        <path id="TimesNewRomanPSMT-30" d="M 231 2094 
Q 231 2819 450 3342 
Q 669 3866 1031 4122 
Q 1313 4325 1613 4325 
Q 2100 4325 2488 3828 
Q 2972 3213 2972 2159 
Q 2972 1422 2759 906 
Q 2547 391 2217 158 
Q 1888 -75 1581 -75 
Q 975 -75 572 641 
Q 231 1244 231 2094 
z
M 844 2016 
Q 844 1141 1059 588 
Q 1238 122 1591 122 
Q 1759 122 1940 273 
Q 2122 425 2216 781 
Q 2359 1319 2359 2297 
Q 2359 3022 2209 3506 
Q 2097 3866 1919 4016 
Q 1791 4119 1609 4119 
Q 1397 4119 1231 3928 
Q 1006 3669 925 3112 
Q 844 2556 844 2016 
z
" transform="scale(0.015625)"/>
        <path id="TimesNewRomanPSMT-6b" d="M 1047 4444 
L 1047 1594 
L 1775 2259 
Q 2006 2472 2044 2528 
Q 2069 2566 2069 2603 
Q 2069 2666 2017 2711 
Q 1966 2756 1847 2763 
L 1847 2863 
L 3091 2863 
L 3091 2763 
Q 2834 2756 2664 2684 
Q 2494 2613 2291 2428 
L 1556 1750 
L 2291 822 
Q 2597 438 2703 334 
Q 2853 188 2966 144 
Q 3044 113 3238 113 
L 3238 0 
L 1847 0 
L 1847 113 
Q 1966 116 2008 148 
Q 2050 181 2050 241 
Q 2050 313 1925 472 
L 1047 1594 
L 1047 644 
Q 1047 366 1086 278 
Q 1125 191 1197 153 
Q 1269 116 1509 113 
L 1509 0 
L 53 0 
L 53 113 
Q 272 113 381 166 
Q 447 200 481 272 
Q 528 375 528 628 
L 528 3234 
Q 528 3731 506 3842 
Q 484 3953 434 3995 
Q 384 4038 303 4038 
Q 238 4038 106 3984 
L 53 4094 
L 903 4444 
L 1047 4444 
z
" transform="scale(0.015625)"/>
       </defs>
       <use xlink:href="#TimesNewRomanPSMT-30"/>
       <use xlink:href="#TimesNewRomanPSMT-6b" transform="translate(50 0)"/>
      </g>
     </g>
    </g>
    <g id="xtick_2">
     <g id="line2d_3">
      <path d="M 145.507534 294.217332 
L 145.507534 22.226875 
" clip-path="url(#p4acb636c8d)" style="fill: none; stroke: #e0e0e0; stroke-opacity: 0.7; stroke-width: 0.6; stroke-linecap: square"/>
     </g>
     <g id="line2d_4">
      <g>
       <use xlink:href="#m5a095d2bca" x="145.507534" y="294.217332" style="stroke: #000000"/>
      </g>
     </g>
     <g id="text_2">
      <!-- 200k -->
      <g transform="translate(135.507534 308.161082) scale(0.1 -0.1)">
       <defs>
        <path id="TimesNewRomanPSMT-32" d="M 2934 816 
L 2638 0 
L 138 0 
L 138 116 
Q 1241 1122 1691 1759 
Q 2141 2397 2141 2925 
Q 2141 3328 1894 3587 
Q 1647 3847 1303 3847 
Q 991 3847 742 3664 
Q 494 3481 375 3128 
L 259 3128 
Q 338 3706 661 4015 
Q 984 4325 1469 4325 
Q 1984 4325 2329 3994 
Q 2675 3663 2675 3213 
Q 2675 2891 2525 2569 
Q 2294 2063 1775 1497 
Q 997 647 803 472 
L 1909 472 
Q 2247 472 2383 497 
Q 2519 522 2628 598 
Q 2738 675 2819 816 
L 2934 816 
z
" transform="scale(0.015625)"/>
       </defs>
       <use xlink:href="#TimesNewRomanPSMT-32"/>
       <use xlink:href="#TimesNewRomanPSMT-30" transform="translate(50 0)"/>
       <use xlink:href="#TimesNewRomanPSMT-30" transform="translate(100 0)"/>
       <use xlink:href="#TimesNewRomanPSMT-6b" transform="translate(150 0)"/>
      </g>
     </g>
    </g>
    <g id="xtick_3">
     <g id="line2d_5">
      <path d="M 230.190756 294.217332 
L 230.190756 22.226875 
" clip-path="url(#p4acb636c8d)" style="fill: none; stroke: #e0e0e0; stroke-opacity: 0.7; stroke-width: 0.6; stroke-linecap: square"/>
     </g>
     <g id="line2d_6">
      <g>
       <use xlink:href="#m5a095d2bca" x="230.190756" y="294.217332" style="stroke: #000000"/>
      </g>
     </g>
     <g id="text_3">
      <!-- 400k -->
      <g transform="translate(220.190756 308.161082) scale(0.1 -0.1)">
       <defs>
        <path id="TimesNewRomanPSMT-34" d="M 2978 1563 
L 2978 1119 
L 2409 1119 
L 2409 0 
L 1894 0 
L 1894 1119 
L 100 1119 
L 100 1519 
L 2066 4325 
L 2409 4325 
L 2409 1563 
L 2978 1563 
z
M 1894 1563 
L 1894 3666 
L 406 1563 
L 1894 1563 
z
" transform="scale(0.015625)"/>
       </defs>
       <use xlink:href="#TimesNewRomanPSMT-34"/>
       <use xlink:href="#TimesNewRomanPSMT-30" transform="translate(50 0)"/>
       <use xlink:href="#TimesNewRomanPSMT-30" transform="translate(100 0)"/>
       <use xlink:href="#TimesNewRomanPSMT-6b" transform="translate(150 0)"/>
      </g>
     </g>
    </g>
    <g id="xtick_4">
     <g id="line2d_7">
      <path d="M 314.873978 294.217332 
L 314.873978 22.226875 
" clip-path="url(#p4acb636c8d)" style="fill: none; stroke: #e0e0e0; stroke-opacity: 0.7; stroke-width: 0.6; stroke-linecap: square"/>
     </g>
     <g id="line2d_8">
      <g>
       <use xlink:href="#m5a095d2bca" x="314.873978" y="294.217332" style="stroke: #000000"/>
      </g>
     </g>
     <g id="text_4">
      <!-- 600k -->
      <g transform="translate(304.873978 308.161082) scale(0.1 -0.1)">
       <defs>
        <path id="TimesNewRomanPSMT-36" d="M 2869 4325 
L 2869 4209 
Q 2456 4169 2195 4045 
Q 1934 3922 1679 3669 
Q 1425 3416 1258 3105 
Q 1091 2794 978 2366 
Q 1428 2675 1881 2675 
Q 2316 2675 2634 2325 
Q 2953 1975 2953 1425 
Q 2953 894 2631 456 
Q 2244 -75 1606 -75 
Q 1172 -75 869 213 
Q 275 772 275 1663 
Q 275 2231 503 2743 
Q 731 3256 1154 3653 
Q 1578 4050 1965 4187 
Q 2353 4325 2688 4325 
L 2869 4325 
z
M 925 2138 
Q 869 1716 869 1456 
Q 869 1156 980 804 
Q 1091 453 1309 247 
Q 1469 100 1697 100 
Q 1969 100 2183 356 
Q 2397 613 2397 1088 
Q 2397 1622 2184 2012 
Q 1972 2403 1581 2403 
Q 1463 2403 1327 2353 
Q 1191 2303 925 2138 
z
" transform="scale(0.015625)"/>
       </defs>
       <use xlink:href="#TimesNewRomanPSMT-36"/>
       <use xlink:href="#TimesNewRomanPSMT-30" transform="translate(50 0)"/>
       <use xlink:href="#TimesNewRomanPSMT-30" transform="translate(100 0)"/>
       <use xlink:href="#TimesNewRomanPSMT-6b" transform="translate(150 0)"/>
      </g>
     </g>
    </g>
    <g id="xtick_5">
     <g id="line2d_9">
      <path d="M 399.5572 294.217332 
L 399.5572 22.226875 
" clip-path="url(#p4acb636c8d)" style="fill: none; stroke: #e0e0e0; stroke-opacity: 0.7; stroke-width: 0.6; stroke-linecap: square"/>
     </g>
     <g id="line2d_10">
      <g>
       <use xlink:href="#m5a095d2bca" x="399.5572" y="294.217332" style="stroke: #000000"/>
      </g>
     </g>
     <g id="text_5">
      <!-- 800k -->
      <g transform="translate(389.5572 308.161082) scale(0.1 -0.1)">
       <defs>
        <path id="TimesNewRomanPSMT-38" d="M 1228 2134 
Q 725 2547 579 2797 
Q 434 3047 434 3316 
Q 434 3728 753 4026 
Q 1072 4325 1600 4325 
Q 2113 4325 2425 4047 
Q 2738 3769 2738 3413 
Q 2738 3175 2569 2928 
Q 2400 2681 1866 2347 
Q 2416 1922 2594 1678 
Q 2831 1359 2831 1006 
Q 2831 559 2490 242 
Q 2150 -75 1597 -75 
Q 994 -75 656 303 
Q 388 606 388 966 
Q 388 1247 577 1523 
Q 766 1800 1228 2134 
z
M 1719 2469 
Q 2094 2806 2194 3001 
Q 2294 3197 2294 3444 
Q 2294 3772 2109 3958 
Q 1925 4144 1606 4144 
Q 1288 4144 1088 3959 
Q 888 3775 888 3528 
Q 888 3366 970 3203 
Q 1053 3041 1206 2894 
L 1719 2469 
z
M 1375 2016 
Q 1116 1797 991 1539 
Q 866 1281 866 981 
Q 866 578 1086 336 
Q 1306 94 1647 94 
Q 1984 94 2187 284 
Q 2391 475 2391 747 
Q 2391 972 2272 1150 
Q 2050 1481 1375 2016 
z
" transform="scale(0.015625)"/>
       </defs>
       <use xlink:href="#TimesNewRomanPSMT-38"/>
       <use xlink:href="#TimesNewRomanPSMT-30" transform="translate(50 0)"/>
       <use xlink:href="#TimesNewRomanPSMT-30" transform="translate(100 0)"/>
       <use xlink:href="#TimesNewRomanPSMT-6b" transform="translate(150 0)"/>
      </g>
     </g>
    </g>
    <g id="xtick_6">
     <g id="line2d_11">
      <path d="M 484.240423 294.217332 
L 484.240423 22.226875 
" clip-path="url(#p4acb636c8d)" style="fill: none; stroke: #e0e0e0; stroke-opacity: 0.7; stroke-width: 0.6; stroke-linecap: square"/>
     </g>
     <g id="line2d_12">
      <g>
       <use xlink:href="#m5a095d2bca" x="484.240423" y="294.217332" style="stroke: #000000"/>
      </g>
     </g>
     <g id="text_6">
      <!-- 1.0M -->
      <g transform="translate(473.544329 308.161082) scale(0.1 -0.1)">
       <defs>
        <path id="TimesNewRomanPSMT-31" d="M 750 3822 
L 1781 4325 
L 1884 4325 
L 1884 747 
Q 1884 391 1914 303 
Q 1944 216 2037 169 
Q 2131 122 2419 116 
L 2419 0 
L 825 0 
L 825 116 
Q 1125 122 1212 167 
Q 1300 213 1334 289 
Q 1369 366 1369 747 
L 1369 3034 
Q 1369 3497 1338 3628 
Q 1316 3728 1258 3775 
Q 1200 3822 1119 3822 
Q 1003 3822 797 3725 
L 750 3822 
z
" transform="scale(0.015625)"/>
        <path id="TimesNewRomanPSMT-2e" d="M 800 606 
Q 947 606 1047 504 
Q 1147 403 1147 259 
Q 1147 116 1045 14 
Q 944 -88 800 -88 
Q 656 -88 554 14 
Q 453 116 453 259 
Q 453 406 554 506 
Q 656 606 800 606 
z
" transform="scale(0.015625)"/>
        <path id="TimesNewRomanPSMT-4d" d="M 2619 0 
L 981 3566 
L 981 734 
Q 981 344 1066 247 
Q 1181 116 1431 116 
L 1581 116 
L 1581 0 
L 106 0 
L 106 116 
L 256 116 
Q 525 116 638 278 
Q 706 378 706 734 
L 706 3503 
Q 706 3784 644 3909 
Q 600 4000 483 4061 
Q 366 4122 106 4122 
L 106 4238 
L 1306 4238 
L 2844 922 
L 4356 4238 
L 5556 4238 
L 5556 4122 
L 5409 4122 
Q 5138 4122 5025 3959 
Q 4956 3859 4956 3503 
L 4956 734 
Q 4956 344 5044 247 
Q 5159 116 5409 116 
L 5556 116 
L 5556 0 
L 3756 0 
L 3756 116 
L 3906 116 
Q 4178 116 4288 278 
Q 4356 378 4356 734 
L 4356 3566 
L 2722 0 
L 2619 0 
z
" transform="scale(0.015625)"/>
       </defs>
       <use xlink:href="#TimesNewRomanPSMT-31"/>
       <use xlink:href="#TimesNewRomanPSMT-2e" transform="translate(50 0)"/>
       <use xlink:href="#TimesNewRomanPSMT-30" transform="translate(75 0)"/>
       <use xlink:href="#TimesNewRomanPSMT-4d" transform="translate(125 0)"/>
      </g>
     </g>
    </g>
    <g id="text_7">
     <!-- Environment Steps -->
     <g transform="translate(228.820697 322.632645) scale(0.12 -0.12)">
      <defs>
       <path id="TimesNewRomanPSMT-45" d="M 1338 4006 
L 1338 2331 
L 2269 2331 
Q 2631 2331 2753 2441 
Q 2916 2584 2934 2947 
L 3050 2947 
L 3050 1472 
L 2934 1472 
Q 2891 1781 2847 1869 
Q 2791 1978 2662 2040 
Q 2534 2103 2269 2103 
L 1338 2103 
L 1338 706 
Q 1338 425 1363 364 
Q 1388 303 1450 267 
Q 1513 231 1688 231 
L 2406 231 
Q 2766 231 2928 281 
Q 3091 331 3241 478 
Q 3434 672 3638 1063 
L 3763 1063 
L 3397 0 
L 131 0 
L 131 116 
L 281 116 
Q 431 116 566 188 
Q 666 238 702 338 
Q 738 438 738 747 
L 738 3500 
Q 738 3903 656 3997 
Q 544 4122 281 4122 
L 131 4122 
L 131 4238 
L 3397 4238 
L 3444 3309 
L 3322 3309 
Q 3256 3644 3176 3769 
Q 3097 3894 2941 3959 
Q 2816 4006 2500 4006 
L 1338 4006 
z
" transform="scale(0.015625)"/>
       <path id="TimesNewRomanPSMT-6e" d="M 1034 2341 
Q 1538 2947 1994 2947 
Q 2228 2947 2397 2830 
Q 2566 2713 2666 2444 
Q 2734 2256 2734 1869 
L 2734 647 
Q 2734 375 2778 278 
Q 2813 200 2889 156 
Q 2966 113 3172 113 
L 3172 0 
L 1756 0 
L 1756 113 
L 1816 113 
Q 2016 113 2095 173 
Q 2175 234 2206 353 
Q 2219 400 2219 647 
L 2219 1819 
Q 2219 2209 2117 2386 
Q 2016 2563 1775 2563 
Q 1403 2563 1034 2156 
L 1034 647 
Q 1034 356 1069 288 
Q 1113 197 1189 155 
Q 1266 113 1500 113 
L 1500 0 
L 84 0 
L 84 113 
L 147 113 
Q 366 113 442 223 
Q 519 334 519 647 
L 519 1709 
Q 519 2225 495 2337 
Q 472 2450 423 2490 
Q 375 2531 294 2531 
Q 206 2531 84 2484 
L 38 2597 
L 900 2947 
L 1034 2947 
L 1034 2341 
z
" transform="scale(0.015625)"/>
       <path id="TimesNewRomanPSMT-76" d="M 53 2863 
L 1400 2863 
L 1400 2747 
L 1313 2747 
Q 1191 2747 1127 2687 
Q 1063 2628 1063 2528 
Q 1063 2419 1128 2269 
L 1794 688 
L 2463 2328 
Q 2534 2503 2534 2594 
Q 2534 2638 2509 2666 
Q 2475 2713 2422 2730 
Q 2369 2747 2206 2747 
L 2206 2863 
L 3141 2863 
L 3141 2747 
Q 2978 2734 2916 2681 
Q 2806 2588 2719 2369 
L 1703 -88 
L 1575 -88 
L 553 2328 
Q 484 2497 421 2570 
Q 359 2644 263 2694 
Q 209 2722 53 2747 
L 53 2863 
z
" transform="scale(0.015625)"/>
       <path id="TimesNewRomanPSMT-69" d="M 928 4444 
Q 1059 4444 1151 4351 
Q 1244 4259 1244 4128 
Q 1244 3997 1151 3903 
Q 1059 3809 928 3809 
Q 797 3809 703 3903 
Q 609 3997 609 4128 
Q 609 4259 701 4351 
Q 794 4444 928 4444 
z
M 1188 2947 
L 1188 647 
Q 1188 378 1227 289 
Q 1266 200 1342 156 
Q 1419 113 1622 113 
L 1622 0 
L 231 0 
L 231 113 
Q 441 113 512 153 
Q 584 194 626 287 
Q 669 381 669 647 
L 669 1750 
Q 669 2216 641 2353 
Q 619 2453 572 2492 
Q 525 2531 444 2531 
Q 356 2531 231 2484 
L 188 2597 
L 1050 2947 
L 1188 2947 
z
" transform="scale(0.015625)"/>
       <path id="TimesNewRomanPSMT-72" d="M 1038 2947 
L 1038 2303 
Q 1397 2947 1775 2947 
Q 1947 2947 2059 2842 
Q 2172 2738 2172 2600 
Q 2172 2478 2090 2393 
Q 2009 2309 1897 2309 
Q 1788 2309 1652 2417 
Q 1516 2525 1450 2525 
Q 1394 2525 1328 2463 
Q 1188 2334 1038 2041 
L 1038 669 
Q 1038 431 1097 309 
Q 1138 225 1241 169 
Q 1344 113 1538 113 
L 1538 0 
L 72 0 
L 72 113 
Q 291 113 397 181 
Q 475 231 506 341 
Q 522 394 522 644 
L 522 1753 
Q 522 2253 501 2348 
Q 481 2444 426 2487 
Q 372 2531 291 2531 
Q 194 2531 72 2484 
L 41 2597 
L 906 2947 
L 1038 2947 
z
" transform="scale(0.015625)"/>
       <path id="TimesNewRomanPSMT-6f" d="M 1600 2947 
Q 2250 2947 2644 2453 
Q 2978 2031 2978 1484 
Q 2978 1100 2793 706 
Q 2609 313 2286 112 
Q 1963 -88 1566 -88 
Q 919 -88 538 428 
Q 216 863 216 1403 
Q 216 1797 411 2186 
Q 606 2575 925 2761 
Q 1244 2947 1600 2947 
z
M 1503 2744 
Q 1338 2744 1170 2645 
Q 1003 2547 900 2300 
Q 797 2053 797 1666 
Q 797 1041 1045 587 
Q 1294 134 1700 134 
Q 2003 134 2200 384 
Q 2397 634 2397 1244 
Q 2397 2006 2069 2444 
Q 1847 2744 1503 2744 
z
" transform="scale(0.015625)"/>
       <path id="TimesNewRomanPSMT-6d" d="M 1050 2338 
Q 1363 2650 1419 2697 
Q 1559 2816 1721 2881 
Q 1884 2947 2044 2947 
Q 2313 2947 2506 2790 
Q 2700 2634 2766 2338 
Q 3088 2713 3309 2830 
Q 3531 2947 3766 2947 
Q 3994 2947 4170 2830 
Q 4347 2713 4450 2447 
Q 4519 2266 4519 1878 
L 4519 647 
Q 4519 378 4559 278 
Q 4591 209 4675 161 
Q 4759 113 4950 113 
L 4950 0 
L 3538 0 
L 3538 113 
L 3597 113 
Q 3781 113 3884 184 
Q 3956 234 3988 344 
Q 4000 397 4000 647 
L 4000 1878 
Q 4000 2228 3916 2372 
Q 3794 2572 3525 2572 
Q 3359 2572 3192 2489 
Q 3025 2406 2788 2181 
L 2781 2147 
L 2788 2013 
L 2788 647 
Q 2788 353 2820 281 
Q 2853 209 2943 161 
Q 3034 113 3253 113 
L 3253 0 
L 1806 0 
L 1806 113 
Q 2044 113 2133 169 
Q 2222 225 2256 338 
Q 2272 391 2272 647 
L 2272 1878 
Q 2272 2228 2169 2381 
Q 2031 2581 1784 2581 
Q 1616 2581 1450 2491 
Q 1191 2353 1050 2181 
L 1050 647 
Q 1050 366 1089 281 
Q 1128 197 1204 155 
Q 1281 113 1516 113 
L 1516 0 
L 100 0 
L 100 113 
Q 297 113 375 155 
Q 453 197 493 289 
Q 534 381 534 647 
L 534 1741 
Q 534 2213 506 2350 
Q 484 2453 437 2492 
Q 391 2531 309 2531 
Q 222 2531 100 2484 
L 53 2597 
L 916 2947 
L 1050 2947 
L 1050 2338 
z
" transform="scale(0.015625)"/>
       <path id="TimesNewRomanPSMT-65" d="M 681 1784 
Q 678 1147 991 784 
Q 1303 422 1725 422 
Q 2006 422 2214 576 
Q 2422 731 2563 1106 
L 2659 1044 
Q 2594 616 2278 264 
Q 1963 -88 1488 -88 
Q 972 -88 605 314 
Q 238 716 238 1394 
Q 238 2128 614 2539 
Q 991 2950 1559 2950 
Q 2041 2950 2350 2633 
Q 2659 2316 2659 1784 
L 681 1784 
z
M 681 1966 
L 2006 1966 
Q 1991 2241 1941 2353 
Q 1863 2528 1708 2628 
Q 1553 2728 1384 2728 
Q 1125 2728 920 2526 
Q 716 2325 681 1966 
z
" transform="scale(0.015625)"/>
       <path id="TimesNewRomanPSMT-74" d="M 1031 3803 
L 1031 2863 
L 1700 2863 
L 1700 2644 
L 1031 2644 
L 1031 788 
Q 1031 509 1111 412 
Q 1191 316 1316 316 
Q 1419 316 1516 380 
Q 1613 444 1666 569 
L 1788 569 
Q 1678 263 1478 108 
Q 1278 -47 1066 -47 
Q 922 -47 784 33 
Q 647 113 581 261 
Q 516 409 516 719 
L 516 2644 
L 63 2644 
L 63 2747 
Q 234 2816 414 2980 
Q 594 3144 734 3369 
Q 806 3488 934 3803 
L 1031 3803 
z
" transform="scale(0.015625)"/>
       <path id="TimesNewRomanPSMT-20" transform="scale(0.015625)"/>
       <path id="TimesNewRomanPSMT-53" d="M 2934 4334 
L 2934 2869 
L 2819 2869 
Q 2763 3291 2617 3541 
Q 2472 3791 2203 3937 
Q 1934 4084 1647 4084 
Q 1322 4084 1109 3886 
Q 897 3688 897 3434 
Q 897 3241 1031 3081 
Q 1225 2847 1953 2456 
Q 2547 2138 2764 1967 
Q 2981 1797 3098 1565 
Q 3216 1334 3216 1081 
Q 3216 600 2842 251 
Q 2469 -97 1881 -97 
Q 1697 -97 1534 -69 
Q 1438 -53 1133 45 
Q 828 144 747 144 
Q 669 144 623 97 
Q 578 50 556 -97 
L 441 -97 
L 441 1356 
L 556 1356 
Q 638 900 775 673 
Q 913 447 1195 297 
Q 1478 147 1816 147 
Q 2206 147 2432 353 
Q 2659 559 2659 841 
Q 2659 997 2573 1156 
Q 2488 1316 2306 1453 
Q 2184 1547 1640 1851 
Q 1097 2156 867 2337 
Q 638 2519 519 2737 
Q 400 2956 400 3219 
Q 400 3675 750 4004 
Q 1100 4334 1641 4334 
Q 1978 4334 2356 4169 
Q 2531 4091 2603 4091 
Q 2684 4091 2736 4139 
Q 2788 4188 2819 4334 
L 2934 4334 
z
" transform="scale(0.015625)"/>
       <path id="TimesNewRomanPSMT-70" d="M -6 2578 
L 875 2934 
L 994 2934 
L 994 2266 
Q 1216 2644 1439 2795 
Q 1663 2947 1909 2947 
Q 2341 2947 2628 2609 
Q 2981 2197 2981 1534 
Q 2981 794 2556 309 
Q 2206 -88 1675 -88 
Q 1444 -88 1275 -22 
Q 1150 25 994 166 
L 994 -706 
Q 994 -1000 1030 -1079 
Q 1066 -1159 1155 -1206 
Q 1244 -1253 1478 -1253 
L 1478 -1369 
L -22 -1369 
L -22 -1253 
L 56 -1253 
Q 228 -1256 350 -1188 
Q 409 -1153 442 -1076 
Q 475 -1000 475 -688 
L 475 2019 
Q 475 2297 450 2372 
Q 425 2447 370 2484 
Q 316 2522 222 2522 
Q 147 2522 31 2478 
L -6 2578 
z
M 994 2081 
L 994 1013 
Q 994 666 1022 556 
Q 1066 375 1236 237 
Q 1406 100 1666 100 
Q 1978 100 2172 344 
Q 2425 663 2425 1241 
Q 2425 1897 2138 2250 
Q 1938 2494 1663 2494 
Q 1513 2494 1366 2419 
Q 1253 2363 994 2081 
z
" transform="scale(0.015625)"/>
       <path id="TimesNewRomanPSMT-73" d="M 2050 2947 
L 2050 1972 
L 1947 1972 
Q 1828 2431 1642 2597 
Q 1456 2763 1169 2763 
Q 950 2763 815 2647 
Q 681 2531 681 2391 
Q 681 2216 781 2091 
Q 878 1963 1175 1819 
L 1631 1597 
Q 2266 1288 2266 781 
Q 2266 391 1970 151 
Q 1675 -88 1309 -88 
Q 1047 -88 709 6 
Q 606 38 541 38 
Q 469 38 428 -44 
L 325 -44 
L 325 978 
L 428 978 
Q 516 541 762 319 
Q 1009 97 1316 97 
Q 1531 97 1667 223 
Q 1803 350 1803 528 
Q 1803 744 1651 891 
Q 1500 1038 1047 1263 
Q 594 1488 453 1669 
Q 313 1847 313 2119 
Q 313 2472 555 2709 
Q 797 2947 1181 2947 
Q 1350 2947 1591 2875 
Q 1750 2828 1803 2828 
Q 1853 2828 1881 2850 
Q 1909 2872 1947 2947 
L 2050 2947 
z
" transform="scale(0.015625)"/>
      </defs>
      <use xlink:href="#TimesNewRomanPSMT-45"/>
      <use xlink:href="#TimesNewRomanPSMT-6e" transform="translate(61.083984 0)"/>
      <use xlink:href="#TimesNewRomanPSMT-76" transform="translate(111.083984 0)"/>
      <use xlink:href="#TimesNewRomanPSMT-69" transform="translate(161.083984 0)"/>
      <use xlink:href="#TimesNewRomanPSMT-72" transform="translate(188.867188 0)"/>
      <use xlink:href="#TimesNewRomanPSMT-6f" transform="translate(222.167969 0)"/>
      <use xlink:href="#TimesNewRomanPSMT-6e" transform="translate(272.167969 0)"/>
      <use xlink:href="#TimesNewRomanPSMT-6d" transform="translate(322.167969 0)"/>
      <use xlink:href="#TimesNewRomanPSMT-65" transform="translate(399.951172 0)"/>
      <use xlink:href="#TimesNewRomanPSMT-6e" transform="translate(444.335938 0)"/>
      <use xlink:href="#TimesNewRomanPSMT-74" transform="translate(494.335938 0)"/>
      <use xlink:href="#TimesNewRomanPSMT-20" transform="translate(522.119141 0)"/>
      <use xlink:href="#TimesNewRomanPSMT-53" transform="translate(547.119141 0)"/>
      <use xlink:href="#TimesNewRomanPSMT-74" transform="translate(602.734375 0)"/>
      <use xlink:href="#TimesNewRomanPSMT-65" transform="translate(630.517578 0)"/>
      <use xlink:href="#TimesNewRomanPSMT-70" transform="translate(674.902344 0)"/>
      <use xlink:href="#TimesNewRomanPSMT-73" transform="translate(724.902344 0)"/>
     </g>
    </g>
   </g>
   <g id="matplotlib.axis_2">
    <g id="ytick_1">
     <g id="line2d_13">
      <path d="M 44.099375 263.858706 
L 505.19952 263.858706 
" clip-path="url(#p4acb636c8d)" style="fill: none; stroke: #e0e0e0; stroke-opacity: 0.7; stroke-width: 0.6; stroke-linecap: square"/>
     </g>
     <g id="line2d_14">
      <defs>
       <path id="mfa27e3be4c" d="M 0 0 
L -3.5 0 
" style="stroke: #000000"/>
      </defs>
      <g>
       <use xlink:href="#mfa27e3be4c" x="44.099375" y="263.858706" style="stroke: #000000"/>
      </g>
     </g>
     <g id="text_8">
      <!-- 100 -->
      <g transform="translate(22.099375 267.330581) scale(0.1 -0.1)">
       <use xlink:href="#TimesNewRomanPSMT-31"/>
       <use xlink:href="#TimesNewRomanPSMT-30" transform="translate(50 0)"/>
       <use xlink:href="#TimesNewRomanPSMT-30" transform="translate(100 0)"/>
      </g>
     </g>
    </g>
    <g id="ytick_2">
     <g id="line2d_15">
      <path d="M 44.099375 229.25212 
L 505.19952 229.25212 
" clip-path="url(#p4acb636c8d)" style="fill: none; stroke: #e0e0e0; stroke-opacity: 0.7; stroke-width: 0.6; stroke-linecap: square"/>
     </g>
     <g id="line2d_16">
      <g>
       <use xlink:href="#mfa27e3be4c" x="44.099375" y="229.25212" style="stroke: #000000"/>
      </g>
     </g>
     <g id="text_9">
      <!-- 200 -->
      <g transform="translate(22.099375 232.723995) scale(0.1 -0.1)">
       <use xlink:href="#TimesNewRomanPSMT-32"/>
       <use xlink:href="#TimesNewRomanPSMT-30" transform="translate(50 0)"/>
       <use xlink:href="#TimesNewRomanPSMT-30" transform="translate(100 0)"/>
      </g>
     </g>
    </g>
    <g id="ytick_3">
     <g id="line2d_17">
      <path d="M 44.099375 194.645535 
L 505.19952 194.645535 
" clip-path="url(#p4acb636c8d)" style="fill: none; stroke: #e0e0e0; stroke-opacity: 0.7; stroke-width: 0.6; stroke-linecap: square"/>
     </g>
     <g id="line2d_18">
      <g>
       <use xlink:href="#mfa27e3be4c" x="44.099375" y="194.645535" style="stroke: #000000"/>
      </g>
     </g>
     <g id="text_10">
      <!-- 300 -->
      <g transform="translate(22.099375 198.11741) scale(0.1 -0.1)">
       <defs>
        <path id="TimesNewRomanPSMT-33" d="M 325 3431 
Q 506 3859 782 4092 
Q 1059 4325 1472 4325 
Q 1981 4325 2253 3994 
Q 2459 3747 2459 3466 
Q 2459 3003 1878 2509 
Q 2269 2356 2469 2072 
Q 2669 1788 2669 1403 
Q 2669 853 2319 450 
Q 1863 -75 997 -75 
Q 569 -75 414 31 
Q 259 138 259 259 
Q 259 350 332 419 
Q 406 488 509 488 
Q 588 488 669 463 
Q 722 447 909 348 
Q 1097 250 1169 231 
Q 1284 197 1416 197 
Q 1734 197 1970 444 
Q 2206 691 2206 1028 
Q 2206 1275 2097 1509 
Q 2016 1684 1919 1775 
Q 1784 1900 1550 2001 
Q 1316 2103 1072 2103 
L 972 2103 
L 972 2197 
Q 1219 2228 1467 2375 
Q 1716 2522 1828 2728 
Q 1941 2934 1941 3181 
Q 1941 3503 1739 3701 
Q 1538 3900 1238 3900 
Q 753 3900 428 3381 
L 325 3431 
z
" transform="scale(0.015625)"/>
       </defs>
       <use xlink:href="#TimesNewRomanPSMT-33"/>
       <use xlink:href="#TimesNewRomanPSMT-30" transform="translate(50 0)"/>
       <use xlink:href="#TimesNewRomanPSMT-30" transform="translate(100 0)"/>
      </g>
     </g>
    </g>
    <g id="ytick_4">
     <g id="line2d_19">
      <path d="M 44.099375 160.038949 
L 505.19952 160.038949 
" clip-path="url(#p4acb636c8d)" style="fill: none; stroke: #e0e0e0; stroke-opacity: 0.7; stroke-width: 0.6; stroke-linecap: square"/>
     </g>
     <g id="line2d_20">
      <g>
       <use xlink:href="#mfa27e3be4c" x="44.099375" y="160.038949" style="stroke: #000000"/>
      </g>
     </g>
     <g id="text_11">
      <!-- 400 -->
      <g transform="translate(22.099375 163.510824) scale(0.1 -0.1)">
       <use xlink:href="#TimesNewRomanPSMT-34"/>
       <use xlink:href="#TimesNewRomanPSMT-30" transform="translate(50 0)"/>
       <use xlink:href="#TimesNewRomanPSMT-30" transform="translate(100 0)"/>
      </g>
     </g>
    </g>
    <g id="ytick_5">
     <g id="line2d_21">
      <path d="M 44.099375 125.432364 
L 505.19952 125.432364 
" clip-path="url(#p4acb636c8d)" style="fill: none; stroke: #e0e0e0; stroke-opacity: 0.7; stroke-width: 0.6; stroke-linecap: square"/>
     </g>
     <g id="line2d_22">
      <g>
       <use xlink:href="#mfa27e3be4c" x="44.099375" y="125.432364" style="stroke: #000000"/>
      </g>
     </g>
     <g id="text_12">
      <!-- 500 -->
      <g transform="translate(22.099375 128.904239) scale(0.1 -0.1)">
       <defs>
        <path id="TimesNewRomanPSMT-35" d="M 2778 4238 
L 2534 3706 
L 1259 3706 
L 981 3138 
Q 1809 3016 2294 2522 
Q 2709 2097 2709 1522 
Q 2709 1188 2573 903 
Q 2438 619 2231 419 
Q 2025 219 1772 97 
Q 1413 -75 1034 -75 
Q 653 -75 479 54 
Q 306 184 306 341 
Q 306 428 378 495 
Q 450 563 559 563 
Q 641 563 702 538 
Q 763 513 909 409 
Q 1144 247 1384 247 
Q 1750 247 2026 523 
Q 2303 800 2303 1197 
Q 2303 1581 2056 1914 
Q 1809 2247 1375 2428 
Q 1034 2569 447 2591 
L 1259 4238 
L 2778 4238 
z
" transform="scale(0.015625)"/>
       </defs>
       <use xlink:href="#TimesNewRomanPSMT-35"/>
       <use xlink:href="#TimesNewRomanPSMT-30" transform="translate(50 0)"/>
       <use xlink:href="#TimesNewRomanPSMT-30" transform="translate(100 0)"/>
      </g>
     </g>
    </g>
    <g id="ytick_6">
     <g id="line2d_23">
      <path d="M 44.099375 90.825779 
L 505.19952 90.825779 
" clip-path="url(#p4acb636c8d)" style="fill: none; stroke: #e0e0e0; stroke-opacity: 0.7; stroke-width: 0.6; stroke-linecap: square"/>
     </g>
     <g id="line2d_24">
      <g>
       <use xlink:href="#mfa27e3be4c" x="44.099375" y="90.825779" style="stroke: #000000"/>
      </g>
     </g>
     <g id="text_13">
      <!-- 600 -->
      <g transform="translate(22.099375 94.297654) scale(0.1 -0.1)">
       <use xlink:href="#TimesNewRomanPSMT-36"/>
       <use xlink:href="#TimesNewRomanPSMT-30" transform="translate(50 0)"/>
       <use xlink:href="#TimesNewRomanPSMT-30" transform="translate(100 0)"/>
      </g>
     </g>
    </g>
    <g id="ytick_7">
     <g id="line2d_25">
      <path d="M 44.099375 56.219193 
L 505.19952 56.219193 
" clip-path="url(#p4acb636c8d)" style="fill: none; stroke: #e0e0e0; stroke-opacity: 0.7; stroke-width: 0.6; stroke-linecap: square"/>
     </g>
     <g id="line2d_26">
      <g>
       <use xlink:href="#mfa27e3be4c" x="44.099375" y="56.219193" style="stroke: #000000"/>
      </g>
     </g>
     <g id="text_14">
      <!-- 700 -->
      <g transform="translate(22.099375 59.691068) scale(0.1 -0.1)">
       <defs>
        <path id="TimesNewRomanPSMT-37" d="M 644 4238 
L 2916 4238 
L 2916 4119 
L 1503 -88 
L 1153 -88 
L 2419 3728 
L 1253 3728 
Q 900 3728 750 3644 
Q 488 3500 328 3200 
L 238 3234 
L 644 4238 
z
" transform="scale(0.015625)"/>
       </defs>
       <use xlink:href="#TimesNewRomanPSMT-37"/>
       <use xlink:href="#TimesNewRomanPSMT-30" transform="translate(50 0)"/>
       <use xlink:href="#TimesNewRomanPSMT-30" transform="translate(100 0)"/>
      </g>
     </g>
    </g>
    <g id="text_15">
     <!-- Mean Evaluation Reward -->
     <g transform="translate(15.5325 219.536479) rotate(-90) scale(0.12 -0.12)">
      <defs>
       <path id="TimesNewRomanPSMT-61" d="M 1822 413 
Q 1381 72 1269 19 
Q 1100 -59 909 -59 
Q 613 -59 420 144 
Q 228 347 228 678 
Q 228 888 322 1041 
Q 450 1253 767 1440 
Q 1084 1628 1822 1897 
L 1822 2009 
Q 1822 2438 1686 2597 
Q 1550 2756 1291 2756 
Q 1094 2756 978 2650 
Q 859 2544 859 2406 
L 866 2225 
Q 866 2081 792 2003 
Q 719 1925 600 1925 
Q 484 1925 411 2006 
Q 338 2088 338 2228 
Q 338 2497 613 2722 
Q 888 2947 1384 2947 
Q 1766 2947 2009 2819 
Q 2194 2722 2281 2516 
Q 2338 2381 2338 1966 
L 2338 994 
Q 2338 584 2353 492 
Q 2369 400 2405 369 
Q 2441 338 2488 338 
Q 2538 338 2575 359 
Q 2641 400 2828 588 
L 2828 413 
Q 2478 -56 2159 -56 
Q 2006 -56 1915 50 
Q 1825 156 1822 413 
z
M 1822 616 
L 1822 1706 
Q 1350 1519 1213 1441 
Q 966 1303 859 1153 
Q 753 1003 753 825 
Q 753 600 887 451 
Q 1022 303 1197 303 
Q 1434 303 1822 616 
z
" transform="scale(0.015625)"/>
       <path id="TimesNewRomanPSMT-6c" d="M 1184 4444 
L 1184 647 
Q 1184 378 1223 290 
Q 1263 203 1344 158 
Q 1425 113 1647 113 
L 1647 0 
L 244 0 
L 244 113 
Q 441 113 512 153 
Q 584 194 625 287 
Q 666 381 666 647 
L 666 3247 
Q 666 3731 644 3842 
Q 622 3953 573 3993 
Q 525 4034 450 4034 
Q 369 4034 244 3984 
L 191 4094 
L 1044 4444 
L 1184 4444 
z
" transform="scale(0.015625)"/>
       <path id="TimesNewRomanPSMT-75" d="M 2709 2863 
L 2709 1128 
Q 2709 631 2732 520 
Q 2756 409 2807 365 
Q 2859 322 2928 322 
Q 3025 322 3147 375 
L 3191 266 
L 2334 -88 
L 2194 -88 
L 2194 519 
Q 1825 119 1631 15 
Q 1438 -88 1222 -88 
Q 981 -88 804 51 
Q 628 191 559 409 
Q 491 628 491 1028 
L 491 2306 
Q 491 2509 447 2587 
Q 403 2666 317 2708 
Q 231 2750 6 2747 
L 6 2863 
L 1009 2863 
L 1009 947 
Q 1009 547 1148 422 
Q 1288 297 1484 297 
Q 1619 297 1789 381 
Q 1959 466 2194 703 
L 2194 2325 
Q 2194 2569 2105 2655 
Q 2016 2741 1734 2747 
L 1734 2863 
L 2709 2863 
z
" transform="scale(0.015625)"/>
       <path id="TimesNewRomanPSMT-52" d="M 4325 0 
L 3194 0 
L 1759 1981 
Q 1600 1975 1500 1975 
Q 1459 1975 1412 1976 
Q 1366 1978 1316 1981 
L 1316 750 
Q 1316 350 1403 253 
Q 1522 116 1759 116 
L 1925 116 
L 1925 0 
L 109 0 
L 109 116 
L 269 116 
Q 538 116 653 291 
Q 719 388 719 750 
L 719 3488 
Q 719 3888 631 3984 
Q 509 4122 269 4122 
L 109 4122 
L 109 4238 
L 1653 4238 
Q 2328 4238 2648 4139 
Q 2969 4041 3192 3777 
Q 3416 3513 3416 3147 
Q 3416 2756 3161 2468 
Q 2906 2181 2372 2063 
L 3247 847 
Q 3547 428 3762 290 
Q 3978 153 4325 116 
L 4325 0 
z
M 1316 2178 
Q 1375 2178 1419 2176 
Q 1463 2175 1491 2175 
Q 2097 2175 2405 2437 
Q 2713 2700 2713 3106 
Q 2713 3503 2464 3751 
Q 2216 4000 1806 4000 
Q 1625 4000 1316 3941 
L 1316 2178 
z
" transform="scale(0.015625)"/>
       <path id="TimesNewRomanPSMT-77" d="M 41 2863 
L 1241 2863 
L 1241 2747 
Q 1075 2734 1023 2687 
Q 972 2641 972 2553 
Q 972 2456 1025 2319 
L 1638 672 
L 2253 2013 
L 2091 2434 
Q 2016 2622 1894 2694 
Q 1825 2738 1638 2747 
L 1638 2863 
L 3000 2863 
L 3000 2747 
Q 2775 2738 2681 2666 
Q 2619 2616 2619 2506 
Q 2619 2444 2644 2378 
L 3294 734 
L 3897 2319 
Q 3959 2488 3959 2588 
Q 3959 2647 3898 2694 
Q 3838 2741 3659 2747 
L 3659 2863 
L 4563 2863 
L 4563 2747 
Q 4291 2706 4163 2378 
L 3206 -88 
L 3078 -88 
L 2363 1741 
L 1528 -88 
L 1413 -88 
L 494 2319 
Q 403 2547 315 2626 
Q 228 2706 41 2747 
L 41 2863 
z
" transform="scale(0.015625)"/>
       <path id="TimesNewRomanPSMT-64" d="M 2222 322 
Q 2013 103 1813 7 
Q 1613 -88 1381 -88 
Q 913 -88 563 304 
Q 213 697 213 1313 
Q 213 1928 600 2439 
Q 988 2950 1597 2950 
Q 1975 2950 2222 2709 
L 2222 3238 
Q 2222 3728 2198 3840 
Q 2175 3953 2125 3993 
Q 2075 4034 2000 4034 
Q 1919 4034 1784 3984 
L 1744 4094 
L 2597 4444 
L 2738 4444 
L 2738 1134 
Q 2738 631 2761 520 
Q 2784 409 2836 365 
Q 2888 322 2956 322 
Q 3041 322 3181 375 
L 3216 266 
L 2366 -88 
L 2222 -88 
L 2222 322 
z
M 2222 541 
L 2222 2016 
Q 2203 2228 2109 2403 
Q 2016 2578 1861 2667 
Q 1706 2756 1559 2756 
Q 1284 2756 1069 2509 
Q 784 2184 784 1559 
Q 784 928 1059 592 
Q 1334 256 1672 256 
Q 1956 256 2222 541 
z
" transform="scale(0.015625)"/>
      </defs>
      <use xlink:href="#TimesNewRomanPSMT-4d"/>
      <use xlink:href="#TimesNewRomanPSMT-65" transform="translate(88.916016 0)"/>
      <use xlink:href="#TimesNewRomanPSMT-61" transform="translate(133.300781 0)"/>
      <use xlink:href="#TimesNewRomanPSMT-6e" transform="translate(177.685547 0)"/>
      <use xlink:href="#TimesNewRomanPSMT-20" transform="translate(227.685547 0)"/>
      <use xlink:href="#TimesNewRomanPSMT-45" transform="translate(252.685547 0)"/>
      <use xlink:href="#TimesNewRomanPSMT-76" transform="translate(313.769531 0)"/>
      <use xlink:href="#TimesNewRomanPSMT-61" transform="translate(363.769531 0)"/>
      <use xlink:href="#TimesNewRomanPSMT-6c" transform="translate(408.154297 0)"/>
      <use xlink:href="#TimesNewRomanPSMT-75" transform="translate(435.9375 0)"/>
      <use xlink:href="#TimesNewRomanPSMT-61" transform="translate(485.9375 0)"/>
      <use xlink:href="#TimesNewRomanPSMT-74" transform="translate(530.322266 0)"/>
      <use xlink:href="#TimesNewRomanPSMT-69" transform="translate(558.105469 0)"/>
      <use xlink:href="#TimesNewRomanPSMT-6f" transform="translate(585.888672 0)"/>
      <use xlink:href="#TimesNewRomanPSMT-6e" transform="translate(635.888672 0)"/>
      <use xlink:href="#TimesNewRomanPSMT-20" transform="translate(685.888672 0)"/>
      <use xlink:href="#TimesNewRomanPSMT-52" transform="translate(710.888672 0)"/>
      <use xlink:href="#TimesNewRomanPSMT-65" transform="translate(777.587891 0)"/>
      <use xlink:href="#TimesNewRomanPSMT-77" transform="translate(821.972656 0)"/>
      <use xlink:href="#TimesNewRomanPSMT-61" transform="translate(894.189453 0)"/>
      <use xlink:href="#TimesNewRomanPSMT-72" transform="translate(938.574219 0)"/>
      <use xlink:href="#TimesNewRomanPSMT-64" transform="translate(971.875 0)"/>
     </g>
    </g>
   </g>
   <g id="line2d_27">
    <path d="M 65.058473 281.85413 
L 69.292634 256.41829 
L 73.526795 217.312848 
L 77.760956 255.380092 
L 81.995117 274.932813 
L 86.229278 249.670006 
L 90.463439 273.894615 
L 94.6976 219.043177 
L 98.931761 230.117285 
L 103.165923 262.301409 
L 107.400084 202.778082 
L 111.634245 247.59361 
L 115.868406 178.207407 
L 120.102567 266.800265 
L 124.336728 202.778082 
L 128.570889 223.715067 
L 132.80505 235.13524 
L 137.039211 124.913265 
L 141.273373 199.490457 
L 145.507534 192.050041 
L 149.741695 219.562276 
L 153.975856 197.760128 
L 158.210017 216.447684 
L 162.444178 144.985085 
L 166.678339 163.499608 
L 170.9125 169.901826 
L 175.146661 204.854477 
L 179.380823 207.623004 
L 183.614984 178.899538 
L 187.849145 202.605049 
L 192.083306 212.12186 
L 196.317467 205.892675 
L 200.551628 211.256696 
L 204.785789 178.553473 
L 209.01995 191.877008 
L 213.254111 163.672641 
L 217.488273 234.789174 
L 221.722434 227.694824 
L 225.956595 175.957979 
L 230.190756 235.308273 
L 234.424917 198.279226 
L 238.659078 159.692884 
L 242.893239 185.128724 
L 247.1274 184.263559 
L 251.361561 191.184876 
L 255.595723 166.960267 
L 259.829884 127.335726 
L 264.064045 200.355621 
L 268.298206 211.602762 
L 272.532367 161.769279 
L 276.766528 187.724218 
L 281.000689 233.577943 
L 285.23485 137.544669 
L 289.469011 183.571428 
L 293.703173 176.65011 
L 297.937334 138.755899 
L 302.171495 142.735657 
L 306.405656 171.28609 
L 310.639817 146.542381 
L 314.873978 110.032434 
L 319.108139 109.340302 
L 323.3423 195.164634 
L 327.576461 120.760475 
L 331.810623 125.432364 
L 336.044784 157.616489 
L 340.278945 203.81628 
L 344.513106 93.594306 
L 348.747267 161.769279 
L 352.981428 119.549245 
L 357.215589 101.726853 
L 361.44975 98.439228 
L 365.683911 126.470562 
L 369.918073 152.425501 
L 374.152234 107.956039 
L 378.386395 165.229937 
L 382.620556 174.054617 
L 386.854717 161.25018 
L 391.088878 128.893023 
L 395.323039 60.71805 
L 399.5572 101.55382 
L 403.791361 98.785293 
L 408.025523 65.909037 
L 412.259684 129.93122 
L 416.493845 124.740232 
L 420.728006 116.088586 
L 424.962167 130.623352 
L 429.196328 99.823491 
L 433.430489 98.785293 
L 437.66465 139.96713 
L 441.898811 106.744808 
L 446.132973 83.558396 
L 450.367134 94.805536 
L 454.601295 34.590078 
L 458.835456 140.313196 
L 463.069617 114.704323 
L 467.303778 131.142451 
L 471.537939 134.430076 
L 475.7721 153.636731 
L 480.006261 115.223421 
L 484.240423 176.823143 
" clip-path="url(#p4acb636c8d)" style="fill: none; stroke: #b5ead7; stroke-opacity: 0.3; stroke-width: 0.8; stroke-linecap: square"/>
   </g>
   <g id="line2d_28">
    <path d="M 65.058473 263.858706 
L 69.292634 258.563898 
L 73.526795 257.179635 
L 77.760956 250.74281 
L 81.995117 254.238075 
L 86.229278 254.584141 
L 90.463439 249.531579 
L 94.6976 247.005298 
L 98.931761 237.626914 
L 103.165923 232.366713 
L 107.400084 224.199559 
L 111.634245 231.536155 
L 115.868406 219.631489 
L 120.102567 223.818886 
L 124.336728 221.327212 
L 128.570889 210.668384 
L 132.80505 197.206422 
L 137.039211 195.060814 
L 141.273373 194.230256 
L 145.507534 186.755233 
L 149.741695 205.062117 
L 153.975856 194.161043 
L 158.210017 188.450956 
L 162.444178 178.518866 
L 166.678339 179.937736 
L 170.9125 178.1728 
L 175.146661 184.955691 
L 179.380823 192.776779 
L 183.614984 201.220786 
L 187.849145 201.428426 
L 192.083306 202.155164 
L 196.317467 202.085951 
L 200.551628 199.940342 
L 204.785789 190.250498 
L 209.01995 196.029798 
L 213.254111 199.317424 
L 217.488273 198.798325 
L 221.722434 207.484578 
L 225.956595 214.405895 
L 230.190756 199.386637 
L 234.424917 190.873417 
L 238.659078 192.534533 
L 242.893239 183.709854 
L 247.1274 177.446062 
L 251.361561 170.97463 
L 255.595723 174.02001 
L 259.829884 179.48785 
L 264.064045 173.604731 
L 268.298206 177.757521 
L 272.532367 199.005965 
L 276.766528 186.443774 
L 281.000689 180.837507 
L 285.23485 183.813674 
L 289.469011 174.02001 
L 293.703173 155.851553 
L 297.937334 162.599837 
L 302.171495 155.194028 
L 306.405656 141.870492 
L 310.639817 135.987373 
L 314.873978 146.473168 
L 319.108139 136.368045 
L 323.3423 132.146042 
L 327.576461 141.662853 
L 331.810623 160.558048 
L 336.044784 140.243983 
L 340.278945 148.445743 
L 344.513106 147.269119 
L 348.747267 136.091192 
L 352.981428 115.015782 
L 357.215589 121.591033 
L 361.44975 119.722278 
L 365.683911 117.403636 
L 369.918073 130.104253 
L 374.152234 145.227331 
L 378.386395 152.183255 
L 382.620556 147.476759 
L 386.854717 138.029161 
L 391.088878 125.293938 
L 395.323039 110.240073 
L 399.5572 91.171845 
L 403.791361 91.379484 
L 408.025523 104.183921 
L 412.259684 107.090874 
L 416.493845 113.458486 
L 420.728006 120.241376 
L 424.962167 114.012191 
L 429.196328 117.05757 
L 433.430489 115.188815 
L 437.66465 105.775824 
L 441.898811 104.772233 
L 446.132973 91.93319 
L 450.367134 92.002403 
L 454.601295 93.594306 
L 458.835456 103.111117 
L 463.069617 111.036025 
L 467.303778 134.845355 
L 471.537939 129.8274 
L 475.7721 142.251165 
L 480.006261 151.387303 
L 484.240423 159.865917 
" clip-path="url(#p4acb636c8d)" style="fill: none; stroke: #b5ead7; stroke-width: 2; stroke-linecap: square"/>
    <defs>
     <path id="m098b32f995" d="M 0 -2 
L -2 2 
L 2 2 
z
" style="stroke: #1a1a1a; stroke-width: 0.8; stroke-linejoin: miter"/>
    </defs>
    <g clip-path="url(#p4acb636c8d)">
     <use xlink:href="#m098b32f995" x="65.058473" y="263.858706" style="fill: #b5ead7; stroke: #1a1a1a; stroke-width: 0.8; stroke-linejoin: miter"/>
     <use xlink:href="#m098b32f995" x="90.463439" y="249.531579" style="fill: #b5ead7; stroke: #1a1a1a; stroke-width: 0.8; stroke-linejoin: miter"/>
     <use xlink:href="#m098b32f995" x="115.868406" y="219.631489" style="fill: #b5ead7; stroke: #1a1a1a; stroke-width: 0.8; stroke-linejoin: miter"/>
     <use xlink:href="#m098b32f995" x="141.273373" y="194.230256" style="fill: #b5ead7; stroke: #1a1a1a; stroke-width: 0.8; stroke-linejoin: miter"/>
     <use xlink:href="#m098b32f995" x="166.678339" y="179.937736" style="fill: #b5ead7; stroke: #1a1a1a; stroke-width: 0.8; stroke-linejoin: miter"/>
     <use xlink:href="#m098b32f995" x="192.083306" y="202.155164" style="fill: #b5ead7; stroke: #1a1a1a; stroke-width: 0.8; stroke-linejoin: miter"/>
     <use xlink:href="#m098b32f995" x="217.488273" y="198.798325" style="fill: #b5ead7; stroke: #1a1a1a; stroke-width: 0.8; stroke-linejoin: miter"/>
     <use xlink:href="#m098b32f995" x="242.893239" y="183.709854" style="fill: #b5ead7; stroke: #1a1a1a; stroke-width: 0.8; stroke-linejoin: miter"/>
     <use xlink:href="#m098b32f995" x="268.298206" y="177.757521" style="fill: #b5ead7; stroke: #1a1a1a; stroke-width: 0.8; stroke-linejoin: miter"/>
     <use xlink:href="#m098b32f995" x="293.703173" y="155.851553" style="fill: #b5ead7; stroke: #1a1a1a; stroke-width: 0.8; stroke-linejoin: miter"/>
     <use xlink:href="#m098b32f995" x="319.108139" y="136.368045" style="fill: #b5ead7; stroke: #1a1a1a; stroke-width: 0.8; stroke-linejoin: miter"/>
     <use xlink:href="#m098b32f995" x="344.513106" y="147.269119" style="fill: #b5ead7; stroke: #1a1a1a; stroke-width: 0.8; stroke-linejoin: miter"/>
     <use xlink:href="#m098b32f995" x="369.918073" y="130.104253" style="fill: #b5ead7; stroke: #1a1a1a; stroke-width: 0.8; stroke-linejoin: miter"/>
     <use xlink:href="#m098b32f995" x="395.323039" y="110.240073" style="fill: #b5ead7; stroke: #1a1a1a; stroke-width: 0.8; stroke-linejoin: miter"/>
     <use xlink:href="#m098b32f995" x="420.728006" y="120.241376" style="fill: #b5ead7; stroke: #1a1a1a; stroke-width: 0.8; stroke-linejoin: miter"/>
     <use xlink:href="#m098b32f995" x="446.132973" y="91.93319" style="fill: #b5ead7; stroke: #1a1a1a; stroke-width: 0.8; stroke-linejoin: miter"/>
     <use xlink:href="#m098b32f995" x="471.537939" y="129.8274" style="fill: #b5ead7; stroke: #1a1a1a; stroke-width: 0.8; stroke-linejoin: miter"/>
    </g>
   </g>
   <g id="patch_3">
    <path d="M 44.099375 294.217332 
L 44.099375 22.226875 
" style="fill: none; stroke: #1a1a1a; stroke-width: 1.2; stroke-linejoin: miter; stroke-linecap: square"/>
   </g>
   <g id="patch_4">
    <path d="M 505.19952 294.217332 
L 505.19952 22.226875 
" style="fill: none; stroke: #1a1a1a; stroke-width: 1.2; stroke-linejoin: miter; stroke-linecap: square"/>
   </g>
   <g id="patch_5">
    <path d="M 44.099375 294.217332 
L 505.19952 294.217332 
" style="fill: none; stroke: #1a1a1a; stroke-width: 1.2; stroke-linejoin: miter; stroke-linecap: square"/>
   </g>
   <g id="patch_6">
    <path d="M 44.099375 22.226875 
L 505.19952 22.226875 
" style="fill: none; stroke: #1a1a1a; stroke-width: 1.2; stroke-linejoin: miter; stroke-linecap: square"/>
   </g>
   <g id="text_16">
    <!-- SpaceInvaders Expert — Training Reward Curve -->
    <g transform="translate(146.658354 16.226875) scale(0.13 -0.13)">
     <defs>
      <path id="TimesNewRomanPSMT-63" d="M 2631 1088 
Q 2516 522 2178 217 
Q 1841 -88 1431 -88 
Q 944 -88 581 321 
Q 219 731 219 1428 
Q 219 2103 620 2525 
Q 1022 2947 1584 2947 
Q 2006 2947 2278 2723 
Q 2550 2500 2550 2259 
Q 2550 2141 2473 2067 
Q 2397 1994 2259 1994 
Q 2075 1994 1981 2113 
Q 1928 2178 1911 2362 
Q 1894 2547 1784 2644 
Q 1675 2738 1481 2738 
Q 1169 2738 978 2506 
Q 725 2200 725 1697 
Q 725 1184 976 792 
Q 1228 400 1656 400 
Q 1963 400 2206 609 
Q 2378 753 2541 1131 
L 2631 1088 
z
" transform="scale(0.015625)"/>
      <path id="TimesNewRomanPSMT-49" d="M 1975 116 
L 1975 0 
L 159 0 
L 159 116 
L 309 116 
Q 572 116 691 269 
Q 766 369 766 750 
L 766 3488 
Q 766 3809 725 3913 
Q 694 3991 597 4047 
Q 459 4122 309 4122 
L 159 4122 
L 159 4238 
L 1975 4238 
L 1975 4122 
L 1822 4122 
Q 1563 4122 1444 3969 
Q 1366 3869 1366 3488 
L 1366 750 
Q 1366 428 1406 325 
Q 1438 247 1538 191 
Q 1672 116 1822 116 
L 1975 116 
z
" transform="scale(0.015625)"/>
      <path id="TimesNewRomanPSMT-78" d="M 84 2863 
L 1431 2863 
L 1431 2747 
Q 1303 2747 1251 2703 
Q 1200 2659 1200 2588 
Q 1200 2513 1309 2356 
Q 1344 2306 1413 2200 
L 1616 1875 
L 1850 2200 
Q 2075 2509 2075 2591 
Q 2075 2656 2022 2701 
Q 1969 2747 1850 2747 
L 1850 2863 
L 2819 2863 
L 2819 2747 
Q 2666 2738 2553 2663 
Q 2400 2556 2134 2200 
L 1744 1678 
L 2456 653 
Q 2719 275 2831 198 
Q 2944 122 3122 113 
L 3122 0 
L 1772 0 
L 1772 113 
Q 1913 113 1991 175 
Q 2050 219 2050 291 
Q 2050 363 1850 653 
L 1431 1266 
L 972 653 
Q 759 369 759 316 
Q 759 241 829 180 
Q 900 119 1041 113 
L 1041 0 
L 106 0 
L 106 113 
Q 219 128 303 191 
Q 422 281 703 653 
L 1303 1450 
L 759 2238 
Q 528 2575 401 2661 
Q 275 2747 84 2747 
L 84 2863 
z
" transform="scale(0.015625)"/>
      <path id="TimesNewRomanPSMT-2014" d="M 6456 1416 
L -59 1416 
L -59 1647 
L 6456 1647 
L 6456 1416 
z
" transform="scale(0.015625)"/>
      <path id="TimesNewRomanPSMT-54" d="M 3703 4238 
L 3750 3244 
L 3631 3244 
Q 3597 3506 3538 3619 
Q 3441 3800 3280 3886 
Q 3119 3972 2856 3972 
L 2259 3972 
L 2259 734 
Q 2259 344 2344 247 
Q 2463 116 2709 116 
L 2856 116 
L 2856 0 
L 1059 0 
L 1059 116 
L 1209 116 
Q 1478 116 1591 278 
Q 1659 378 1659 734 
L 1659 3972 
L 1150 3972 
Q 853 3972 728 3928 
Q 566 3869 450 3700 
Q 334 3531 313 3244 
L 194 3244 
L 244 4238 
L 3703 4238 
z
" transform="scale(0.015625)"/>
      <path id="TimesNewRomanPSMT-67" d="M 966 1044 
Q 703 1172 562 1401 
Q 422 1631 422 1909 
Q 422 2334 742 2640 
Q 1063 2947 1563 2947 
Q 1972 2947 2272 2747 
L 2878 2747 
Q 3013 2747 3034 2739 
Q 3056 2731 3066 2713 
Q 3084 2684 3084 2613 
Q 3084 2531 3069 2500 
Q 3059 2484 3036 2475 
Q 3013 2466 2878 2466 
L 2506 2466 
Q 2681 2241 2681 1891 
Q 2681 1491 2375 1206 
Q 2069 922 1553 922 
Q 1341 922 1119 984 
Q 981 866 932 777 
Q 884 688 884 625 
Q 884 572 936 522 
Q 988 472 1138 450 
Q 1225 438 1575 428 
Q 2219 413 2409 384 
Q 2700 344 2873 169 
Q 3047 -6 3047 -263 
Q 3047 -616 2716 -925 
Q 2228 -1381 1444 -1381 
Q 841 -1381 425 -1109 
Q 191 -953 191 -784 
Q 191 -709 225 -634 
Q 278 -519 444 -313 
Q 466 -284 763 25 
Q 600 122 533 198 
Q 466 275 466 372 
Q 466 481 555 628 
Q 644 775 966 1044 
z
M 1509 2797 
Q 1278 2797 1122 2612 
Q 966 2428 966 2047 
Q 966 1553 1178 1281 
Q 1341 1075 1591 1075 
Q 1828 1075 1981 1253 
Q 2134 1431 2134 1813 
Q 2134 2309 1919 2591 
Q 1759 2797 1509 2797 
z
M 934 0 
Q 788 -159 713 -296 
Q 638 -434 638 -550 
Q 638 -700 819 -813 
Q 1131 -1006 1722 -1006 
Q 2284 -1006 2551 -807 
Q 2819 -609 2819 -384 
Q 2819 -222 2659 -153 
Q 2497 -84 2016 -72 
Q 1313 -53 934 0 
z
" transform="scale(0.015625)"/>
      <path id="TimesNewRomanPSMT-43" d="M 3853 4334 
L 3950 2894 
L 3853 2894 
Q 3659 3541 3300 3825 
Q 2941 4109 2438 4109 
Q 2016 4109 1675 3895 
Q 1334 3681 1139 3212 
Q 944 2744 944 2047 
Q 944 1472 1128 1050 
Q 1313 628 1683 403 
Q 2053 178 2528 178 
Q 2941 178 3256 354 
Q 3572 531 3950 1056 
L 4047 994 
Q 3728 428 3303 165 
Q 2878 -97 2294 -97 
Q 1241 -97 663 684 
Q 231 1266 231 2053 
Q 231 2688 515 3219 
Q 800 3750 1298 4042 
Q 1797 4334 2388 4334 
Q 2847 4334 3294 4109 
Q 3425 4041 3481 4041 
Q 3566 4041 3628 4100 
Q 3709 4184 3744 4334 
L 3853 4334 
z
" transform="scale(0.015625)"/>
     </defs>
     <use xlink:href="#TimesNewRomanPSMT-53"/>
     <use xlink:href="#TimesNewRomanPSMT-70" transform="translate(55.615234 0)"/>
     <use xlink:href="#TimesNewRomanPSMT-61" transform="translate(105.615234 0)"/>
     <use xlink:href="#TimesNewRomanPSMT-63" transform="translate(150 0)"/>
     <use xlink:href="#TimesNewRomanPSMT-65" transform="translate(194.384766 0)"/>
     <use xlink:href="#TimesNewRomanPSMT-49" transform="translate(238.769531 0)"/>
     <use xlink:href="#TimesNewRomanPSMT-6e" transform="translate(272.070312 0)"/>
     <use xlink:href="#TimesNewRomanPSMT-76" transform="translate(322.070312 0)"/>
     <use xlink:href="#TimesNewRomanPSMT-61" transform="translate(372.070312 0)"/>
     <use xlink:href="#TimesNewRomanPSMT-64" transform="translate(416.455078 0)"/>
     <use xlink:href="#TimesNewRomanPSMT-65" transform="translate(466.455078 0)"/>
     <use xlink:href="#TimesNewRomanPSMT-72" transform="translate(510.839844 0)"/>
     <use xlink:href="#TimesNewRomanPSMT-73" transform="translate(544.140625 0)"/>
     <use xlink:href="#TimesNewRomanPSMT-20" transform="translate(583.056641 0)"/>
     <use xlink:href="#TimesNewRomanPSMT-45" transform="translate(608.056641 0)"/>
     <use xlink:href="#TimesNewRomanPSMT-78" transform="translate(669.140625 0)"/>
     <use xlink:href="#TimesNewRomanPSMT-70" transform="translate(719.140625 0)"/>
     <use xlink:href="#TimesNewRomanPSMT-65" transform="translate(769.140625 0)"/>
     <use xlink:href="#TimesNewRomanPSMT-72" transform="translate(813.525391 0)"/>
     <use xlink:href="#TimesNewRomanPSMT-74" transform="translate(846.826172 0)"/>
     <use xlink:href="#TimesNewRomanPSMT-20" transform="translate(874.609375 0)"/>
     <use xlink:href="#TimesNewRomanPSMT-2014" transform="translate(899.609375 0)"/>
     <use xlink:href="#TimesNewRomanPSMT-20" transform="translate(999.609375 0)"/>
     <use xlink:href="#TimesNewRomanPSMT-54" transform="translate(1022.859375 0)"/>
     <use xlink:href="#TimesNewRomanPSMT-72" transform="translate(1080.443359 0)"/>
     <use xlink:href="#TimesNewRomanPSMT-61" transform="translate(1113.744141 0)"/>
     <use xlink:href="#TimesNewRomanPSMT-69" transform="translate(1158.128906 0)"/>
     <use xlink:href="#TimesNewRomanPSMT-6e" transform="translate(1185.912109 0)"/>
     <use xlink:href="#TimesNewRomanPSMT-69" transform="translate(1235.912109 0)"/>
     <use xlink:href="#TimesNewRomanPSMT-6e" transform="translate(1263.695312 0)"/>
     <use xlink:href="#TimesNewRomanPSMT-67" transform="translate(1313.695312 0)"/>
     <use xlink:href="#TimesNewRomanPSMT-20" transform="translate(1363.695312 0)"/>
     <use xlink:href="#TimesNewRomanPSMT-52" transform="translate(1388.695312 0)"/>
     <use xlink:href="#TimesNewRomanPSMT-65" transform="translate(1455.394531 0)"/>
     <use xlink:href="#TimesNewRomanPSMT-77" transform="translate(1499.779297 0)"/>
     <use xlink:href="#TimesNewRomanPSMT-61" transform="translate(1571.996094 0)"/>
     <use xlink:href="#TimesNewRomanPSMT-72" transform="translate(1616.380859 0)"/>
     <use xlink:href="#TimesNewRomanPSMT-64" transform="translate(1649.681641 0)"/>
     <use xlink:href="#TimesNewRomanPSMT-20" transform="translate(1699.681641 0)"/>
     <use xlink:href="#TimesNewRomanPSMT-43" transform="translate(1724.681641 0)"/>
     <use xlink:href="#TimesNewRomanPSMT-75" transform="translate(1791.380859 0)"/>
     <use xlink:href="#TimesNewRomanPSMT-72" transform="translate(1841.380859 0)"/>
     <use xlink:href="#TimesNewRomanPSMT-76" transform="translate(1874.681641 0)"/>
     <use xlink:href="#TimesNewRomanPSMT-65" transform="translate(1924.681641 0)"/>
    </g>
   </g>
   <g id="legend_1">
    <g id="patch_7">
     <path d="M 49.099375 72.644062 
L 152.675938 72.644062 
L 152.675938 27.226875 
L 49.099375 27.226875 
z
" style="fill: #fafafa; opacity: 0.9; stroke: #1a1a1a; stroke-linejoin: miter"/>
    </g>
    <g id="line2d_29">
     <path d="M 53.099375 34.726875 
L 63.099375 34.726875 
L 73.099375 34.726875 
" style="fill: none; stroke: #b5ead7; stroke-opacity: 0.3; stroke-width: 0.8; stroke-linecap: square"/>
    </g>
    <g id="text_17">
     <!-- Raw -->
     <g transform="translate(81.099375 38.226875) scale(0.1 -0.1)">
      <use xlink:href="#TimesNewRomanPSMT-52"/>
      <use xlink:href="#TimesNewRomanPSMT-61" transform="translate(66.699219 0)"/>
      <use xlink:href="#TimesNewRomanPSMT-77" transform="translate(111.083984 0)"/>
     </g>
    </g>
    <g id="line2d_30">
     <path d="M 53.099375 48.865937 
L 63.099375 48.865937 
L 73.099375 48.865937 
" style="fill: none; stroke: #b5ead7; stroke-width: 2; stroke-linecap: square"/>
     <g>
      <use xlink:href="#m098b32f995" x="63.099375" y="48.865937" style="fill: #b5ead7; stroke: #1a1a1a; stroke-width: 0.8; stroke-linejoin: miter"/>
     </g>
    </g>
    <g id="text_18">
     <!-- Smoothed (w=5) -->
     <g transform="translate(81.099375 52.365937) scale(0.1 -0.1)">
      <defs>
       <path id="TimesNewRomanPSMT-68" d="M 1041 4444 
L 1041 2350 
Q 1388 2731 1591 2839 
Q 1794 2947 1997 2947 
Q 2241 2947 2416 2812 
Q 2591 2678 2675 2391 
Q 2734 2191 2734 1659 
L 2734 647 
Q 2734 375 2778 275 
Q 2809 200 2884 156 
Q 2959 113 3159 113 
L 3159 0 
L 1753 0 
L 1753 113 
L 1819 113 
Q 2019 113 2097 173 
Q 2175 234 2206 353 
Q 2216 403 2216 647 
L 2216 1659 
Q 2216 2128 2167 2275 
Q 2119 2422 2012 2495 
Q 1906 2569 1756 2569 
Q 1603 2569 1437 2487 
Q 1272 2406 1041 2159 
L 1041 647 
Q 1041 353 1073 281 
Q 1106 209 1195 161 
Q 1284 113 1503 113 
L 1503 0 
L 84 0 
L 84 113 
Q 275 113 384 172 
Q 447 203 484 290 
Q 522 378 522 647 
L 522 3238 
Q 522 3728 498 3840 
Q 475 3953 426 3993 
Q 378 4034 297 4034 
Q 231 4034 84 3984 
L 41 4094 
L 897 4444 
L 1041 4444 
z
" transform="scale(0.015625)"/>
       <path id="TimesNewRomanPSMT-28" d="M 1988 -1253 
L 1988 -1369 
Q 1516 -1131 1200 -813 
Q 750 -359 506 256 
Q 263 872 263 1534 
Q 263 2503 741 3301 
Q 1219 4100 1988 4444 
L 1988 4313 
Q 1603 4100 1356 3731 
Q 1109 3363 987 2797 
Q 866 2231 866 1616 
Q 866 947 969 400 
Q 1050 -31 1165 -292 
Q 1281 -553 1476 -793 
Q 1672 -1034 1988 -1253 
z
" transform="scale(0.015625)"/>
       <path id="TimesNewRomanPSMT-3d" d="M 116 2759 
L 3488 2759 
L 3488 2503 
L 116 2503 
L 116 2759 
z
M 116 1741 
L 3488 1741 
L 3488 1484 
L 116 1484 
L 116 1741 
z
" transform="scale(0.015625)"/>
       <path id="TimesNewRomanPSMT-29" d="M 144 4313 
L 144 4444 
Q 619 4209 934 3891 
Q 1381 3434 1625 2820 
Q 1869 2206 1869 1541 
Q 1869 572 1392 -226 
Q 916 -1025 144 -1369 
L 144 -1253 
Q 528 -1038 776 -670 
Q 1025 -303 1145 264 
Q 1266 831 1266 1447 
Q 1266 2113 1163 2663 
Q 1084 3094 967 3353 
Q 850 3613 656 3853 
Q 463 4094 144 4313 
z
" transform="scale(0.015625)"/>
      </defs>
      <use xlink:href="#TimesNewRomanPSMT-53"/>
      <use xlink:href="#TimesNewRomanPSMT-6d" transform="translate(55.615234 0)"/>
      <use xlink:href="#TimesNewRomanPSMT-6f" transform="translate(133.398438 0)"/>
      <use xlink:href="#TimesNewRomanPSMT-6f" transform="translate(183.398438 0)"/>
      <use xlink:href="#TimesNewRomanPSMT-74" transform="translate(233.398438 0)"/>
      <use xlink:href="#TimesNewRomanPSMT-68" transform="translate(261.181641 0)"/>
      <use xlink:href="#TimesNewRomanPSMT-65" transform="translate(311.181641 0)"/>
      <use xlink:href="#TimesNewRomanPSMT-64" transform="translate(355.566406 0)"/>
      <use xlink:href="#TimesNewRomanPSMT-20" transform="translate(405.566406 0)"/>
      <use xlink:href="#TimesNewRomanPSMT-28" transform="translate(430.566406 0)"/>
      <use xlink:href="#TimesNewRomanPSMT-77" transform="translate(463.867188 0)"/>
      <use xlink:href="#TimesNewRomanPSMT-3d" transform="translate(536.083984 0)"/>
      <use xlink:href="#TimesNewRomanPSMT-35" transform="translate(592.480469 0)"/>
      <use xlink:href="#TimesNewRomanPSMT-29" transform="translate(642.480469 0)"/>
     </g>
    </g>
    <g id="line2d_31">
     <path d="M 53.099375 63.005 
L 63.099375 63.005 
L 73.099375 63.005 
" style="fill: none; stroke: #ff4444; stroke-width: 1.5; stroke-linecap: square"/>
     <defs>
      <path id="m3b120a5928" d="M 0 -7 
L -1.571598 -2.163119 
L -6.657396 -2.163119 
L -2.542899 0.826238 
L -4.114497 5.663119 
L -0 2.673762 
L 4.114497 5.663119 
L 2.542899 0.826238 
L 6.657396 -2.163119 
L 1.571598 -2.163119 
z
" style="stroke: #1a1a1a; stroke-linejoin: bevel"/>
     </defs>
     <g>
      <use xlink:href="#m3b120a5928" x="63.099375" y="63.005" style="fill: #ff4444; stroke: #1a1a1a; stroke-linejoin: bevel"/>
     </g>
    </g>
    <g id="text_19">
     <!-- Best: 762.5 -->
     <g transform="translate(81.099375 66.505) scale(0.1 -0.1)">
      <defs>
       <path id="TimesNewRomanPSMT-42" d="M 2956 2163 
Q 3397 2069 3616 1863 
Q 3919 1575 3919 1159 
Q 3919 844 3719 555 
Q 3519 266 3170 133 
Q 2822 0 2106 0 
L 106 0 
L 106 116 
L 266 116 
Q 531 116 647 284 
Q 719 394 719 750 
L 719 3488 
Q 719 3881 628 3984 
Q 506 4122 266 4122 
L 106 4122 
L 106 4238 
L 1938 4238 
Q 2450 4238 2759 4163 
Q 3228 4050 3475 3764 
Q 3722 3478 3722 3106 
Q 3722 2788 3528 2536 
Q 3334 2284 2956 2163 
z
M 1319 2331 
Q 1434 2309 1582 2298 
Q 1731 2288 1909 2288 
Q 2366 2288 2595 2386 
Q 2825 2484 2947 2687 
Q 3069 2891 3069 3131 
Q 3069 3503 2766 3765 
Q 2463 4028 1881 4028 
Q 1569 4028 1319 3959 
L 1319 2331 
z
M 1319 306 
Q 1681 222 2034 222 
Q 2600 222 2897 476 
Q 3194 731 3194 1106 
Q 3194 1353 3059 1581 
Q 2925 1809 2622 1940 
Q 2319 2072 1872 2072 
Q 1678 2072 1540 2065 
Q 1403 2059 1319 2044 
L 1319 306 
z
" transform="scale(0.015625)"/>
       <path id="TimesNewRomanPSMT-3a" d="M 903 2950 
Q 1047 2950 1148 2848 
Q 1250 2747 1250 2603 
Q 1250 2459 1148 2357 
Q 1047 2256 903 2256 
Q 759 2256 657 2357 
Q 556 2459 556 2603 
Q 556 2747 657 2848 
Q 759 2950 903 2950 
z
M 897 609 
Q 1044 609 1145 506 
Q 1247 403 1247 259 
Q 1247 116 1144 14 
Q 1041 -88 897 -88 
Q 753 -88 651 14 
Q 550 116 550 259 
Q 550 403 651 506 
Q 753 609 897 609 
z
" transform="scale(0.015625)"/>
      </defs>
      <use xlink:href="#TimesNewRomanPSMT-42"/>
      <use xlink:href="#TimesNewRomanPSMT-65" transform="translate(66.699219 0)"/>
      <use xlink:href="#TimesNewRomanPSMT-73" transform="translate(111.083984 0)"/>
      <use xlink:href="#TimesNewRomanPSMT-74" transform="translate(150 0)"/>
      <use xlink:href="#TimesNewRomanPSMT-3a" transform="translate(177.783203 0)"/>
      <use xlink:href="#TimesNewRomanPSMT-20" transform="translate(205.566406 0)"/>
      <use xlink:href="#TimesNewRomanPSMT-37" transform="translate(230.566406 0)"/>
      <use xlink:href="#TimesNewRomanPSMT-36" transform="translate(280.566406 0)"/>
      <use xlink:href="#TimesNewRomanPSMT-32" transform="translate(330.566406 0)"/>
      <use xlink:href="#TimesNewRomanPSMT-2e" transform="translate(380.566406 0)"/>
      <use xlink:href="#TimesNewRomanPSMT-35" transform="translate(405.566406 0)"/>
     </g>
    </g>
   </g>
   <g id="line2d_32">
    <path d="M 454.601295 34.590078 
" clip-path="url(#p4acb636c8d)" style="fill: none; stroke: #ff4444; stroke-width: 1.5; stroke-linecap: square"/>
    <g clip-path="url(#p4acb636c8d)">
     <use xlink:href="#m3b120a5928" x="454.601295" y="34.590078" style="fill: #ff4444; stroke: #1a1a1a; stroke-linejoin: bevel"/>
    </g>
   </g>
  </g>
 </g>
 <defs>
  <clipPath id="p4acb636c8d">
   <rect x="44.099375" y="22.226875" width="461.100145" height="271.990458"/>
  </clipPath>
 </defs>
</svg>
