<?xml version="1.0" encoding="utf-8" standalone="no"?>
<!DOCTYPE svg PUBLIC "-//W3C//DTD SVG 1.1//EN"
  "http://www.w3.org/Graphics/SVG/1.1/DTD/svg11.dtd">
<svg xmlns:xlink="http://www.w3.org/1999/xlink" width="613.272656pt" height="353.981094pt" viewBox="0 0 613.272656 353.981094" xmlns="http://www.w3.org/2000/svg" version="1.1">
 <metadata>
  <rdf:RDF xmlns:dc="http://purl.org/dc/elements/1.1/" xmlns:cc="http://creativecommons.org/ns#" xmlns:rdf="http://www.w3.org/1999/02/22-rdf-syntax-ns#">
   <cc:Work>
    <dc:type rdf:resource="http://purl.org/dc/dcmitype/StillImage"/>
    <dc:date>2026-03-12T02:11:24.887783</dc:date>
    <dc:format>image/svg+xml</dc:format>
    <dc:creator>
     <cc:Agent>
      <dc:title>Matplotlib v3.10.8, https://matplotlib.org/</dc:title>
     </cc:Agent>
    </dc:creator>
   </cc:Work>
  </rdf:RDF>
 </metadata>
 <defs>
  <style type="text/css">*{stroke-linejoin: round; stroke-linecap: butt}</style>
 </defs>
 <g id="figure_1">
  <g id="patch_1">
   <path d="M 0 353.981094 
L 613.272656 353.981094 
L 613.272656 0 
L 0 0 
z
" style="fill: #0f172a"/>
  </g>
  <g id="axes_1">
   <g id="patch_2">
    <path d="M 48.072656 310.825937 
L 606.072656 310.825937 
L 606.072656 33.625937 
L 48.072656 33.625937 
z
" style="fill: #1e293b"/>
   </g>
   <g id="FillBetweenPolyCollection_1">
    <defs>
     <path id="m0ded048406" d="M 89.491926 -43.162455 
L 89.491926 -43.155156 
L 89.980108 -43.155156 
L 90.46829 -43.155156 
L 90.956473 -43.155156 
L 91.444655 -43.155156 
L 91.932837 -43.155156 
L 92.421019 -43.155156 
L 92.909202 -43.155156 
L 93.397384 -43.155156 
L 93.885566 -43.155156 
L 94.373749 -43.155156 
L 94.861931 -43.155156 
L 95.350113 -43.155156 
L 95.838296 -43.155156 
L 96.326478 -43.155156 
L 96.81466 -43.155156 
L 97.302842 -43.155156 
L 97.791025 -43.155156 
L 98.279207 -43.155156 
L 98.767389 -43.155156 
L 99.255572 -43.155156 
L 99.743754 -43.155156 
L 100.231936 -43.155156 
L 100.720119 -43.155156 
L 101.208301 -43.155156 
L 101.696483 -43.155156 
L 102.184665 -43.155156 
L 102.672848 -43.155156 
L 103.16103 -43.155156 
L 103.649212 -43.155156 
L 104.137395 -43.155156 
L 104.625577 -43.155156 
L 105.113759 -43.155156 
L 105.601942 -43.155156 
L 106.090124 -43.155156 
L 106.578306 -43.155156 
L 107.066488 -43.155156 
L 107.554671 -43.155156 
L 108.042853 -43.155156 
L 108.531035 -43.155156 
L 109.019218 -43.155156 
L 109.5074 -43.155156 
L 109.995582 -43.155156 
L 110.483765 -43.155156 
L 110.971947 -43.155156 
L 111.460129 -43.155156 
L 111.948311 -43.155156 
L 112.436494 -43.155156 
L 112.924676 -43.155156 
L 113.412858 -43.155156 
L 113.901041 -43.155156 
L 114.389223 -43.155156 
L 114.877405 -43.155156 
L 115.365588 -43.155156 
L 115.85377 -43.155156 
L 116.341952 -43.155156 
L 116.830134 -43.155156 
L 117.318317 -43.155156 
L 117.806499 -43.155156 
L 118.294681 -43.155156 
L 118.782864 -43.155156 
L 119.271046 -43.155156 
L 119.759228 -43.155156 
L 120.247411 -43.155156 
L 120.735593 -43.155156 
L 121.223775 -43.155156 
L 121.711957 -43.155156 
L 122.20014 -43.155156 
L 122.688322 -43.155156 
L 123.176504 -43.155156 
L 123.664687 -43.155156 
L 124.152869 -43.155156 
L 124.641051 -43.155156 
L 125.129234 -43.155156 
L 125.617416 -43.155156 
L 126.105598 -43.155156 
L 126.59378 -43.155156 
L 127.081963 -43.155156 
L 127.570145 -43.155156 
L 128.058327 -43.155156 
L 128.54651 -43.155156 
L 129.034692 -43.155156 
L 129.522874 -43.155156 
L 130.011057 -43.155156 
L 130.499239 -43.155156 
L 130.987421 -43.155156 
L 131.475603 -43.155156 
L 131.963786 -43.155156 
L 132.451968 -43.155156 
L 132.94015 -43.155156 
L 133.428333 -43.155156 
L 133.916515 -43.155156 
L 134.404697 -43.155156 
L 134.89288 -43.155156 
L 135.381062 -43.155156 
L 135.869244 -43.155156 
L 136.357426 -43.155156 
L 136.845609 -43.155156 
L 137.333791 -43.155156 
L 137.821973 -43.155156 
L 138.310156 -43.155156 
L 138.798338 -43.155156 
L 139.28652 -43.155156 
L 139.774703 -43.155156 
L 140.262885 -43.155156 
L 140.751067 -43.155156 
L 141.239249 -43.155156 
L 141.727432 -43.155156 
L 142.215614 -43.155156 
L 142.703796 -43.155156 
L 143.191979 -43.155156 
L 143.680161 -43.155156 
L 144.168343 -43.155156 
L 144.656526 -43.155156 
L 145.144708 -43.155156 
L 145.63289 -43.155156 
L 146.121072 -43.155156 
L 146.609255 -43.155156 
L 147.097437 -43.155156 
L 147.585619 -43.155156 
L 148.073802 -43.155156 
L 148.561984 -43.155156 
L 149.050166 -43.155156 
L 149.538349 -43.155156 
L 150.026531 -43.155156 
L 150.514713 -43.155156 
L 151.002895 -43.155156 
L 151.491078 -43.155156 
L 151.97926 -43.155156 
L 152.467442 -43.155156 
L 152.955625 -43.155156 
L 153.443807 -43.155156 
L 153.931989 -43.155156 
L 154.420172 -43.155156 
L 154.908354 -43.155156 
L 155.396536 -43.155156 
L 155.884718 -43.155156 
L 156.372901 -43.155156 
L 156.861083 -43.155156 
L 157.349265 -43.155156 
L 157.837448 -43.155156 
L 158.32563 -43.155156 
L 158.813812 -43.155156 
L 159.301995 -43.155156 
L 159.790177 -43.155156 
L 160.278359 -43.155156 
L 160.766541 -43.155156 
L 161.254724 -43.155156 
L 161.742906 -43.155156 
L 162.231088 -43.155156 
L 162.719271 -43.155156 
L 163.207453 -43.155156 
L 163.695635 -43.155156 
L 164.183818 -43.155156 
L 164.672 -43.155156 
L 165.160182 -43.155156 
L 165.648364 -43.155156 
L 166.136547 -43.155156 
L 166.624729 -43.155156 
L 167.112911 -43.155156 
L 167.601094 -43.155156 
L 168.089276 -43.155156 
L 168.577458 -43.155156 
L 169.065641 -43.155156 
L 169.553823 -43.155156 
L 170.042005 -43.155156 
L 170.530187 -43.155156 
L 171.01837 -43.155156 
L 171.506552 -43.155156 
L 171.994734 -43.155156 
L 172.482917 -43.155156 
L 172.971099 -43.155156 
L 173.459281 -43.155156 
L 173.947464 -43.155156 
L 174.435646 -43.155156 
L 174.923828 -43.155156 
L 175.412011 -43.155156 
L 175.900193 -43.155156 
L 176.388375 -43.155156 
L 176.876557 -43.155156 
L 177.36474 -43.155156 
L 177.852922 -43.155156 
L 178.341104 -43.155156 
L 178.829287 -43.155156 
L 179.317469 -43.155156 
L 179.805651 -43.155156 
L 180.293834 -43.155156 
L 180.782016 -43.155156 
L 181.270198 -43.155156 
L 181.75838 -43.155156 
L 182.246563 -43.155156 
L 182.734745 -43.155156 
L 183.222927 -43.155156 
L 183.71111 -43.155156 
L 184.199292 -43.155156 
L 184.687474 -43.155156 
L 185.175657 -43.155156 
L 185.663839 -43.155156 
L 186.152021 -43.155156 
L 186.640203 -43.155156 
L 186.640203 -43.17392 
L 186.640203 -43.17392 
L 186.152021 -43.188537 
L 185.663839 -43.212983 
L 185.175657 -43.252753 
L 184.687474 -43.315707 
L 184.199292 -43.412721 
L 183.71111 -43.558324 
L 183.222927 -43.771269 
L 182.734745 -44.074908 
L 182.246563 -44.497288 
L 181.75838 -45.070867 
L 181.270198 -45.83182 
L 180.782016 -46.818949 
L 180.293834 -48.072311 
L 179.805651 -49.631758 
L 179.317469 -51.535628 
L 178.829287 -53.819799 
L 178.341104 -56.517272 
L 177.852922 -59.658247 
L 177.36474 -63.270499 
L 176.876557 -67.379691 
L 176.388375 -72.009167 
L 175.900193 -77.178886 
L 175.412011 -82.903326 
L 174.923828 -89.188501 
L 174.435646 -96.028443 
L 173.947464 -103.401546 
L 173.459281 -111.266999 
L 172.971099 -119.561169 
L 172.482917 -128.193497 
L 171.994734 -137.041446 
L 171.506552 -145.944583 
L 171.01837 -154.698816 
L 170.530187 -163.053145 
L 170.042005 -170.712174 
L 169.553823 -177.347769 
L 169.065641 -182.62208 
L 168.577458 -186.221652 
L 168.089276 -187.899143 
L 167.601094 -187.516034 
L 167.112911 -185.077824 
L 166.624729 -180.753216 
L 166.136547 -174.871159 
L 165.648364 -167.893729 
L 165.160182 -160.367801 
L 164.672 -152.862981 
L 164.183818 -145.906158 
L 163.695635 -139.92363 
L 163.207453 -135.200011 
L 162.719271 -131.859627 
L 162.231088 -129.871763 
L 161.742906 -129.076995 
L 161.254724 -129.228715 
L 160.766541 -130.042244 
L 160.278359 -131.243655 
L 159.790177 -132.611415 
L 159.301995 -134.005662 
L 158.813812 -135.382188 
L 158.32563 -136.790495 
L 157.837448 -138.357532 
L 157.349265 -140.260647 
L 156.861083 -142.694625 
L 156.372901 -145.838286 
L 155.884718 -149.825824 
L 155.396536 -154.726844 
L 154.908354 -160.537284 
L 154.420172 -167.181285 
L 153.931989 -174.522326 
L 153.443807 -182.380682 
L 152.955625 -190.553852 
L 152.467442 -198.836807 
L 151.97926 -207.039518 
L 151.491078 -214.999927 
L 151.002895 -222.591152 
L 150.514713 -229.722286 
L 150.026531 -236.332769 
L 149.538349 -242.381207 
L 149.050166 -247.830513 
L 148.561984 -252.632325 
L 148.073802 -256.714315 
L 147.585619 -259.973973 
L 147.097437 -262.281476 
L 146.609255 -263.492633 
L 146.121072 -263.470781 
L 145.63289 -262.114693 
L 145.144708 -259.388382 
L 144.656526 -255.34837 
L 144.168343 -250.164521 
L 143.680161 -244.131487 
L 143.191979 -237.668711 
L 142.703796 -231.30749 
L 142.215614 -225.663821 
L 141.727432 -221.395919 
L 141.239249 -219.146147 
L 140.751067 -219.46905 
L 140.262885 -222.750532 
L 139.774703 -229.12741 
L 139.28652 -238.420483 
L 138.798338 -250.096367 
L 138.310156 -263.272066 
L 137.821973 -276.770995 
L 137.333791 -289.230252 
L 136.845609 -299.248222 
L 136.357426 -305.551659 
L 135.869244 -307.155156 
L 135.381062 -303.485418 
L 134.89288 -294.448515 
L 134.404697 -280.42919 
L 133.916515 -262.224521 
L 133.428333 -240.926582 
L 132.94015 -217.777135 
L 132.451968 -194.020226 
L 131.963786 -170.775614 
L 131.475603 -148.948812 
L 130.987421 -129.184292 
L 130.499239 -111.859724 
L 130.011057 -97.11264 
L 129.522874 -84.887712 
L 129.034692 -74.992611 
L 128.54651 -67.152566 
L 128.058327 -61.056963 
L 127.570145 -56.394726 
L 127.081963 -52.877972 
L 126.59378 -50.255289 
L 126.105598 -48.316912 
L 125.617416 -46.894254 
L 125.129234 -45.856002 
L 124.641051 -45.102516 
L 124.152869 -44.559759 
L 123.664687 -44.173547 
L 123.176504 -43.904516 
L 122.688322 -43.723994 
L 122.20014 -43.610766 
L 121.711957 -43.54864 
L 121.223775 -43.524705 
L 120.735593 -43.528141 
L 120.247411 -43.549502 
L 119.759228 -43.580356 
L 119.271046 -43.613223 
L 118.782864 -43.641718 
L 118.294681 -43.6608 
L 117.806499 -43.667026 
L 117.318317 -43.658717 
L 116.830134 -43.635962 
L 116.341952 -43.600433 
L 115.85377 -43.555019 
L 115.365588 -43.50335 
L 114.877405 -43.449278 
L 114.389223 -43.396419 
L 113.901041 -43.347817 
L 113.412858 -43.305763 
L 112.924676 -43.271789 
L 112.436494 -43.246773 
L 111.948311 -43.231136 
L 111.460129 -43.225039 
L 110.971947 -43.228544 
L 110.483765 -43.241684 
L 109.995582 -43.264452 
L 109.5074 -43.296687 
L 109.019218 -43.337927 
L 108.531035 -43.387256 
L 108.042853 -43.443224 
L 107.554671 -43.503887 
L 107.066488 -43.566992 
L 106.578306 -43.630311 
L 106.090124 -43.69206 
L 105.601942 -43.751317 
L 105.113759 -43.80832 
L 104.625577 -43.864545 
L 104.137395 -43.922481 
L 103.649212 -43.985102 
L 103.16103 -44.055112 
L 102.672848 -44.134096 
L 102.184665 -44.221768 
L 101.696483 -44.3155 
L 101.208301 -44.410264 
L 100.720119 -44.499058 
L 100.231936 -44.573753 
L 99.743754 -44.626233 
L 99.255572 -44.649605 
L 98.767389 -44.639273 
L 98.279207 -44.59365 
L 97.791025 -44.514414 
L 97.302842 -44.406252 
L 96.81466 -44.276183 
L 96.326478 -44.1326 
L 95.838296 -43.984203 
L 95.350113 -43.839023 
L 94.861931 -43.703663 
L 94.373749 -43.582854 
L 93.885566 -43.479325 
L 93.397384 -43.393949 
L 92.909202 -43.326091 
L 92.421019 -43.274044 
L 91.932837 -43.235487 
L 91.444655 -43.207881 
L 90.956473 -43.188766 
L 90.46829 -43.175962 
L 89.980108 -43.167663 
L 89.491926 -43.162455 
z
" style="stroke: #6366f1; stroke-width: 2.2"/>
    </defs>
    <g clip-path="url(#pdcf5d9d232)">
     <use xlink:href="#m0ded048406" x="0" y="353.981094" style="fill: #6366f1; fill-opacity: 0.18; stroke: #6366f1; stroke-width: 2.2"/>
    </g>
   </g>
   <g id="FillBetweenPolyCollection_2">
    <defs>
     <path id="m178c96c512" d="M 93.07631 -43.16566 
L 93.07631 -43.155156 
L 95.526726 -43.155156 
L 97.977142 -43.155156 
L 100.427557 -43.155156 
L 102.877973 -43.155156 
L 105.328388 -43.155156 
L 107.778804 -43.155156 
L 110.22922 -43.155156 
L 112.679635 -43.155156 
L 115.130051 -43.155156 
L 117.580467 -43.155156 
L 120.030882 -43.155156 
L 122.481298 -43.155156 
L 124.931713 -43.155156 
L 127.382129 -43.155156 
L 129.832545 -43.155156 
L 132.28296 -43.155156 
L 134.733376 -43.155156 
L 137.183792 -43.155156 
L 139.634207 -43.155156 
L 142.084623 -43.155156 
L 144.535038 -43.155156 
L 146.985454 -43.155156 
L 149.43587 -43.155156 
L 151.886285 -43.155156 
L 154.336701 -43.155156 
L 156.787117 -43.155156 
L 159.237532 -43.155156 
L 161.687948 -43.155156 
L 164.138363 -43.155156 
L 166.588779 -43.155156 
L 169.039195 -43.155156 
L 171.48961 -43.155156 
L 173.940026 -43.155156 
L 176.390442 -43.155156 
L 178.840857 -43.155156 
L 181.291273 -43.155156 
L 183.741688 -43.155156 
L 186.192104 -43.155156 
L 188.64252 -43.155156 
L 191.092935 -43.155156 
L 193.543351 -43.155156 
L 195.993767 -43.155156 
L 198.444182 -43.155156 
L 200.894598 -43.155156 
L 203.345013 -43.155156 
L 205.795429 -43.155156 
L 208.245845 -43.155156 
L 210.69626 -43.155156 
L 213.146676 -43.155156 
L 215.597092 -43.155156 
L 218.047507 -43.155156 
L 220.497923 -43.155156 
L 222.948338 -43.155156 
L 225.398754 -43.155156 
L 227.84917 -43.155156 
L 230.299585 -43.155156 
L 232.750001 -43.155156 
L 235.200417 -43.155156 
L 237.650832 -43.155156 
L 240.101248 -43.155156 
L 242.551663 -43.155156 
L 245.002079 -43.155156 
L 247.452495 -43.155156 
L 249.90291 -43.155156 
L 252.353326 -43.155156 
L 254.803742 -43.155156 
L 257.254157 -43.155156 
L 259.704573 -43.155156 
L 262.154988 -43.155156 
L 264.605404 -43.155156 
L 267.05582 -43.155156 
L 269.506235 -43.155156 
L 271.956651 -43.155156 
L 274.407067 -43.155156 
L 276.857482 -43.155156 
L 279.307898 -43.155156 
L 281.758313 -43.155156 
L 284.208729 -43.155156 
L 286.659145 -43.155156 
L 289.10956 -43.155156 
L 291.559976 -43.155156 
L 294.010392 -43.155156 
L 296.460807 -43.155156 
L 298.911223 -43.155156 
L 301.361639 -43.155156 
L 303.812054 -43.155156 
L 306.26247 -43.155156 
L 308.712885 -43.155156 
L 311.163301 -43.155156 
L 313.613717 -43.155156 
L 316.064132 -43.155156 
L 318.514548 -43.155156 
L 320.964964 -43.155156 
L 323.415379 -43.155156 
L 325.865795 -43.155156 
L 328.31621 -43.155156 
L 330.766626 -43.155156 
L 333.217042 -43.155156 
L 335.667457 -43.155156 
L 338.117873 -43.155156 
L 340.568289 -43.155156 
L 343.018704 -43.155156 
L 345.46912 -43.155156 
L 347.919535 -43.155156 
L 350.369951 -43.155156 
L 352.820367 -43.155156 
L 355.270782 -43.155156 
L 357.721198 -43.155156 
L 360.171614 -43.155156 
L 362.622029 -43.155156 
L 365.072445 -43.155156 
L 367.52286 -43.155156 
L 369.973276 -43.155156 
L 372.423692 -43.155156 
L 374.874107 -43.155156 
L 377.324523 -43.155156 
L 379.774939 -43.155156 
L 382.225354 -43.155156 
L 384.67577 -43.155156 
L 387.126185 -43.155156 
L 389.576601 -43.155156 
L 392.027017 -43.155156 
L 394.477432 -43.155156 
L 396.927848 -43.155156 
L 399.378264 -43.155156 
L 401.828679 -43.155156 
L 404.279095 -43.155156 
L 406.72951 -43.155156 
L 409.179926 -43.155156 
L 411.630342 -43.155156 
L 414.080757 -43.155156 
L 416.531173 -43.155156 
L 418.981589 -43.155156 
L 421.432004 -43.155156 
L 423.88242 -43.155156 
L 426.332835 -43.155156 
L 428.783251 -43.155156 
L 431.233667 -43.155156 
L 433.684082 -43.155156 
L 436.134498 -43.155156 
L 438.584914 -43.155156 
L 441.035329 -43.155156 
L 443.485745 -43.155156 
L 445.93616 -43.155156 
L 448.386576 -43.155156 
L 450.836992 -43.155156 
L 453.287407 -43.155156 
L 455.737823 -43.155156 
L 458.188239 -43.155156 
L 460.638654 -43.155156 
L 463.08907 -43.155156 
L 465.539485 -43.155156 
L 467.989901 -43.155156 
L 470.440317 -43.155156 
L 472.890732 -43.155156 
L 475.341148 -43.155156 
L 477.791564 -43.155156 
L 480.241979 -43.155156 
L 482.692395 -43.155156 
L 485.14281 -43.155156 
L 487.593226 -43.155156 
L 490.043642 -43.155156 
L 492.494057 -43.155156 
L 494.944473 -43.155156 
L 497.394889 -43.155156 
L 499.845304 -43.155156 
L 502.29572 -43.155156 
L 504.746135 -43.155156 
L 507.196551 -43.155156 
L 509.646967 -43.155156 
L 512.097382 -43.155156 
L 514.547798 -43.155156 
L 516.998214 -43.155156 
L 519.448629 -43.155156 
L 521.899045 -43.155156 
L 524.34946 -43.155156 
L 526.799876 -43.155156 
L 529.250292 -43.155156 
L 531.700707 -43.155156 
L 534.151123 -43.155156 
L 536.601539 -43.155156 
L 539.051954 -43.155156 
L 541.50237 -43.155156 
L 543.952785 -43.155156 
L 546.403201 -43.155156 
L 548.853617 -43.155156 
L 551.304032 -43.155156 
L 553.754448 -43.155156 
L 556.204864 -43.155156 
L 558.655279 -43.155156 
L 561.105695 -43.155156 
L 563.556111 -43.155156 
L 566.006526 -43.155156 
L 568.456942 -43.155156 
L 570.907357 -43.155156 
L 573.357773 -43.155156 
L 575.808189 -43.155156 
L 578.258604 -43.155156 
L 580.70902 -43.155156 
L 580.70902 -43.157244 
L 580.70902 -43.157244 
L 578.258604 -43.159485 
L 575.808189 -43.163645 
L 573.357773 -43.170904 
L 570.907357 -43.182798 
L 568.456942 -43.201084 
L 566.006526 -43.227414 
L 563.556111 -43.262845 
L 561.105695 -43.307258 
L 558.655279 -43.358867 
L 556.204864 -43.41406 
L 553.754448 -43.467749 
L 551.304032 -43.514321 
L 548.853617 -43.54904 
L 546.403201 -43.56955 
L 543.952785 -43.577055 
L 541.50237 -43.576727 
L 539.051954 -43.57713 
L 536.601539 -43.588679 
L 534.151123 -43.621437 
L 531.700707 -43.682739 
L 529.250292 -43.775202 
L 526.799876 -43.895632 
L 524.34946 -44.035178 
L 521.899045 -44.180796 
L 519.448629 -44.317785 
L 516.998214 -44.432775 
L 514.547798 -44.516387 
L 512.097382 -44.564782 
L 509.646967 -44.579649 
L 507.196551 -44.566738 
L 504.746135 -44.533515 
L 502.29572 -44.486829 
L 499.845304 -44.431337 
L 497.394889 -44.369078 
L 494.944473 -44.300059 
L 492.494057 -44.223426 
L 490.043642 -44.138675 
L 487.593226 -44.046495 
L 485.14281 -43.949067 
L 482.692395 -43.849804 
L 480.241979 -43.752748 
L 477.791564 -43.661838 
L 475.341148 -43.58037 
L 472.890732 -43.510793 
L 470.440317 -43.454885 
L 467.989901 -43.414126 
L 465.539485 -43.390033 
L 463.08907 -43.384212 
L 460.638654 -43.398087 
L 458.188239 -43.432388 
L 455.737823 -43.486626 
L 453.287407 -43.558737 
L 450.836992 -43.645056 
L 448.386576 -43.740623 
L 445.93616 -43.839754 
L 443.485745 -43.936751 
L 441.035329 -44.0266 
L 438.584914 -44.105546 
L 436.134498 -44.171494 
L 433.684082 -44.224236 
L 431.233667 -44.265551 
L 428.783251 -44.299173 
L 426.332835 -44.330529 
L 423.88242 -44.366077 
L 421.432004 -44.41211 
L 418.981589 -44.473093 
L 416.531173 -44.549917 
L 414.080757 -44.638737 
L 411.630342 -44.731032 
L 409.179926 -44.815197 
L 406.72951 -44.879332 
L 404.279095 -44.9143 
L 401.828679 -44.915886 
L 399.378264 -44.885268 
L 396.927848 -44.827792 
L 394.477432 -44.750843 
L 392.027017 -44.661964 
L 389.576601 -44.568121 
L 387.126185 -44.476237 
L 384.67577 -44.394378 
L 382.225354 -44.332649 
L 379.774939 -44.303121 
L 377.324523 -44.318715 
L 374.874107 -44.391634 
L 372.423692 -44.53217 
L 369.973276 -44.748541 
L 367.52286 -45.047901 
L 365.072445 -45.438146 
L 362.622029 -45.929741 
L 360.171614 -46.53672 
L 357.721198 -47.276067 
L 355.270782 -48.165005 
L 352.820367 -49.216191 
L 350.369951 -50.431589 
L 347.919535 -51.796715 
L 345.46912 -53.277573 
L 343.018704 -54.822541 
L 340.568289 -56.370215 
L 338.117873 -57.862042 
L 335.667457 -59.256317 
L 333.217042 -60.53895 
L 330.766626 -61.72716 
L 328.31621 -62.864856 
L 325.865795 -64.011719 
L 323.415379 -65.230327 
L 320.964964 -66.575926 
L 318.514548 -68.09157 
L 316.064132 -69.808406 
L 313.613717 -71.748378 
L 311.163301 -73.925735 
L 308.712885 -76.344779 
L 306.26247 -78.993766 
L 303.812054 -81.837645 
L 301.361639 -84.814085 
L 298.911223 -87.836886 
L 296.460807 -90.808276 
L 294.010392 -93.637486 
L 291.559976 -96.259256 
L 289.10956 -98.644758 
L 286.659145 -100.799742 
L 284.208729 -102.750177 
L 281.758313 -104.521594 
L 279.307898 -106.12192 
L 276.857482 -107.536574 
L 274.407067 -108.739103 
L 271.956651 -109.71311 
L 269.506235 -110.475123 
L 267.05582 -111.086495 
L 264.605404 -111.646217 
L 262.154988 -112.264411 
L 259.704573 -113.024716 
L 257.254157 -113.949289 
L 254.803742 -114.980201 
L 252.353326 -115.985291 
L 249.90291 -116.787415 
L 247.452495 -117.207164 
L 245.002079 -117.104242 
L 242.551663 -116.403722 
L 240.101248 -115.09967 
L 237.650832 -113.237312 
L 235.200417 -110.882405 
L 232.750001 -108.090192 
L 230.299585 -104.885309 
L 227.84917 -101.259339 
L 225.398754 -97.186182 
L 222.948338 -92.649385 
L 220.497923 -87.671651 
L 218.047507 -82.336111 
L 215.597092 -76.791653 
L 213.146676 -71.239726 
L 210.69626 -65.906011 
L 208.245845 -61.00492 
L 205.795429 -56.706674 
L 203.345013 -53.115151 
L 200.894598 -50.260667 
L 198.444182 -48.107099 
L 195.993767 -46.569048 
L 193.543351 -45.533171 
L 191.092935 -44.878412 
L 188.64252 -44.491729 
L 186.192104 -44.278092 
L 183.741688 -44.165064 
L 181.291273 -44.10306 
L 178.840857 -44.062551 
L 176.390442 -44.029407 
L 173.940026 -43.999495 
L 171.48961 -43.973549 
L 169.039195 -43.953158 
L 166.588779 -43.938427 
L 164.138363 -43.927371 
L 161.687948 -43.916702 
L 159.237532 -43.903352 
L 156.787117 -43.885993 
L 154.336701 -43.865968 
L 151.886285 -43.847344 
L 149.43587 -43.836097 
L 146.985454 -43.838739 
L 144.535038 -43.860743 
L 142.084623 -43.905151 
L 139.634207 -43.971525 
L 137.183792 -44.055361 
L 134.733376 -44.147983 
L 132.28296 -44.237101 
L 129.832545 -44.308217 
L 127.382129 -44.346977 
L 124.931713 -44.342144 
L 122.481298 -44.288464 
L 120.030882 -44.188386 
L 117.580467 -44.051888 
L 115.130051 -43.894286 
L 112.679635 -43.732702 
L 110.22922 -43.582389 
L 107.778804 -43.45404 
L 105.328388 -43.352745 
L 102.877973 -43.278519 
L 100.427557 -43.227865 
L 97.977142 -43.195596 
L 95.526726 -43.176377 
L 93.07631 -43.16566 
z
" style="stroke: #f59e0b; stroke-width: 2.2"/>
    </defs>
    <g clip-path="url(#pdcf5d9d232)">
     <use xlink:href="#m178c96c512" x="0" y="353.981094" style="fill: #f59e0b; fill-opacity: 0.18; stroke: #f59e0b; stroke-width: 2.2"/>
    </g>
   </g>
   <g id="FillBetweenPolyCollection_3">
    <defs>
     <path id="m5ef0e04041" d="M 73.436293 -43.173117 
L 73.436293 -43.155156 
L 75.54594 -43.155156 
L 77.655587 -43.155156 
L 79.765235 -43.155156 
L 81.874882 -43.155156 
L 83.98453 -43.155156 
L 86.094177 -43.155156 
L 88.203825 -43.155156 
L 90.313472 -43.155156 
L 92.423119 -43.155156 
L 94.532767 -43.155156 
L 96.642414 -43.155156 
L 98.752062 -43.155156 
L 100.861709 -43.155156 
L 102.971357 -43.155156 
L 105.081004 -43.155156 
L 107.190651 -43.155156 
L 109.300299 -43.155156 
L 111.409946 -43.155156 
L 113.519594 -43.155156 
L 115.629241 -43.155156 
L 117.738888 -43.155156 
L 119.848536 -43.155156 
L 121.958183 -43.155156 
L 124.067831 -43.155156 
L 126.177478 -43.155156 
L 128.287126 -43.155156 
L 130.396773 -43.155156 
L 132.50642 -43.155156 
L 134.616068 -43.155156 
L 136.725715 -43.155156 
L 138.835363 -43.155156 
L 140.94501 -43.155156 
L 143.054658 -43.155156 
L 145.164305 -43.155156 
L 147.273952 -43.155156 
L 149.3836 -43.155156 
L 151.493247 -43.155156 
L 153.602895 -43.155156 
L 155.712542 -43.155156 
L 157.82219 -43.155156 
L 159.931837 -43.155156 
L 162.041484 -43.155156 
L 164.151132 -43.155156 
L 166.260779 -43.155156 
L 168.370427 -43.155156 
L 170.480074 -43.155156 
L 172.589721 -43.155156 
L 174.699369 -43.155156 
L 176.809016 -43.155156 
L 178.918664 -43.155156 
L 181.028311 -43.155156 
L 183.137959 -43.155156 
L 185.247606 -43.155156 
L 187.357253 -43.155156 
L 189.466901 -43.155156 
L 191.576548 -43.155156 
L 193.686196 -43.155156 
L 195.795843 -43.155156 
L 197.905491 -43.155156 
L 200.015138 -43.155156 
L 202.124785 -43.155156 
L 204.234433 -43.155156 
L 206.34408 -43.155156 
L 208.453728 -43.155156 
L 210.563375 -43.155156 
L 212.673023 -43.155156 
L 214.78267 -43.155156 
L 216.892317 -43.155156 
L 219.001965 -43.155156 
L 221.111612 -43.155156 
L 223.22126 -43.155156 
L 225.330907 -43.155156 
L 227.440554 -43.155156 
L 229.550202 -43.155156 
L 231.659849 -43.155156 
L 233.769497 -43.155156 
L 235.879144 -43.155156 
L 237.988792 -43.155156 
L 240.098439 -43.155156 
L 242.208086 -43.155156 
L 244.317734 -43.155156 
L 246.427381 -43.155156 
L 248.537029 -43.155156 
L 250.646676 -43.155156 
L 252.756324 -43.155156 
L 254.865971 -43.155156 
L 256.975618 -43.155156 
L 259.085266 -43.155156 
L 261.194913 -43.155156 
L 263.304561 -43.155156 
L 265.414208 -43.155156 
L 267.523856 -43.155156 
L 269.633503 -43.155156 
L 271.74315 -43.155156 
L 273.852798 -43.155156 
L 275.962445 -43.155156 
L 278.072093 -43.155156 
L 280.18174 -43.155156 
L 282.291388 -43.155156 
L 284.401035 -43.155156 
L 286.510682 -43.155156 
L 288.62033 -43.155156 
L 290.729977 -43.155156 
L 292.839625 -43.155156 
L 294.949272 -43.155156 
L 297.058919 -43.155156 
L 299.168567 -43.155156 
L 301.278214 -43.155156 
L 303.387862 -43.155156 
L 305.497509 -43.155156 
L 307.607157 -43.155156 
L 309.716804 -43.155156 
L 311.826451 -43.155156 
L 313.936099 -43.155156 
L 316.045746 -43.155156 
L 318.155394 -43.155156 
L 320.265041 -43.155156 
L 322.374689 -43.155156 
L 324.484336 -43.155156 
L 326.593983 -43.155156 
L 328.703631 -43.155156 
L 330.813278 -43.155156 
L 332.922926 -43.155156 
L 335.032573 -43.155156 
L 337.142221 -43.155156 
L 339.251868 -43.155156 
L 341.361515 -43.155156 
L 343.471163 -43.155156 
L 345.58081 -43.155156 
L 347.690458 -43.155156 
L 349.800105 -43.155156 
L 351.909752 -43.155156 
L 354.0194 -43.155156 
L 356.129047 -43.155156 
L 358.238695 -43.155156 
L 360.348342 -43.155156 
L 362.45799 -43.155156 
L 364.567637 -43.155156 
L 366.677284 -43.155156 
L 368.786932 -43.155156 
L 370.896579 -43.155156 
L 373.006227 -43.155156 
L 375.115874 -43.155156 
L 377.225522 -43.155156 
L 379.335169 -43.155156 
L 381.444816 -43.155156 
L 383.554464 -43.155156 
L 385.664111 -43.155156 
L 387.773759 -43.155156 
L 389.883406 -43.155156 
L 391.993054 -43.155156 
L 394.102701 -43.155156 
L 396.212348 -43.155156 
L 398.321996 -43.155156 
L 400.431643 -43.155156 
L 402.541291 -43.155156 
L 404.650938 -43.155156 
L 406.760585 -43.155156 
L 408.870233 -43.155156 
L 410.97988 -43.155156 
L 413.089528 -43.155156 
L 415.199175 -43.155156 
L 417.308823 -43.155156 
L 419.41847 -43.155156 
L 421.528117 -43.155156 
L 423.637765 -43.155156 
L 425.747412 -43.155156 
L 427.85706 -43.155156 
L 429.966707 -43.155156 
L 432.076355 -43.155156 
L 434.186002 -43.155156 
L 436.295649 -43.155156 
L 438.405297 -43.155156 
L 440.514944 -43.155156 
L 442.624592 -43.155156 
L 444.734239 -43.155156 
L 446.843887 -43.155156 
L 448.953534 -43.155156 
L 451.063181 -43.155156 
L 453.172829 -43.155156 
L 455.282476 -43.155156 
L 457.392124 -43.155156 
L 459.501771 -43.155156 
L 461.611418 -43.155156 
L 463.721066 -43.155156 
L 465.830713 -43.155156 
L 467.940361 -43.155156 
L 470.050008 -43.155156 
L 472.159656 -43.155156 
L 474.269303 -43.155156 
L 476.37895 -43.155156 
L 478.488598 -43.155156 
L 480.598245 -43.155156 
L 482.707893 -43.155156 
L 484.81754 -43.155156 
L 486.927188 -43.155156 
L 489.036835 -43.155156 
L 491.146482 -43.155156 
L 493.25613 -43.155156 
L 493.25613 -43.161399 
L 493.25613 -43.161399 
L 491.146482 -43.164933 
L 489.036835 -43.170203 
L 486.927188 -43.177919 
L 484.81754 -43.189009 
L 482.707893 -43.204662 
L 480.598245 -43.226359 
L 478.488598 -43.255899 
L 476.37895 -43.295411 
L 474.269303 -43.34734 
L 472.159656 -43.414416 
L 470.050008 -43.499586 
L 467.940361 -43.605923 
L 465.830713 -43.736498 
L 463.721066 -43.894239 
L 461.611418 -44.081763 
L 459.501771 -44.301214 
L 457.392124 -44.554104 
L 455.282476 -44.841178 
L 453.172829 -45.162314 
L 451.063181 -45.516477 
L 448.953534 -45.901727 
L 446.843887 -46.315281 
L 444.734239 -46.753644 
L 442.624592 -47.212788 
L 440.514944 -47.688365 
L 438.405297 -48.175953 
L 436.295649 -48.671296 
L 434.186002 -49.170518 
L 432.076355 -49.670307 
L 429.966707 -50.168023 
L 427.85706 -50.661733 
L 425.747412 -51.150161 
L 423.637765 -51.632555 
L 421.528117 -52.10848 
L 419.41847 -52.577564 
L 417.308823 -53.039218 
L 415.199175 -53.492371 
L 413.089528 -53.935254 
L 410.97988 -54.365271 
L 408.870233 -54.778978 
L 406.760585 -55.172202 
L 404.650938 -55.540282 
L 402.541291 -55.87845 
L 400.431643 -56.182288 
L 398.321996 -56.448262 
L 396.212348 -56.674238 
L 394.102701 -56.859969 
L 391.993054 -57.007464 
L 389.883406 -57.121224 
L 387.773759 -57.208298 
L 385.664111 -57.278157 
L 383.554464 -57.34239 
L 381.444816 -57.414239 
L 379.335169 -57.508011 
L 377.225522 -57.638415 
L 375.115874 -57.819857 
L 373.006227 -58.06575 
L 370.896579 -58.387877 
L 368.786932 -58.795835 
L 366.677284 -59.296595 
L 364.567637 -59.894185 
L 362.45799 -60.589531 
L 360.348342 -61.380431 
L 358.238695 -62.261691 
L 356.129047 -63.225392 
L 354.0194 -64.26128 
L 351.909752 -65.357252 
L 349.800105 -66.499904 
L 347.690458 -67.675099 
L 345.58081 -68.868506 
L 343.471163 -70.066091 
L 341.361515 -71.254503 
L 339.251868 -72.421355 
L 337.142221 -73.555394 
L 335.032573 -74.646557 
L 332.922926 -75.685946 
L 330.813278 -76.665749 
L 328.703631 -77.579126 
L 326.593983 -78.420103 
L 324.484336 -79.183478 
L 322.374689 -79.864775 
L 320.265041 -80.460253 
L 318.155394 -80.966988 
L 316.045746 -81.383033 
L 313.936099 -81.707665 
L 311.826451 -81.941708 
L 309.716804 -82.087908 
L 307.607157 -82.151322 
L 305.497509 -82.139635 
L 303.387862 -82.063353 
L 301.278214 -81.935771 
L 299.168567 -81.77266 
L 297.058919 -81.591639 
L 294.949272 -81.411245 
L 292.839625 -81.249768 
L 290.729977 -81.123955 
L 288.62033 -81.047741 
L 286.510682 -81.031144 
L 284.401035 -81.079477 
L 282.291388 -81.192954 
L 280.18174 -81.366731 
L 278.072093 -81.591356 
L 275.962445 -81.853519 
L 273.852798 -82.136992 
L 271.74315 -82.42359 
L 269.633503 -82.694049 
L 267.523856 -82.928707 
L 265.414208 -83.107974 
L 263.304561 -83.212595 
L 261.194913 -83.223805 
L 259.085266 -83.123464 
L 256.975618 -82.894306 
L 254.865971 -82.520391 
L 252.756324 -81.987813 
L 250.646676 -81.285669 
L 248.537029 -80.407226 
L 246.427381 -79.351148 
L 244.317734 -78.122657 
L 242.208086 -76.734413 
L 240.098439 -75.206992 
L 237.988792 -73.568798 
L 235.879144 -71.855368 
L 233.769497 -70.108048 
L 231.659849 -68.372126 
L 229.550202 -66.694538 
L 227.440554 -65.121336 
L 225.330907 -63.69512 
L 223.22126 -62.452637 
L 221.111612 -61.422729 
L 219.001965 -60.62479 
L 216.892317 -60.067813 
L 214.78267 -59.750065 
L 212.673023 -59.659393 
L 210.563375 -59.774081 
L 208.453728 -60.064163 
L 206.34408 -60.493103 
L 204.234433 -61.019699 
L 202.124785 -61.600118 
L 200.015138 -62.18996 
L 197.905491 -62.746266 
L 195.795843 -63.229398 
L 193.686196 -63.60473 
L 191.576548 -63.844064 
L 189.466901 -63.926727 
L 187.357253 -63.840263 
L 185.247606 -63.58068 
L 183.137959 -63.15221 
L 181.028311 -62.566596 
L 178.918664 -61.841935 
L 176.809016 -61.001173 
L 174.699369 -60.070386 
L 172.589721 -59.076982 
L 170.480074 -58.048 
L 168.370427 -57.008645 
L 166.260779 -55.981164 
L 164.151132 -54.984138 
L 162.041484 -54.032182 
L 159.931837 -53.136027 
L 157.82219 -52.302883 
L 155.712542 -51.536989 
L 153.602895 -50.840224 
L 151.493247 -50.212687 
L 149.3836 -49.653163 
L 147.273952 -49.159436 
L 145.164305 -48.72844 
L 143.054658 -48.356278 
L 140.94501 -48.038163 
L 138.835363 -47.768331 
L 136.725715 -47.540015 
L 134.616068 -47.345504 
L 132.50642 -47.176344 
L 130.396773 -47.023679 
L 128.287126 -46.878707 
L 126.177478 -46.733213 
L 124.067831 -46.580112 
L 121.958183 -46.413936 
L 119.848536 -46.231196 
L 117.738888 -46.030577 
L 115.629241 -45.812924 
L 113.519594 -45.581038 
L 111.409946 -45.33929 
L 109.300299 -45.093122 
L 107.190651 -44.848473 
L 105.081004 -44.611226 
L 102.971357 -44.386707 
L 100.861709 -44.179304 
L 98.752062 -43.992221 
L 96.642414 -43.827381 
L 94.532767 -43.685458 
L 92.423119 -43.566018 
L 90.313472 -43.467734 
L 88.203825 -43.388635 
L 86.094177 -43.326358 
L 83.98453 -43.278381 
L 81.874882 -43.242207 
L 79.765235 -43.215509 
L 77.655587 -43.196219 
L 75.54594 -43.182572 
L 73.436293 -43.173117 
z
" style="stroke: #10b981; stroke-width: 2.2"/>
    </defs>
    <g clip-path="url(#pdcf5d9d232)">
     <use xlink:href="#m5ef0e04041" x="0" y="353.981094" style="fill: #10b981; fill-opacity: 0.18; stroke: #10b981; stroke-width: 2.2"/>
    </g>
   </g>
   <g id="matplotlib.axis_1">
    <g id="xtick_1">
     <g id="line2d_1">
      <path d="M 120.373831 310.825937 
L 120.373831 33.625937 
" clip-path="url(#pdcf5d9d232)" style="fill: none; stroke: #334155; stroke-opacity: 0.15; stroke-width: 0.4; stroke-linecap: square"/>
     </g>
     <g id="line2d_2">
      <defs>
       <path id="mcea292f1b3" d="M 0 0 
L 0 3.5 
" style="stroke: #94a3b8; stroke-width: 0.8"/>
      </defs>
      <g>
       <use xlink:href="#mcea292f1b3" x="120.373831" y="310.825937" style="fill: #94a3b8; stroke: #94a3b8; stroke-width: 0.8"/>
      </g>
     </g>
     <g id="text_1">
      <!-- 0 -->
      <g style="fill: #94a3b8" transform="translate(117.594144 324.966562) scale(0.1 -0.1)">
       <defs>
        <path id="HelveticaNeue-30" d="M 845 2234 
Q 845 2400 848 2601 
Q 851 2803 880 3004 
Q 909 3206 963 3398 
Q 1018 3590 1123 3734 
Q 1229 3878 1389 3968 
Q 1549 4058 1779 4058 
Q 2010 4058 2170 3968 
Q 2330 3878 2435 3734 
Q 2541 3590 2595 3398 
Q 2650 3206 2678 3004 
Q 2707 2803 2710 2601 
Q 2714 2400 2714 2234 
Q 2714 1978 2698 1661 
Q 2682 1344 2595 1065 
Q 2509 787 2317 595 
Q 2125 403 1779 403 
Q 1434 403 1242 595 
Q 1050 787 963 1065 
Q 877 1344 861 1661 
Q 845 1978 845 2234 
z
M 269 2227 
Q 269 1978 281 1709 
Q 294 1440 345 1184 
Q 397 928 493 701 
Q 589 474 755 301 
Q 922 128 1174 29 
Q 1427 -70 1779 -70 
Q 2138 -70 2387 29 
Q 2637 128 2803 301 
Q 2970 474 3066 701 
Q 3162 928 3213 1184 
Q 3264 1440 3277 1709 
Q 3290 1978 3290 2227 
Q 3290 2477 3277 2745 
Q 3264 3014 3213 3270 
Q 3162 3526 3066 3756 
Q 2970 3987 2803 4160 
Q 2637 4333 2384 4435 
Q 2131 4538 1779 4538 
Q 1427 4538 1174 4435 
Q 922 4333 755 4160 
Q 589 3987 493 3756 
Q 397 3526 345 3270 
Q 294 3014 281 2745 
Q 269 2477 269 2227 
z
" transform="scale(0.015625)"/>
       </defs>
       <use xlink:href="#HelveticaNeue-30"/>
      </g>
     </g>
    </g>
    <g id="xtick_2">
     <g id="line2d_3">
      <path d="M 196.722998 310.825937 
L 196.722998 33.625937 
" clip-path="url(#pdcf5d9d232)" style="fill: none; stroke: #334155; stroke-opacity: 0.15; stroke-width: 0.4; stroke-linecap: square"/>
     </g>
     <g id="line2d_4">
      <g>
       <use xlink:href="#mcea292f1b3" x="196.722998" y="310.825937" style="fill: #94a3b8; stroke: #94a3b8; stroke-width: 0.8"/>
      </g>
     </g>
     <g id="text_2">
      <!-- 2 -->
      <g style="fill: #94a3b8" transform="translate(193.943311 324.966562) scale(0.1 -0.1)">
       <defs>
        <path id="HelveticaNeue-32" d="M 282 2931 
L 826 2931 
Q 819 3136 867 3337 
Q 915 3539 1024 3699 
Q 1133 3859 1302 3958 
Q 1472 4058 1709 4058 
Q 1888 4058 2048 4000 
Q 2208 3942 2326 3833 
Q 2445 3725 2515 3574 
Q 2586 3424 2586 3238 
Q 2586 3002 2512 2822 
Q 2438 2643 2294 2489 
Q 2150 2336 1932 2185 
Q 1715 2035 1427 1856 
Q 1190 1715 972 1555 
Q 755 1395 582 1184 
Q 410 973 298 688 
Q 186 403 154 0 
L 3117 0 
L 3117 480 
L 787 480 
Q 826 691 950 854 
Q 1075 1018 1251 1158 
Q 1427 1299 1638 1424 
Q 1850 1549 2061 1677 
Q 2272 1811 2470 1958 
Q 2669 2106 2822 2288 
Q 2976 2470 3069 2700 
Q 3162 2931 3162 3232 
Q 3162 3552 3050 3795 
Q 2938 4038 2746 4201 
Q 2554 4365 2294 4451 
Q 2035 4538 1741 4538 
Q 1382 4538 1100 4416 
Q 819 4294 630 4080 
Q 442 3866 352 3571 
Q 262 3277 282 2931 
z
" transform="scale(0.015625)"/>
       </defs>
       <use xlink:href="#HelveticaNeue-32"/>
      </g>
     </g>
    </g>
    <g id="xtick_3">
     <g id="line2d_5">
      <path d="M 273.072166 310.825937 
L 273.072166 33.625937 
" clip-path="url(#pdcf5d9d232)" style="fill: none; stroke: #334155; stroke-opacity: 0.15; stroke-width: 0.4; stroke-linecap: square"/>
     </g>
     <g id="line2d_6">
      <g>
       <use xlink:href="#mcea292f1b3" x="273.072166" y="310.825937" style="fill: #94a3b8; stroke: #94a3b8; stroke-width: 0.8"/>
      </g>
     </g>
     <g id="text_3">
      <!-- 4 -->
      <g style="fill: #94a3b8" transform="translate(270.292478 324.966562) scale(0.1 -0.1)">
       <defs>
        <path id="HelveticaNeue-34" d="M 2170 1542 
L 646 1542 
L 2157 3763 
L 2170 3763 
L 2170 1542 
z
M 2682 1542 
L 2682 4538 
L 2246 4538 
L 179 1587 
L 179 1062 
L 2170 1062 
L 2170 0 
L 2682 0 
L 2682 1062 
L 3296 1062 
L 3296 1542 
L 2682 1542 
z
" transform="scale(0.015625)"/>
       </defs>
       <use xlink:href="#HelveticaNeue-34"/>
      </g>
     </g>
    </g>
    <g id="xtick_4">
     <g id="line2d_7">
      <path d="M 349.421333 310.825937 
L 349.421333 33.625937 
" clip-path="url(#pdcf5d9d232)" style="fill: none; stroke: #334155; stroke-opacity: 0.15; stroke-width: 0.4; stroke-linecap: square"/>
     </g>
     <g id="line2d_8">
      <g>
       <use xlink:href="#mcea292f1b3" x="349.421333" y="310.825937" style="fill: #94a3b8; stroke: #94a3b8; stroke-width: 0.8"/>
      </g>
     </g>
     <g id="text_4">
      <!-- 6 -->
      <g style="fill: #94a3b8" transform="translate(346.641645 324.966562) scale(0.1 -0.1)">
       <defs>
        <path id="HelveticaNeue-36" d="M 2650 3379 
L 3194 3379 
Q 3142 3942 2809 4240 
Q 2477 4538 1914 4538 
Q 1427 4538 1107 4333 
Q 787 4128 595 3789 
Q 403 3450 323 3011 
Q 243 2573 243 2106 
Q 243 1747 297 1363 
Q 352 979 518 659 
Q 685 339 992 134 
Q 1299 -70 1805 -70 
Q 2234 -70 2525 74 
Q 2816 218 2992 438 
Q 3168 659 3245 928 
Q 3322 1197 3322 1446 
Q 3322 1760 3226 2029 
Q 3130 2298 2954 2496 
Q 2778 2694 2518 2806 
Q 2259 2918 1933 2918 
Q 1562 2918 1277 2777 
Q 992 2637 800 2323 
L 787 2336 
Q 794 2598 838 2899 
Q 883 3200 1001 3459 
Q 1120 3718 1331 3888 
Q 1542 4058 1888 4058 
Q 2214 4058 2412 3872 
Q 2611 3686 2650 3379 
z
M 1830 2438 
Q 2061 2438 2233 2355 
Q 2406 2272 2521 2134 
Q 2637 1997 2691 1808 
Q 2746 1619 2746 1408 
Q 2746 1210 2685 1027 
Q 2624 845 2509 704 
Q 2394 563 2224 483 
Q 2054 403 1830 403 
Q 1606 403 1430 483 
Q 1254 563 1136 697 
Q 1018 832 954 1017 
Q 890 1203 890 1414 
Q 890 1626 950 1814 
Q 1011 2003 1132 2140 
Q 1254 2278 1427 2358 
Q 1600 2438 1830 2438 
z
" transform="scale(0.015625)"/>
       </defs>
       <use xlink:href="#HelveticaNeue-36"/>
      </g>
     </g>
    </g>
    <g id="xtick_5">
     <g id="line2d_9">
      <path d="M 425.7705 310.825937 
L 425.7705 33.625937 
" clip-path="url(#pdcf5d9d232)" style="fill: none; stroke: #334155; stroke-opacity: 0.15; stroke-width: 0.4; stroke-linecap: square"/>
     </g>
     <g id="line2d_10">
      <g>
       <use xlink:href="#mcea292f1b3" x="425.7705" y="310.825937" style="fill: #94a3b8; stroke: #94a3b8; stroke-width: 0.8"/>
      </g>
     </g>
     <g id="text_5">
      <!-- 8 -->
      <g style="fill: #94a3b8" transform="translate(422.990812 324.966562) scale(0.1 -0.1)">
       <defs>
        <path id="HelveticaNeue-38" d="M 992 3360 
Q 992 3533 1056 3661 
Q 1120 3789 1225 3878 
Q 1331 3968 1478 4013 
Q 1626 4058 1786 4058 
Q 2118 4058 2332 3882 
Q 2547 3706 2547 3360 
Q 2547 3014 2336 2822 
Q 2125 2630 1798 2630 
Q 1632 2630 1485 2675 
Q 1338 2720 1229 2809 
Q 1120 2899 1056 3036 
Q 992 3174 992 3360 
z
M 416 3379 
Q 416 3072 589 2813 
Q 762 2554 1050 2438 
Q 666 2304 461 2006 
Q 256 1709 256 1306 
Q 256 960 374 701 
Q 493 442 701 269 
Q 909 96 1190 13 
Q 1472 -70 1798 -70 
Q 2112 -70 2387 19 
Q 2662 109 2864 285 
Q 3066 461 3184 717 
Q 3302 973 3302 1306 
Q 3302 1728 3104 2019 
Q 2906 2310 2496 2438 
Q 2784 2566 2953 2819 
Q 3123 3072 3123 3379 
Q 3123 3597 3046 3805 
Q 2970 4013 2806 4176 
Q 2643 4339 2380 4438 
Q 2118 4538 1747 4538 
Q 1485 4538 1245 4461 
Q 1005 4384 819 4237 
Q 634 4090 525 3875 
Q 416 3661 416 3379 
z
M 832 1280 
Q 832 1478 905 1638 
Q 979 1798 1110 1913 
Q 1242 2029 1418 2089 
Q 1594 2150 1792 2150 
Q 1984 2150 2153 2083 
Q 2323 2016 2451 1901 
Q 2579 1786 2652 1629 
Q 2726 1472 2726 1286 
Q 2726 1094 2659 934 
Q 2592 774 2467 656 
Q 2342 538 2172 470 
Q 2003 403 1798 403 
Q 1376 403 1104 636 
Q 832 870 832 1280 
z
" transform="scale(0.015625)"/>
       </defs>
       <use xlink:href="#HelveticaNeue-38"/>
      </g>
     </g>
    </g>
    <g id="xtick_6">
     <g id="line2d_11">
      <path d="M 502.119667 310.825937 
L 502.119667 33.625937 
" clip-path="url(#pdcf5d9d232)" style="fill: none; stroke: #334155; stroke-opacity: 0.15; stroke-width: 0.4; stroke-linecap: square"/>
     </g>
     <g id="line2d_12">
      <g>
       <use xlink:href="#mcea292f1b3" x="502.119667" y="310.825937" style="fill: #94a3b8; stroke: #94a3b8; stroke-width: 0.8"/>
      </g>
     </g>
     <g id="text_6">
      <!-- 10 -->
      <g style="fill: #94a3b8" transform="translate(496.560292 324.966562) scale(0.1 -0.1)">
       <defs>
        <path id="HelveticaNeue-31" d="M 2278 0 
L 2278 4538 
L 1862 4538 
Q 1818 4282 1696 4115 
Q 1574 3949 1398 3853 
Q 1222 3757 1004 3721 
Q 787 3686 557 3686 
L 557 3251 
L 1734 3251 
L 1734 0 
L 2278 0 
z
" transform="scale(0.015625)"/>
       </defs>
       <use xlink:href="#HelveticaNeue-31"/>
       <use xlink:href="#HelveticaNeue-30" transform="translate(55.599991 0)"/>
      </g>
     </g>
    </g>
    <g id="xtick_7">
     <g id="line2d_13">
      <path d="M 578.468834 310.825937 
L 578.468834 33.625937 
" clip-path="url(#pdcf5d9d232)" style="fill: none; stroke: #334155; stroke-opacity: 0.15; stroke-width: 0.4; stroke-linecap: square"/>
     </g>
     <g id="line2d_14">
      <g>
       <use xlink:href="#mcea292f1b3" x="578.468834" y="310.825937" style="fill: #94a3b8; stroke: #94a3b8; stroke-width: 0.8"/>
      </g>
     </g>
     <g id="text_7">
      <!-- 12 -->
      <g style="fill: #94a3b8" transform="translate(572.909459 324.966562) scale(0.1 -0.1)">
       <use xlink:href="#HelveticaNeue-31"/>
       <use xlink:href="#HelveticaNeue-32" transform="translate(55.599991 0)"/>
      </g>
     </g>
    </g>
    <g id="text_8">
     <!-- Max Q-Value -->
     <g style="fill: #f8fafc" transform="translate(289.626563 344.219687) scale(0.13 -0.13)">
      <defs>
       <path id="HelveticaNeue-4d" d="M 512 4570 
L 512 0 
L 1088 0 
L 1088 3802 
L 1101 3802 
L 2528 0 
L 3046 0 
L 4474 3802 
L 4486 3802 
L 4486 0 
L 5062 0 
L 5062 4570 
L 4230 4570 
L 2784 730 
L 1344 4570 
L 512 4570 
z
" transform="scale(0.015625)"/>
       <path id="HelveticaNeue-61" d="M 3341 13 
Q 3200 -70 2950 -70 
Q 2739 -70 2614 48 
Q 2490 166 2490 435 
Q 2266 166 1968 48 
Q 1670 -70 1325 -70 
Q 1101 -70 899 -19 
Q 698 32 550 141 
Q 403 250 316 426 
Q 230 602 230 851 
Q 230 1133 326 1312 
Q 422 1491 579 1603 
Q 736 1715 937 1772 
Q 1139 1830 1350 1869 
Q 1574 1914 1776 1936 
Q 1978 1958 2131 2000 
Q 2285 2042 2374 2122 
Q 2464 2202 2464 2355 
Q 2464 2534 2397 2643 
Q 2330 2752 2224 2809 
Q 2118 2867 1987 2886 
Q 1856 2906 1728 2906 
Q 1382 2906 1152 2774 
Q 922 2643 902 2278 
L 358 2278 
Q 371 2586 486 2797 
Q 602 3008 794 3139 
Q 986 3270 1232 3328 
Q 1478 3386 1760 3386 
Q 1984 3386 2205 3354 
Q 2426 3322 2605 3222 
Q 2784 3123 2893 2944 
Q 3002 2765 3002 2477 
L 3002 774 
Q 3002 582 3024 492 
Q 3046 403 3174 403 
Q 3245 403 3341 435 
L 3341 13 
z
M 2458 1709 
Q 2355 1632 2188 1597 
Q 2022 1562 1840 1539 
Q 1658 1517 1472 1488 
Q 1286 1459 1139 1395 
Q 992 1331 899 1212 
Q 806 1094 806 890 
Q 806 755 860 662 
Q 915 570 1001 512 
Q 1088 454 1203 428 
Q 1318 403 1446 403 
Q 1715 403 1907 476 
Q 2099 550 2220 662 
Q 2342 774 2400 905 
Q 2458 1037 2458 1152 
L 2458 1709 
z
" transform="scale(0.015625)"/>
       <path id="HelveticaNeue-78" d="M 1299 1741 
L 58 0 
L 717 0 
L 1638 1370 
L 2560 0 
L 3258 0 
L 1978 1786 
L 3117 3309 
L 2464 3309 
L 1638 2150 
L 845 3309 
L 147 3309 
L 1299 1741 
z
" transform="scale(0.015625)"/>
       <path id="HelveticaNeue-20" transform="scale(0.015625)"/>
       <path id="HelveticaNeue-51" d="M 2880 1306 
L 2560 934 
L 3066 531 
Q 2758 403 2432 403 
Q 2016 403 1715 566 
Q 1414 730 1222 998 
Q 1030 1267 940 1603 
Q 851 1939 851 2285 
Q 851 2630 940 2966 
Q 1030 3302 1222 3571 
Q 1414 3840 1715 4003 
Q 2016 4166 2432 4166 
Q 2848 4166 3149 4003 
Q 3450 3840 3642 3571 
Q 3834 3302 3923 2966 
Q 4013 2630 4013 2285 
Q 4013 1862 3885 1475 
Q 3757 1088 3488 819 
L 2880 1306 
z
M 4224 -390 
L 4531 -6 
L 3930 467 
Q 4275 813 4448 1286 
Q 4621 1760 4621 2285 
Q 4621 2752 4483 3184 
Q 4346 3616 4070 3949 
Q 3795 4282 3385 4480 
Q 2976 4678 2432 4678 
Q 1888 4678 1478 4480 
Q 1069 4282 793 3949 
Q 518 3616 380 3184 
Q 243 2752 243 2285 
Q 243 1818 380 1386 
Q 518 954 793 621 
Q 1069 288 1478 93 
Q 1888 -102 2432 -102 
Q 3066 -102 3526 166 
L 4224 -390 
z
" transform="scale(0.015625)"/>
       <path id="HelveticaNeue-2d" d="M 320 2035 
L 320 1523 
L 2170 1523 
L 2170 2035 
L 320 2035 
z
" transform="scale(0.015625)"/>
       <path id="HelveticaNeue-56" d="M 2298 0 
L 3923 4570 
L 3290 4570 
L 1971 608 
L 1958 608 
L 653 4570 
L 0 4570 
L 1606 0 
L 2298 0 
z
" transform="scale(0.015625)"/>
       <path id="HelveticaNeue-6c" d="M 442 4570 
L 442 0 
L 986 0 
L 986 4570 
L 442 4570 
z
" transform="scale(0.015625)"/>
       <path id="HelveticaNeue-75" d="M 3149 0 
L 3149 3309 
L 2605 3309 
L 2605 1440 
Q 2605 1216 2544 1027 
Q 2483 838 2361 697 
Q 2240 557 2057 480 
Q 1875 403 1626 403 
Q 1312 403 1133 582 
Q 954 762 954 1069 
L 954 3309 
L 410 3309 
L 410 1133 
Q 410 864 464 643 
Q 518 422 652 262 
Q 787 102 1004 16 
Q 1222 -70 1549 -70 
Q 1914 -70 2182 74 
Q 2451 218 2624 525 
L 2637 525 
L 2637 0 
L 3149 0 
z
" transform="scale(0.015625)"/>
       <path id="HelveticaNeue-65" d="M 2707 1971 
L 806 1971 
Q 819 2163 889 2332 
Q 960 2502 1081 2630 
Q 1203 2758 1372 2832 
Q 1542 2906 1754 2906 
Q 1958 2906 2128 2832 
Q 2298 2758 2422 2633 
Q 2547 2509 2620 2336 
Q 2694 2163 2707 1971 
z
M 3232 1050 
L 2694 1050 
Q 2624 723 2403 563 
Q 2182 403 1837 403 
Q 1568 403 1369 492 
Q 1171 582 1043 732 
Q 915 883 857 1078 
Q 800 1274 806 1491 
L 3283 1491 
Q 3296 1792 3229 2125 
Q 3162 2458 2986 2739 
Q 2810 3021 2518 3203 
Q 2227 3386 1786 3386 
Q 1446 3386 1161 3258 
Q 877 3130 669 2899 
Q 461 2669 345 2355 
Q 230 2042 230 1664 
Q 243 1286 342 966 
Q 442 646 640 416 
Q 838 186 1129 58 
Q 1421 -70 1818 -70 
Q 2381 -70 2752 211 
Q 3123 493 3232 1050 
z
" transform="scale(0.015625)"/>
      </defs>
      <use xlink:href="#HelveticaNeue-4d"/>
      <use xlink:href="#HelveticaNeue-61" transform="translate(87.099991 0)"/>
      <use xlink:href="#HelveticaNeue-78" transform="translate(140.799988 0)"/>
      <use xlink:href="#HelveticaNeue-20" transform="translate(192.599976 0)"/>
      <use xlink:href="#HelveticaNeue-51" transform="translate(220.399963 0)"/>
      <use xlink:href="#HelveticaNeue-2d" transform="translate(296.399948 0)"/>
      <use xlink:href="#HelveticaNeue-56" transform="translate(335.299942 0)"/>
      <use xlink:href="#HelveticaNeue-61" transform="translate(390.899933 0)"/>
      <use xlink:href="#HelveticaNeue-6c" transform="translate(444.59993 0)"/>
      <use xlink:href="#HelveticaNeue-75" transform="translate(466.799927 0)"/>
      <use xlink:href="#HelveticaNeue-65" transform="translate(522.399918 0)"/>
     </g>
    </g>
   </g>
   <g id="matplotlib.axis_2">
    <g id="ytick_1">
     <g id="line2d_15">
      <path d="M 48.072656 310.825937 
L 606.072656 310.825937 
" clip-path="url(#pdcf5d9d232)" style="fill: none; stroke: #334155; stroke-opacity: 0.3; stroke-width: 0.4; stroke-linecap: square"/>
     </g>
     <g id="line2d_16">
      <defs>
       <path id="mf0ddd1a255" d="M 0 0 
L -3.5 0 
" style="stroke: #94a3b8; stroke-width: 0.8"/>
      </defs>
      <g>
       <use xlink:href="#mf0ddd1a255" x="48.072656" y="310.825937" style="fill: #94a3b8; stroke: #94a3b8; stroke-width: 0.8"/>
      </g>
     </g>
     <g id="text_9">
      <!-- 0.0 -->
      <g style="fill: #94a3b8" transform="translate(27.174219 314.39625) scale(0.1 -0.1)">
       <defs>
        <path id="HelveticaNeue-2e" d="M 531 710 
L 531 0 
L 1242 0 
L 1242 710 
L 531 710 
z
" transform="scale(0.015625)"/>
       </defs>
       <use xlink:href="#HelveticaNeue-30"/>
       <use xlink:href="#HelveticaNeue-2e" transform="translate(55.599991 0)"/>
       <use xlink:href="#HelveticaNeue-30" transform="translate(83.399979 0)"/>
      </g>
     </g>
    </g>
    <g id="ytick_2">
     <g id="line2d_17">
      <path d="M 48.072656 274.065606 
L 606.072656 274.065606 
" clip-path="url(#pdcf5d9d232)" style="fill: none; stroke: #334155; stroke-opacity: 0.3; stroke-width: 0.4; stroke-linecap: square"/>
     </g>
     <g id="line2d_18">
      <g>
       <use xlink:href="#mf0ddd1a255" x="48.072656" y="274.065606" style="fill: #94a3b8; stroke: #94a3b8; stroke-width: 0.8"/>
      </g>
     </g>
     <g id="text_10">
      <!-- 0.2 -->
      <g style="fill: #94a3b8" transform="translate(27.174219 277.635918) scale(0.1 -0.1)">
       <use xlink:href="#HelveticaNeue-30"/>
       <use xlink:href="#HelveticaNeue-2e" transform="translate(55.599991 0)"/>
       <use xlink:href="#HelveticaNeue-32" transform="translate(83.399979 0)"/>
      </g>
     </g>
    </g>
    <g id="ytick_3">
     <g id="line2d_19">
      <path d="M 48.072656 237.305274 
L 606.072656 237.305274 
" clip-path="url(#pdcf5d9d232)" style="fill: none; stroke: #334155; stroke-opacity: 0.3; stroke-width: 0.4; stroke-linecap: square"/>
     </g>
     <g id="line2d_20">
      <g>
       <use xlink:href="#mf0ddd1a255" x="48.072656" y="237.305274" style="fill: #94a3b8; stroke: #94a3b8; stroke-width: 0.8"/>
      </g>
     </g>
     <g id="text_11">
      <!-- 0.4 -->
      <g style="fill: #94a3b8" transform="translate(27.174219 240.875586) scale(0.1 -0.1)">
       <use xlink:href="#HelveticaNeue-30"/>
       <use xlink:href="#HelveticaNeue-2e" transform="translate(55.599991 0)"/>
       <use xlink:href="#HelveticaNeue-34" transform="translate(83.399979 0)"/>
      </g>
     </g>
    </g>
    <g id="ytick_4">
     <g id="line2d_21">
      <path d="M 48.072656 200.544942 
L 606.072656 200.544942 
" clip-path="url(#pdcf5d9d232)" style="fill: none; stroke: #334155; stroke-opacity: 0.3; stroke-width: 0.4; stroke-linecap: square"/>
     </g>
     <g id="line2d_22">
      <g>
       <use xlink:href="#mf0ddd1a255" x="48.072656" y="200.544942" style="fill: #94a3b8; stroke: #94a3b8; stroke-width: 0.8"/>
      </g>
     </g>
     <g id="text_12">
      <!-- 0.6 -->
      <g style="fill: #94a3b8" transform="translate(27.174219 204.115255) scale(0.1 -0.1)">
       <use xlink:href="#HelveticaNeue-30"/>
       <use xlink:href="#HelveticaNeue-2e" transform="translate(55.599991 0)"/>
       <use xlink:href="#HelveticaNeue-36" transform="translate(83.399979 0)"/>
      </g>
     </g>
    </g>
    <g id="ytick_5">
     <g id="line2d_23">
      <path d="M 48.072656 163.78461 
L 606.072656 163.78461 
" clip-path="url(#pdcf5d9d232)" style="fill: none; stroke: #334155; stroke-opacity: 0.3; stroke-width: 0.4; stroke-linecap: square"/>
     </g>
     <g id="line2d_24">
      <g>
       <use xlink:href="#mf0ddd1a255" x="48.072656" y="163.78461" style="fill: #94a3b8; stroke: #94a3b8; stroke-width: 0.8"/>
      </g>
     </g>
     <g id="text_13">
      <!-- 0.8 -->
      <g style="fill: #94a3b8" transform="translate(27.174219 167.354923) scale(0.1 -0.1)">
       <use xlink:href="#HelveticaNeue-30"/>
       <use xlink:href="#HelveticaNeue-2e" transform="translate(55.599991 0)"/>
       <use xlink:href="#HelveticaNeue-38" transform="translate(83.399979 0)"/>
      </g>
     </g>
    </g>
    <g id="ytick_6">
     <g id="line2d_25">
      <path d="M 48.072656 127.024279 
L 606.072656 127.024279 
" clip-path="url(#pdcf5d9d232)" style="fill: none; stroke: #334155; stroke-opacity: 0.3; stroke-width: 0.4; stroke-linecap: square"/>
     </g>
     <g id="line2d_26">
      <g>
       <use xlink:href="#mf0ddd1a255" x="48.072656" y="127.024279" style="fill: #94a3b8; stroke: #94a3b8; stroke-width: 0.8"/>
      </g>
     </g>
     <g id="text_14">
      <!-- 1.0 -->
      <g style="fill: #94a3b8" transform="translate(27.174219 130.594591) scale(0.1 -0.1)">
       <use xlink:href="#HelveticaNeue-31"/>
       <use xlink:href="#HelveticaNeue-2e" transform="translate(55.599991 0)"/>
       <use xlink:href="#HelveticaNeue-30" transform="translate(83.399979 0)"/>
      </g>
     </g>
    </g>
    <g id="ytick_7">
     <g id="line2d_27">
      <path d="M 48.072656 90.263947 
L 606.072656 90.263947 
" clip-path="url(#pdcf5d9d232)" style="fill: none; stroke: #334155; stroke-opacity: 0.3; stroke-width: 0.4; stroke-linecap: square"/>
     </g>
     <g id="line2d_28">
      <g>
       <use xlink:href="#mf0ddd1a255" x="48.072656" y="90.263947" style="fill: #94a3b8; stroke: #94a3b8; stroke-width: 0.8"/>
      </g>
     </g>
     <g id="text_15">
      <!-- 1.2 -->
      <g style="fill: #94a3b8" transform="translate(27.174219 93.834259) scale(0.1 -0.1)">
       <use xlink:href="#HelveticaNeue-31"/>
       <use xlink:href="#HelveticaNeue-2e" transform="translate(55.599991 0)"/>
       <use xlink:href="#HelveticaNeue-32" transform="translate(83.399979 0)"/>
      </g>
     </g>
    </g>
    <g id="ytick_8">
     <g id="line2d_29">
      <path d="M 48.072656 53.503615 
L 606.072656 53.503615 
" clip-path="url(#pdcf5d9d232)" style="fill: none; stroke: #334155; stroke-opacity: 0.3; stroke-width: 0.4; stroke-linecap: square"/>
     </g>
     <g id="line2d_30">
      <g>
       <use xlink:href="#mf0ddd1a255" x="48.072656" y="53.503615" style="fill: #94a3b8; stroke: #94a3b8; stroke-width: 0.8"/>
      </g>
     </g>
     <g id="text_16">
      <!-- 1.4 -->
      <g style="fill: #94a3b8" transform="translate(27.174219 57.073927) scale(0.1 -0.1)">
       <use xlink:href="#HelveticaNeue-31"/>
       <use xlink:href="#HelveticaNeue-2e" transform="translate(55.599991 0)"/>
       <use xlink:href="#HelveticaNeue-34" transform="translate(83.399979 0)"/>
      </g>
     </g>
    </g>
    <g id="text_17">
     <!-- Density -->
     <g style="fill: #f8fafc" transform="translate(16.482813 193.897344) rotate(-90) scale(0.13 -0.13)">
      <defs>
       <path id="HelveticaNeue-44" d="M 1107 512 
L 1107 4058 
L 2131 4058 
Q 2554 4058 2842 3939 
Q 3130 3821 3312 3593 
Q 3494 3366 3574 3043 
Q 3654 2720 3654 2310 
Q 3654 1888 3568 1590 
Q 3482 1293 3347 1094 
Q 3213 896 3043 781 
Q 2874 666 2701 605 
Q 2528 544 2374 528 
Q 2221 512 2118 512 
L 1107 512 
z
M 499 4570 
L 499 0 
L 2067 0 
Q 2637 0 3053 160 
Q 3469 320 3737 624 
Q 4006 928 4134 1373 
Q 4262 1818 4262 2394 
Q 4262 3494 3692 4032 
Q 3123 4570 2067 4570 
L 499 4570 
z
" transform="scale(0.015625)"/>
       <path id="HelveticaNeue-6e" d="M 410 3309 
L 410 0 
L 954 0 
L 954 1869 
Q 954 2093 1014 2281 
Q 1075 2470 1196 2611 
Q 1318 2752 1500 2829 
Q 1683 2906 1933 2906 
Q 2246 2906 2425 2726 
Q 2605 2547 2605 2240 
L 2605 0 
L 3149 0 
L 3149 2176 
Q 3149 2445 3094 2665 
Q 3040 2886 2905 3046 
Q 2771 3206 2553 3296 
Q 2336 3386 2010 3386 
Q 1274 3386 934 2784 
L 922 2784 
L 922 3309 
L 410 3309 
z
" transform="scale(0.015625)"/>
       <path id="HelveticaNeue-73" d="M 742 1043 
L 198 1043 
Q 211 736 326 521 
Q 442 307 634 176 
Q 826 45 1075 -12 
Q 1325 -70 1600 -70 
Q 1850 -70 2102 -22 
Q 2355 26 2556 147 
Q 2758 269 2883 467 
Q 3008 666 3008 966 
Q 3008 1203 2915 1363 
Q 2822 1523 2672 1628 
Q 2522 1734 2326 1798 
Q 2131 1862 1926 1907 
Q 1734 1952 1542 1993 
Q 1350 2035 1196 2096 
Q 1043 2157 944 2249 
Q 845 2342 845 2483 
Q 845 2611 909 2691 
Q 973 2771 1075 2819 
Q 1178 2867 1302 2886 
Q 1427 2906 1549 2906 
Q 1683 2906 1814 2877 
Q 1946 2848 2054 2784 
Q 2163 2720 2233 2614 
Q 2304 2509 2317 2349 
L 2861 2349 
Q 2842 2650 2733 2851 
Q 2624 3053 2441 3171 
Q 2259 3290 2022 3338 
Q 1786 3386 1504 3386 
Q 1286 3386 1065 3331 
Q 845 3277 669 3165 
Q 493 3053 381 2873 
Q 269 2694 269 2445 
Q 269 2125 429 1945 
Q 589 1766 829 1667 
Q 1069 1568 1350 1513 
Q 1632 1459 1872 1392 
Q 2112 1325 2272 1216 
Q 2432 1107 2432 896 
Q 2432 742 2355 643 
Q 2278 544 2160 493 
Q 2042 442 1901 422 
Q 1760 403 1632 403 
Q 1466 403 1309 435 
Q 1152 467 1027 540 
Q 902 614 825 739 
Q 749 864 742 1043 
z
" transform="scale(0.015625)"/>
       <path id="HelveticaNeue-69" d="M 986 3904 
L 986 4570 
L 442 4570 
L 442 3904 
L 986 3904 
z
M 442 3309 
L 442 0 
L 986 0 
L 986 3309 
L 442 3309 
z
" transform="scale(0.015625)"/>
       <path id="HelveticaNeue-74" d="M 1165 3309 
L 1165 4301 
L 621 4301 
L 621 3309 
L 58 3309 
L 58 2829 
L 621 2829 
L 621 723 
Q 621 493 665 352 
Q 710 211 803 134 
Q 896 58 1046 29 
Q 1197 0 1408 0 
L 1824 0 
L 1824 480 
L 1574 480 
Q 1446 480 1366 489 
Q 1286 499 1241 531 
Q 1197 563 1181 620 
Q 1165 678 1165 774 
L 1165 2829 
L 1824 2829 
L 1824 3309 
L 1165 3309 
z
" transform="scale(0.015625)"/>
       <path id="HelveticaNeue-79" d="M 1709 -442 
Q 1613 -685 1520 -851 
Q 1427 -1018 1315 -1123 
Q 1203 -1229 1065 -1277 
Q 928 -1325 749 -1325 
Q 653 -1325 557 -1312 
Q 461 -1299 371 -1267 
L 371 -768 
Q 442 -800 534 -822 
Q 627 -845 691 -845 
Q 858 -845 970 -765 
Q 1082 -685 1139 -538 
L 1363 19 
L 51 3309 
L 666 3309 
L 1632 602 
L 1645 602 
L 2573 3309 
L 3149 3309 
L 1709 -442 
z
" transform="scale(0.015625)"/>
      </defs>
      <use xlink:href="#HelveticaNeue-44"/>
      <use xlink:href="#HelveticaNeue-65" transform="translate(70.399994 0)"/>
      <use xlink:href="#HelveticaNeue-6e" transform="translate(124.099991 0)"/>
      <use xlink:href="#HelveticaNeue-73" transform="translate(179.699982 0)"/>
      <use xlink:href="#HelveticaNeue-69" transform="translate(229.699966 0)"/>
      <use xlink:href="#HelveticaNeue-74" transform="translate(251.899963 0)"/>
      <use xlink:href="#HelveticaNeue-79" transform="translate(283.399948 0)"/>
     </g>
    </g>
   </g>
   <g id="patch_3">
    <path d="M 48.072656 310.825937 
L 48.072656 33.625937 
" style="fill: none; stroke: #334155; stroke-width: 0.8; stroke-linejoin: miter; stroke-linecap: square"/>
   </g>
   <g id="patch_4">
    <path d="M 48.072656 310.825937 
L 606.072656 310.825937 
" style="fill: none; stroke: #334155; stroke-width: 0.8; stroke-linejoin: miter; stroke-linecap: square"/>
   </g>
   <g id="text_18">
    <!-- Distribution of Max Q-Values by Game -->
    <g style="fill: #f8fafc" transform="translate(181.434453 19.625937) scale(0.17 -0.17)">
     <defs>
      <path id="HelveticaNeue-72" d="M 390 3309 
L 390 0 
L 934 0 
L 934 1472 
Q 934 1792 998 2038 
Q 1062 2285 1203 2457 
Q 1344 2630 1574 2720 
Q 1805 2810 2131 2810 
L 2131 3386 
Q 1690 3398 1402 3206 
Q 1114 3014 915 2611 
L 902 2611 
L 902 3309 
L 390 3309 
z
" transform="scale(0.015625)"/>
      <path id="HelveticaNeue-62" d="M 429 4570 
L 429 0 
L 973 0 
L 973 442 
L 986 442 
Q 1075 294 1206 195 
Q 1338 96 1485 38 
Q 1632 -19 1782 -44 
Q 1933 -70 2054 -70 
Q 2432 -70 2717 64 
Q 3002 198 3190 432 
Q 3379 666 3472 979 
Q 3565 1293 3565 1645 
Q 3565 1997 3469 2310 
Q 3373 2624 3184 2864 
Q 2995 3104 2710 3245 
Q 2426 3386 2042 3386 
Q 1696 3386 1408 3261 
Q 1120 3136 986 2861 
L 973 2861 
L 973 4570 
L 429 4570 
z
M 2989 1683 
Q 2989 1440 2937 1209 
Q 2886 979 2771 800 
Q 2656 621 2467 512 
Q 2278 403 1997 403 
Q 1715 403 1516 508 
Q 1318 614 1193 787 
Q 1069 960 1011 1187 
Q 954 1414 954 1658 
Q 954 1888 1008 2112 
Q 1062 2336 1184 2512 
Q 1306 2688 1498 2797 
Q 1690 2906 1965 2906 
Q 2227 2906 2422 2803 
Q 2618 2701 2742 2528 
Q 2867 2355 2928 2134 
Q 2989 1914 2989 1683 
z
" transform="scale(0.015625)"/>
      <path id="HelveticaNeue-6f" d="M 806 1651 
Q 806 1952 886 2185 
Q 966 2419 1107 2579 
Q 1248 2739 1437 2822 
Q 1626 2906 1837 2906 
Q 2048 2906 2237 2822 
Q 2426 2739 2566 2579 
Q 2707 2419 2787 2185 
Q 2867 1952 2867 1651 
Q 2867 1350 2787 1116 
Q 2707 883 2566 726 
Q 2426 570 2237 486 
Q 2048 403 1837 403 
Q 1626 403 1437 486 
Q 1248 570 1107 726 
Q 966 883 886 1116 
Q 806 1350 806 1651 
z
M 230 1651 
Q 230 1286 332 972 
Q 435 659 640 425 
Q 845 192 1145 61 
Q 1446 -70 1837 -70 
Q 2234 -70 2531 61 
Q 2829 192 3033 425 
Q 3238 659 3340 972 
Q 3443 1286 3443 1651 
Q 3443 2016 3340 2333 
Q 3238 2650 3033 2883 
Q 2829 3117 2531 3251 
Q 2234 3386 1837 3386 
Q 1446 3386 1145 3251 
Q 845 3117 640 2883 
Q 435 2650 332 2333 
Q 230 2016 230 1651 
z
" transform="scale(0.015625)"/>
      <path id="HelveticaNeue-66" d="M 634 2829 
L 634 0 
L 1178 0 
L 1178 2829 
L 1818 2829 
L 1818 3309 
L 1178 3309 
L 1178 3770 
Q 1178 3987 1286 4064 
Q 1395 4141 1594 4141 
Q 1664 4141 1747 4131 
Q 1830 4122 1901 4096 
L 1901 4570 
Q 1824 4595 1725 4608 
Q 1626 4621 1549 4621 
Q 1101 4621 867 4413 
Q 634 4205 634 3802 
L 634 3309 
L 77 3309 
L 77 2829 
L 634 2829 
z
" transform="scale(0.015625)"/>
      <path id="HelveticaNeue-47" d="M 3917 570 
L 4077 0 
L 4461 0 
L 4461 2406 
L 2458 2406 
L 2458 1894 
L 3917 1894 
Q 3930 1581 3834 1309 
Q 3738 1037 3549 835 
Q 3360 634 3085 518 
Q 2810 403 2451 403 
Q 2067 403 1776 553 
Q 1485 704 1286 957 
Q 1088 1210 985 1539 
Q 883 1869 883 2227 
Q 883 2592 972 2941 
Q 1062 3290 1251 3562 
Q 1440 3834 1737 4000 
Q 2035 4166 2451 4166 
Q 2707 4166 2934 4105 
Q 3162 4045 3341 3923 
Q 3520 3802 3641 3613 
Q 3763 3424 3808 3162 
L 4416 3162 
Q 4352 3565 4176 3849 
Q 4000 4134 3741 4320 
Q 3482 4506 3152 4592 
Q 2822 4678 2451 4678 
Q 1907 4678 1500 4476 
Q 1094 4275 822 3936 
Q 550 3597 412 3145 
Q 275 2694 275 2195 
Q 275 1747 422 1331 
Q 570 915 851 595 
Q 1133 275 1536 86 
Q 1939 -102 2451 -102 
Q 2854 -102 3251 54 
Q 3648 211 3917 570 
z
" transform="scale(0.015625)"/>
      <path id="HelveticaNeue-6d" d="M 410 3309 
L 410 0 
L 954 0 
L 954 2061 
Q 954 2157 1002 2301 
Q 1050 2445 1155 2579 
Q 1261 2714 1430 2810 
Q 1600 2906 1837 2906 
Q 2022 2906 2140 2851 
Q 2259 2797 2329 2697 
Q 2400 2598 2429 2464 
Q 2458 2330 2458 2170 
L 2458 0 
L 3002 0 
L 3002 2061 
Q 3002 2445 3232 2675 
Q 3462 2906 3866 2906 
Q 4064 2906 4189 2848 
Q 4314 2790 4384 2691 
Q 4454 2592 4480 2457 
Q 4506 2323 4506 2170 
L 4506 0 
L 5050 0 
L 5050 2426 
Q 5050 2682 4970 2864 
Q 4890 3046 4746 3161 
Q 4602 3277 4400 3331 
Q 4198 3386 3949 3386 
Q 3622 3386 3350 3238 
Q 3078 3091 2912 2822 
Q 2810 3130 2560 3258 
Q 2310 3386 2003 3386 
Q 1306 3386 934 2822 
L 922 2822 
L 922 3309 
L 410 3309 
z
" transform="scale(0.015625)"/>
     </defs>
     <use xlink:href="#HelveticaNeue-44"/>
     <use xlink:href="#HelveticaNeue-69" transform="translate(70.399994 0)"/>
     <use xlink:href="#HelveticaNeue-73" transform="translate(92.599991 0)"/>
     <use xlink:href="#HelveticaNeue-74" transform="translate(142.599976 0)"/>
     <use xlink:href="#HelveticaNeue-72" transform="translate(174.09996 0)"/>
     <use xlink:href="#HelveticaNeue-69" transform="translate(207.399948 0)"/>
     <use xlink:href="#HelveticaNeue-62" transform="translate(229.599945 0)"/>
     <use xlink:href="#HelveticaNeue-75" transform="translate(288.899933 0)"/>
     <use xlink:href="#HelveticaNeue-74" transform="translate(344.499924 0)"/>
     <use xlink:href="#HelveticaNeue-69" transform="translate(375.999908 0)"/>
     <use xlink:href="#HelveticaNeue-6f" transform="translate(398.199905 0)"/>
     <use xlink:href="#HelveticaNeue-6e" transform="translate(455.599899 0)"/>
     <use xlink:href="#HelveticaNeue-20" transform="translate(511.19989 0)"/>
     <use xlink:href="#HelveticaNeue-6f" transform="translate(538.999878 0)"/>
     <use xlink:href="#HelveticaNeue-66" transform="translate(596.399872 0)"/>
     <use xlink:href="#HelveticaNeue-20" transform="translate(625.999863 0)"/>
     <use xlink:href="#HelveticaNeue-4d" transform="translate(653.79985 0)"/>
     <use xlink:href="#HelveticaNeue-61" transform="translate(740.899841 0)"/>
     <use xlink:href="#HelveticaNeue-78" transform="translate(794.599838 0)"/>
     <use xlink:href="#HelveticaNeue-20" transform="translate(846.399826 0)"/>
     <use xlink:href="#HelveticaNeue-51" transform="translate(874.199814 0)"/>
     <use xlink:href="#HelveticaNeue-2d" transform="translate(950.199799 0)"/>
     <use xlink:href="#HelveticaNeue-56" transform="translate(989.099792 0)"/>
     <use xlink:href="#HelveticaNeue-61" transform="translate(1044.699783 0)"/>
     <use xlink:href="#HelveticaNeue-6c" transform="translate(1098.39978 0)"/>
     <use xlink:href="#HelveticaNeue-75" transform="translate(1120.599777 0)"/>
     <use xlink:href="#HelveticaNeue-65" transform="translate(1176.199768 0)"/>
     <use xlink:href="#HelveticaNeue-73" transform="translate(1229.899765 0)"/>
     <use xlink:href="#HelveticaNeue-20" transform="translate(1279.89975 0)"/>
     <use xlink:href="#HelveticaNeue-62" transform="translate(1307.699738 0)"/>
     <use xlink:href="#HelveticaNeue-79" transform="translate(1366.999725 0)"/>
     <use xlink:href="#HelveticaNeue-20" transform="translate(1416.99971 0)"/>
     <use xlink:href="#HelveticaNeue-47" transform="translate(1444.799698 0)"/>
     <use xlink:href="#HelveticaNeue-61" transform="translate(1520.699692 0)"/>
     <use xlink:href="#HelveticaNeue-6d" transform="translate(1574.399689 0)"/>
     <use xlink:href="#HelveticaNeue-65" transform="translate(1659.699677 0)"/>
    </g>
   </g>
   <g id="legend_1">
    <g id="patch_5">
     <path d="M 479.268281 94.372187 
L 597.672656 94.372187 
Q 600.072656 94.372187 600.072656 91.972188 
L 600.072656 42.025937 
Q 600.072656 39.625938 597.672656 39.625938 
L 479.268281 39.625938 
Q 476.868281 39.625938 476.868281 42.025937 
L 476.868281 91.972188 
Q 476.868281 94.372187 479.268281 94.372187 
z
" style="fill: #1e293b; opacity: 0.85; stroke: #334155; stroke-linejoin: miter"/>
    </g>
    <g id="patch_6">
     <path d="M 481.668281 52.994687 
L 505.668281 52.994687 
L 505.668281 44.594687 
L 481.668281 44.594687 
z
" style="fill: #6366f1; fill-opacity: 0.18; stroke: #6366f1; stroke-width: 2.2; stroke-linejoin: miter"/>
    </g>
    <g id="text_19">
     <!-- Pong -->
     <g style="fill: #f8fafc" transform="translate(515.268281 52.994687) scale(0.12 -0.12)">
      <defs>
       <path id="HelveticaNeue-50" d="M 1107 2381 
L 1107 4058 
L 2298 4058 
Q 2816 4058 3056 3843 
Q 3296 3629 3296 3219 
Q 3296 2810 3056 2592 
Q 2816 2374 2298 2381 
L 1107 2381 
z
M 499 4570 
L 499 0 
L 1107 0 
L 1107 1869 
L 2502 1869 
Q 3194 1862 3549 2220 
Q 3904 2579 3904 3219 
Q 3904 3859 3549 4214 
Q 3194 4570 2502 4570 
L 499 4570 
z
" transform="scale(0.015625)"/>
       <path id="HelveticaNeue-67" d="M 3264 282 
L 3264 3309 
L 2752 3309 
L 2752 2835 
L 2746 2835 
Q 2598 3110 2336 3248 
Q 2074 3386 1760 3386 
Q 1331 3386 1036 3222 
Q 742 3059 563 2806 
Q 384 2554 307 2243 
Q 230 1933 230 1638 
Q 230 1299 323 995 
Q 416 691 601 464 
Q 787 237 1062 102 
Q 1338 -32 1709 -32 
Q 2029 -32 2313 112 
Q 2598 256 2739 563 
L 2752 563 
L 2752 346 
Q 2752 70 2697 -160 
Q 2643 -390 2521 -553 
Q 2400 -717 2214 -809 
Q 2029 -902 1760 -902 
Q 1626 -902 1478 -873 
Q 1331 -845 1206 -781 
Q 1082 -717 995 -614 
Q 909 -512 902 -365 
L 358 -365 
Q 371 -634 499 -819 
Q 627 -1005 822 -1120 
Q 1018 -1235 1258 -1286 
Q 1498 -1338 1728 -1338 
Q 2522 -1338 2893 -934 
Q 3264 -531 3264 282 
z
M 1741 442 
Q 1472 442 1293 554 
Q 1114 666 1005 848 
Q 896 1030 851 1254 
Q 806 1478 806 1702 
Q 806 1939 860 2156 
Q 915 2374 1033 2540 
Q 1152 2707 1337 2806 
Q 1523 2906 1786 2906 
Q 2042 2906 2221 2803 
Q 2400 2701 2512 2531 
Q 2624 2362 2675 2150 
Q 2726 1939 2726 1722 
Q 2726 1491 2672 1260 
Q 2618 1030 2502 848 
Q 2387 666 2198 554 
Q 2010 442 1741 442 
z
" transform="scale(0.015625)"/>
      </defs>
      <use xlink:href="#HelveticaNeue-50"/>
      <use xlink:href="#HelveticaNeue-6f" transform="translate(64.799988 0)"/>
      <use xlink:href="#HelveticaNeue-6e" transform="translate(122.199982 0)"/>
      <use xlink:href="#HelveticaNeue-67" transform="translate(177.799973 0)"/>
     </g>
    </g>
    <g id="patch_7">
     <path d="M 481.668281 70.072187 
L 505.668281 70.072187 
L 505.668281 61.672187 
L 481.668281 61.672187 
z
" style="fill: #f59e0b; fill-opacity: 0.18; stroke: #f59e0b; stroke-width: 2.2; stroke-linejoin: miter"/>
    </g>
    <g id="text_20">
     <!-- Breakout -->
     <g style="fill: #f8fafc" transform="translate(515.268281 70.072187) scale(0.12 -0.12)">
      <defs>
       <path id="HelveticaNeue-42" d="M 1107 2605 
L 1107 4058 
L 2323 4058 
Q 2522 4058 2698 4035 
Q 2874 4013 3008 3936 
Q 3142 3859 3219 3718 
Q 3296 3578 3296 3334 
Q 3296 2970 3069 2787 
Q 2842 2605 2323 2605 
L 1107 2605 
z
M 499 4570 
L 499 0 
L 2707 0 
Q 3046 0 3305 112 
Q 3565 224 3741 406 
Q 3917 589 4006 825 
Q 4096 1062 4096 1312 
Q 4096 1734 3872 2028 
Q 3648 2323 3226 2413 
L 3226 2426 
Q 3552 2554 3728 2819 
Q 3904 3085 3904 3450 
Q 3904 3795 3747 4032 
Q 3590 4269 3366 4403 
Q 3264 4467 3120 4499 
Q 2976 4531 2809 4547 
Q 2643 4563 2473 4566 
Q 2304 4570 2157 4570 
L 499 4570 
z
M 1107 512 
L 1107 2093 
L 2496 2093 
Q 2688 2093 2867 2057 
Q 3046 2022 3184 1936 
Q 3322 1850 3405 1702 
Q 3488 1555 3488 1331 
Q 3488 947 3261 729 
Q 3034 512 2630 512 
L 1107 512 
z
" transform="scale(0.015625)"/>
       <path id="HelveticaNeue-6b" d="M 442 4570 
L 442 0 
L 986 0 
L 986 1254 
L 1498 1728 
L 2630 0 
L 3322 0 
L 1914 2106 
L 3226 3309 
L 2496 3309 
L 986 1862 
L 986 4570 
L 442 4570 
z
" transform="scale(0.015625)"/>
      </defs>
      <use xlink:href="#HelveticaNeue-42"/>
      <use xlink:href="#HelveticaNeue-72" transform="translate(68.499985 0)"/>
      <use xlink:href="#HelveticaNeue-65" transform="translate(100.049973 0)"/>
      <use xlink:href="#HelveticaNeue-61" transform="translate(153.749969 0)"/>
      <use xlink:href="#HelveticaNeue-6b" transform="translate(207.449966 0)"/>
      <use xlink:href="#HelveticaNeue-6f" transform="translate(259.34996 0)"/>
      <use xlink:href="#HelveticaNeue-75" transform="translate(316.749954 0)"/>
      <use xlink:href="#HelveticaNeue-74" transform="translate(372.349945 0)"/>
     </g>
    </g>
    <g id="patch_8">
     <path d="M 481.668281 87.207812 
L 505.668281 87.207812 
L 505.668281 78.807812 
L 481.668281 78.807812 
z
" style="fill: #10b981; fill-opacity: 0.18; stroke: #10b981; stroke-width: 2.2; stroke-linejoin: miter"/>
    </g>
    <g id="text_21">
     <!-- SpaceInvaders -->
     <g style="fill: #f8fafc" transform="translate(515.268281 87.207812) scale(0.12 -0.12)">
      <defs>
       <path id="HelveticaNeue-53" d="M 3142 3232 
L 3718 3232 
Q 3706 3610 3574 3882 
Q 3443 4154 3216 4333 
Q 2989 4512 2688 4595 
Q 2387 4678 2035 4678 
Q 1722 4678 1424 4598 
Q 1126 4518 892 4355 
Q 659 4192 518 3939 
Q 378 3686 378 3341 
Q 378 3027 502 2819 
Q 627 2611 835 2480 
Q 1043 2349 1305 2269 
Q 1568 2189 1840 2128 
Q 2112 2067 2374 2009 
Q 2637 1952 2845 1859 
Q 3053 1766 3177 1619 
Q 3302 1472 3302 1235 
Q 3302 986 3200 826 
Q 3098 666 2931 573 
Q 2765 480 2557 441 
Q 2349 403 2144 403 
Q 1888 403 1645 467 
Q 1402 531 1219 665 
Q 1037 800 925 1008 
Q 813 1216 813 1504 
L 237 1504 
Q 237 1088 387 784 
Q 538 480 797 285 
Q 1056 90 1398 -6 
Q 1741 -102 2125 -102 
Q 2438 -102 2755 -28 
Q 3072 45 3328 208 
Q 3584 371 3747 630 
Q 3910 890 3910 1254 
Q 3910 1594 3785 1818 
Q 3661 2042 3453 2189 
Q 3245 2336 2982 2422 
Q 2720 2509 2448 2573 
Q 2176 2637 1913 2691 
Q 1651 2746 1443 2829 
Q 1235 2912 1110 3043 
Q 986 3174 986 3386 
Q 986 3610 1072 3760 
Q 1158 3910 1302 4000 
Q 1446 4090 1632 4128 
Q 1818 4166 2010 4166 
Q 2483 4166 2787 3945 
Q 3091 3725 3142 3232 
z
" transform="scale(0.015625)"/>
       <path id="HelveticaNeue-70" d="M 429 3309 
L 429 -1261 
L 973 -1261 
L 973 442 
L 986 442 
Q 1075 294 1206 195 
Q 1338 96 1485 38 
Q 1632 -19 1782 -44 
Q 1933 -70 2054 -70 
Q 2432 -70 2717 64 
Q 3002 198 3190 432 
Q 3379 666 3472 979 
Q 3565 1293 3565 1645 
Q 3565 1997 3469 2310 
Q 3373 2624 3184 2864 
Q 2995 3104 2710 3245 
Q 2426 3386 2042 3386 
Q 1696 3386 1408 3261 
Q 1120 3136 986 2861 
L 973 2861 
L 973 3309 
L 429 3309 
z
M 2989 1683 
Q 2989 1440 2937 1209 
Q 2886 979 2771 800 
Q 2656 621 2467 512 
Q 2278 403 1997 403 
Q 1715 403 1516 508 
Q 1318 614 1193 787 
Q 1069 960 1011 1187 
Q 954 1414 954 1658 
Q 954 1888 1008 2112 
Q 1062 2336 1184 2512 
Q 1306 2688 1498 2797 
Q 1690 2906 1965 2906 
Q 2227 2906 2422 2803 
Q 2618 2701 2742 2528 
Q 2867 2355 2928 2134 
Q 2989 1914 2989 1683 
z
" transform="scale(0.015625)"/>
       <path id="HelveticaNeue-63" d="M 2656 2246 
L 3219 2246 
Q 3187 2541 3065 2755 
Q 2944 2970 2755 3110 
Q 2566 3251 2320 3318 
Q 2074 3386 1792 3386 
Q 1402 3386 1107 3248 
Q 813 3110 617 2870 
Q 422 2630 326 2307 
Q 230 1984 230 1613 
Q 230 1242 329 931 
Q 429 621 624 397 
Q 819 173 1110 51 
Q 1402 -70 1779 -70 
Q 2413 -70 2781 262 
Q 3149 595 3238 1210 
L 2682 1210 
Q 2630 826 2403 614 
Q 2176 403 1773 403 
Q 1517 403 1331 505 
Q 1146 608 1030 777 
Q 915 947 860 1164 
Q 806 1382 806 1613 
Q 806 1862 857 2096 
Q 909 2330 1027 2509 
Q 1146 2688 1344 2797 
Q 1542 2906 1837 2906 
Q 2182 2906 2387 2733 
Q 2592 2560 2656 2246 
z
" transform="scale(0.015625)"/>
       <path id="HelveticaNeue-49" d="M 525 4570 
L 525 0 
L 1133 0 
L 1133 4570 
L 525 4570 
z
" transform="scale(0.015625)"/>
       <path id="HelveticaNeue-76" d="M 1901 0 
L 3110 3309 
L 2541 3309 
L 1638 550 
L 1626 550 
L 698 3309 
L 90 3309 
L 1318 0 
L 1901 0 
z
" transform="scale(0.015625)"/>
       <path id="HelveticaNeue-64" d="M 806 1626 
Q 806 1869 857 2099 
Q 909 2330 1024 2509 
Q 1139 2688 1331 2797 
Q 1523 2906 1798 2906 
Q 2080 2906 2278 2800 
Q 2477 2694 2601 2521 
Q 2726 2349 2784 2121 
Q 2842 1894 2842 1651 
Q 2842 1421 2787 1197 
Q 2733 973 2611 797 
Q 2490 621 2298 512 
Q 2106 403 1830 403 
Q 1568 403 1373 505 
Q 1178 608 1053 781 
Q 928 954 867 1174 
Q 806 1395 806 1626 
z
M 3366 0 
L 3366 4570 
L 2822 4570 
L 2822 2867 
L 2810 2867 
Q 2720 3014 2589 3113 
Q 2458 3213 2310 3273 
Q 2163 3334 2016 3360 
Q 1869 3386 1741 3386 
Q 1363 3386 1078 3248 
Q 794 3110 605 2876 
Q 416 2643 323 2329 
Q 230 2016 230 1664 
Q 230 1312 326 998 
Q 422 685 611 448 
Q 800 211 1085 70 
Q 1370 -70 1754 -70 
Q 2099 -70 2387 51 
Q 2675 173 2810 448 
L 2822 448 
L 2822 0 
L 3366 0 
z
" transform="scale(0.015625)"/>
      </defs>
      <use xlink:href="#HelveticaNeue-53"/>
      <use xlink:href="#HelveticaNeue-70" transform="translate(64.799988 0)"/>
      <use xlink:href="#HelveticaNeue-61" transform="translate(124.099976 0)"/>
      <use xlink:href="#HelveticaNeue-63" transform="translate(177.799973 0)"/>
      <use xlink:href="#HelveticaNeue-65" transform="translate(231.499969 0)"/>
      <use xlink:href="#HelveticaNeue-49" transform="translate(285.199966 0)"/>
      <use xlink:href="#HelveticaNeue-6e" transform="translate(311.09996 0)"/>
      <use xlink:href="#HelveticaNeue-76" transform="translate(366.699951 0)"/>
      <use xlink:href="#HelveticaNeue-61" transform="translate(416.699936 0)"/>
      <use xlink:href="#HelveticaNeue-64" transform="translate(470.399933 0)"/>
      <use xlink:href="#HelveticaNeue-65" transform="translate(529.699921 0)"/>
      <use xlink:href="#HelveticaNeue-72" transform="translate(583.399918 0)"/>
      <use xlink:href="#HelveticaNeue-73" transform="translate(616.699905 0)"/>
     </g>
    </g>
   </g>
  </g>
 </g>
 <defs>
  <clipPath id="pdcf5d9d232">
   <rect x="48.072656" y="33.625937" width="558" height="277.2"/>
  </clipPath>
 </defs>
</svg>
