<?xml version="1.0" encoding="utf-8" standalone="no"?>
<!DOCTYPE svg PUBLIC "-//W3C//DTD SVG 1.1//EN"
  "http://www.w3.org/Graphics/SVG/1.1/DTD/svg11.dtd">
<svg xmlns:xlink="http://www.w3.org/1999/xlink" width="458.464pt" height="404.086325pt" viewBox="0 0 458.464 404.086325" xmlns="http://www.w3.org/2000/svg" version="1.1">
 <metadata>
  <rdf:RDF xmlns:dc="http://purl.org/dc/elements/1.1/" xmlns:cc="http://creativecommons.org/ns#" xmlns:rdf="http://www.w3.org/1999/02/22-rdf-syntax-ns#">
   <cc:Work>
    <dc:type rdf:resource="http://purl.org/dc/dcmitype/StillImage"/>
    <dc:date>2026-03-08T04:29:03.676327</dc:date>
    <dc:format>image/svg+xml</dc:format>
    <dc:creator>
     <cc:Agent>
      <dc:title>Matplotlib v3.8.0, https://matplotlib.org/</dc:title>
     </cc:Agent>
    </dc:creator>
   </cc:Work>
  </rdf:RDF>
 </metadata>
 <defs>
  <style type="text/css">*{stroke-linejoin: round; stroke-linecap: butt}</style>
 </defs>
 <g id="figure_1">
  <g id="patch_1">
   <path d="M 0 404.086325 
L 458.464 404.086325 
L 458.464 0 
L 0 0 
z
" style="fill: #ffffff"/>
  </g>
  <g id="axes_1">
   <g id="patch_2">
    <path d="M 339.84 230.566325 
C 339.84 208.725383 335.537811 187.096816 327.179644 166.918417 
C 318.821477 146.740017 306.569878 128.404204 291.126 112.960325 
C 275.682121 97.516447 257.346308 85.264848 237.167908 76.906681 
C 216.989509 68.548514 195.360942 64.246325 173.52 64.246325 
C 151.679058 64.246325 130.050491 68.548514 109.872092 76.906681 
C 89.693692 85.264848 71.357879 97.516447 55.914 112.960325 
C 40.470122 128.404204 28.218523 146.740017 19.860356 166.918417 
C 11.502189 187.096816 7.2 208.725383 7.2 230.566325 
C 7.2 252.407267 11.502189 274.035834 19.860356 294.214233 
C 28.218523 314.392633 40.470122 332.728446 55.914 348.172325 
C 71.357879 363.616203 89.693692 375.867802 109.872092 384.225969 
C 130.050491 392.584136 151.679058 396.886325 173.52 396.886325 
C 195.360942 396.886325 216.989509 392.584136 237.167908 384.225969 
C 257.346308 375.867802 275.682121 363.616203 291.126 348.172325 
C 306.569878 332.728446 318.821477 314.392633 327.179644 294.214233 
C 335.537811 274.035834 339.84 252.407267 339.84 230.566325 
M 173.52 230.566325 
C 173.52 230.566325 173.52 230.566325 173.52 230.566325 
C 173.52 230.566325 173.52 230.566325 173.52 230.566325 
C 173.52 230.566325 173.52 230.566325 173.52 230.566325 
C 173.52 230.566325 173.52 230.566325 173.52 230.566325 
C 173.52 230.566325 173.52 230.566325 173.52 230.566325 
C 173.52 230.566325 173.52 230.566325 173.52 230.566325 
C 173.52 230.566325 173.52 230.566325 173.52 230.566325 
C 173.52 230.566325 173.52 230.566325 173.52 230.566325 
C 173.52 230.566325 173.52 230.566325 173.52 230.566325 
C 173.52 230.566325 173.52 230.566325 173.52 230.566325 
C 173.52 230.566325 173.52 230.566325 173.52 230.566325 
C 173.52 230.566325 173.52 230.566325 173.52 230.566325 
C 173.52 230.566325 173.52 230.566325 173.52 230.566325 
C 173.52 230.566325 173.52 230.566325 173.52 230.566325 
C 173.52 230.566325 173.52 230.566325 173.52 230.566325 
C 173.52 230.566325 173.52 230.566325 173.52 230.566325 
z
" style="fill: #fafafa"/>
   </g>
   <g id="matplotlib.axis_1">
    <g id="xtick_1">
     <g id="line2d_1">
      <path d="M 173.52 230.566325 
L 339.84 230.566325 
" clip-path="url(#p5e960525ca)" style="fill: none; stroke: #e0e0e0; stroke-opacity: 0.7; stroke-width: 0.6; stroke-linecap: square"/>
     </g>
     <g id="text_1">
      <!-- Breakout -->
      <g transform="translate(328.238359 233.601638) scale(0.11 -0.11)">
       <defs>
        <path id="DejaVuSerif-42" d="M 1581 331 
L 2516 331 
Q 3078 331 3337 575 
Q 3597 819 3597 1350 
Q 3597 1878 3339 2120 
Q 3081 2363 2516 2363 
L 1581 2363 
L 1581 331 
z
M 1581 2694 
L 2375 2694 
Q 2888 2694 3123 2891 
Q 3359 3088 3359 3513 
Q 3359 3941 3123 4136 
Q 2888 4331 2375 4331 
L 1581 4331 
L 1581 2694 
z
M 353 0 
L 353 331 
L 947 331 
L 947 4331 
L 353 4331 
L 353 4666 
L 2656 4666 
Q 3363 4666 3720 4377 
Q 4078 4088 4078 3513 
Q 4078 3097 3829 2850 
Q 3581 2603 3103 2547 
Q 3697 2472 4005 2167 
Q 4313 1863 4313 1350 
Q 4313 656 3875 328 
Q 3438 0 2509 0 
L 353 0 
z
" transform="scale(0.015625)"/>
        <path id="DejaVuSerif-72" d="M 3059 3328 
L 3059 2497 
L 2728 2497 
Q 2713 2744 2591 2866 
Q 2469 2988 2234 2988 
Q 1809 2988 1582 2694 
Q 1356 2400 1356 1850 
L 1356 331 
L 2022 331 
L 2022 0 
L 263 0 
L 263 331 
L 781 331 
L 781 2994 
L 231 2994 
L 231 3322 
L 1356 3322 
L 1356 2731 
Q 1525 3078 1790 3245 
Q 2056 3413 2438 3413 
Q 2578 3413 2733 3391 
Q 2888 3369 3059 3328 
z
" transform="scale(0.015625)"/>
        <path id="DejaVuSerif-65" d="M 3469 1600 
L 991 1600 
L 991 1575 
Q 991 903 1244 561 
Q 1497 219 1991 219 
Q 2369 219 2611 417 
Q 2853 616 2950 1006 
L 3413 1006 
Q 3275 459 2904 184 
Q 2534 -91 1931 -91 
Q 1203 -91 761 389 
Q 319 869 319 1663 
Q 319 2450 753 2931 
Q 1188 3413 1894 3413 
Q 2647 3413 3050 2948 
Q 3453 2484 3469 1600 
z
M 2791 1931 
Q 2772 2513 2545 2808 
Q 2319 3103 1894 3103 
Q 1497 3103 1269 2806 
Q 1041 2509 991 1931 
L 2791 1931 
z
" transform="scale(0.015625)"/>
        <path id="DejaVuSerif-61" d="M 2547 1044 
L 2547 1747 
L 1806 1747 
Q 1378 1747 1168 1562 
Q 959 1378 959 997 
Q 959 650 1171 447 
Q 1384 244 1747 244 
Q 2106 244 2326 466 
Q 2547 688 2547 1044 
z
M 3122 2075 
L 3122 331 
L 3634 331 
L 3634 0 
L 2547 0 
L 2547 359 
Q 2356 128 2106 18 
Q 1856 -91 1522 -91 
Q 969 -91 644 203 
Q 319 497 319 997 
Q 319 1513 691 1797 
Q 1063 2081 1741 2081 
L 2547 2081 
L 2547 2309 
Q 2547 2688 2317 2895 
Q 2088 3103 1672 3103 
Q 1328 3103 1125 2947 
Q 922 2791 872 2484 
L 575 2484 
L 575 3156 
Q 875 3284 1158 3348 
Q 1441 3413 1709 3413 
Q 2400 3413 2761 3070 
Q 3122 2728 3122 2075 
z
" transform="scale(0.015625)"/>
        <path id="DejaVuSerif-6b" d="M 1831 0 
L 219 0 
L 219 331 
L 738 331 
L 738 4531 
L 184 4531 
L 184 4863 
L 1313 4863 
L 1313 1697 
L 2713 2988 
L 2234 2988 
L 2234 3322 
L 3738 3322 
L 3738 2988 
L 3169 2988 
L 2181 2075 
L 3444 331 
L 3922 331 
L 3922 0 
L 2284 0 
L 2284 331 
L 2759 331 
L 1766 1697 
L 1313 1275 
L 1313 331 
L 1831 331 
L 1831 0 
z
" transform="scale(0.015625)"/>
        <path id="DejaVuSerif-6f" d="M 1925 219 
Q 2388 219 2623 584 
Q 2859 950 2859 1663 
Q 2859 2375 2623 2739 
Q 2388 3103 1925 3103 
Q 1463 3103 1227 2739 
Q 991 2375 991 1663 
Q 991 950 1228 584 
Q 1466 219 1925 219 
z
M 1925 -91 
Q 1200 -91 759 389 
Q 319 869 319 1663 
Q 319 2456 758 2934 
Q 1197 3413 1925 3413 
Q 2653 3413 3092 2934 
Q 3531 2456 3531 1663 
Q 3531 869 3092 389 
Q 2653 -91 1925 -91 
z
" transform="scale(0.015625)"/>
        <path id="DejaVuSerif-75" d="M 2266 3322 
L 3341 3322 
L 3341 331 
L 3884 331 
L 3884 0 
L 2766 0 
L 2766 588 
Q 2606 256 2353 82 
Q 2100 -91 1766 -91 
Q 1213 -91 952 223 
Q 691 538 691 1209 
L 691 2988 
L 172 2988 
L 172 3322 
L 1269 3322 
L 1269 1388 
Q 1269 781 1417 556 
Q 1566 331 1947 331 
Q 2347 331 2556 625 
Q 2766 919 2766 1478 
L 2766 2988 
L 2266 2988 
L 2266 3322 
z
" transform="scale(0.015625)"/>
        <path id="DejaVuSerif-74" d="M 691 2988 
L 184 2988 
L 184 3322 
L 691 3322 
L 691 4353 
L 1269 4353 
L 1269 3322 
L 2350 3322 
L 2350 2988 
L 1269 2988 
L 1269 878 
Q 1269 456 1350 337 
Q 1431 219 1650 219 
Q 1875 219 1978 351 
Q 2081 484 2088 781 
L 2522 781 
Q 2497 328 2275 118 
Q 2053 -91 1600 -91 
Q 1103 -91 897 129 
Q 691 350 691 878 
L 691 2988 
z
" transform="scale(0.015625)"/>
       </defs>
       <use xlink:href="#DejaVuSerif-42"/>
       <use xlink:href="#DejaVuSerif-72" x="73.486328"/>
       <use xlink:href="#DejaVuSerif-65" x="121.289062"/>
       <use xlink:href="#DejaVuSerif-61" x="180.46875"/>
       <use xlink:href="#DejaVuSerif-6b" x="240.087891"/>
       <use xlink:href="#DejaVuSerif-6f" x="300.683594"/>
       <use xlink:href="#DejaVuSerif-75" x="360.888672"/>
       <use xlink:href="#DejaVuSerif-74" x="425.292969"/>
      </g>
     </g>
    </g>
    <g id="xtick_2">
     <g id="line2d_2">
      <path d="M 173.52 230.566325 
L 90.36 86.52898 
" clip-path="url(#p5e960525ca)" style="fill: none; stroke: #e0e0e0; stroke-opacity: 0.7; stroke-width: 0.6; stroke-linecap: square"/>
     </g>
     <g id="text_2">
      <!-- SpaceInvaders -->
      <g transform="translate(42.128047 77.439937) scale(0.11 -0.11)">
       <defs>
        <path id="DejaVuSerif-53" d="M 594 225 
L 594 1288 
L 953 1284 
Q 969 753 1261 498 
Q 1553 244 2150 244 
Q 2706 244 2998 464 
Q 3291 684 3291 1106 
Q 3291 1444 3114 1625 
Q 2938 1806 2369 1978 
L 1753 2163 
Q 1084 2366 811 2669 
Q 538 2972 538 3500 
Q 538 4094 959 4422 
Q 1381 4750 2144 4750 
Q 2469 4750 2856 4679 
Q 3244 4609 3681 4475 
L 3681 3481 
L 3328 3481 
Q 3275 3975 2998 4195 
Q 2722 4416 2156 4416 
Q 1663 4416 1405 4214 
Q 1147 4013 1147 3628 
Q 1147 3294 1340 3103 
Q 1534 2913 2163 2725 
L 2741 2553 
Q 3375 2363 3645 2067 
Q 3916 1772 3916 1275 
Q 3916 597 3481 253 
Q 3047 -91 2188 -91 
Q 1803 -91 1404 -12 
Q 1006 66 594 225 
z
" transform="scale(0.015625)"/>
        <path id="DejaVuSerif-70" d="M 1313 1825 
L 1313 1497 
Q 1313 897 1542 583 
Q 1772 269 2209 269 
Q 2650 269 2876 622 
Q 3103 975 3103 1663 
Q 3103 2353 2876 2703 
Q 2650 3053 2209 3053 
Q 1772 3053 1542 2737 
Q 1313 2422 1313 1825 
z
M 738 2988 
L 184 2988 
L 184 3322 
L 1313 3322 
L 1313 2803 
Q 1481 3116 1742 3264 
Q 2003 3413 2388 3413 
Q 3000 3413 3387 2928 
Q 3775 2444 3775 1663 
Q 3775 881 3387 395 
Q 3000 -91 2388 -91 
Q 2003 -91 1742 57 
Q 1481 206 1313 519 
L 1313 -997 
L 1856 -997 
L 1856 -1331 
L 184 -1331 
L 184 -997 
L 738 -997 
L 738 2988 
z
" transform="scale(0.015625)"/>
        <path id="DejaVuSerif-63" d="M 3291 997 
Q 3169 466 2822 187 
Q 2475 -91 1925 -91 
Q 1200 -91 759 389 
Q 319 869 319 1663 
Q 319 2459 759 2936 
Q 1200 3413 1925 3413 
Q 2241 3413 2553 3339 
Q 2866 3266 3181 3116 
L 3181 2266 
L 2847 2266 
Q 2781 2703 2561 2903 
Q 2341 3103 1931 3103 
Q 1466 3103 1228 2742 
Q 991 2381 991 1663 
Q 991 944 1227 581 
Q 1463 219 1931 219 
Q 2303 219 2525 412 
Q 2747 606 2828 997 
L 3291 997 
z
" transform="scale(0.015625)"/>
        <path id="DejaVuSerif-49" d="M 1581 331 
L 2175 331 
L 2175 0 
L 353 0 
L 353 331 
L 947 331 
L 947 4331 
L 353 4331 
L 353 4666 
L 2175 4666 
L 2175 4331 
L 1581 4331 
L 1581 331 
z
" transform="scale(0.015625)"/>
        <path id="DejaVuSerif-6e" d="M 263 0 
L 263 331 
L 781 331 
L 781 2988 
L 231 2988 
L 231 3322 
L 1356 3322 
L 1356 2731 
Q 1516 3069 1770 3241 
Q 2025 3413 2363 3413 
Q 2913 3413 3172 3097 
Q 3431 2781 3431 2113 
L 3431 331 
L 3944 331 
L 3944 0 
L 2356 0 
L 2356 331 
L 2853 331 
L 2853 1931 
Q 2853 2541 2703 2767 
Q 2553 2994 2175 2994 
Q 1775 2994 1565 2701 
Q 1356 2409 1356 1850 
L 1356 331 
L 1856 331 
L 1856 0 
L 263 0 
z
" transform="scale(0.015625)"/>
        <path id="DejaVuSerif-76" d="M 1581 0 
L 359 2988 
L -19 2988 
L -19 3322 
L 1509 3322 
L 1509 2988 
L 978 2988 
L 1913 703 
L 2847 2988 
L 2350 2988 
L 2350 3322 
L 3597 3322 
L 3597 2988 
L 3225 2988 
L 2003 0 
L 1581 0 
z
" transform="scale(0.015625)"/>
        <path id="DejaVuSerif-64" d="M 3359 331 
L 3909 331 
L 3909 0 
L 2784 0 
L 2784 519 
Q 2616 206 2355 57 
Q 2094 -91 1709 -91 
Q 1097 -91 708 395 
Q 319 881 319 1663 
Q 319 2444 706 2928 
Q 1094 3413 1709 3413 
Q 2094 3413 2355 3264 
Q 2616 3116 2784 2803 
L 2784 4531 
L 2241 4531 
L 2241 4863 
L 3359 4863 
L 3359 331 
z
M 2784 1497 
L 2784 1825 
Q 2784 2422 2554 2737 
Q 2325 3053 1888 3053 
Q 1444 3053 1217 2703 
Q 991 2353 991 1663 
Q 991 975 1217 622 
Q 1444 269 1888 269 
Q 2325 269 2554 583 
Q 2784 897 2784 1497 
z
" transform="scale(0.015625)"/>
        <path id="DejaVuSerif-73" d="M 359 184 
L 359 959 
L 691 959 
Q 703 588 923 403 
Q 1144 219 1575 219 
Q 1963 219 2166 364 
Q 2369 509 2369 788 
Q 2369 1006 2220 1140 
Q 2072 1275 1594 1428 
L 1178 1569 
Q 750 1706 558 1912 
Q 366 2119 366 2438 
Q 366 2894 700 3153 
Q 1034 3413 1625 3413 
Q 1888 3413 2178 3344 
Q 2469 3275 2778 3144 
L 2778 2419 
L 2447 2419 
Q 2434 2741 2221 2922 
Q 2009 3103 1644 3103 
Q 1281 3103 1095 2975 
Q 909 2847 909 2591 
Q 909 2381 1050 2254 
Q 1191 2128 1613 1997 
L 2069 1856 
Q 2541 1709 2748 1489 
Q 2956 1269 2956 922 
Q 2956 450 2595 179 
Q 2234 -91 1600 -91 
Q 1278 -91 972 -22 
Q 666 47 359 184 
z
" transform="scale(0.015625)"/>
       </defs>
       <use xlink:href="#DejaVuSerif-53"/>
       <use xlink:href="#DejaVuSerif-70" x="68.505859"/>
       <use xlink:href="#DejaVuSerif-61" x="132.519531"/>
       <use xlink:href="#DejaVuSerif-63" x="192.138672"/>
       <use xlink:href="#DejaVuSerif-65" x="248.144531"/>
       <use xlink:href="#DejaVuSerif-49" x="307.324219"/>
       <use xlink:href="#DejaVuSerif-6e" x="346.826172"/>
       <use xlink:href="#DejaVuSerif-76" x="411.230469"/>
       <use xlink:href="#DejaVuSerif-61" x="467.724609"/>
       <use xlink:href="#DejaVuSerif-64" x="527.34375"/>
       <use xlink:href="#DejaVuSerif-65" x="591.357422"/>
       <use xlink:href="#DejaVuSerif-72" x="650.537109"/>
       <use xlink:href="#DejaVuSerif-73" x="698.339844"/>
      </g>
     </g>
    </g>
    <g id="xtick_3">
     <g id="line2d_3">
      <path d="M 173.52 230.566325 
L 90.36 374.60367 
" clip-path="url(#p5e960525ca)" style="fill: none; stroke: #e0e0e0; stroke-opacity: 0.7; stroke-width: 0.6; stroke-linecap: square"/>
     </g>
     <g id="text_3">
      <!-- Pong -->
      <g transform="translate(69.505156 389.606932) scale(0.11 -0.11)">
       <defs>
        <path id="DejaVuSerif-50" d="M 1581 2375 
L 2406 2375 
Q 2872 2375 3115 2626 
Q 3359 2878 3359 3353 
Q 3359 3831 3115 4081 
Q 2872 4331 2406 4331 
L 1581 4331 
L 1581 2375 
z
M 353 0 
L 353 331 
L 947 331 
L 947 4331 
L 353 4331 
L 353 4666 
L 2559 4666 
Q 3259 4666 3668 4311 
Q 4078 3956 4078 3353 
Q 4078 2753 3668 2397 
Q 3259 2041 2559 2041 
L 1581 2041 
L 1581 331 
L 2303 331 
L 2303 0 
L 353 0 
z
" transform="scale(0.015625)"/>
        <path id="DejaVuSerif-67" d="M 3359 2988 
L 3359 72 
Q 3359 -644 2965 -1033 
Q 2572 -1422 1844 -1422 
Q 1516 -1422 1216 -1362 
Q 916 -1303 641 -1184 
L 641 -488 
L 941 -488 
Q 997 -813 1206 -963 
Q 1416 -1113 1806 -1113 
Q 2313 -1113 2548 -827 
Q 2784 -541 2784 72 
L 2784 519 
Q 2616 206 2355 57 
Q 2094 -91 1709 -91 
Q 1097 -91 708 395 
Q 319 881 319 1663 
Q 319 2444 706 2928 
Q 1094 3413 1709 3413 
Q 2094 3413 2355 3264 
Q 2616 3116 2784 2803 
L 2784 3322 
L 3909 3322 
L 3909 2988 
L 3359 2988 
z
M 2784 1825 
Q 2784 2422 2554 2737 
Q 2325 3053 1888 3053 
Q 1444 3053 1217 2703 
Q 991 2353 991 1663 
Q 991 975 1217 622 
Q 1444 269 1888 269 
Q 2325 269 2554 583 
Q 2784 897 2784 1497 
L 2784 1825 
z
" transform="scale(0.015625)"/>
       </defs>
       <use xlink:href="#DejaVuSerif-50"/>
       <use xlink:href="#DejaVuSerif-6f" x="63.285156"/>
       <use xlink:href="#DejaVuSerif-6e" x="123.490234"/>
       <use xlink:href="#DejaVuSerif-67" x="187.894531"/>
      </g>
     </g>
    </g>
   </g>
   <g id="matplotlib.axis_2">
    <g id="ytick_1">
     <g id="line2d_4">
      <path d="M 188.15134 230.566325 
C 188.15134 228.644955 187.772872 226.742268 187.037595 224.967154 
C 186.302319 223.192039 185.224533 221.579019 183.86592 220.220405 
C 182.507306 218.861792 180.894286 217.784006 179.119171 217.04873 
C 177.344057 216.313453 175.44137 215.934985 173.52 215.934985 
C 171.59863 215.934985 169.695943 216.313453 167.920829 217.04873 
C 166.145714 217.784006 164.532694 218.861792 163.17408 220.220405 
C 161.815467 221.579019 160.737681 223.192039 160.002405 224.967154 
C 159.267128 226.742268 158.88866 228.644955 158.88866 230.566325 
C 158.88866 232.487695 159.267128 234.390382 160.002405 236.165496 
C 160.737681 237.940611 161.815467 239.553631 163.17408 240.912245 
C 164.532694 242.270858 166.145714 243.348644 167.920829 244.08392 
C 169.695943 244.819197 171.59863 245.197665 173.52 245.197665 
C 175.44137 245.197665 177.344057 244.819197 179.119171 244.08392 
C 180.894286 243.348644 182.507306 242.270858 183.86592 240.912245 
C 185.224533 239.553631 186.302319 237.940611 187.037595 236.165496 
C 187.772872 234.390382 188.15134 232.487695 188.15134 230.566325 
" clip-path="url(#p5e960525ca)" style="fill: none; stroke: #e0e0e0; stroke-opacity: 0.7; stroke-width: 0.6; stroke-linecap: square"/>
     </g>
     <g id="text_4">
      <!-- $\mathdefault{10^{-2}}$ -->
      <g style="fill: #808080" transform="translate(187.037595 223.303404) scale(0.08 -0.08)">
       <defs>
        <path id="DejaVuSerif-31" d="M 909 0 
L 909 331 
L 1722 331 
L 1722 4213 
L 781 3603 
L 781 4013 
L 1919 4750 
L 2350 4750 
L 2350 331 
L 3163 331 
L 3163 0 
L 909 0 
z
" transform="scale(0.015625)"/>
        <path id="DejaVuSerif-30" d="M 2034 219 
Q 2513 219 2750 744 
Q 2988 1269 2988 2328 
Q 2988 3391 2750 3916 
Q 2513 4441 2034 4441 
Q 1556 4441 1318 3916 
Q 1081 3391 1081 2328 
Q 1081 1269 1318 744 
Q 1556 219 2034 219 
z
M 2034 -91 
Q 1275 -91 848 546 
Q 422 1184 422 2328 
Q 422 3475 848 4112 
Q 1275 4750 2034 4750 
Q 2797 4750 3222 4112 
Q 3647 3475 3647 2328 
Q 3647 1184 3222 546 
Q 2797 -91 2034 -91 
z
" transform="scale(0.015625)"/>
        <path id="DejaVuSerif-2212" d="M 678 2259 
L 4684 2259 
L 4684 1753 
L 678 1753 
L 678 2259 
z
" transform="scale(0.015625)"/>
        <path id="DejaVuSerif-32" d="M 819 3553 
L 469 3553 
L 469 4384 
Q 803 4563 1142 4656 
Q 1481 4750 1806 4750 
Q 2534 4750 2956 4397 
Q 3378 4044 3378 3438 
Q 3378 2753 2422 1800 
Q 2347 1728 2309 1691 
L 1131 513 
L 3078 513 
L 3078 1088 
L 3444 1088 
L 3444 0 
L 434 0 
L 434 341 
L 1850 1753 
Q 2319 2222 2519 2614 
Q 2719 3006 2719 3438 
Q 2719 3909 2473 4175 
Q 2228 4441 1797 4441 
Q 1350 4441 1106 4219 
Q 863 3997 819 3553 
z
" transform="scale(0.015625)"/>
       </defs>
       <use xlink:href="#DejaVuSerif-31" transform="translate(0 0.7125)"/>
       <use xlink:href="#DejaVuSerif-30" transform="translate(63.623047 0.7125)"/>
       <use xlink:href="#DejaVuSerif-2212" transform="translate(128.154453 37.046875) scale(0.7)"/>
       <use xlink:href="#DejaVuSerif-32" transform="translate(186.806797 37.046875) scale(0.7)"/>
      </g>
     </g>
    </g>
    <g id="ytick_2">
     <g id="line2d_5">
      <path d="M 266.496823 230.566325 
C 266.496823 218.35672 264.091798 206.265839 259.419384 194.985635 
C 254.746971 183.705431 247.898037 173.455277 239.264542 164.821783 
C 230.631048 156.188288 220.380894 149.339354 209.10069 144.666941 
C 197.820486 139.994527 185.729605 137.589502 173.52 137.589502 
C 161.310395 137.589502 149.219514 139.994527 137.93931 144.666941 
C 126.659106 149.339354 116.408952 156.188288 107.775458 164.821783 
C 99.141963 173.455277 92.293029 183.705431 87.620616 194.985635 
C 82.948202 206.265839 80.543177 218.35672 80.543177 230.566325 
C 80.543177 242.77593 82.948202 254.866811 87.620616 266.147015 
C 92.293029 277.427219 99.141963 287.677373 107.775458 296.310867 
C 116.408952 304.944362 126.659106 311.793296 137.93931 316.465709 
C 149.219514 321.138123 161.310395 323.543148 173.52 323.543148 
C 185.729605 323.543148 197.820486 321.138123 209.10069 316.465709 
C 220.380894 311.793296 230.631048 304.944362 239.264542 296.310867 
C 247.898037 287.677373 254.746971 277.427219 259.419384 266.147015 
C 264.091798 254.866811 266.496823 242.77593 266.496823 230.566325 
" clip-path="url(#p5e960525ca)" style="fill: none; stroke: #e0e0e0; stroke-opacity: 0.7; stroke-width: 0.6; stroke-linecap: square"/>
     </g>
     <g id="text_5">
      <!-- $\mathdefault{10^{-1}}$ -->
      <g style="fill: #808080" transform="translate(259.419384 193.321885) scale(0.08 -0.08)">
       <use xlink:href="#DejaVuSerif-31" transform="translate(0 0.7125)"/>
       <use xlink:href="#DejaVuSerif-30" transform="translate(63.623047 0.7125)"/>
       <use xlink:href="#DejaVuSerif-2212" transform="translate(128.154453 37.046875) scale(0.7)"/>
       <use xlink:href="#DejaVuSerif-31" transform="translate(186.806797 37.046875) scale(0.7)"/>
      </g>
     </g>
    </g>
    <g id="ytick_3">
     <g id="line2d_6">
      <path d="M 332.337852 230.566325 
C 332.337852 209.710556 328.229721 189.057582 320.248563 169.789364 
C 312.267406 150.521146 300.568436 133.0124 285.82118 118.265145 
C 271.073925 103.517889 253.565179 91.818919 234.296961 83.837762 
C 215.028743 75.856604 194.375769 71.748473 173.52 71.748473 
C 152.664231 71.748473 132.011257 75.856604 112.743039 83.837762 
C 93.474821 91.818919 75.966075 103.517889 61.21882 118.265145 
C 46.471564 133.0124 34.772594 150.521146 26.791437 169.789364 
C 18.810279 189.057582 14.702148 209.710556 14.702148 230.566325 
C 14.702148 251.422094 18.810279 272.075068 26.791437 291.343286 
C 34.772594 310.611504 46.471564 328.12025 61.21882 342.867505 
C 75.966075 357.614761 93.474821 369.313731 112.743039 377.294888 
C 132.011257 385.276046 152.664231 389.384177 173.52 389.384177 
C 194.375769 389.384177 215.028743 385.276046 234.296961 377.294888 
C 253.565179 369.313731 271.073925 357.614761 285.82118 342.867505 
C 300.568436 328.12025 312.267406 310.611504 320.248563 291.343286 
C 328.229721 272.075068 332.337852 251.422094 332.337852 230.566325 
" clip-path="url(#p5e960525ca)" style="fill: none; stroke: #e0e0e0; stroke-opacity: 0.7; stroke-width: 0.6; stroke-linecap: square"/>
     </g>
     <g id="text_6">
      <!-- $\mathdefault{10^{0}}$ -->
      <g style="fill: #808080" transform="translate(320.248563 168.125614) scale(0.08 -0.08)">
       <use xlink:href="#DejaVuSerif-31" transform="translate(0 0.7125)"/>
       <use xlink:href="#DejaVuSerif-30" transform="translate(63.623047 0.7125)"/>
       <use xlink:href="#DejaVuSerif-30" transform="translate(128.154453 37.046875) scale(0.7)"/>
      </g>
     </g>
    </g>
    <g id="ytick_4"/>
   </g>
   <g id="patch_3">
    <path d="M 332.337852 230.566325 
L 94.111074 93.02603 
L 94.111074 368.10662 
z
" clip-path="url(#p5e960525ca)" style="fill: #a8d8ea; opacity: 0.15; stroke: #a8d8ea; stroke-linejoin: miter"/>
   </g>
   <g id="patch_4">
    <path d="M 185.649608 230.566325 
L 130.826172 156.618446 
L 173.52 230.566325 
z
" clip-path="url(#p5e960525ca)" style="fill: #f4b6c2; opacity: 0.15; stroke: #f4b6c2; stroke-linejoin: miter"/>
   </g>
   <g id="patch_5">
    <path d="M 182.617206 230.566325 
L 173.52 230.566325 
L 173.52 230.566325 
z
" clip-path="url(#p5e960525ca)" style="fill: #b5ead7; opacity: 0.15; stroke: #b5ead7; stroke-linejoin: miter"/>
   </g>
   <g id="patch_6">
    <path d="M 184.891508 230.566325 
L 173.52 230.566325 
L 173.52 230.566325 
z
" clip-path="url(#p5e960525ca)" style="fill: #ffeead; opacity: 0.15; stroke: #ffeead; stroke-linejoin: miter"/>
   </g>
   <g id="patch_7">
    <path d="M 194.241414 230.566325 
L 118.377022 135.055885 
L 173.52 230.566325 
z
" clip-path="url(#p5e960525ca)" style="fill: #c3b1e1; opacity: 0.15; stroke: #c3b1e1; stroke-linejoin: miter"/>
   </g>
   <g id="line2d_7">
    <path d="M 332.337852 230.566325 
L 94.111074 93.02603 
L 94.111074 368.10662 
L 332.337852 230.566325 
" clip-path="url(#p5e960525ca)" style="fill: none; stroke: #a8d8ea; stroke-width: 2; stroke-linecap: square"/>
    <defs>
     <path id="m334df412d1" d="M 0 3.5 
C 0.928211 3.5 1.81853 3.131218 2.474874 2.474874 
C 3.131218 1.81853 3.5 0.928211 3.5 0 
C 3.5 -0.928211 3.131218 -1.81853 2.474874 -2.474874 
C 1.81853 -3.131218 0.928211 -3.5 0 -3.5 
C -0.928211 -3.5 -1.81853 -3.131218 -2.474874 -2.474874 
C -3.131218 -1.81853 -3.5 -0.928211 -3.5 0 
C -3.5 0.928211 -3.131218 1.81853 -2.474874 2.474874 
C -1.81853 3.131218 -0.928211 3.5 0 3.5 
z
" style="stroke: #1a1a1a; stroke-width: 0.8"/>
    </defs>
    <g clip-path="url(#p5e960525ca)">
     <use xlink:href="#m334df412d1" x="332.337852" y="230.566325" style="fill: #a8d8ea; stroke: #1a1a1a; stroke-width: 0.8"/>
     <use xlink:href="#m334df412d1" x="94.111074" y="93.02603" style="fill: #a8d8ea; stroke: #1a1a1a; stroke-width: 0.8"/>
     <use xlink:href="#m334df412d1" x="94.111074" y="368.10662" style="fill: #a8d8ea; stroke: #1a1a1a; stroke-width: 0.8"/>
     <use xlink:href="#m334df412d1" x="332.337852" y="230.566325" style="fill: #a8d8ea; stroke: #1a1a1a; stroke-width: 0.8"/>
    </g>
   </g>
   <g id="line2d_8">
    <path d="M 185.649608 230.566325 
L 130.826172 156.618446 
L 173.52 230.566325 
L 185.649608 230.566325 
" clip-path="url(#p5e960525ca)" style="fill: none; stroke: #f4b6c2; stroke-width: 2; stroke-linecap: square"/>
    <defs>
     <path id="m27cce90c55" d="M -3.5 3.5 
L 3.5 3.5 
L 3.5 -3.5 
L -3.5 -3.5 
z
" style="stroke: #1a1a1a; stroke-width: 0.8; stroke-linejoin: miter"/>
    </defs>
    <g clip-path="url(#p5e960525ca)">
     <use xlink:href="#m27cce90c55" x="185.649608" y="230.566325" style="fill: #f4b6c2; stroke: #1a1a1a; stroke-width: 0.8; stroke-linejoin: miter"/>
     <use xlink:href="#m27cce90c55" x="130.826172" y="156.618446" style="fill: #f4b6c2; stroke: #1a1a1a; stroke-width: 0.8; stroke-linejoin: miter"/>
     <use xlink:href="#m27cce90c55" x="173.52" y="230.566325" style="fill: #f4b6c2; stroke: #1a1a1a; stroke-width: 0.8; stroke-linejoin: miter"/>
     <use xlink:href="#m27cce90c55" x="185.649608" y="230.566325" style="fill: #f4b6c2; stroke: #1a1a1a; stroke-width: 0.8; stroke-linejoin: miter"/>
    </g>
   </g>
   <g id="line2d_9">
    <path d="M 182.617206 230.566325 
L 173.52 230.566325 
L 173.52 230.566325 
L 182.617206 230.566325 
" clip-path="url(#p5e960525ca)" style="fill: none; stroke: #b5ead7; stroke-width: 2; stroke-linecap: square"/>
    <defs>
     <path id="m2df501e0b0" d="M 0 -3.5 
L -3.5 3.5 
L 3.5 3.5 
z
" style="stroke: #1a1a1a; stroke-width: 0.8; stroke-linejoin: miter"/>
    </defs>
    <g clip-path="url(#p5e960525ca)">
     <use xlink:href="#m2df501e0b0" x="182.617206" y="230.566325" style="fill: #b5ead7; stroke: #1a1a1a; stroke-width: 0.8; stroke-linejoin: miter"/>
     <use xlink:href="#m2df501e0b0" x="173.52" y="230.566325" style="fill: #b5ead7; stroke: #1a1a1a; stroke-width: 0.8; stroke-linejoin: miter"/>
     <use xlink:href="#m2df501e0b0" x="173.52" y="230.566325" style="fill: #b5ead7; stroke: #1a1a1a; stroke-width: 0.8; stroke-linejoin: miter"/>
     <use xlink:href="#m2df501e0b0" x="182.617206" y="230.566325" style="fill: #b5ead7; stroke: #1a1a1a; stroke-width: 0.8; stroke-linejoin: miter"/>
    </g>
   </g>
   <g id="line2d_10">
    <path d="M 184.891508 230.566325 
L 173.52 230.566325 
L 173.52 230.566325 
L 184.891508 230.566325 
" clip-path="url(#p5e960525ca)" style="fill: none; stroke: #ffeead; stroke-width: 2; stroke-linecap: square"/>
    <defs>
     <path id="medae05eca9" d="M -0 4.949747 
L 4.949747 0 
L 0 -4.949747 
L -4.949747 -0 
z
" style="stroke: #1a1a1a; stroke-width: 0.8; stroke-linejoin: miter"/>
    </defs>
    <g clip-path="url(#p5e960525ca)">
     <use xlink:href="#medae05eca9" x="184.891508" y="230.566325" style="fill: #ffeead; stroke: #1a1a1a; stroke-width: 0.8; stroke-linejoin: miter"/>
     <use xlink:href="#medae05eca9" x="173.52" y="230.566325" style="fill: #ffeead; stroke: #1a1a1a; stroke-width: 0.8; stroke-linejoin: miter"/>
     <use xlink:href="#medae05eca9" x="173.52" y="230.566325" style="fill: #ffeead; stroke: #1a1a1a; stroke-width: 0.8; stroke-linejoin: miter"/>
     <use xlink:href="#medae05eca9" x="184.891508" y="230.566325" style="fill: #ffeead; stroke: #1a1a1a; stroke-width: 0.8; stroke-linejoin: miter"/>
    </g>
   </g>
   <g id="line2d_11">
    <path d="M 194.241414 230.566325 
L 118.377022 135.055885 
L 173.52 230.566325 
L 194.241414 230.566325 
" clip-path="url(#p5e960525ca)" style="fill: none; stroke: #c3b1e1; stroke-width: 2; stroke-linecap: square"/>
    <defs>
     <path id="mb7b4f56e4b" d="M -0 3.5 
L 3.5 -3.5 
L -3.5 -3.5 
z
" style="stroke: #1a1a1a; stroke-width: 0.8; stroke-linejoin: miter"/>
    </defs>
    <g clip-path="url(#p5e960525ca)">
     <use xlink:href="#mb7b4f56e4b" x="194.241414" y="230.566325" style="fill: #c3b1e1; stroke: #1a1a1a; stroke-width: 0.8; stroke-linejoin: miter"/>
     <use xlink:href="#mb7b4f56e4b" x="118.377022" y="135.055885" style="fill: #c3b1e1; stroke: #1a1a1a; stroke-width: 0.8; stroke-linejoin: miter"/>
     <use xlink:href="#mb7b4f56e4b" x="173.52" y="230.566325" style="fill: #c3b1e1; stroke: #1a1a1a; stroke-width: 0.8; stroke-linejoin: miter"/>
     <use xlink:href="#mb7b4f56e4b" x="194.241414" y="230.566325" style="fill: #c3b1e1; stroke: #1a1a1a; stroke-width: 0.8; stroke-linejoin: miter"/>
    </g>
   </g>
   <g id="patch_8">
    <path d="M 339.84 230.566325 
C 339.84 208.725383 335.537811 187.096816 327.179644 166.918417 
C 318.821477 146.740017 306.569878 128.404204 291.126 112.960325 
C 275.682121 97.516447 257.346308 85.264848 237.167908 76.906681 
C 216.989509 68.548514 195.360942 64.246325 173.52 64.246325 
C 151.679058 64.246325 130.050491 68.548514 109.872092 76.906681 
C 89.693692 85.264848 71.357879 97.516447 55.914 112.960325 
C 40.470122 128.404204 28.218523 146.740017 19.860356 166.918417 
C 11.502189 187.096816 7.2 208.725383 7.2 230.566325 
C 7.2 252.407267 11.502189 274.035834 19.860356 294.214233 
C 28.218523 314.392633 40.470122 332.728446 55.914 348.172325 
C 71.357879 363.616203 89.693692 375.867802 109.872092 384.225969 
C 130.050491 392.584136 151.679058 396.886325 173.52 396.886325 
C 195.360942 396.886325 216.989509 392.584136 237.167908 384.225969 
C 257.346308 375.867802 275.682121 363.616203 291.126 348.172325 
C 306.569878 332.728446 318.821477 314.392633 327.179644 294.214233 
C 335.537811 274.035834 339.84 252.407267 339.84 230.566325 
" style="fill: none; stroke: #1a1a1a; stroke-width: 1.2; stroke-linejoin: miter; stroke-linecap: square"/>
   </g>
   <g id="text_7">
    <!-- Normalised Performance Profile -->
    <g transform="translate(67.161719 17.077969) scale(0.13 -0.13)">
     <defs>
      <path id="DejaVuSerif-4e" d="M 313 0 
L 313 331 
L 941 331 
L 941 4331 
L 313 4331 
L 313 4666 
L 1509 4666 
L 4306 984 
L 4306 4331 
L 3681 4331 
L 3681 4666 
L 5319 4666 
L 5319 4331 
L 4691 4331 
L 4691 -91 
L 4313 -91 
L 1325 3841 
L 1325 331 
L 1953 331 
L 1953 0 
L 313 0 
z
" transform="scale(0.015625)"/>
      <path id="DejaVuSerif-6d" d="M 3316 2675 
Q 3481 3041 3739 3227 
Q 3997 3413 4341 3413 
Q 4863 3413 5119 3089 
Q 5375 2766 5375 2113 
L 5375 331 
L 5894 331 
L 5894 0 
L 4300 0 
L 4300 331 
L 4800 331 
L 4800 2047 
Q 4800 2556 4650 2772 
Q 4500 2988 4153 2988 
Q 3769 2988 3567 2697 
Q 3366 2406 3366 1850 
L 3366 331 
L 3866 331 
L 3866 0 
L 2291 0 
L 2291 331 
L 2791 331 
L 2791 2069 
Q 2791 2566 2641 2777 
Q 2491 2988 2144 2988 
Q 1759 2988 1557 2697 
Q 1356 2406 1356 1850 
L 1356 331 
L 1856 331 
L 1856 0 
L 263 0 
L 263 331 
L 781 331 
L 781 2994 
L 231 2994 
L 231 3322 
L 1356 3322 
L 1356 2731 
Q 1516 3063 1762 3238 
Q 2009 3413 2322 3413 
Q 2709 3413 2968 3220 
Q 3228 3028 3316 2675 
z
" transform="scale(0.015625)"/>
      <path id="DejaVuSerif-6c" d="M 1313 331 
L 1856 331 
L 1856 0 
L 184 0 
L 184 331 
L 738 331 
L 738 4531 
L 184 4531 
L 184 4863 
L 1313 4863 
L 1313 331 
z
" transform="scale(0.015625)"/>
      <path id="DejaVuSerif-69" d="M 622 4353 
Q 622 4497 726 4603 
Q 831 4709 978 4709 
Q 1122 4709 1226 4603 
Q 1331 4497 1331 4353 
Q 1331 4206 1228 4103 
Q 1125 4000 978 4000 
Q 831 4000 726 4103 
Q 622 4206 622 4353 
z
M 1356 331 
L 1900 331 
L 1900 0 
L 231 0 
L 231 331 
L 781 331 
L 781 2988 
L 231 2988 
L 231 3322 
L 1356 3322 
L 1356 331 
z
" transform="scale(0.015625)"/>
      <path id="DejaVuSerif-20" transform="scale(0.015625)"/>
      <path id="DejaVuSerif-66" d="M 2753 4078 
L 2450 4078 
Q 2447 4313 2317 4434 
Q 2188 4556 1941 4556 
Q 1619 4556 1487 4379 
Q 1356 4203 1356 3750 
L 1356 3322 
L 2284 3322 
L 2284 2988 
L 1356 2988 
L 1356 331 
L 2094 331 
L 2094 0 
L 231 0 
L 231 331 
L 781 331 
L 781 2988 
L 231 2988 
L 231 3322 
L 781 3322 
L 781 3738 
Q 781 4294 1070 4578 
Q 1359 4863 1919 4863 
Q 2128 4863 2337 4825 
Q 2547 4788 2753 4709 
L 2753 4078 
z
" transform="scale(0.015625)"/>
     </defs>
     <use xlink:href="#DejaVuSerif-4e"/>
     <use xlink:href="#DejaVuSerif-6f" x="87.5"/>
     <use xlink:href="#DejaVuSerif-72" x="147.705078"/>
     <use xlink:href="#DejaVuSerif-6d" x="195.507812"/>
     <use xlink:href="#DejaVuSerif-61" x="290.332031"/>
     <use xlink:href="#DejaVuSerif-6c" x="349.951172"/>
     <use xlink:href="#DejaVuSerif-69" x="381.933594"/>
     <use xlink:href="#DejaVuSerif-73" x="413.916016"/>
     <use xlink:href="#DejaVuSerif-65" x="465.234375"/>
     <use xlink:href="#DejaVuSerif-64" x="524.414062"/>
     <use xlink:href="#DejaVuSerif-20" x="588.427734"/>
     <use xlink:href="#DejaVuSerif-50" x="620.214844"/>
     <use xlink:href="#DejaVuSerif-65" x="683"/>
     <use xlink:href="#DejaVuSerif-72" x="742.179688"/>
     <use xlink:href="#DejaVuSerif-66" x="789.982422"/>
     <use xlink:href="#DejaVuSerif-6f" x="826.994141"/>
     <use xlink:href="#DejaVuSerif-72" x="887.199219"/>
     <use xlink:href="#DejaVuSerif-6d" x="935.001953"/>
     <use xlink:href="#DejaVuSerif-61" x="1029.826172"/>
     <use xlink:href="#DejaVuSerif-6e" x="1089.445312"/>
     <use xlink:href="#DejaVuSerif-63" x="1153.849609"/>
     <use xlink:href="#DejaVuSerif-65" x="1209.855469"/>
     <use xlink:href="#DejaVuSerif-20" x="1269.035156"/>
     <use xlink:href="#DejaVuSerif-50" x="1300.822266"/>
     <use xlink:href="#DejaVuSerif-72" x="1368.107422"/>
     <use xlink:href="#DejaVuSerif-6f" x="1415.910156"/>
     <use xlink:href="#DejaVuSerif-66" x="1476.115234"/>
     <use xlink:href="#DejaVuSerif-69" x="1513.126953"/>
     <use xlink:href="#DejaVuSerif-6c" x="1545.109375"/>
     <use xlink:href="#DejaVuSerif-65" x="1577.091797"/>
    </g>
    <!-- (100% = Expert) -->
    <g transform="translate(118.149141 31.635125) scale(0.13 -0.13)">
     <defs>
      <path id="DejaVuSerif-28" d="M 2041 -997 
Q 1281 -656 893 83 
Q 506 822 506 1931 
Q 506 3044 893 3783 
Q 1281 4522 2041 4863 
L 2041 4556 
Q 1559 4225 1350 3623 
Q 1141 3022 1141 1931 
Q 1141 844 1350 242 
Q 1559 -359 2041 -691 
L 2041 -997 
z
" transform="scale(0.015625)"/>
      <path id="DejaVuSerif-25" d="M 1434 4459 
Q 1159 4459 1004 4200 
Q 850 3941 850 3475 
Q 850 3016 1008 2753 
Q 1166 2491 1434 2491 
Q 1700 2491 1854 2752 
Q 2009 3013 2009 3475 
Q 2009 3938 1854 4198 
Q 1700 4459 1434 4459 
z
M 4653 2169 
Q 4381 2169 4226 1906 
Q 4072 1644 4072 1178 
Q 4072 719 4228 458 
Q 4384 197 4653 197 
Q 4922 197 5075 458 
Q 5228 719 5228 1178 
Q 5228 1641 5073 1905 
Q 4919 2169 4653 2169 
z
M 4653 2450 
Q 5147 2450 5437 2106 
Q 5728 1763 5728 1178 
Q 5728 594 5436 251 
Q 5144 -91 4653 -91 
Q 4153 -91 3862 251 
Q 3572 594 3572 1178 
Q 3572 1766 3864 2108 
Q 4156 2450 4653 2450 
z
M 4263 4750 
L 4738 4750 
L 1819 -91 
L 1344 -91 
L 4263 4750 
z
M 1428 4750 
Q 1922 4750 2215 4408 
Q 2509 4066 2509 3481 
Q 2509 2891 2217 2550 
Q 1925 2209 1428 2209 
Q 931 2209 642 2551 
Q 353 2894 353 3481 
Q 353 4063 643 4406 
Q 934 4750 1428 4750 
z
" transform="scale(0.015625)"/>
      <path id="DejaVuSerif-3d" d="M 678 2894 
L 4684 2894 
L 4684 2394 
L 678 2394 
L 678 2894 
z
M 678 1619 
L 4684 1619 
L 4684 1119 
L 678 1119 
L 678 1619 
z
" transform="scale(0.015625)"/>
      <path id="DejaVuSerif-45" d="M 353 0 
L 353 331 
L 947 331 
L 947 4331 
L 353 4331 
L 353 4666 
L 4109 4666 
L 4109 3628 
L 3725 3628 
L 3725 4281 
L 1581 4281 
L 1581 2719 
L 3109 2719 
L 3109 3303 
L 3494 3303 
L 3494 1753 
L 3109 1753 
L 3109 2338 
L 1581 2338 
L 1581 384 
L 3775 384 
L 3775 1038 
L 4159 1038 
L 4159 0 
L 353 0 
z
" transform="scale(0.015625)"/>
      <path id="DejaVuSerif-78" d="M 1863 2028 
L 2559 2988 
L 2113 2988 
L 2113 3322 
L 3391 3322 
L 3391 2988 
L 2950 2988 
L 2059 1759 
L 3097 331 
L 3531 331 
L 3531 0 
L 1997 0 
L 1997 331 
L 2419 331 
L 1697 1325 
L 972 331 
L 1403 331 
L 1403 0 
L 141 0 
L 141 331 
L 581 331 
L 1497 1594 
L 488 2988 
L 78 2988 
L 78 3322 
L 1563 3322 
L 1563 2988 
L 1166 2988 
L 1863 2028 
z
" transform="scale(0.015625)"/>
      <path id="DejaVuSerif-29" d="M 453 -997 
L 453 -691 
Q 934 -359 1145 242 
Q 1356 844 1356 1931 
Q 1356 3022 1145 3623 
Q 934 4225 453 4556 
L 453 4863 
Q 1216 4522 1603 3783 
Q 1991 3044 1991 1931 
Q 1991 822 1603 83 
Q 1216 -656 453 -997 
z
" transform="scale(0.015625)"/>
     </defs>
     <use xlink:href="#DejaVuSerif-28"/>
     <use xlink:href="#DejaVuSerif-31" x="39.013672"/>
     <use xlink:href="#DejaVuSerif-30" x="102.636719"/>
     <use xlink:href="#DejaVuSerif-30" x="166.259766"/>
     <use xlink:href="#DejaVuSerif-25" x="229.882812"/>
     <use xlink:href="#DejaVuSerif-20" x="324.902344"/>
     <use xlink:href="#DejaVuSerif-3d" x="356.689453"/>
     <use xlink:href="#DejaVuSerif-20" x="440.478516"/>
     <use xlink:href="#DejaVuSerif-45" x="472.265625"/>
     <use xlink:href="#DejaVuSerif-78" x="545.263672"/>
     <use xlink:href="#DejaVuSerif-70" x="601.660156"/>
     <use xlink:href="#DejaVuSerif-65" x="665.673828"/>
     <use xlink:href="#DejaVuSerif-72" x="724.853516"/>
     <use xlink:href="#DejaVuSerif-74" x="772.65625"/>
     <use xlink:href="#DejaVuSerif-29" x="812.841797"/>
    </g>
   </g>
   <g id="legend_1">
    <g id="patch_9">
     <path d="M 359.662438 112.515138 
L 451.264 112.515138 
L 451.264 35.982325 
L 359.662438 35.982325 
z
" style="fill: #fafafa; opacity: 0.9; stroke: #1a1a1a; stroke-linejoin: miter"/>
    </g>
    <g id="line2d_12">
     <path d="M 363.662438 44.080763 
L 373.662438 44.080763 
L 383.662438 44.080763 
" style="fill: none; stroke: #a8d8ea; stroke-width: 2; stroke-linecap: square"/>
     <g>
      <use xlink:href="#m334df412d1" x="373.662438" y="44.080763" style="fill: #a8d8ea; stroke: #1a1a1a; stroke-width: 0.8"/>
     </g>
    </g>
    <g id="text_8">
     <!-- Expert -->
     <g transform="translate(391.662438 47.580763) scale(0.1 -0.1)">
      <use xlink:href="#DejaVuSerif-45"/>
      <use xlink:href="#DejaVuSerif-78" x="72.998047"/>
      <use xlink:href="#DejaVuSerif-70" x="129.394531"/>
      <use xlink:href="#DejaVuSerif-65" x="193.408203"/>
      <use xlink:href="#DejaVuSerif-72" x="252.587891"/>
      <use xlink:href="#DejaVuSerif-74" x="300.390625"/>
     </g>
    </g>
    <g id="line2d_13">
     <path d="M 363.662438 58.758888 
L 373.662438 58.758888 
L 383.662438 58.758888 
" style="fill: none; stroke: #f4b6c2; stroke-width: 2; stroke-linecap: square"/>
     <g>
      <use xlink:href="#m27cce90c55" x="373.662438" y="58.758888" style="fill: #f4b6c2; stroke: #1a1a1a; stroke-width: 0.8; stroke-linejoin: miter"/>
     </g>
    </g>
    <g id="text_9">
     <!-- Distillation -->
     <g transform="translate(391.662438 62.258888) scale(0.1 -0.1)">
      <defs>
       <path id="DejaVuSerif-44" d="M 1581 331 
L 2163 331 
Q 3072 331 3558 850 
Q 4044 1369 4044 2338 
Q 4044 3306 3559 3818 
Q 3075 4331 2163 4331 
L 1581 4331 
L 1581 331 
z
M 353 0 
L 353 331 
L 947 331 
L 947 4331 
L 353 4331 
L 353 4666 
L 2209 4666 
Q 3416 4666 4089 4050 
Q 4763 3434 4763 2338 
Q 4763 1238 4088 619 
Q 3413 0 2209 0 
L 353 0 
z
" transform="scale(0.015625)"/>
      </defs>
      <use xlink:href="#DejaVuSerif-44"/>
      <use xlink:href="#DejaVuSerif-69" x="80.175781"/>
      <use xlink:href="#DejaVuSerif-73" x="112.158203"/>
      <use xlink:href="#DejaVuSerif-74" x="163.476562"/>
      <use xlink:href="#DejaVuSerif-69" x="203.662109"/>
      <use xlink:href="#DejaVuSerif-6c" x="235.644531"/>
      <use xlink:href="#DejaVuSerif-6c" x="267.626953"/>
      <use xlink:href="#DejaVuSerif-61" x="299.609375"/>
      <use xlink:href="#DejaVuSerif-74" x="359.228516"/>
      <use xlink:href="#DejaVuSerif-69" x="399.414062"/>
      <use xlink:href="#DejaVuSerif-6f" x="431.396484"/>
      <use xlink:href="#DejaVuSerif-6e" x="491.601562"/>
     </g>
    </g>
    <g id="line2d_14">
     <path d="M 363.662438 73.437013 
L 373.662438 73.437013 
L 383.662438 73.437013 
" style="fill: none; stroke: #b5ead7; stroke-width: 2; stroke-linecap: square"/>
     <g>
      <use xlink:href="#m2df501e0b0" x="373.662438" y="73.437013" style="fill: #b5ead7; stroke: #1a1a1a; stroke-width: 0.8; stroke-linejoin: miter"/>
     </g>
    </g>
    <g id="text_10">
     <!-- One-Shot -->
     <g transform="translate(391.662438 76.937013) scale(0.1 -0.1)">
      <defs>
       <path id="DejaVuSerif-4f" d="M 2625 244 
Q 3391 244 3781 770 
Q 4172 1297 4172 2328 
Q 4172 3363 3781 3889 
Q 3391 4416 2625 4416 
Q 1856 4416 1465 3889 
Q 1075 3363 1075 2328 
Q 1075 1297 1465 770 
Q 1856 244 2625 244 
z
M 2625 -91 
Q 2150 -91 1751 65 
Q 1353 222 1050 525 
Q 700 875 529 1319 
Q 359 1763 359 2328 
Q 359 2894 529 3339 
Q 700 3784 1050 4134 
Q 1356 4441 1750 4595 
Q 2144 4750 2625 4750 
Q 3641 4750 4266 4084 
Q 4891 3419 4891 2328 
Q 4891 1769 4719 1320 
Q 4547 872 4197 525 
Q 3891 219 3497 64 
Q 3103 -91 2625 -91 
z
" transform="scale(0.015625)"/>
       <path id="DejaVuSerif-2d" d="M 281 1959 
L 1881 1959 
L 1881 1472 
L 281 1472 
L 281 1959 
z
" transform="scale(0.015625)"/>
       <path id="DejaVuSerif-68" d="M 263 0 
L 263 331 
L 781 331 
L 781 4531 
L 231 4531 
L 231 4863 
L 1356 4863 
L 1356 2731 
Q 1516 3069 1770 3241 
Q 2025 3413 2363 3413 
Q 2913 3413 3172 3097 
Q 3431 2781 3431 2113 
L 3431 331 
L 3944 331 
L 3944 0 
L 2356 0 
L 2356 331 
L 2853 331 
L 2853 1931 
Q 2853 2541 2704 2764 
Q 2556 2988 2175 2988 
Q 1775 2988 1565 2697 
Q 1356 2406 1356 1850 
L 1356 331 
L 1856 331 
L 1856 0 
L 263 0 
z
" transform="scale(0.015625)"/>
      </defs>
      <use xlink:href="#DejaVuSerif-4f"/>
      <use xlink:href="#DejaVuSerif-6e" x="81.982422"/>
      <use xlink:href="#DejaVuSerif-65" x="146.386719"/>
      <use xlink:href="#DejaVuSerif-2d" x="205.566406"/>
      <use xlink:href="#DejaVuSerif-53" x="239.355469"/>
      <use xlink:href="#DejaVuSerif-68" x="307.861328"/>
      <use xlink:href="#DejaVuSerif-6f" x="372.265625"/>
      <use xlink:href="#DejaVuSerif-74" x="432.470703"/>
     </g>
    </g>
    <g id="line2d_15">
     <path d="M 363.662438 88.115138 
L 373.662438 88.115138 
L 383.662438 88.115138 
" style="fill: none; stroke: #ffeead; stroke-width: 2; stroke-linecap: square"/>
     <g>
      <use xlink:href="#medae05eca9" x="373.662438" y="88.115138" style="fill: #ffeead; stroke: #1a1a1a; stroke-width: 0.8; stroke-linejoin: miter"/>
     </g>
    </g>
    <g id="text_11">
     <!-- Iterative -->
     <g transform="translate(391.662438 91.615138) scale(0.1 -0.1)">
      <use xlink:href="#DejaVuSerif-49"/>
      <use xlink:href="#DejaVuSerif-74" x="39.501953"/>
      <use xlink:href="#DejaVuSerif-65" x="79.6875"/>
      <use xlink:href="#DejaVuSerif-72" x="138.867188"/>
      <use xlink:href="#DejaVuSerif-61" x="186.669922"/>
      <use xlink:href="#DejaVuSerif-74" x="246.289062"/>
      <use xlink:href="#DejaVuSerif-69" x="286.474609"/>
      <use xlink:href="#DejaVuSerif-76" x="318.457031"/>
      <use xlink:href="#DejaVuSerif-65" x="374.951172"/>
     </g>
    </g>
    <g id="line2d_16">
     <path d="M 363.662438 102.793263 
L 373.662438 102.793263 
L 383.662438 102.793263 
" style="fill: none; stroke: #c3b1e1; stroke-width: 2; stroke-linecap: square"/>
     <g>
      <use xlink:href="#mb7b4f56e4b" x="373.662438" y="102.793263" style="fill: #c3b1e1; stroke: #1a1a1a; stroke-width: 0.8; stroke-linejoin: miter"/>
     </g>
    </g>
    <g id="text_12">
     <!-- Hybrid -->
     <g transform="translate(391.662438 106.293263) scale(0.1 -0.1)">
      <defs>
       <path id="DejaVuSerif-48" d="M 353 0 
L 353 331 
L 947 331 
L 947 4331 
L 353 4331 
L 353 4666 
L 2175 4666 
L 2175 4331 
L 1581 4331 
L 1581 2719 
L 4000 2719 
L 4000 4331 
L 3406 4331 
L 3406 4666 
L 5228 4666 
L 5228 4331 
L 4634 4331 
L 4634 331 
L 5228 331 
L 5228 0 
L 3406 0 
L 3406 331 
L 4000 331 
L 4000 2338 
L 1581 2338 
L 1581 331 
L 2175 331 
L 2175 0 
L 353 0 
z
" transform="scale(0.015625)"/>
       <path id="DejaVuSerif-79" d="M 1381 -609 
L 1600 -56 
L 359 2988 
L -19 2988 
L -19 3322 
L 1509 3322 
L 1509 2988 
L 978 2988 
L 1913 703 
L 2847 2988 
L 2350 2988 
L 2350 3322 
L 3597 3322 
L 3597 2988 
L 3225 2988 
L 1703 -750 
Q 1547 -1138 1356 -1280 
Q 1166 -1422 819 -1422 
Q 672 -1422 517 -1397 
Q 363 -1372 206 -1325 
L 206 -691 
L 500 -691 
Q 519 -903 608 -995 
Q 697 -1088 884 -1088 
Q 1056 -1088 1161 -992 
Q 1266 -897 1381 -609 
z
" transform="scale(0.015625)"/>
       <path id="DejaVuSerif-62" d="M 738 331 
L 738 4531 
L 184 4531 
L 184 4863 
L 1313 4863 
L 1313 2803 
Q 1481 3116 1742 3264 
Q 2003 3413 2388 3413 
Q 3000 3413 3387 2928 
Q 3775 2444 3775 1663 
Q 3775 881 3387 395 
Q 3000 -91 2388 -91 
Q 2003 -91 1742 57 
Q 1481 206 1313 519 
L 1313 0 
L 184 0 
L 184 331 
L 738 331 
z
M 1313 1497 
Q 1313 897 1542 583 
Q 1772 269 2209 269 
Q 2650 269 2876 622 
Q 3103 975 3103 1663 
Q 3103 2353 2876 2703 
Q 2650 3053 2209 3053 
Q 1772 3053 1542 2737 
Q 1313 2422 1313 1825 
L 1313 1497 
z
" transform="scale(0.015625)"/>
      </defs>
      <use xlink:href="#DejaVuSerif-48"/>
      <use xlink:href="#DejaVuSerif-79" x="87.207031"/>
      <use xlink:href="#DejaVuSerif-62" x="143.701172"/>
      <use xlink:href="#DejaVuSerif-72" x="207.714844"/>
      <use xlink:href="#DejaVuSerif-69" x="255.517578"/>
      <use xlink:href="#DejaVuSerif-64" x="287.5"/>
     </g>
    </g>
   </g>
  </g>
 </g>
 <defs>
  <clipPath id="p5e960525ca">
   <path d="M 339.84 230.566325 
C 339.84 208.725383 335.537811 187.096816 327.179644 166.918417 
C 318.821477 146.740017 306.569878 128.404204 291.126 112.960325 
C 275.682121 97.516447 257.346308 85.264848 237.167908 76.906681 
C 216.989509 68.548514 195.360942 64.246325 173.52 64.246325 
C 151.679058 64.246325 130.050491 68.548514 109.872092 76.906681 
C 89.693692 85.264848 71.357879 97.516447 55.914 112.960325 
C 40.470122 128.404204 28.218523 146.740017 19.860356 166.918417 
C 11.502189 187.096816 7.2 208.725383 7.2 230.566325 
C 7.2 252.407267 11.502189 274.035834 19.860356 294.214233 
C 28.218523 314.392633 40.470122 332.728446 55.914 348.172325 
C 71.357879 363.616203 89.693692 375.867802 109.872092 384.225969 
C 130.050491 392.584136 151.679058 396.886325 173.52 396.886325 
C 195.360942 396.886325 216.989509 392.584136 237.167908 384.225969 
C 257.346308 375.867802 275.682121 363.616203 291.126 348.172325 
C 306.569878 332.728446 318.821477 314.392633 327.179644 294.214233 
C 335.537811 274.035834 339.84 252.407267 339.84 230.566325 
M 173.52 230.566325 
C 173.52 230.566325 173.52 230.566325 173.52 230.566325 
C 173.52 230.566325 173.52 230.566325 173.52 230.566325 
C 173.52 230.566325 173.52 230.566325 173.52 230.566325 
C 173.52 230.566325 173.52 230.566325 173.52 230.566325 
C 173.52 230.566325 173.52 230.566325 173.52 230.566325 
C 173.52 230.566325 173.52 230.566325 173.52 230.566325 
C 173.52 230.566325 173.52 230.566325 173.52 230.566325 
C 173.52 230.566325 173.52 230.566325 173.52 230.566325 
C 173.52 230.566325 173.52 230.566325 173.52 230.566325 
C 173.52 230.566325 173.52 230.566325 173.52 230.566325 
C 173.52 230.566325 173.52 230.566325 173.52 230.566325 
C 173.52 230.566325 173.52 230.566325 173.52 230.566325 
C 173.52 230.566325 173.52 230.566325 173.52 230.566325 
C 173.52 230.566325 173.52 230.566325 173.52 230.566325 
C 173.52 230.566325 173.52 230.566325 173.52 230.566325 
C 173.52 230.566325 173.52 230.566325 173.52 230.566325 
z
"/>
  </clipPath>
 </defs>
</svg>
