<?xml version="1.0" encoding="utf-8" standalone="no"?>
<!DOCTYPE svg PUBLIC "-//W3C//DTD SVG 1.1//EN"
  "http://www.w3.org/Graphics/SVG/1.1/DTD/svg11.dtd">
<svg xmlns:xlink="http://www.w3.org/1999/xlink" width="458.464pt" height="402.291106pt" viewBox="0 0 458.464 402.291106" xmlns="http://www.w3.org/2000/svg" version="1.1">
 <metadata>
  <rdf:RDF xmlns:dc="http://purl.org/dc/elements/1.1/" xmlns:cc="http://creativecommons.org/ns#" xmlns:rdf="http://www.w3.org/1999/02/22-rdf-syntax-ns#">
   <cc:Work>
    <dc:type rdf:resource="http://purl.org/dc/dcmitype/StillImage"/>
    <dc:date>2026-03-03T10:51:38.209406</dc:date>
    <dc:format>image/svg+xml</dc:format>
    <dc:creator>
     <cc:Agent>
      <dc:title>Matplotlib v3.10.8, https://matplotlib.org/</dc:title>
     </cc:Agent>
    </dc:creator>
   </cc:Work>
  </rdf:RDF>
 </metadata>
 <defs>
  <style type="text/css">*{stroke-linejoin: round; stroke-linecap: butt}</style>
 </defs>
 <g id="figure_1">
  <g id="patch_1">
   <path d="M 0 402.291106 
L 458.464 402.291106 
L 458.464 0 
L 0 0 
z
" style="fill: #ffffff"/>
  </g>
  <g id="axes_1">
   <g id="patch_2">
    <path d="M 339.84 228.771106 
C 339.84 206.930164 335.537811 185.301597 327.179644 165.123198 
C 318.821477 144.944798 306.569878 126.608985 291.126 111.165106 
C 275.682121 95.721228 257.346308 83.469629 237.167908 75.111462 
C 216.989509 66.753296 195.360942 62.451106 173.52 62.451106 
C 151.679058 62.451106 130.050491 66.753296 109.872092 75.111462 
C 89.693692 83.469629 71.357879 95.721228 55.914 111.165106 
C 40.470122 126.608985 28.218523 144.944798 19.860356 165.123198 
C 11.502189 185.301597 7.2 206.930164 7.2 228.771106 
C 7.2 250.612049 11.502189 272.240615 19.860356 292.419015 
C 28.218523 312.597414 40.470122 330.933228 55.914 346.377106 
C 71.357879 361.820984 89.693692 374.072583 109.872092 382.43075 
C 130.050491 390.788917 151.679058 395.091106 173.52 395.091106 
C 195.360942 395.091106 216.989509 390.788917 237.167908 382.43075 
C 257.346308 374.072583 275.682121 361.820984 291.126 346.377106 
C 306.569878 330.933228 318.821477 312.597414 327.179644 292.419015 
C 335.537811 272.240615 339.84 250.612049 339.84 228.771106 
M 173.52 228.771106 
C 173.52 228.771106 173.52 228.771106 173.52 228.771106 
C 173.52 228.771106 173.52 228.771106 173.52 228.771106 
C 173.52 228.771106 173.52 228.771106 173.52 228.771106 
C 173.52 228.771106 173.52 228.771106 173.52 228.771106 
C 173.52 228.771106 173.52 228.771106 173.52 228.771106 
C 173.52 228.771106 173.52 228.771106 173.52 228.771106 
C 173.52 228.771106 173.52 228.771106 173.52 228.771106 
C 173.52 228.771106 173.52 228.771106 173.52 228.771106 
C 173.52 228.771106 173.52 228.771106 173.52 228.771106 
C 173.52 228.771106 173.52 228.771106 173.52 228.771106 
C 173.52 228.771106 173.52 228.771106 173.52 228.771106 
C 173.52 228.771106 173.52 228.771106 173.52 228.771106 
C 173.52 228.771106 173.52 228.771106 173.52 228.771106 
C 173.52 228.771106 173.52 228.771106 173.52 228.771106 
C 173.52 228.771106 173.52 228.771106 173.52 228.771106 
C 173.52 228.771106 173.52 228.771106 173.52 228.771106 
z
" style="fill: #fafafa"/>
   </g>
   <g id="matplotlib.axis_1">
    <g id="xtick_1">
     <g id="line2d_1">
      <path d="M 173.52 228.771106 
L 339.84 228.771106 
" clip-path="url(#p46d0353405)" style="fill: none; stroke: #e0e0e0; stroke-opacity: 0.7; stroke-width: 0.6; stroke-linecap: square"/>
     </g>
     <g id="text_1">
      <!-- Pong -->
      <g transform="translate(342.531484 231.393059) scale(0.11 -0.11)">
       <defs>
        <path id="TimesNewRomanPSMT-50" d="M 1313 1984 
L 1313 750 
Q 1313 350 1400 253 
Q 1519 116 1759 116 
L 1922 116 
L 1922 0 
L 106 0 
L 106 116 
L 266 116 
Q 534 116 650 291 
Q 713 388 713 750 
L 713 3488 
Q 713 3888 628 3984 
Q 506 4122 266 4122 
L 106 4122 
L 106 4238 
L 1659 4238 
Q 2228 4238 2556 4120 
Q 2884 4003 3109 3725 
Q 3334 3447 3334 3066 
Q 3334 2547 2992 2222 
Q 2650 1897 2025 1897 
Q 1872 1897 1694 1919 
Q 1516 1941 1313 1984 
z
M 1313 2163 
Q 1478 2131 1606 2115 
Q 1734 2100 1825 2100 
Q 2150 2100 2386 2351 
Q 2622 2603 2622 3003 
Q 2622 3278 2509 3514 
Q 2397 3750 2190 3867 
Q 1984 3984 1722 3984 
Q 1563 3984 1313 3925 
L 1313 2163 
z
" transform="scale(0.015625)"/>
        <path id="TimesNewRomanPSMT-6f" d="M 1600 2947 
Q 2250 2947 2644 2453 
Q 2978 2031 2978 1484 
Q 2978 1100 2793 706 
Q 2609 313 2286 112 
Q 1963 -88 1566 -88 
Q 919 -88 538 428 
Q 216 863 216 1403 
Q 216 1797 411 2186 
Q 606 2575 925 2761 
Q 1244 2947 1600 2947 
z
M 1503 2744 
Q 1338 2744 1170 2645 
Q 1003 2547 900 2300 
Q 797 2053 797 1666 
Q 797 1041 1045 587 
Q 1294 134 1700 134 
Q 2003 134 2200 384 
Q 2397 634 2397 1244 
Q 2397 2006 2069 2444 
Q 1847 2744 1503 2744 
z
" transform="scale(0.015625)"/>
        <path id="TimesNewRomanPSMT-6e" d="M 1034 2341 
Q 1538 2947 1994 2947 
Q 2228 2947 2397 2830 
Q 2566 2713 2666 2444 
Q 2734 2256 2734 1869 
L 2734 647 
Q 2734 375 2778 278 
Q 2813 200 2889 156 
Q 2966 113 3172 113 
L 3172 0 
L 1756 0 
L 1756 113 
L 1816 113 
Q 2016 113 2095 173 
Q 2175 234 2206 353 
Q 2219 400 2219 647 
L 2219 1819 
Q 2219 2209 2117 2386 
Q 2016 2563 1775 2563 
Q 1403 2563 1034 2156 
L 1034 647 
Q 1034 356 1069 288 
Q 1113 197 1189 155 
Q 1266 113 1500 113 
L 1500 0 
L 84 0 
L 84 113 
L 147 113 
Q 366 113 442 223 
Q 519 334 519 647 
L 519 1709 
Q 519 2225 495 2337 
Q 472 2450 423 2490 
Q 375 2531 294 2531 
Q 206 2531 84 2484 
L 38 2597 
L 900 2947 
L 1034 2947 
L 1034 2341 
z
" transform="scale(0.015625)"/>
        <path id="TimesNewRomanPSMT-67" d="M 966 1044 
Q 703 1172 562 1401 
Q 422 1631 422 1909 
Q 422 2334 742 2640 
Q 1063 2947 1563 2947 
Q 1972 2947 2272 2747 
L 2878 2747 
Q 3013 2747 3034 2739 
Q 3056 2731 3066 2713 
Q 3084 2684 3084 2613 
Q 3084 2531 3069 2500 
Q 3059 2484 3036 2475 
Q 3013 2466 2878 2466 
L 2506 2466 
Q 2681 2241 2681 1891 
Q 2681 1491 2375 1206 
Q 2069 922 1553 922 
Q 1341 922 1119 984 
Q 981 866 932 777 
Q 884 688 884 625 
Q 884 572 936 522 
Q 988 472 1138 450 
Q 1225 438 1575 428 
Q 2219 413 2409 384 
Q 2700 344 2873 169 
Q 3047 -6 3047 -263 
Q 3047 -616 2716 -925 
Q 2228 -1381 1444 -1381 
Q 841 -1381 425 -1109 
Q 191 -953 191 -784 
Q 191 -709 225 -634 
Q 278 -519 444 -313 
Q 466 -284 763 25 
Q 600 122 533 198 
Q 466 275 466 372 
Q 466 481 555 628 
Q 644 775 966 1044 
z
M 1509 2797 
Q 1278 2797 1122 2612 
Q 966 2428 966 2047 
Q 966 1553 1178 1281 
Q 1341 1075 1591 1075 
Q 1828 1075 1981 1253 
Q 2134 1431 2134 1813 
Q 2134 2309 1919 2591 
Q 1759 2797 1509 2797 
z
M 934 0 
Q 788 -159 713 -296 
Q 638 -434 638 -550 
Q 638 -700 819 -813 
Q 1131 -1006 1722 -1006 
Q 2284 -1006 2551 -807 
Q 2819 -609 2819 -384 
Q 2819 -222 2659 -153 
Q 2497 -84 2016 -72 
Q 1313 -53 934 0 
z
" transform="scale(0.015625)"/>
       </defs>
       <use xlink:href="#TimesNewRomanPSMT-50"/>
       <use xlink:href="#TimesNewRomanPSMT-6f" transform="translate(55.615234 0)"/>
       <use xlink:href="#TimesNewRomanPSMT-6e" transform="translate(105.615234 0)"/>
       <use xlink:href="#TimesNewRomanPSMT-67" transform="translate(155.615234 0)"/>
      </g>
     </g>
    </g>
    <g id="xtick_2">
     <g id="line2d_2">
      <path d="M 173.52 228.771106 
L 90.36 84.733761 
" clip-path="url(#p46d0353405)" style="fill: none; stroke: #e0e0e0; stroke-opacity: 0.7; stroke-width: 0.6; stroke-linecap: square"/>
     </g>
     <g id="text_2">
      <!-- Breakout -->
      <g transform="translate(63.199063 75.251984) scale(0.11 -0.11)">
       <defs>
        <path id="TimesNewRomanPSMT-42" d="M 2956 2163 
Q 3397 2069 3616 1863 
Q 3919 1575 3919 1159 
Q 3919 844 3719 555 
Q 3519 266 3170 133 
Q 2822 0 2106 0 
L 106 0 
L 106 116 
L 266 116 
Q 531 116 647 284 
Q 719 394 719 750 
L 719 3488 
Q 719 3881 628 3984 
Q 506 4122 266 4122 
L 106 4122 
L 106 4238 
L 1938 4238 
Q 2450 4238 2759 4163 
Q 3228 4050 3475 3764 
Q 3722 3478 3722 3106 
Q 3722 2788 3528 2536 
Q 3334 2284 2956 2163 
z
M 1319 2331 
Q 1434 2309 1582 2298 
Q 1731 2288 1909 2288 
Q 2366 2288 2595 2386 
Q 2825 2484 2947 2687 
Q 3069 2891 3069 3131 
Q 3069 3503 2766 3765 
Q 2463 4028 1881 4028 
Q 1569 4028 1319 3959 
L 1319 2331 
z
M 1319 306 
Q 1681 222 2034 222 
Q 2600 222 2897 476 
Q 3194 731 3194 1106 
Q 3194 1353 3059 1581 
Q 2925 1809 2622 1940 
Q 2319 2072 1872 2072 
Q 1678 2072 1540 2065 
Q 1403 2059 1319 2044 
L 1319 306 
z
" transform="scale(0.015625)"/>
        <path id="TimesNewRomanPSMT-72" d="M 1038 2947 
L 1038 2303 
Q 1397 2947 1775 2947 
Q 1947 2947 2059 2842 
Q 2172 2738 2172 2600 
Q 2172 2478 2090 2393 
Q 2009 2309 1897 2309 
Q 1788 2309 1652 2417 
Q 1516 2525 1450 2525 
Q 1394 2525 1328 2463 
Q 1188 2334 1038 2041 
L 1038 669 
Q 1038 431 1097 309 
Q 1138 225 1241 169 
Q 1344 113 1538 113 
L 1538 0 
L 72 0 
L 72 113 
Q 291 113 397 181 
Q 475 231 506 341 
Q 522 394 522 644 
L 522 1753 
Q 522 2253 501 2348 
Q 481 2444 426 2487 
Q 372 2531 291 2531 
Q 194 2531 72 2484 
L 41 2597 
L 906 2947 
L 1038 2947 
z
" transform="scale(0.015625)"/>
        <path id="TimesNewRomanPSMT-65" d="M 681 1784 
Q 678 1147 991 784 
Q 1303 422 1725 422 
Q 2006 422 2214 576 
Q 2422 731 2563 1106 
L 2659 1044 
Q 2594 616 2278 264 
Q 1963 -88 1488 -88 
Q 972 -88 605 314 
Q 238 716 238 1394 
Q 238 2128 614 2539 
Q 991 2950 1559 2950 
Q 2041 2950 2350 2633 
Q 2659 2316 2659 1784 
L 681 1784 
z
M 681 1966 
L 2006 1966 
Q 1991 2241 1941 2353 
Q 1863 2528 1708 2628 
Q 1553 2728 1384 2728 
Q 1125 2728 920 2526 
Q 716 2325 681 1966 
z
" transform="scale(0.015625)"/>
        <path id="TimesNewRomanPSMT-61" d="M 1822 413 
Q 1381 72 1269 19 
Q 1100 -59 909 -59 
Q 613 -59 420 144 
Q 228 347 228 678 
Q 228 888 322 1041 
Q 450 1253 767 1440 
Q 1084 1628 1822 1897 
L 1822 2009 
Q 1822 2438 1686 2597 
Q 1550 2756 1291 2756 
Q 1094 2756 978 2650 
Q 859 2544 859 2406 
L 866 2225 
Q 866 2081 792 2003 
Q 719 1925 600 1925 
Q 484 1925 411 2006 
Q 338 2088 338 2228 
Q 338 2497 613 2722 
Q 888 2947 1384 2947 
Q 1766 2947 2009 2819 
Q 2194 2722 2281 2516 
Q 2338 2381 2338 1966 
L 2338 994 
Q 2338 584 2353 492 
Q 2369 400 2405 369 
Q 2441 338 2488 338 
Q 2538 338 2575 359 
Q 2641 400 2828 588 
L 2828 413 
Q 2478 -56 2159 -56 
Q 2006 -56 1915 50 
Q 1825 156 1822 413 
z
M 1822 616 
L 1822 1706 
Q 1350 1519 1213 1441 
Q 966 1303 859 1153 
Q 753 1003 753 825 
Q 753 600 887 451 
Q 1022 303 1197 303 
Q 1434 303 1822 616 
z
" transform="scale(0.015625)"/>
        <path id="TimesNewRomanPSMT-6b" d="M 1047 4444 
L 1047 1594 
L 1775 2259 
Q 2006 2472 2044 2528 
Q 2069 2566 2069 2603 
Q 2069 2666 2017 2711 
Q 1966 2756 1847 2763 
L 1847 2863 
L 3091 2863 
L 3091 2763 
Q 2834 2756 2664 2684 
Q 2494 2613 2291 2428 
L 1556 1750 
L 2291 822 
Q 2597 438 2703 334 
Q 2853 188 2966 144 
Q 3044 113 3238 113 
L 3238 0 
L 1847 0 
L 1847 113 
Q 1966 116 2008 148 
Q 2050 181 2050 241 
Q 2050 313 1925 472 
L 1047 1594 
L 1047 644 
Q 1047 366 1086 278 
Q 1125 191 1197 153 
Q 1269 116 1509 113 
L 1509 0 
L 53 0 
L 53 113 
Q 272 113 381 166 
Q 447 200 481 272 
Q 528 375 528 628 
L 528 3234 
Q 528 3731 506 3842 
Q 484 3953 434 3995 
Q 384 4038 303 4038 
Q 238 4038 106 3984 
L 53 4094 
L 903 4444 
L 1047 4444 
z
" transform="scale(0.015625)"/>
        <path id="TimesNewRomanPSMT-75" d="M 2709 2863 
L 2709 1128 
Q 2709 631 2732 520 
Q 2756 409 2807 365 
Q 2859 322 2928 322 
Q 3025 322 3147 375 
L 3191 266 
L 2334 -88 
L 2194 -88 
L 2194 519 
Q 1825 119 1631 15 
Q 1438 -88 1222 -88 
Q 981 -88 804 51 
Q 628 191 559 409 
Q 491 628 491 1028 
L 491 2306 
Q 491 2509 447 2587 
Q 403 2666 317 2708 
Q 231 2750 6 2747 
L 6 2863 
L 1009 2863 
L 1009 947 
Q 1009 547 1148 422 
Q 1288 297 1484 297 
Q 1619 297 1789 381 
Q 1959 466 2194 703 
L 2194 2325 
Q 2194 2569 2105 2655 
Q 2016 2741 1734 2747 
L 1734 2863 
L 2709 2863 
z
" transform="scale(0.015625)"/>
        <path id="TimesNewRomanPSMT-74" d="M 1031 3803 
L 1031 2863 
L 1700 2863 
L 1700 2644 
L 1031 2644 
L 1031 788 
Q 1031 509 1111 412 
Q 1191 316 1316 316 
Q 1419 316 1516 380 
Q 1613 444 1666 569 
L 1788 569 
Q 1678 263 1478 108 
Q 1278 -47 1066 -47 
Q 922 -47 784 33 
Q 647 113 581 261 
Q 516 409 516 719 
L 516 2644 
L 63 2644 
L 63 2747 
Q 234 2816 414 2980 
Q 594 3144 734 3369 
Q 806 3488 934 3803 
L 1031 3803 
z
" transform="scale(0.015625)"/>
       </defs>
       <use xlink:href="#TimesNewRomanPSMT-42"/>
       <use xlink:href="#TimesNewRomanPSMT-72" transform="translate(66.699219 0)"/>
       <use xlink:href="#TimesNewRomanPSMT-65" transform="translate(100 0)"/>
       <use xlink:href="#TimesNewRomanPSMT-61" transform="translate(144.384766 0)"/>
       <use xlink:href="#TimesNewRomanPSMT-6b" transform="translate(188.769531 0)"/>
       <use xlink:href="#TimesNewRomanPSMT-6f" transform="translate(238.769531 0)"/>
       <use xlink:href="#TimesNewRomanPSMT-75" transform="translate(288.769531 0)"/>
       <use xlink:href="#TimesNewRomanPSMT-74" transform="translate(338.769531 0)"/>
      </g>
     </g>
    </g>
    <g id="xtick_3">
     <g id="line2d_3">
      <path d="M 173.52 228.771106 
L 90.36 372.808451 
" clip-path="url(#p46d0353405)" style="fill: none; stroke: #e0e0e0; stroke-opacity: 0.7; stroke-width: 0.6; stroke-linecap: square"/>
     </g>
     <g id="text_3">
      <!-- SpaceInvaders -->
      <g transform="translate(51.290703 387.575385) scale(0.11 -0.11)">
       <defs>
        <path id="TimesNewRomanPSMT-53" d="M 2934 4334 
L 2934 2869 
L 2819 2869 
Q 2763 3291 2617 3541 
Q 2472 3791 2203 3937 
Q 1934 4084 1647 4084 
Q 1322 4084 1109 3886 
Q 897 3688 897 3434 
Q 897 3241 1031 3081 
Q 1225 2847 1953 2456 
Q 2547 2138 2764 1967 
Q 2981 1797 3098 1565 
Q 3216 1334 3216 1081 
Q 3216 600 2842 251 
Q 2469 -97 1881 -97 
Q 1697 -97 1534 -69 
Q 1438 -53 1133 45 
Q 828 144 747 144 
Q 669 144 623 97 
Q 578 50 556 -97 
L 441 -97 
L 441 1356 
L 556 1356 
Q 638 900 775 673 
Q 913 447 1195 297 
Q 1478 147 1816 147 
Q 2206 147 2432 353 
Q 2659 559 2659 841 
Q 2659 997 2573 1156 
Q 2488 1316 2306 1453 
Q 2184 1547 1640 1851 
Q 1097 2156 867 2337 
Q 638 2519 519 2737 
Q 400 2956 400 3219 
Q 400 3675 750 4004 
Q 1100 4334 1641 4334 
Q 1978 4334 2356 4169 
Q 2531 4091 2603 4091 
Q 2684 4091 2736 4139 
Q 2788 4188 2819 4334 
L 2934 4334 
z
" transform="scale(0.015625)"/>
        <path id="TimesNewRomanPSMT-70" d="M -6 2578 
L 875 2934 
L 994 2934 
L 994 2266 
Q 1216 2644 1439 2795 
Q 1663 2947 1909 2947 
Q 2341 2947 2628 2609 
Q 2981 2197 2981 1534 
Q 2981 794 2556 309 
Q 2206 -88 1675 -88 
Q 1444 -88 1275 -22 
Q 1150 25 994 166 
L 994 -706 
Q 994 -1000 1030 -1079 
Q 1066 -1159 1155 -1206 
Q 1244 -1253 1478 -1253 
L 1478 -1369 
L -22 -1369 
L -22 -1253 
L 56 -1253 
Q 228 -1256 350 -1188 
Q 409 -1153 442 -1076 
Q 475 -1000 475 -688 
L 475 2019 
Q 475 2297 450 2372 
Q 425 2447 370 2484 
Q 316 2522 222 2522 
Q 147 2522 31 2478 
L -6 2578 
z
M 994 2081 
L 994 1013 
Q 994 666 1022 556 
Q 1066 375 1236 237 
Q 1406 100 1666 100 
Q 1978 100 2172 344 
Q 2425 663 2425 1241 
Q 2425 1897 2138 2250 
Q 1938 2494 1663 2494 
Q 1513 2494 1366 2419 
Q 1253 2363 994 2081 
z
" transform="scale(0.015625)"/>
        <path id="TimesNewRomanPSMT-63" d="M 2631 1088 
Q 2516 522 2178 217 
Q 1841 -88 1431 -88 
Q 944 -88 581 321 
Q 219 731 219 1428 
Q 219 2103 620 2525 
Q 1022 2947 1584 2947 
Q 2006 2947 2278 2723 
Q 2550 2500 2550 2259 
Q 2550 2141 2473 2067 
Q 2397 1994 2259 1994 
Q 2075 1994 1981 2113 
Q 1928 2178 1911 2362 
Q 1894 2547 1784 2644 
Q 1675 2738 1481 2738 
Q 1169 2738 978 2506 
Q 725 2200 725 1697 
Q 725 1184 976 792 
Q 1228 400 1656 400 
Q 1963 400 2206 609 
Q 2378 753 2541 1131 
L 2631 1088 
z
" transform="scale(0.015625)"/>
        <path id="TimesNewRomanPSMT-49" d="M 1975 116 
L 1975 0 
L 159 0 
L 159 116 
L 309 116 
Q 572 116 691 269 
Q 766 369 766 750 
L 766 3488 
Q 766 3809 725 3913 
Q 694 3991 597 4047 
Q 459 4122 309 4122 
L 159 4122 
L 159 4238 
L 1975 4238 
L 1975 4122 
L 1822 4122 
Q 1563 4122 1444 3969 
Q 1366 3869 1366 3488 
L 1366 750 
Q 1366 428 1406 325 
Q 1438 247 1538 191 
Q 1672 116 1822 116 
L 1975 116 
z
" transform="scale(0.015625)"/>
        <path id="TimesNewRomanPSMT-76" d="M 53 2863 
L 1400 2863 
L 1400 2747 
L 1313 2747 
Q 1191 2747 1127 2687 
Q 1063 2628 1063 2528 
Q 1063 2419 1128 2269 
L 1794 688 
L 2463 2328 
Q 2534 2503 2534 2594 
Q 2534 2638 2509 2666 
Q 2475 2713 2422 2730 
Q 2369 2747 2206 2747 
L 2206 2863 
L 3141 2863 
L 3141 2747 
Q 2978 2734 2916 2681 
Q 2806 2588 2719 2369 
L 1703 -88 
L 1575 -88 
L 553 2328 
Q 484 2497 421 2570 
Q 359 2644 263 2694 
Q 209 2722 53 2747 
L 53 2863 
z
" transform="scale(0.015625)"/>
        <path id="TimesNewRomanPSMT-64" d="M 2222 322 
Q 2013 103 1813 7 
Q 1613 -88 1381 -88 
Q 913 -88 563 304 
Q 213 697 213 1313 
Q 213 1928 600 2439 
Q 988 2950 1597 2950 
Q 1975 2950 2222 2709 
L 2222 3238 
Q 2222 3728 2198 3840 
Q 2175 3953 2125 3993 
Q 2075 4034 2000 4034 
Q 1919 4034 1784 3984 
L 1744 4094 
L 2597 4444 
L 2738 4444 
L 2738 1134 
Q 2738 631 2761 520 
Q 2784 409 2836 365 
Q 2888 322 2956 322 
Q 3041 322 3181 375 
L 3216 266 
L 2366 -88 
L 2222 -88 
L 2222 322 
z
M 2222 541 
L 2222 2016 
Q 2203 2228 2109 2403 
Q 2016 2578 1861 2667 
Q 1706 2756 1559 2756 
Q 1284 2756 1069 2509 
Q 784 2184 784 1559 
Q 784 928 1059 592 
Q 1334 256 1672 256 
Q 1956 256 2222 541 
z
" transform="scale(0.015625)"/>
        <path id="TimesNewRomanPSMT-73" d="M 2050 2947 
L 2050 1972 
L 1947 1972 
Q 1828 2431 1642 2597 
Q 1456 2763 1169 2763 
Q 950 2763 815 2647 
Q 681 2531 681 2391 
Q 681 2216 781 2091 
Q 878 1963 1175 1819 
L 1631 1597 
Q 2266 1288 2266 781 
Q 2266 391 1970 151 
Q 1675 -88 1309 -88 
Q 1047 -88 709 6 
Q 606 38 541 38 
Q 469 38 428 -44 
L 325 -44 
L 325 978 
L 428 978 
Q 516 541 762 319 
Q 1009 97 1316 97 
Q 1531 97 1667 223 
Q 1803 350 1803 528 
Q 1803 744 1651 891 
Q 1500 1038 1047 1263 
Q 594 1488 453 1669 
Q 313 1847 313 2119 
Q 313 2472 555 2709 
Q 797 2947 1181 2947 
Q 1350 2947 1591 2875 
Q 1750 2828 1803 2828 
Q 1853 2828 1881 2850 
Q 1909 2872 1947 2947 
L 2050 2947 
z
" transform="scale(0.015625)"/>
       </defs>
       <use xlink:href="#TimesNewRomanPSMT-53"/>
       <use xlink:href="#TimesNewRomanPSMT-70" transform="translate(55.615234 0)"/>
       <use xlink:href="#TimesNewRomanPSMT-61" transform="translate(105.615234 0)"/>
       <use xlink:href="#TimesNewRomanPSMT-63" transform="translate(150 0)"/>
       <use xlink:href="#TimesNewRomanPSMT-65" transform="translate(194.384766 0)"/>
       <use xlink:href="#TimesNewRomanPSMT-49" transform="translate(238.769531 0)"/>
       <use xlink:href="#TimesNewRomanPSMT-6e" transform="translate(272.070312 0)"/>
       <use xlink:href="#TimesNewRomanPSMT-76" transform="translate(322.070312 0)"/>
       <use xlink:href="#TimesNewRomanPSMT-61" transform="translate(372.070312 0)"/>
       <use xlink:href="#TimesNewRomanPSMT-64" transform="translate(416.455078 0)"/>
       <use xlink:href="#TimesNewRomanPSMT-65" transform="translate(466.455078 0)"/>
       <use xlink:href="#TimesNewRomanPSMT-72" transform="translate(510.839844 0)"/>
       <use xlink:href="#TimesNewRomanPSMT-73" transform="translate(544.140625 0)"/>
      </g>
     </g>
    </g>
   </g>
   <g id="matplotlib.axis_2">
    <g id="ytick_1">
     <g id="line2d_4">
      <path d="M 188.15134 228.771106 
C 188.15134 226.849736 187.772872 224.947049 187.037595 223.171935 
C 186.302319 221.396821 185.224533 219.7838 183.86592 218.425187 
C 182.507306 217.066573 180.894286 215.988787 179.119171 215.253511 
C 177.344057 214.518234 175.44137 214.139766 173.52 214.139766 
C 171.59863 214.139766 169.695943 214.518234 167.920829 215.253511 
C 166.145714 215.988787 164.532694 217.066573 163.17408 218.425187 
C 161.815467 219.7838 160.737681 221.396821 160.002405 223.171935 
C 159.267128 224.947049 158.88866 226.849736 158.88866 228.771106 
C 158.88866 230.692476 159.267128 232.595163 160.002405 234.370278 
C 160.737681 236.145392 161.815467 237.758412 163.17408 239.117026 
C 164.532694 240.47564 166.145714 241.553425 167.920829 242.288702 
C 169.695943 243.023978 171.59863 243.402446 173.52 243.402446 
C 175.44137 243.402446 177.344057 243.023978 179.119171 242.288702 
C 180.894286 241.553425 182.507306 240.47564 183.86592 239.117026 
C 185.224533 237.758412 186.302319 236.145392 187.037595 234.370278 
C 187.772872 232.595163 188.15134 230.692476 188.15134 228.771106 
" clip-path="url(#p46d0353405)" style="fill: none; stroke: #e0e0e0; stroke-opacity: 0.7; stroke-width: 0.6; stroke-linecap: square"/>
     </g>
     <g id="text_4">
      <!-- $\mathdefault{10^{-2}}$ -->
      <g style="fill: #808080" transform="translate(187.037595 221.460685) scale(0.08 -0.08)">
       <defs>
        <path id="TimesNewRomanPSMT-31" d="M 750 3822 
L 1781 4325 
L 1884 4325 
L 1884 747 
Q 1884 391 1914 303 
Q 1944 216 2037 169 
Q 2131 122 2419 116 
L 2419 0 
L 825 0 
L 825 116 
Q 1125 122 1212 167 
Q 1300 213 1334 289 
Q 1369 366 1369 747 
L 1369 3034 
Q 1369 3497 1338 3628 
Q 1316 3728 1258 3775 
Q 1200 3822 1119 3822 
Q 1003 3822 797 3725 
L 750 3822 
z
" transform="scale(0.015625)"/>
        <path id="TimesNewRomanPSMT-30" d="M 231 2094 
Q 231 2819 450 3342 
Q 669 3866 1031 4122 
Q 1313 4325 1613 4325 
Q 2100 4325 2488 3828 
Q 2972 3213 2972 2159 
Q 2972 1422 2759 906 
Q 2547 391 2217 158 
Q 1888 -75 1581 -75 
Q 975 -75 572 641 
Q 231 1244 231 2094 
z
M 844 2016 
Q 844 1141 1059 588 
Q 1238 122 1591 122 
Q 1759 122 1940 273 
Q 2122 425 2216 781 
Q 2359 1319 2359 2297 
Q 2359 3022 2209 3506 
Q 2097 3866 1919 4016 
Q 1791 4119 1609 4119 
Q 1397 4119 1231 3928 
Q 1006 3669 925 3112 
Q 844 2556 844 2016 
z
" transform="scale(0.015625)"/>
        <path id="TimesNewRomanPSMT-2212" d="M 3484 2000 
L 116 2000 
L 116 2256 
L 3484 2256 
L 3484 2000 
z
" transform="scale(0.015625)"/>
        <path id="TimesNewRomanPSMT-32" d="M 2934 816 
L 2638 0 
L 138 0 
L 138 116 
Q 1241 1122 1691 1759 
Q 2141 2397 2141 2925 
Q 2141 3328 1894 3587 
Q 1647 3847 1303 3847 
Q 991 3847 742 3664 
Q 494 3481 375 3128 
L 259 3128 
Q 338 3706 661 4015 
Q 984 4325 1469 4325 
Q 1984 4325 2329 3994 
Q 2675 3663 2675 3213 
Q 2675 2891 2525 2569 
Q 2294 2063 1775 1497 
Q 997 647 803 472 
L 1909 472 
Q 2247 472 2383 497 
Q 2519 522 2628 598 
Q 2738 675 2819 816 
L 2934 816 
z
" transform="scale(0.015625)"/>
       </defs>
       <use xlink:href="#TimesNewRomanPSMT-31" transform="translate(0 0.582813)"/>
       <use xlink:href="#TimesNewRomanPSMT-30" transform="translate(50 0.582813)"/>
       <use xlink:href="#TimesNewRomanPSMT-2212" transform="translate(101.502813 60.695312) scale(0.7)"/>
       <use xlink:href="#TimesNewRomanPSMT-32" transform="translate(140.980352 60.695312) scale(0.7)"/>
      </g>
     </g>
    </g>
    <g id="ytick_2">
     <g id="line2d_5">
      <path d="M 266.496823 228.771106 
C 266.496823 216.561502 264.091798 204.47062 259.419384 193.190416 
C 254.746971 181.910213 247.898037 171.660058 239.264542 163.026564 
C 230.631048 154.39307 220.380894 147.544135 209.10069 142.871722 
C 197.820486 138.199309 185.729605 135.794283 173.52 135.794283 
C 161.310395 135.794283 149.219514 138.199309 137.93931 142.871722 
C 126.659106 147.544135 116.408952 154.39307 107.775458 163.026564 
C 99.141963 171.660058 92.293029 181.910213 87.620616 193.190416 
C 82.948202 204.47062 80.543177 216.561502 80.543177 228.771106 
C 80.543177 240.980711 82.948202 253.071592 87.620616 264.351796 
C 92.293029 275.632 99.141963 285.882154 107.775458 294.515649 
C 116.408952 303.149143 126.659106 309.998077 137.93931 314.67049 
C 149.219514 319.342904 161.310395 321.74793 173.52 321.74793 
C 185.729605 321.74793 197.820486 319.342904 209.10069 314.67049 
C 220.380894 309.998077 230.631048 303.149143 239.264542 294.515649 
C 247.898037 285.882154 254.746971 275.632 259.419384 264.351796 
C 264.091798 253.071592 266.496823 240.980711 266.496823 228.771106 
" clip-path="url(#p46d0353405)" style="fill: none; stroke: #e0e0e0; stroke-opacity: 0.7; stroke-width: 0.6; stroke-linecap: square"/>
     </g>
     <g id="text_5">
      <!-- $\mathdefault{10^{-1}}$ -->
      <g style="fill: #808080" transform="translate(259.419384 191.479166) scale(0.08 -0.08)">
       <use xlink:href="#TimesNewRomanPSMT-31" transform="translate(0 0.582813)"/>
       <use xlink:href="#TimesNewRomanPSMT-30" transform="translate(50 0.582813)"/>
       <use xlink:href="#TimesNewRomanPSMT-2212" transform="translate(101.502813 60.695312) scale(0.7)"/>
       <use xlink:href="#TimesNewRomanPSMT-31" transform="translate(140.980352 60.695312) scale(0.7)"/>
      </g>
     </g>
    </g>
    <g id="ytick_3">
     <g id="line2d_6">
      <path d="M 332.337852 228.771106 
C 332.337852 207.915337 328.229721 187.262364 320.248563 167.994145 
C 312.267406 148.725927 300.568436 131.217182 285.82118 116.469926 
C 271.073925 101.72267 253.565179 90.0237 234.296961 82.042543 
C 215.028743 74.061386 194.375769 69.953254 173.52 69.953254 
C 152.664231 69.953254 132.011257 74.061386 112.743039 82.042543 
C 93.474821 90.0237 75.966075 101.72267 61.21882 116.469926 
C 46.471564 131.217182 34.772594 148.725927 26.791437 167.994145 
C 18.810279 187.262364 14.702148 207.915337 14.702148 228.771106 
C 14.702148 249.626876 18.810279 270.279849 26.791437 289.548067 
C 34.772594 308.816286 46.471564 326.325031 61.21882 341.072287 
C 75.966075 355.819543 93.474821 367.518512 112.743039 375.49967 
C 132.011257 383.480827 152.664231 387.588959 173.52 387.588959 
C 194.375769 387.588959 215.028743 383.480827 234.296961 375.49967 
C 253.565179 367.518512 271.073925 355.819543 285.82118 341.072287 
C 300.568436 326.325031 312.267406 308.816286 320.248563 289.548067 
C 328.229721 270.279849 332.337852 249.626876 332.337852 228.771106 
" clip-path="url(#p46d0353405)" style="fill: none; stroke: #e0e0e0; stroke-opacity: 0.7; stroke-width: 0.6; stroke-linecap: square"/>
     </g>
     <g id="text_6">
      <!-- $\mathdefault{10^{0}}$ -->
      <g style="fill: #808080" transform="translate(320.248563 166.282895) scale(0.08 -0.08)">
       <use xlink:href="#TimesNewRomanPSMT-31" transform="translate(0 0.582813)"/>
       <use xlink:href="#TimesNewRomanPSMT-30" transform="translate(50 0.582813)"/>
       <use xlink:href="#TimesNewRomanPSMT-30" transform="translate(101.502813 60.695312) scale(0.7)"/>
      </g>
     </g>
    </g>
    <g id="ytick_4"/>
   </g>
   <g id="patch_3">
    <path d="M 332.337852 228.771106 
L 94.111074 91.230811 
L 94.111074 366.311401 
z
" clip-path="url(#p46d0353405)" style="fill: #a8d8ea; opacity: 0.15; stroke: #a8d8ea; stroke-linejoin: miter"/>
   </g>
   <g id="patch_4">
    <path d="M 173.52 228.771106 
L 172.434287 226.890596 
L 111.470154 336.244591 
z
" clip-path="url(#p46d0353405)" style="fill: #f4b6c2; opacity: 0.15; stroke: #f4b6c2; stroke-linejoin: miter"/>
   </g>
   <g id="patch_5">
    <path d="M 173.52 228.771106 
L 167.548579 218.428301 
L 173.52 228.771106 
z
" clip-path="url(#p46d0353405)" style="fill: #b5ead7; opacity: 0.15; stroke: #b5ead7; stroke-linejoin: miter"/>
   </g>
   <g id="patch_6">
    <path d="M 173.52 228.771106 
L 170.466432 223.482172 
L 173.52 228.771106 
z
" clip-path="url(#p46d0353405)" style="fill: #ffeead; opacity: 0.15; stroke: #ffeead; stroke-linejoin: miter"/>
   </g>
   <g id="patch_7">
    <path d="M 173.52 228.771106 
L 168.023578 219.251024 
L 173.52 228.771106 
z
" clip-path="url(#p46d0353405)" style="fill: #c3b1e1; opacity: 0.15; stroke: #c3b1e1; stroke-linejoin: miter"/>
   </g>
   <g id="patch_8">
    <path d="M 173.52 228.771106 
L 169.855719 222.424385 
L 113.484226 332.756117 
z
" clip-path="url(#p46d0353405)" style="fill: #ffd8b1; opacity: 0.15; stroke: #ffd8b1; stroke-linejoin: miter"/>
   </g>
   <g id="patch_9">
    <path d="M 173.52 228.771106 
L 167.412864 218.193237 
L 173.52 228.771106 
z
" clip-path="url(#p46d0353405)" style="fill: #f5a6a6; opacity: 0.15; stroke: #f5a6a6; stroke-linejoin: miter"/>
   </g>
   <g id="line2d_7">
    <path d="M 332.337852 228.771106 
L 94.111074 91.230811 
L 94.111074 366.311401 
L 332.337852 228.771106 
" clip-path="url(#p46d0353405)" style="fill: none; stroke: #a8d8ea; stroke-width: 2; stroke-linecap: square"/>
    <defs>
     <path id="ma397f63e87" d="M 0 3.5 
C 0.928211 3.5 1.81853 3.131218 2.474874 2.474874 
C 3.131218 1.81853 3.5 0.928211 3.5 0 
C 3.5 -0.928211 3.131218 -1.81853 2.474874 -2.474874 
C 1.81853 -3.131218 0.928211 -3.5 0 -3.5 
C -0.928211 -3.5 -1.81853 -3.131218 -2.474874 -2.474874 
C -3.131218 -1.81853 -3.5 -0.928211 -3.5 0 
C -3.5 0.928211 -3.131218 1.81853 -2.474874 2.474874 
C -1.81853 3.131218 -0.928211 3.5 0 3.5 
z
" style="stroke: #1a1a1a; stroke-width: 0.8"/>
    </defs>
    <g clip-path="url(#p46d0353405)">
     <use xlink:href="#ma397f63e87" x="332.337852" y="228.771106" style="fill: #a8d8ea; stroke: #1a1a1a; stroke-width: 0.8"/>
     <use xlink:href="#ma397f63e87" x="94.111074" y="91.230811" style="fill: #a8d8ea; stroke: #1a1a1a; stroke-width: 0.8"/>
     <use xlink:href="#ma397f63e87" x="94.111074" y="366.311401" style="fill: #a8d8ea; stroke: #1a1a1a; stroke-width: 0.8"/>
     <use xlink:href="#ma397f63e87" x="332.337852" y="228.771106" style="fill: #a8d8ea; stroke: #1a1a1a; stroke-width: 0.8"/>
    </g>
   </g>
   <g id="line2d_8">
    <path d="M 173.52 228.771106 
L 172.434287 226.890596 
L 111.470154 336.244591 
L 173.52 228.771106 
" clip-path="url(#p46d0353405)" style="fill: none; stroke: #f4b6c2; stroke-width: 2; stroke-linecap: square"/>
    <defs>
     <path id="mda6ff0211c" d="M -3.5 3.5 
L 3.5 3.5 
L 3.5 -3.5 
L -3.5 -3.5 
z
" style="stroke: #1a1a1a; stroke-width: 0.8; stroke-linejoin: miter"/>
    </defs>
    <g clip-path="url(#p46d0353405)">
     <use xlink:href="#mda6ff0211c" x="173.52" y="228.771106" style="fill: #f4b6c2; stroke: #1a1a1a; stroke-width: 0.8; stroke-linejoin: miter"/>
     <use xlink:href="#mda6ff0211c" x="172.434287" y="226.890596" style="fill: #f4b6c2; stroke: #1a1a1a; stroke-width: 0.8; stroke-linejoin: miter"/>
     <use xlink:href="#mda6ff0211c" x="111.470154" y="336.244591" style="fill: #f4b6c2; stroke: #1a1a1a; stroke-width: 0.8; stroke-linejoin: miter"/>
     <use xlink:href="#mda6ff0211c" x="173.52" y="228.771106" style="fill: #f4b6c2; stroke: #1a1a1a; stroke-width: 0.8; stroke-linejoin: miter"/>
    </g>
   </g>
   <g id="line2d_9">
    <path d="M 173.52 228.771106 
L 167.548579 218.428301 
L 173.52 228.771106 
L 173.52 228.771106 
" clip-path="url(#p46d0353405)" style="fill: none; stroke: #b5ead7; stroke-width: 2; stroke-linecap: square"/>
    <defs>
     <path id="m3ec59c3faf" d="M 0 -3.5 
L -3.5 3.5 
L 3.5 3.5 
z
" style="stroke: #1a1a1a; stroke-width: 0.8; stroke-linejoin: miter"/>
    </defs>
    <g clip-path="url(#p46d0353405)">
     <use xlink:href="#m3ec59c3faf" x="173.52" y="228.771106" style="fill: #b5ead7; stroke: #1a1a1a; stroke-width: 0.8; stroke-linejoin: miter"/>
     <use xlink:href="#m3ec59c3faf" x="167.548579" y="218.428301" style="fill: #b5ead7; stroke: #1a1a1a; stroke-width: 0.8; stroke-linejoin: miter"/>
     <use xlink:href="#m3ec59c3faf" x="173.52" y="228.771106" style="fill: #b5ead7; stroke: #1a1a1a; stroke-width: 0.8; stroke-linejoin: miter"/>
     <use xlink:href="#m3ec59c3faf" x="173.52" y="228.771106" style="fill: #b5ead7; stroke: #1a1a1a; stroke-width: 0.8; stroke-linejoin: miter"/>
    </g>
   </g>
   <g id="line2d_10">
    <path d="M 173.52 228.771106 
L 170.466432 223.482172 
L 173.52 228.771106 
L 173.52 228.771106 
" clip-path="url(#p46d0353405)" style="fill: none; stroke: #ffeead; stroke-width: 2; stroke-linecap: square"/>
    <defs>
     <path id="mf3895bcd91" d="M -0 4.949747 
L 4.949747 0 
L 0 -4.949747 
L -4.949747 -0 
z
" style="stroke: #1a1a1a; stroke-width: 0.8; stroke-linejoin: miter"/>
    </defs>
    <g clip-path="url(#p46d0353405)">
     <use xlink:href="#mf3895bcd91" x="173.52" y="228.771106" style="fill: #ffeead; stroke: #1a1a1a; stroke-width: 0.8; stroke-linejoin: miter"/>
     <use xlink:href="#mf3895bcd91" x="170.466432" y="223.482172" style="fill: #ffeead; stroke: #1a1a1a; stroke-width: 0.8; stroke-linejoin: miter"/>
     <use xlink:href="#mf3895bcd91" x="173.52" y="228.771106" style="fill: #ffeead; stroke: #1a1a1a; stroke-width: 0.8; stroke-linejoin: miter"/>
     <use xlink:href="#mf3895bcd91" x="173.52" y="228.771106" style="fill: #ffeead; stroke: #1a1a1a; stroke-width: 0.8; stroke-linejoin: miter"/>
    </g>
   </g>
   <g id="line2d_11">
    <path d="M 173.52 228.771106 
L 168.023578 219.251024 
L 173.52 228.771106 
L 173.52 228.771106 
" clip-path="url(#p46d0353405)" style="fill: none; stroke: #c3b1e1; stroke-width: 2; stroke-linecap: square"/>
    <defs>
     <path id="maaa1574220" d="M -0 3.5 
L 3.5 -3.5 
L -3.5 -3.5 
z
" style="stroke: #1a1a1a; stroke-width: 0.8; stroke-linejoin: miter"/>
    </defs>
    <g clip-path="url(#p46d0353405)">
     <use xlink:href="#maaa1574220" x="173.52" y="228.771106" style="fill: #c3b1e1; stroke: #1a1a1a; stroke-width: 0.8; stroke-linejoin: miter"/>
     <use xlink:href="#maaa1574220" x="168.023578" y="219.251024" style="fill: #c3b1e1; stroke: #1a1a1a; stroke-width: 0.8; stroke-linejoin: miter"/>
     <use xlink:href="#maaa1574220" x="173.52" y="228.771106" style="fill: #c3b1e1; stroke: #1a1a1a; stroke-width: 0.8; stroke-linejoin: miter"/>
     <use xlink:href="#maaa1574220" x="173.52" y="228.771106" style="fill: #c3b1e1; stroke: #1a1a1a; stroke-width: 0.8; stroke-linejoin: miter"/>
    </g>
   </g>
   <g id="line2d_12">
    <path d="M 173.52 228.771106 
L 169.855719 222.424385 
L 113.484226 332.756117 
L 173.52 228.771106 
" clip-path="url(#p46d0353405)" style="fill: none; stroke: #ffd8b1; stroke-width: 2; stroke-linecap: square"/>
    <defs>
     <path id="mfa6d48ee32" d="M -1.166667 3.5 
L 1.166667 3.5 
L 1.166667 1.166667 
L 3.5 1.166667 
L 3.5 -1.166667 
L 1.166667 -1.166667 
L 1.166667 -3.5 
L -1.166667 -3.5 
L -1.166667 -1.166667 
L -3.5 -1.166667 
L -3.5 1.166667 
L -1.166667 1.166667 
z
" style="stroke: #1a1a1a; stroke-width: 0.8; stroke-linejoin: miter"/>
    </defs>
    <g clip-path="url(#p46d0353405)">
     <use xlink:href="#mfa6d48ee32" x="173.52" y="228.771106" style="fill: #ffd8b1; stroke: #1a1a1a; stroke-width: 0.8; stroke-linejoin: miter"/>
     <use xlink:href="#mfa6d48ee32" x="169.855719" y="222.424385" style="fill: #ffd8b1; stroke: #1a1a1a; stroke-width: 0.8; stroke-linejoin: miter"/>
     <use xlink:href="#mfa6d48ee32" x="113.484226" y="332.756117" style="fill: #ffd8b1; stroke: #1a1a1a; stroke-width: 0.8; stroke-linejoin: miter"/>
     <use xlink:href="#mfa6d48ee32" x="173.52" y="228.771106" style="fill: #ffd8b1; stroke: #1a1a1a; stroke-width: 0.8; stroke-linejoin: miter"/>
    </g>
   </g>
   <g id="line2d_13">
    <path d="M 173.52 228.771106 
L 167.412864 218.193237 
L 173.52 228.771106 
L 173.52 228.771106 
" clip-path="url(#p46d0353405)" style="fill: none; stroke: #f5a6a6; stroke-width: 2; stroke-linecap: square"/>
    <defs>
     <path id="md21a0eed21" d="M 0 3.5 
C 0.928211 3.5 1.81853 3.131218 2.474874 2.474874 
C 3.131218 1.81853 3.5 0.928211 3.5 0 
C 3.5 -0.928211 3.131218 -1.81853 2.474874 -2.474874 
C 1.81853 -3.131218 0.928211 -3.5 0 -3.5 
C -0.928211 -3.5 -1.81853 -3.131218 -2.474874 -2.474874 
C -3.131218 -1.81853 -3.5 -0.928211 -3.5 0 
C -3.5 0.928211 -3.131218 1.81853 -2.474874 2.474874 
C -1.81853 3.131218 -0.928211 3.5 0 3.5 
z
" style="stroke: #1a1a1a; stroke-width: 0.8"/>
    </defs>
    <g clip-path="url(#p46d0353405)">
     <use xlink:href="#md21a0eed21" x="173.52" y="228.771106" style="fill: #f5a6a6; stroke: #1a1a1a; stroke-width: 0.8"/>
     <use xlink:href="#md21a0eed21" x="167.412864" y="218.193237" style="fill: #f5a6a6; stroke: #1a1a1a; stroke-width: 0.8"/>
     <use xlink:href="#md21a0eed21" x="173.52" y="228.771106" style="fill: #f5a6a6; stroke: #1a1a1a; stroke-width: 0.8"/>
     <use xlink:href="#md21a0eed21" x="173.52" y="228.771106" style="fill: #f5a6a6; stroke: #1a1a1a; stroke-width: 0.8"/>
    </g>
   </g>
   <g id="patch_10">
    <path d="M 339.84 228.771106 
C 339.84 206.930164 335.537811 185.301597 327.179644 165.123198 
C 318.821477 144.944798 306.569878 126.608985 291.126 111.165106 
C 275.682121 95.721228 257.346308 83.469629 237.167908 75.111462 
C 216.989509 66.753296 195.360942 62.451106 173.52 62.451106 
C 151.679058 62.451106 130.050491 66.753296 109.872092 75.111462 
C 89.693692 83.469629 71.357879 95.721228 55.914 111.165106 
C 40.470122 126.608985 28.218523 144.944798 19.860356 165.123198 
C 11.502189 185.301597 7.2 206.930164 7.2 228.771106 
C 7.2 250.612049 11.502189 272.240615 19.860356 292.419015 
C 28.218523 312.597414 40.470122 330.933228 55.914 346.377106 
C 71.357879 361.820984 89.693692 374.072583 109.872092 382.43075 
C 130.050491 390.788917 151.679058 395.091106 173.52 395.091106 
C 195.360942 395.091106 216.989509 390.788917 237.167908 382.43075 
C 257.346308 374.072583 275.682121 361.820984 291.126 346.377106 
C 306.569878 330.933228 318.821477 312.597414 327.179644 292.419015 
C 335.537811 272.240615 339.84 250.612049 339.84 228.771106 
" style="fill: none; stroke: #1a1a1a; stroke-width: 1.2; stroke-linejoin: miter; stroke-linecap: square"/>
   </g>
   <g id="text_7">
    <!-- Normalised Performance Profile -->
    <g transform="translate(89.048438 16.226875) scale(0.13 -0.13)">
     <defs>
      <path id="TimesNewRomanPSMT-4e" d="M -84 4238 
L 1066 4238 
L 3656 1059 
L 3656 3503 
Q 3656 3894 3569 3991 
Q 3453 4122 3203 4122 
L 3056 4122 
L 3056 4238 
L 4531 4238 
L 4531 4122 
L 4381 4122 
Q 4113 4122 4000 3959 
Q 3931 3859 3931 3503 
L 3931 -69 
L 3819 -69 
L 1025 3344 
L 1025 734 
Q 1025 344 1109 247 
Q 1228 116 1475 116 
L 1625 116 
L 1625 0 
L 150 0 
L 150 116 
L 297 116 
Q 569 116 681 278 
Q 750 378 750 734 
L 750 3681 
Q 566 3897 470 3965 
Q 375 4034 191 4094 
Q 100 4122 -84 4122 
L -84 4238 
z
" transform="scale(0.015625)"/>
      <path id="TimesNewRomanPSMT-6d" d="M 1050 2338 
Q 1363 2650 1419 2697 
Q 1559 2816 1721 2881 
Q 1884 2947 2044 2947 
Q 2313 2947 2506 2790 
Q 2700 2634 2766 2338 
Q 3088 2713 3309 2830 
Q 3531 2947 3766 2947 
Q 3994 2947 4170 2830 
Q 4347 2713 4450 2447 
Q 4519 2266 4519 1878 
L 4519 647 
Q 4519 378 4559 278 
Q 4591 209 4675 161 
Q 4759 113 4950 113 
L 4950 0 
L 3538 0 
L 3538 113 
L 3597 113 
Q 3781 113 3884 184 
Q 3956 234 3988 344 
Q 4000 397 4000 647 
L 4000 1878 
Q 4000 2228 3916 2372 
Q 3794 2572 3525 2572 
Q 3359 2572 3192 2489 
Q 3025 2406 2788 2181 
L 2781 2147 
L 2788 2013 
L 2788 647 
Q 2788 353 2820 281 
Q 2853 209 2943 161 
Q 3034 113 3253 113 
L 3253 0 
L 1806 0 
L 1806 113 
Q 2044 113 2133 169 
Q 2222 225 2256 338 
Q 2272 391 2272 647 
L 2272 1878 
Q 2272 2228 2169 2381 
Q 2031 2581 1784 2581 
Q 1616 2581 1450 2491 
Q 1191 2353 1050 2181 
L 1050 647 
Q 1050 366 1089 281 
Q 1128 197 1204 155 
Q 1281 113 1516 113 
L 1516 0 
L 100 0 
L 100 113 
Q 297 113 375 155 
Q 453 197 493 289 
Q 534 381 534 647 
L 534 1741 
Q 534 2213 506 2350 
Q 484 2453 437 2492 
Q 391 2531 309 2531 
Q 222 2531 100 2484 
L 53 2597 
L 916 2947 
L 1050 2947 
L 1050 2338 
z
" transform="scale(0.015625)"/>
      <path id="TimesNewRomanPSMT-6c" d="M 1184 4444 
L 1184 647 
Q 1184 378 1223 290 
Q 1263 203 1344 158 
Q 1425 113 1647 113 
L 1647 0 
L 244 0 
L 244 113 
Q 441 113 512 153 
Q 584 194 625 287 
Q 666 381 666 647 
L 666 3247 
Q 666 3731 644 3842 
Q 622 3953 573 3993 
Q 525 4034 450 4034 
Q 369 4034 244 3984 
L 191 4094 
L 1044 4444 
L 1184 4444 
z
" transform="scale(0.015625)"/>
      <path id="TimesNewRomanPSMT-69" d="M 928 4444 
Q 1059 4444 1151 4351 
Q 1244 4259 1244 4128 
Q 1244 3997 1151 3903 
Q 1059 3809 928 3809 
Q 797 3809 703 3903 
Q 609 3997 609 4128 
Q 609 4259 701 4351 
Q 794 4444 928 4444 
z
M 1188 2947 
L 1188 647 
Q 1188 378 1227 289 
Q 1266 200 1342 156 
Q 1419 113 1622 113 
L 1622 0 
L 231 0 
L 231 113 
Q 441 113 512 153 
Q 584 194 626 287 
Q 669 381 669 647 
L 669 1750 
Q 669 2216 641 2353 
Q 619 2453 572 2492 
Q 525 2531 444 2531 
Q 356 2531 231 2484 
L 188 2597 
L 1050 2947 
L 1188 2947 
z
" transform="scale(0.015625)"/>
      <path id="TimesNewRomanPSMT-20" transform="scale(0.015625)"/>
      <path id="TimesNewRomanPSMT-66" d="M 1319 2638 
L 1319 756 
Q 1319 356 1406 250 
Q 1522 113 1716 113 
L 1975 113 
L 1975 0 
L 266 0 
L 266 113 
L 394 113 
Q 519 113 622 175 
Q 725 238 764 344 
Q 803 450 803 756 
L 803 2638 
L 247 2638 
L 247 2863 
L 803 2863 
L 803 3050 
Q 803 3478 940 3775 
Q 1078 4072 1361 4255 
Q 1644 4438 1997 4438 
Q 2325 4438 2600 4225 
Q 2781 4084 2781 3909 
Q 2781 3816 2700 3733 
Q 2619 3650 2525 3650 
Q 2453 3650 2373 3701 
Q 2294 3753 2178 3923 
Q 2063 4094 1966 4153 
Q 1869 4213 1750 4213 
Q 1606 4213 1506 4136 
Q 1406 4059 1362 3898 
Q 1319 3738 1319 3069 
L 1319 2863 
L 2056 2863 
L 2056 2638 
L 1319 2638 
z
" transform="scale(0.015625)"/>
     </defs>
     <use xlink:href="#TimesNewRomanPSMT-4e"/>
     <use xlink:href="#TimesNewRomanPSMT-6f" transform="translate(72.216797 0)"/>
     <use xlink:href="#TimesNewRomanPSMT-72" transform="translate(122.216797 0)"/>
     <use xlink:href="#TimesNewRomanPSMT-6d" transform="translate(155.517578 0)"/>
     <use xlink:href="#TimesNewRomanPSMT-61" transform="translate(233.300781 0)"/>
     <use xlink:href="#TimesNewRomanPSMT-6c" transform="translate(277.685547 0)"/>
     <use xlink:href="#TimesNewRomanPSMT-69" transform="translate(305.46875 0)"/>
     <use xlink:href="#TimesNewRomanPSMT-73" transform="translate(333.251953 0)"/>
     <use xlink:href="#TimesNewRomanPSMT-65" transform="translate(372.167969 0)"/>
     <use xlink:href="#TimesNewRomanPSMT-64" transform="translate(416.552734 0)"/>
     <use xlink:href="#TimesNewRomanPSMT-20" transform="translate(466.552734 0)"/>
     <use xlink:href="#TimesNewRomanPSMT-50" transform="translate(491.552734 0)"/>
     <use xlink:href="#TimesNewRomanPSMT-65" transform="translate(547.167969 0)"/>
     <use xlink:href="#TimesNewRomanPSMT-72" transform="translate(591.552734 0)"/>
     <use xlink:href="#TimesNewRomanPSMT-66" transform="translate(624.853516 0)"/>
     <use xlink:href="#TimesNewRomanPSMT-6f" transform="translate(658.154297 0)"/>
     <use xlink:href="#TimesNewRomanPSMT-72" transform="translate(708.154297 0)"/>
     <use xlink:href="#TimesNewRomanPSMT-6d" transform="translate(741.455078 0)"/>
     <use xlink:href="#TimesNewRomanPSMT-61" transform="translate(819.238281 0)"/>
     <use xlink:href="#TimesNewRomanPSMT-6e" transform="translate(863.623047 0)"/>
     <use xlink:href="#TimesNewRomanPSMT-63" transform="translate(913.623047 0)"/>
     <use xlink:href="#TimesNewRomanPSMT-65" transform="translate(958.007812 0)"/>
     <use xlink:href="#TimesNewRomanPSMT-20" transform="translate(1002.392578 0)"/>
     <use xlink:href="#TimesNewRomanPSMT-50" transform="translate(1027.392578 0)"/>
     <use xlink:href="#TimesNewRomanPSMT-72" transform="translate(1083.007812 0)"/>
     <use xlink:href="#TimesNewRomanPSMT-6f" transform="translate(1116.308594 0)"/>
     <use xlink:href="#TimesNewRomanPSMT-66" transform="translate(1166.308594 0)"/>
     <use xlink:href="#TimesNewRomanPSMT-69" transform="translate(1199.609375 0)"/>
     <use xlink:href="#TimesNewRomanPSMT-6c" transform="translate(1227.392578 0)"/>
     <use xlink:href="#TimesNewRomanPSMT-65" transform="translate(1255.175781 0)"/>
    </g>
    <!-- (100% = Expert) -->
    <g transform="translate(129.786172 29.839906) scale(0.13 -0.13)">
     <defs>
      <path id="TimesNewRomanPSMT-28" d="M 1988 -1253 
L 1988 -1369 
Q 1516 -1131 1200 -813 
Q 750 -359 506 256 
Q 263 872 263 1534 
Q 263 2503 741 3301 
Q 1219 4100 1988 4444 
L 1988 4313 
Q 1603 4100 1356 3731 
Q 1109 3363 987 2797 
Q 866 2231 866 1616 
Q 866 947 969 400 
Q 1050 -31 1165 -292 
Q 1281 -553 1476 -793 
Q 1672 -1034 1988 -1253 
z
" transform="scale(0.015625)"/>
      <path id="TimesNewRomanPSMT-25" d="M 4350 4334 
L 1263 -175 
L 984 -175 
L 4072 4334 
L 4350 4334 
z
M 1138 4334 
Q 1559 4334 1792 3984 
Q 2025 3634 2025 3181 
Q 2025 2638 1762 2341 
Q 1500 2044 1131 2044 
Q 884 2044 678 2180 
Q 472 2316 348 2584 
Q 225 2853 225 3181 
Q 225 3509 350 3786 
Q 475 4063 692 4198 
Q 909 4334 1138 4334 
z
M 1128 4159 
Q 969 4159 845 3971 
Q 722 3784 722 3184 
Q 722 2750 791 2522 
Q 844 2350 956 2256 
Q 1022 2200 1119 2200 
Q 1269 2200 1375 2363 
Q 1531 2603 1531 3166 
Q 1531 3759 1378 4000 
Q 1278 4159 1128 4159 
z
M 4206 2103 
Q 4428 2103 4648 1962 
Q 4869 1822 4989 1553 
Q 5109 1284 5109 963 
Q 5109 409 4843 117 
Q 4578 -175 4216 -175 
Q 3988 -175 3773 -34 
Q 3559 106 3436 367 
Q 3313 628 3313 963 
Q 3313 1291 3436 1562 
Q 3559 1834 3773 1968 
Q 3988 2103 4206 2103 
z
M 4209 1938 
Q 4059 1938 3950 1769 
Q 3809 1550 3809 941 
Q 3809 381 3953 159 
Q 4059 0 4209 0 
Q 4353 0 4466 172 
Q 4616 400 4616 956 
Q 4616 1544 4466 1778 
Q 4363 1938 4209 1938 
z
" transform="scale(0.015625)"/>
      <path id="TimesNewRomanPSMT-3d" d="M 116 2759 
L 3488 2759 
L 3488 2503 
L 116 2503 
L 116 2759 
z
M 116 1741 
L 3488 1741 
L 3488 1484 
L 116 1484 
L 116 1741 
z
" transform="scale(0.015625)"/>
      <path id="TimesNewRomanPSMT-45" d="M 1338 4006 
L 1338 2331 
L 2269 2331 
Q 2631 2331 2753 2441 
Q 2916 2584 2934 2947 
L 3050 2947 
L 3050 1472 
L 2934 1472 
Q 2891 1781 2847 1869 
Q 2791 1978 2662 2040 
Q 2534 2103 2269 2103 
L 1338 2103 
L 1338 706 
Q 1338 425 1363 364 
Q 1388 303 1450 267 
Q 1513 231 1688 231 
L 2406 231 
Q 2766 231 2928 281 
Q 3091 331 3241 478 
Q 3434 672 3638 1063 
L 3763 1063 
L 3397 0 
L 131 0 
L 131 116 
L 281 116 
Q 431 116 566 188 
Q 666 238 702 338 
Q 738 438 738 747 
L 738 3500 
Q 738 3903 656 3997 
Q 544 4122 281 4122 
L 131 4122 
L 131 4238 
L 3397 4238 
L 3444 3309 
L 3322 3309 
Q 3256 3644 3176 3769 
Q 3097 3894 2941 3959 
Q 2816 4006 2500 4006 
L 1338 4006 
z
" transform="scale(0.015625)"/>
      <path id="TimesNewRomanPSMT-78" d="M 84 2863 
L 1431 2863 
L 1431 2747 
Q 1303 2747 1251 2703 
Q 1200 2659 1200 2588 
Q 1200 2513 1309 2356 
Q 1344 2306 1413 2200 
L 1616 1875 
L 1850 2200 
Q 2075 2509 2075 2591 
Q 2075 2656 2022 2701 
Q 1969 2747 1850 2747 
L 1850 2863 
L 2819 2863 
L 2819 2747 
Q 2666 2738 2553 2663 
Q 2400 2556 2134 2200 
L 1744 1678 
L 2456 653 
Q 2719 275 2831 198 
Q 2944 122 3122 113 
L 3122 0 
L 1772 0 
L 1772 113 
Q 1913 113 1991 175 
Q 2050 219 2050 291 
Q 2050 363 1850 653 
L 1431 1266 
L 972 653 
Q 759 369 759 316 
Q 759 241 829 180 
Q 900 119 1041 113 
L 1041 0 
L 106 0 
L 106 113 
Q 219 128 303 191 
Q 422 281 703 653 
L 1303 1450 
L 759 2238 
Q 528 2575 401 2661 
Q 275 2747 84 2747 
L 84 2863 
z
" transform="scale(0.015625)"/>
      <path id="TimesNewRomanPSMT-29" d="M 144 4313 
L 144 4444 
Q 619 4209 934 3891 
Q 1381 3434 1625 2820 
Q 1869 2206 1869 1541 
Q 1869 572 1392 -226 
Q 916 -1025 144 -1369 
L 144 -1253 
Q 528 -1038 776 -670 
Q 1025 -303 1145 264 
Q 1266 831 1266 1447 
Q 1266 2113 1163 2663 
Q 1084 3094 967 3353 
Q 850 3613 656 3853 
Q 463 4094 144 4313 
z
" transform="scale(0.015625)"/>
     </defs>
     <use xlink:href="#TimesNewRomanPSMT-28"/>
     <use xlink:href="#TimesNewRomanPSMT-31" transform="translate(33.300781 0)"/>
     <use xlink:href="#TimesNewRomanPSMT-30" transform="translate(83.300781 0)"/>
     <use xlink:href="#TimesNewRomanPSMT-30" transform="translate(133.300781 0)"/>
     <use xlink:href="#TimesNewRomanPSMT-25" transform="translate(183.300781 0)"/>
     <use xlink:href="#TimesNewRomanPSMT-20" transform="translate(266.601562 0)"/>
     <use xlink:href="#TimesNewRomanPSMT-3d" transform="translate(291.601562 0)"/>
     <use xlink:href="#TimesNewRomanPSMT-20" transform="translate(347.998047 0)"/>
     <use xlink:href="#TimesNewRomanPSMT-45" transform="translate(372.998047 0)"/>
     <use xlink:href="#TimesNewRomanPSMT-78" transform="translate(434.082031 0)"/>
     <use xlink:href="#TimesNewRomanPSMT-70" transform="translate(484.082031 0)"/>
     <use xlink:href="#TimesNewRomanPSMT-65" transform="translate(534.082031 0)"/>
     <use xlink:href="#TimesNewRomanPSMT-72" transform="translate(578.466797 0)"/>
     <use xlink:href="#TimesNewRomanPSMT-74" transform="translate(611.767578 0)"/>
     <use xlink:href="#TimesNewRomanPSMT-29" transform="translate(639.550781 0)"/>
    </g>
   </g>
   <g id="legend_1">
    <g id="patch_11">
     <path d="M 349.884313 136.160544 
L 451.264 136.160544 
L 451.264 34.187106 
L 349.884313 34.187106 
z
" style="fill: #fafafa; opacity: 0.9; stroke: #1a1a1a; stroke-linejoin: miter"/>
    </g>
    <g id="line2d_14">
     <path d="M 353.884313 41.687106 
L 363.884313 41.687106 
L 373.884313 41.687106 
" style="fill: none; stroke: #a8d8ea; stroke-width: 2; stroke-linecap: square"/>
     <g>
      <use xlink:href="#ma397f63e87" x="363.884313" y="41.687106" style="fill: #a8d8ea; stroke: #1a1a1a; stroke-width: 0.8"/>
     </g>
    </g>
    <g id="text_8">
     <!-- Expert -->
     <g transform="translate(381.884313 45.187106) scale(0.1 -0.1)">
      <use xlink:href="#TimesNewRomanPSMT-45"/>
      <use xlink:href="#TimesNewRomanPSMT-78" transform="translate(61.083984 0)"/>
      <use xlink:href="#TimesNewRomanPSMT-70" transform="translate(111.083984 0)"/>
      <use xlink:href="#TimesNewRomanPSMT-65" transform="translate(161.083984 0)"/>
      <use xlink:href="#TimesNewRomanPSMT-72" transform="translate(205.46875 0)"/>
      <use xlink:href="#TimesNewRomanPSMT-74" transform="translate(238.769531 0)"/>
     </g>
    </g>
    <g id="line2d_15">
     <path d="M 353.884313 55.826169 
L 363.884313 55.826169 
L 373.884313 55.826169 
" style="fill: none; stroke: #f4b6c2; stroke-width: 2; stroke-linecap: square"/>
     <g>
      <use xlink:href="#mda6ff0211c" x="363.884313" y="55.826169" style="fill: #f4b6c2; stroke: #1a1a1a; stroke-width: 0.8; stroke-linejoin: miter"/>
     </g>
    </g>
    <g id="text_9">
     <!-- Distillation -->
     <g transform="translate(381.884313 59.326169) scale(0.1 -0.1)">
      <defs>
       <path id="TimesNewRomanPSMT-44" d="M 109 0 
L 109 116 
L 269 116 
Q 538 116 650 288 
Q 719 391 719 750 
L 719 3488 
Q 719 3884 631 3984 
Q 509 4122 269 4122 
L 109 4122 
L 109 4238 
L 1834 4238 
Q 2784 4238 3279 4022 
Q 3775 3806 4076 3303 
Q 4378 2800 4378 2141 
Q 4378 1256 3841 663 
Q 3238 0 2003 0 
L 109 0 
z
M 1319 306 
Q 1716 219 1984 219 
Q 2709 219 3187 728 
Q 3666 1238 3666 2109 
Q 3666 2988 3187 3494 
Q 2709 4000 1959 4000 
Q 1678 4000 1319 3909 
L 1319 306 
z
" transform="scale(0.015625)"/>
      </defs>
      <use xlink:href="#TimesNewRomanPSMT-44"/>
      <use xlink:href="#TimesNewRomanPSMT-69" transform="translate(72.216797 0)"/>
      <use xlink:href="#TimesNewRomanPSMT-73" transform="translate(100 0)"/>
      <use xlink:href="#TimesNewRomanPSMT-74" transform="translate(138.916016 0)"/>
      <use xlink:href="#TimesNewRomanPSMT-69" transform="translate(166.699219 0)"/>
      <use xlink:href="#TimesNewRomanPSMT-6c" transform="translate(194.482422 0)"/>
      <use xlink:href="#TimesNewRomanPSMT-6c" transform="translate(222.265625 0)"/>
      <use xlink:href="#TimesNewRomanPSMT-61" transform="translate(250.048828 0)"/>
      <use xlink:href="#TimesNewRomanPSMT-74" transform="translate(294.433594 0)"/>
      <use xlink:href="#TimesNewRomanPSMT-69" transform="translate(322.216797 0)"/>
      <use xlink:href="#TimesNewRomanPSMT-6f" transform="translate(350 0)"/>
      <use xlink:href="#TimesNewRomanPSMT-6e" transform="translate(400 0)"/>
     </g>
    </g>
    <g id="line2d_16">
     <path d="M 353.884313 69.965231 
L 363.884313 69.965231 
L 373.884313 69.965231 
" style="fill: none; stroke: #b5ead7; stroke-width: 2; stroke-linecap: square"/>
     <g>
      <use xlink:href="#m3ec59c3faf" x="363.884313" y="69.965231" style="fill: #b5ead7; stroke: #1a1a1a; stroke-width: 0.8; stroke-linejoin: miter"/>
     </g>
    </g>
    <g id="text_10">
     <!-- HTCL (λ=0.1) -->
     <g transform="translate(381.884313 73.465231) scale(0.1 -0.1)">
      <defs>
       <path id="TimesNewRomanPSMT-48" d="M 1316 2272 
L 3284 2272 
L 3284 3484 
Q 3284 3809 3244 3913 
Q 3213 3991 3113 4047 
Q 2978 4122 2828 4122 
L 2678 4122 
L 2678 4238 
L 4491 4238 
L 4491 4122 
L 4341 4122 
Q 4191 4122 4056 4050 
Q 3956 4000 3920 3898 
Q 3884 3797 3884 3484 
L 3884 750 
Q 3884 428 3925 325 
Q 3956 247 4053 191 
Q 4191 116 4341 116 
L 4491 116 
L 4491 0 
L 2678 0 
L 2678 116 
L 2828 116 
Q 3088 116 3206 269 
Q 3284 369 3284 750 
L 3284 2041 
L 1316 2041 
L 1316 750 
Q 1316 428 1356 325 
Q 1388 247 1488 191 
Q 1622 116 1772 116 
L 1925 116 
L 1925 0 
L 109 0 
L 109 116 
L 259 116 
Q 522 116 641 269 
Q 716 369 716 750 
L 716 3484 
Q 716 3809 675 3913 
Q 644 3991 547 4047 
Q 409 4122 259 4122 
L 109 4122 
L 109 4238 
L 1925 4238 
L 1925 4122 
L 1772 4122 
Q 1622 4122 1488 4050 
Q 1391 4000 1353 3898 
Q 1316 3797 1316 3484 
L 1316 2272 
z
" transform="scale(0.015625)"/>
       <path id="TimesNewRomanPSMT-54" d="M 3703 4238 
L 3750 3244 
L 3631 3244 
Q 3597 3506 3538 3619 
Q 3441 3800 3280 3886 
Q 3119 3972 2856 3972 
L 2259 3972 
L 2259 734 
Q 2259 344 2344 247 
Q 2463 116 2709 116 
L 2856 116 
L 2856 0 
L 1059 0 
L 1059 116 
L 1209 116 
Q 1478 116 1591 278 
Q 1659 378 1659 734 
L 1659 3972 
L 1150 3972 
Q 853 3972 728 3928 
Q 566 3869 450 3700 
Q 334 3531 313 3244 
L 194 3244 
L 244 4238 
L 3703 4238 
z
" transform="scale(0.015625)"/>
       <path id="TimesNewRomanPSMT-43" d="M 3853 4334 
L 3950 2894 
L 3853 2894 
Q 3659 3541 3300 3825 
Q 2941 4109 2438 4109 
Q 2016 4109 1675 3895 
Q 1334 3681 1139 3212 
Q 944 2744 944 2047 
Q 944 1472 1128 1050 
Q 1313 628 1683 403 
Q 2053 178 2528 178 
Q 2941 178 3256 354 
Q 3572 531 3950 1056 
L 4047 994 
Q 3728 428 3303 165 
Q 2878 -97 2294 -97 
Q 1241 -97 663 684 
Q 231 1266 231 2053 
Q 231 2688 515 3219 
Q 800 3750 1298 4042 
Q 1797 4334 2388 4334 
Q 2847 4334 3294 4109 
Q 3425 4041 3481 4041 
Q 3566 4041 3628 4100 
Q 3709 4184 3744 4334 
L 3853 4334 
z
" transform="scale(0.015625)"/>
       <path id="TimesNewRomanPSMT-4c" d="M 3669 1172 
L 3772 1150 
L 3409 0 
L 128 0 
L 128 116 
L 288 116 
Q 556 116 672 291 
Q 738 391 738 753 
L 738 3488 
Q 738 3884 650 3984 
Q 528 4122 288 4122 
L 128 4122 
L 128 4238 
L 2047 4238 
L 2047 4122 
Q 1709 4125 1573 4059 
Q 1438 3994 1388 3894 
Q 1338 3794 1338 3416 
L 1338 753 
Q 1338 494 1388 397 
Q 1425 331 1503 300 
Q 1581 269 1991 269 
L 2300 269 
Q 2788 269 2984 341 
Q 3181 413 3343 595 
Q 3506 778 3669 1172 
z
" transform="scale(0.015625)"/>
       <path id="TimesNewRomanPSMT-3bb" d="M 3022 900 
L 3134 900 
Q 3134 406 2973 181 
Q 2813 -44 2572 -44 
Q 2375 -44 2194 104 
Q 2013 253 1869 900 
L 1600 2113 
L 669 0 
L 78 0 
L 1416 2881 
Q 1309 3441 1159 3709 
Q 1009 3978 788 3978 
Q 609 3978 476 3842 
Q 344 3706 328 3422 
L 216 3422 
Q 225 3881 400 4157 
Q 575 4434 838 4434 
Q 1006 4434 1157 4295 
Q 1309 4156 1420 3820 
Q 1531 3484 1766 2428 
L 1988 1438 
Q 2122 822 2270 614 
Q 2419 406 2625 406 
Q 2975 406 3022 900 
z
" transform="scale(0.015625)"/>
       <path id="TimesNewRomanPSMT-2e" d="M 800 606 
Q 947 606 1047 504 
Q 1147 403 1147 259 
Q 1147 116 1045 14 
Q 944 -88 800 -88 
Q 656 -88 554 14 
Q 453 116 453 259 
Q 453 406 554 506 
Q 656 606 800 606 
z
" transform="scale(0.015625)"/>
      </defs>
      <use xlink:href="#TimesNewRomanPSMT-48"/>
      <use xlink:href="#TimesNewRomanPSMT-54" transform="translate(72.216797 0)"/>
      <use xlink:href="#TimesNewRomanPSMT-43" transform="translate(133.300781 0)"/>
      <use xlink:href="#TimesNewRomanPSMT-4c" transform="translate(200 0)"/>
      <use xlink:href="#TimesNewRomanPSMT-20" transform="translate(257.333984 0)"/>
      <use xlink:href="#TimesNewRomanPSMT-28" transform="translate(282.333984 0)"/>
      <use xlink:href="#TimesNewRomanPSMT-3bb" transform="translate(315.634766 0)"/>
      <use xlink:href="#TimesNewRomanPSMT-3d" transform="translate(364.121094 0)"/>
      <use xlink:href="#TimesNewRomanPSMT-30" transform="translate(420.517578 0)"/>
      <use xlink:href="#TimesNewRomanPSMT-2e" transform="translate(470.517578 0)"/>
      <use xlink:href="#TimesNewRomanPSMT-31" transform="translate(495.517578 0)"/>
      <use xlink:href="#TimesNewRomanPSMT-29" transform="translate(545.517578 0)"/>
     </g>
    </g>
    <g id="line2d_17">
     <path d="M 353.884313 84.104294 
L 363.884313 84.104294 
L 373.884313 84.104294 
" style="fill: none; stroke: #ffeead; stroke-width: 2; stroke-linecap: square"/>
     <g>
      <use xlink:href="#mf3895bcd91" x="363.884313" y="84.104294" style="fill: #ffeead; stroke: #1a1a1a; stroke-width: 0.8; stroke-linejoin: miter"/>
     </g>
    </g>
    <g id="text_11">
     <!-- HTCL (λ=1) -->
     <g transform="translate(381.884313 87.604294) scale(0.1 -0.1)">
      <use xlink:href="#TimesNewRomanPSMT-48"/>
      <use xlink:href="#TimesNewRomanPSMT-54" transform="translate(72.216797 0)"/>
      <use xlink:href="#TimesNewRomanPSMT-43" transform="translate(133.300781 0)"/>
      <use xlink:href="#TimesNewRomanPSMT-4c" transform="translate(200 0)"/>
      <use xlink:href="#TimesNewRomanPSMT-20" transform="translate(257.333984 0)"/>
      <use xlink:href="#TimesNewRomanPSMT-28" transform="translate(282.333984 0)"/>
      <use xlink:href="#TimesNewRomanPSMT-3bb" transform="translate(315.634766 0)"/>
      <use xlink:href="#TimesNewRomanPSMT-3d" transform="translate(364.121094 0)"/>
      <use xlink:href="#TimesNewRomanPSMT-31" transform="translate(420.517578 0)"/>
      <use xlink:href="#TimesNewRomanPSMT-29" transform="translate(470.517578 0)"/>
     </g>
    </g>
    <g id="line2d_18">
     <path d="M 353.884313 98.243356 
L 363.884313 98.243356 
L 373.884313 98.243356 
" style="fill: none; stroke: #c3b1e1; stroke-width: 2; stroke-linecap: square"/>
     <g>
      <use xlink:href="#maaa1574220" x="363.884313" y="98.243356" style="fill: #c3b1e1; stroke: #1a1a1a; stroke-width: 0.8; stroke-linejoin: miter"/>
     </g>
    </g>
    <g id="text_12">
     <!-- HTCL (λ=10) -->
     <g transform="translate(381.884313 101.743356) scale(0.1 -0.1)">
      <use xlink:href="#TimesNewRomanPSMT-48"/>
      <use xlink:href="#TimesNewRomanPSMT-54" transform="translate(72.216797 0)"/>
      <use xlink:href="#TimesNewRomanPSMT-43" transform="translate(133.300781 0)"/>
      <use xlink:href="#TimesNewRomanPSMT-4c" transform="translate(200 0)"/>
      <use xlink:href="#TimesNewRomanPSMT-20" transform="translate(257.333984 0)"/>
      <use xlink:href="#TimesNewRomanPSMT-28" transform="translate(282.333984 0)"/>
      <use xlink:href="#TimesNewRomanPSMT-3bb" transform="translate(315.634766 0)"/>
      <use xlink:href="#TimesNewRomanPSMT-3d" transform="translate(364.121094 0)"/>
      <use xlink:href="#TimesNewRomanPSMT-31" transform="translate(420.517578 0)"/>
      <use xlink:href="#TimesNewRomanPSMT-30" transform="translate(470.517578 0)"/>
      <use xlink:href="#TimesNewRomanPSMT-29" transform="translate(520.517578 0)"/>
     </g>
    </g>
    <g id="line2d_19">
     <path d="M 353.884313 112.382419 
L 363.884313 112.382419 
L 373.884313 112.382419 
" style="fill: none; stroke: #ffd8b1; stroke-width: 2; stroke-linecap: square"/>
     <g>
      <use xlink:href="#mfa6d48ee32" x="363.884313" y="112.382419" style="fill: #ffd8b1; stroke: #1a1a1a; stroke-width: 0.8; stroke-linejoin: miter"/>
     </g>
    </g>
    <g id="text_13">
     <!-- HTCL (λ=100) -->
     <g transform="translate(381.884313 115.882419) scale(0.1 -0.1)">
      <use xlink:href="#TimesNewRomanPSMT-48"/>
      <use xlink:href="#TimesNewRomanPSMT-54" transform="translate(72.216797 0)"/>
      <use xlink:href="#TimesNewRomanPSMT-43" transform="translate(133.300781 0)"/>
      <use xlink:href="#TimesNewRomanPSMT-4c" transform="translate(200 0)"/>
      <use xlink:href="#TimesNewRomanPSMT-20" transform="translate(257.333984 0)"/>
      <use xlink:href="#TimesNewRomanPSMT-28" transform="translate(282.333984 0)"/>
      <use xlink:href="#TimesNewRomanPSMT-3bb" transform="translate(315.634766 0)"/>
      <use xlink:href="#TimesNewRomanPSMT-3d" transform="translate(364.121094 0)"/>
      <use xlink:href="#TimesNewRomanPSMT-31" transform="translate(420.517578 0)"/>
      <use xlink:href="#TimesNewRomanPSMT-30" transform="translate(470.517578 0)"/>
      <use xlink:href="#TimesNewRomanPSMT-30" transform="translate(520.517578 0)"/>
      <use xlink:href="#TimesNewRomanPSMT-29" transform="translate(570.517578 0)"/>
     </g>
    </g>
    <g id="line2d_20">
     <path d="M 353.884313 126.521481 
L 363.884313 126.521481 
L 373.884313 126.521481 
" style="fill: none; stroke: #f5a6a6; stroke-width: 2; stroke-linecap: square"/>
     <g>
      <use xlink:href="#md21a0eed21" x="363.884313" y="126.521481" style="fill: #f5a6a6; stroke: #1a1a1a; stroke-width: 0.8"/>
     </g>
    </g>
    <g id="text_14">
     <!-- HTCL (λ=1000) -->
     <g transform="translate(381.884313 130.021481) scale(0.1 -0.1)">
      <use xlink:href="#TimesNewRomanPSMT-48"/>
      <use xlink:href="#TimesNewRomanPSMT-54" transform="translate(72.216797 0)"/>
      <use xlink:href="#TimesNewRomanPSMT-43" transform="translate(133.300781 0)"/>
      <use xlink:href="#TimesNewRomanPSMT-4c" transform="translate(200 0)"/>
      <use xlink:href="#TimesNewRomanPSMT-20" transform="translate(257.333984 0)"/>
      <use xlink:href="#TimesNewRomanPSMT-28" transform="translate(282.333984 0)"/>
      <use xlink:href="#TimesNewRomanPSMT-3bb" transform="translate(315.634766 0)"/>
      <use xlink:href="#TimesNewRomanPSMT-3d" transform="translate(364.121094 0)"/>
      <use xlink:href="#TimesNewRomanPSMT-31" transform="translate(420.517578 0)"/>
      <use xlink:href="#TimesNewRomanPSMT-30" transform="translate(470.517578 0)"/>
      <use xlink:href="#TimesNewRomanPSMT-30" transform="translate(520.517578 0)"/>
      <use xlink:href="#TimesNewRomanPSMT-30" transform="translate(570.517578 0)"/>
      <use xlink:href="#TimesNewRomanPSMT-29" transform="translate(620.517578 0)"/>
     </g>
    </g>
   </g>
  </g>
 </g>
 <defs>
  <clipPath id="p46d0353405">
   <path d="M 339.84 228.771106 
C 339.84 206.930164 335.537811 185.301597 327.179644 165.123198 
C 318.821477 144.944798 306.569878 126.608985 291.126 111.165106 
C 275.682121 95.721228 257.346308 83.469629 237.167908 75.111462 
C 216.989509 66.753296 195.360942 62.451106 173.52 62.451106 
C 151.679058 62.451106 130.050491 66.753296 109.872092 75.111462 
C 89.693692 83.469629 71.357879 95.721228 55.914 111.165106 
C 40.470122 126.608985 28.218523 144.944798 19.860356 165.123198 
C 11.502189 185.301597 7.2 206.930164 7.2 228.771106 
C 7.2 250.612049 11.502189 272.240615 19.860356 292.419015 
C 28.218523 312.597414 40.470122 330.933228 55.914 346.377106 
C 71.357879 361.820984 89.693692 374.072583 109.872092 382.43075 
C 130.050491 390.788917 151.679058 395.091106 173.52 395.091106 
C 195.360942 395.091106 216.989509 390.788917 237.167908 382.43075 
C 257.346308 374.072583 275.682121 361.820984 291.126 346.377106 
C 306.569878 330.933228 318.821477 312.597414 327.179644 292.419015 
C 335.537811 272.240615 339.84 250.612049 339.84 228.771106 
M 173.52 228.771106 
C 173.52 228.771106 173.52 228.771106 173.52 228.771106 
C 173.52 228.771106 173.52 228.771106 173.52 228.771106 
C 173.52 228.771106 173.52 228.771106 173.52 228.771106 
C 173.52 228.771106 173.52 228.771106 173.52 228.771106 
C 173.52 228.771106 173.52 228.771106 173.52 228.771106 
C 173.52 228.771106 173.52 228.771106 173.52 228.771106 
C 173.52 228.771106 173.52 228.771106 173.52 228.771106 
C 173.52 228.771106 173.52 228.771106 173.52 228.771106 
C 173.52 228.771106 173.52 228.771106 173.52 228.771106 
C 173.52 228.771106 173.52 228.771106 173.52 228.771106 
C 173.52 228.771106 173.52 228.771106 173.52 228.771106 
C 173.52 228.771106 173.52 228.771106 173.52 228.771106 
C 173.52 228.771106 173.52 228.771106 173.52 228.771106 
C 173.52 228.771106 173.52 228.771106 173.52 228.771106 
C 173.52 228.771106 173.52 228.771106 173.52 228.771106 
C 173.52 228.771106 173.52 228.771106 173.52 228.771106 
z
"/>
  </clipPath>
 </defs>
</svg>
