<?xml version="1.0" encoding="utf-8" standalone="no"?>
<!DOCTYPE svg PUBLIC "-//W3C//DTD SVG 1.1//EN"
  "http://www.w3.org/Graphics/SVG/1.1/DTD/svg11.dtd">
<svg xmlns:xlink="http://www.w3.org/1999/xlink" width="1088.39952pt" height="378.59976pt" viewBox="0 0 1088.39952 378.59976" xmlns="http://www.w3.org/2000/svg" version="1.1">
 <metadata>
  <rdf:RDF xmlns:dc="http://purl.org/dc/elements/1.1/" xmlns:cc="http://creativecommons.org/ns#" xmlns:rdf="http://www.w3.org/1999/02/22-rdf-syntax-ns#">
   <cc:Work>
    <dc:type rdf:resource="http://purl.org/dc/dcmitype/StillImage"/>
    <dc:date>2026-03-08T03:07:47.955887</dc:date>
    <dc:format>image/svg+xml</dc:format>
    <dc:creator>
     <cc:Agent>
      <dc:title>Matplotlib v3.8.0, https://matplotlib.org/</dc:title>
     </cc:Agent>
    </dc:creator>
   </cc:Work>
  </rdf:RDF>
 </metadata>
 <defs>
  <style type="text/css">*{stroke-linejoin: round; stroke-linecap: butt}</style>
 </defs>
 <g id="figure_1">
  <g id="patch_1">
   <path d="M 0 378.59976 
L 1088.39952 378.59976 
L 1088.39952 0 
L 0 0 
z
" style="fill: #ffffff"/>
  </g>
  <g id="axes_1">
   <g id="patch_2">
    <path d="M 48.90125 328.217477 
L 357.606611 328.217477 
L 357.606611 33.278209 
L 48.90125 33.278209 
z
" style="fill: #fafafa"/>
   </g>
   <g id="matplotlib.axis_1">
    <g id="xtick_1">
     <g id="line2d_1">
      <path d="M 79.771786 328.217477 
L 79.771786 33.278209 
" clip-path="url(#p1c4f291e67)" style="fill: none; stroke: #e0e0e0; stroke-opacity: 0.7; stroke-width: 0.6; stroke-linecap: square"/>
     </g>
     <g id="line2d_2">
      <defs>
       <path id="m5720f93a38" d="M 0 0 
L 0 3.5 
" style="stroke: #000000"/>
      </defs>
      <g>
       <use xlink:href="#m5720f93a38" x="79.771786" y="328.217477" style="stroke: #000000"/>
      </g>
     </g>
     <g id="text_1">
      <!-- Expert -->
      <g transform="translate(49.237012 358.826823) rotate(-30) scale(0.1 -0.1)">
       <defs>
        <path id="DejaVuSerif-45" d="M 353 0 
L 353 331 
L 947 331 
L 947 4331 
L 353 4331 
L 353 4666 
L 4109 4666 
L 4109 3628 
L 3725 3628 
L 3725 4281 
L 1581 4281 
L 1581 2719 
L 3109 2719 
L 3109 3303 
L 3494 3303 
L 3494 1753 
L 3109 1753 
L 3109 2338 
L 1581 2338 
L 1581 384 
L 3775 384 
L 3775 1038 
L 4159 1038 
L 4159 0 
L 353 0 
z
" transform="scale(0.015625)"/>
        <path id="DejaVuSerif-78" d="M 1863 2028 
L 2559 2988 
L 2113 2988 
L 2113 3322 
L 3391 3322 
L 3391 2988 
L 2950 2988 
L 2059 1759 
L 3097 331 
L 3531 331 
L 3531 0 
L 1997 0 
L 1997 331 
L 2419 331 
L 1697 1325 
L 972 331 
L 1403 331 
L 1403 0 
L 141 0 
L 141 331 
L 581 331 
L 1497 1594 
L 488 2988 
L 78 2988 
L 78 3322 
L 1563 3322 
L 1563 2988 
L 1166 2988 
L 1863 2028 
z
" transform="scale(0.015625)"/>
        <path id="DejaVuSerif-70" d="M 1313 1825 
L 1313 1497 
Q 1313 897 1542 583 
Q 1772 269 2209 269 
Q 2650 269 2876 622 
Q 3103 975 3103 1663 
Q 3103 2353 2876 2703 
Q 2650 3053 2209 3053 
Q 1772 3053 1542 2737 
Q 1313 2422 1313 1825 
z
M 738 2988 
L 184 2988 
L 184 3322 
L 1313 3322 
L 1313 2803 
Q 1481 3116 1742 3264 
Q 2003 3413 2388 3413 
Q 3000 3413 3387 2928 
Q 3775 2444 3775 1663 
Q 3775 881 3387 395 
Q 3000 -91 2388 -91 
Q 2003 -91 1742 57 
Q 1481 206 1313 519 
L 1313 -997 
L 1856 -997 
L 1856 -1331 
L 184 -1331 
L 184 -997 
L 738 -997 
L 738 2988 
z
" transform="scale(0.015625)"/>
        <path id="DejaVuSerif-65" d="M 3469 1600 
L 991 1600 
L 991 1575 
Q 991 903 1244 561 
Q 1497 219 1991 219 
Q 2369 219 2611 417 
Q 2853 616 2950 1006 
L 3413 1006 
Q 3275 459 2904 184 
Q 2534 -91 1931 -91 
Q 1203 -91 761 389 
Q 319 869 319 1663 
Q 319 2450 753 2931 
Q 1188 3413 1894 3413 
Q 2647 3413 3050 2948 
Q 3453 2484 3469 1600 
z
M 2791 1931 
Q 2772 2513 2545 2808 
Q 2319 3103 1894 3103 
Q 1497 3103 1269 2806 
Q 1041 2509 991 1931 
L 2791 1931 
z
" transform="scale(0.015625)"/>
        <path id="DejaVuSerif-72" d="M 3059 3328 
L 3059 2497 
L 2728 2497 
Q 2713 2744 2591 2866 
Q 2469 2988 2234 2988 
Q 1809 2988 1582 2694 
Q 1356 2400 1356 1850 
L 1356 331 
L 2022 331 
L 2022 0 
L 263 0 
L 263 331 
L 781 331 
L 781 2994 
L 231 2994 
L 231 3322 
L 1356 3322 
L 1356 2731 
Q 1525 3078 1790 3245 
Q 2056 3413 2438 3413 
Q 2578 3413 2733 3391 
Q 2888 3369 3059 3328 
z
" transform="scale(0.015625)"/>
        <path id="DejaVuSerif-74" d="M 691 2988 
L 184 2988 
L 184 3322 
L 691 3322 
L 691 4353 
L 1269 4353 
L 1269 3322 
L 2350 3322 
L 2350 2988 
L 1269 2988 
L 1269 878 
Q 1269 456 1350 337 
Q 1431 219 1650 219 
Q 1875 219 1978 351 
Q 2081 484 2088 781 
L 2522 781 
Q 2497 328 2275 118 
Q 2053 -91 1600 -91 
Q 1103 -91 897 129 
Q 691 350 691 878 
L 691 2988 
z
" transform="scale(0.015625)"/>
       </defs>
       <use xlink:href="#DejaVuSerif-45"/>
       <use xlink:href="#DejaVuSerif-78" x="72.998047"/>
       <use xlink:href="#DejaVuSerif-70" x="129.394531"/>
       <use xlink:href="#DejaVuSerif-65" x="193.408203"/>
       <use xlink:href="#DejaVuSerif-72" x="252.587891"/>
       <use xlink:href="#DejaVuSerif-74" x="300.390625"/>
      </g>
     </g>
    </g>
    <g id="xtick_2">
     <g id="line2d_3">
      <path d="M 141.512858 328.217477 
L 141.512858 33.278209 
" clip-path="url(#p1c4f291e67)" style="fill: none; stroke: #e0e0e0; stroke-opacity: 0.7; stroke-width: 0.6; stroke-linecap: square"/>
     </g>
     <g id="line2d_4">
      <g>
       <use xlink:href="#m5720f93a38" x="141.512858" y="328.217477" style="stroke: #000000"/>
      </g>
     </g>
     <g id="text_2">
      <!-- Distillation -->
      <g transform="translate(92.320649 369.598698) rotate(-30) scale(0.1 -0.1)">
       <defs>
        <path id="DejaVuSerif-44" d="M 1581 331 
L 2163 331 
Q 3072 331 3558 850 
Q 4044 1369 4044 2338 
Q 4044 3306 3559 3818 
Q 3075 4331 2163 4331 
L 1581 4331 
L 1581 331 
z
M 353 0 
L 353 331 
L 947 331 
L 947 4331 
L 353 4331 
L 353 4666 
L 2209 4666 
Q 3416 4666 4089 4050 
Q 4763 3434 4763 2338 
Q 4763 1238 4088 619 
Q 3413 0 2209 0 
L 353 0 
z
" transform="scale(0.015625)"/>
        <path id="DejaVuSerif-69" d="M 622 4353 
Q 622 4497 726 4603 
Q 831 4709 978 4709 
Q 1122 4709 1226 4603 
Q 1331 4497 1331 4353 
Q 1331 4206 1228 4103 
Q 1125 4000 978 4000 
Q 831 4000 726 4103 
Q 622 4206 622 4353 
z
M 1356 331 
L 1900 331 
L 1900 0 
L 231 0 
L 231 331 
L 781 331 
L 781 2988 
L 231 2988 
L 231 3322 
L 1356 3322 
L 1356 331 
z
" transform="scale(0.015625)"/>
        <path id="DejaVuSerif-73" d="M 359 184 
L 359 959 
L 691 959 
Q 703 588 923 403 
Q 1144 219 1575 219 
Q 1963 219 2166 364 
Q 2369 509 2369 788 
Q 2369 1006 2220 1140 
Q 2072 1275 1594 1428 
L 1178 1569 
Q 750 1706 558 1912 
Q 366 2119 366 2438 
Q 366 2894 700 3153 
Q 1034 3413 1625 3413 
Q 1888 3413 2178 3344 
Q 2469 3275 2778 3144 
L 2778 2419 
L 2447 2419 
Q 2434 2741 2221 2922 
Q 2009 3103 1644 3103 
Q 1281 3103 1095 2975 
Q 909 2847 909 2591 
Q 909 2381 1050 2254 
Q 1191 2128 1613 1997 
L 2069 1856 
Q 2541 1709 2748 1489 
Q 2956 1269 2956 922 
Q 2956 450 2595 179 
Q 2234 -91 1600 -91 
Q 1278 -91 972 -22 
Q 666 47 359 184 
z
" transform="scale(0.015625)"/>
        <path id="DejaVuSerif-6c" d="M 1313 331 
L 1856 331 
L 1856 0 
L 184 0 
L 184 331 
L 738 331 
L 738 4531 
L 184 4531 
L 184 4863 
L 1313 4863 
L 1313 331 
z
" transform="scale(0.015625)"/>
        <path id="DejaVuSerif-61" d="M 2547 1044 
L 2547 1747 
L 1806 1747 
Q 1378 1747 1168 1562 
Q 959 1378 959 997 
Q 959 650 1171 447 
Q 1384 244 1747 244 
Q 2106 244 2326 466 
Q 2547 688 2547 1044 
z
M 3122 2075 
L 3122 331 
L 3634 331 
L 3634 0 
L 2547 0 
L 2547 359 
Q 2356 128 2106 18 
Q 1856 -91 1522 -91 
Q 969 -91 644 203 
Q 319 497 319 997 
Q 319 1513 691 1797 
Q 1063 2081 1741 2081 
L 2547 2081 
L 2547 2309 
Q 2547 2688 2317 2895 
Q 2088 3103 1672 3103 
Q 1328 3103 1125 2947 
Q 922 2791 872 2484 
L 575 2484 
L 575 3156 
Q 875 3284 1158 3348 
Q 1441 3413 1709 3413 
Q 2400 3413 2761 3070 
Q 3122 2728 3122 2075 
z
" transform="scale(0.015625)"/>
        <path id="DejaVuSerif-6f" d="M 1925 219 
Q 2388 219 2623 584 
Q 2859 950 2859 1663 
Q 2859 2375 2623 2739 
Q 2388 3103 1925 3103 
Q 1463 3103 1227 2739 
Q 991 2375 991 1663 
Q 991 950 1228 584 
Q 1466 219 1925 219 
z
M 1925 -91 
Q 1200 -91 759 389 
Q 319 869 319 1663 
Q 319 2456 758 2934 
Q 1197 3413 1925 3413 
Q 2653 3413 3092 2934 
Q 3531 2456 3531 1663 
Q 3531 869 3092 389 
Q 2653 -91 1925 -91 
z
" transform="scale(0.015625)"/>
        <path id="DejaVuSerif-6e" d="M 263 0 
L 263 331 
L 781 331 
L 781 2988 
L 231 2988 
L 231 3322 
L 1356 3322 
L 1356 2731 
Q 1516 3069 1770 3241 
Q 2025 3413 2363 3413 
Q 2913 3413 3172 3097 
Q 3431 2781 3431 2113 
L 3431 331 
L 3944 331 
L 3944 0 
L 2356 0 
L 2356 331 
L 2853 331 
L 2853 1931 
Q 2853 2541 2703 2767 
Q 2553 2994 2175 2994 
Q 1775 2994 1565 2701 
Q 1356 2409 1356 1850 
L 1356 331 
L 1856 331 
L 1856 0 
L 263 0 
z
" transform="scale(0.015625)"/>
       </defs>
       <use xlink:href="#DejaVuSerif-44"/>
       <use xlink:href="#DejaVuSerif-69" x="80.175781"/>
       <use xlink:href="#DejaVuSerif-73" x="112.158203"/>
       <use xlink:href="#DejaVuSerif-74" x="163.476562"/>
       <use xlink:href="#DejaVuSerif-69" x="203.662109"/>
       <use xlink:href="#DejaVuSerif-6c" x="235.644531"/>
       <use xlink:href="#DejaVuSerif-6c" x="267.626953"/>
       <use xlink:href="#DejaVuSerif-61" x="299.609375"/>
       <use xlink:href="#DejaVuSerif-74" x="359.228516"/>
       <use xlink:href="#DejaVuSerif-69" x="399.414062"/>
       <use xlink:href="#DejaVuSerif-6f" x="431.396484"/>
       <use xlink:href="#DejaVuSerif-6e" x="491.601562"/>
      </g>
     </g>
    </g>
    <g id="xtick_3">
     <g id="line2d_5">
      <path d="M 203.25393 328.217477 
L 203.25393 33.278209 
" clip-path="url(#p1c4f291e67)" style="fill: none; stroke: #e0e0e0; stroke-opacity: 0.7; stroke-width: 0.6; stroke-linecap: square"/>
     </g>
     <g id="line2d_6">
      <g>
       <use xlink:href="#m5720f93a38" x="203.25393" y="328.217477" style="stroke: #000000"/>
      </g>
     </g>
     <g id="text_3">
      <!-- One-Shot -->
      <g transform="translate(161.279502 365.43151) rotate(-30) scale(0.1 -0.1)">
       <defs>
        <path id="DejaVuSerif-4f" d="M 2625 244 
Q 3391 244 3781 770 
Q 4172 1297 4172 2328 
Q 4172 3363 3781 3889 
Q 3391 4416 2625 4416 
Q 1856 4416 1465 3889 
Q 1075 3363 1075 2328 
Q 1075 1297 1465 770 
Q 1856 244 2625 244 
z
M 2625 -91 
Q 2150 -91 1751 65 
Q 1353 222 1050 525 
Q 700 875 529 1319 
Q 359 1763 359 2328 
Q 359 2894 529 3339 
Q 700 3784 1050 4134 
Q 1356 4441 1750 4595 
Q 2144 4750 2625 4750 
Q 3641 4750 4266 4084 
Q 4891 3419 4891 2328 
Q 4891 1769 4719 1320 
Q 4547 872 4197 525 
Q 3891 219 3497 64 
Q 3103 -91 2625 -91 
z
" transform="scale(0.015625)"/>
        <path id="DejaVuSerif-2d" d="M 281 1959 
L 1881 1959 
L 1881 1472 
L 281 1472 
L 281 1959 
z
" transform="scale(0.015625)"/>
        <path id="DejaVuSerif-53" d="M 594 225 
L 594 1288 
L 953 1284 
Q 969 753 1261 498 
Q 1553 244 2150 244 
Q 2706 244 2998 464 
Q 3291 684 3291 1106 
Q 3291 1444 3114 1625 
Q 2938 1806 2369 1978 
L 1753 2163 
Q 1084 2366 811 2669 
Q 538 2972 538 3500 
Q 538 4094 959 4422 
Q 1381 4750 2144 4750 
Q 2469 4750 2856 4679 
Q 3244 4609 3681 4475 
L 3681 3481 
L 3328 3481 
Q 3275 3975 2998 4195 
Q 2722 4416 2156 4416 
Q 1663 4416 1405 4214 
Q 1147 4013 1147 3628 
Q 1147 3294 1340 3103 
Q 1534 2913 2163 2725 
L 2741 2553 
Q 3375 2363 3645 2067 
Q 3916 1772 3916 1275 
Q 3916 597 3481 253 
Q 3047 -91 2188 -91 
Q 1803 -91 1404 -12 
Q 1006 66 594 225 
z
" transform="scale(0.015625)"/>
        <path id="DejaVuSerif-68" d="M 263 0 
L 263 331 
L 781 331 
L 781 4531 
L 231 4531 
L 231 4863 
L 1356 4863 
L 1356 2731 
Q 1516 3069 1770 3241 
Q 2025 3413 2363 3413 
Q 2913 3413 3172 3097 
Q 3431 2781 3431 2113 
L 3431 331 
L 3944 331 
L 3944 0 
L 2356 0 
L 2356 331 
L 2853 331 
L 2853 1931 
Q 2853 2541 2704 2764 
Q 2556 2988 2175 2988 
Q 1775 2988 1565 2697 
Q 1356 2406 1356 1850 
L 1356 331 
L 1856 331 
L 1856 0 
L 263 0 
z
" transform="scale(0.015625)"/>
       </defs>
       <use xlink:href="#DejaVuSerif-4f"/>
       <use xlink:href="#DejaVuSerif-6e" x="81.982422"/>
       <use xlink:href="#DejaVuSerif-65" x="146.386719"/>
       <use xlink:href="#DejaVuSerif-2d" x="205.566406"/>
       <use xlink:href="#DejaVuSerif-53" x="239.355469"/>
       <use xlink:href="#DejaVuSerif-68" x="307.861328"/>
       <use xlink:href="#DejaVuSerif-6f" x="372.265625"/>
       <use xlink:href="#DejaVuSerif-74" x="432.470703"/>
      </g>
     </g>
    </g>
    <g id="xtick_4">
     <g id="line2d_7">
      <path d="M 264.995003 328.217477 
L 264.995003 33.278209 
" clip-path="url(#p1c4f291e67)" style="fill: none; stroke: #e0e0e0; stroke-opacity: 0.7; stroke-width: 0.6; stroke-linecap: square"/>
     </g>
     <g id="line2d_8">
      <g>
       <use xlink:href="#m5720f93a38" x="264.995003" y="328.217477" style="stroke: #000000"/>
      </g>
     </g>
     <g id="text_4">
      <!-- Iterative -->
      <g transform="translate(226.356125 363.505729) rotate(-30) scale(0.1 -0.1)">
       <defs>
        <path id="DejaVuSerif-49" d="M 1581 331 
L 2175 331 
L 2175 0 
L 353 0 
L 353 331 
L 947 331 
L 947 4331 
L 353 4331 
L 353 4666 
L 2175 4666 
L 2175 4331 
L 1581 4331 
L 1581 331 
z
" transform="scale(0.015625)"/>
        <path id="DejaVuSerif-76" d="M 1581 0 
L 359 2988 
L -19 2988 
L -19 3322 
L 1509 3322 
L 1509 2988 
L 978 2988 
L 1913 703 
L 2847 2988 
L 2350 2988 
L 2350 3322 
L 3597 3322 
L 3597 2988 
L 3225 2988 
L 2003 0 
L 1581 0 
z
" transform="scale(0.015625)"/>
       </defs>
       <use xlink:href="#DejaVuSerif-49"/>
       <use xlink:href="#DejaVuSerif-74" x="39.501953"/>
       <use xlink:href="#DejaVuSerif-65" x="79.6875"/>
       <use xlink:href="#DejaVuSerif-72" x="138.867188"/>
       <use xlink:href="#DejaVuSerif-61" x="186.669922"/>
       <use xlink:href="#DejaVuSerif-74" x="246.289062"/>
       <use xlink:href="#DejaVuSerif-69" x="286.474609"/>
       <use xlink:href="#DejaVuSerif-76" x="318.457031"/>
       <use xlink:href="#DejaVuSerif-65" x="374.951172"/>
      </g>
     </g>
    </g>
    <g id="xtick_5">
     <g id="line2d_9">
      <path d="M 326.736075 328.217477 
L 326.736075 33.278209 
" clip-path="url(#p1c4f291e67)" style="fill: none; stroke: #e0e0e0; stroke-opacity: 0.7; stroke-width: 0.6; stroke-linecap: square"/>
     </g>
     <g id="line2d_10">
      <g>
       <use xlink:href="#m5720f93a38" x="326.736075" y="328.217477" style="stroke: #000000"/>
      </g>
     </g>
     <g id="text_5">
      <!-- Hybrid -->
      <g transform="translate(295.182991 359.373698) rotate(-30) scale(0.1 -0.1)">
       <defs>
        <path id="DejaVuSerif-48" d="M 353 0 
L 353 331 
L 947 331 
L 947 4331 
L 353 4331 
L 353 4666 
L 2175 4666 
L 2175 4331 
L 1581 4331 
L 1581 2719 
L 4000 2719 
L 4000 4331 
L 3406 4331 
L 3406 4666 
L 5228 4666 
L 5228 4331 
L 4634 4331 
L 4634 331 
L 5228 331 
L 5228 0 
L 3406 0 
L 3406 331 
L 4000 331 
L 4000 2338 
L 1581 2338 
L 1581 331 
L 2175 331 
L 2175 0 
L 353 0 
z
" transform="scale(0.015625)"/>
        <path id="DejaVuSerif-79" d="M 1381 -609 
L 1600 -56 
L 359 2988 
L -19 2988 
L -19 3322 
L 1509 3322 
L 1509 2988 
L 978 2988 
L 1913 703 
L 2847 2988 
L 2350 2988 
L 2350 3322 
L 3597 3322 
L 3597 2988 
L 3225 2988 
L 1703 -750 
Q 1547 -1138 1356 -1280 
Q 1166 -1422 819 -1422 
Q 672 -1422 517 -1397 
Q 363 -1372 206 -1325 
L 206 -691 
L 500 -691 
Q 519 -903 608 -995 
Q 697 -1088 884 -1088 
Q 1056 -1088 1161 -992 
Q 1266 -897 1381 -609 
z
" transform="scale(0.015625)"/>
        <path id="DejaVuSerif-62" d="M 738 331 
L 738 4531 
L 184 4531 
L 184 4863 
L 1313 4863 
L 1313 2803 
Q 1481 3116 1742 3264 
Q 2003 3413 2388 3413 
Q 3000 3413 3387 2928 
Q 3775 2444 3775 1663 
Q 3775 881 3387 395 
Q 3000 -91 2388 -91 
Q 2003 -91 1742 57 
Q 1481 206 1313 519 
L 1313 0 
L 184 0 
L 184 331 
L 738 331 
z
M 1313 1497 
Q 1313 897 1542 583 
Q 1772 269 2209 269 
Q 2650 269 2876 622 
Q 3103 975 3103 1663 
Q 3103 2353 2876 2703 
Q 2650 3053 2209 3053 
Q 1772 3053 1542 2737 
Q 1313 2422 1313 1825 
L 1313 1497 
z
" transform="scale(0.015625)"/>
        <path id="DejaVuSerif-64" d="M 3359 331 
L 3909 331 
L 3909 0 
L 2784 0 
L 2784 519 
Q 2616 206 2355 57 
Q 2094 -91 1709 -91 
Q 1097 -91 708 395 
Q 319 881 319 1663 
Q 319 2444 706 2928 
Q 1094 3413 1709 3413 
Q 2094 3413 2355 3264 
Q 2616 3116 2784 2803 
L 2784 4531 
L 2241 4531 
L 2241 4863 
L 3359 4863 
L 3359 331 
z
M 2784 1497 
L 2784 1825 
Q 2784 2422 2554 2737 
Q 2325 3053 1888 3053 
Q 1444 3053 1217 2703 
Q 991 2353 991 1663 
Q 991 975 1217 622 
Q 1444 269 1888 269 
Q 2325 269 2554 583 
Q 2784 897 2784 1497 
z
" transform="scale(0.015625)"/>
       </defs>
       <use xlink:href="#DejaVuSerif-48"/>
       <use xlink:href="#DejaVuSerif-79" x="87.207031"/>
       <use xlink:href="#DejaVuSerif-62" x="143.701172"/>
       <use xlink:href="#DejaVuSerif-72" x="207.714844"/>
       <use xlink:href="#DejaVuSerif-69" x="255.517578"/>
       <use xlink:href="#DejaVuSerif-64" x="287.5"/>
      </g>
     </g>
    </g>
   </g>
   <g id="matplotlib.axis_2">
    <g id="ytick_1">
     <g id="line2d_11">
      <path d="M 48.90125 314.811146 
L 357.606611 314.811146 
" clip-path="url(#p1c4f291e67)" style="fill: none; stroke: #e0e0e0; stroke-opacity: 0.7; stroke-width: 0.6; stroke-linecap: square"/>
     </g>
     <g id="line2d_12">
      <defs>
       <path id="m4c079a820c" d="M 0 0 
L -3.5 0 
" style="stroke: #000000"/>
      </defs>
      <g>
       <use xlink:href="#m4c079a820c" x="48.90125" y="314.811146" style="stroke: #000000"/>
      </g>
     </g>
     <g id="text_6">
      <!-- 0 -->
      <g transform="translate(35.53875 318.610365) scale(0.1 -0.1)">
       <defs>
        <path id="DejaVuSerif-30" d="M 2034 219 
Q 2513 219 2750 744 
Q 2988 1269 2988 2328 
Q 2988 3391 2750 3916 
Q 2513 4441 2034 4441 
Q 1556 4441 1318 3916 
Q 1081 3391 1081 2328 
Q 1081 1269 1318 744 
Q 1556 219 2034 219 
z
M 2034 -91 
Q 1275 -91 848 546 
Q 422 1184 422 2328 
Q 422 3475 848 4112 
Q 1275 4750 2034 4750 
Q 2797 4750 3222 4112 
Q 3647 3475 3647 2328 
Q 3647 1184 3222 546 
Q 2797 -91 2034 -91 
z
" transform="scale(0.015625)"/>
       </defs>
       <use xlink:href="#DejaVuSerif-30"/>
      </g>
     </g>
    </g>
    <g id="ytick_2">
     <g id="line2d_13">
      <path d="M 48.90125 281.709096 
L 357.606611 281.709096 
" clip-path="url(#p1c4f291e67)" style="fill: none; stroke: #e0e0e0; stroke-opacity: 0.7; stroke-width: 0.6; stroke-linecap: square"/>
     </g>
     <g id="line2d_14">
      <g>
       <use xlink:href="#m4c079a820c" x="48.90125" y="281.709096" style="stroke: #000000"/>
      </g>
     </g>
     <g id="text_7">
      <!-- 50 -->
      <g transform="translate(29.17625 285.508315) scale(0.1 -0.1)">
       <defs>
        <path id="DejaVuSerif-35" d="M 3219 4666 
L 3219 4153 
L 1081 4153 
L 1081 2816 
Q 1244 2928 1461 2984 
Q 1678 3041 1947 3041 
Q 2703 3041 3140 2622 
Q 3578 2203 3578 1478 
Q 3578 738 3136 323 
Q 2694 -91 1894 -91 
Q 1572 -91 1234 -12 
Q 897 66 544 225 
L 544 1131 
L 897 1131 
Q 925 688 1179 453 
Q 1434 219 1894 219 
Q 2388 219 2653 544 
Q 2919 869 2919 1478 
Q 2919 2084 2655 2407 
Q 2391 2731 1894 2731 
Q 1613 2731 1398 2631 
Q 1184 2531 1019 2322 
L 750 2322 
L 750 4666 
L 3219 4666 
z
" transform="scale(0.015625)"/>
       </defs>
       <use xlink:href="#DejaVuSerif-35"/>
       <use xlink:href="#DejaVuSerif-30" x="63.623047"/>
      </g>
     </g>
    </g>
    <g id="ytick_3">
     <g id="line2d_15">
      <path d="M 48.90125 248.607046 
L 357.606611 248.607046 
" clip-path="url(#p1c4f291e67)" style="fill: none; stroke: #e0e0e0; stroke-opacity: 0.7; stroke-width: 0.6; stroke-linecap: square"/>
     </g>
     <g id="line2d_16">
      <g>
       <use xlink:href="#m4c079a820c" x="48.90125" y="248.607046" style="stroke: #000000"/>
      </g>
     </g>
     <g id="text_8">
      <!-- 100 -->
      <g transform="translate(22.81375 252.406264) scale(0.1 -0.1)">
       <defs>
        <path id="DejaVuSerif-31" d="M 909 0 
L 909 331 
L 1722 331 
L 1722 4213 
L 781 3603 
L 781 4013 
L 1919 4750 
L 2350 4750 
L 2350 331 
L 3163 331 
L 3163 0 
L 909 0 
z
" transform="scale(0.015625)"/>
       </defs>
       <use xlink:href="#DejaVuSerif-31"/>
       <use xlink:href="#DejaVuSerif-30" x="63.623047"/>
       <use xlink:href="#DejaVuSerif-30" x="127.246094"/>
      </g>
     </g>
    </g>
    <g id="ytick_4">
     <g id="line2d_17">
      <path d="M 48.90125 215.504995 
L 357.606611 215.504995 
" clip-path="url(#p1c4f291e67)" style="fill: none; stroke: #e0e0e0; stroke-opacity: 0.7; stroke-width: 0.6; stroke-linecap: square"/>
     </g>
     <g id="line2d_18">
      <g>
       <use xlink:href="#m4c079a820c" x="48.90125" y="215.504995" style="stroke: #000000"/>
      </g>
     </g>
     <g id="text_9">
      <!-- 150 -->
      <g transform="translate(22.81375 219.304214) scale(0.1 -0.1)">
       <use xlink:href="#DejaVuSerif-31"/>
       <use xlink:href="#DejaVuSerif-35" x="63.623047"/>
       <use xlink:href="#DejaVuSerif-30" x="127.246094"/>
      </g>
     </g>
    </g>
    <g id="ytick_5">
     <g id="line2d_19">
      <path d="M 48.90125 182.402945 
L 357.606611 182.402945 
" clip-path="url(#p1c4f291e67)" style="fill: none; stroke: #e0e0e0; stroke-opacity: 0.7; stroke-width: 0.6; stroke-linecap: square"/>
     </g>
     <g id="line2d_20">
      <g>
       <use xlink:href="#m4c079a820c" x="48.90125" y="182.402945" style="stroke: #000000"/>
      </g>
     </g>
     <g id="text_10">
      <!-- 200 -->
      <g transform="translate(22.81375 186.202164) scale(0.1 -0.1)">
       <defs>
        <path id="DejaVuSerif-32" d="M 819 3553 
L 469 3553 
L 469 4384 
Q 803 4563 1142 4656 
Q 1481 4750 1806 4750 
Q 2534 4750 2956 4397 
Q 3378 4044 3378 3438 
Q 3378 2753 2422 1800 
Q 2347 1728 2309 1691 
L 1131 513 
L 3078 513 
L 3078 1088 
L 3444 1088 
L 3444 0 
L 434 0 
L 434 341 
L 1850 1753 
Q 2319 2222 2519 2614 
Q 2719 3006 2719 3438 
Q 2719 3909 2473 4175 
Q 2228 4441 1797 4441 
Q 1350 4441 1106 4219 
Q 863 3997 819 3553 
z
" transform="scale(0.015625)"/>
       </defs>
       <use xlink:href="#DejaVuSerif-32"/>
       <use xlink:href="#DejaVuSerif-30" x="63.623047"/>
       <use xlink:href="#DejaVuSerif-30" x="127.246094"/>
      </g>
     </g>
    </g>
    <g id="ytick_6">
     <g id="line2d_21">
      <path d="M 48.90125 149.300895 
L 357.606611 149.300895 
" clip-path="url(#p1c4f291e67)" style="fill: none; stroke: #e0e0e0; stroke-opacity: 0.7; stroke-width: 0.6; stroke-linecap: square"/>
     </g>
     <g id="line2d_22">
      <g>
       <use xlink:href="#m4c079a820c" x="48.90125" y="149.300895" style="stroke: #000000"/>
      </g>
     </g>
     <g id="text_11">
      <!-- 250 -->
      <g transform="translate(22.81375 153.100114) scale(0.1 -0.1)">
       <use xlink:href="#DejaVuSerif-32"/>
       <use xlink:href="#DejaVuSerif-35" x="63.623047"/>
       <use xlink:href="#DejaVuSerif-30" x="127.246094"/>
      </g>
     </g>
    </g>
    <g id="ytick_7">
     <g id="line2d_23">
      <path d="M 48.90125 116.198845 
L 357.606611 116.198845 
" clip-path="url(#p1c4f291e67)" style="fill: none; stroke: #e0e0e0; stroke-opacity: 0.7; stroke-width: 0.6; stroke-linecap: square"/>
     </g>
     <g id="line2d_24">
      <g>
       <use xlink:href="#m4c079a820c" x="48.90125" y="116.198845" style="stroke: #000000"/>
      </g>
     </g>
     <g id="text_12">
      <!-- 300 -->
      <g transform="translate(22.81375 119.998063) scale(0.1 -0.1)">
       <defs>
        <path id="DejaVuSerif-33" d="M 622 4469 
Q 988 4606 1323 4678 
Q 1659 4750 1953 4750 
Q 2638 4750 3022 4454 
Q 3406 4159 3406 3634 
Q 3406 3213 3140 2930 
Q 2875 2647 2388 2547 
Q 2963 2466 3280 2130 
Q 3597 1794 3597 1259 
Q 3597 606 3158 257 
Q 2719 -91 1894 -91 
Q 1528 -91 1179 -12 
Q 831 66 488 225 
L 488 1131 
L 838 1131 
Q 869 681 1141 450 
Q 1413 219 1906 219 
Q 2384 219 2661 495 
Q 2938 772 2938 1253 
Q 2938 1803 2653 2086 
Q 2369 2369 1819 2369 
L 1522 2369 
L 1522 2688 
L 1678 2688 
Q 2225 2688 2498 2914 
Q 2772 3141 2772 3597 
Q 2772 4006 2547 4223 
Q 2322 4441 1900 4441 
Q 1478 4441 1245 4241 
Q 1013 4041 972 3647 
L 622 3647 
L 622 4469 
z
" transform="scale(0.015625)"/>
       </defs>
       <use xlink:href="#DejaVuSerif-33"/>
       <use xlink:href="#DejaVuSerif-30" x="63.623047"/>
       <use xlink:href="#DejaVuSerif-30" x="127.246094"/>
      </g>
     </g>
    </g>
    <g id="ytick_8">
     <g id="line2d_25">
      <path d="M 48.90125 83.096794 
L 357.606611 83.096794 
" clip-path="url(#p1c4f291e67)" style="fill: none; stroke: #e0e0e0; stroke-opacity: 0.7; stroke-width: 0.6; stroke-linecap: square"/>
     </g>
     <g id="line2d_26">
      <g>
       <use xlink:href="#m4c079a820c" x="48.90125" y="83.096794" style="stroke: #000000"/>
      </g>
     </g>
     <g id="text_13">
      <!-- 350 -->
      <g transform="translate(22.81375 86.896013) scale(0.1 -0.1)">
       <use xlink:href="#DejaVuSerif-33"/>
       <use xlink:href="#DejaVuSerif-35" x="63.623047"/>
       <use xlink:href="#DejaVuSerif-30" x="127.246094"/>
      </g>
     </g>
    </g>
    <g id="ytick_9">
     <g id="line2d_27">
      <path d="M 48.90125 49.994744 
L 357.606611 49.994744 
" clip-path="url(#p1c4f291e67)" style="fill: none; stroke: #e0e0e0; stroke-opacity: 0.7; stroke-width: 0.6; stroke-linecap: square"/>
     </g>
     <g id="line2d_28">
      <g>
       <use xlink:href="#m4c079a820c" x="48.90125" y="49.994744" style="stroke: #000000"/>
      </g>
     </g>
     <g id="text_14">
      <!-- 400 -->
      <g transform="translate(22.81375 53.793963) scale(0.1 -0.1)">
       <defs>
        <path id="DejaVuSerif-34" d="M 2234 1581 
L 2234 4063 
L 641 1581 
L 2234 1581 
z
M 3609 0 
L 1484 0 
L 1484 331 
L 2234 331 
L 2234 1247 
L 197 1247 
L 197 1588 
L 2241 4750 
L 2859 4750 
L 2859 1581 
L 3750 1581 
L 3750 1247 
L 2859 1247 
L 2859 331 
L 3609 331 
L 3609 0 
z
" transform="scale(0.015625)"/>
       </defs>
       <use xlink:href="#DejaVuSerif-34"/>
       <use xlink:href="#DejaVuSerif-30" x="63.623047"/>
       <use xlink:href="#DejaVuSerif-30" x="127.246094"/>
      </g>
     </g>
    </g>
    <g id="text_15">
     <!-- Episode Reward -->
     <g transform="translate(16.318125 230.36878) rotate(-90) scale(0.12 -0.12)">
      <defs>
       <path id="DejaVuSerif-20" transform="scale(0.015625)"/>
       <path id="DejaVuSerif-52" d="M 3066 2316 
Q 3284 2256 3442 2114 
Q 3600 1972 3725 1716 
L 4403 331 
L 4972 331 
L 4972 0 
L 3872 0 
L 3144 1484 
Q 2934 1916 2759 2042 
Q 2584 2169 2278 2169 
L 1581 2169 
L 1581 331 
L 2241 331 
L 2241 0 
L 353 0 
L 353 331 
L 947 331 
L 947 4331 
L 353 4331 
L 353 4666 
L 2719 4666 
Q 3400 4666 3770 4341 
Q 4141 4016 4141 3419 
Q 4141 2938 3870 2661 
Q 3600 2384 3066 2316 
z
M 1581 2503 
L 2503 2503 
Q 2975 2503 3200 2726 
Q 3425 2950 3425 3419 
Q 3425 3888 3200 4109 
Q 2975 4331 2503 4331 
L 1581 4331 
L 1581 2503 
z
" transform="scale(0.015625)"/>
       <path id="DejaVuSerif-77" d="M 3072 3322 
L 3922 728 
L 4672 2988 
L 4191 2988 
L 4191 3322 
L 5394 3322 
L 5394 2988 
L 5025 2988 
L 4038 0 
L 3559 0 
L 2741 2484 
L 1919 0 
L 1459 0 
L 475 2988 
L 103 2988 
L 103 3322 
L 1606 3322 
L 1606 2988 
L 1069 2988 
L 1813 728 
L 2669 3322 
L 3072 3322 
z
" transform="scale(0.015625)"/>
      </defs>
      <use xlink:href="#DejaVuSerif-45"/>
      <use xlink:href="#DejaVuSerif-70" x="72.998047"/>
      <use xlink:href="#DejaVuSerif-69" x="137.011719"/>
      <use xlink:href="#DejaVuSerif-73" x="168.994141"/>
      <use xlink:href="#DejaVuSerif-6f" x="220.3125"/>
      <use xlink:href="#DejaVuSerif-64" x="280.517578"/>
      <use xlink:href="#DejaVuSerif-65" x="344.53125"/>
      <use xlink:href="#DejaVuSerif-20" x="403.710938"/>
      <use xlink:href="#DejaVuSerif-52" x="435.498047"/>
      <use xlink:href="#DejaVuSerif-65" x="510.791016"/>
      <use xlink:href="#DejaVuSerif-77" x="569.970703"/>
      <use xlink:href="#DejaVuSerif-61" x="655.566406"/>
      <use xlink:href="#DejaVuSerif-72" x="715.185547"/>
      <use xlink:href="#DejaVuSerif-64" x="762.988281"/>
     </g>
    </g>
   </g>
   <g id="patch_3">
    <path d="M 62.792991 48.670662 
L 96.750581 48.670662 
L 96.750581 48.388158 
L 88.261184 48.008621 
L 96.750581 47.629084 
L 96.750581 47.34658 
L 62.792991 47.34658 
L 62.792991 47.629084 
L 71.282389 48.008621 
L 62.792991 48.388158 
L 62.792991 48.670662 
z
" clip-path="url(#p1c4f291e67)" style="fill: #a8d8ea; stroke: #1a1a1a; stroke-width: 1.2; stroke-linejoin: miter"/>
   </g>
   <g id="line2d_29">
    <path d="M 79.771786 48.670662 
L 79.771786 48.670662 
" clip-path="url(#p1c4f291e67)" style="fill: none; stroke: #1a1a1a; stroke-linecap: square"/>
   </g>
   <g id="line2d_30">
    <path d="M 79.771786 47.34658 
L 79.771786 46.684539 
" clip-path="url(#p1c4f291e67)" style="fill: none; stroke: #1a1a1a; stroke-linecap: square"/>
   </g>
   <g id="line2d_31">
    <path d="M 71.282389 48.670662 
L 88.261184 48.670662 
" clip-path="url(#p1c4f291e67)" style="fill: none; stroke: #1a1a1a; stroke-linecap: square"/>
   </g>
   <g id="line2d_32">
    <path d="M 71.282389 46.684539 
L 88.261184 46.684539 
" clip-path="url(#p1c4f291e67)" style="fill: none; stroke: #1a1a1a; stroke-linecap: square"/>
   </g>
   <g id="line2d_33">
    <defs>
     <path id="m44f45b8c49" d="M 0 2 
C 0.530406 2 1.03916 1.789267 1.414214 1.414214 
C 1.789267 1.03916 2 0.530406 2 0 
C 2 -0.530406 1.789267 -1.03916 1.414214 -1.414214 
C 1.03916 -1.789267 0.530406 -2 0 -2 
C -0.530406 -2 -1.03916 -1.789267 -1.414214 -1.414214 
C -1.789267 -1.03916 -2 -0.530406 -2 0 
C -2 0.530406 -1.789267 1.03916 -1.414214 1.414214 
C -1.03916 1.789267 -0.530406 2 0 2 
z
" style="stroke: #1a1a1a; stroke-opacity: 0.6"/>
    </defs>
    <g clip-path="url(#p1c4f291e67)">
     <use xlink:href="#m44f45b8c49" x="79.771786" y="105.606189" style="fill: #cccccc; fill-opacity: 0.6; stroke: #1a1a1a; stroke-opacity: 0.6"/>
     <use xlink:href="#m44f45b8c49" x="79.771786" y="105.606189" style="fill: #cccccc; fill-opacity: 0.6; stroke: #1a1a1a; stroke-opacity: 0.6"/>
     <use xlink:href="#m44f45b8c49" x="79.771786" y="105.606189" style="fill: #cccccc; fill-opacity: 0.6; stroke: #1a1a1a; stroke-opacity: 0.6"/>
     <use xlink:href="#m44f45b8c49" x="79.771786" y="105.606189" style="fill: #cccccc; fill-opacity: 0.6; stroke: #1a1a1a; stroke-opacity: 0.6"/>
     <use xlink:href="#m44f45b8c49" x="79.771786" y="105.606189" style="fill: #cccccc; fill-opacity: 0.6; stroke: #1a1a1a; stroke-opacity: 0.6"/>
     <use xlink:href="#m44f45b8c49" x="79.771786" y="105.606189" style="fill: #cccccc; fill-opacity: 0.6; stroke: #1a1a1a; stroke-opacity: 0.6"/>
    </g>
   </g>
   <g id="patch_4">
    <path d="M 124.534063 314.811146 
L 158.491653 314.811146 
L 158.491653 311.977511 
L 150.002256 310.8389 
L 158.491653 309.70029 
L 158.491653 310.8389 
L 124.534063 310.8389 
L 124.534063 309.70029 
L 133.023461 310.8389 
L 124.534063 311.977511 
L 124.534063 314.811146 
z
" clip-path="url(#p1c4f291e67)" style="fill: #f4b6c2; stroke: #1a1a1a; stroke-width: 1.2; stroke-linejoin: miter"/>
   </g>
   <g id="line2d_34">
    <path d="M 141.512858 314.811146 
L 141.512858 314.811146 
" clip-path="url(#p1c4f291e67)" style="fill: none; stroke: #1a1a1a; stroke-linecap: square"/>
   </g>
   <g id="line2d_35">
    <path d="M 141.512858 310.8389 
L 141.512858 310.8389 
" clip-path="url(#p1c4f291e67)" style="fill: none; stroke: #1a1a1a; stroke-linecap: square"/>
   </g>
   <g id="line2d_36">
    <path d="M 133.023461 314.811146 
L 150.002256 314.811146 
" clip-path="url(#p1c4f291e67)" style="fill: none; stroke: #1a1a1a; stroke-linecap: square"/>
   </g>
   <g id="line2d_37">
    <path d="M 133.023461 310.8389 
L 150.002256 310.8389 
" clip-path="url(#p1c4f291e67)" style="fill: none; stroke: #1a1a1a; stroke-linecap: square"/>
   </g>
   <g id="line2d_38"/>
   <g id="patch_5">
    <path d="M 186.275136 314.811146 
L 220.232725 314.811146 
L 220.232725 316.092083 
L 211.743328 314.811146 
L 220.232725 313.53021 
L 220.232725 310.342369 
L 186.275136 310.342369 
L 186.275136 313.53021 
L 194.764533 314.811146 
L 186.275136 316.092083 
L 186.275136 314.811146 
z
" clip-path="url(#p1c4f291e67)" style="fill: #b5ead7; stroke: #1a1a1a; stroke-width: 1.2; stroke-linejoin: miter"/>
   </g>
   <g id="line2d_39">
    <path d="M 203.25393 314.811146 
L 203.25393 314.811146 
" clip-path="url(#p1c4f291e67)" style="fill: none; stroke: #1a1a1a; stroke-linecap: square"/>
   </g>
   <g id="line2d_40">
    <path d="M 203.25393 310.342369 
L 203.25393 308.852777 
" clip-path="url(#p1c4f291e67)" style="fill: none; stroke: #1a1a1a; stroke-linecap: square"/>
   </g>
   <g id="line2d_41">
    <path d="M 194.764533 314.811146 
L 211.743328 314.811146 
" clip-path="url(#p1c4f291e67)" style="fill: none; stroke: #1a1a1a; stroke-linecap: square"/>
   </g>
   <g id="line2d_42">
    <path d="M 194.764533 308.852777 
L 211.743328 308.852777 
" clip-path="url(#p1c4f291e67)" style="fill: none; stroke: #1a1a1a; stroke-linecap: square"/>
   </g>
   <g id="line2d_43"/>
   <g id="patch_6">
    <path d="M 248.016208 314.811146 
L 281.973797 314.811146 
L 281.973797 316.519062 
L 273.4844 314.811146 
L 281.973797 313.103231 
L 281.973797 308.852777 
L 248.016208 308.852777 
L 248.016208 313.103231 
L 256.505605 314.811146 
L 248.016208 316.519062 
L 248.016208 314.811146 
z
" clip-path="url(#p1c4f291e67)" style="fill: #ffeead; stroke: #1a1a1a; stroke-width: 1.2; stroke-linejoin: miter"/>
   </g>
   <g id="line2d_44">
    <path d="M 264.995003 314.811146 
L 264.995003 314.811146 
" clip-path="url(#p1c4f291e67)" style="fill: none; stroke: #1a1a1a; stroke-linecap: square"/>
   </g>
   <g id="line2d_45">
    <path d="M 264.995003 308.852777 
L 264.995003 308.852777 
" clip-path="url(#p1c4f291e67)" style="fill: none; stroke: #1a1a1a; stroke-linecap: square"/>
   </g>
   <g id="line2d_46">
    <path d="M 256.505605 314.811146 
L 273.4844 314.811146 
" clip-path="url(#p1c4f291e67)" style="fill: none; stroke: #1a1a1a; stroke-linecap: square"/>
   </g>
   <g id="line2d_47">
    <path d="M 256.505605 308.852777 
L 273.4844 308.852777 
" clip-path="url(#p1c4f291e67)" style="fill: none; stroke: #1a1a1a; stroke-linecap: square"/>
   </g>
   <g id="line2d_48"/>
   <g id="patch_7">
    <path d="M 309.75728 313.818085 
L 343.71487 313.818085 
L 343.71487 311.220585 
L 335.225472 310.176859 
L 343.71487 309.133133 
L 343.71487 310.176859 
L 309.75728 310.176859 
L 309.75728 309.133133 
L 318.246677 310.176859 
L 309.75728 311.220585 
L 309.75728 313.818085 
z
" clip-path="url(#p1c4f291e67)" style="fill: #c3b1e1; stroke: #1a1a1a; stroke-width: 1.2; stroke-linejoin: miter"/>
   </g>
   <g id="line2d_49">
    <path d="M 326.736075 313.818085 
L 326.736075 314.149105 
" clip-path="url(#p1c4f291e67)" style="fill: none; stroke: #1a1a1a; stroke-linecap: square"/>
   </g>
   <g id="line2d_50">
    <path d="M 326.736075 310.176859 
L 326.736075 308.190736 
" clip-path="url(#p1c4f291e67)" style="fill: none; stroke: #1a1a1a; stroke-linecap: square"/>
   </g>
   <g id="line2d_51">
    <path d="M 318.246677 314.149105 
L 335.225472 314.149105 
" clip-path="url(#p1c4f291e67)" style="fill: none; stroke: #1a1a1a; stroke-linecap: square"/>
   </g>
   <g id="line2d_52">
    <path d="M 318.246677 308.190736 
L 335.225472 308.190736 
" clip-path="url(#p1c4f291e67)" style="fill: none; stroke: #1a1a1a; stroke-linecap: square"/>
   </g>
   <g id="line2d_53"/>
   <g id="line2d_54">
    <path d="M 71.282389 48.008621 
L 88.261184 48.008621 
" clip-path="url(#p1c4f291e67)" style="fill: none; stroke: #000000; stroke-width: 1.5"/>
   </g>
   <g id="line2d_55">
    <path d="M 133.023461 310.8389 
L 150.002256 310.8389 
" clip-path="url(#p1c4f291e67)" style="fill: none; stroke: #000000; stroke-width: 1.5"/>
   </g>
   <g id="line2d_56">
    <path d="M 194.764533 314.811146 
L 211.743328 314.811146 
" clip-path="url(#p1c4f291e67)" style="fill: none; stroke: #000000; stroke-width: 1.5"/>
   </g>
   <g id="line2d_57">
    <path d="M 256.505605 314.811146 
L 273.4844 314.811146 
" clip-path="url(#p1c4f291e67)" style="fill: none; stroke: #000000; stroke-width: 1.5"/>
   </g>
   <g id="line2d_58">
    <path d="M 318.246677 310.176859 
L 335.225472 310.176859 
" clip-path="url(#p1c4f291e67)" style="fill: none; stroke: #000000; stroke-width: 1.5"/>
   </g>
   <g id="patch_8">
    <path d="M 48.90125 328.217477 
L 48.90125 33.278209 
" style="fill: none; stroke: #1a1a1a; stroke-width: 1.2; stroke-linejoin: miter; stroke-linecap: square"/>
   </g>
   <g id="patch_9">
    <path d="M 357.606611 328.217477 
L 357.606611 33.278209 
" style="fill: none; stroke: #1a1a1a; stroke-width: 1.2; stroke-linejoin: miter; stroke-linecap: square"/>
   </g>
   <g id="patch_10">
    <path d="M 48.90125 328.217477 
L 357.606611 328.217477 
" style="fill: none; stroke: #1a1a1a; stroke-width: 1.2; stroke-linejoin: miter; stroke-linecap: square"/>
   </g>
   <g id="patch_11">
    <path d="M 48.90125 33.278209 
L 357.606611 33.278209 
" style="fill: none; stroke: #1a1a1a; stroke-width: 1.2; stroke-linejoin: miter; stroke-linecap: square"/>
   </g>
   <g id="text_16">
    <!-- Breakout -->
    <g transform="translate(172.997446 27.278209) scale(0.13 -0.13)">
     <defs>
      <path id="DejaVuSerif-42" d="M 1581 331 
L 2516 331 
Q 3078 331 3337 575 
Q 3597 819 3597 1350 
Q 3597 1878 3339 2120 
Q 3081 2363 2516 2363 
L 1581 2363 
L 1581 331 
z
M 1581 2694 
L 2375 2694 
Q 2888 2694 3123 2891 
Q 3359 3088 3359 3513 
Q 3359 3941 3123 4136 
Q 2888 4331 2375 4331 
L 1581 4331 
L 1581 2694 
z
M 353 0 
L 353 331 
L 947 331 
L 947 4331 
L 353 4331 
L 353 4666 
L 2656 4666 
Q 3363 4666 3720 4377 
Q 4078 4088 4078 3513 
Q 4078 3097 3829 2850 
Q 3581 2603 3103 2547 
Q 3697 2472 4005 2167 
Q 4313 1863 4313 1350 
Q 4313 656 3875 328 
Q 3438 0 2509 0 
L 353 0 
z
" transform="scale(0.015625)"/>
      <path id="DejaVuSerif-6b" d="M 1831 0 
L 219 0 
L 219 331 
L 738 331 
L 738 4531 
L 184 4531 
L 184 4863 
L 1313 4863 
L 1313 1697 
L 2713 2988 
L 2234 2988 
L 2234 3322 
L 3738 3322 
L 3738 2988 
L 3169 2988 
L 2181 2075 
L 3444 331 
L 3922 331 
L 3922 0 
L 2284 0 
L 2284 331 
L 2759 331 
L 1766 1697 
L 1313 1275 
L 1313 331 
L 1831 331 
L 1831 0 
z
" transform="scale(0.015625)"/>
      <path id="DejaVuSerif-75" d="M 2266 3322 
L 3341 3322 
L 3341 331 
L 3884 331 
L 3884 0 
L 2766 0 
L 2766 588 
Q 2606 256 2353 82 
Q 2100 -91 1766 -91 
Q 1213 -91 952 223 
Q 691 538 691 1209 
L 691 2988 
L 172 2988 
L 172 3322 
L 1269 3322 
L 1269 1388 
Q 1269 781 1417 556 
Q 1566 331 1947 331 
Q 2347 331 2556 625 
Q 2766 919 2766 1478 
L 2766 2988 
L 2266 2988 
L 2266 3322 
z
" transform="scale(0.015625)"/>
     </defs>
     <use xlink:href="#DejaVuSerif-42"/>
     <use xlink:href="#DejaVuSerif-72" x="73.486328"/>
     <use xlink:href="#DejaVuSerif-65" x="121.289062"/>
     <use xlink:href="#DejaVuSerif-61" x="180.46875"/>
     <use xlink:href="#DejaVuSerif-6b" x="240.087891"/>
     <use xlink:href="#DejaVuSerif-6f" x="300.683594"/>
     <use xlink:href="#DejaVuSerif-75" x="360.888672"/>
     <use xlink:href="#DejaVuSerif-74" x="425.292969"/>
    </g>
   </g>
  </g>
  <g id="axes_2">
   <g id="patch_12">
    <path d="M 412.870361 328.217477 
L 721.575722 328.217477 
L 721.575722 33.278209 
L 412.870361 33.278209 
z
" style="fill: #fafafa"/>
   </g>
   <g id="matplotlib.axis_3">
    <g id="xtick_6">
     <g id="line2d_59">
      <path d="M 443.740897 328.217477 
L 443.740897 33.278209 
" clip-path="url(#pfe486e6e0c)" style="fill: none; stroke: #e0e0e0; stroke-opacity: 0.7; stroke-width: 0.6; stroke-linecap: square"/>
     </g>
     <g id="line2d_60">
      <g>
       <use xlink:href="#m5720f93a38" x="443.740897" y="328.217477" style="stroke: #000000"/>
      </g>
     </g>
     <g id="text_17">
      <!-- Expert -->
      <g transform="translate(413.206122 358.826823) rotate(-30) scale(0.1 -0.1)">
       <use xlink:href="#DejaVuSerif-45"/>
       <use xlink:href="#DejaVuSerif-78" x="72.998047"/>
       <use xlink:href="#DejaVuSerif-70" x="129.394531"/>
       <use xlink:href="#DejaVuSerif-65" x="193.408203"/>
       <use xlink:href="#DejaVuSerif-72" x="252.587891"/>
       <use xlink:href="#DejaVuSerif-74" x="300.390625"/>
      </g>
     </g>
    </g>
    <g id="xtick_7">
     <g id="line2d_61">
      <path d="M 505.481969 328.217477 
L 505.481969 33.278209 
" clip-path="url(#pfe486e6e0c)" style="fill: none; stroke: #e0e0e0; stroke-opacity: 0.7; stroke-width: 0.6; stroke-linecap: square"/>
     </g>
     <g id="line2d_62">
      <g>
       <use xlink:href="#m5720f93a38" x="505.481969" y="328.217477" style="stroke: #000000"/>
      </g>
     </g>
     <g id="text_18">
      <!-- Distillation -->
      <g transform="translate(456.28976 369.598698) rotate(-30) scale(0.1 -0.1)">
       <use xlink:href="#DejaVuSerif-44"/>
       <use xlink:href="#DejaVuSerif-69" x="80.175781"/>
       <use xlink:href="#DejaVuSerif-73" x="112.158203"/>
       <use xlink:href="#DejaVuSerif-74" x="163.476562"/>
       <use xlink:href="#DejaVuSerif-69" x="203.662109"/>
       <use xlink:href="#DejaVuSerif-6c" x="235.644531"/>
       <use xlink:href="#DejaVuSerif-6c" x="267.626953"/>
       <use xlink:href="#DejaVuSerif-61" x="299.609375"/>
       <use xlink:href="#DejaVuSerif-74" x="359.228516"/>
       <use xlink:href="#DejaVuSerif-69" x="399.414062"/>
       <use xlink:href="#DejaVuSerif-6f" x="431.396484"/>
       <use xlink:href="#DejaVuSerif-6e" x="491.601562"/>
      </g>
     </g>
    </g>
    <g id="xtick_8">
     <g id="line2d_63">
      <path d="M 567.223041 328.217477 
L 567.223041 33.278209 
" clip-path="url(#pfe486e6e0c)" style="fill: none; stroke: #e0e0e0; stroke-opacity: 0.7; stroke-width: 0.6; stroke-linecap: square"/>
     </g>
     <g id="line2d_64">
      <g>
       <use xlink:href="#m5720f93a38" x="567.223041" y="328.217477" style="stroke: #000000"/>
      </g>
     </g>
     <g id="text_19">
      <!-- One-Shot -->
      <g transform="translate(525.248612 365.43151) rotate(-30) scale(0.1 -0.1)">
       <use xlink:href="#DejaVuSerif-4f"/>
       <use xlink:href="#DejaVuSerif-6e" x="81.982422"/>
       <use xlink:href="#DejaVuSerif-65" x="146.386719"/>
       <use xlink:href="#DejaVuSerif-2d" x="205.566406"/>
       <use xlink:href="#DejaVuSerif-53" x="239.355469"/>
       <use xlink:href="#DejaVuSerif-68" x="307.861328"/>
       <use xlink:href="#DejaVuSerif-6f" x="372.265625"/>
       <use xlink:href="#DejaVuSerif-74" x="432.470703"/>
      </g>
     </g>
    </g>
    <g id="xtick_9">
     <g id="line2d_65">
      <path d="M 628.964113 328.217477 
L 628.964113 33.278209 
" clip-path="url(#pfe486e6e0c)" style="fill: none; stroke: #e0e0e0; stroke-opacity: 0.7; stroke-width: 0.6; stroke-linecap: square"/>
     </g>
     <g id="line2d_66">
      <g>
       <use xlink:href="#m5720f93a38" x="628.964113" y="328.217477" style="stroke: #000000"/>
      </g>
     </g>
     <g id="text_20">
      <!-- Iterative -->
      <g transform="translate(590.325235 363.505729) rotate(-30) scale(0.1 -0.1)">
       <use xlink:href="#DejaVuSerif-49"/>
       <use xlink:href="#DejaVuSerif-74" x="39.501953"/>
       <use xlink:href="#DejaVuSerif-65" x="79.6875"/>
       <use xlink:href="#DejaVuSerif-72" x="138.867188"/>
       <use xlink:href="#DejaVuSerif-61" x="186.669922"/>
       <use xlink:href="#DejaVuSerif-74" x="246.289062"/>
       <use xlink:href="#DejaVuSerif-69" x="286.474609"/>
       <use xlink:href="#DejaVuSerif-76" x="318.457031"/>
       <use xlink:href="#DejaVuSerif-65" x="374.951172"/>
      </g>
     </g>
    </g>
    <g id="xtick_10">
     <g id="line2d_67">
      <path d="M 690.705186 328.217477 
L 690.705186 33.278209 
" clip-path="url(#pfe486e6e0c)" style="fill: none; stroke: #e0e0e0; stroke-opacity: 0.7; stroke-width: 0.6; stroke-linecap: square"/>
     </g>
     <g id="line2d_68">
      <g>
       <use xlink:href="#m5720f93a38" x="690.705186" y="328.217477" style="stroke: #000000"/>
      </g>
     </g>
     <g id="text_21">
      <!-- Hybrid -->
      <g transform="translate(659.152102 359.373698) rotate(-30) scale(0.1 -0.1)">
       <use xlink:href="#DejaVuSerif-48"/>
       <use xlink:href="#DejaVuSerif-79" x="87.207031"/>
       <use xlink:href="#DejaVuSerif-62" x="143.701172"/>
       <use xlink:href="#DejaVuSerif-72" x="207.714844"/>
       <use xlink:href="#DejaVuSerif-69" x="255.517578"/>
       <use xlink:href="#DejaVuSerif-64" x="287.5"/>
      </g>
     </g>
    </g>
   </g>
   <g id="matplotlib.axis_4">
    <g id="ytick_10">
     <g id="line2d_69">
      <path d="M 412.870361 314.811146 
L 721.575722 314.811146 
" clip-path="url(#pfe486e6e0c)" style="fill: none; stroke: #e0e0e0; stroke-opacity: 0.7; stroke-width: 0.6; stroke-linecap: square"/>
     </g>
     <g id="line2d_70">
      <g>
       <use xlink:href="#m4c079a820c" x="412.870361" y="314.811146" style="stroke: #000000"/>
      </g>
     </g>
     <g id="text_22">
      <!-- 0 -->
      <g transform="translate(399.507861 318.610365) scale(0.1 -0.1)">
       <use xlink:href="#DejaVuSerif-30"/>
      </g>
     </g>
    </g>
    <g id="ytick_11">
     <g id="line2d_71">
      <path d="M 412.870361 274.185903 
L 721.575722 274.185903 
" clip-path="url(#pfe486e6e0c)" style="fill: none; stroke: #e0e0e0; stroke-opacity: 0.7; stroke-width: 0.6; stroke-linecap: square"/>
     </g>
     <g id="line2d_72">
      <g>
       <use xlink:href="#m4c079a820c" x="412.870361" y="274.185903" style="stroke: #000000"/>
      </g>
     </g>
     <g id="text_23">
      <!-- 200 -->
      <g transform="translate(386.782861 277.985122) scale(0.1 -0.1)">
       <use xlink:href="#DejaVuSerif-32"/>
       <use xlink:href="#DejaVuSerif-30" x="63.623047"/>
       <use xlink:href="#DejaVuSerif-30" x="127.246094"/>
      </g>
     </g>
    </g>
    <g id="ytick_12">
     <g id="line2d_73">
      <path d="M 412.870361 233.560659 
L 721.575722 233.560659 
" clip-path="url(#pfe486e6e0c)" style="fill: none; stroke: #e0e0e0; stroke-opacity: 0.7; stroke-width: 0.6; stroke-linecap: square"/>
     </g>
     <g id="line2d_74">
      <g>
       <use xlink:href="#m4c079a820c" x="412.870361" y="233.560659" style="stroke: #000000"/>
      </g>
     </g>
     <g id="text_24">
      <!-- 400 -->
      <g transform="translate(386.782861 237.359878) scale(0.1 -0.1)">
       <use xlink:href="#DejaVuSerif-34"/>
       <use xlink:href="#DejaVuSerif-30" x="63.623047"/>
       <use xlink:href="#DejaVuSerif-30" x="127.246094"/>
      </g>
     </g>
    </g>
    <g id="ytick_13">
     <g id="line2d_75">
      <path d="M 412.870361 192.935416 
L 721.575722 192.935416 
" clip-path="url(#pfe486e6e0c)" style="fill: none; stroke: #e0e0e0; stroke-opacity: 0.7; stroke-width: 0.6; stroke-linecap: square"/>
     </g>
     <g id="line2d_76">
      <g>
       <use xlink:href="#m4c079a820c" x="412.870361" y="192.935416" style="stroke: #000000"/>
      </g>
     </g>
     <g id="text_25">
      <!-- 600 -->
      <g transform="translate(386.782861 196.734634) scale(0.1 -0.1)">
       <defs>
        <path id="DejaVuSerif-36" d="M 2094 219 
Q 2534 219 2771 542 
Q 3009 866 3009 1472 
Q 3009 2078 2771 2401 
Q 2534 2725 2094 2725 
Q 1647 2725 1412 2412 
Q 1178 2100 1178 1509 
Q 1178 888 1415 553 
Q 1653 219 2094 219 
z
M 1075 2569 
Q 1288 2803 1556 2918 
Q 1825 3034 2163 3034 
Q 2859 3034 3264 2615 
Q 3669 2197 3669 1472 
Q 3669 763 3233 336 
Q 2797 -91 2069 -91 
Q 1278 -91 853 498 
Q 428 1088 428 2181 
Q 428 3406 931 4078 
Q 1434 4750 2350 4750 
Q 2597 4750 2869 4703 
Q 3141 4656 3425 4563 
L 3425 3794 
L 3072 3794 
Q 3034 4109 2831 4275 
Q 2628 4441 2284 4441 
Q 1678 4441 1381 3981 
Q 1084 3522 1075 2569 
z
" transform="scale(0.015625)"/>
       </defs>
       <use xlink:href="#DejaVuSerif-36"/>
       <use xlink:href="#DejaVuSerif-30" x="63.623047"/>
       <use xlink:href="#DejaVuSerif-30" x="127.246094"/>
      </g>
     </g>
    </g>
    <g id="ytick_14">
     <g id="line2d_77">
      <path d="M 412.870361 152.310172 
L 721.575722 152.310172 
" clip-path="url(#pfe486e6e0c)" style="fill: none; stroke: #e0e0e0; stroke-opacity: 0.7; stroke-width: 0.6; stroke-linecap: square"/>
     </g>
     <g id="line2d_78">
      <g>
       <use xlink:href="#m4c079a820c" x="412.870361" y="152.310172" style="stroke: #000000"/>
      </g>
     </g>
     <g id="text_26">
      <!-- 800 -->
      <g transform="translate(386.782861 156.109391) scale(0.1 -0.1)">
       <defs>
        <path id="DejaVuSerif-38" d="M 2981 1275 
Q 2981 1775 2732 2051 
Q 2484 2328 2034 2328 
Q 1584 2328 1336 2051 
Q 1088 1775 1088 1275 
Q 1088 772 1336 495 
Q 1584 219 2034 219 
Q 2484 219 2732 495 
Q 2981 772 2981 1275 
z
M 2853 3541 
Q 2853 3966 2637 4203 
Q 2422 4441 2034 4441 
Q 1650 4441 1433 4203 
Q 1216 3966 1216 3541 
Q 1216 3113 1433 2875 
Q 1650 2638 2034 2638 
Q 2422 2638 2637 2875 
Q 2853 3113 2853 3541 
z
M 2516 2484 
Q 3047 2413 3344 2092 
Q 3641 1772 3641 1275 
Q 3641 619 3225 264 
Q 2809 -91 2034 -91 
Q 1263 -91 845 264 
Q 428 619 428 1275 
Q 428 1772 725 2092 
Q 1022 2413 1556 2484 
Q 1084 2569 832 2842 
Q 581 3116 581 3541 
Q 581 4103 968 4426 
Q 1356 4750 2034 4750 
Q 2713 4750 3100 4426 
Q 3488 4103 3488 3541 
Q 3488 3116 3236 2842 
Q 2984 2569 2516 2484 
z
" transform="scale(0.015625)"/>
       </defs>
       <use xlink:href="#DejaVuSerif-38"/>
       <use xlink:href="#DejaVuSerif-30" x="63.623047"/>
       <use xlink:href="#DejaVuSerif-30" x="127.246094"/>
      </g>
     </g>
    </g>
    <g id="ytick_15">
     <g id="line2d_79">
      <path d="M 412.870361 111.684929 
L 721.575722 111.684929 
" clip-path="url(#pfe486e6e0c)" style="fill: none; stroke: #e0e0e0; stroke-opacity: 0.7; stroke-width: 0.6; stroke-linecap: square"/>
     </g>
     <g id="line2d_80">
      <g>
       <use xlink:href="#m4c079a820c" x="412.870361" y="111.684929" style="stroke: #000000"/>
      </g>
     </g>
     <g id="text_27">
      <!-- 1000 -->
      <g transform="translate(380.420361 115.484147) scale(0.1 -0.1)">
       <use xlink:href="#DejaVuSerif-31"/>
       <use xlink:href="#DejaVuSerif-30" x="63.623047"/>
       <use xlink:href="#DejaVuSerif-30" x="127.246094"/>
       <use xlink:href="#DejaVuSerif-30" x="190.869141"/>
      </g>
     </g>
    </g>
    <g id="ytick_16">
     <g id="line2d_81">
      <path d="M 412.870361 71.059685 
L 721.575722 71.059685 
" clip-path="url(#pfe486e6e0c)" style="fill: none; stroke: #e0e0e0; stroke-opacity: 0.7; stroke-width: 0.6; stroke-linecap: square"/>
     </g>
     <g id="line2d_82">
      <g>
       <use xlink:href="#m4c079a820c" x="412.870361" y="71.059685" style="stroke: #000000"/>
      </g>
     </g>
     <g id="text_28">
      <!-- 1200 -->
      <g transform="translate(380.420361 74.858904) scale(0.1 -0.1)">
       <use xlink:href="#DejaVuSerif-31"/>
       <use xlink:href="#DejaVuSerif-32" x="63.623047"/>
       <use xlink:href="#DejaVuSerif-30" x="127.246094"/>
       <use xlink:href="#DejaVuSerif-30" x="190.869141"/>
      </g>
     </g>
    </g>
    <g id="text_29">
     <!-- Episode Reward -->
     <g transform="translate(373.924736 230.36878) rotate(-90) scale(0.12 -0.12)">
      <use xlink:href="#DejaVuSerif-45"/>
      <use xlink:href="#DejaVuSerif-70" x="72.998047"/>
      <use xlink:href="#DejaVuSerif-69" x="137.011719"/>
      <use xlink:href="#DejaVuSerif-73" x="168.994141"/>
      <use xlink:href="#DejaVuSerif-6f" x="220.3125"/>
      <use xlink:href="#DejaVuSerif-64" x="280.517578"/>
      <use xlink:href="#DejaVuSerif-65" x="344.53125"/>
      <use xlink:href="#DejaVuSerif-20" x="403.710938"/>
      <use xlink:href="#DejaVuSerif-52" x="435.498047"/>
      <use xlink:href="#DejaVuSerif-65" x="510.791016"/>
      <use xlink:href="#DejaVuSerif-77" x="569.970703"/>
      <use xlink:href="#DejaVuSerif-61" x="655.566406"/>
      <use xlink:href="#DejaVuSerif-72" x="715.185547"/>
      <use xlink:href="#DejaVuSerif-64" x="762.988281"/>
     </g>
    </g>
   </g>
   <g id="patch_13">
    <path d="M 426.762102 105.083327 
L 460.719692 105.083327 
L 460.719692 90.528604 
L 452.230294 82.231627 
L 460.719692 73.93465 
L 460.719692 76.137841 
L 426.762102 76.137841 
L 426.762102 73.93465 
L 435.251499 82.231627 
L 426.762102 90.528604 
L 426.762102 105.083327 
z
" clip-path="url(#pfe486e6e0c)" style="fill: #a8d8ea; stroke: #1a1a1a; stroke-width: 1.2; stroke-linejoin: miter"/>
   </g>
   <g id="line2d_83">
    <path d="M 443.740897 105.083327 
L 443.740897 112.70056 
" clip-path="url(#pfe486e6e0c)" style="fill: none; stroke: #1a1a1a; stroke-linecap: square"/>
   </g>
   <g id="line2d_84">
    <path d="M 443.740897 76.137841 
L 443.740897 46.684539 
" clip-path="url(#pfe486e6e0c)" style="fill: none; stroke: #1a1a1a; stroke-linecap: square"/>
   </g>
   <g id="line2d_85">
    <path d="M 435.251499 112.70056 
L 452.230294 112.70056 
" clip-path="url(#pfe486e6e0c)" style="fill: none; stroke: #1a1a1a; stroke-linecap: square"/>
   </g>
   <g id="line2d_86">
    <path d="M 435.251499 46.684539 
L 452.230294 46.684539 
" clip-path="url(#pfe486e6e0c)" style="fill: none; stroke: #1a1a1a; stroke-linecap: square"/>
   </g>
   <g id="line2d_87"/>
   <g id="patch_14">
    <path d="M 488.503174 303.131389 
L 522.460764 303.131389 
L 522.460764 297.988693 
L 513.971367 295.514156 
L 522.460764 293.039619 
L 522.460764 294.498525 
L 488.503174 294.498525 
L 488.503174 293.039619 
L 496.992572 295.514156 
L 488.503174 297.988693 
L 488.503174 303.131389 
z
" clip-path="url(#pfe486e6e0c)" style="fill: #f4b6c2; stroke: #1a1a1a; stroke-width: 1.2; stroke-linejoin: miter"/>
   </g>
   <g id="line2d_88">
    <path d="M 505.481969 303.131389 
L 505.481969 305.670466 
" clip-path="url(#pfe486e6e0c)" style="fill: none; stroke: #1a1a1a; stroke-linecap: square"/>
   </g>
   <g id="line2d_89">
    <path d="M 505.481969 294.498525 
L 505.481969 294.498525 
" clip-path="url(#pfe486e6e0c)" style="fill: none; stroke: #1a1a1a; stroke-linecap: square"/>
   </g>
   <g id="line2d_90">
    <path d="M 496.992572 305.670466 
L 513.971367 305.670466 
" clip-path="url(#pfe486e6e0c)" style="fill: none; stroke: #1a1a1a; stroke-linecap: square"/>
   </g>
   <g id="line2d_91">
    <path d="M 496.992572 294.498525 
L 513.971367 294.498525 
" clip-path="url(#pfe486e6e0c)" style="fill: none; stroke: #1a1a1a; stroke-linecap: square"/>
   </g>
   <g id="line2d_92">
    <g clip-path="url(#pfe486e6e0c)">
     <use xlink:href="#m44f45b8c49" x="505.481969" y="279.264058" style="fill: #cccccc; fill-opacity: 0.6; stroke: #1a1a1a; stroke-opacity: 0.6"/>
     <use xlink:href="#m44f45b8c49" x="505.481969" y="279.264058" style="fill: #cccccc; fill-opacity: 0.6; stroke: #1a1a1a; stroke-opacity: 0.6"/>
    </g>
   </g>
   <g id="patch_15">
    <path d="M 550.244246 314.811146 
L 584.201836 314.811146 
L 584.201836 314.811146 
L 575.712439 314.811146 
L 584.201836 314.811146 
L 584.201836 314.811146 
L 550.244246 314.811146 
L 550.244246 314.811146 
L 558.733644 314.811146 
L 550.244246 314.811146 
L 550.244246 314.811146 
z
" clip-path="url(#pfe486e6e0c)" style="fill: #b5ead7; stroke: #1a1a1a; stroke-width: 1.2; stroke-linejoin: miter"/>
   </g>
   <g id="line2d_93">
    <path d="M 567.223041 314.811146 
L 567.223041 314.811146 
" clip-path="url(#pfe486e6e0c)" style="fill: none; stroke: #1a1a1a; stroke-linecap: square"/>
   </g>
   <g id="line2d_94">
    <path d="M 567.223041 314.811146 
L 567.223041 314.811146 
" clip-path="url(#pfe486e6e0c)" style="fill: none; stroke: #1a1a1a; stroke-linecap: square"/>
   </g>
   <g id="line2d_95">
    <path d="M 558.733644 314.811146 
L 575.712439 314.811146 
" clip-path="url(#pfe486e6e0c)" style="fill: none; stroke: #1a1a1a; stroke-linecap: square"/>
   </g>
   <g id="line2d_96">
    <path d="M 558.733644 314.811146 
L 575.712439 314.811146 
" clip-path="url(#pfe486e6e0c)" style="fill: none; stroke: #1a1a1a; stroke-linecap: square"/>
   </g>
   <g id="line2d_97"/>
   <g id="patch_16">
    <path d="M 611.985319 314.811146 
L 645.942908 314.811146 
L 645.942908 314.811146 
L 637.453511 314.811146 
L 645.942908 314.811146 
L 645.942908 314.811146 
L 611.985319 314.811146 
L 611.985319 314.811146 
L 620.474716 314.811146 
L 611.985319 314.811146 
L 611.985319 314.811146 
z
" clip-path="url(#pfe486e6e0c)" style="fill: #ffeead; stroke: #1a1a1a; stroke-width: 1.2; stroke-linejoin: miter"/>
   </g>
   <g id="line2d_98">
    <path d="M 628.964113 314.811146 
L 628.964113 314.811146 
" clip-path="url(#pfe486e6e0c)" style="fill: none; stroke: #1a1a1a; stroke-linecap: square"/>
   </g>
   <g id="line2d_99">
    <path d="M 628.964113 314.811146 
L 628.964113 314.811146 
" clip-path="url(#pfe486e6e0c)" style="fill: none; stroke: #1a1a1a; stroke-linecap: square"/>
   </g>
   <g id="line2d_100">
    <path d="M 620.474716 314.811146 
L 637.453511 314.811146 
" clip-path="url(#pfe486e6e0c)" style="fill: none; stroke: #1a1a1a; stroke-linecap: square"/>
   </g>
   <g id="line2d_101">
    <path d="M 620.474716 314.811146 
L 637.453511 314.811146 
" clip-path="url(#pfe486e6e0c)" style="fill: none; stroke: #1a1a1a; stroke-linecap: square"/>
   </g>
   <g id="line2d_102"/>
   <g id="patch_17">
    <path d="M 673.726391 296.529787 
L 707.68398 296.529787 
L 707.68398 316.03496 
L 699.194583 296.529787 
L 707.68398 277.024613 
L 707.68398 228.482504 
L 673.726391 228.482504 
L 673.726391 277.024613 
L 682.215788 296.529787 
L 673.726391 316.03496 
L 673.726391 296.529787 
z
" clip-path="url(#pfe486e6e0c)" style="fill: #c3b1e1; stroke: #1a1a1a; stroke-width: 1.2; stroke-linejoin: miter"/>
   </g>
   <g id="line2d_103">
    <path d="M 690.705186 296.529787 
L 690.705186 302.623573 
" clip-path="url(#pfe486e6e0c)" style="fill: none; stroke: #1a1a1a; stroke-linecap: square"/>
   </g>
   <g id="line2d_104">
    <path d="M 690.705186 228.482504 
L 690.705186 228.482504 
" clip-path="url(#pfe486e6e0c)" style="fill: none; stroke: #1a1a1a; stroke-linecap: square"/>
   </g>
   <g id="line2d_105">
    <path d="M 682.215788 302.623573 
L 699.194583 302.623573 
" clip-path="url(#pfe486e6e0c)" style="fill: none; stroke: #1a1a1a; stroke-linecap: square"/>
   </g>
   <g id="line2d_106">
    <path d="M 682.215788 228.482504 
L 699.194583 228.482504 
" clip-path="url(#pfe486e6e0c)" style="fill: none; stroke: #1a1a1a; stroke-linecap: square"/>
   </g>
   <g id="line2d_107"/>
   <g id="line2d_108">
    <path d="M 435.251499 82.231627 
L 452.230294 82.231627 
" clip-path="url(#pfe486e6e0c)" style="fill: none; stroke: #000000; stroke-width: 1.5"/>
   </g>
   <g id="line2d_109">
    <path d="M 496.992572 295.514156 
L 513.971367 295.514156 
" clip-path="url(#pfe486e6e0c)" style="fill: none; stroke: #000000; stroke-width: 1.5"/>
   </g>
   <g id="line2d_110">
    <path d="M 558.733644 314.811146 
L 575.712439 314.811146 
" clip-path="url(#pfe486e6e0c)" style="fill: none; stroke: #000000; stroke-width: 1.5"/>
   </g>
   <g id="line2d_111">
    <path d="M 620.474716 314.811146 
L 637.453511 314.811146 
" clip-path="url(#pfe486e6e0c)" style="fill: none; stroke: #000000; stroke-width: 1.5"/>
   </g>
   <g id="line2d_112">
    <path d="M 682.215788 296.529787 
L 699.194583 296.529787 
" clip-path="url(#pfe486e6e0c)" style="fill: none; stroke: #000000; stroke-width: 1.5"/>
   </g>
   <g id="patch_18">
    <path d="M 412.870361 328.217477 
L 412.870361 33.278209 
" style="fill: none; stroke: #1a1a1a; stroke-width: 1.2; stroke-linejoin: miter; stroke-linecap: square"/>
   </g>
   <g id="patch_19">
    <path d="M 721.575722 328.217477 
L 721.575722 33.278209 
" style="fill: none; stroke: #1a1a1a; stroke-width: 1.2; stroke-linejoin: miter; stroke-linecap: square"/>
   </g>
   <g id="patch_20">
    <path d="M 412.870361 328.217477 
L 721.575722 328.217477 
" style="fill: none; stroke: #1a1a1a; stroke-width: 1.2; stroke-linejoin: miter; stroke-linecap: square"/>
   </g>
   <g id="patch_21">
    <path d="M 412.870361 33.278209 
L 721.575722 33.278209 
" style="fill: none; stroke: #1a1a1a; stroke-width: 1.2; stroke-linejoin: miter; stroke-linecap: square"/>
   </g>
   <g id="text_30">
    <!-- SpaceInvaders -->
    <g transform="translate(518.494369 27.278209) scale(0.13 -0.13)">
     <defs>
      <path id="DejaVuSerif-63" d="M 3291 997 
Q 3169 466 2822 187 
Q 2475 -91 1925 -91 
Q 1200 -91 759 389 
Q 319 869 319 1663 
Q 319 2459 759 2936 
Q 1200 3413 1925 3413 
Q 2241 3413 2553 3339 
Q 2866 3266 3181 3116 
L 3181 2266 
L 2847 2266 
Q 2781 2703 2561 2903 
Q 2341 3103 1931 3103 
Q 1466 3103 1228 2742 
Q 991 2381 991 1663 
Q 991 944 1227 581 
Q 1463 219 1931 219 
Q 2303 219 2525 412 
Q 2747 606 2828 997 
L 3291 997 
z
" transform="scale(0.015625)"/>
     </defs>
     <use xlink:href="#DejaVuSerif-53"/>
     <use xlink:href="#DejaVuSerif-70" x="68.505859"/>
     <use xlink:href="#DejaVuSerif-61" x="132.519531"/>
     <use xlink:href="#DejaVuSerif-63" x="192.138672"/>
     <use xlink:href="#DejaVuSerif-65" x="248.144531"/>
     <use xlink:href="#DejaVuSerif-49" x="307.324219"/>
     <use xlink:href="#DejaVuSerif-6e" x="346.826172"/>
     <use xlink:href="#DejaVuSerif-76" x="411.230469"/>
     <use xlink:href="#DejaVuSerif-61" x="467.724609"/>
     <use xlink:href="#DejaVuSerif-64" x="527.34375"/>
     <use xlink:href="#DejaVuSerif-65" x="591.357422"/>
     <use xlink:href="#DejaVuSerif-72" x="650.537109"/>
     <use xlink:href="#DejaVuSerif-73" x="698.339844"/>
    </g>
   </g>
  </g>
  <g id="axes_3">
   <g id="patch_22">
    <path d="M 772.494159 328.217477 
L 1081.19952 328.217477 
L 1081.19952 33.278209 
L 772.494159 33.278209 
z
" style="fill: #fafafa"/>
   </g>
   <g id="matplotlib.axis_5">
    <g id="xtick_11">
     <g id="line2d_113">
      <path d="M 803.364695 328.217477 
L 803.364695 33.278209 
" clip-path="url(#p0c33f6cd07)" style="fill: none; stroke: #e0e0e0; stroke-opacity: 0.7; stroke-width: 0.6; stroke-linecap: square"/>
     </g>
     <g id="line2d_114">
      <g>
       <use xlink:href="#m5720f93a38" x="803.364695" y="328.217477" style="stroke: #000000"/>
      </g>
     </g>
     <g id="text_31">
      <!-- Expert -->
      <g transform="translate(772.829921 358.826823) rotate(-30) scale(0.1 -0.1)">
       <use xlink:href="#DejaVuSerif-45"/>
       <use xlink:href="#DejaVuSerif-78" x="72.998047"/>
       <use xlink:href="#DejaVuSerif-70" x="129.394531"/>
       <use xlink:href="#DejaVuSerif-65" x="193.408203"/>
       <use xlink:href="#DejaVuSerif-72" x="252.587891"/>
       <use xlink:href="#DejaVuSerif-74" x="300.390625"/>
      </g>
     </g>
    </g>
    <g id="xtick_12">
     <g id="line2d_115">
      <path d="M 865.105767 328.217477 
L 865.105767 33.278209 
" clip-path="url(#p0c33f6cd07)" style="fill: none; stroke: #e0e0e0; stroke-opacity: 0.7; stroke-width: 0.6; stroke-linecap: square"/>
     </g>
     <g id="line2d_116">
      <g>
       <use xlink:href="#m5720f93a38" x="865.105767" y="328.217477" style="stroke: #000000"/>
      </g>
     </g>
     <g id="text_32">
      <!-- Distillation -->
      <g transform="translate(815.913558 369.598698) rotate(-30) scale(0.1 -0.1)">
       <use xlink:href="#DejaVuSerif-44"/>
       <use xlink:href="#DejaVuSerif-69" x="80.175781"/>
       <use xlink:href="#DejaVuSerif-73" x="112.158203"/>
       <use xlink:href="#DejaVuSerif-74" x="163.476562"/>
       <use xlink:href="#DejaVuSerif-69" x="203.662109"/>
       <use xlink:href="#DejaVuSerif-6c" x="235.644531"/>
       <use xlink:href="#DejaVuSerif-6c" x="267.626953"/>
       <use xlink:href="#DejaVuSerif-61" x="299.609375"/>
       <use xlink:href="#DejaVuSerif-74" x="359.228516"/>
       <use xlink:href="#DejaVuSerif-69" x="399.414062"/>
       <use xlink:href="#DejaVuSerif-6f" x="431.396484"/>
       <use xlink:href="#DejaVuSerif-6e" x="491.601562"/>
      </g>
     </g>
    </g>
    <g id="xtick_13">
     <g id="line2d_117">
      <path d="M 926.84684 328.217477 
L 926.84684 33.278209 
" clip-path="url(#p0c33f6cd07)" style="fill: none; stroke: #e0e0e0; stroke-opacity: 0.7; stroke-width: 0.6; stroke-linecap: square"/>
     </g>
     <g id="line2d_118">
      <g>
       <use xlink:href="#m5720f93a38" x="926.84684" y="328.217477" style="stroke: #000000"/>
      </g>
     </g>
     <g id="text_33">
      <!-- One-Shot -->
      <g transform="translate(884.872411 365.43151) rotate(-30) scale(0.1 -0.1)">
       <use xlink:href="#DejaVuSerif-4f"/>
       <use xlink:href="#DejaVuSerif-6e" x="81.982422"/>
       <use xlink:href="#DejaVuSerif-65" x="146.386719"/>
       <use xlink:href="#DejaVuSerif-2d" x="205.566406"/>
       <use xlink:href="#DejaVuSerif-53" x="239.355469"/>
       <use xlink:href="#DejaVuSerif-68" x="307.861328"/>
       <use xlink:href="#DejaVuSerif-6f" x="372.265625"/>
       <use xlink:href="#DejaVuSerif-74" x="432.470703"/>
      </g>
     </g>
    </g>
    <g id="xtick_14">
     <g id="line2d_119">
      <path d="M 988.587912 328.217477 
L 988.587912 33.278209 
" clip-path="url(#p0c33f6cd07)" style="fill: none; stroke: #e0e0e0; stroke-opacity: 0.7; stroke-width: 0.6; stroke-linecap: square"/>
     </g>
     <g id="line2d_120">
      <g>
       <use xlink:href="#m5720f93a38" x="988.587912" y="328.217477" style="stroke: #000000"/>
      </g>
     </g>
     <g id="text_34">
      <!-- Iterative -->
      <g transform="translate(949.949034 363.505729) rotate(-30) scale(0.1 -0.1)">
       <use xlink:href="#DejaVuSerif-49"/>
       <use xlink:href="#DejaVuSerif-74" x="39.501953"/>
       <use xlink:href="#DejaVuSerif-65" x="79.6875"/>
       <use xlink:href="#DejaVuSerif-72" x="138.867188"/>
       <use xlink:href="#DejaVuSerif-61" x="186.669922"/>
       <use xlink:href="#DejaVuSerif-74" x="246.289062"/>
       <use xlink:href="#DejaVuSerif-69" x="286.474609"/>
       <use xlink:href="#DejaVuSerif-76" x="318.457031"/>
       <use xlink:href="#DejaVuSerif-65" x="374.951172"/>
      </g>
     </g>
    </g>
    <g id="xtick_15">
     <g id="line2d_121">
      <path d="M 1050.328984 328.217477 
L 1050.328984 33.278209 
" clip-path="url(#p0c33f6cd07)" style="fill: none; stroke: #e0e0e0; stroke-opacity: 0.7; stroke-width: 0.6; stroke-linecap: square"/>
     </g>
     <g id="line2d_122">
      <g>
       <use xlink:href="#m5720f93a38" x="1050.328984" y="328.217477" style="stroke: #000000"/>
      </g>
     </g>
     <g id="text_35">
      <!-- Hybrid -->
      <g transform="translate(1018.7759 359.373698) rotate(-30) scale(0.1 -0.1)">
       <use xlink:href="#DejaVuSerif-48"/>
       <use xlink:href="#DejaVuSerif-79" x="87.207031"/>
       <use xlink:href="#DejaVuSerif-62" x="143.701172"/>
       <use xlink:href="#DejaVuSerif-72" x="207.714844"/>
       <use xlink:href="#DejaVuSerif-69" x="255.517578"/>
       <use xlink:href="#DejaVuSerif-64" x="287.5"/>
      </g>
     </g>
    </g>
   </g>
   <g id="matplotlib.axis_6">
    <g id="ytick_17">
     <g id="line2d_123">
      <path d="M 772.494159 308.427179 
L 1081.19952 308.427179 
" clip-path="url(#p0c33f6cd07)" style="fill: none; stroke: #e0e0e0; stroke-opacity: 0.7; stroke-width: 0.6; stroke-linecap: square"/>
     </g>
     <g id="line2d_124">
      <g>
       <use xlink:href="#m4c079a820c" x="772.494159" y="308.427179" style="stroke: #000000"/>
      </g>
     </g>
     <g id="text_36">
      <!-- −20 -->
      <g transform="translate(744.389472 312.226398) scale(0.1 -0.1)">
       <defs>
        <path id="DejaVuSerif-2212" d="M 678 2259 
L 4684 2259 
L 4684 1753 
L 678 1753 
L 678 2259 
z
" transform="scale(0.015625)"/>
       </defs>
       <use xlink:href="#DejaVuSerif-2212"/>
       <use xlink:href="#DejaVuSerif-32" x="83.789062"/>
       <use xlink:href="#DejaVuSerif-30" x="147.412109"/>
      </g>
     </g>
    </g>
    <g id="ytick_18">
     <g id="line2d_125">
      <path d="M 772.494159 244.587511 
L 1081.19952 244.587511 
" clip-path="url(#p0c33f6cd07)" style="fill: none; stroke: #e0e0e0; stroke-opacity: 0.7; stroke-width: 0.6; stroke-linecap: square"/>
     </g>
     <g id="line2d_126">
      <g>
       <use xlink:href="#m4c079a820c" x="772.494159" y="244.587511" style="stroke: #000000"/>
      </g>
     </g>
     <g id="text_37">
      <!-- −10 -->
      <g transform="translate(744.389472 248.38673) scale(0.1 -0.1)">
       <use xlink:href="#DejaVuSerif-2212"/>
       <use xlink:href="#DejaVuSerif-31" x="83.789062"/>
       <use xlink:href="#DejaVuSerif-30" x="147.412109"/>
      </g>
     </g>
    </g>
    <g id="ytick_19">
     <g id="line2d_127">
      <path d="M 772.494159 180.747843 
L 1081.19952 180.747843 
" clip-path="url(#p0c33f6cd07)" style="fill: none; stroke: #e0e0e0; stroke-opacity: 0.7; stroke-width: 0.6; stroke-linecap: square"/>
     </g>
     <g id="line2d_128">
      <g>
       <use xlink:href="#m4c079a820c" x="772.494159" y="180.747843" style="stroke: #000000"/>
      </g>
     </g>
     <g id="text_38">
      <!-- 0 -->
      <g transform="translate(759.131659 184.547061) scale(0.1 -0.1)">
       <use xlink:href="#DejaVuSerif-30"/>
      </g>
     </g>
    </g>
    <g id="ytick_20">
     <g id="line2d_129">
      <path d="M 772.494159 116.908174 
L 1081.19952 116.908174 
" clip-path="url(#p0c33f6cd07)" style="fill: none; stroke: #e0e0e0; stroke-opacity: 0.7; stroke-width: 0.6; stroke-linecap: square"/>
     </g>
     <g id="line2d_130">
      <g>
       <use xlink:href="#m4c079a820c" x="772.494159" y="116.908174" style="stroke: #000000"/>
      </g>
     </g>
     <g id="text_39">
      <!-- 10 -->
      <g transform="translate(752.769159 120.707393) scale(0.1 -0.1)">
       <use xlink:href="#DejaVuSerif-31"/>
       <use xlink:href="#DejaVuSerif-30" x="63.623047"/>
      </g>
     </g>
    </g>
    <g id="ytick_21">
     <g id="line2d_131">
      <path d="M 772.494159 53.068506 
L 1081.19952 53.068506 
" clip-path="url(#p0c33f6cd07)" style="fill: none; stroke: #e0e0e0; stroke-opacity: 0.7; stroke-width: 0.6; stroke-linecap: square"/>
     </g>
     <g id="line2d_132">
      <g>
       <use xlink:href="#m4c079a820c" x="772.494159" y="53.068506" style="stroke: #000000"/>
      </g>
     </g>
     <g id="text_40">
      <!-- 20 -->
      <g transform="translate(752.769159 56.867725) scale(0.1 -0.1)">
       <use xlink:href="#DejaVuSerif-32"/>
       <use xlink:href="#DejaVuSerif-30" x="63.623047"/>
      </g>
     </g>
    </g>
    <g id="text_41">
     <!-- Episode Reward -->
     <g transform="translate(737.893847 230.36878) rotate(-90) scale(0.12 -0.12)">
      <use xlink:href="#DejaVuSerif-45"/>
      <use xlink:href="#DejaVuSerif-70" x="72.998047"/>
      <use xlink:href="#DejaVuSerif-69" x="137.011719"/>
      <use xlink:href="#DejaVuSerif-73" x="168.994141"/>
      <use xlink:href="#DejaVuSerif-6f" x="220.3125"/>
      <use xlink:href="#DejaVuSerif-64" x="280.517578"/>
      <use xlink:href="#DejaVuSerif-65" x="344.53125"/>
      <use xlink:href="#DejaVuSerif-20" x="403.710938"/>
      <use xlink:href="#DejaVuSerif-52" x="435.498047"/>
      <use xlink:href="#DejaVuSerif-65" x="510.791016"/>
      <use xlink:href="#DejaVuSerif-77" x="569.970703"/>
      <use xlink:href="#DejaVuSerif-61" x="655.566406"/>
      <use xlink:href="#DejaVuSerif-72" x="715.185547"/>
      <use xlink:href="#DejaVuSerif-64" x="762.988281"/>
     </g>
    </g>
   </g>
   <g id="patch_23">
    <path d="M 786.3859 59.452473 
L 820.34349 59.452473 
L 820.34349 56.728325 
L 811.854093 53.068506 
L 820.34349 49.408687 
L 820.34349 46.684539 
L 786.3859 46.684539 
L 786.3859 49.408687 
L 794.875298 53.068506 
L 786.3859 56.728325 
L 786.3859 59.452473 
z
" clip-path="url(#p0c33f6cd07)" style="fill: #a8d8ea; stroke: #1a1a1a; stroke-width: 1.2; stroke-linejoin: miter"/>
   </g>
   <g id="line2d_133">
    <path d="M 803.364695 59.452473 
L 803.364695 59.452473 
" clip-path="url(#p0c33f6cd07)" style="fill: none; stroke: #1a1a1a; stroke-linecap: square"/>
   </g>
   <g id="line2d_134">
    <path d="M 803.364695 46.684539 
L 803.364695 46.684539 
" clip-path="url(#p0c33f6cd07)" style="fill: none; stroke: #1a1a1a; stroke-linecap: square"/>
   </g>
   <g id="line2d_135">
    <path d="M 794.875298 59.452473 
L 811.854093 59.452473 
" clip-path="url(#p0c33f6cd07)" style="fill: none; stroke: #1a1a1a; stroke-linecap: square"/>
   </g>
   <g id="line2d_136">
    <path d="M 794.875298 46.684539 
L 811.854093 46.684539 
" clip-path="url(#p0c33f6cd07)" style="fill: none; stroke: #1a1a1a; stroke-linecap: square"/>
   </g>
   <g id="line2d_137"/>
   <g id="patch_24">
    <path d="M 848.126973 313.215155 
L 882.084562 313.215155 
L 882.084562 315.49651 
L 873.595165 244.587511 
L 882.084562 173.678512 
L 882.084562 65.83644 
L 848.126973 65.83644 
L 848.126973 173.678512 
L 856.61637 244.587511 
L 848.126973 315.49651 
L 848.126973 313.215155 
z
" clip-path="url(#p0c33f6cd07)" style="fill: #f4b6c2; stroke: #1a1a1a; stroke-width: 1.2; stroke-linejoin: miter"/>
   </g>
   <g id="line2d_138">
    <path d="M 865.105767 313.215155 
L 865.105767 314.811146 
" clip-path="url(#p0c33f6cd07)" style="fill: none; stroke: #1a1a1a; stroke-linecap: square"/>
   </g>
   <g id="line2d_139">
    <path d="M 865.105767 65.83644 
L 865.105767 65.83644 
" clip-path="url(#p0c33f6cd07)" style="fill: none; stroke: #1a1a1a; stroke-linecap: square"/>
   </g>
   <g id="line2d_140">
    <path d="M 856.61637 314.811146 
L 873.595165 314.811146 
" clip-path="url(#p0c33f6cd07)" style="fill: none; stroke: #1a1a1a; stroke-linecap: square"/>
   </g>
   <g id="line2d_141">
    <path d="M 856.61637 65.83644 
L 873.595165 65.83644 
" clip-path="url(#p0c33f6cd07)" style="fill: none; stroke: #1a1a1a; stroke-linecap: square"/>
   </g>
   <g id="line2d_142"/>
   <g id="patch_25">
    <path d="M 909.868045 314.811146 
L 943.825634 314.811146 
L 943.825634 314.811146 
L 935.336237 314.811146 
L 943.825634 314.811146 
L 943.825634 314.811146 
L 909.868045 314.811146 
L 909.868045 314.811146 
L 918.357442 314.811146 
L 909.868045 314.811146 
L 909.868045 314.811146 
z
" clip-path="url(#p0c33f6cd07)" style="fill: #b5ead7; stroke: #1a1a1a; stroke-width: 1.2; stroke-linejoin: miter"/>
   </g>
   <g id="line2d_143">
    <path d="M 926.84684 314.811146 
L 926.84684 314.811146 
" clip-path="url(#p0c33f6cd07)" style="fill: none; stroke: #1a1a1a; stroke-linecap: square"/>
   </g>
   <g id="line2d_144">
    <path d="M 926.84684 314.811146 
L 926.84684 314.811146 
" clip-path="url(#p0c33f6cd07)" style="fill: none; stroke: #1a1a1a; stroke-linecap: square"/>
   </g>
   <g id="line2d_145">
    <path d="M 918.357442 314.811146 
L 935.336237 314.811146 
" clip-path="url(#p0c33f6cd07)" style="fill: none; stroke: #1a1a1a; stroke-linecap: square"/>
   </g>
   <g id="line2d_146">
    <path d="M 918.357442 314.811146 
L 935.336237 314.811146 
" clip-path="url(#p0c33f6cd07)" style="fill: none; stroke: #1a1a1a; stroke-linecap: square"/>
   </g>
   <g id="line2d_147"/>
   <g id="patch_26">
    <path d="M 971.609117 314.811146 
L 1005.566707 314.811146 
L 1005.566707 314.811146 
L 997.077309 314.811146 
L 1005.566707 314.811146 
L 1005.566707 314.811146 
L 971.609117 314.811146 
L 971.609117 314.811146 
L 980.098514 314.811146 
L 971.609117 314.811146 
L 971.609117 314.811146 
z
" clip-path="url(#p0c33f6cd07)" style="fill: #ffeead; stroke: #1a1a1a; stroke-width: 1.2; stroke-linejoin: miter"/>
   </g>
   <g id="line2d_148">
    <path d="M 988.587912 314.811146 
L 988.587912 314.811146 
" clip-path="url(#p0c33f6cd07)" style="fill: none; stroke: #1a1a1a; stroke-linecap: square"/>
   </g>
   <g id="line2d_149">
    <path d="M 988.587912 314.811146 
L 988.587912 314.811146 
" clip-path="url(#p0c33f6cd07)" style="fill: none; stroke: #1a1a1a; stroke-linecap: square"/>
   </g>
   <g id="line2d_150">
    <path d="M 980.098514 314.811146 
L 997.077309 314.811146 
" clip-path="url(#p0c33f6cd07)" style="fill: none; stroke: #1a1a1a; stroke-linecap: square"/>
   </g>
   <g id="line2d_151">
    <path d="M 980.098514 314.811146 
L 997.077309 314.811146 
" clip-path="url(#p0c33f6cd07)" style="fill: none; stroke: #1a1a1a; stroke-linecap: square"/>
   </g>
   <g id="line2d_152"/>
   <g id="patch_27">
    <path d="M 1033.350189 314.811146 
L 1067.307779 314.811146 
L 1067.307779 314.811146 
L 1058.818381 314.811146 
L 1067.307779 314.811146 
L 1067.307779 314.811146 
L 1033.350189 314.811146 
L 1033.350189 314.811146 
L 1041.839586 314.811146 
L 1033.350189 314.811146 
L 1033.350189 314.811146 
z
" clip-path="url(#p0c33f6cd07)" style="fill: #c3b1e1; stroke: #1a1a1a; stroke-width: 1.2; stroke-linejoin: miter"/>
   </g>
   <g id="line2d_153">
    <path d="M 1050.328984 314.811146 
L 1050.328984 314.811146 
" clip-path="url(#p0c33f6cd07)" style="fill: none; stroke: #1a1a1a; stroke-linecap: square"/>
   </g>
   <g id="line2d_154">
    <path d="M 1050.328984 314.811146 
L 1050.328984 314.811146 
" clip-path="url(#p0c33f6cd07)" style="fill: none; stroke: #1a1a1a; stroke-linecap: square"/>
   </g>
   <g id="line2d_155">
    <path d="M 1041.839586 314.811146 
L 1058.818381 314.811146 
" clip-path="url(#p0c33f6cd07)" style="fill: none; stroke: #1a1a1a; stroke-linecap: square"/>
   </g>
   <g id="line2d_156">
    <path d="M 1041.839586 314.811146 
L 1058.818381 314.811146 
" clip-path="url(#p0c33f6cd07)" style="fill: none; stroke: #1a1a1a; stroke-linecap: square"/>
   </g>
   <g id="line2d_157"/>
   <g id="line2d_158">
    <path d="M 794.875298 53.068506 
L 811.854093 53.068506 
" clip-path="url(#p0c33f6cd07)" style="fill: none; stroke: #000000; stroke-width: 1.5"/>
   </g>
   <g id="line2d_159">
    <path d="M 856.61637 244.587511 
L 873.595165 244.587511 
" clip-path="url(#p0c33f6cd07)" style="fill: none; stroke: #000000; stroke-width: 1.5"/>
   </g>
   <g id="line2d_160">
    <path d="M 918.357442 314.811146 
L 935.336237 314.811146 
" clip-path="url(#p0c33f6cd07)" style="fill: none; stroke: #000000; stroke-width: 1.5"/>
   </g>
   <g id="line2d_161">
    <path d="M 980.098514 314.811146 
L 997.077309 314.811146 
" clip-path="url(#p0c33f6cd07)" style="fill: none; stroke: #000000; stroke-width: 1.5"/>
   </g>
   <g id="line2d_162">
    <path d="M 1041.839586 314.811146 
L 1058.818381 314.811146 
" clip-path="url(#p0c33f6cd07)" style="fill: none; stroke: #000000; stroke-width: 1.5"/>
   </g>
   <g id="patch_28">
    <path d="M 772.494159 328.217477 
L 772.494159 33.278209 
" style="fill: none; stroke: #1a1a1a; stroke-width: 1.2; stroke-linejoin: miter; stroke-linecap: square"/>
   </g>
   <g id="patch_29">
    <path d="M 1081.19952 328.217477 
L 1081.19952 33.278209 
" style="fill: none; stroke: #1a1a1a; stroke-width: 1.2; stroke-linejoin: miter; stroke-linecap: square"/>
   </g>
   <g id="patch_30">
    <path d="M 772.494159 328.217477 
L 1081.19952 328.217477 
" style="fill: none; stroke: #1a1a1a; stroke-width: 1.2; stroke-linejoin: miter; stroke-linecap: square"/>
   </g>
   <g id="patch_31">
    <path d="M 772.494159 33.278209 
L 1081.19952 33.278209 
" style="fill: none; stroke: #1a1a1a; stroke-width: 1.2; stroke-linejoin: miter; stroke-linecap: square"/>
   </g>
   <g id="text_42">
    <!-- Pong -->
    <g transform="translate(910.472933 27.278209) scale(0.13 -0.13)">
     <defs>
      <path id="DejaVuSerif-50" d="M 1581 2375 
L 2406 2375 
Q 2872 2375 3115 2626 
Q 3359 2878 3359 3353 
Q 3359 3831 3115 4081 
Q 2872 4331 2406 4331 
L 1581 4331 
L 1581 2375 
z
M 353 0 
L 353 331 
L 947 331 
L 947 4331 
L 353 4331 
L 353 4666 
L 2559 4666 
Q 3259 4666 3668 4311 
Q 4078 3956 4078 3353 
Q 4078 2753 3668 2397 
Q 3259 2041 2559 2041 
L 1581 2041 
L 1581 331 
L 2303 331 
L 2303 0 
L 353 0 
z
" transform="scale(0.015625)"/>
      <path id="DejaVuSerif-67" d="M 3359 2988 
L 3359 72 
Q 3359 -644 2965 -1033 
Q 2572 -1422 1844 -1422 
Q 1516 -1422 1216 -1362 
Q 916 -1303 641 -1184 
L 641 -488 
L 941 -488 
Q 997 -813 1206 -963 
Q 1416 -1113 1806 -1113 
Q 2313 -1113 2548 -827 
Q 2784 -541 2784 72 
L 2784 519 
Q 2616 206 2355 57 
Q 2094 -91 1709 -91 
Q 1097 -91 708 395 
Q 319 881 319 1663 
Q 319 2444 706 2928 
Q 1094 3413 1709 3413 
Q 2094 3413 2355 3264 
Q 2616 3116 2784 2803 
L 2784 3322 
L 3909 3322 
L 3909 2988 
L 3359 2988 
z
M 2784 1825 
Q 2784 2422 2554 2737 
Q 2325 3053 1888 3053 
Q 1444 3053 1217 2703 
Q 991 2353 991 1663 
Q 991 975 1217 622 
Q 1444 269 1888 269 
Q 2325 269 2554 583 
Q 2784 897 2784 1497 
L 2784 1825 
z
" transform="scale(0.015625)"/>
     </defs>
     <use xlink:href="#DejaVuSerif-50"/>
     <use xlink:href="#DejaVuSerif-6f" x="63.285156"/>
     <use xlink:href="#DejaVuSerif-6e" x="123.490234"/>
     <use xlink:href="#DejaVuSerif-67" x="187.894531"/>
    </g>
   </g>
  </g>
  <g id="text_43">
   <!-- Per-Episode Reward Distributions -->
   <g transform="translate(423.637885 17.837812) scale(0.14 -0.14)">
    <use xlink:href="#DejaVuSerif-50"/>
    <use xlink:href="#DejaVuSerif-65" x="62.785156"/>
    <use xlink:href="#DejaVuSerif-72" x="121.964844"/>
    <use xlink:href="#DejaVuSerif-2d" x="169.767578"/>
    <use xlink:href="#DejaVuSerif-45" x="203.556641"/>
    <use xlink:href="#DejaVuSerif-70" x="276.554688"/>
    <use xlink:href="#DejaVuSerif-69" x="340.568359"/>
    <use xlink:href="#DejaVuSerif-73" x="372.550781"/>
    <use xlink:href="#DejaVuSerif-6f" x="423.869141"/>
    <use xlink:href="#DejaVuSerif-64" x="484.074219"/>
    <use xlink:href="#DejaVuSerif-65" x="548.087891"/>
    <use xlink:href="#DejaVuSerif-20" x="607.267578"/>
    <use xlink:href="#DejaVuSerif-52" x="639.054688"/>
    <use xlink:href="#DejaVuSerif-65" x="714.347656"/>
    <use xlink:href="#DejaVuSerif-77" x="773.527344"/>
    <use xlink:href="#DejaVuSerif-61" x="859.123047"/>
    <use xlink:href="#DejaVuSerif-72" x="918.742188"/>
    <use xlink:href="#DejaVuSerif-64" x="966.544922"/>
    <use xlink:href="#DejaVuSerif-20" x="1030.558594"/>
    <use xlink:href="#DejaVuSerif-44" x="1062.345703"/>
    <use xlink:href="#DejaVuSerif-69" x="1142.521484"/>
    <use xlink:href="#DejaVuSerif-73" x="1174.503906"/>
    <use xlink:href="#DejaVuSerif-74" x="1225.822266"/>
    <use xlink:href="#DejaVuSerif-72" x="1266.007812"/>
    <use xlink:href="#DejaVuSerif-69" x="1313.810547"/>
    <use xlink:href="#DejaVuSerif-62" x="1345.792969"/>
    <use xlink:href="#DejaVuSerif-75" x="1409.806641"/>
    <use xlink:href="#DejaVuSerif-74" x="1474.210938"/>
    <use xlink:href="#DejaVuSerif-69" x="1514.396484"/>
    <use xlink:href="#DejaVuSerif-6f" x="1546.378906"/>
    <use xlink:href="#DejaVuSerif-6e" x="1606.583984"/>
    <use xlink:href="#DejaVuSerif-73" x="1670.988281"/>
   </g>
  </g>
 </g>
 <defs>
  <clipPath id="p1c4f291e67">
   <rect x="48.90125" y="33.278209" width="308.705361" height="294.939268"/>
  </clipPath>
  <clipPath id="pfe486e6e0c">
   <rect x="412.870361" y="33.278209" width="308.705361" height="294.939268"/>
  </clipPath>
  <clipPath id="p0c33f6cd07">
   <rect x="772.494159" y="33.278209" width="308.705361" height="294.939268"/>
  </clipPath>
 </defs>
</svg>
