<?xml version="1.0" encoding="utf-8" standalone="no"?>
<!DOCTYPE svg PUBLIC "-//W3C//DTD SVG 1.1//EN"
  "http://www.w3.org/Graphics/SVG/1.1/DTD/svg11.dtd">
<svg xmlns:xlink="http://www.w3.org/1999/xlink" width="411.0864pt" height="362.768209pt" viewBox="0 0 411.0864 362.768209" xmlns="http://www.w3.org/2000/svg" version="1.1">
 <metadata>
  <rdf:RDF xmlns:dc="http://purl.org/dc/elements/1.1/" xmlns:cc="http://creativecommons.org/ns#" xmlns:rdf="http://www.w3.org/1999/02/22-rdf-syntax-ns#">
   <cc:Work>
    <dc:type rdf:resource="http://purl.org/dc/dcmitype/StillImage"/>
    <dc:date>2026-02-13T11:52:48.904892</dc:date>
    <dc:format>image/svg+xml</dc:format>
    <dc:creator>
     <cc:Agent>
      <dc:title>Matplotlib v3.8.0, https://matplotlib.org/</dc:title>
     </cc:Agent>
    </dc:creator>
   </cc:Work>
  </rdf:RDF>
 </metadata>
 <defs>
  <style type="text/css">*{stroke-linejoin: round; stroke-linecap: butt}</style>
 </defs>
 <g id="figure_1">
  <g id="patch_1">
   <path d="M 0 362.768209 
L 411.0864 362.768209 
L 411.0864 0 
L 0 0 
z
" style="fill: #ffffff"/>
  </g>
  <g id="axes_1">
   <g id="patch_2">
    <path d="M 318.128 201.904209 
C 318.128 181.252489 314.060062 160.801582 306.156991 141.721881 
C 298.25392 122.642181 286.669412 105.304739 272.066441 90.701768 
C 257.46347 76.098797 240.126028 64.514289 221.046327 56.611218 
C 201.966627 48.708147 181.515719 44.640209 160.864 44.640209 
C 140.212281 44.640209 119.761373 48.708147 100.681673 56.611218 
C 81.601972 64.514289 64.26453 76.098797 49.661559 90.701768 
C 35.058588 105.304739 23.47408 122.642181 15.571009 141.721881 
C 7.667938 160.801582 3.6 181.252489 3.6 201.904209 
C 3.6 222.555928 7.667938 243.006835 15.571009 262.086536 
C 23.47408 281.166237 35.058588 298.503679 49.661559 313.10665 
C 64.26453 327.70962 81.601972 339.294129 100.681673 347.1972 
C 119.761373 355.10027 140.212281 359.168209 160.864 359.168209 
C 181.515719 359.168209 201.966627 355.10027 221.046327 347.1972 
C 240.126028 339.294129 257.46347 327.70962 272.066441 313.10665 
C 286.669412 298.503679 298.25392 281.166237 306.156991 262.086536 
C 314.060062 243.006835 318.128 222.555928 318.128 201.904209 
M 160.864 201.904209 
C 160.864 201.904209 160.864 201.904209 160.864 201.904209 
C 160.864 201.904209 160.864 201.904209 160.864 201.904209 
C 160.864 201.904209 160.864 201.904209 160.864 201.904209 
C 160.864 201.904209 160.864 201.904209 160.864 201.904209 
C 160.864 201.904209 160.864 201.904209 160.864 201.904209 
C 160.864 201.904209 160.864 201.904209 160.864 201.904209 
C 160.864 201.904209 160.864 201.904209 160.864 201.904209 
C 160.864 201.904209 160.864 201.904209 160.864 201.904209 
C 160.864 201.904209 160.864 201.904209 160.864 201.904209 
C 160.864 201.904209 160.864 201.904209 160.864 201.904209 
C 160.864 201.904209 160.864 201.904209 160.864 201.904209 
C 160.864 201.904209 160.864 201.904209 160.864 201.904209 
C 160.864 201.904209 160.864 201.904209 160.864 201.904209 
C 160.864 201.904209 160.864 201.904209 160.864 201.904209 
C 160.864 201.904209 160.864 201.904209 160.864 201.904209 
C 160.864 201.904209 160.864 201.904209 160.864 201.904209 
z
" style="fill: #ffffff"/>
   </g>
   <g id="patch_3">
    <path d="M 168.012364 201.904209 
L 155.182031 192.062749 
L 85.806182 331.908163 
z
" clip-path="url(#p12f57a79e3)" style="fill: #2196f3; opacity: 0.1; stroke: #2196f3; stroke-linejoin: miter"/>
   </g>
   <g id="patch_4">
    <path d="M 168.025537 201.904209 
L 155.208378 192.108384 
L 138.319731 240.952028 
z
" clip-path="url(#p12f57a79e3)" style="fill: #ff9800; opacity: 0.1; stroke: #ff9800; stroke-linejoin: miter"/>
   </g>
   <g id="patch_5">
    <path d="M 168.012364 201.904209 
L 155.191911 192.079862 
L 143.918541 231.254604 
z
" clip-path="url(#p12f57a79e3)" style="fill: #4caf50; opacity: 0.1; stroke: #4caf50; stroke-linejoin: miter"/>
   </g>
   <g id="matplotlib.axis_1">
    <g id="xtick_1">
     <g id="line2d_1">
      <path d="M 160.864 201.904209 
L 318.128 201.904209 
" clip-path="url(#p12f57a79e3)" style="fill: none; stroke: #b0b0b0; stroke-width: 0.8; stroke-linecap: square"/>
     </g>
     <g id="text_1">
      <!-- Pong -->
      <g transform="translate(319.532688 204.521396) scale(0.1 -0.1)">
       <defs>
        <path id="DejaVuSerif-50" d="M 1581 2375 
L 2406 2375 
Q 2872 2375 3115 2626 
Q 3359 2878 3359 3353 
Q 3359 3831 3115 4081 
Q 2872 4331 2406 4331 
L 1581 4331 
L 1581 2375 
z
M 353 0 
L 353 331 
L 947 331 
L 947 4331 
L 353 4331 
L 353 4666 
L 2559 4666 
Q 3259 4666 3668 4311 
Q 4078 3956 4078 3353 
Q 4078 2753 3668 2397 
Q 3259 2041 2559 2041 
L 1581 2041 
L 1581 331 
L 2303 331 
L 2303 0 
L 353 0 
z
" transform="scale(0.015625)"/>
        <path id="DejaVuSerif-6f" d="M 1925 219 
Q 2388 219 2623 584 
Q 2859 950 2859 1663 
Q 2859 2375 2623 2739 
Q 2388 3103 1925 3103 
Q 1463 3103 1227 2739 
Q 991 2375 991 1663 
Q 991 950 1228 584 
Q 1466 219 1925 219 
z
M 1925 -91 
Q 1200 -91 759 389 
Q 319 869 319 1663 
Q 319 2456 758 2934 
Q 1197 3413 1925 3413 
Q 2653 3413 3092 2934 
Q 3531 2456 3531 1663 
Q 3531 869 3092 389 
Q 2653 -91 1925 -91 
z
" transform="scale(0.015625)"/>
        <path id="DejaVuSerif-6e" d="M 263 0 
L 263 331 
L 781 331 
L 781 2988 
L 231 2988 
L 231 3322 
L 1356 3322 
L 1356 2731 
Q 1516 3069 1770 3241 
Q 2025 3413 2363 3413 
Q 2913 3413 3172 3097 
Q 3431 2781 3431 2113 
L 3431 331 
L 3944 331 
L 3944 0 
L 2356 0 
L 2356 331 
L 2853 331 
L 2853 1931 
Q 2853 2541 2703 2767 
Q 2553 2994 2175 2994 
Q 1775 2994 1565 2701 
Q 1356 2409 1356 1850 
L 1356 331 
L 1856 331 
L 1856 0 
L 263 0 
z
" transform="scale(0.015625)"/>
        <path id="DejaVuSerif-67" d="M 3359 2988 
L 3359 72 
Q 3359 -644 2965 -1033 
Q 2572 -1422 1844 -1422 
Q 1516 -1422 1216 -1362 
Q 916 -1303 641 -1184 
L 641 -488 
L 941 -488 
Q 997 -813 1206 -963 
Q 1416 -1113 1806 -1113 
Q 2313 -1113 2548 -827 
Q 2784 -541 2784 72 
L 2784 519 
Q 2616 206 2355 57 
Q 2094 -91 1709 -91 
Q 1097 -91 708 395 
Q 319 881 319 1663 
Q 319 2444 706 2928 
Q 1094 3413 1709 3413 
Q 2094 3413 2355 3264 
Q 2616 3116 2784 2803 
L 2784 3322 
L 3909 3322 
L 3909 2988 
L 3359 2988 
z
M 2784 1825 
Q 2784 2422 2554 2737 
Q 2325 3053 1888 3053 
Q 1444 3053 1217 2703 
Q 991 2353 991 1663 
Q 991 975 1217 622 
Q 1444 269 1888 269 
Q 2325 269 2554 583 
Q 2784 897 2784 1497 
L 2784 1825 
z
" transform="scale(0.015625)"/>
       </defs>
       <use xlink:href="#DejaVuSerif-50"/>
       <use xlink:href="#DejaVuSerif-6f" x="63.285156"/>
       <use xlink:href="#DejaVuSerif-6e" x="123.490234"/>
       <use xlink:href="#DejaVuSerif-67" x="187.894531"/>
      </g>
     </g>
    </g>
    <g id="xtick_2">
     <g id="line2d_2">
      <path d="M 160.864 201.904209 
L 82.232 65.70959 
" clip-path="url(#p12f57a79e3)" style="fill: none; stroke: #b0b0b0; stroke-width: 0.8; stroke-linecap: square"/>
     </g>
     <g id="text_2">
      <!-- Breakout -->
      <g transform="translate(51.957781 56.344609) scale(0.1 -0.1)">
       <defs>
        <path id="DejaVuSerif-42" d="M 1581 331 
L 2516 331 
Q 3078 331 3337 575 
Q 3597 819 3597 1350 
Q 3597 1878 3339 2120 
Q 3081 2363 2516 2363 
L 1581 2363 
L 1581 331 
z
M 1581 2694 
L 2375 2694 
Q 2888 2694 3123 2891 
Q 3359 3088 3359 3513 
Q 3359 3941 3123 4136 
Q 2888 4331 2375 4331 
L 1581 4331 
L 1581 2694 
z
M 353 0 
L 353 331 
L 947 331 
L 947 4331 
L 353 4331 
L 353 4666 
L 2656 4666 
Q 3363 4666 3720 4377 
Q 4078 4088 4078 3513 
Q 4078 3097 3829 2850 
Q 3581 2603 3103 2547 
Q 3697 2472 4005 2167 
Q 4313 1863 4313 1350 
Q 4313 656 3875 328 
Q 3438 0 2509 0 
L 353 0 
z
" transform="scale(0.015625)"/>
        <path id="DejaVuSerif-72" d="M 3059 3328 
L 3059 2497 
L 2728 2497 
Q 2713 2744 2591 2866 
Q 2469 2988 2234 2988 
Q 1809 2988 1582 2694 
Q 1356 2400 1356 1850 
L 1356 331 
L 2022 331 
L 2022 0 
L 263 0 
L 263 331 
L 781 331 
L 781 2994 
L 231 2994 
L 231 3322 
L 1356 3322 
L 1356 2731 
Q 1525 3078 1790 3245 
Q 2056 3413 2438 3413 
Q 2578 3413 2733 3391 
Q 2888 3369 3059 3328 
z
" transform="scale(0.015625)"/>
        <path id="DejaVuSerif-65" d="M 3469 1600 
L 991 1600 
L 991 1575 
Q 991 903 1244 561 
Q 1497 219 1991 219 
Q 2369 219 2611 417 
Q 2853 616 2950 1006 
L 3413 1006 
Q 3275 459 2904 184 
Q 2534 -91 1931 -91 
Q 1203 -91 761 389 
Q 319 869 319 1663 
Q 319 2450 753 2931 
Q 1188 3413 1894 3413 
Q 2647 3413 3050 2948 
Q 3453 2484 3469 1600 
z
M 2791 1931 
Q 2772 2513 2545 2808 
Q 2319 3103 1894 3103 
Q 1497 3103 1269 2806 
Q 1041 2509 991 1931 
L 2791 1931 
z
" transform="scale(0.015625)"/>
        <path id="DejaVuSerif-61" d="M 2547 1044 
L 2547 1747 
L 1806 1747 
Q 1378 1747 1168 1562 
Q 959 1378 959 997 
Q 959 650 1171 447 
Q 1384 244 1747 244 
Q 2106 244 2326 466 
Q 2547 688 2547 1044 
z
M 3122 2075 
L 3122 331 
L 3634 331 
L 3634 0 
L 2547 0 
L 2547 359 
Q 2356 128 2106 18 
Q 1856 -91 1522 -91 
Q 969 -91 644 203 
Q 319 497 319 997 
Q 319 1513 691 1797 
Q 1063 2081 1741 2081 
L 2547 2081 
L 2547 2309 
Q 2547 2688 2317 2895 
Q 2088 3103 1672 3103 
Q 1328 3103 1125 2947 
Q 922 2791 872 2484 
L 575 2484 
L 575 3156 
Q 875 3284 1158 3348 
Q 1441 3413 1709 3413 
Q 2400 3413 2761 3070 
Q 3122 2728 3122 2075 
z
" transform="scale(0.015625)"/>
        <path id="DejaVuSerif-6b" d="M 1831 0 
L 219 0 
L 219 331 
L 738 331 
L 738 4531 
L 184 4531 
L 184 4863 
L 1313 4863 
L 1313 1697 
L 2713 2988 
L 2234 2988 
L 2234 3322 
L 3738 3322 
L 3738 2988 
L 3169 2988 
L 2181 2075 
L 3444 331 
L 3922 331 
L 3922 0 
L 2284 0 
L 2284 331 
L 2759 331 
L 1766 1697 
L 1313 1275 
L 1313 331 
L 1831 331 
L 1831 0 
z
" transform="scale(0.015625)"/>
        <path id="DejaVuSerif-75" d="M 2266 3322 
L 3341 3322 
L 3341 331 
L 3884 331 
L 3884 0 
L 2766 0 
L 2766 588 
Q 2606 256 2353 82 
Q 2100 -91 1766 -91 
Q 1213 -91 952 223 
Q 691 538 691 1209 
L 691 2988 
L 172 2988 
L 172 3322 
L 1269 3322 
L 1269 1388 
Q 1269 781 1417 556 
Q 1566 331 1947 331 
Q 2347 331 2556 625 
Q 2766 919 2766 1478 
L 2766 2988 
L 2266 2988 
L 2266 3322 
z
" transform="scale(0.015625)"/>
        <path id="DejaVuSerif-74" d="M 691 2988 
L 184 2988 
L 184 3322 
L 691 3322 
L 691 4353 
L 1269 4353 
L 1269 3322 
L 2350 3322 
L 2350 2988 
L 1269 2988 
L 1269 878 
Q 1269 456 1350 337 
Q 1431 219 1650 219 
Q 1875 219 1978 351 
Q 2081 484 2088 781 
L 2522 781 
Q 2497 328 2275 118 
Q 2053 -91 1600 -91 
Q 1103 -91 897 129 
Q 691 350 691 878 
L 691 2988 
z
" transform="scale(0.015625)"/>
       </defs>
       <use xlink:href="#DejaVuSerif-42"/>
       <use xlink:href="#DejaVuSerif-72" x="73.486328"/>
       <use xlink:href="#DejaVuSerif-65" x="121.289062"/>
       <use xlink:href="#DejaVuSerif-61" x="180.46875"/>
       <use xlink:href="#DejaVuSerif-6b" x="240.087891"/>
       <use xlink:href="#DejaVuSerif-6f" x="300.683594"/>
       <use xlink:href="#DejaVuSerif-75" x="360.888672"/>
       <use xlink:href="#DejaVuSerif-74" x="425.292969"/>
      </g>
     </g>
    </g>
    <g id="xtick_3">
     <g id="line2d_3">
      <path d="M 160.864 201.904209 
L 82.232 338.098828 
" clip-path="url(#p12f57a79e3)" style="fill: none; stroke: #b0b0b0; stroke-width: 0.8; stroke-linecap: square"/>
     </g>
     <g id="text_3">
      <!-- SpaceInvaders -->
      <g transform="translate(37.748406 352.982559) scale(0.1 -0.1)">
       <defs>
        <path id="DejaVuSerif-53" d="M 594 225 
L 594 1288 
L 953 1284 
Q 969 753 1261 498 
Q 1553 244 2150 244 
Q 2706 244 2998 464 
Q 3291 684 3291 1106 
Q 3291 1444 3114 1625 
Q 2938 1806 2369 1978 
L 1753 2163 
Q 1084 2366 811 2669 
Q 538 2972 538 3500 
Q 538 4094 959 4422 
Q 1381 4750 2144 4750 
Q 2469 4750 2856 4679 
Q 3244 4609 3681 4475 
L 3681 3481 
L 3328 3481 
Q 3275 3975 2998 4195 
Q 2722 4416 2156 4416 
Q 1663 4416 1405 4214 
Q 1147 4013 1147 3628 
Q 1147 3294 1340 3103 
Q 1534 2913 2163 2725 
L 2741 2553 
Q 3375 2363 3645 2067 
Q 3916 1772 3916 1275 
Q 3916 597 3481 253 
Q 3047 -91 2188 -91 
Q 1803 -91 1404 -12 
Q 1006 66 594 225 
z
" transform="scale(0.015625)"/>
        <path id="DejaVuSerif-70" d="M 1313 1825 
L 1313 1497 
Q 1313 897 1542 583 
Q 1772 269 2209 269 
Q 2650 269 2876 622 
Q 3103 975 3103 1663 
Q 3103 2353 2876 2703 
Q 2650 3053 2209 3053 
Q 1772 3053 1542 2737 
Q 1313 2422 1313 1825 
z
M 738 2988 
L 184 2988 
L 184 3322 
L 1313 3322 
L 1313 2803 
Q 1481 3116 1742 3264 
Q 2003 3413 2388 3413 
Q 3000 3413 3387 2928 
Q 3775 2444 3775 1663 
Q 3775 881 3387 395 
Q 3000 -91 2388 -91 
Q 2003 -91 1742 57 
Q 1481 206 1313 519 
L 1313 -997 
L 1856 -997 
L 1856 -1331 
L 184 -1331 
L 184 -997 
L 738 -997 
L 738 2988 
z
" transform="scale(0.015625)"/>
        <path id="DejaVuSerif-63" d="M 3291 997 
Q 3169 466 2822 187 
Q 2475 -91 1925 -91 
Q 1200 -91 759 389 
Q 319 869 319 1663 
Q 319 2459 759 2936 
Q 1200 3413 1925 3413 
Q 2241 3413 2553 3339 
Q 2866 3266 3181 3116 
L 3181 2266 
L 2847 2266 
Q 2781 2703 2561 2903 
Q 2341 3103 1931 3103 
Q 1466 3103 1228 2742 
Q 991 2381 991 1663 
Q 991 944 1227 581 
Q 1463 219 1931 219 
Q 2303 219 2525 412 
Q 2747 606 2828 997 
L 3291 997 
z
" transform="scale(0.015625)"/>
        <path id="DejaVuSerif-49" d="M 1581 331 
L 2175 331 
L 2175 0 
L 353 0 
L 353 331 
L 947 331 
L 947 4331 
L 353 4331 
L 353 4666 
L 2175 4666 
L 2175 4331 
L 1581 4331 
L 1581 331 
z
" transform="scale(0.015625)"/>
        <path id="DejaVuSerif-76" d="M 1581 0 
L 359 2988 
L -19 2988 
L -19 3322 
L 1509 3322 
L 1509 2988 
L 978 2988 
L 1913 703 
L 2847 2988 
L 2350 2988 
L 2350 3322 
L 3597 3322 
L 3597 2988 
L 3225 2988 
L 2003 0 
L 1581 0 
z
" transform="scale(0.015625)"/>
        <path id="DejaVuSerif-64" d="M 3359 331 
L 3909 331 
L 3909 0 
L 2784 0 
L 2784 519 
Q 2616 206 2355 57 
Q 2094 -91 1709 -91 
Q 1097 -91 708 395 
Q 319 881 319 1663 
Q 319 2444 706 2928 
Q 1094 3413 1709 3413 
Q 2094 3413 2355 3264 
Q 2616 3116 2784 2803 
L 2784 4531 
L 2241 4531 
L 2241 4863 
L 3359 4863 
L 3359 331 
z
M 2784 1497 
L 2784 1825 
Q 2784 2422 2554 2737 
Q 2325 3053 1888 3053 
Q 1444 3053 1217 2703 
Q 991 2353 991 1663 
Q 991 975 1217 622 
Q 1444 269 1888 269 
Q 2325 269 2554 583 
Q 2784 897 2784 1497 
z
" transform="scale(0.015625)"/>
        <path id="DejaVuSerif-73" d="M 359 184 
L 359 959 
L 691 959 
Q 703 588 923 403 
Q 1144 219 1575 219 
Q 1963 219 2166 364 
Q 2369 509 2369 788 
Q 2369 1006 2220 1140 
Q 2072 1275 1594 1428 
L 1178 1569 
Q 750 1706 558 1912 
Q 366 2119 366 2438 
Q 366 2894 700 3153 
Q 1034 3413 1625 3413 
Q 1888 3413 2178 3344 
Q 2469 3275 2778 3144 
L 2778 2419 
L 2447 2419 
Q 2434 2741 2221 2922 
Q 2009 3103 1644 3103 
Q 1281 3103 1095 2975 
Q 909 2847 909 2591 
Q 909 2381 1050 2254 
Q 1191 2128 1613 1997 
L 2069 1856 
Q 2541 1709 2748 1489 
Q 2956 1269 2956 922 
Q 2956 450 2595 179 
Q 2234 -91 1600 -91 
Q 1278 -91 972 -22 
Q 666 47 359 184 
z
" transform="scale(0.015625)"/>
       </defs>
       <use xlink:href="#DejaVuSerif-53"/>
       <use xlink:href="#DejaVuSerif-70" x="68.505859"/>
       <use xlink:href="#DejaVuSerif-61" x="132.519531"/>
       <use xlink:href="#DejaVuSerif-63" x="192.138672"/>
       <use xlink:href="#DejaVuSerif-65" x="248.144531"/>
       <use xlink:href="#DejaVuSerif-49" x="307.324219"/>
       <use xlink:href="#DejaVuSerif-6e" x="346.826172"/>
       <use xlink:href="#DejaVuSerif-76" x="411.230469"/>
       <use xlink:href="#DejaVuSerif-61" x="467.724609"/>
       <use xlink:href="#DejaVuSerif-64" x="527.34375"/>
       <use xlink:href="#DejaVuSerif-65" x="591.357422"/>
       <use xlink:href="#DejaVuSerif-72" x="650.537109"/>
       <use xlink:href="#DejaVuSerif-73" x="698.339844"/>
      </g>
     </g>
    </g>
   </g>
   <g id="matplotlib.axis_2">
    <g id="ytick_1">
     <g id="line2d_4">
      <path d="M 172.16207 201.904209 
C 172.16207 200.42056 171.869824 198.951337 171.302056 197.580624 
C 170.734288 196.209912 169.90204 194.964365 168.852942 193.915267 
C 167.803844 192.866168 166.558297 192.033921 165.187584 191.466153 
C 163.816871 190.898385 162.347649 190.606139 160.864 190.606139 
C 159.380351 190.606139 157.911129 190.898385 156.540416 191.466153 
C 155.169703 192.033921 153.924156 192.866168 152.875058 193.915267 
C 151.82596 194.964365 150.993712 196.209912 150.425944 197.580624 
C 149.858176 198.951337 149.56593 200.42056 149.56593 201.904209 
C 149.56593 203.387858 149.858176 204.85708 150.425944 206.227793 
C 150.993712 207.598506 151.82596 208.844053 152.875058 209.893151 
C 153.924156 210.942249 155.169703 211.774497 156.540416 212.342265 
C 157.911129 212.910032 159.380351 213.202279 160.864 213.202279 
C 162.347649 213.202279 163.816871 212.910032 165.187584 212.342265 
C 166.558297 211.774497 167.803844 210.942249 168.852942 209.893151 
C 169.90204 208.844053 170.734288 207.598506 171.302056 206.227793 
C 171.869824 204.85708 172.16207 203.387858 172.16207 201.904209 
" clip-path="url(#p12f57a79e3)" style="fill: none; stroke: #b0b0b0; stroke-width: 0.8; stroke-linecap: square"/>
     </g>
     <g id="text_4">
      <!-- 0 -->
      <g transform="translate(171.302056 195.500937) scale(0.1 -0.1)">
       <defs>
        <path id="DejaVuSerif-30" d="M 2034 219 
Q 2513 219 2750 744 
Q 2988 1269 2988 2328 
Q 2988 3391 2750 3916 
Q 2513 4441 2034 4441 
Q 1556 4441 1318 3916 
Q 1081 3391 1081 2328 
Q 1081 1269 1318 744 
Q 1556 219 2034 219 
z
M 2034 -91 
Q 1275 -91 848 546 
Q 422 1184 422 2328 
Q 422 3475 848 4112 
Q 1275 4750 2034 4750 
Q 2797 4750 3222 4112 
Q 3647 3475 3647 2328 
Q 3647 1184 3222 546 
Q 2797 -91 2034 -91 
z
" transform="scale(0.015625)"/>
       </defs>
       <use xlink:href="#DejaVuSerif-30"/>
      </g>
     </g>
    </g>
    <g id="ytick_2">
     <g id="line2d_5">
      <path d="M 191.922578 201.904209 
C 191.922578 197.825634 191.119188 193.786718 189.558384 190.018606 
C 187.997581 186.250494 185.709719 182.826466 182.825731 179.942478 
C 179.941743 177.05849 176.517715 174.770627 172.749603 173.209824 
C 168.981491 171.649021 164.942575 170.845631 160.864 170.845631 
C 156.785425 170.845631 152.746509 171.649021 148.978397 173.209824 
C 145.210285 174.770627 141.786257 177.05849 138.902269 179.942478 
C 136.018281 182.826466 133.730419 186.250494 132.169616 190.018606 
C 130.608812 193.786718 129.805422 197.825634 129.805422 201.904209 
C 129.805422 205.982784 130.608812 210.0217 132.169616 213.789812 
C 133.730419 217.557924 136.018281 220.981952 138.902269 223.86594 
C 141.786257 226.749928 145.210285 229.03779 148.978397 230.598593 
C 152.746509 232.159396 156.785425 232.962787 160.864 232.962787 
C 164.942575 232.962787 168.981491 232.159396 172.749603 230.598593 
C 176.517715 229.03779 179.941743 226.749928 182.825731 223.86594 
C 185.709719 220.981952 187.997581 217.557924 189.558384 213.789812 
C 191.119188 210.0217 191.922578 205.982784 191.922578 201.904209 
" clip-path="url(#p12f57a79e3)" style="fill: none; stroke: #b0b0b0; stroke-width: 0.8; stroke-linecap: square"/>
     </g>
     <g id="text_5">
      <!-- 100 -->
      <g transform="translate(189.558384 187.938918) scale(0.1 -0.1)">
       <defs>
        <path id="DejaVuSerif-31" d="M 909 0 
L 909 331 
L 1722 331 
L 1722 4213 
L 781 3603 
L 781 4013 
L 1919 4750 
L 2350 4750 
L 2350 331 
L 3163 331 
L 3163 0 
L 909 0 
z
" transform="scale(0.015625)"/>
       </defs>
       <use xlink:href="#DejaVuSerif-31"/>
       <use xlink:href="#DejaVuSerif-30" x="63.623047"/>
       <use xlink:href="#DejaVuSerif-30" x="127.246094"/>
      </g>
     </g>
    </g>
    <g id="ytick_3">
     <g id="line2d_6">
      <path d="M 211.683086 201.904209 
C 211.683086 195.230708 210.368551 188.622098 207.814713 182.456587 
C 205.260875 176.291076 201.517398 170.688567 196.79852 165.969689 
C 192.079642 161.250811 186.477133 157.507334 180.311622 154.953496 
C 174.146111 152.399657 167.537501 151.085123 160.864 151.085123 
C 154.190499 151.085123 147.581889 152.399657 141.416378 154.953496 
C 135.250867 157.507334 129.648358 161.250811 124.92948 165.969689 
C 120.210602 170.688567 116.467125 176.291076 113.913287 182.456587 
C 111.359449 188.622098 110.044914 195.230708 110.044914 201.904209 
C 110.044914 208.57771 111.359449 215.18632 113.913287 221.351831 
C 116.467125 227.517342 120.210602 233.119851 124.92948 237.838729 
C 129.648358 242.557607 135.250867 246.301083 141.416378 248.854922 
C 147.581889 251.40876 154.190499 252.723294 160.864 252.723294 
C 167.537501 252.723294 174.146111 251.40876 180.311622 248.854922 
C 186.477133 246.301083 192.079642 242.557607 196.79852 237.838729 
C 201.517398 233.119851 205.260875 227.517342 207.814713 221.351831 
C 210.368551 215.18632 211.683086 208.57771 211.683086 201.904209 
" clip-path="url(#p12f57a79e3)" style="fill: none; stroke: #b0b0b0; stroke-width: 0.8; stroke-linecap: square"/>
     </g>
     <g id="text_6">
      <!-- 200 -->
      <g transform="translate(207.814713 180.376899) scale(0.1 -0.1)">
       <defs>
        <path id="DejaVuSerif-32" d="M 819 3553 
L 469 3553 
L 469 4384 
Q 803 4563 1142 4656 
Q 1481 4750 1806 4750 
Q 2534 4750 2956 4397 
Q 3378 4044 3378 3438 
Q 3378 2753 2422 1800 
Q 2347 1728 2309 1691 
L 1131 513 
L 3078 513 
L 3078 1088 
L 3444 1088 
L 3444 0 
L 434 0 
L 434 341 
L 1850 1753 
Q 2319 2222 2519 2614 
Q 2719 3006 2719 3438 
Q 2719 3909 2473 4175 
Q 2228 4441 1797 4441 
Q 1350 4441 1106 4219 
Q 863 3997 819 3553 
z
" transform="scale(0.015625)"/>
       </defs>
       <use xlink:href="#DejaVuSerif-32"/>
       <use xlink:href="#DejaVuSerif-30" x="63.623047"/>
       <use xlink:href="#DejaVuSerif-30" x="127.246094"/>
      </g>
     </g>
    </g>
    <g id="ytick_4">
     <g id="line2d_7">
      <path d="M 231.443593 201.904209 
C 231.443593 192.635781 229.617915 183.457478 226.071042 174.894568 
C 222.524168 166.331658 217.325077 158.550668 210.771309 151.9969 
C 204.217541 145.443132 196.436551 140.244041 187.873641 136.697167 
C 179.310731 133.150294 170.132427 131.324616 160.864 131.324616 
C 151.595573 131.324616 142.417269 133.150294 133.854359 136.697167 
C 125.291449 140.244041 117.510459 145.443132 110.956691 151.9969 
C 104.402923 158.550668 99.203832 166.331658 95.656958 174.894568 
C 92.110085 183.457478 90.284407 192.635781 90.284407 201.904209 
C 90.284407 211.172636 92.110085 220.350939 95.656958 228.91385 
C 99.203832 237.47676 104.402923 245.25775 110.956691 251.811518 
C 117.510459 258.365285 125.291449 263.564377 133.854359 267.11125 
C 142.417269 270.658124 151.595573 272.483802 160.864 272.483802 
C 170.132427 272.483802 179.310731 270.658124 187.873641 267.11125 
C 196.436551 263.564377 204.217541 258.365285 210.771309 251.811518 
C 217.325077 245.25775 222.524168 237.47676 226.071042 228.91385 
C 229.617915 220.350939 231.443593 211.172636 231.443593 201.904209 
" clip-path="url(#p12f57a79e3)" style="fill: none; stroke: #b0b0b0; stroke-width: 0.8; stroke-linecap: square"/>
     </g>
     <g id="text_7">
      <!-- 300 -->
      <g transform="translate(226.071042 172.81488) scale(0.1 -0.1)">
       <defs>
        <path id="DejaVuSerif-33" d="M 622 4469 
Q 988 4606 1323 4678 
Q 1659 4750 1953 4750 
Q 2638 4750 3022 4454 
Q 3406 4159 3406 3634 
Q 3406 3213 3140 2930 
Q 2875 2647 2388 2547 
Q 2963 2466 3280 2130 
Q 3597 1794 3597 1259 
Q 3597 606 3158 257 
Q 2719 -91 1894 -91 
Q 1528 -91 1179 -12 
Q 831 66 488 225 
L 488 1131 
L 838 1131 
Q 869 681 1141 450 
Q 1413 219 1906 219 
Q 2384 219 2661 495 
Q 2938 772 2938 1253 
Q 2938 1803 2653 2086 
Q 2369 2369 1819 2369 
L 1522 2369 
L 1522 2688 
L 1678 2688 
Q 2225 2688 2498 2914 
Q 2772 3141 2772 3597 
Q 2772 4006 2547 4223 
Q 2322 4441 1900 4441 
Q 1478 4441 1245 4241 
Q 1013 4041 972 3647 
L 622 3647 
L 622 4469 
z
" transform="scale(0.015625)"/>
       </defs>
       <use xlink:href="#DejaVuSerif-33"/>
       <use xlink:href="#DejaVuSerif-30" x="63.623047"/>
       <use xlink:href="#DejaVuSerif-30" x="127.246094"/>
      </g>
     </g>
    </g>
    <g id="ytick_5">
     <g id="line2d_8">
      <path d="M 251.204101 201.904209 
C 251.204101 190.040855 248.867279 178.292858 244.32737 167.332549 
C 239.787461 156.37224 233.132755 146.412768 224.744098 138.024111 
C 216.35544 129.635453 206.395969 122.980747 195.43566 118.440839 
C 184.475351 113.90093 172.727353 111.564108 160.864 111.564108 
C 149.000647 111.564108 137.252649 113.90093 126.29234 118.440839 
C 115.332031 122.980747 105.37256 129.635453 96.983902 138.024111 
C 88.595245 146.412768 81.940539 156.37224 77.40063 167.332549 
C 72.860721 178.292858 70.523899 190.040855 70.523899 201.904209 
C 70.523899 213.767562 72.860721 225.515559 77.40063 236.475869 
C 81.940539 247.436178 88.595245 257.395649 96.983902 265.784307 
C 105.37256 274.172964 115.332031 280.82767 126.29234 285.367579 
C 137.252649 289.907488 149.000647 292.24431 160.864 292.24431 
C 172.727353 292.24431 184.475351 289.907488 195.43566 285.367579 
C 206.395969 280.82767 216.35544 274.172964 224.744098 265.784307 
C 233.132755 257.395649 239.787461 247.436178 244.32737 236.475869 
C 248.867279 225.515559 251.204101 213.767562 251.204101 201.904209 
" clip-path="url(#p12f57a79e3)" style="fill: none; stroke: #b0b0b0; stroke-width: 0.8; stroke-linecap: square"/>
     </g>
     <g id="text_8">
      <!-- 400 -->
      <g transform="translate(244.32737 165.252861) scale(0.1 -0.1)">
       <defs>
        <path id="DejaVuSerif-34" d="M 2234 1581 
L 2234 4063 
L 641 1581 
L 2234 1581 
z
M 3609 0 
L 1484 0 
L 1484 331 
L 2234 331 
L 2234 1247 
L 197 1247 
L 197 1588 
L 2241 4750 
L 2859 4750 
L 2859 1581 
L 3750 1581 
L 3750 1247 
L 2859 1247 
L 2859 331 
L 3609 331 
L 3609 0 
z
" transform="scale(0.015625)"/>
       </defs>
       <use xlink:href="#DejaVuSerif-34"/>
       <use xlink:href="#DejaVuSerif-30" x="63.623047"/>
       <use xlink:href="#DejaVuSerif-30" x="127.246094"/>
      </g>
     </g>
    </g>
    <g id="ytick_6">
     <g id="line2d_9">
      <path d="M 270.964608 201.904209 
C 270.964608 187.445929 268.116643 173.128238 262.583699 159.77053 
C 257.050755 146.412822 248.940434 134.274869 238.716887 124.051322 
C 228.493339 113.827775 216.355387 105.717454 202.997679 100.18451 
C 189.63997 94.651566 175.322279 91.8036 160.864 91.8036 
C 146.405721 91.8036 132.08803 94.651566 118.730321 100.18451 
C 105.372613 105.717454 93.234661 113.827775 83.011113 124.051322 
C 72.787566 134.274869 64.677245 146.412822 59.144301 159.77053 
C 53.611357 173.128238 50.763392 187.445929 50.763392 201.904209 
C 50.763392 216.362488 53.611357 230.680179 59.144301 244.037887 
C 64.677245 257.395596 72.787566 269.533548 83.011113 279.757096 
C 93.234661 289.980643 105.372613 298.090963 118.730321 303.623907 
C 132.08803 309.156851 146.405721 312.004817 160.864 312.004817 
C 175.322279 312.004817 189.63997 309.156851 202.997679 303.623907 
C 216.355387 298.090963 228.493339 289.980643 238.716887 279.757096 
C 248.940434 269.533548 257.050755 257.395596 262.583699 244.037887 
C 268.116643 230.680179 270.964608 216.362488 270.964608 201.904209 
" clip-path="url(#p12f57a79e3)" style="fill: none; stroke: #b0b0b0; stroke-width: 0.8; stroke-linecap: square"/>
     </g>
     <g id="text_9">
      <!-- 500 -->
      <g transform="translate(262.583699 157.690843) scale(0.1 -0.1)">
       <defs>
        <path id="DejaVuSerif-35" d="M 3219 4666 
L 3219 4153 
L 1081 4153 
L 1081 2816 
Q 1244 2928 1461 2984 
Q 1678 3041 1947 3041 
Q 2703 3041 3140 2622 
Q 3578 2203 3578 1478 
Q 3578 738 3136 323 
Q 2694 -91 1894 -91 
Q 1572 -91 1234 -12 
Q 897 66 544 225 
L 544 1131 
L 897 1131 
Q 925 688 1179 453 
Q 1434 219 1894 219 
Q 2388 219 2653 544 
Q 2919 869 2919 1478 
Q 2919 2084 2655 2407 
Q 2391 2731 1894 2731 
Q 1613 2731 1398 2631 
Q 1184 2531 1019 2322 
L 750 2322 
L 750 4666 
L 3219 4666 
z
" transform="scale(0.015625)"/>
       </defs>
       <use xlink:href="#DejaVuSerif-35"/>
       <use xlink:href="#DejaVuSerif-30" x="63.623047"/>
       <use xlink:href="#DejaVuSerif-30" x="127.246094"/>
      </g>
     </g>
    </g>
    <g id="ytick_7">
     <g id="line2d_10">
      <path d="M 290.725116 201.904209 
C 290.725116 184.851003 287.366006 167.963619 280.840027 152.208511 
C 274.314048 136.453404 264.748113 122.13697 252.689676 110.078533 
C 240.631239 98.020096 226.314805 88.454161 210.559698 81.928182 
C 194.80459 75.402202 177.917206 72.043093 160.864 72.043093 
C 143.810794 72.043093 126.92341 75.402202 111.168302 81.928182 
C 95.413195 88.454161 81.096761 98.020096 69.038324 110.078533 
C 56.979887 122.13697 47.413952 136.453404 40.887973 152.208511 
C 34.361994 167.963619 31.002884 184.851003 31.002884 201.904209 
C 31.002884 218.957414 34.361994 235.844799 40.887973 251.599906 
C 47.413952 267.355014 56.979887 281.671447 69.038324 293.729885 
C 81.096761 305.788322 95.413195 315.354257 111.168302 321.880236 
C 126.92341 328.406215 143.810794 331.765325 160.864 331.765325 
C 177.917206 331.765325 194.80459 328.406215 210.559698 321.880236 
C 226.314805 315.354257 240.631239 305.788322 252.689676 293.729885 
C 264.748113 281.671447 274.314048 267.355014 280.840027 251.599906 
C 287.366006 235.844799 290.725116 218.957414 290.725116 201.904209 
" clip-path="url(#p12f57a79e3)" style="fill: none; stroke: #b0b0b0; stroke-width: 0.8; stroke-linecap: square"/>
     </g>
     <g id="text_10">
      <!-- 600 -->
      <g transform="translate(280.840027 150.128824) scale(0.1 -0.1)">
       <defs>
        <path id="DejaVuSerif-36" d="M 2094 219 
Q 2534 219 2771 542 
Q 3009 866 3009 1472 
Q 3009 2078 2771 2401 
Q 2534 2725 2094 2725 
Q 1647 2725 1412 2412 
Q 1178 2100 1178 1509 
Q 1178 888 1415 553 
Q 1653 219 2094 219 
z
M 1075 2569 
Q 1288 2803 1556 2918 
Q 1825 3034 2163 3034 
Q 2859 3034 3264 2615 
Q 3669 2197 3669 1472 
Q 3669 763 3233 336 
Q 2797 -91 2069 -91 
Q 1278 -91 853 498 
Q 428 1088 428 2181 
Q 428 3406 931 4078 
Q 1434 4750 2350 4750 
Q 2597 4750 2869 4703 
Q 3141 4656 3425 4563 
L 3425 3794 
L 3072 3794 
Q 3034 4109 2831 4275 
Q 2628 4441 2284 4441 
Q 1678 4441 1381 3981 
Q 1084 3522 1075 2569 
z
" transform="scale(0.015625)"/>
       </defs>
       <use xlink:href="#DejaVuSerif-36"/>
       <use xlink:href="#DejaVuSerif-30" x="63.623047"/>
       <use xlink:href="#DejaVuSerif-30" x="127.246094"/>
      </g>
     </g>
    </g>
    <g id="ytick_8">
     <g id="line2d_11">
      <path d="M 310.485624 201.904209 
C 310.485624 182.256077 306.61537 162.798999 299.096356 144.646492 
C 291.577341 126.493986 280.555792 109.999071 266.662465 96.105744 
C 252.769138 82.212417 236.274223 71.190867 218.121717 63.671853 
C 199.96921 56.152839 180.512132 52.282585 160.864 52.282585 
C 141.215868 52.282585 121.75879 56.152839 103.606283 63.671853 
C 85.453777 71.190867 68.958862 82.212417 55.065535 96.105744 
C 41.172208 109.999071 30.150659 126.493986 22.631644 144.646492 
C 15.11263 162.798999 11.242376 182.256077 11.242376 201.904209 
C 11.242376 221.55234 15.11263 241.009419 22.631644 259.161925 
C 30.150659 277.314432 41.172208 293.809346 55.065535 307.702673 
C 68.958862 321.596001 85.453777 332.61755 103.606283 340.136564 
C 121.75879 347.655579 141.215868 351.525832 160.864 351.525832 
C 180.512132 351.525832 199.96921 347.655579 218.121717 340.136564 
C 236.274223 332.61755 252.769138 321.596001 266.662465 307.702673 
C 280.555792 293.809346 291.577341 277.314432 299.096356 259.161925 
C 306.61537 241.009419 310.485624 221.55234 310.485624 201.904209 
" clip-path="url(#p12f57a79e3)" style="fill: none; stroke: #b0b0b0; stroke-width: 0.8; stroke-linecap: square"/>
     </g>
     <g id="text_11">
      <!-- 700 -->
      <g transform="translate(299.096356 142.566805) scale(0.1 -0.1)">
       <defs>
        <path id="DejaVuSerif-37" d="M 3609 4347 
L 1784 0 
L 1319 0 
L 3059 4153 
L 903 4153 
L 903 3578 
L 538 3578 
L 538 4666 
L 3609 4666 
L 3609 4347 
z
" transform="scale(0.015625)"/>
       </defs>
       <use xlink:href="#DejaVuSerif-37"/>
       <use xlink:href="#DejaVuSerif-30" x="63.623047"/>
       <use xlink:href="#DejaVuSerif-30" x="127.246094"/>
      </g>
     </g>
    </g>
   </g>
   <g id="line2d_12">
    <path d="M 168.012364 201.904209 
L 155.182031 192.062749 
L 85.806182 331.908163 
L 168.012364 201.904209 
" clip-path="url(#p12f57a79e3)" style="fill: none; stroke: #2196f3; stroke-width: 1.5; stroke-linecap: square"/>
    <defs>
     <path id="mcaee188069" d="M 0 2 
C 0.530406 2 1.03916 1.789267 1.414214 1.414214 
C 1.789267 1.03916 2 0.530406 2 0 
C 2 -0.530406 1.789267 -1.03916 1.414214 -1.414214 
C 1.03916 -1.789267 0.530406 -2 0 -2 
C -0.530406 -2 -1.03916 -1.789267 -1.414214 -1.414214 
C -1.789267 -1.03916 -2 -0.530406 -2 0 
C -2 0.530406 -1.789267 1.03916 -1.414214 1.414214 
C -1.03916 1.789267 -0.530406 2 0 2 
z
" style="stroke: #2196f3"/>
    </defs>
    <g clip-path="url(#p12f57a79e3)">
     <use xlink:href="#mcaee188069" x="168.012364" y="201.904209" style="fill: #2196f3; stroke: #2196f3"/>
     <use xlink:href="#mcaee188069" x="155.182031" y="192.062749" style="fill: #2196f3; stroke: #2196f3"/>
     <use xlink:href="#mcaee188069" x="85.806182" y="331.908163" style="fill: #2196f3; stroke: #2196f3"/>
     <use xlink:href="#mcaee188069" x="168.012364" y="201.904209" style="fill: #2196f3; stroke: #2196f3"/>
    </g>
   </g>
   <g id="line2d_13">
    <path d="M 168.025537 201.904209 
L 155.208378 192.108384 
L 138.319731 240.952028 
L 168.025537 201.904209 
" clip-path="url(#p12f57a79e3)" style="fill: none; stroke: #ff9800; stroke-width: 1.5; stroke-linecap: square"/>
    <defs>
     <path id="m981bd796c9" d="M 0 2 
C 0.530406 2 1.03916 1.789267 1.414214 1.414214 
C 1.789267 1.03916 2 0.530406 2 0 
C 2 -0.530406 1.789267 -1.03916 1.414214 -1.414214 
C 1.03916 -1.789267 0.530406 -2 0 -2 
C -0.530406 -2 -1.03916 -1.789267 -1.414214 -1.414214 
C -1.789267 -1.03916 -2 -0.530406 -2 0 
C -2 0.530406 -1.789267 1.03916 -1.414214 1.414214 
C -1.03916 1.789267 -0.530406 2 0 2 
z
" style="stroke: #ff9800"/>
    </defs>
    <g clip-path="url(#p12f57a79e3)">
     <use xlink:href="#m981bd796c9" x="168.025537" y="201.904209" style="fill: #ff9800; stroke: #ff9800"/>
     <use xlink:href="#m981bd796c9" x="155.208378" y="192.108384" style="fill: #ff9800; stroke: #ff9800"/>
     <use xlink:href="#m981bd796c9" x="138.319731" y="240.952028" style="fill: #ff9800; stroke: #ff9800"/>
     <use xlink:href="#m981bd796c9" x="168.025537" y="201.904209" style="fill: #ff9800; stroke: #ff9800"/>
    </g>
   </g>
   <g id="line2d_14">
    <path d="M 168.012364 201.904209 
L 155.191911 192.079862 
L 143.918541 231.254604 
L 168.012364 201.904209 
" clip-path="url(#p12f57a79e3)" style="fill: none; stroke: #4caf50; stroke-width: 1.5; stroke-linecap: square"/>
    <defs>
     <path id="mf3a9e80691" d="M 0 2 
C 0.530406 2 1.03916 1.789267 1.414214 1.414214 
C 1.789267 1.03916 2 0.530406 2 0 
C 2 -0.530406 1.789267 -1.03916 1.414214 -1.414214 
C 1.03916 -1.789267 0.530406 -2 0 -2 
C -0.530406 -2 -1.03916 -1.789267 -1.414214 -1.414214 
C -1.789267 -1.03916 -2 -0.530406 -2 0 
C -2 0.530406 -1.789267 1.03916 -1.414214 1.414214 
C -1.03916 1.789267 -0.530406 2 0 2 
z
" style="stroke: #4caf50"/>
    </defs>
    <g clip-path="url(#p12f57a79e3)">
     <use xlink:href="#mf3a9e80691" x="168.012364" y="201.904209" style="fill: #4caf50; stroke: #4caf50"/>
     <use xlink:href="#mf3a9e80691" x="155.191911" y="192.079862" style="fill: #4caf50; stroke: #4caf50"/>
     <use xlink:href="#mf3a9e80691" x="143.918541" y="231.254604" style="fill: #4caf50; stroke: #4caf50"/>
     <use xlink:href="#mf3a9e80691" x="168.012364" y="201.904209" style="fill: #4caf50; stroke: #4caf50"/>
    </g>
   </g>
   <g id="patch_6">
    <path d="M 318.128 201.904209 
C 318.128 181.252489 314.060062 160.801582 306.156991 141.721881 
C 298.25392 122.642181 286.669412 105.304739 272.066441 90.701768 
C 257.46347 76.098797 240.126028 64.514289 221.046327 56.611218 
C 201.966627 48.708147 181.515719 44.640209 160.864 44.640209 
C 140.212281 44.640209 119.761373 48.708147 100.681673 56.611218 
C 81.601972 64.514289 64.26453 76.098797 49.661559 90.701768 
C 35.058588 105.304739 23.47408 122.642181 15.571009 141.721881 
C 7.667938 160.801582 3.6 181.252489 3.6 201.904209 
C 3.6 222.555928 7.667938 243.006835 15.571009 262.086536 
C 23.47408 281.166237 35.058588 298.503679 49.661559 313.10665 
C 64.26453 327.70962 81.601972 339.294129 100.681673 347.1972 
C 119.761373 355.10027 140.212281 359.168209 160.864 359.168209 
C 181.515719 359.168209 201.966627 355.10027 221.046327 347.1972 
C 240.126028 339.294129 257.46347 327.70962 272.066441 313.10665 
C 286.669412 298.503679 298.25392 281.166237 306.156991 262.086536 
C 314.060062 243.006835 318.128 222.555928 318.128 201.904209 
" style="fill: none; stroke: #000000; stroke-width: 0.8; stroke-linejoin: miter; stroke-linecap: square"/>
   </g>
   <g id="text_12">
    <!-- Multi-Game Performance Comparison -->
    <g transform="translate(35.962438 13.477969) scale(0.13 -0.13)">
     <defs>
      <path id="DejaVuSerif-4d" d="M 353 0 
L 353 331 
L 947 331 
L 947 4331 
L 319 4331 
L 319 4666 
L 1678 4666 
L 3316 1344 
L 4953 4666 
L 6228 4666 
L 6228 4331 
L 5606 4331 
L 5606 331 
L 6203 331 
L 6203 0 
L 4378 0 
L 4378 331 
L 4972 331 
L 4972 3938 
L 3372 684 
L 2931 684 
L 1331 3938 
L 1331 331 
L 1925 331 
L 1925 0 
L 353 0 
z
" transform="scale(0.015625)"/>
      <path id="DejaVuSerif-6c" d="M 1313 331 
L 1856 331 
L 1856 0 
L 184 0 
L 184 331 
L 738 331 
L 738 4531 
L 184 4531 
L 184 4863 
L 1313 4863 
L 1313 331 
z
" transform="scale(0.015625)"/>
      <path id="DejaVuSerif-69" d="M 622 4353 
Q 622 4497 726 4603 
Q 831 4709 978 4709 
Q 1122 4709 1226 4603 
Q 1331 4497 1331 4353 
Q 1331 4206 1228 4103 
Q 1125 4000 978 4000 
Q 831 4000 726 4103 
Q 622 4206 622 4353 
z
M 1356 331 
L 1900 331 
L 1900 0 
L 231 0 
L 231 331 
L 781 331 
L 781 2988 
L 231 2988 
L 231 3322 
L 1356 3322 
L 1356 331 
z
" transform="scale(0.015625)"/>
      <path id="DejaVuSerif-2d" d="M 281 1959 
L 1881 1959 
L 1881 1472 
L 281 1472 
L 281 1959 
z
" transform="scale(0.015625)"/>
      <path id="DejaVuSerif-47" d="M 4097 3272 
Q 3988 3856 3641 4136 
Q 3294 4416 2675 4416 
Q 1869 4416 1472 3897 
Q 1075 3378 1075 2328 
Q 1075 1300 1484 772 
Q 1894 244 2688 244 
Q 3041 244 3362 331 
Q 3684 419 3975 594 
L 3975 1797 
L 3097 1797 
L 3097 2131 
L 4609 2131 
L 4609 391 
Q 4194 150 3714 29 
Q 3234 -91 2688 -91 
Q 1631 -91 995 570 
Q 359 1231 359 2328 
Q 359 3434 996 4092 
Q 1634 4750 2713 4750 
Q 3113 4750 3539 4658 
Q 3966 4566 4447 4378 
L 4447 3272 
L 4097 3272 
z
" transform="scale(0.015625)"/>
      <path id="DejaVuSerif-6d" d="M 3316 2675 
Q 3481 3041 3739 3227 
Q 3997 3413 4341 3413 
Q 4863 3413 5119 3089 
Q 5375 2766 5375 2113 
L 5375 331 
L 5894 331 
L 5894 0 
L 4300 0 
L 4300 331 
L 4800 331 
L 4800 2047 
Q 4800 2556 4650 2772 
Q 4500 2988 4153 2988 
Q 3769 2988 3567 2697 
Q 3366 2406 3366 1850 
L 3366 331 
L 3866 331 
L 3866 0 
L 2291 0 
L 2291 331 
L 2791 331 
L 2791 2069 
Q 2791 2566 2641 2777 
Q 2491 2988 2144 2988 
Q 1759 2988 1557 2697 
Q 1356 2406 1356 1850 
L 1356 331 
L 1856 331 
L 1856 0 
L 263 0 
L 263 331 
L 781 331 
L 781 2994 
L 231 2994 
L 231 3322 
L 1356 3322 
L 1356 2731 
Q 1516 3063 1762 3238 
Q 2009 3413 2322 3413 
Q 2709 3413 2968 3220 
Q 3228 3028 3316 2675 
z
" transform="scale(0.015625)"/>
      <path id="DejaVuSerif-20" transform="scale(0.015625)"/>
      <path id="DejaVuSerif-66" d="M 2753 4078 
L 2450 4078 
Q 2447 4313 2317 4434 
Q 2188 4556 1941 4556 
Q 1619 4556 1487 4379 
Q 1356 4203 1356 3750 
L 1356 3322 
L 2284 3322 
L 2284 2988 
L 1356 2988 
L 1356 331 
L 2094 331 
L 2094 0 
L 231 0 
L 231 331 
L 781 331 
L 781 2988 
L 231 2988 
L 231 3322 
L 781 3322 
L 781 3738 
Q 781 4294 1070 4578 
Q 1359 4863 1919 4863 
Q 2128 4863 2337 4825 
Q 2547 4788 2753 4709 
L 2753 4078 
z
" transform="scale(0.015625)"/>
      <path id="DejaVuSerif-43" d="M 4513 1234 
Q 4306 581 3820 245 
Q 3334 -91 2591 -91 
Q 2134 -91 1743 65 
Q 1353 222 1050 525 
Q 700 875 529 1320 
Q 359 1766 359 2328 
Q 359 3416 987 4083 
Q 1616 4750 2644 4750 
Q 3025 4750 3456 4650 
Q 3888 4550 4384 4347 
L 4384 3272 
L 4031 3272 
Q 3916 3859 3567 4137 
Q 3219 4416 2591 4416 
Q 1844 4416 1459 3886 
Q 1075 3356 1075 2328 
Q 1075 1303 1459 773 
Q 1844 244 2591 244 
Q 3113 244 3450 492 
Q 3788 741 3938 1234 
L 4513 1234 
z
" transform="scale(0.015625)"/>
     </defs>
     <use xlink:href="#DejaVuSerif-4d"/>
     <use xlink:href="#DejaVuSerif-75" x="102.392578"/>
     <use xlink:href="#DejaVuSerif-6c" x="166.796875"/>
     <use xlink:href="#DejaVuSerif-74" x="198.779297"/>
     <use xlink:href="#DejaVuSerif-69" x="238.964844"/>
     <use xlink:href="#DejaVuSerif-2d" x="270.947266"/>
     <use xlink:href="#DejaVuSerif-47" x="304.736328"/>
     <use xlink:href="#DejaVuSerif-61" x="384.619141"/>
     <use xlink:href="#DejaVuSerif-6d" x="444.238281"/>
     <use xlink:href="#DejaVuSerif-65" x="539.0625"/>
     <use xlink:href="#DejaVuSerif-20" x="598.242188"/>
     <use xlink:href="#DejaVuSerif-50" x="630.029297"/>
     <use xlink:href="#DejaVuSerif-65" x="692.814453"/>
     <use xlink:href="#DejaVuSerif-72" x="751.994141"/>
     <use xlink:href="#DejaVuSerif-66" x="799.796875"/>
     <use xlink:href="#DejaVuSerif-6f" x="836.808594"/>
     <use xlink:href="#DejaVuSerif-72" x="897.013672"/>
     <use xlink:href="#DejaVuSerif-6d" x="944.816406"/>
     <use xlink:href="#DejaVuSerif-61" x="1039.640625"/>
     <use xlink:href="#DejaVuSerif-6e" x="1099.259766"/>
     <use xlink:href="#DejaVuSerif-63" x="1163.664062"/>
     <use xlink:href="#DejaVuSerif-65" x="1219.669922"/>
     <use xlink:href="#DejaVuSerif-20" x="1278.849609"/>
     <use xlink:href="#DejaVuSerif-43" x="1310.636719"/>
     <use xlink:href="#DejaVuSerif-6f" x="1387.150391"/>
     <use xlink:href="#DejaVuSerif-6d" x="1447.355469"/>
     <use xlink:href="#DejaVuSerif-70" x="1542.179688"/>
     <use xlink:href="#DejaVuSerif-61" x="1606.193359"/>
     <use xlink:href="#DejaVuSerif-72" x="1665.8125"/>
     <use xlink:href="#DejaVuSerif-69" x="1713.615234"/>
     <use xlink:href="#DejaVuSerif-73" x="1745.597656"/>
     <use xlink:href="#DejaVuSerif-6f" x="1796.916016"/>
     <use xlink:href="#DejaVuSerif-6e" x="1857.121094"/>
    </g>
   </g>
   <g id="legend_1">
    <g id="patch_7">
     <path d="M 320.644213 65.221784 
L 407.4864 65.221784 
L 407.4864 18.187409 
L 320.644213 18.187409 
z
" style="fill: #ffffff; opacity: 0.8; stroke: #000000; stroke-linejoin: miter"/>
    </g>
    <g id="line2d_15">
     <path d="M 324.644213 26.285846 
L 334.644213 26.285846 
L 344.644213 26.285846 
" style="fill: none; stroke: #2196f3; stroke-width: 1.5; stroke-linecap: square"/>
     <g>
      <use xlink:href="#mcaee188069" x="334.644213" y="26.285846" style="fill: #2196f3; stroke: #2196f3"/>
     </g>
    </g>
    <g id="text_13">
     <!-- Individual -->
     <g transform="translate(352.644213 29.785846) scale(0.1 -0.1)">
      <use xlink:href="#DejaVuSerif-49"/>
      <use xlink:href="#DejaVuSerif-6e" x="39.501953"/>
      <use xlink:href="#DejaVuSerif-64" x="103.90625"/>
      <use xlink:href="#DejaVuSerif-69" x="167.919922"/>
      <use xlink:href="#DejaVuSerif-76" x="199.902344"/>
      <use xlink:href="#DejaVuSerif-69" x="256.396484"/>
      <use xlink:href="#DejaVuSerif-64" x="288.378906"/>
      <use xlink:href="#DejaVuSerif-75" x="352.392578"/>
      <use xlink:href="#DejaVuSerif-61" x="416.796875"/>
      <use xlink:href="#DejaVuSerif-6c" x="476.416016"/>
     </g>
    </g>
    <g id="line2d_16">
     <path d="M 324.644213 40.963971 
L 334.644213 40.963971 
L 344.644213 40.963971 
" style="fill: none; stroke: #ff9800; stroke-width: 1.5; stroke-linecap: square"/>
     <g>
      <use xlink:href="#m981bd796c9" x="334.644213" y="40.963971" style="fill: #ff9800; stroke: #ff9800"/>
     </g>
    </g>
    <g id="text_14">
     <!-- EWC -->
     <g transform="translate(352.644213 44.463971) scale(0.1 -0.1)">
      <defs>
       <path id="DejaVuSerif-45" d="M 353 0 
L 353 331 
L 947 331 
L 947 4331 
L 353 4331 
L 353 4666 
L 4109 4666 
L 4109 3628 
L 3725 3628 
L 3725 4281 
L 1581 4281 
L 1581 2719 
L 3109 2719 
L 3109 3303 
L 3494 3303 
L 3494 1753 
L 3109 1753 
L 3109 2338 
L 1581 2338 
L 1581 384 
L 3775 384 
L 3775 1038 
L 4159 1038 
L 4159 0 
L 353 0 
z
" transform="scale(0.015625)"/>
       <path id="DejaVuSerif-57" d="M 4878 0 
L 4366 0 
L 3297 3794 
L 2228 0 
L 1716 0 
L 494 4331 
L 31 4331 
L 31 4666 
L 1734 4666 
L 1734 4331 
L 1153 4331 
L 2125 884 
L 3188 4666 
L 3694 4666 
L 4775 844 
L 5753 4331 
L 5216 4331 
L 5216 4666 
L 6559 4666 
L 6559 4331 
L 6100 4331 
L 4878 0 
z
" transform="scale(0.015625)"/>
      </defs>
      <use xlink:href="#DejaVuSerif-45"/>
      <use xlink:href="#DejaVuSerif-57" x="72.998047"/>
      <use xlink:href="#DejaVuSerif-43" x="175.78125"/>
     </g>
    </g>
    <g id="line2d_17">
     <path d="M 324.644213 55.642096 
L 334.644213 55.642096 
L 344.644213 55.642096 
" style="fill: none; stroke: #4caf50; stroke-width: 1.5; stroke-linecap: square"/>
     <g>
      <use xlink:href="#mf3a9e80691" x="334.644213" y="55.642096" style="fill: #4caf50; stroke: #4caf50"/>
     </g>
    </g>
    <g id="text_15">
     <!-- HTCL -->
     <g transform="translate(352.644213 59.142096) scale(0.1 -0.1)">
      <defs>
       <path id="DejaVuSerif-48" d="M 353 0 
L 353 331 
L 947 331 
L 947 4331 
L 353 4331 
L 353 4666 
L 2175 4666 
L 2175 4331 
L 1581 4331 
L 1581 2719 
L 4000 2719 
L 4000 4331 
L 3406 4331 
L 3406 4666 
L 5228 4666 
L 5228 4331 
L 4634 4331 
L 4634 331 
L 5228 331 
L 5228 0 
L 3406 0 
L 3406 331 
L 4000 331 
L 4000 2338 
L 1581 2338 
L 1581 331 
L 2175 331 
L 2175 0 
L 353 0 
z
" transform="scale(0.015625)"/>
       <path id="DejaVuSerif-54" d="M 1222 0 
L 1222 331 
L 1819 331 
L 1819 4294 
L 447 4294 
L 447 3566 
L 63 3566 
L 63 4666 
L 4206 4666 
L 4206 3566 
L 3822 3566 
L 3822 4294 
L 2450 4294 
L 2450 331 
L 3047 331 
L 3047 0 
L 1222 0 
z
" transform="scale(0.015625)"/>
       <path id="DejaVuSerif-4c" d="M 353 0 
L 353 331 
L 947 331 
L 947 4331 
L 353 4331 
L 353 4666 
L 2175 4666 
L 2175 4331 
L 1581 4331 
L 1581 384 
L 3713 384 
L 3713 1166 
L 4097 1166 
L 4097 0 
L 353 0 
z
" transform="scale(0.015625)"/>
      </defs>
      <use xlink:href="#DejaVuSerif-48"/>
      <use xlink:href="#DejaVuSerif-54" x="87.207031"/>
      <use xlink:href="#DejaVuSerif-43" x="153.90625"/>
      <use xlink:href="#DejaVuSerif-4c" x="230.419922"/>
     </g>
    </g>
   </g>
  </g>
 </g>
 <defs>
  <clipPath id="p12f57a79e3">
   <path d="M 318.128 201.904209 
C 318.128 181.252489 314.060062 160.801582 306.156991 141.721881 
C 298.25392 122.642181 286.669412 105.304739 272.066441 90.701768 
C 257.46347 76.098797 240.126028 64.514289 221.046327 56.611218 
C 201.966627 48.708147 181.515719 44.640209 160.864 44.640209 
C 140.212281 44.640209 119.761373 48.708147 100.681673 56.611218 
C 81.601972 64.514289 64.26453 76.098797 49.661559 90.701768 
C 35.058588 105.304739 23.47408 122.642181 15.571009 141.721881 
C 7.667938 160.801582 3.6 181.252489 3.6 201.904209 
C 3.6 222.555928 7.667938 243.006835 15.571009 262.086536 
C 23.47408 281.166237 35.058588 298.503679 49.661559 313.10665 
C 64.26453 327.70962 81.601972 339.294129 100.681673 347.1972 
C 119.761373 355.10027 140.212281 359.168209 160.864 359.168209 
C 181.515719 359.168209 201.966627 355.10027 221.046327 347.1972 
C 240.126028 339.294129 257.46347 327.70962 272.066441 313.10665 
C 286.669412 298.503679 298.25392 281.166237 306.156991 262.086536 
C 314.060062 243.006835 318.128 222.555928 318.128 201.904209 
M 160.864 201.904209 
C 160.864 201.904209 160.864 201.904209 160.864 201.904209 
C 160.864 201.904209 160.864 201.904209 160.864 201.904209 
C 160.864 201.904209 160.864 201.904209 160.864 201.904209 
C 160.864 201.904209 160.864 201.904209 160.864 201.904209 
C 160.864 201.904209 160.864 201.904209 160.864 201.904209 
C 160.864 201.904209 160.864 201.904209 160.864 201.904209 
C 160.864 201.904209 160.864 201.904209 160.864 201.904209 
C 160.864 201.904209 160.864 201.904209 160.864 201.904209 
C 160.864 201.904209 160.864 201.904209 160.864 201.904209 
C 160.864 201.904209 160.864 201.904209 160.864 201.904209 
C 160.864 201.904209 160.864 201.904209 160.864 201.904209 
C 160.864 201.904209 160.864 201.904209 160.864 201.904209 
C 160.864 201.904209 160.864 201.904209 160.864 201.904209 
C 160.864 201.904209 160.864 201.904209 160.864 201.904209 
C 160.864 201.904209 160.864 201.904209 160.864 201.904209 
C 160.864 201.904209 160.864 201.904209 160.864 201.904209 
z
"/>
  </clipPath>
 </defs>
</svg>
