<?xml version="1.0" encoding="utf-8" standalone="no"?>
<!DOCTYPE svg PUBLIC "-//W3C//DTD SVG 1.1//EN"
  "http://www.w3.org/Graphics/SVG/1.1/DTD/svg11.dtd">
<svg xmlns:xlink="http://www.w3.org/1999/xlink" width="411.0864pt" height="362.768209pt" viewBox="0 0 411.0864 362.768209" xmlns="http://www.w3.org/2000/svg" version="1.1">
 <metadata>
  <rdf:RDF xmlns:dc="http://purl.org/dc/elements/1.1/" xmlns:cc="http://creativecommons.org/ns#" xmlns:rdf="http://www.w3.org/1999/02/22-rdf-syntax-ns#">
   <cc:Work>
    <dc:type rdf:resource="http://purl.org/dc/dcmitype/StillImage"/>
    <dc:date>2026-02-11T01:45:57.523397</dc:date>
    <dc:format>image/svg+xml</dc:format>
    <dc:creator>
     <cc:Agent>
      <dc:title>Matplotlib v3.10.8, https://matplotlib.org/</dc:title>
     </cc:Agent>
    </dc:creator>
   </cc:Work>
  </rdf:RDF>
 </metadata>
 <defs>
  <style type="text/css">*{stroke-linejoin: round; stroke-linecap: butt}</style>
 </defs>
 <g id="figure_1">
  <g id="patch_1">
   <path d="M 0 362.768209 
L 411.0864 362.768209 
L 411.0864 0 
L 0 0 
z
" style="fill: #ffffff"/>
  </g>
  <g id="axes_1">
   <g id="patch_2">
    <path d="M 318.128 201.904209 
C 318.128 181.252489 314.060062 160.801582 306.156991 141.721881 
C 298.25392 122.642181 286.669412 105.304739 272.066441 90.701768 
C 257.46347 76.098797 240.126028 64.514289 221.046327 56.611218 
C 201.966627 48.708147 181.515719 44.640209 160.864 44.640209 
C 140.212281 44.640209 119.761373 48.708147 100.681673 56.611218 
C 81.601972 64.514289 64.26453 76.098797 49.661559 90.701768 
C 35.058588 105.304739 23.47408 122.642181 15.571009 141.721881 
C 7.667938 160.801582 3.6 181.252489 3.6 201.904209 
C 3.6 222.555928 7.667938 243.006835 15.571009 262.086536 
C 23.47408 281.166237 35.058588 298.503679 49.661559 313.10665 
C 64.26453 327.70962 81.601972 339.294129 100.681673 347.1972 
C 119.761373 355.10027 140.212281 359.168209 160.864 359.168209 
C 181.515719 359.168209 201.966627 355.10027 221.046327 347.1972 
C 240.126028 339.294129 257.46347 327.70962 272.066441 313.10665 
C 286.669412 298.503679 298.25392 281.166237 306.156991 262.086536 
C 314.060062 243.006835 318.128 222.555928 318.128 201.904209 
M 160.864 201.904209 
C 160.864 201.904209 160.864 201.904209 160.864 201.904209 
C 160.864 201.904209 160.864 201.904209 160.864 201.904209 
C 160.864 201.904209 160.864 201.904209 160.864 201.904209 
C 160.864 201.904209 160.864 201.904209 160.864 201.904209 
C 160.864 201.904209 160.864 201.904209 160.864 201.904209 
C 160.864 201.904209 160.864 201.904209 160.864 201.904209 
C 160.864 201.904209 160.864 201.904209 160.864 201.904209 
C 160.864 201.904209 160.864 201.904209 160.864 201.904209 
C 160.864 201.904209 160.864 201.904209 160.864 201.904209 
C 160.864 201.904209 160.864 201.904209 160.864 201.904209 
C 160.864 201.904209 160.864 201.904209 160.864 201.904209 
C 160.864 201.904209 160.864 201.904209 160.864 201.904209 
C 160.864 201.904209 160.864 201.904209 160.864 201.904209 
C 160.864 201.904209 160.864 201.904209 160.864 201.904209 
C 160.864 201.904209 160.864 201.904209 160.864 201.904209 
C 160.864 201.904209 160.864 201.904209 160.864 201.904209 
z
" style="fill: #ffffff"/>
   </g>
   <g id="patch_3">
    <path d="M 168.012364 201.904209 
L 145.375879 175.077996 
L 85.806182 331.908163 
z
" clip-path="url(#pc2c05f5670)" style="fill: #2196f3; opacity: 0.1; stroke: #2196f3; stroke-linejoin: miter"/>
   </g>
   <g id="patch_4">
    <path d="M 168.012364 201.904209 
L 145.375879 175.077996 
L 110.768722 288.671776 
z
" clip-path="url(#pc2c05f5670)" style="fill: #f44336; opacity: 0.1; stroke: #f44336; stroke-linejoin: miter"/>
   </g>
   <g id="patch_5">
    <path d="M 168.012364 201.904209 
L 145.035481 174.488409 
L 96.01813 314.22055 
z
" clip-path="url(#pc2c05f5670)" style="fill: #ff9800; opacity: 0.1; stroke: #ff9800; stroke-linejoin: miter"/>
   </g>
   <g id="patch_6">
    <path d="M 168.012364 201.904209 
L 145.148947 174.684938 
L 145.375879 228.730422 
z
" clip-path="url(#pc2c05f5670)" style="fill: #4caf50; opacity: 0.1; stroke: #4caf50; stroke-linejoin: miter"/>
   </g>
   <g id="matplotlib.axis_1">
    <g id="xtick_1">
     <g id="line2d_1">
      <path d="M 160.864 201.904209 
L 318.128 201.904209 
" clip-path="url(#pc2c05f5670)" style="fill: none; stroke: #b0b0b0; stroke-width: 0.8; stroke-linecap: square"/>
     </g>
     <g id="text_1">
      <!-- Pong -->
      <g transform="translate(319.532688 204.521396) scale(0.1 -0.1)">
       <defs>
        <path id="DejaVuSerif-50" d="M 1581 2375 
L 2406 2375 
Q 2872 2375 3115 2626 
Q 3359 2878 3359 3353 
Q 3359 3831 3115 4081 
Q 2872 4331 2406 4331 
L 1581 4331 
L 1581 2375 
z
M 353 0 
L 353 331 
L 947 331 
L 947 4331 
L 353 4331 
L 353 4666 
L 2559 4666 
Q 3259 4666 3668 4311 
Q 4078 3956 4078 3353 
Q 4078 2753 3668 2397 
Q 3259 2041 2559 2041 
L 1581 2041 
L 1581 331 
L 2303 331 
L 2303 0 
L 353 0 
z
" transform="scale(0.015625)"/>
        <path id="DejaVuSerif-6f" d="M 1925 219 
Q 2388 219 2623 584 
Q 2859 950 2859 1663 
Q 2859 2375 2623 2739 
Q 2388 3103 1925 3103 
Q 1463 3103 1227 2739 
Q 991 2375 991 1663 
Q 991 950 1228 584 
Q 1466 219 1925 219 
z
M 1925 -91 
Q 1200 -91 759 389 
Q 319 869 319 1663 
Q 319 2456 758 2934 
Q 1197 3413 1925 3413 
Q 2653 3413 3092 2934 
Q 3531 2456 3531 1663 
Q 3531 869 3092 389 
Q 2653 -91 1925 -91 
z
" transform="scale(0.015625)"/>
        <path id="DejaVuSerif-6e" d="M 263 0 
L 263 331 
L 781 331 
L 781 2988 
L 231 2988 
L 231 3322 
L 1356 3322 
L 1356 2731 
Q 1516 3069 1770 3241 
Q 2025 3413 2363 3413 
Q 2913 3413 3172 3097 
Q 3431 2781 3431 2113 
L 3431 331 
L 3944 331 
L 3944 0 
L 2356 0 
L 2356 331 
L 2853 331 
L 2853 1931 
Q 2853 2541 2703 2767 
Q 2553 2994 2175 2994 
Q 1775 2994 1565 2701 
Q 1356 2409 1356 1850 
L 1356 331 
L 1856 331 
L 1856 0 
L 263 0 
z
" transform="scale(0.015625)"/>
        <path id="DejaVuSerif-67" d="M 3359 2988 
L 3359 72 
Q 3359 -644 2965 -1033 
Q 2572 -1422 1844 -1422 
Q 1516 -1422 1216 -1362 
Q 916 -1303 641 -1184 
L 641 -488 
L 941 -488 
Q 997 -813 1206 -963 
Q 1416 -1113 1806 -1113 
Q 2313 -1113 2548 -827 
Q 2784 -541 2784 72 
L 2784 519 
Q 2616 206 2355 57 
Q 2094 -91 1709 -91 
Q 1097 -91 708 395 
Q 319 881 319 1663 
Q 319 2444 706 2928 
Q 1094 3413 1709 3413 
Q 2094 3413 2355 3264 
Q 2616 3116 2784 2803 
L 2784 3322 
L 3909 3322 
L 3909 2988 
L 3359 2988 
z
M 2784 1825 
Q 2784 2422 2554 2737 
Q 2325 3053 1888 3053 
Q 1444 3053 1217 2703 
Q 991 2353 991 1663 
Q 991 975 1217 622 
Q 1444 269 1888 269 
Q 2325 269 2554 583 
Q 2784 897 2784 1497 
L 2784 1825 
z
" transform="scale(0.015625)"/>
       </defs>
       <use xlink:href="#DejaVuSerif-50"/>
       <use xlink:href="#DejaVuSerif-6f" transform="translate(63.285156 0)"/>
       <use xlink:href="#DejaVuSerif-6e" transform="translate(123.490234 0)"/>
       <use xlink:href="#DejaVuSerif-67" transform="translate(187.894531 0)"/>
      </g>
     </g>
    </g>
    <g id="xtick_2">
     <g id="line2d_2">
      <path d="M 160.864 201.904209 
L 82.232 65.70959 
" clip-path="url(#pc2c05f5670)" style="fill: none; stroke: #b0b0b0; stroke-width: 0.8; stroke-linecap: square"/>
     </g>
     <g id="text_2">
      <!-- Breakout -->
      <g transform="translate(51.957781 56.344609) scale(0.1 -0.1)">
       <defs>
        <path id="DejaVuSerif-42" d="M 1581 331 
L 2516 331 
Q 3078 331 3337 575 
Q 3597 819 3597 1350 
Q 3597 1878 3339 2120 
Q 3081 2363 2516 2363 
L 1581 2363 
L 1581 331 
z
M 1581 2694 
L 2375 2694 
Q 2888 2694 3123 2891 
Q 3359 3088 3359 3513 
Q 3359 3941 3123 4136 
Q 2888 4331 2375 4331 
L 1581 4331 
L 1581 2694 
z
M 353 0 
L 353 331 
L 947 331 
L 947 4331 
L 353 4331 
L 353 4666 
L 2656 4666 
Q 3363 4666 3720 4377 
Q 4078 4088 4078 3513 
Q 4078 3097 3829 2850 
Q 3581 2603 3103 2547 
Q 3697 2472 4005 2167 
Q 4313 1863 4313 1350 
Q 4313 656 3875 328 
Q 3438 0 2509 0 
L 353 0 
z
" transform="scale(0.015625)"/>
        <path id="DejaVuSerif-72" d="M 3059 3328 
L 3059 2497 
L 2728 2497 
Q 2713 2744 2591 2866 
Q 2469 2988 2234 2988 
Q 1809 2988 1582 2694 
Q 1356 2400 1356 1850 
L 1356 331 
L 2022 331 
L 2022 0 
L 263 0 
L 263 331 
L 781 331 
L 781 2994 
L 231 2994 
L 231 3322 
L 1356 3322 
L 1356 2731 
Q 1525 3078 1790 3245 
Q 2056 3413 2438 3413 
Q 2578 3413 2733 3391 
Q 2888 3369 3059 3328 
z
" transform="scale(0.015625)"/>
        <path id="DejaVuSerif-65" d="M 3469 1600 
L 991 1600 
L 991 1575 
Q 991 903 1244 561 
Q 1497 219 1991 219 
Q 2369 219 2611 417 
Q 2853 616 2950 1006 
L 3413 1006 
Q 3275 459 2904 184 
Q 2534 -91 1931 -91 
Q 1203 -91 761 389 
Q 319 869 319 1663 
Q 319 2450 753 2931 
Q 1188 3413 1894 3413 
Q 2647 3413 3050 2948 
Q 3453 2484 3469 1600 
z
M 2791 1931 
Q 2772 2513 2545 2808 
Q 2319 3103 1894 3103 
Q 1497 3103 1269 2806 
Q 1041 2509 991 1931 
L 2791 1931 
z
" transform="scale(0.015625)"/>
        <path id="DejaVuSerif-61" d="M 2547 1044 
L 2547 1747 
L 1806 1747 
Q 1378 1747 1168 1562 
Q 959 1378 959 997 
Q 959 650 1171 447 
Q 1384 244 1747 244 
Q 2106 244 2326 466 
Q 2547 688 2547 1044 
z
M 3122 2075 
L 3122 331 
L 3634 331 
L 3634 0 
L 2547 0 
L 2547 359 
Q 2356 128 2106 18 
Q 1856 -91 1522 -91 
Q 969 -91 644 203 
Q 319 497 319 997 
Q 319 1513 691 1797 
Q 1063 2081 1741 2081 
L 2547 2081 
L 2547 2309 
Q 2547 2688 2317 2895 
Q 2088 3103 1672 3103 
Q 1328 3103 1125 2947 
Q 922 2791 872 2484 
L 575 2484 
L 575 3156 
Q 875 3284 1158 3348 
Q 1441 3413 1709 3413 
Q 2400 3413 2761 3070 
Q 3122 2728 3122 2075 
z
" transform="scale(0.015625)"/>
        <path id="DejaVuSerif-6b" d="M 1831 0 
L 219 0 
L 219 331 
L 738 331 
L 738 4531 
L 184 4531 
L 184 4863 
L 1313 4863 
L 1313 1697 
L 2713 2988 
L 2234 2988 
L 2234 3322 
L 3738 3322 
L 3738 2988 
L 3169 2988 
L 2181 2075 
L 3444 331 
L 3922 331 
L 3922 0 
L 2284 0 
L 2284 331 
L 2759 331 
L 1766 1697 
L 1313 1275 
L 1313 331 
L 1831 331 
L 1831 0 
z
" transform="scale(0.015625)"/>
        <path id="DejaVuSerif-75" d="M 2266 3322 
L 3341 3322 
L 3341 331 
L 3884 331 
L 3884 0 
L 2766 0 
L 2766 588 
Q 2606 256 2353 82 
Q 2100 -91 1766 -91 
Q 1213 -91 952 223 
Q 691 538 691 1209 
L 691 2988 
L 172 2988 
L 172 3322 
L 1269 3322 
L 1269 1388 
Q 1269 781 1417 556 
Q 1566 331 1947 331 
Q 2347 331 2556 625 
Q 2766 919 2766 1478 
L 2766 2988 
L 2266 2988 
L 2266 3322 
z
" transform="scale(0.015625)"/>
        <path id="DejaVuSerif-74" d="M 691 2988 
L 184 2988 
L 184 3322 
L 691 3322 
L 691 4353 
L 1269 4353 
L 1269 3322 
L 2350 3322 
L 2350 2988 
L 1269 2988 
L 1269 878 
Q 1269 456 1350 337 
Q 1431 219 1650 219 
Q 1875 219 1978 351 
Q 2081 484 2088 781 
L 2522 781 
Q 2497 328 2275 118 
Q 2053 -91 1600 -91 
Q 1103 -91 897 129 
Q 691 350 691 878 
L 691 2988 
z
" transform="scale(0.015625)"/>
       </defs>
       <use xlink:href="#DejaVuSerif-42"/>
       <use xlink:href="#DejaVuSerif-72" transform="translate(73.486328 0)"/>
       <use xlink:href="#DejaVuSerif-65" transform="translate(121.289062 0)"/>
       <use xlink:href="#DejaVuSerif-61" transform="translate(180.46875 0)"/>
       <use xlink:href="#DejaVuSerif-6b" transform="translate(240.087891 0)"/>
       <use xlink:href="#DejaVuSerif-6f" transform="translate(300.683594 0)"/>
       <use xlink:href="#DejaVuSerif-75" transform="translate(360.888672 0)"/>
       <use xlink:href="#DejaVuSerif-74" transform="translate(425.292969 0)"/>
      </g>
     </g>
    </g>
    <g id="xtick_3">
     <g id="line2d_3">
      <path d="M 160.864 201.904209 
L 82.232 338.098828 
" clip-path="url(#pc2c05f5670)" style="fill: none; stroke: #b0b0b0; stroke-width: 0.8; stroke-linecap: square"/>
     </g>
     <g id="text_3">
      <!-- SpaceInvaders -->
      <g transform="translate(37.748406 352.982559) scale(0.1 -0.1)">
       <defs>
        <path id="DejaVuSerif-53" d="M 594 225 
L 594 1288 
L 953 1284 
Q 969 753 1261 498 
Q 1553 244 2150 244 
Q 2706 244 2998 464 
Q 3291 684 3291 1106 
Q 3291 1444 3114 1625 
Q 2938 1806 2369 1978 
L 1753 2163 
Q 1084 2366 811 2669 
Q 538 2972 538 3500 
Q 538 4094 959 4422 
Q 1381 4750 2144 4750 
Q 2469 4750 2856 4679 
Q 3244 4609 3681 4475 
L 3681 3481 
L 3328 3481 
Q 3275 3975 2998 4195 
Q 2722 4416 2156 4416 
Q 1663 4416 1405 4214 
Q 1147 4013 1147 3628 
Q 1147 3294 1340 3103 
Q 1534 2913 2163 2725 
L 2741 2553 
Q 3375 2363 3645 2067 
Q 3916 1772 3916 1275 
Q 3916 597 3481 253 
Q 3047 -91 2188 -91 
Q 1803 -91 1404 -12 
Q 1006 66 594 225 
z
" transform="scale(0.015625)"/>
        <path id="DejaVuSerif-70" d="M 1313 1825 
L 1313 1497 
Q 1313 897 1542 583 
Q 1772 269 2209 269 
Q 2650 269 2876 622 
Q 3103 975 3103 1663 
Q 3103 2353 2876 2703 
Q 2650 3053 2209 3053 
Q 1772 3053 1542 2737 
Q 1313 2422 1313 1825 
z
M 738 2988 
L 184 2988 
L 184 3322 
L 1313 3322 
L 1313 2803 
Q 1481 3116 1742 3264 
Q 2003 3413 2388 3413 
Q 3000 3413 3387 2928 
Q 3775 2444 3775 1663 
Q 3775 881 3387 395 
Q 3000 -91 2388 -91 
Q 2003 -91 1742 57 
Q 1481 206 1313 519 
L 1313 -997 
L 1856 -997 
L 1856 -1331 
L 184 -1331 
L 184 -997 
L 738 -997 
L 738 2988 
z
" transform="scale(0.015625)"/>
        <path id="DejaVuSerif-63" d="M 3291 997 
Q 3169 466 2822 187 
Q 2475 -91 1925 -91 
Q 1200 -91 759 389 
Q 319 869 319 1663 
Q 319 2459 759 2936 
Q 1200 3413 1925 3413 
Q 2241 3413 2553 3339 
Q 2866 3266 3181 3116 
L 3181 2266 
L 2847 2266 
Q 2781 2703 2561 2903 
Q 2341 3103 1931 3103 
Q 1466 3103 1228 2742 
Q 991 2381 991 1663 
Q 991 944 1227 581 
Q 1463 219 1931 219 
Q 2303 219 2525 412 
Q 2747 606 2828 997 
L 3291 997 
z
" transform="scale(0.015625)"/>
        <path id="DejaVuSerif-49" d="M 1581 331 
L 2175 331 
L 2175 0 
L 353 0 
L 353 331 
L 947 331 
L 947 4331 
L 353 4331 
L 353 4666 
L 2175 4666 
L 2175 4331 
L 1581 4331 
L 1581 331 
z
" transform="scale(0.015625)"/>
        <path id="DejaVuSerif-76" d="M 1581 0 
L 359 2988 
L -19 2988 
L -19 3322 
L 1509 3322 
L 1509 2988 
L 978 2988 
L 1913 703 
L 2847 2988 
L 2350 2988 
L 2350 3322 
L 3597 3322 
L 3597 2988 
L 3225 2988 
L 2003 0 
L 1581 0 
z
" transform="scale(0.015625)"/>
        <path id="DejaVuSerif-64" d="M 3359 331 
L 3909 331 
L 3909 0 
L 2784 0 
L 2784 519 
Q 2616 206 2355 57 
Q 2094 -91 1709 -91 
Q 1097 -91 708 395 
Q 319 881 319 1663 
Q 319 2444 706 2928 
Q 1094 3413 1709 3413 
Q 2094 3413 2355 3264 
Q 2616 3116 2784 2803 
L 2784 4531 
L 2241 4531 
L 2241 4863 
L 3359 4863 
L 3359 331 
z
M 2784 1497 
L 2784 1825 
Q 2784 2422 2554 2737 
Q 2325 3053 1888 3053 
Q 1444 3053 1217 2703 
Q 991 2353 991 1663 
Q 991 975 1217 622 
Q 1444 269 1888 269 
Q 2325 269 2554 583 
Q 2784 897 2784 1497 
z
" transform="scale(0.015625)"/>
        <path id="DejaVuSerif-73" d="M 359 184 
L 359 959 
L 691 959 
Q 703 588 923 403 
Q 1144 219 1575 219 
Q 1963 219 2166 364 
Q 2369 509 2369 788 
Q 2369 1006 2220 1140 
Q 2072 1275 1594 1428 
L 1178 1569 
Q 750 1706 558 1912 
Q 366 2119 366 2438 
Q 366 2894 700 3153 
Q 1034 3413 1625 3413 
Q 1888 3413 2178 3344 
Q 2469 3275 2778 3144 
L 2778 2419 
L 2447 2419 
Q 2434 2741 2221 2922 
Q 2009 3103 1644 3103 
Q 1281 3103 1095 2975 
Q 909 2847 909 2591 
Q 909 2381 1050 2254 
Q 1191 2128 1613 1997 
L 2069 1856 
Q 2541 1709 2748 1489 
Q 2956 1269 2956 922 
Q 2956 450 2595 179 
Q 2234 -91 1600 -91 
Q 1278 -91 972 -22 
Q 666 47 359 184 
z
" transform="scale(0.015625)"/>
       </defs>
       <use xlink:href="#DejaVuSerif-53"/>
       <use xlink:href="#DejaVuSerif-70" transform="translate(68.505859 0)"/>
       <use xlink:href="#DejaVuSerif-61" transform="translate(132.519531 0)"/>
       <use xlink:href="#DejaVuSerif-63" transform="translate(192.138672 0)"/>
       <use xlink:href="#DejaVuSerif-65" transform="translate(248.144531 0)"/>
       <use xlink:href="#DejaVuSerif-49" transform="translate(307.324219 0)"/>
       <use xlink:href="#DejaVuSerif-6e" transform="translate(346.826172 0)"/>
       <use xlink:href="#DejaVuSerif-76" transform="translate(411.230469 0)"/>
       <use xlink:href="#DejaVuSerif-61" transform="translate(467.724609 0)"/>
       <use xlink:href="#DejaVuSerif-64" transform="translate(527.34375 0)"/>
       <use xlink:href="#DejaVuSerif-65" transform="translate(591.357422 0)"/>
       <use xlink:href="#DejaVuSerif-72" transform="translate(650.537109 0)"/>
       <use xlink:href="#DejaVuSerif-73" transform="translate(698.339844 0)"/>
      </g>
     </g>
    </g>
   </g>
   <g id="matplotlib.axis_2">
    <g id="ytick_1">
     <g id="line2d_4">
      <path d="M 169.147025 201.904209 
C 169.147025 200.816492 168.932768 199.739352 168.516517 198.734432 
C 168.100266 197.729513 167.490115 196.816358 166.720983 196.047226 
C 165.951851 195.278094 165.038696 194.667943 164.033776 194.251692 
C 163.028857 193.835441 161.951717 193.621184 160.864 193.621184 
C 159.776283 193.621184 158.699143 193.835441 157.694224 194.251692 
C 156.689304 194.667943 155.776149 195.278094 155.007017 196.047226 
C 154.237885 196.816358 153.627734 197.729513 153.211483 198.734432 
C 152.795232 199.739352 152.580975 200.816492 152.580975 201.904209 
C 152.580975 202.991926 152.795232 204.069066 153.211483 205.073985 
C 153.627734 206.078904 154.237885 206.99206 155.007017 207.761192 
C 155.776149 208.530324 156.689304 209.140474 157.694224 209.556726 
C 158.699143 209.972977 159.776283 210.187233 160.864 210.187233 
C 161.951717 210.187233 163.028857 209.972977 164.033776 209.556726 
C 165.038696 209.140474 165.951851 208.530324 166.720983 207.761192 
C 167.490115 206.99206 168.100266 206.078904 168.516517 205.073985 
C 168.932768 204.069066 169.147025 202.991926 169.147025 201.904209 
" clip-path="url(#pc2c05f5670)" style="fill: none; stroke: #b0b0b0; stroke-width: 0.8; stroke-linecap: square"/>
     </g>
     <g id="text_4">
      <!-- −20 -->
      <g transform="translate(168.516517 196.654745) scale(0.1 -0.1)">
       <defs>
        <path id="DejaVuSerif-2212" d="M 678 2259 
L 4684 2259 
L 4684 1753 
L 678 1753 
L 678 2259 
z
" transform="scale(0.015625)"/>
        <path id="DejaVuSerif-32" d="M 819 3553 
L 469 3553 
L 469 4384 
Q 803 4563 1142 4656 
Q 1481 4750 1806 4750 
Q 2534 4750 2956 4397 
Q 3378 4044 3378 3438 
Q 3378 2753 2422 1800 
Q 2347 1728 2309 1691 
L 1131 513 
L 3078 513 
L 3078 1088 
L 3444 1088 
L 3444 0 
L 434 0 
L 434 341 
L 1850 1753 
Q 2319 2222 2519 2614 
Q 2719 3006 2719 3438 
Q 2719 3909 2473 4175 
Q 2228 4441 1797 4441 
Q 1350 4441 1106 4219 
Q 863 3997 819 3553 
z
" transform="scale(0.015625)"/>
        <path id="DejaVuSerif-30" d="M 2034 219 
Q 2513 219 2750 744 
Q 2988 1269 2988 2328 
Q 2988 3391 2750 3916 
Q 2513 4441 2034 4441 
Q 1556 4441 1318 3916 
Q 1081 3391 1081 2328 
Q 1081 1269 1318 744 
Q 1556 219 2034 219 
z
M 2034 -91 
Q 1275 -91 848 546 
Q 422 1184 422 2328 
Q 422 3475 848 4112 
Q 1275 4750 2034 4750 
Q 2797 4750 3222 4112 
Q 3647 3475 3647 2328 
Q 3647 1184 3222 546 
Q 2797 -91 2034 -91 
z
" transform="scale(0.015625)"/>
       </defs>
       <use xlink:href="#DejaVuSerif-2212"/>
       <use xlink:href="#DejaVuSerif-32" transform="translate(83.789062 0)"/>
       <use xlink:href="#DejaVuSerif-30" transform="translate(147.412109 0)"/>
      </g>
     </g>
    </g>
    <g id="ytick_2">
     <g id="line2d_5">
      <path d="M 191.840242 201.904209 
C 191.840242 197.836446 191.038982 193.808237 189.482316 190.050114 
C 187.925651 186.291991 185.643854 182.87704 182.767511 180.000698 
C 179.891168 177.124355 176.476218 174.842558 172.718095 173.285892 
C 168.959972 171.729227 164.931763 170.927966 160.864 170.927966 
C 156.796237 170.927966 152.768028 171.729227 149.009905 173.285892 
C 145.251782 174.842558 141.836832 177.124355 138.960489 180.000698 
C 136.084146 182.87704 133.802349 186.291991 132.245684 190.050114 
C 130.689018 193.808237 129.887758 197.836446 129.887758 201.904209 
C 129.887758 205.971972 130.689018 210.000181 132.245684 213.758304 
C 133.802349 217.516426 136.084146 220.931377 138.960489 223.80772 
C 141.836832 226.684063 145.251782 228.96586 149.009905 230.522525 
C 152.768028 232.079191 156.796237 232.880451 160.864 232.880451 
C 164.931763 232.880451 168.959972 232.079191 172.718095 230.522525 
C 176.476218 228.96586 179.891168 226.684063 182.767511 223.80772 
C 185.643854 220.931377 187.925651 217.516426 189.482316 213.758304 
C 191.038982 210.000181 191.840242 205.971972 191.840242 201.904209 
" clip-path="url(#pc2c05f5670)" style="fill: none; stroke: #b0b0b0; stroke-width: 0.8; stroke-linecap: square"/>
     </g>
     <g id="text_5">
      <!-- 0 -->
      <g transform="translate(189.482316 187.970426) scale(0.1 -0.1)">
       <use xlink:href="#DejaVuSerif-30"/>
      </g>
     </g>
    </g>
    <g id="ytick_3">
     <g id="line2d_6">
      <path d="M 214.53346 201.904209 
C 214.53346 194.8564 213.145196 187.877122 210.448116 181.365795 
C 207.751036 174.854469 203.797593 168.937723 198.814039 163.954169 
C 193.830486 158.970616 187.91374 155.017173 181.402413 152.320093 
C 174.891087 149.623013 167.911809 148.234748 160.864 148.234748 
C 153.816191 148.234748 146.836913 149.623013 140.325587 152.320093 
C 133.81426 155.017173 127.897514 158.970616 122.913961 163.954169 
C 117.930407 168.937723 113.976964 174.854469 111.279884 181.365795 
C 108.582804 187.877122 107.19454 194.8564 107.19454 201.904209 
C 107.19454 208.952018 108.582804 215.931296 111.279884 222.442622 
C 113.976964 228.953948 117.930407 234.870695 122.913961 239.854248 
C 127.897514 244.837802 133.81426 248.791245 140.325587 251.488325 
C 146.836913 254.185404 153.816191 255.573669 160.864 255.573669 
C 167.911809 255.573669 174.891087 254.185404 181.402413 251.488325 
C 187.91374 248.791245 193.830486 244.837802 198.814039 239.854248 
C 203.797593 234.870695 207.751036 228.953948 210.448116 222.442622 
C 213.145196 215.931296 214.53346 208.952018 214.53346 201.904209 
" clip-path="url(#pc2c05f5670)" style="fill: none; stroke: #b0b0b0; stroke-width: 0.8; stroke-linecap: square"/>
     </g>
     <g id="text_6">
      <!-- 20 -->
      <g transform="translate(210.448116 179.286108) scale(0.1 -0.1)">
       <use xlink:href="#DejaVuSerif-32"/>
       <use xlink:href="#DejaVuSerif-30" transform="translate(63.623047 0)"/>
      </g>
     </g>
    </g>
    <g id="ytick_4">
     <g id="line2d_7">
      <path d="M 237.226678 201.904209 
C 237.226678 191.876354 235.251409 181.946007 231.413915 172.681477 
C 227.576421 163.416947 221.951332 154.998405 214.860568 147.907641 
C 207.769803 140.816877 199.351262 135.191787 190.086732 131.354293 
C 180.822202 127.516799 170.891855 125.541531 160.864 125.541531 
C 150.836145 125.541531 140.905798 127.516799 131.641268 131.354293 
C 122.376738 135.191787 113.958197 140.816877 106.867432 147.907641 
C 99.776668 154.998405 94.151579 163.416947 90.314085 172.681477 
C 86.476591 181.946007 84.501322 191.876354 84.501322 201.904209 
C 84.501322 211.932064 86.476591 221.862411 90.314085 231.126941 
C 94.151579 240.391471 99.776668 248.810012 106.867432 255.900776 
C 113.958197 262.991541 122.376738 268.61663 131.641268 272.454124 
C 140.905798 276.291618 150.836145 278.266887 160.864 278.266887 
C 170.891855 278.266887 180.822202 276.291618 190.086732 272.454124 
C 199.351262 268.61663 207.769803 262.991541 214.860568 255.900776 
C 221.951332 248.810012 227.576421 240.391471 231.413915 231.126941 
C 235.251409 221.862411 237.226678 211.932064 237.226678 201.904209 
" clip-path="url(#pc2c05f5670)" style="fill: none; stroke: #b0b0b0; stroke-width: 0.8; stroke-linecap: square"/>
     </g>
     <g id="text_7">
      <!-- 40 -->
      <g transform="translate(231.413915 170.601789) scale(0.1 -0.1)">
       <defs>
        <path id="DejaVuSerif-34" d="M 2234 1581 
L 2234 4063 
L 641 1581 
L 2234 1581 
z
M 3609 0 
L 1484 0 
L 1484 331 
L 2234 331 
L 2234 1247 
L 197 1247 
L 197 1588 
L 2241 4750 
L 2859 4750 
L 2859 1581 
L 3750 1581 
L 3750 1247 
L 2859 1247 
L 2859 331 
L 3609 331 
L 3609 0 
z
" transform="scale(0.015625)"/>
       </defs>
       <use xlink:href="#DejaVuSerif-34"/>
       <use xlink:href="#DejaVuSerif-30" transform="translate(63.623047 0)"/>
      </g>
     </g>
    </g>
    <g id="ytick_5">
     <g id="line2d_8">
      <path d="M 259.919896 201.904209 
C 259.919896 188.896308 257.357623 176.014892 252.379715 163.997158 
C 247.401807 151.979425 240.105071 141.059088 230.907096 131.861113 
C 221.709121 122.663138 210.788784 115.366402 198.77105 110.388494 
C 186.753317 105.410586 173.871901 102.848313 160.864 102.848313 
C 147.856099 102.848313 134.974683 105.410586 122.95695 110.388494 
C 110.939216 115.366402 100.018879 122.663138 90.820904 131.861113 
C 81.622929 141.059088 74.326193 151.979425 69.348285 163.997158 
C 64.370377 176.014892 61.808104 188.896308 61.808104 201.904209 
C 61.808104 214.91211 64.370377 227.793525 69.348285 239.811259 
C 74.326193 251.828993 81.622929 262.74933 90.820904 271.947305 
C 100.018879 281.14528 110.939216 288.442015 122.95695 293.419924 
C 134.974683 298.397832 147.856099 300.960105 160.864 300.960105 
C 173.871901 300.960105 186.753317 298.397832 198.77105 293.419924 
C 210.788784 288.442015 221.709121 281.14528 230.907096 271.947305 
C 240.105071 262.74933 247.401807 251.828993 252.379715 239.811259 
C 257.357623 227.793525 259.919896 214.91211 259.919896 201.904209 
" clip-path="url(#pc2c05f5670)" style="fill: none; stroke: #b0b0b0; stroke-width: 0.8; stroke-linecap: square"/>
     </g>
     <g id="text_8">
      <!-- 60 -->
      <g transform="translate(252.379715 161.917471) scale(0.1 -0.1)">
       <defs>
        <path id="DejaVuSerif-36" d="M 2094 219 
Q 2534 219 2771 542 
Q 3009 866 3009 1472 
Q 3009 2078 2771 2401 
Q 2534 2725 2094 2725 
Q 1647 2725 1412 2412 
Q 1178 2100 1178 1509 
Q 1178 888 1415 553 
Q 1653 219 2094 219 
z
M 1075 2569 
Q 1288 2803 1556 2918 
Q 1825 3034 2163 3034 
Q 2859 3034 3264 2615 
Q 3669 2197 3669 1472 
Q 3669 763 3233 336 
Q 2797 -91 2069 -91 
Q 1278 -91 853 498 
Q 428 1088 428 2181 
Q 428 3406 931 4078 
Q 1434 4750 2350 4750 
Q 2597 4750 2869 4703 
Q 3141 4656 3425 4563 
L 3425 3794 
L 3072 3794 
Q 3034 4109 2831 4275 
Q 2628 4441 2284 4441 
Q 1678 4441 1381 3981 
Q 1084 3522 1075 2569 
z
" transform="scale(0.015625)"/>
       </defs>
       <use xlink:href="#DejaVuSerif-36"/>
       <use xlink:href="#DejaVuSerif-30" transform="translate(63.623047 0)"/>
      </g>
     </g>
    </g>
    <g id="ytick_6">
     <g id="line2d_9">
      <path d="M 282.613114 201.904209 
C 282.613114 185.916262 279.463837 170.083777 273.345515 155.31284 
C 267.227192 140.541903 258.25881 127.11977 246.953624 115.814585 
C 235.648438 104.509399 222.226306 95.541017 207.455369 89.422694 
C 192.684432 83.304372 176.851947 80.155095 160.864 80.155095 
C 144.876053 80.155095 129.043568 83.304372 114.272631 89.422694 
C 99.501694 95.541017 86.079562 104.509399 74.774376 115.814585 
C 63.46919 127.11977 54.500808 140.541903 48.382485 155.31284 
C 42.264163 170.083777 39.114886 185.916262 39.114886 201.904209 
C 39.114886 217.892156 42.264163 233.72464 48.382485 248.495578 
C 54.500808 263.266515 63.46919 276.688647 74.774376 287.993833 
C 86.079562 299.299019 99.501694 308.267401 114.272631 314.385723 
C 129.043568 320.504046 144.876053 323.653323 160.864 323.653323 
C 176.851947 323.653323 192.684432 320.504046 207.455369 314.385723 
C 222.226306 308.267401 235.648438 299.299019 246.953624 287.993833 
C 258.25881 276.688647 267.227192 263.266515 273.345515 248.495578 
C 279.463837 233.72464 282.613114 217.892156 282.613114 201.904209 
" clip-path="url(#pc2c05f5670)" style="fill: none; stroke: #b0b0b0; stroke-width: 0.8; stroke-linecap: square"/>
     </g>
     <g id="text_9">
      <!-- 80 -->
      <g transform="translate(273.345515 153.233152) scale(0.1 -0.1)">
       <defs>
        <path id="DejaVuSerif-38" d="M 2981 1275 
Q 2981 1775 2732 2051 
Q 2484 2328 2034 2328 
Q 1584 2328 1336 2051 
Q 1088 1775 1088 1275 
Q 1088 772 1336 495 
Q 1584 219 2034 219 
Q 2484 219 2732 495 
Q 2981 772 2981 1275 
z
M 2853 3541 
Q 2853 3966 2637 4203 
Q 2422 4441 2034 4441 
Q 1650 4441 1433 4203 
Q 1216 3966 1216 3541 
Q 1216 3113 1433 2875 
Q 1650 2638 2034 2638 
Q 2422 2638 2637 2875 
Q 2853 3113 2853 3541 
z
M 2516 2484 
Q 3047 2413 3344 2092 
Q 3641 1772 3641 1275 
Q 3641 619 3225 264 
Q 2809 -91 2034 -91 
Q 1263 -91 845 264 
Q 428 619 428 1275 
Q 428 1772 725 2092 
Q 1022 2413 1556 2484 
Q 1084 2569 832 2842 
Q 581 3116 581 3541 
Q 581 4103 968 4426 
Q 1356 4750 2034 4750 
Q 2713 4750 3100 4426 
Q 3488 4103 3488 3541 
Q 3488 3116 3236 2842 
Q 2984 2569 2516 2484 
z
" transform="scale(0.015625)"/>
       </defs>
       <use xlink:href="#DejaVuSerif-38"/>
       <use xlink:href="#DejaVuSerif-30" transform="translate(63.623047 0)"/>
      </g>
     </g>
    </g>
    <g id="ytick_7">
     <g id="line2d_10">
      <path d="M 305.306332 201.904209 
C 305.306332 182.936216 301.570051 164.152662 294.311314 146.628521 
C 287.052577 129.104381 276.412549 113.180453 263.000152 99.768056 
C 249.587756 86.35566 233.663828 75.715631 216.139687 68.456895 
C 198.615547 61.198158 179.831993 57.461877 160.864 57.461877 
C 141.896007 57.461877 123.112453 61.198158 105.588313 68.456895 
C 88.064172 75.715631 72.140244 86.35566 58.727848 99.768056 
C 45.315451 113.180453 34.675423 129.104381 27.416686 146.628521 
C 20.157949 164.152662 16.421668 182.936216 16.421668 201.904209 
C 16.421668 220.872202 20.157949 239.655755 27.416686 257.179896 
C 34.675423 274.704037 45.315451 290.627964 58.727848 304.040361 
C 72.140244 317.452758 88.064172 328.092786 105.588313 335.351523 
C 123.112453 342.61026 141.896007 346.346541 160.864 346.346541 
C 179.831993 346.346541 198.615547 342.61026 216.139687 335.351523 
C 233.663828 328.092786 249.587756 317.452758 263.000152 304.040361 
C 276.412549 290.627964 287.052577 274.704037 294.311314 257.179896 
C 301.570051 239.655755 305.306332 220.872202 305.306332 201.904209 
" clip-path="url(#pc2c05f5670)" style="fill: none; stroke: #b0b0b0; stroke-width: 0.8; stroke-linecap: square"/>
     </g>
     <g id="text_10">
      <!-- 100 -->
      <g transform="translate(294.311314 144.548834) scale(0.1 -0.1)">
       <defs>
        <path id="DejaVuSerif-31" d="M 909 0 
L 909 331 
L 1722 331 
L 1722 4213 
L 781 3603 
L 781 4013 
L 1919 4750 
L 2350 4750 
L 2350 331 
L 3163 331 
L 3163 0 
L 909 0 
z
" transform="scale(0.015625)"/>
       </defs>
       <use xlink:href="#DejaVuSerif-31"/>
       <use xlink:href="#DejaVuSerif-30" transform="translate(63.623047 0)"/>
       <use xlink:href="#DejaVuSerif-30" transform="translate(127.246094 0)"/>
      </g>
     </g>
    </g>
   </g>
   <g id="line2d_11">
    <path d="M 168.012364 201.904209 
L 145.375879 175.077996 
L 85.806182 331.908163 
L 168.012364 201.904209 
" clip-path="url(#pc2c05f5670)" style="fill: none; stroke: #2196f3; stroke-width: 1.5; stroke-linecap: square"/>
    <defs>
     <path id="ma4a6dbd067" d="M 0 2 
C 0.530406 2 1.03916 1.789267 1.414214 1.414214 
C 1.789267 1.03916 2 0.530406 2 0 
C 2 -0.530406 1.789267 -1.03916 1.414214 -1.414214 
C 1.03916 -1.789267 0.530406 -2 0 -2 
C -0.530406 -2 -1.03916 -1.789267 -1.414214 -1.414214 
C -1.789267 -1.03916 -2 -0.530406 -2 0 
C -2 0.530406 -1.789267 1.03916 -1.414214 1.414214 
C -1.03916 1.789267 -0.530406 2 0 2 
z
" style="stroke: #2196f3"/>
    </defs>
    <g clip-path="url(#pc2c05f5670)">
     <use xlink:href="#ma4a6dbd067" x="168.012364" y="201.904209" style="fill: #2196f3; stroke: #2196f3"/>
     <use xlink:href="#ma4a6dbd067" x="145.375879" y="175.077996" style="fill: #2196f3; stroke: #2196f3"/>
     <use xlink:href="#ma4a6dbd067" x="85.806182" y="331.908163" style="fill: #2196f3; stroke: #2196f3"/>
     <use xlink:href="#ma4a6dbd067" x="168.012364" y="201.904209" style="fill: #2196f3; stroke: #2196f3"/>
    </g>
   </g>
   <g id="line2d_12">
    <path d="M 168.012364 201.904209 
L 145.375879 175.077996 
L 110.768722 288.671776 
L 168.012364 201.904209 
" clip-path="url(#pc2c05f5670)" style="fill: none; stroke: #f44336; stroke-width: 1.5; stroke-linecap: square"/>
    <defs>
     <path id="m6225077ec7" d="M 0 2 
C 0.530406 2 1.03916 1.789267 1.414214 1.414214 
C 1.789267 1.03916 2 0.530406 2 0 
C 2 -0.530406 1.789267 -1.03916 1.414214 -1.414214 
C 1.03916 -1.789267 0.530406 -2 0 -2 
C -0.530406 -2 -1.03916 -1.789267 -1.414214 -1.414214 
C -1.789267 -1.03916 -2 -0.530406 -2 0 
C -2 0.530406 -1.789267 1.03916 -1.414214 1.414214 
C -1.03916 1.789267 -0.530406 2 0 2 
z
" style="stroke: #f44336"/>
    </defs>
    <g clip-path="url(#pc2c05f5670)">
     <use xlink:href="#m6225077ec7" x="168.012364" y="201.904209" style="fill: #f44336; stroke: #f44336"/>
     <use xlink:href="#m6225077ec7" x="145.375879" y="175.077996" style="fill: #f44336; stroke: #f44336"/>
     <use xlink:href="#m6225077ec7" x="110.768722" y="288.671776" style="fill: #f44336; stroke: #f44336"/>
     <use xlink:href="#m6225077ec7" x="168.012364" y="201.904209" style="fill: #f44336; stroke: #f44336"/>
    </g>
   </g>
   <g id="line2d_13">
    <path d="M 168.012364 201.904209 
L 145.035481 174.488409 
L 96.01813 314.22055 
L 168.012364 201.904209 
" clip-path="url(#pc2c05f5670)" style="fill: none; stroke: #ff9800; stroke-width: 1.5; stroke-linecap: square"/>
    <defs>
     <path id="mbbab8a29f7" d="M 0 2 
C 0.530406 2 1.03916 1.789267 1.414214 1.414214 
C 1.789267 1.03916 2 0.530406 2 0 
C 2 -0.530406 1.789267 -1.03916 1.414214 -1.414214 
C 1.03916 -1.789267 0.530406 -2 0 -2 
C -0.530406 -2 -1.03916 -1.789267 -1.414214 -1.414214 
C -1.789267 -1.03916 -2 -0.530406 -2 0 
C -2 0.530406 -1.789267 1.03916 -1.414214 1.414214 
C -1.03916 1.789267 -0.530406 2 0 2 
z
" style="stroke: #ff9800"/>
    </defs>
    <g clip-path="url(#pc2c05f5670)">
     <use xlink:href="#mbbab8a29f7" x="168.012364" y="201.904209" style="fill: #ff9800; stroke: #ff9800"/>
     <use xlink:href="#mbbab8a29f7" x="145.035481" y="174.488409" style="fill: #ff9800; stroke: #ff9800"/>
     <use xlink:href="#mbbab8a29f7" x="96.01813" y="314.22055" style="fill: #ff9800; stroke: #ff9800"/>
     <use xlink:href="#mbbab8a29f7" x="168.012364" y="201.904209" style="fill: #ff9800; stroke: #ff9800"/>
    </g>
   </g>
   <g id="line2d_14">
    <path d="M 168.012364 201.904209 
L 145.148947 174.684938 
L 145.375879 228.730422 
L 168.012364 201.904209 
" clip-path="url(#pc2c05f5670)" style="fill: none; stroke: #4caf50; stroke-width: 1.5; stroke-linecap: square"/>
    <defs>
     <path id="ma9af0ab21f" d="M 0 2 
C 0.530406 2 1.03916 1.789267 1.414214 1.414214 
C 1.789267 1.03916 2 0.530406 2 0 
C 2 -0.530406 1.789267 -1.03916 1.414214 -1.414214 
C 1.03916 -1.789267 0.530406 -2 0 -2 
C -0.530406 -2 -1.03916 -1.789267 -1.414214 -1.414214 
C -1.789267 -1.03916 -2 -0.530406 -2 0 
C -2 0.530406 -1.789267 1.03916 -1.414214 1.414214 
C -1.03916 1.789267 -0.530406 2 0 2 
z
" style="stroke: #4caf50"/>
    </defs>
    <g clip-path="url(#pc2c05f5670)">
     <use xlink:href="#ma9af0ab21f" x="168.012364" y="201.904209" style="fill: #4caf50; stroke: #4caf50"/>
     <use xlink:href="#ma9af0ab21f" x="145.148947" y="174.684938" style="fill: #4caf50; stroke: #4caf50"/>
     <use xlink:href="#ma9af0ab21f" x="145.375879" y="228.730422" style="fill: #4caf50; stroke: #4caf50"/>
     <use xlink:href="#ma9af0ab21f" x="168.012364" y="201.904209" style="fill: #4caf50; stroke: #4caf50"/>
    </g>
   </g>
   <g id="patch_7">
    <path d="M 318.128 201.904209 
C 318.128 181.252489 314.060062 160.801582 306.156991 141.721881 
C 298.25392 122.642181 286.669412 105.304739 272.066441 90.701768 
C 257.46347 76.098797 240.126028 64.514289 221.046327 56.611218 
C 201.966627 48.708147 181.515719 44.640209 160.864 44.640209 
C 140.212281 44.640209 119.761373 48.708147 100.681673 56.611218 
C 81.601972 64.514289 64.26453 76.098797 49.661559 90.701768 
C 35.058588 105.304739 23.47408 122.642181 15.571009 141.721881 
C 7.667938 160.801582 3.6 181.252489 3.6 201.904209 
C 3.6 222.555928 7.667938 243.006835 15.571009 262.086536 
C 23.47408 281.166237 35.058588 298.503679 49.661559 313.10665 
C 64.26453 327.70962 81.601972 339.294129 100.681673 347.1972 
C 119.761373 355.10027 140.212281 359.168209 160.864 359.168209 
C 181.515719 359.168209 201.966627 355.10027 221.046327 347.1972 
C 240.126028 339.294129 257.46347 327.70962 272.066441 313.10665 
C 286.669412 298.503679 298.25392 281.166237 306.156991 262.086536 
C 314.060062 243.006835 318.128 222.555928 318.128 201.904209 
" style="fill: none; stroke: #000000; stroke-width: 0.8; stroke-linejoin: miter; stroke-linecap: square"/>
   </g>
   <g id="text_11">
    <!-- Multi-Game Performance Comparison -->
    <g transform="translate(35.962438 13.477969) scale(0.13 -0.13)">
     <defs>
      <path id="DejaVuSerif-4d" d="M 353 0 
L 353 331 
L 947 331 
L 947 4331 
L 319 4331 
L 319 4666 
L 1678 4666 
L 3316 1344 
L 4953 4666 
L 6228 4666 
L 6228 4331 
L 5606 4331 
L 5606 331 
L 6203 331 
L 6203 0 
L 4378 0 
L 4378 331 
L 4972 331 
L 4972 3938 
L 3372 684 
L 2931 684 
L 1331 3938 
L 1331 331 
L 1925 331 
L 1925 0 
L 353 0 
z
" transform="scale(0.015625)"/>
      <path id="DejaVuSerif-6c" d="M 1313 331 
L 1856 331 
L 1856 0 
L 184 0 
L 184 331 
L 738 331 
L 738 4531 
L 184 4531 
L 184 4863 
L 1313 4863 
L 1313 331 
z
" transform="scale(0.015625)"/>
      <path id="DejaVuSerif-69" d="M 622 4353 
Q 622 4497 726 4603 
Q 831 4709 978 4709 
Q 1122 4709 1226 4603 
Q 1331 4497 1331 4353 
Q 1331 4206 1228 4103 
Q 1125 4000 978 4000 
Q 831 4000 726 4103 
Q 622 4206 622 4353 
z
M 1356 331 
L 1900 331 
L 1900 0 
L 231 0 
L 231 331 
L 781 331 
L 781 2988 
L 231 2988 
L 231 3322 
L 1356 3322 
L 1356 331 
z
" transform="scale(0.015625)"/>
      <path id="DejaVuSerif-2d" d="M 281 1959 
L 1881 1959 
L 1881 1472 
L 281 1472 
L 281 1959 
z
" transform="scale(0.015625)"/>
      <path id="DejaVuSerif-47" d="M 4097 3272 
Q 3988 3856 3641 4136 
Q 3294 4416 2675 4416 
Q 1869 4416 1472 3897 
Q 1075 3378 1075 2328 
Q 1075 1300 1484 772 
Q 1894 244 2688 244 
Q 3041 244 3362 331 
Q 3684 419 3975 594 
L 3975 1797 
L 3097 1797 
L 3097 2131 
L 4609 2131 
L 4609 391 
Q 4194 150 3714 29 
Q 3234 -91 2688 -91 
Q 1631 -91 995 570 
Q 359 1231 359 2328 
Q 359 3434 996 4092 
Q 1634 4750 2713 4750 
Q 3113 4750 3539 4658 
Q 3966 4566 4447 4378 
L 4447 3272 
L 4097 3272 
z
" transform="scale(0.015625)"/>
      <path id="DejaVuSerif-6d" d="M 3316 2675 
Q 3481 3041 3739 3227 
Q 3997 3413 4341 3413 
Q 4863 3413 5119 3089 
Q 5375 2766 5375 2113 
L 5375 331 
L 5894 331 
L 5894 0 
L 4300 0 
L 4300 331 
L 4800 331 
L 4800 2047 
Q 4800 2556 4650 2772 
Q 4500 2988 4153 2988 
Q 3769 2988 3567 2697 
Q 3366 2406 3366 1850 
L 3366 331 
L 3866 331 
L 3866 0 
L 2291 0 
L 2291 331 
L 2791 331 
L 2791 2069 
Q 2791 2566 2641 2777 
Q 2491 2988 2144 2988 
Q 1759 2988 1557 2697 
Q 1356 2406 1356 1850 
L 1356 331 
L 1856 331 
L 1856 0 
L 263 0 
L 263 331 
L 781 331 
L 781 2994 
L 231 2994 
L 231 3322 
L 1356 3322 
L 1356 2731 
Q 1516 3063 1762 3238 
Q 2009 3413 2322 3413 
Q 2709 3413 2968 3220 
Q 3228 3028 3316 2675 
z
" transform="scale(0.015625)"/>
      <path id="DejaVuSerif-20" transform="scale(0.015625)"/>
      <path id="DejaVuSerif-66" d="M 2753 4078 
L 2450 4078 
Q 2447 4313 2317 4434 
Q 2188 4556 1941 4556 
Q 1619 4556 1487 4379 
Q 1356 4203 1356 3750 
L 1356 3322 
L 2284 3322 
L 2284 2988 
L 1356 2988 
L 1356 331 
L 2094 331 
L 2094 0 
L 231 0 
L 231 331 
L 781 331 
L 781 2988 
L 231 2988 
L 231 3322 
L 781 3322 
L 781 3738 
Q 781 4294 1070 4578 
Q 1359 4863 1919 4863 
Q 2128 4863 2337 4825 
Q 2547 4788 2753 4709 
L 2753 4078 
z
" transform="scale(0.015625)"/>
      <path id="DejaVuSerif-43" d="M 4513 1234 
Q 4306 581 3820 245 
Q 3334 -91 2591 -91 
Q 2134 -91 1743 65 
Q 1353 222 1050 525 
Q 700 875 529 1320 
Q 359 1766 359 2328 
Q 359 3416 987 4083 
Q 1616 4750 2644 4750 
Q 3025 4750 3456 4650 
Q 3888 4550 4384 4347 
L 4384 3272 
L 4031 3272 
Q 3916 3859 3567 4137 
Q 3219 4416 2591 4416 
Q 1844 4416 1459 3886 
Q 1075 3356 1075 2328 
Q 1075 1303 1459 773 
Q 1844 244 2591 244 
Q 3113 244 3450 492 
Q 3788 741 3938 1234 
L 4513 1234 
z
" transform="scale(0.015625)"/>
     </defs>
     <use xlink:href="#DejaVuSerif-4d"/>
     <use xlink:href="#DejaVuSerif-75" transform="translate(102.392578 0)"/>
     <use xlink:href="#DejaVuSerif-6c" transform="translate(166.796875 0)"/>
     <use xlink:href="#DejaVuSerif-74" transform="translate(198.779297 0)"/>
     <use xlink:href="#DejaVuSerif-69" transform="translate(238.964844 0)"/>
     <use xlink:href="#DejaVuSerif-2d" transform="translate(270.947266 0)"/>
     <use xlink:href="#DejaVuSerif-47" transform="translate(304.736328 0)"/>
     <use xlink:href="#DejaVuSerif-61" transform="translate(384.619141 0)"/>
     <use xlink:href="#DejaVuSerif-6d" transform="translate(444.238281 0)"/>
     <use xlink:href="#DejaVuSerif-65" transform="translate(539.0625 0)"/>
     <use xlink:href="#DejaVuSerif-20" transform="translate(598.242188 0)"/>
     <use xlink:href="#DejaVuSerif-50" transform="translate(630.029297 0)"/>
     <use xlink:href="#DejaVuSerif-65" transform="translate(692.814453 0)"/>
     <use xlink:href="#DejaVuSerif-72" transform="translate(751.994141 0)"/>
     <use xlink:href="#DejaVuSerif-66" transform="translate(799.796875 0)"/>
     <use xlink:href="#DejaVuSerif-6f" transform="translate(836.808594 0)"/>
     <use xlink:href="#DejaVuSerif-72" transform="translate(897.013672 0)"/>
     <use xlink:href="#DejaVuSerif-6d" transform="translate(944.816406 0)"/>
     <use xlink:href="#DejaVuSerif-61" transform="translate(1039.640625 0)"/>
     <use xlink:href="#DejaVuSerif-6e" transform="translate(1099.259766 0)"/>
     <use xlink:href="#DejaVuSerif-63" transform="translate(1163.664062 0)"/>
     <use xlink:href="#DejaVuSerif-65" transform="translate(1219.669922 0)"/>
     <use xlink:href="#DejaVuSerif-20" transform="translate(1278.849609 0)"/>
     <use xlink:href="#DejaVuSerif-43" transform="translate(1310.636719 0)"/>
     <use xlink:href="#DejaVuSerif-6f" transform="translate(1387.150391 0)"/>
     <use xlink:href="#DejaVuSerif-6d" transform="translate(1447.355469 0)"/>
     <use xlink:href="#DejaVuSerif-70" transform="translate(1542.179688 0)"/>
     <use xlink:href="#DejaVuSerif-61" transform="translate(1606.193359 0)"/>
     <use xlink:href="#DejaVuSerif-72" transform="translate(1665.8125 0)"/>
     <use xlink:href="#DejaVuSerif-69" transform="translate(1713.615234 0)"/>
     <use xlink:href="#DejaVuSerif-73" transform="translate(1745.597656 0)"/>
     <use xlink:href="#DejaVuSerif-6f" transform="translate(1796.916016 0)"/>
     <use xlink:href="#DejaVuSerif-6e" transform="translate(1857.121094 0)"/>
    </g>
   </g>
   <g id="legend_1">
    <g id="patch_8">
     <path d="M 317.137963 79.899909 
L 407.4864 79.899909 
L 407.4864 18.187409 
L 317.137963 18.187409 
z
" style="fill: #ffffff; opacity: 0.8; stroke: #000000; stroke-linejoin: miter"/>
    </g>
    <g id="line2d_15">
     <path d="M 321.137963 26.285846 
L 331.137963 26.285846 
L 341.137963 26.285846 
" style="fill: none; stroke: #2196f3; stroke-width: 1.5; stroke-linecap: square"/>
     <g>
      <use xlink:href="#ma4a6dbd067" x="331.137963" y="26.285846" style="fill: #2196f3; stroke: #2196f3"/>
     </g>
    </g>
    <g id="text_12">
     <!-- Individual -->
     <g transform="translate(349.137963 29.785846) scale(0.1 -0.1)">
      <use xlink:href="#DejaVuSerif-49"/>
      <use xlink:href="#DejaVuSerif-6e" transform="translate(39.501953 0)"/>
      <use xlink:href="#DejaVuSerif-64" transform="translate(103.90625 0)"/>
      <use xlink:href="#DejaVuSerif-69" transform="translate(167.919922 0)"/>
      <use xlink:href="#DejaVuSerif-76" transform="translate(199.902344 0)"/>
      <use xlink:href="#DejaVuSerif-69" transform="translate(256.396484 0)"/>
      <use xlink:href="#DejaVuSerif-64" transform="translate(288.378906 0)"/>
      <use xlink:href="#DejaVuSerif-75" transform="translate(352.392578 0)"/>
      <use xlink:href="#DejaVuSerif-61" transform="translate(416.796875 0)"/>
      <use xlink:href="#DejaVuSerif-6c" transform="translate(476.416016 0)"/>
     </g>
    </g>
    <g id="line2d_16">
     <path d="M 321.137963 40.963971 
L 331.137963 40.963971 
L 341.137963 40.963971 
" style="fill: none; stroke: #f44336; stroke-width: 1.5; stroke-linecap: square"/>
     <g>
      <use xlink:href="#m6225077ec7" x="331.137963" y="40.963971" style="fill: #f44336; stroke: #f44336"/>
     </g>
    </g>
    <g id="text_13">
     <!-- Sequential -->
     <g transform="translate(349.137963 44.463971) scale(0.1 -0.1)">
      <defs>
       <path id="DejaVuSerif-71" d="M 3359 2988 
L 3359 -997 
L 3909 -997 
L 3909 -1331 
L 2241 -1331 
L 2241 -997 
L 2784 -997 
L 2784 519 
Q 2616 206 2355 57 
Q 2094 -91 1709 -91 
Q 1097 -91 708 395 
Q 319 881 319 1663 
Q 319 2444 706 2928 
Q 1094 3413 1709 3413 
Q 2094 3413 2355 3264 
Q 2616 3116 2784 2803 
L 2784 3322 
L 3909 3322 
L 3909 2988 
L 3359 2988 
z
M 2784 1825 
Q 2784 2422 2554 2737 
Q 2325 3053 1888 3053 
Q 1444 3053 1217 2703 
Q 991 2353 991 1663 
Q 991 975 1217 622 
Q 1444 269 1888 269 
Q 2325 269 2554 583 
Q 2784 897 2784 1497 
L 2784 1825 
z
" transform="scale(0.015625)"/>
      </defs>
      <use xlink:href="#DejaVuSerif-53"/>
      <use xlink:href="#DejaVuSerif-65" transform="translate(68.505859 0)"/>
      <use xlink:href="#DejaVuSerif-71" transform="translate(127.685547 0)"/>
      <use xlink:href="#DejaVuSerif-75" transform="translate(191.699219 0)"/>
      <use xlink:href="#DejaVuSerif-65" transform="translate(256.103516 0)"/>
      <use xlink:href="#DejaVuSerif-6e" transform="translate(315.283203 0)"/>
      <use xlink:href="#DejaVuSerif-74" transform="translate(379.6875 0)"/>
      <use xlink:href="#DejaVuSerif-69" transform="translate(419.873047 0)"/>
      <use xlink:href="#DejaVuSerif-61" transform="translate(451.855469 0)"/>
      <use xlink:href="#DejaVuSerif-6c" transform="translate(511.474609 0)"/>
     </g>
    </g>
    <g id="line2d_17">
     <path d="M 321.137963 55.642096 
L 331.137963 55.642096 
L 341.137963 55.642096 
" style="fill: none; stroke: #ff9800; stroke-width: 1.5; stroke-linecap: square"/>
     <g>
      <use xlink:href="#mbbab8a29f7" x="331.137963" y="55.642096" style="fill: #ff9800; stroke: #ff9800"/>
     </g>
    </g>
    <g id="text_14">
     <!-- EWC -->
     <g transform="translate(349.137963 59.142096) scale(0.1 -0.1)">
      <defs>
       <path id="DejaVuSerif-45" d="M 353 0 
L 353 331 
L 947 331 
L 947 4331 
L 353 4331 
L 353 4666 
L 4109 4666 
L 4109 3628 
L 3725 3628 
L 3725 4281 
L 1581 4281 
L 1581 2719 
L 3109 2719 
L 3109 3303 
L 3494 3303 
L 3494 1753 
L 3109 1753 
L 3109 2338 
L 1581 2338 
L 1581 384 
L 3775 384 
L 3775 1038 
L 4159 1038 
L 4159 0 
L 353 0 
z
" transform="scale(0.015625)"/>
       <path id="DejaVuSerif-57" d="M 4878 0 
L 4366 0 
L 3297 3794 
L 2228 0 
L 1716 0 
L 494 4331 
L 31 4331 
L 31 4666 
L 1734 4666 
L 1734 4331 
L 1153 4331 
L 2125 884 
L 3188 4666 
L 3694 4666 
L 4775 844 
L 5753 4331 
L 5216 4331 
L 5216 4666 
L 6559 4666 
L 6559 4331 
L 6100 4331 
L 4878 0 
z
" transform="scale(0.015625)"/>
      </defs>
      <use xlink:href="#DejaVuSerif-45"/>
      <use xlink:href="#DejaVuSerif-57" transform="translate(72.998047 0)"/>
      <use xlink:href="#DejaVuSerif-43" transform="translate(175.78125 0)"/>
     </g>
    </g>
    <g id="line2d_18">
     <path d="M 321.137963 70.320221 
L 331.137963 70.320221 
L 341.137963 70.320221 
" style="fill: none; stroke: #4caf50; stroke-width: 1.5; stroke-linecap: square"/>
     <g>
      <use xlink:href="#ma9af0ab21f" x="331.137963" y="70.320221" style="fill: #4caf50; stroke: #4caf50"/>
     </g>
    </g>
    <g id="text_15">
     <!-- HTCL -->
     <g transform="translate(349.137963 73.820221) scale(0.1 -0.1)">
      <defs>
       <path id="DejaVuSerif-48" d="M 353 0 
L 353 331 
L 947 331 
L 947 4331 
L 353 4331 
L 353 4666 
L 2175 4666 
L 2175 4331 
L 1581 4331 
L 1581 2719 
L 4000 2719 
L 4000 4331 
L 3406 4331 
L 3406 4666 
L 5228 4666 
L 5228 4331 
L 4634 4331 
L 4634 331 
L 5228 331 
L 5228 0 
L 3406 0 
L 3406 331 
L 4000 331 
L 4000 2338 
L 1581 2338 
L 1581 331 
L 2175 331 
L 2175 0 
L 353 0 
z
" transform="scale(0.015625)"/>
       <path id="DejaVuSerif-54" d="M 1222 0 
L 1222 331 
L 1819 331 
L 1819 4294 
L 447 4294 
L 447 3566 
L 63 3566 
L 63 4666 
L 4206 4666 
L 4206 3566 
L 3822 3566 
L 3822 4294 
L 2450 4294 
L 2450 331 
L 3047 331 
L 3047 0 
L 1222 0 
z
" transform="scale(0.015625)"/>
       <path id="DejaVuSerif-4c" d="M 353 0 
L 353 331 
L 947 331 
L 947 4331 
L 353 4331 
L 353 4666 
L 2175 4666 
L 2175 4331 
L 1581 4331 
L 1581 384 
L 3713 384 
L 3713 1166 
L 4097 1166 
L 4097 0 
L 353 0 
z
" transform="scale(0.015625)"/>
      </defs>
      <use xlink:href="#DejaVuSerif-48"/>
      <use xlink:href="#DejaVuSerif-54" transform="translate(87.207031 0)"/>
      <use xlink:href="#DejaVuSerif-43" transform="translate(153.90625 0)"/>
      <use xlink:href="#DejaVuSerif-4c" transform="translate(230.419922 0)"/>
     </g>
    </g>
   </g>
  </g>
 </g>
 <defs>
  <clipPath id="pc2c05f5670">
   <path d="M 318.128 201.904209 
C 318.128 181.252489 314.060062 160.801582 306.156991 141.721881 
C 298.25392 122.642181 286.669412 105.304739 272.066441 90.701768 
C 257.46347 76.098797 240.126028 64.514289 221.046327 56.611218 
C 201.966627 48.708147 181.515719 44.640209 160.864 44.640209 
C 140.212281 44.640209 119.761373 48.708147 100.681673 56.611218 
C 81.601972 64.514289 64.26453 76.098797 49.661559 90.701768 
C 35.058588 105.304739 23.47408 122.642181 15.571009 141.721881 
C 7.667938 160.801582 3.6 181.252489 3.6 201.904209 
C 3.6 222.555928 7.667938 243.006835 15.571009 262.086536 
C 23.47408 281.166237 35.058588 298.503679 49.661559 313.10665 
C 64.26453 327.70962 81.601972 339.294129 100.681673 347.1972 
C 119.761373 355.10027 140.212281 359.168209 160.864 359.168209 
C 181.515719 359.168209 201.966627 355.10027 221.046327 347.1972 
C 240.126028 339.294129 257.46347 327.70962 272.066441 313.10665 
C 286.669412 298.503679 298.25392 281.166237 306.156991 262.086536 
C 314.060062 243.006835 318.128 222.555928 318.128 201.904209 
M 160.864 201.904209 
C 160.864 201.904209 160.864 201.904209 160.864 201.904209 
C 160.864 201.904209 160.864 201.904209 160.864 201.904209 
C 160.864 201.904209 160.864 201.904209 160.864 201.904209 
C 160.864 201.904209 160.864 201.904209 160.864 201.904209 
C 160.864 201.904209 160.864 201.904209 160.864 201.904209 
C 160.864 201.904209 160.864 201.904209 160.864 201.904209 
C 160.864 201.904209 160.864 201.904209 160.864 201.904209 
C 160.864 201.904209 160.864 201.904209 160.864 201.904209 
C 160.864 201.904209 160.864 201.904209 160.864 201.904209 
C 160.864 201.904209 160.864 201.904209 160.864 201.904209 
C 160.864 201.904209 160.864 201.904209 160.864 201.904209 
C 160.864 201.904209 160.864 201.904209 160.864 201.904209 
C 160.864 201.904209 160.864 201.904209 160.864 201.904209 
C 160.864 201.904209 160.864 201.904209 160.864 201.904209 
C 160.864 201.904209 160.864 201.904209 160.864 201.904209 
C 160.864 201.904209 160.864 201.904209 160.864 201.904209 
z
"/>
  </clipPath>
 </defs>
</svg>
