<?xml version="1.0" encoding="utf-8" standalone="no"?>
<!DOCTYPE svg PUBLIC "-//W3C//DTD SVG 1.1//EN"
  "http://www.w3.org/Graphics/SVG/1.1/DTD/svg11.dtd">
<svg xmlns:xlink="http://www.w3.org/1999/xlink" width="1061.048313pt" height="288.903125pt" viewBox="0 0 1061.048313 288.903125" xmlns="http://www.w3.org/2000/svg" version="1.1">
 <metadata>
  <rdf:RDF xmlns:dc="http://purl.org/dc/elements/1.1/" xmlns:cc="http://creativecommons.org/ns#" xmlns:rdf="http://www.w3.org/1999/02/22-rdf-syntax-ns#">
   <cc:Work>
    <dc:type rdf:resource="http://purl.org/dc/dcmitype/StillImage"/>
    <dc:date>2026-02-17T16:33:28.534088</dc:date>
    <dc:format>image/svg+xml</dc:format>
    <dc:creator>
     <cc:Agent>
      <dc:title>Matplotlib v3.8.0, https://matplotlib.org/</dc:title>
     </cc:Agent>
    </dc:creator>
   </cc:Work>
  </rdf:RDF>
 </metadata>
 <defs>
  <style type="text/css">*{stroke-linejoin: round; stroke-linecap: butt}</style>
 </defs>
 <g id="figure_1">
  <g id="patch_1">
   <path d="M 0 288.903125 
L 1061.048313 288.903125 
L 1061.048313 0 
L 0 0 
z
" style="fill: #ffffff"/>
  </g>
  <g id="axes_1">
   <g id="patch_2">
    <path d="M 56.859063 253.01125 
L 350.647652 253.01125 
L 350.647652 62.64 
L 56.859063 62.64 
z
" style="fill: #ffffff"/>
   </g>
   <g id="matplotlib.axis_1">
    <g id="xtick_1">
     <g id="line2d_1">
      <defs>
       <path id="ma77491dca2" d="M 0 0 
L 0 3.5 
" style="stroke: #000000; stroke-width: 0.8"/>
      </defs>
      <g>
       <use xlink:href="#ma77491dca2" x="69.677858" y="253.01125" style="stroke: #000000; stroke-width: 0.8"/>
      </g>
     </g>
     <g id="text_1">
      <!-- 0k -->
      <g transform="translate(63.46692 267.609688) scale(0.1 -0.1)">
       <defs>
        <path id="DejaVuSerif-30" d="M 2034 219 
Q 2513 219 2750 744 
Q 2988 1269 2988 2328 
Q 2988 3391 2750 3916 
Q 2513 4441 2034 4441 
Q 1556 4441 1318 3916 
Q 1081 3391 1081 2328 
Q 1081 1269 1318 744 
Q 1556 219 2034 219 
z
M 2034 -91 
Q 1275 -91 848 546 
Q 422 1184 422 2328 
Q 422 3475 848 4112 
Q 1275 4750 2034 4750 
Q 2797 4750 3222 4112 
Q 3647 3475 3647 2328 
Q 3647 1184 3222 546 
Q 2797 -91 2034 -91 
z
" transform="scale(0.015625)"/>
        <path id="DejaVuSerif-6b" d="M 1831 0 
L 219 0 
L 219 331 
L 738 331 
L 738 4531 
L 184 4531 
L 184 4863 
L 1313 4863 
L 1313 1697 
L 2713 2988 
L 2234 2988 
L 2234 3322 
L 3738 3322 
L 3738 2988 
L 3169 2988 
L 2181 2075 
L 3444 331 
L 3922 331 
L 3922 0 
L 2284 0 
L 2284 331 
L 2759 331 
L 1766 1697 
L 1313 1275 
L 1313 331 
L 1831 331 
L 1831 0 
z
" transform="scale(0.015625)"/>
       </defs>
       <use xlink:href="#DejaVuSerif-30"/>
       <use xlink:href="#DejaVuSerif-6b" x="63.623047"/>
      </g>
     </g>
    </g>
    <g id="xtick_2">
     <g id="line2d_2">
      <g>
       <use xlink:href="#ma77491dca2" x="123.201011" y="253.01125" style="stroke: #000000; stroke-width: 0.8"/>
      </g>
     </g>
     <g id="text_2">
      <!-- 1000k -->
      <g transform="translate(107.446324 267.609688) scale(0.1 -0.1)">
       <defs>
        <path id="DejaVuSerif-31" d="M 909 0 
L 909 331 
L 1722 331 
L 1722 4213 
L 781 3603 
L 781 4013 
L 1919 4750 
L 2350 4750 
L 2350 331 
L 3163 331 
L 3163 0 
L 909 0 
z
" transform="scale(0.015625)"/>
       </defs>
       <use xlink:href="#DejaVuSerif-31"/>
       <use xlink:href="#DejaVuSerif-30" x="63.623047"/>
       <use xlink:href="#DejaVuSerif-30" x="127.246094"/>
       <use xlink:href="#DejaVuSerif-30" x="190.869141"/>
       <use xlink:href="#DejaVuSerif-6b" x="254.492188"/>
      </g>
     </g>
    </g>
    <g id="xtick_3">
     <g id="line2d_3">
      <g>
       <use xlink:href="#ma77491dca2" x="176.724165" y="253.01125" style="stroke: #000000; stroke-width: 0.8"/>
      </g>
     </g>
     <g id="text_3">
      <!-- 2000k -->
      <g transform="translate(160.969477 267.609688) scale(0.1 -0.1)">
       <defs>
        <path id="DejaVuSerif-32" d="M 819 3553 
L 469 3553 
L 469 4384 
Q 803 4563 1142 4656 
Q 1481 4750 1806 4750 
Q 2534 4750 2956 4397 
Q 3378 4044 3378 3438 
Q 3378 2753 2422 1800 
Q 2347 1728 2309 1691 
L 1131 513 
L 3078 513 
L 3078 1088 
L 3444 1088 
L 3444 0 
L 434 0 
L 434 341 
L 1850 1753 
Q 2319 2222 2519 2614 
Q 2719 3006 2719 3438 
Q 2719 3909 2473 4175 
Q 2228 4441 1797 4441 
Q 1350 4441 1106 4219 
Q 863 3997 819 3553 
z
" transform="scale(0.015625)"/>
       </defs>
       <use xlink:href="#DejaVuSerif-32"/>
       <use xlink:href="#DejaVuSerif-30" x="63.623047"/>
       <use xlink:href="#DejaVuSerif-30" x="127.246094"/>
       <use xlink:href="#DejaVuSerif-30" x="190.869141"/>
       <use xlink:href="#DejaVuSerif-6b" x="254.492188"/>
      </g>
     </g>
    </g>
    <g id="xtick_4">
     <g id="line2d_4">
      <g>
       <use xlink:href="#ma77491dca2" x="230.247318" y="253.01125" style="stroke: #000000; stroke-width: 0.8"/>
      </g>
     </g>
     <g id="text_4">
      <!-- 3000k -->
      <g transform="translate(214.492631 267.609688) scale(0.1 -0.1)">
       <defs>
        <path id="DejaVuSerif-33" d="M 622 4469 
Q 988 4606 1323 4678 
Q 1659 4750 1953 4750 
Q 2638 4750 3022 4454 
Q 3406 4159 3406 3634 
Q 3406 3213 3140 2930 
Q 2875 2647 2388 2547 
Q 2963 2466 3280 2130 
Q 3597 1794 3597 1259 
Q 3597 606 3158 257 
Q 2719 -91 1894 -91 
Q 1528 -91 1179 -12 
Q 831 66 488 225 
L 488 1131 
L 838 1131 
Q 869 681 1141 450 
Q 1413 219 1906 219 
Q 2384 219 2661 495 
Q 2938 772 2938 1253 
Q 2938 1803 2653 2086 
Q 2369 2369 1819 2369 
L 1522 2369 
L 1522 2688 
L 1678 2688 
Q 2225 2688 2498 2914 
Q 2772 3141 2772 3597 
Q 2772 4006 2547 4223 
Q 2322 4441 1900 4441 
Q 1478 4441 1245 4241 
Q 1013 4041 972 3647 
L 622 3647 
L 622 4469 
z
" transform="scale(0.015625)"/>
       </defs>
       <use xlink:href="#DejaVuSerif-33"/>
       <use xlink:href="#DejaVuSerif-30" x="63.623047"/>
       <use xlink:href="#DejaVuSerif-30" x="127.246094"/>
       <use xlink:href="#DejaVuSerif-30" x="190.869141"/>
       <use xlink:href="#DejaVuSerif-6b" x="254.492188"/>
      </g>
     </g>
    </g>
    <g id="xtick_5">
     <g id="line2d_5">
      <g>
       <use xlink:href="#ma77491dca2" x="283.770472" y="253.01125" style="stroke: #000000; stroke-width: 0.8"/>
      </g>
     </g>
     <g id="text_5">
      <!-- 4000k -->
      <g transform="translate(268.015784 267.609688) scale(0.1 -0.1)">
       <defs>
        <path id="DejaVuSerif-34" d="M 2234 1581 
L 2234 4063 
L 641 1581 
L 2234 1581 
z
M 3609 0 
L 1484 0 
L 1484 331 
L 2234 331 
L 2234 1247 
L 197 1247 
L 197 1588 
L 2241 4750 
L 2859 4750 
L 2859 1581 
L 3750 1581 
L 3750 1247 
L 2859 1247 
L 2859 331 
L 3609 331 
L 3609 0 
z
" transform="scale(0.015625)"/>
       </defs>
       <use xlink:href="#DejaVuSerif-34"/>
       <use xlink:href="#DejaVuSerif-30" x="63.623047"/>
       <use xlink:href="#DejaVuSerif-30" x="127.246094"/>
       <use xlink:href="#DejaVuSerif-30" x="190.869141"/>
       <use xlink:href="#DejaVuSerif-6b" x="254.492188"/>
      </g>
     </g>
    </g>
    <g id="xtick_6">
     <g id="line2d_6">
      <g>
       <use xlink:href="#ma77491dca2" x="337.293625" y="253.01125" style="stroke: #000000; stroke-width: 0.8"/>
      </g>
     </g>
     <g id="text_6">
      <!-- 5000k -->
      <g transform="translate(321.538938 267.609688) scale(0.1 -0.1)">
       <defs>
        <path id="DejaVuSerif-35" d="M 3219 4666 
L 3219 4153 
L 1081 4153 
L 1081 2816 
Q 1244 2928 1461 2984 
Q 1678 3041 1947 3041 
Q 2703 3041 3140 2622 
Q 3578 2203 3578 1478 
Q 3578 738 3136 323 
Q 2694 -91 1894 -91 
Q 1572 -91 1234 -12 
Q 897 66 544 225 
L 544 1131 
L 897 1131 
Q 925 688 1179 453 
Q 1434 219 1894 219 
Q 2388 219 2653 544 
Q 2919 869 2919 1478 
Q 2919 2084 2655 2407 
Q 2391 2731 1894 2731 
Q 1613 2731 1398 2631 
Q 1184 2531 1019 2322 
L 750 2322 
L 750 4666 
L 3219 4666 
z
" transform="scale(0.015625)"/>
       </defs>
       <use xlink:href="#DejaVuSerif-35"/>
       <use xlink:href="#DejaVuSerif-30" x="63.623047"/>
       <use xlink:href="#DejaVuSerif-30" x="127.246094"/>
       <use xlink:href="#DejaVuSerif-30" x="190.869141"/>
       <use xlink:href="#DejaVuSerif-6b" x="254.492188"/>
      </g>
     </g>
    </g>
    <g id="text_7">
     <!-- Environment Steps -->
     <g transform="translate(145.43992 282.8075) scale(0.12 -0.12)">
      <defs>
       <path id="DejaVuSerif-45" d="M 353 0 
L 353 331 
L 947 331 
L 947 4331 
L 353 4331 
L 353 4666 
L 4109 4666 
L 4109 3628 
L 3725 3628 
L 3725 4281 
L 1581 4281 
L 1581 2719 
L 3109 2719 
L 3109 3303 
L 3494 3303 
L 3494 1753 
L 3109 1753 
L 3109 2338 
L 1581 2338 
L 1581 384 
L 3775 384 
L 3775 1038 
L 4159 1038 
L 4159 0 
L 353 0 
z
" transform="scale(0.015625)"/>
       <path id="DejaVuSerif-6e" d="M 263 0 
L 263 331 
L 781 331 
L 781 2988 
L 231 2988 
L 231 3322 
L 1356 3322 
L 1356 2731 
Q 1516 3069 1770 3241 
Q 2025 3413 2363 3413 
Q 2913 3413 3172 3097 
Q 3431 2781 3431 2113 
L 3431 331 
L 3944 331 
L 3944 0 
L 2356 0 
L 2356 331 
L 2853 331 
L 2853 1931 
Q 2853 2541 2703 2767 
Q 2553 2994 2175 2994 
Q 1775 2994 1565 2701 
Q 1356 2409 1356 1850 
L 1356 331 
L 1856 331 
L 1856 0 
L 263 0 
z
" transform="scale(0.015625)"/>
       <path id="DejaVuSerif-76" d="M 1581 0 
L 359 2988 
L -19 2988 
L -19 3322 
L 1509 3322 
L 1509 2988 
L 978 2988 
L 1913 703 
L 2847 2988 
L 2350 2988 
L 2350 3322 
L 3597 3322 
L 3597 2988 
L 3225 2988 
L 2003 0 
L 1581 0 
z
" transform="scale(0.015625)"/>
       <path id="DejaVuSerif-69" d="M 622 4353 
Q 622 4497 726 4603 
Q 831 4709 978 4709 
Q 1122 4709 1226 4603 
Q 1331 4497 1331 4353 
Q 1331 4206 1228 4103 
Q 1125 4000 978 4000 
Q 831 4000 726 4103 
Q 622 4206 622 4353 
z
M 1356 331 
L 1900 331 
L 1900 0 
L 231 0 
L 231 331 
L 781 331 
L 781 2988 
L 231 2988 
L 231 3322 
L 1356 3322 
L 1356 331 
z
" transform="scale(0.015625)"/>
       <path id="DejaVuSerif-72" d="M 3059 3328 
L 3059 2497 
L 2728 2497 
Q 2713 2744 2591 2866 
Q 2469 2988 2234 2988 
Q 1809 2988 1582 2694 
Q 1356 2400 1356 1850 
L 1356 331 
L 2022 331 
L 2022 0 
L 263 0 
L 263 331 
L 781 331 
L 781 2994 
L 231 2994 
L 231 3322 
L 1356 3322 
L 1356 2731 
Q 1525 3078 1790 3245 
Q 2056 3413 2438 3413 
Q 2578 3413 2733 3391 
Q 2888 3369 3059 3328 
z
" transform="scale(0.015625)"/>
       <path id="DejaVuSerif-6f" d="M 1925 219 
Q 2388 219 2623 584 
Q 2859 950 2859 1663 
Q 2859 2375 2623 2739 
Q 2388 3103 1925 3103 
Q 1463 3103 1227 2739 
Q 991 2375 991 1663 
Q 991 950 1228 584 
Q 1466 219 1925 219 
z
M 1925 -91 
Q 1200 -91 759 389 
Q 319 869 319 1663 
Q 319 2456 758 2934 
Q 1197 3413 1925 3413 
Q 2653 3413 3092 2934 
Q 3531 2456 3531 1663 
Q 3531 869 3092 389 
Q 2653 -91 1925 -91 
z
" transform="scale(0.015625)"/>
       <path id="DejaVuSerif-6d" d="M 3316 2675 
Q 3481 3041 3739 3227 
Q 3997 3413 4341 3413 
Q 4863 3413 5119 3089 
Q 5375 2766 5375 2113 
L 5375 331 
L 5894 331 
L 5894 0 
L 4300 0 
L 4300 331 
L 4800 331 
L 4800 2047 
Q 4800 2556 4650 2772 
Q 4500 2988 4153 2988 
Q 3769 2988 3567 2697 
Q 3366 2406 3366 1850 
L 3366 331 
L 3866 331 
L 3866 0 
L 2291 0 
L 2291 331 
L 2791 331 
L 2791 2069 
Q 2791 2566 2641 2777 
Q 2491 2988 2144 2988 
Q 1759 2988 1557 2697 
Q 1356 2406 1356 1850 
L 1356 331 
L 1856 331 
L 1856 0 
L 263 0 
L 263 331 
L 781 331 
L 781 2994 
L 231 2994 
L 231 3322 
L 1356 3322 
L 1356 2731 
Q 1516 3063 1762 3238 
Q 2009 3413 2322 3413 
Q 2709 3413 2968 3220 
Q 3228 3028 3316 2675 
z
" transform="scale(0.015625)"/>
       <path id="DejaVuSerif-65" d="M 3469 1600 
L 991 1600 
L 991 1575 
Q 991 903 1244 561 
Q 1497 219 1991 219 
Q 2369 219 2611 417 
Q 2853 616 2950 1006 
L 3413 1006 
Q 3275 459 2904 184 
Q 2534 -91 1931 -91 
Q 1203 -91 761 389 
Q 319 869 319 1663 
Q 319 2450 753 2931 
Q 1188 3413 1894 3413 
Q 2647 3413 3050 2948 
Q 3453 2484 3469 1600 
z
M 2791 1931 
Q 2772 2513 2545 2808 
Q 2319 3103 1894 3103 
Q 1497 3103 1269 2806 
Q 1041 2509 991 1931 
L 2791 1931 
z
" transform="scale(0.015625)"/>
       <path id="DejaVuSerif-74" d="M 691 2988 
L 184 2988 
L 184 3322 
L 691 3322 
L 691 4353 
L 1269 4353 
L 1269 3322 
L 2350 3322 
L 2350 2988 
L 1269 2988 
L 1269 878 
Q 1269 456 1350 337 
Q 1431 219 1650 219 
Q 1875 219 1978 351 
Q 2081 484 2088 781 
L 2522 781 
Q 2497 328 2275 118 
Q 2053 -91 1600 -91 
Q 1103 -91 897 129 
Q 691 350 691 878 
L 691 2988 
z
" transform="scale(0.015625)"/>
       <path id="DejaVuSerif-20" transform="scale(0.015625)"/>
       <path id="DejaVuSerif-53" d="M 594 225 
L 594 1288 
L 953 1284 
Q 969 753 1261 498 
Q 1553 244 2150 244 
Q 2706 244 2998 464 
Q 3291 684 3291 1106 
Q 3291 1444 3114 1625 
Q 2938 1806 2369 1978 
L 1753 2163 
Q 1084 2366 811 2669 
Q 538 2972 538 3500 
Q 538 4094 959 4422 
Q 1381 4750 2144 4750 
Q 2469 4750 2856 4679 
Q 3244 4609 3681 4475 
L 3681 3481 
L 3328 3481 
Q 3275 3975 2998 4195 
Q 2722 4416 2156 4416 
Q 1663 4416 1405 4214 
Q 1147 4013 1147 3628 
Q 1147 3294 1340 3103 
Q 1534 2913 2163 2725 
L 2741 2553 
Q 3375 2363 3645 2067 
Q 3916 1772 3916 1275 
Q 3916 597 3481 253 
Q 3047 -91 2188 -91 
Q 1803 -91 1404 -12 
Q 1006 66 594 225 
z
" transform="scale(0.015625)"/>
       <path id="DejaVuSerif-70" d="M 1313 1825 
L 1313 1497 
Q 1313 897 1542 583 
Q 1772 269 2209 269 
Q 2650 269 2876 622 
Q 3103 975 3103 1663 
Q 3103 2353 2876 2703 
Q 2650 3053 2209 3053 
Q 1772 3053 1542 2737 
Q 1313 2422 1313 1825 
z
M 738 2988 
L 184 2988 
L 184 3322 
L 1313 3322 
L 1313 2803 
Q 1481 3116 1742 3264 
Q 2003 3413 2388 3413 
Q 3000 3413 3387 2928 
Q 3775 2444 3775 1663 
Q 3775 881 3387 395 
Q 3000 -91 2388 -91 
Q 2003 -91 1742 57 
Q 1481 206 1313 519 
L 1313 -997 
L 1856 -997 
L 1856 -1331 
L 184 -1331 
L 184 -997 
L 738 -997 
L 738 2988 
z
" transform="scale(0.015625)"/>
       <path id="DejaVuSerif-73" d="M 359 184 
L 359 959 
L 691 959 
Q 703 588 923 403 
Q 1144 219 1575 219 
Q 1963 219 2166 364 
Q 2369 509 2369 788 
Q 2369 1006 2220 1140 
Q 2072 1275 1594 1428 
L 1178 1569 
Q 750 1706 558 1912 
Q 366 2119 366 2438 
Q 366 2894 700 3153 
Q 1034 3413 1625 3413 
Q 1888 3413 2178 3344 
Q 2469 3275 2778 3144 
L 2778 2419 
L 2447 2419 
Q 2434 2741 2221 2922 
Q 2009 3103 1644 3103 
Q 1281 3103 1095 2975 
Q 909 2847 909 2591 
Q 909 2381 1050 2254 
Q 1191 2128 1613 1997 
L 2069 1856 
Q 2541 1709 2748 1489 
Q 2956 1269 2956 922 
Q 2956 450 2595 179 
Q 2234 -91 1600 -91 
Q 1278 -91 972 -22 
Q 666 47 359 184 
z
" transform="scale(0.015625)"/>
      </defs>
      <use xlink:href="#DejaVuSerif-45"/>
      <use xlink:href="#DejaVuSerif-6e" x="72.998047"/>
      <use xlink:href="#DejaVuSerif-76" x="137.402344"/>
      <use xlink:href="#DejaVuSerif-69" x="193.896484"/>
      <use xlink:href="#DejaVuSerif-72" x="225.878906"/>
      <use xlink:href="#DejaVuSerif-6f" x="273.681641"/>
      <use xlink:href="#DejaVuSerif-6e" x="333.886719"/>
      <use xlink:href="#DejaVuSerif-6d" x="398.291016"/>
      <use xlink:href="#DejaVuSerif-65" x="493.115234"/>
      <use xlink:href="#DejaVuSerif-6e" x="552.294922"/>
      <use xlink:href="#DejaVuSerif-74" x="616.699219"/>
      <use xlink:href="#DejaVuSerif-20" x="656.884766"/>
      <use xlink:href="#DejaVuSerif-53" x="688.671875"/>
      <use xlink:href="#DejaVuSerif-74" x="757.177734"/>
      <use xlink:href="#DejaVuSerif-65" x="797.363281"/>
      <use xlink:href="#DejaVuSerif-70" x="856.542969"/>
      <use xlink:href="#DejaVuSerif-73" x="920.556641"/>
     </g>
    </g>
   </g>
   <g id="matplotlib.axis_2">
    <g id="ytick_1">
     <g id="line2d_7">
      <defs>
       <path id="m9c37275cc5" d="M 0 0 
L -3.5 0 
" style="stroke: #000000; stroke-width: 0.8"/>
      </defs>
      <g>
       <use xlink:href="#m9c37275cc5" x="56.859063" y="244.358011" style="stroke: #000000; stroke-width: 0.8"/>
      </g>
     </g>
     <g id="text_8">
      <!-- −21.0 -->
      <g transform="translate(19.21375 248.15723) scale(0.1 -0.1)">
       <defs>
        <path id="DejaVuSerif-2212" d="M 678 2259 
L 4684 2259 
L 4684 1753 
L 678 1753 
L 678 2259 
z
" transform="scale(0.015625)"/>
        <path id="DejaVuSerif-2e" d="M 603 325 
Q 603 500 722 622 
Q 841 744 1019 744 
Q 1191 744 1312 622 
Q 1434 500 1434 325 
Q 1434 153 1312 31 
Q 1191 -91 1019 -91 
Q 841 -91 722 29 
Q 603 150 603 325 
z
" transform="scale(0.015625)"/>
       </defs>
       <use xlink:href="#DejaVuSerif-2212"/>
       <use xlink:href="#DejaVuSerif-32" x="83.789062"/>
       <use xlink:href="#DejaVuSerif-31" x="147.412109"/>
       <use xlink:href="#DejaVuSerif-2e" x="211.035156"/>
       <use xlink:href="#DejaVuSerif-30" x="242.822266"/>
      </g>
     </g>
    </g>
    <g id="ytick_2">
     <g id="line2d_8">
      <g>
       <use xlink:href="#m9c37275cc5" x="56.859063" y="214.25979" style="stroke: #000000; stroke-width: 0.8"/>
      </g>
     </g>
     <g id="text_9">
      <!-- −20.8 -->
      <g transform="translate(19.21375 218.059009) scale(0.1 -0.1)">
       <defs>
        <path id="DejaVuSerif-38" d="M 2981 1275 
Q 2981 1775 2732 2051 
Q 2484 2328 2034 2328 
Q 1584 2328 1336 2051 
Q 1088 1775 1088 1275 
Q 1088 772 1336 495 
Q 1584 219 2034 219 
Q 2484 219 2732 495 
Q 2981 772 2981 1275 
z
M 2853 3541 
Q 2853 3966 2637 4203 
Q 2422 4441 2034 4441 
Q 1650 4441 1433 4203 
Q 1216 3966 1216 3541 
Q 1216 3113 1433 2875 
Q 1650 2638 2034 2638 
Q 2422 2638 2637 2875 
Q 2853 3113 2853 3541 
z
M 2516 2484 
Q 3047 2413 3344 2092 
Q 3641 1772 3641 1275 
Q 3641 619 3225 264 
Q 2809 -91 2034 -91 
Q 1263 -91 845 264 
Q 428 619 428 1275 
Q 428 1772 725 2092 
Q 1022 2413 1556 2484 
Q 1084 2569 832 2842 
Q 581 3116 581 3541 
Q 581 4103 968 4426 
Q 1356 4750 2034 4750 
Q 2713 4750 3100 4426 
Q 3488 4103 3488 3541 
Q 3488 3116 3236 2842 
Q 2984 2569 2516 2484 
z
" transform="scale(0.015625)"/>
       </defs>
       <use xlink:href="#DejaVuSerif-2212"/>
       <use xlink:href="#DejaVuSerif-32" x="83.789062"/>
       <use xlink:href="#DejaVuSerif-30" x="147.412109"/>
       <use xlink:href="#DejaVuSerif-2e" x="211.035156"/>
       <use xlink:href="#DejaVuSerif-38" x="242.822266"/>
      </g>
     </g>
    </g>
    <g id="ytick_3">
     <g id="line2d_9">
      <g>
       <use xlink:href="#m9c37275cc5" x="56.859063" y="184.161569" style="stroke: #000000; stroke-width: 0.8"/>
      </g>
     </g>
     <g id="text_10">
      <!-- −20.6 -->
      <g transform="translate(19.21375 187.960787) scale(0.1 -0.1)">
       <defs>
        <path id="DejaVuSerif-36" d="M 2094 219 
Q 2534 219 2771 542 
Q 3009 866 3009 1472 
Q 3009 2078 2771 2401 
Q 2534 2725 2094 2725 
Q 1647 2725 1412 2412 
Q 1178 2100 1178 1509 
Q 1178 888 1415 553 
Q 1653 219 2094 219 
z
M 1075 2569 
Q 1288 2803 1556 2918 
Q 1825 3034 2163 3034 
Q 2859 3034 3264 2615 
Q 3669 2197 3669 1472 
Q 3669 763 3233 336 
Q 2797 -91 2069 -91 
Q 1278 -91 853 498 
Q 428 1088 428 2181 
Q 428 3406 931 4078 
Q 1434 4750 2350 4750 
Q 2597 4750 2869 4703 
Q 3141 4656 3425 4563 
L 3425 3794 
L 3072 3794 
Q 3034 4109 2831 4275 
Q 2628 4441 2284 4441 
Q 1678 4441 1381 3981 
Q 1084 3522 1075 2569 
z
" transform="scale(0.015625)"/>
       </defs>
       <use xlink:href="#DejaVuSerif-2212"/>
       <use xlink:href="#DejaVuSerif-32" x="83.789062"/>
       <use xlink:href="#DejaVuSerif-30" x="147.412109"/>
       <use xlink:href="#DejaVuSerif-2e" x="211.035156"/>
       <use xlink:href="#DejaVuSerif-36" x="242.822266"/>
      </g>
     </g>
    </g>
    <g id="ytick_4">
     <g id="line2d_10">
      <g>
       <use xlink:href="#m9c37275cc5" x="56.859063" y="154.063347" style="stroke: #000000; stroke-width: 0.8"/>
      </g>
     </g>
     <g id="text_11">
      <!-- −20.4 -->
      <g transform="translate(19.21375 157.862566) scale(0.1 -0.1)">
       <use xlink:href="#DejaVuSerif-2212"/>
       <use xlink:href="#DejaVuSerif-32" x="83.789062"/>
       <use xlink:href="#DejaVuSerif-30" x="147.412109"/>
       <use xlink:href="#DejaVuSerif-2e" x="211.035156"/>
       <use xlink:href="#DejaVuSerif-34" x="242.822266"/>
      </g>
     </g>
    </g>
    <g id="ytick_5">
     <g id="line2d_11">
      <g>
       <use xlink:href="#m9c37275cc5" x="56.859063" y="123.965126" style="stroke: #000000; stroke-width: 0.8"/>
      </g>
     </g>
     <g id="text_12">
      <!-- −20.2 -->
      <g transform="translate(19.21375 127.764345) scale(0.1 -0.1)">
       <use xlink:href="#DejaVuSerif-2212"/>
       <use xlink:href="#DejaVuSerif-32" x="83.789062"/>
       <use xlink:href="#DejaVuSerif-30" x="147.412109"/>
       <use xlink:href="#DejaVuSerif-2e" x="211.035156"/>
       <use xlink:href="#DejaVuSerif-32" x="242.822266"/>
      </g>
     </g>
    </g>
    <g id="ytick_6">
     <g id="line2d_12">
      <g>
       <use xlink:href="#m9c37275cc5" x="56.859063" y="93.866905" style="stroke: #000000; stroke-width: 0.8"/>
      </g>
     </g>
     <g id="text_13">
      <!-- −20.0 -->
      <g transform="translate(19.21375 97.666123) scale(0.1 -0.1)">
       <use xlink:href="#DejaVuSerif-2212"/>
       <use xlink:href="#DejaVuSerif-32" x="83.789062"/>
       <use xlink:href="#DejaVuSerif-30" x="147.412109"/>
       <use xlink:href="#DejaVuSerif-2e" x="211.035156"/>
       <use xlink:href="#DejaVuSerif-30" x="242.822266"/>
      </g>
     </g>
    </g>
    <g id="ytick_7">
     <g id="line2d_13">
      <g>
       <use xlink:href="#m9c37275cc5" x="56.859063" y="63.768683" style="stroke: #000000; stroke-width: 0.8"/>
      </g>
     </g>
     <g id="text_14">
      <!-- −19.8 -->
      <g transform="translate(19.21375 67.567902) scale(0.1 -0.1)">
       <defs>
        <path id="DejaVuSerif-39" d="M 2994 2091 
Q 2784 1856 2512 1740 
Q 2241 1625 1900 1625 
Q 1206 1625 804 2044 
Q 403 2463 403 3188 
Q 403 3897 839 4323 
Q 1275 4750 2003 4750 
Q 2794 4750 3217 4161 
Q 3641 3572 3641 2478 
Q 3641 1253 3137 581 
Q 2634 -91 1722 -91 
Q 1475 -91 1203 -44 
Q 931 3 647 97 
L 647 872 
L 997 872 
Q 1038 556 1241 387 
Q 1444 219 1784 219 
Q 2391 219 2687 676 
Q 2984 1134 2994 2091 
z
M 1978 4441 
Q 1534 4441 1298 4117 
Q 1063 3794 1063 3188 
Q 1063 2581 1298 2256 
Q 1534 1931 1978 1931 
Q 2422 1931 2658 2245 
Q 2894 2559 2894 3150 
Q 2894 3772 2656 4106 
Q 2419 4441 1978 4441 
z
" transform="scale(0.015625)"/>
       </defs>
       <use xlink:href="#DejaVuSerif-2212"/>
       <use xlink:href="#DejaVuSerif-31" x="83.789062"/>
       <use xlink:href="#DejaVuSerif-39" x="147.412109"/>
       <use xlink:href="#DejaVuSerif-2e" x="211.035156"/>
       <use xlink:href="#DejaVuSerif-38" x="242.822266"/>
      </g>
     </g>
    </g>
    <g id="text_15">
     <!-- Mean Reward (20 ep) -->
     <g transform="translate(12.718125 223.882812) rotate(-90) scale(0.12 -0.12)">
      <defs>
       <path id="DejaVuSerif-4d" d="M 353 0 
L 353 331 
L 947 331 
L 947 4331 
L 319 4331 
L 319 4666 
L 1678 4666 
L 3316 1344 
L 4953 4666 
L 6228 4666 
L 6228 4331 
L 5606 4331 
L 5606 331 
L 6203 331 
L 6203 0 
L 4378 0 
L 4378 331 
L 4972 331 
L 4972 3938 
L 3372 684 
L 2931 684 
L 1331 3938 
L 1331 331 
L 1925 331 
L 1925 0 
L 353 0 
z
" transform="scale(0.015625)"/>
       <path id="DejaVuSerif-61" d="M 2547 1044 
L 2547 1747 
L 1806 1747 
Q 1378 1747 1168 1562 
Q 959 1378 959 997 
Q 959 650 1171 447 
Q 1384 244 1747 244 
Q 2106 244 2326 466 
Q 2547 688 2547 1044 
z
M 3122 2075 
L 3122 331 
L 3634 331 
L 3634 0 
L 2547 0 
L 2547 359 
Q 2356 128 2106 18 
Q 1856 -91 1522 -91 
Q 969 -91 644 203 
Q 319 497 319 997 
Q 319 1513 691 1797 
Q 1063 2081 1741 2081 
L 2547 2081 
L 2547 2309 
Q 2547 2688 2317 2895 
Q 2088 3103 1672 3103 
Q 1328 3103 1125 2947 
Q 922 2791 872 2484 
L 575 2484 
L 575 3156 
Q 875 3284 1158 3348 
Q 1441 3413 1709 3413 
Q 2400 3413 2761 3070 
Q 3122 2728 3122 2075 
z
" transform="scale(0.015625)"/>
       <path id="DejaVuSerif-52" d="M 3066 2316 
Q 3284 2256 3442 2114 
Q 3600 1972 3725 1716 
L 4403 331 
L 4972 331 
L 4972 0 
L 3872 0 
L 3144 1484 
Q 2934 1916 2759 2042 
Q 2584 2169 2278 2169 
L 1581 2169 
L 1581 331 
L 2241 331 
L 2241 0 
L 353 0 
L 353 331 
L 947 331 
L 947 4331 
L 353 4331 
L 353 4666 
L 2719 4666 
Q 3400 4666 3770 4341 
Q 4141 4016 4141 3419 
Q 4141 2938 3870 2661 
Q 3600 2384 3066 2316 
z
M 1581 2503 
L 2503 2503 
Q 2975 2503 3200 2726 
Q 3425 2950 3425 3419 
Q 3425 3888 3200 4109 
Q 2975 4331 2503 4331 
L 1581 4331 
L 1581 2503 
z
" transform="scale(0.015625)"/>
       <path id="DejaVuSerif-77" d="M 3072 3322 
L 3922 728 
L 4672 2988 
L 4191 2988 
L 4191 3322 
L 5394 3322 
L 5394 2988 
L 5025 2988 
L 4038 0 
L 3559 0 
L 2741 2484 
L 1919 0 
L 1459 0 
L 475 2988 
L 103 2988 
L 103 3322 
L 1606 3322 
L 1606 2988 
L 1069 2988 
L 1813 728 
L 2669 3322 
L 3072 3322 
z
" transform="scale(0.015625)"/>
       <path id="DejaVuSerif-64" d="M 3359 331 
L 3909 331 
L 3909 0 
L 2784 0 
L 2784 519 
Q 2616 206 2355 57 
Q 2094 -91 1709 -91 
Q 1097 -91 708 395 
Q 319 881 319 1663 
Q 319 2444 706 2928 
Q 1094 3413 1709 3413 
Q 2094 3413 2355 3264 
Q 2616 3116 2784 2803 
L 2784 4531 
L 2241 4531 
L 2241 4863 
L 3359 4863 
L 3359 331 
z
M 2784 1497 
L 2784 1825 
Q 2784 2422 2554 2737 
Q 2325 3053 1888 3053 
Q 1444 3053 1217 2703 
Q 991 2353 991 1663 
Q 991 975 1217 622 
Q 1444 269 1888 269 
Q 2325 269 2554 583 
Q 2784 897 2784 1497 
z
" transform="scale(0.015625)"/>
       <path id="DejaVuSerif-28" d="M 2041 -997 
Q 1281 -656 893 83 
Q 506 822 506 1931 
Q 506 3044 893 3783 
Q 1281 4522 2041 4863 
L 2041 4556 
Q 1559 4225 1350 3623 
Q 1141 3022 1141 1931 
Q 1141 844 1350 242 
Q 1559 -359 2041 -691 
L 2041 -997 
z
" transform="scale(0.015625)"/>
       <path id="DejaVuSerif-29" d="M 453 -997 
L 453 -691 
Q 934 -359 1145 242 
Q 1356 844 1356 1931 
Q 1356 3022 1145 3623 
Q 934 4225 453 4556 
L 453 4863 
Q 1216 4522 1603 3783 
Q 1991 3044 1991 1931 
Q 1991 822 1603 83 
Q 1216 -656 453 -997 
z
" transform="scale(0.015625)"/>
      </defs>
      <use xlink:href="#DejaVuSerif-4d"/>
      <use xlink:href="#DejaVuSerif-65" x="102.392578"/>
      <use xlink:href="#DejaVuSerif-61" x="161.572266"/>
      <use xlink:href="#DejaVuSerif-6e" x="221.191406"/>
      <use xlink:href="#DejaVuSerif-20" x="285.595703"/>
      <use xlink:href="#DejaVuSerif-52" x="317.382812"/>
      <use xlink:href="#DejaVuSerif-65" x="392.675781"/>
      <use xlink:href="#DejaVuSerif-77" x="451.855469"/>
      <use xlink:href="#DejaVuSerif-61" x="537.451172"/>
      <use xlink:href="#DejaVuSerif-72" x="597.070312"/>
      <use xlink:href="#DejaVuSerif-64" x="644.873047"/>
      <use xlink:href="#DejaVuSerif-20" x="708.886719"/>
      <use xlink:href="#DejaVuSerif-28" x="740.673828"/>
      <use xlink:href="#DejaVuSerif-32" x="779.6875"/>
      <use xlink:href="#DejaVuSerif-30" x="843.310547"/>
      <use xlink:href="#DejaVuSerif-20" x="906.933594"/>
      <use xlink:href="#DejaVuSerif-65" x="938.720703"/>
      <use xlink:href="#DejaVuSerif-70" x="997.900391"/>
      <use xlink:href="#DejaVuSerif-29" x="1061.914062"/>
     </g>
    </g>
   </g>
   <g id="line2d_14">
    <path d="M 70.213089 108.916015 
L 70.748321 71.293239 
L 71.283552 101.39146 
L 71.818784 116.440571 
L 72.354015 101.39146 
L 72.889247 161.587903 
L 73.424479 101.39146 
L 73.95971 93.866905 
L 74.494942 116.440571 
L 75.030173 108.916015 
L 75.565405 154.063347 
L 76.100636 123.965126 
L 76.635868 154.063347 
L 77.171099 108.916015 
L 77.706331 139.014237 
L 78.241562 161.587903 
L 78.776794 191.686124 
L 79.312025 206.735235 
L 79.847257 184.161569 
L 80.382488 131.489681 
L 80.91772 93.866905 
L 81.452952 131.489681 
L 81.988183 191.686124 
L 82.523415 176.637013 
L 83.058646 169.112458 
L 84.129109 214.25979 
L 84.664341 214.25979 
L 85.199572 184.161569 
L 85.734804 161.587903 
L 86.270035 108.916015 
L 87.340498 176.637013 
L 87.87573 169.112458 
L 88.410961 191.686124 
L 88.946193 191.686124 
L 89.481425 176.637013 
L 90.016656 214.25979 
L 90.551888 191.686124 
L 91.087119 191.686124 
L 91.622351 221.784345 
L 92.157582 214.25979 
L 93.228045 184.161569 
L 93.763277 191.686124 
L 94.298508 236.833456 
L 94.83374 221.784345 
L 95.368971 199.210679 
L 95.904203 221.784345 
L 96.974666 236.833456 
L 97.509898 236.833456 
L 98.045129 229.308901 
L 98.580361 206.735235 
L 99.115592 214.25979 
L 100.186055 244.358011 
L 100.721287 221.784345 
L 101.256518 214.25979 
L 101.79175 236.833456 
L 102.326981 221.784345 
L 103.932676 244.358011 
L 104.467908 236.833456 
L 105.003139 214.25979 
L 105.538371 214.25979 
L 106.073602 236.833456 
L 106.608834 229.308901 
L 107.144065 236.833456 
L 107.679297 221.784345 
L 108.74976 236.833456 
L 109.284991 229.308901 
L 109.820223 229.308901 
L 110.355454 244.358011 
L 110.890686 236.833456 
L 111.425917 206.735235 
L 111.961149 214.25979 
L 113.566844 214.25979 
L 114.102075 199.210679 
L 114.637307 206.735235 
L 115.172538 244.358011 
L 115.70777 236.833456 
L 116.243001 199.210679 
L 116.778233 206.735235 
L 117.313464 221.784345 
L 117.848696 221.784345 
L 118.383927 244.358011 
L 118.919159 244.358011 
L 119.454391 236.833456 
L 119.989622 214.25979 
L 120.524854 214.25979 
L 121.060085 191.686124 
L 121.595317 206.735235 
L 122.130548 229.308901 
L 122.66578 221.784345 
L 123.201011 229.308901 
L 123.736243 221.784345 
L 124.271474 229.308901 
L 124.806706 229.308901 
L 125.877169 214.25979 
L 126.4124 214.25979 
L 126.947632 229.308901 
L 127.482864 236.833456 
L 128.018095 229.308901 
L 128.553327 214.25979 
L 129.088558 214.25979 
L 129.62379 229.308901 
L 130.159021 214.25979 
L 130.694253 214.25979 
L 131.764716 244.358011 
L 132.299947 236.833456 
L 132.835179 221.784345 
L 133.37041 214.25979 
L 133.905642 236.833456 
L 134.440874 229.308901 
L 134.976105 229.308901 
L 135.511337 236.833456 
L 136.046568 214.25979 
L 136.5818 229.308901 
L 137.652263 229.308901 
L 138.187494 244.358011 
L 138.722726 221.784345 
L 139.257957 221.784345 
L 139.793189 244.358011 
L 140.32842 236.833456 
L 140.863652 214.25979 
L 141.398883 221.784345 
L 141.934115 236.833456 
L 142.469347 229.308901 
L 143.53981 244.358011 
L 144.075041 236.833456 
L 144.610273 244.358011 
L 145.145504 229.308901 
L 145.680736 229.308901 
L 146.215967 221.784345 
L 147.821662 244.358011 
L 148.356893 221.784345 
L 148.892125 206.735235 
L 149.962588 236.833456 
L 150.49782 229.308901 
L 151.033051 206.735235 
L 152.103514 206.735235 
L 152.638746 221.784345 
L 153.173977 229.308901 
L 154.779672 206.735235 
L 155.314903 214.25979 
L 155.850135 229.308901 
L 156.920598 229.308901 
L 157.45583 236.833456 
L 157.991061 229.308901 
L 159.596756 229.308901 
L 160.131987 236.833456 
L 160.667219 236.833456 
L 161.20245 221.784345 
L 161.737682 221.784345 
L 162.272913 229.308901 
L 162.808145 229.308901 
L 163.343376 221.784345 
L 164.949071 244.358011 
L 166.554766 244.358011 
L 167.089997 229.308901 
L 168.16046 214.25979 
L 168.695692 229.308901 
L 169.766155 244.358011 
L 170.301386 229.308901 
L 170.836618 229.308901 
L 171.371849 221.784345 
L 171.907081 229.308901 
L 173.512776 229.308901 
L 174.583239 214.25979 
L 175.11847 229.308901 
L 175.653702 229.308901 
L 176.188933 236.833456 
L 176.724165 229.308901 
L 177.259396 236.833456 
L 177.794628 229.308901 
L 178.865091 229.308901 
L 179.935554 244.358011 
L 180.470786 244.358011 
L 181.006017 236.833456 
L 181.541249 236.833456 
L 182.07648 206.735235 
L 182.611712 199.210679 
L 183.146943 229.308901 
L 183.682175 236.833456 
L 184.217406 229.308901 
L 184.752638 236.833456 
L 185.287869 221.784345 
L 185.823101 244.358011 
L 186.893564 229.308901 
L 187.428795 244.358011 
L 187.964027 229.308901 
L 188.499259 236.833456 
L 189.03449 229.308901 
L 189.569722 214.25979 
L 190.104953 236.833456 
L 190.640185 236.833456 
L 191.175416 214.25979 
L 191.710648 229.308901 
L 192.245879 229.308901 
L 192.781111 236.833456 
L 193.316342 229.308901 
L 193.851574 229.308901 
L 194.386805 236.833456 
L 194.922037 229.308901 
L 195.457268 244.358011 
L 196.527732 229.308901 
L 197.062963 229.308901 
L 197.598195 244.358011 
L 198.133426 229.308901 
L 199.203889 229.308901 
L 199.739121 236.833456 
L 200.274352 221.784345 
L 200.809584 221.784345 
L 201.344815 236.833456 
L 201.880047 221.784345 
L 202.95051 236.833456 
L 205.091436 236.833456 
L 205.626668 244.358011 
L 206.161899 214.25979 
L 206.697131 221.784345 
L 207.232362 236.833456 
L 207.767594 229.308901 
L 208.302825 229.308901 
L 208.838057 236.833456 
L 209.373288 229.308901 
L 209.90852 236.833456 
L 212.049446 236.833456 
L 212.584678 229.308901 
L 213.119909 214.25979 
L 214.190372 229.308901 
L 214.725604 214.25979 
L 215.260835 214.25979 
L 215.796067 229.308901 
L 216.86653 244.358011 
L 217.401761 229.308901 
L 217.936993 221.784345 
L 218.472224 221.784345 
L 219.007456 236.833456 
L 219.542688 236.833456 
L 221.148382 214.25979 
L 221.683614 221.784345 
L 222.218845 236.833456 
L 223.289308 236.833456 
L 223.82454 229.308901 
L 224.895003 229.308901 
L 225.430234 236.833456 
L 225.965466 229.308901 
L 226.500698 236.833456 
L 227.571161 236.833456 
L 228.106392 229.308901 
L 228.641624 236.833456 
L 229.176855 229.308901 
L 229.712087 214.25979 
L 230.78255 229.308901 
L 231.317781 214.25979 
L 231.853013 229.308901 
L 232.923476 229.308901 
L 233.993939 244.358011 
L 234.529171 236.833456 
L 235.064402 236.833456 
L 235.599634 229.308901 
L 236.134865 214.25979 
L 236.670097 214.25979 
L 237.205328 221.784345 
L 237.74056 236.833456 
L 238.275791 221.784345 
L 239.346254 236.833456 
L 239.881486 229.308901 
L 240.416717 236.833456 
L 240.951949 229.308901 
L 241.487181 229.308901 
L 242.022412 236.833456 
L 242.557644 229.308901 
L 243.092875 236.833456 
L 244.69857 214.25979 
L 245.233801 214.25979 
L 245.769033 221.784345 
L 246.839496 221.784345 
L 247.374727 206.735235 
L 247.909959 206.735235 
L 248.44519 229.308901 
L 248.980422 221.784345 
L 249.515654 236.833456 
L 251.121348 236.833456 
L 251.65658 221.784345 
L 252.191811 221.784345 
L 252.727043 214.25979 
L 253.262274 229.308901 
L 253.797506 206.735235 
L 254.332737 229.308901 
L 254.867969 236.833456 
L 255.4032 236.833456 
L 257.008895 214.25979 
L 257.544127 221.784345 
L 258.079358 221.784345 
L 258.61459 229.308901 
L 260.220284 206.735235 
L 260.755516 244.358011 
L 261.290747 229.308901 
L 262.36121 244.358011 
L 262.896442 229.308901 
L 263.431673 236.833456 
L 263.966905 206.735235 
L 264.502137 214.25979 
L 265.037368 229.308901 
L 265.5726 236.833456 
L 266.107831 229.308901 
L 267.178294 244.358011 
L 267.713526 244.358011 
L 268.248757 236.833456 
L 268.783989 244.358011 
L 269.31922 244.358011 
L 269.854452 236.833456 
L 270.389683 244.358011 
L 270.924915 244.358011 
L 271.460146 229.308901 
L 271.995378 229.308901 
L 272.53061 221.784345 
L 273.065841 221.784345 
L 273.601073 236.833456 
L 274.136304 229.308901 
L 274.671536 236.833456 
L 275.206767 214.25979 
L 275.741999 229.308901 
L 276.27723 236.833456 
L 276.812462 229.308901 
L 278.418156 229.308901 
L 279.488619 244.358011 
L 280.023851 229.308901 
L 280.559083 229.308901 
L 281.094314 244.358011 
L 281.629546 229.308901 
L 282.164777 244.358011 
L 282.700009 236.833456 
L 283.23524 236.833456 
L 283.770472 244.358011 
L 284.305703 229.308901 
L 284.840935 236.833456 
L 285.911398 221.784345 
L 286.446629 229.308901 
L 287.517093 214.25979 
L 288.052324 229.308901 
L 288.587556 221.784345 
L 289.122787 206.735235 
L 289.658019 214.25979 
L 290.19325 229.308901 
L 290.728482 214.25979 
L 291.263713 214.25979 
L 291.798945 244.358011 
L 292.334176 236.833456 
L 293.939871 236.833456 
L 294.475102 244.358011 
L 295.010334 221.784345 
L 295.545566 221.784345 
L 296.080797 244.358011 
L 296.616029 236.833456 
L 297.686492 206.735235 
L 298.221723 229.308901 
L 299.292186 244.358011 
L 299.827418 221.784345 
L 300.362649 214.25979 
L 300.897881 221.784345 
L 301.433112 214.25979 
L 301.968344 214.25979 
L 302.503575 229.308901 
L 303.038807 236.833456 
L 303.574039 214.25979 
L 304.10927 206.735235 
L 304.644502 236.833456 
L 305.179733 244.358011 
L 305.714965 229.308901 
L 306.250196 221.784345 
L 307.320659 236.833456 
L 307.855891 221.784345 
L 308.926354 221.784345 
L 309.461585 236.833456 
L 310.532049 221.784345 
L 311.06728 229.308901 
L 311.602512 229.308901 
L 312.137743 221.784345 
L 312.672975 221.784345 
L 313.208206 236.833456 
L 313.743438 236.833456 
L 314.278669 244.358011 
L 315.884364 244.358011 
L 316.419595 229.308901 
L 317.490058 229.308901 
L 318.02529 244.358011 
L 318.560522 229.308901 
L 319.095753 236.833456 
L 319.630985 229.308901 
L 320.701448 229.308901 
L 321.236679 236.833456 
L 321.771911 236.833456 
L 322.307142 229.308901 
L 322.842374 236.833456 
L 323.377605 229.308901 
L 324.448068 229.308901 
L 325.518532 244.358011 
L 326.588995 244.358011 
L 327.124226 229.308901 
L 328.194689 244.358011 
L 328.729921 236.833456 
L 329.265152 236.833456 
L 330.335615 221.784345 
L 330.870847 221.784345 
L 331.94131 236.833456 
L 333.011773 221.784345 
L 333.547005 221.784345 
L 334.082236 206.735235 
L 334.617468 221.784345 
L 335.152699 229.308901 
L 335.687931 221.784345 
L 336.223162 236.833456 
L 336.758394 236.833456 
L 337.293625 221.784345 
L 337.293625 221.784345 
" clip-path="url(#p9054585854)" style="fill: none; stroke: #2196f3; stroke-width: 1.5; stroke-linecap: square"/>
   </g>
   <g id="patch_3">
    <path d="M 56.859063 253.01125 
L 56.859063 62.64 
" style="fill: none; stroke: #000000; stroke-width: 0.8; stroke-linejoin: miter; stroke-linecap: square"/>
   </g>
   <g id="patch_4">
    <path d="M 56.859063 253.01125 
L 350.647652 253.01125 
" style="fill: none; stroke: #000000; stroke-width: 0.8; stroke-linejoin: miter; stroke-linecap: square"/>
   </g>
   <g id="text_16">
    <!-- Pong -->
    <g transform="translate(187.379451 56.64) scale(0.13 -0.13)">
     <defs>
      <path id="DejaVuSerif-50" d="M 1581 2375 
L 2406 2375 
Q 2872 2375 3115 2626 
Q 3359 2878 3359 3353 
Q 3359 3831 3115 4081 
Q 2872 4331 2406 4331 
L 1581 4331 
L 1581 2375 
z
M 353 0 
L 353 331 
L 947 331 
L 947 4331 
L 353 4331 
L 353 4666 
L 2559 4666 
Q 3259 4666 3668 4311 
Q 4078 3956 4078 3353 
Q 4078 2753 3668 2397 
Q 3259 2041 2559 2041 
L 1581 2041 
L 1581 331 
L 2303 331 
L 2303 0 
L 353 0 
z
" transform="scale(0.015625)"/>
      <path id="DejaVuSerif-67" d="M 3359 2988 
L 3359 72 
Q 3359 -644 2965 -1033 
Q 2572 -1422 1844 -1422 
Q 1516 -1422 1216 -1362 
Q 916 -1303 641 -1184 
L 641 -488 
L 941 -488 
Q 997 -813 1206 -963 
Q 1416 -1113 1806 -1113 
Q 2313 -1113 2548 -827 
Q 2784 -541 2784 72 
L 2784 519 
Q 2616 206 2355 57 
Q 2094 -91 1709 -91 
Q 1097 -91 708 395 
Q 319 881 319 1663 
Q 319 2444 706 2928 
Q 1094 3413 1709 3413 
Q 2094 3413 2355 3264 
Q 2616 3116 2784 2803 
L 2784 3322 
L 3909 3322 
L 3909 2988 
L 3359 2988 
z
M 2784 1825 
Q 2784 2422 2554 2737 
Q 2325 3053 1888 3053 
Q 1444 3053 1217 2703 
Q 991 2353 991 1663 
Q 991 975 1217 622 
Q 1444 269 1888 269 
Q 2325 269 2554 583 
Q 2784 897 2784 1497 
L 2784 1825 
z
" transform="scale(0.015625)"/>
     </defs>
     <use xlink:href="#DejaVuSerif-50"/>
     <use xlink:href="#DejaVuSerif-6f" x="63.285156"/>
     <use xlink:href="#DejaVuSerif-6e" x="123.490234"/>
     <use xlink:href="#DejaVuSerif-67" x="187.894531"/>
    </g>
   </g>
  </g>
  <g id="axes_2">
   <g id="patch_5">
    <path d="M 409.059062 253.01125 
L 702.847652 253.01125 
L 702.847652 62.64 
L 409.059062 62.64 
z
" style="fill: #ffffff"/>
   </g>
   <g id="matplotlib.axis_3">
    <g id="xtick_7">
     <g id="line2d_15">
      <g>
       <use xlink:href="#ma77491dca2" x="421.877858" y="253.01125" style="stroke: #000000; stroke-width: 0.8"/>
      </g>
     </g>
     <g id="text_17">
      <!-- 0k -->
      <g transform="translate(415.66692 267.609688) scale(0.1 -0.1)">
       <use xlink:href="#DejaVuSerif-30"/>
       <use xlink:href="#DejaVuSerif-6b" x="63.623047"/>
      </g>
     </g>
    </g>
    <g id="xtick_8">
     <g id="line2d_16">
      <g>
       <use xlink:href="#ma77491dca2" x="475.401011" y="253.01125" style="stroke: #000000; stroke-width: 0.8"/>
      </g>
     </g>
     <g id="text_18">
      <!-- 1000k -->
      <g transform="translate(459.646324 267.609688) scale(0.1 -0.1)">
       <use xlink:href="#DejaVuSerif-31"/>
       <use xlink:href="#DejaVuSerif-30" x="63.623047"/>
       <use xlink:href="#DejaVuSerif-30" x="127.246094"/>
       <use xlink:href="#DejaVuSerif-30" x="190.869141"/>
       <use xlink:href="#DejaVuSerif-6b" x="254.492188"/>
      </g>
     </g>
    </g>
    <g id="xtick_9">
     <g id="line2d_17">
      <g>
       <use xlink:href="#ma77491dca2" x="528.924165" y="253.01125" style="stroke: #000000; stroke-width: 0.8"/>
      </g>
     </g>
     <g id="text_19">
      <!-- 2000k -->
      <g transform="translate(513.169477 267.609688) scale(0.1 -0.1)">
       <use xlink:href="#DejaVuSerif-32"/>
       <use xlink:href="#DejaVuSerif-30" x="63.623047"/>
       <use xlink:href="#DejaVuSerif-30" x="127.246094"/>
       <use xlink:href="#DejaVuSerif-30" x="190.869141"/>
       <use xlink:href="#DejaVuSerif-6b" x="254.492188"/>
      </g>
     </g>
    </g>
    <g id="xtick_10">
     <g id="line2d_18">
      <g>
       <use xlink:href="#ma77491dca2" x="582.447318" y="253.01125" style="stroke: #000000; stroke-width: 0.8"/>
      </g>
     </g>
     <g id="text_20">
      <!-- 3000k -->
      <g transform="translate(566.692631 267.609688) scale(0.1 -0.1)">
       <use xlink:href="#DejaVuSerif-33"/>
       <use xlink:href="#DejaVuSerif-30" x="63.623047"/>
       <use xlink:href="#DejaVuSerif-30" x="127.246094"/>
       <use xlink:href="#DejaVuSerif-30" x="190.869141"/>
       <use xlink:href="#DejaVuSerif-6b" x="254.492188"/>
      </g>
     </g>
    </g>
    <g id="xtick_11">
     <g id="line2d_19">
      <g>
       <use xlink:href="#ma77491dca2" x="635.970472" y="253.01125" style="stroke: #000000; stroke-width: 0.8"/>
      </g>
     </g>
     <g id="text_21">
      <!-- 4000k -->
      <g transform="translate(620.215784 267.609688) scale(0.1 -0.1)">
       <use xlink:href="#DejaVuSerif-34"/>
       <use xlink:href="#DejaVuSerif-30" x="63.623047"/>
       <use xlink:href="#DejaVuSerif-30" x="127.246094"/>
       <use xlink:href="#DejaVuSerif-30" x="190.869141"/>
       <use xlink:href="#DejaVuSerif-6b" x="254.492188"/>
      </g>
     </g>
    </g>
    <g id="xtick_12">
     <g id="line2d_20">
      <g>
       <use xlink:href="#ma77491dca2" x="689.493625" y="253.01125" style="stroke: #000000; stroke-width: 0.8"/>
      </g>
     </g>
     <g id="text_22">
      <!-- 5000k -->
      <g transform="translate(673.738938 267.609688) scale(0.1 -0.1)">
       <use xlink:href="#DejaVuSerif-35"/>
       <use xlink:href="#DejaVuSerif-30" x="63.623047"/>
       <use xlink:href="#DejaVuSerif-30" x="127.246094"/>
       <use xlink:href="#DejaVuSerif-30" x="190.869141"/>
       <use xlink:href="#DejaVuSerif-6b" x="254.492188"/>
      </g>
     </g>
    </g>
    <g id="text_23">
     <!-- Environment Steps -->
     <g transform="translate(497.63992 282.8075) scale(0.12 -0.12)">
      <use xlink:href="#DejaVuSerif-45"/>
      <use xlink:href="#DejaVuSerif-6e" x="72.998047"/>
      <use xlink:href="#DejaVuSerif-76" x="137.402344"/>
      <use xlink:href="#DejaVuSerif-69" x="193.896484"/>
      <use xlink:href="#DejaVuSerif-72" x="225.878906"/>
      <use xlink:href="#DejaVuSerif-6f" x="273.681641"/>
      <use xlink:href="#DejaVuSerif-6e" x="333.886719"/>
      <use xlink:href="#DejaVuSerif-6d" x="398.291016"/>
      <use xlink:href="#DejaVuSerif-65" x="493.115234"/>
      <use xlink:href="#DejaVuSerif-6e" x="552.294922"/>
      <use xlink:href="#DejaVuSerif-74" x="616.699219"/>
      <use xlink:href="#DejaVuSerif-20" x="656.884766"/>
      <use xlink:href="#DejaVuSerif-53" x="688.671875"/>
      <use xlink:href="#DejaVuSerif-74" x="757.177734"/>
      <use xlink:href="#DejaVuSerif-65" x="797.363281"/>
      <use xlink:href="#DejaVuSerif-70" x="856.542969"/>
      <use xlink:href="#DejaVuSerif-73" x="920.556641"/>
     </g>
    </g>
   </g>
   <g id="matplotlib.axis_4">
    <g id="ytick_8">
     <g id="line2d_21">
      <g>
       <use xlink:href="#m9c37275cc5" x="409.059062" y="245.080118" style="stroke: #000000; stroke-width: 0.8"/>
      </g>
     </g>
     <g id="text_24">
      <!-- 0 -->
      <g transform="translate(395.696562 248.879336) scale(0.1 -0.1)">
       <use xlink:href="#DejaVuSerif-30"/>
      </g>
     </g>
    </g>
    <g id="ytick_9">
     <g id="line2d_22">
      <g>
       <use xlink:href="#m9c37275cc5" x="409.059062" y="221.009913" style="stroke: #000000; stroke-width: 0.8"/>
      </g>
     </g>
     <g id="text_25">
      <!-- 5 -->
      <g transform="translate(395.696562 224.809131) scale(0.1 -0.1)">
       <use xlink:href="#DejaVuSerif-35"/>
      </g>
     </g>
    </g>
    <g id="ytick_10">
     <g id="line2d_23">
      <g>
       <use xlink:href="#m9c37275cc5" x="409.059062" y="196.939708" style="stroke: #000000; stroke-width: 0.8"/>
      </g>
     </g>
     <g id="text_26">
      <!-- 10 -->
      <g transform="translate(389.334062 200.738927) scale(0.1 -0.1)">
       <use xlink:href="#DejaVuSerif-31"/>
       <use xlink:href="#DejaVuSerif-30" x="63.623047"/>
      </g>
     </g>
    </g>
    <g id="ytick_11">
     <g id="line2d_24">
      <g>
       <use xlink:href="#m9c37275cc5" x="409.059062" y="172.869503" style="stroke: #000000; stroke-width: 0.8"/>
      </g>
     </g>
     <g id="text_27">
      <!-- 15 -->
      <g transform="translate(389.334062 176.668722) scale(0.1 -0.1)">
       <use xlink:href="#DejaVuSerif-31"/>
       <use xlink:href="#DejaVuSerif-35" x="63.623047"/>
      </g>
     </g>
    </g>
    <g id="ytick_12">
     <g id="line2d_25">
      <g>
       <use xlink:href="#m9c37275cc5" x="409.059062" y="148.799298" style="stroke: #000000; stroke-width: 0.8"/>
      </g>
     </g>
     <g id="text_28">
      <!-- 20 -->
      <g transform="translate(389.334062 152.598517) scale(0.1 -0.1)">
       <use xlink:href="#DejaVuSerif-32"/>
       <use xlink:href="#DejaVuSerif-30" x="63.623047"/>
      </g>
     </g>
    </g>
    <g id="ytick_13">
     <g id="line2d_26">
      <g>
       <use xlink:href="#m9c37275cc5" x="409.059062" y="124.729093" style="stroke: #000000; stroke-width: 0.8"/>
      </g>
     </g>
     <g id="text_29">
      <!-- 25 -->
      <g transform="translate(389.334062 128.528312) scale(0.1 -0.1)">
       <use xlink:href="#DejaVuSerif-32"/>
       <use xlink:href="#DejaVuSerif-35" x="63.623047"/>
      </g>
     </g>
    </g>
    <g id="ytick_14">
     <g id="line2d_27">
      <g>
       <use xlink:href="#m9c37275cc5" x="409.059062" y="100.658889" style="stroke: #000000; stroke-width: 0.8"/>
      </g>
     </g>
     <g id="text_30">
      <!-- 30 -->
      <g transform="translate(389.334062 104.458107) scale(0.1 -0.1)">
       <use xlink:href="#DejaVuSerif-33"/>
       <use xlink:href="#DejaVuSerif-30" x="63.623047"/>
      </g>
     </g>
    </g>
    <g id="ytick_15">
     <g id="line2d_28">
      <g>
       <use xlink:href="#m9c37275cc5" x="409.059062" y="76.588684" style="stroke: #000000; stroke-width: 0.8"/>
      </g>
     </g>
     <g id="text_31">
      <!-- 35 -->
      <g transform="translate(389.334062 80.387902) scale(0.1 -0.1)">
       <use xlink:href="#DejaVuSerif-33"/>
       <use xlink:href="#DejaVuSerif-35" x="63.623047"/>
      </g>
     </g>
    </g>
    <g id="text_32">
     <!-- Mean Reward (20 ep) -->
     <g transform="translate(382.838437 223.882812) rotate(-90) scale(0.12 -0.12)">
      <use xlink:href="#DejaVuSerif-4d"/>
      <use xlink:href="#DejaVuSerif-65" x="102.392578"/>
      <use xlink:href="#DejaVuSerif-61" x="161.572266"/>
      <use xlink:href="#DejaVuSerif-6e" x="221.191406"/>
      <use xlink:href="#DejaVuSerif-20" x="285.595703"/>
      <use xlink:href="#DejaVuSerif-52" x="317.382812"/>
      <use xlink:href="#DejaVuSerif-65" x="392.675781"/>
      <use xlink:href="#DejaVuSerif-77" x="451.855469"/>
      <use xlink:href="#DejaVuSerif-61" x="537.451172"/>
      <use xlink:href="#DejaVuSerif-72" x="597.070312"/>
      <use xlink:href="#DejaVuSerif-64" x="644.873047"/>
      <use xlink:href="#DejaVuSerif-20" x="708.886719"/>
      <use xlink:href="#DejaVuSerif-28" x="740.673828"/>
      <use xlink:href="#DejaVuSerif-32" x="779.6875"/>
      <use xlink:href="#DejaVuSerif-30" x="843.310547"/>
      <use xlink:href="#DejaVuSerif-20" x="906.933594"/>
      <use xlink:href="#DejaVuSerif-65" x="938.720703"/>
      <use xlink:href="#DejaVuSerif-70" x="997.900391"/>
      <use xlink:href="#DejaVuSerif-29" x="1061.914062"/>
     </g>
    </g>
   </g>
   <g id="line2d_29">
    <path d="M 422.413089 244.117309 
L 422.948321 244.117309 
L 423.483552 243.154501 
L 424.018784 243.635905 
L 424.554015 244.358011 
L 425.624479 242.191693 
L 426.15971 243.154501 
L 426.694942 243.635905 
L 427.230173 243.635905 
L 427.765405 244.117309 
L 428.300636 243.635905 
L 428.835868 241.469587 
L 429.371099 241.469587 
L 429.906331 241.710289 
L 430.976794 239.062566 
L 431.512025 242.913799 
L 432.047257 238.821864 
L 432.582488 240.266077 
L 433.11772 238.581162 
L 433.652952 239.784672 
L 434.188183 240.506779 
L 434.723415 239.062566 
L 435.258646 238.821864 
L 435.793878 238.821864 
L 436.329109 240.025374 
L 436.864341 237.13695 
L 437.399572 239.062566 
L 437.934804 236.174142 
L 438.470035 236.174142 
L 439.005267 233.526419 
L 440.07573 234.007823 
L 440.610961 236.174142 
L 441.146193 229.915888 
L 441.681425 231.600803 
L 442.216656 231.841505 
L 442.751888 234.970631 
L 443.287119 227.74957 
L 443.822351 232.563611 
L 444.357582 228.230974 
L 444.892814 227.74957 
L 445.428045 227.990272 
L 445.963277 225.34255 
L 446.498508 225.583252 
L 447.03374 226.54606 
L 447.568971 228.712378 
L 448.104203 225.34255 
L 448.639435 222.694827 
L 449.174666 222.454125 
L 449.709898 224.861145 
L 450.245129 221.732019 
L 450.780361 221.732019 
L 451.315592 222.694827 
L 451.850824 218.36219 
L 452.386055 223.176231 
L 452.921287 220.287807 
L 453.456518 221.972721 
L 453.99175 221.250615 
L 454.526981 218.121488 
L 455.062213 221.009913 
L 455.597444 221.491317 
L 456.132676 213.307447 
L 456.667908 214.510957 
L 457.203139 220.287807 
L 458.273602 209.215512 
L 459.344065 210.659725 
L 459.879297 216.917978 
L 460.414528 209.937618 
L 460.94976 210.178321 
L 461.484991 212.103937 
L 462.020223 206.086386 
L 462.555454 211.863235 
L 463.090686 210.659725 
L 463.625917 220.287807 
L 464.161149 206.327088 
L 464.696381 204.160769 
L 465.231612 202.475855 
L 465.766844 210.419023 
L 466.302075 205.36428 
L 466.837307 193.088475 
L 467.372538 199.828132 
L 467.90777 200.309537 
L 468.443001 186.58952 
L 468.978233 188.99654 
L 469.513464 200.550239 
L 470.048696 193.810581 
L 470.583927 199.346728 
L 471.119159 193.329177 
L 471.654391 178.164948 
L 472.189622 190.20005 
L 472.724854 188.755838 
L 473.260085 189.237242 
L 473.795317 194.291985 
L 474.330548 197.902516 
L 474.86578 196.217602 
L 475.401011 176.480034 
L 475.936243 182.016181 
L 476.471474 192.125667 
L 477.541937 188.033732 
L 478.077169 181.294075 
L 478.6124 179.368458 
L 479.147632 170.462483 
L 479.682864 182.016181 
L 480.218095 175.757928 
L 480.753327 183.941797 
L 481.288558 187.311626 
L 481.82379 176.480034 
L 482.359021 173.832311 
L 483.429484 185.626712 
L 483.964716 189.237242 
L 484.499947 194.291985 
L 485.035179 196.699006 
L 485.57041 185.145307 
L 486.105642 165.648442 
L 486.640874 178.646352 
L 487.176105 195.736198 
L 487.711337 171.665993 
L 488.246568 153.372637 
L 488.7818 152.650531 
L 489.317031 150.484213 
L 489.852263 155.779658 
L 490.387494 162.278613 
L 490.922726 146.392278 
L 491.457957 169.258972 
L 491.993189 159.871592 
L 492.52842 167.092654 
L 493.063652 160.112294 
L 493.598883 168.777568 
L 494.134115 155.779658 
L 494.669347 170.943887 
L 495.204578 151.687723 
L 495.73981 152.409829 
L 496.275041 176.720736 
L 497.880736 142.300343 
L 498.415967 178.887054 
L 498.951199 156.501764 
L 499.48643 181.294075 
L 500.021662 149.521404 
L 500.556893 151.687723 
L 501.092125 185.38601 
L 501.627356 153.854041 
L 502.162588 156.742466 
L 502.69782 153.131935 
L 503.233051 163.241421 
L 503.768283 151.928425 
L 504.303514 168.536866 
L 504.838746 143.985257 
L 505.373977 169.740376 
L 505.909209 136.04209 
L 506.44444 145.188767 
L 506.979672 121.840669 
L 507.514903 155.298253 
L 508.050135 197.421112 
L 508.585366 181.775479 
L 509.120598 143.263151 
L 509.65583 142.059641 
L 510.191061 141.818939 
L 510.726293 130.746645 
L 511.261524 137.967706 
L 511.796756 166.851952 
L 512.331987 123.525583 
L 512.867219 159.149486 
L 513.40245 180.812671 
L 514.472913 126.414008 
L 515.008145 173.350907 
L 515.543376 184.904605 
L 516.078608 182.497585 
L 516.613839 197.902516 
L 517.149071 177.683544 
L 517.684303 180.812671 
L 518.219534 182.978989 
L 518.754766 179.849862 
L 519.289997 194.051283 
L 519.825229 186.58952 
L 520.36046 175.276524 
L 520.895692 185.867414 
L 521.430923 171.906695 
L 521.966155 144.948065 
L 522.501386 163.722825 
L 523.036618 171.665993 
L 523.571849 139.171216 
L 524.107081 161.797209 
L 524.642312 152.169127 
L 525.177544 125.210497 
L 525.712776 183.219691 
L 526.783239 81.402725 
L 527.31847 157.464572 
L 527.853702 184.423201 
L 529.459396 159.149486 
L 529.994628 163.722825 
L 530.529859 148.799298 
L 531.065091 177.442842 
L 531.600322 96.08555 
L 532.135554 162.519315 
L 532.670786 183.941797 
L 533.206017 154.094743 
L 533.741249 189.477944 
L 534.27648 167.81476 
L 534.811712 187.311626 
L 535.346943 168.296164 
L 535.882175 162.760017 
L 536.417406 197.661814 
L 536.952638 173.350907 
L 537.487869 156.501764 
L 538.023101 150.484213 
L 538.558332 157.705274 
L 539.093564 150.965617 
L 539.628795 135.319983 
L 540.164027 170.462483 
L 540.699259 182.256883 
L 541.23449 170.703185 
L 541.769722 165.40774 
L 542.304953 168.536866 
L 543.375416 196.939708 
L 543.910648 159.63089 
L 544.445879 220.287807 
L 544.981111 181.053373 
L 545.516342 185.145307 
L 546.051574 191.644263 
L 546.586805 182.978989 
L 547.122037 183.701095 
L 547.657268 167.333356 
L 548.1925 184.182499 
L 548.727732 150.002808 
L 549.262963 176.961438 
L 549.798195 160.352997 
L 550.333426 187.070924 
L 550.868658 180.571969 
L 551.403889 194.051283 
L 551.939121 180.331267 
L 552.474352 175.757928 
L 553.009584 184.423201 
L 553.544815 146.873682 
L 554.080047 171.906695 
L 554.615278 174.554417 
L 555.15051 181.775479 
L 555.685742 172.628801 
L 556.220973 175.276524 
L 556.756205 154.576147 
L 557.291436 207.530598 
L 557.826668 175.99863 
L 558.361899 169.258972 
L 558.897131 172.628801 
L 559.432362 135.801388 
L 559.967594 177.442842 
L 560.502825 193.810581 
L 561.038057 178.646352 
L 561.573288 152.650531 
L 562.10852 167.092654 
L 562.643751 140.615429 
L 563.178983 165.648442 
L 563.714215 176.239332 
L 564.249446 194.051283 
L 564.784678 164.685633 
L 565.319909 179.60916 
L 565.855141 178.164948 
L 566.390372 170.703185 
L 566.925604 123.525583 
L 567.460835 133.153665 
L 567.996067 148.799298 
L 568.531298 149.280702 
L 569.06653 159.871592 
L 569.601761 175.517226 
L 570.136993 149.280702 
L 570.672224 175.276524 
L 571.207456 156.02036 
L 571.742688 167.81476 
L 572.277919 160.112294 
L 572.813151 157.945976 
L 573.348382 135.560686 
L 573.883614 183.701095 
L 574.418845 155.298253 
L 574.954077 162.037911 
L 575.489308 149.521404 
L 576.02454 168.777568 
L 576.559771 169.981078 
L 577.095003 173.350907 
L 577.630234 144.707363 
L 578.165466 178.646352 
L 578.700698 163.000719 
L 579.235929 175.035821 
L 579.771161 151.206319 
L 580.306392 183.460393 
L 580.841624 186.348818 
L 581.376855 155.057551 
L 581.912087 175.99863 
L 582.447318 154.816849 
L 582.98255 111.009077 
L 583.517781 174.073013 
L 584.053013 183.460393 
L 584.588244 189.718646 
L 585.123476 172.628801 
L 585.658707 169.01827 
L 586.193939 160.112294 
L 586.729171 144.225959 
L 587.264402 177.683544 
L 587.799634 175.035821 
L 588.334865 187.311626 
L 588.870097 203.197961 
L 589.405328 177.924246 
L 589.94056 185.867414 
L 590.475791 181.053373 
L 591.011023 160.593699 
L 591.546254 132.912963 
L 592.081486 163.000719 
L 592.616717 147.83649 
L 593.687181 184.904605 
L 594.222412 187.79303 
L 594.757644 150.002808 
L 595.292875 174.313715 
L 595.828107 165.889144 
L 596.363338 164.204229 
L 596.89857 143.263151 
L 597.433801 156.261062 
L 597.969033 204.882875 
L 598.504264 190.20005 
L 599.039496 155.779658 
L 599.574727 176.961438 
L 600.109959 157.22387 
L 600.64519 163.722825 
L 601.180422 154.335445 
L 601.715654 159.149486 
L 602.250885 156.983168 
L 602.786117 102.103101 
L 603.321348 161.315805 
L 603.85658 144.707363 
L 604.391811 167.574058 
L 604.927043 159.390188 
L 605.462274 174.073013 
L 605.997506 137.967706 
L 606.532737 199.58743 
L 607.067969 157.705274 
L 607.6032 169.258972 
L 608.138432 135.319983 
L 608.673663 156.983168 
L 609.208895 171.184589 
L 609.744127 168.536866 
L 610.279358 173.110205 
L 610.81459 154.335445 
L 611.349821 186.108116 
L 611.885053 167.574058 
L 612.420284 186.830222 
L 612.955516 144.466661 
L 613.490747 165.40774 
L 614.025979 139.171216 
L 614.56121 170.462483 
L 615.096442 99.936782 
L 615.631673 124.729093 
L 616.166905 195.014091 
L 616.702137 130.505943 
L 617.237368 166.61125 
L 617.7726 146.873682 
L 618.307831 141.578237 
L 618.843063 160.593699 
L 619.378294 135.560686 
L 619.913526 144.707363 
L 620.448757 117.748734 
L 620.983989 191.644263 
L 621.51922 176.480034 
L 622.054452 111.249779 
L 622.589683 183.701095 
L 623.124915 134.838579 
L 623.660146 177.683544 
L 624.195378 173.110205 
L 624.73061 172.388099 
L 625.265841 176.720736 
L 625.801073 150.002808 
L 626.336304 177.20214 
L 626.871536 160.112294 
L 627.406767 128.580326 
L 627.941999 172.388099 
L 628.47723 168.296164 
L 629.012462 187.311626 
L 629.547693 170.703185 
L 630.082925 172.388099 
L 630.618156 145.670172 
L 631.153388 183.941797 
L 631.688619 176.961438 
L 632.223851 176.961438 
L 632.759083 187.79303 
L 633.294314 157.945976 
L 634.364777 203.197961 
L 634.900009 153.372637 
L 635.43524 164.685633 
L 635.970472 158.668082 
L 636.505703 184.423201 
L 637.040935 124.006987 
L 637.576166 180.812671 
L 638.111398 153.131935 
L 638.646629 167.092654 
L 639.181861 169.01827 
L 639.717093 132.190857 
L 640.252324 134.116473 
L 640.787556 173.350907 
L 641.322787 172.869503 
L 641.858019 164.204229 
L 642.39325 184.904605 
L 642.928482 200.550239 
L 643.463713 174.554417 
L 644.534176 71.293239 
L 645.069408 175.99863 
L 645.604639 156.983168 
L 646.139871 164.204229 
L 646.675102 177.683544 
L 647.210334 159.871592 
L 647.745566 158.186678 
L 648.280797 153.131935 
L 648.816029 159.871592 
L 649.35126 136.764196 
L 649.886492 167.81476 
L 650.421723 169.740376 
L 650.956955 143.022449 
L 651.492186 156.501764 
L 652.027418 193.088475 
L 652.562649 172.147397 
L 653.097881 140.134024 
L 653.633112 195.495496 
L 654.168344 162.037911 
L 654.703575 175.035821 
L 655.238807 171.906695 
L 655.774039 178.40565 
L 656.30927 179.368458 
L 656.844502 191.403561 
L 657.379733 179.127756 
L 657.914965 134.357175 
L 658.450196 183.941797 
L 658.985428 149.762106 
L 659.520659 130.746645 
L 660.055891 183.941797 
L 660.591122 119.433648 
L 661.126354 152.891233 
L 661.661585 169.740376 
L 662.196817 153.372637 
L 662.732049 185.38601 
L 663.26728 147.83649 
L 663.802512 172.628801 
L 664.337743 145.42947 
L 664.872975 130.26524 
L 665.408206 147.355086 
L 665.943438 194.773389 
L 666.478669 161.797209 
L 667.013901 165.648442 
L 667.549132 166.129846 
L 668.084364 189.718646 
L 668.619595 162.760017 
L 669.154827 152.409829 
L 669.690058 155.057551 
L 670.22529 172.628801 
L 670.760522 147.83649 
L 671.295753 145.670172 
L 671.830985 168.777568 
L 672.366216 141.096833 
L 672.901448 191.644263 
L 673.436679 147.83649 
L 673.971911 189.237242 
L 674.507142 188.99654 
L 675.042374 161.075103 
L 675.577605 150.965617 
L 676.112837 100.658889 
L 676.648068 145.42947 
L 677.1833 148.077192 
L 677.718532 151.447021 
L 678.788995 162.760017 
L 679.324226 171.906695 
L 679.859458 137.967706 
L 680.394689 136.764196 
L 680.929921 129.302432 
L 681.465152 150.724915 
L 682.000384 152.169127 
L 682.535615 191.162859 
L 683.070847 172.147397 
L 683.606078 142.781747 
L 684.14131 144.466661 
L 684.676541 165.648442 
L 685.211773 175.276524 
L 685.747005 163.000719 
L 686.282236 161.315805 
L 686.817468 157.705274 
L 687.352699 132.672261 
L 687.887931 181.294075 
L 688.423162 184.663903 
L 688.958394 133.153665 
L 689.493625 152.169127 
L 689.493625 152.169127 
" clip-path="url(#pc0d44b38df)" style="fill: none; stroke: #4caf50; stroke-width: 1.5; stroke-linecap: square"/>
   </g>
   <g id="patch_6">
    <path d="M 409.059062 253.01125 
L 409.059062 62.64 
" style="fill: none; stroke: #000000; stroke-width: 0.8; stroke-linejoin: miter; stroke-linecap: square"/>
   </g>
   <g id="patch_7">
    <path d="M 409.059062 253.01125 
L 702.847652 253.01125 
" style="fill: none; stroke: #000000; stroke-width: 0.8; stroke-linejoin: miter; stroke-linecap: square"/>
   </g>
   <g id="text_33">
    <!-- Breakout -->
    <g transform="translate(525.696873 56.64) scale(0.13 -0.13)">
     <defs>
      <path id="DejaVuSerif-42" d="M 1581 331 
L 2516 331 
Q 3078 331 3337 575 
Q 3597 819 3597 1350 
Q 3597 1878 3339 2120 
Q 3081 2363 2516 2363 
L 1581 2363 
L 1581 331 
z
M 1581 2694 
L 2375 2694 
Q 2888 2694 3123 2891 
Q 3359 3088 3359 3513 
Q 3359 3941 3123 4136 
Q 2888 4331 2375 4331 
L 1581 4331 
L 1581 2694 
z
M 353 0 
L 353 331 
L 947 331 
L 947 4331 
L 353 4331 
L 353 4666 
L 2656 4666 
Q 3363 4666 3720 4377 
Q 4078 4088 4078 3513 
Q 4078 3097 3829 2850 
Q 3581 2603 3103 2547 
Q 3697 2472 4005 2167 
Q 4313 1863 4313 1350 
Q 4313 656 3875 328 
Q 3438 0 2509 0 
L 353 0 
z
" transform="scale(0.015625)"/>
      <path id="DejaVuSerif-75" d="M 2266 3322 
L 3341 3322 
L 3341 331 
L 3884 331 
L 3884 0 
L 2766 0 
L 2766 588 
Q 2606 256 2353 82 
Q 2100 -91 1766 -91 
Q 1213 -91 952 223 
Q 691 538 691 1209 
L 691 2988 
L 172 2988 
L 172 3322 
L 1269 3322 
L 1269 1388 
Q 1269 781 1417 556 
Q 1566 331 1947 331 
Q 2347 331 2556 625 
Q 2766 919 2766 1478 
L 2766 2988 
L 2266 2988 
L 2266 3322 
z
" transform="scale(0.015625)"/>
     </defs>
     <use xlink:href="#DejaVuSerif-42"/>
     <use xlink:href="#DejaVuSerif-72" x="73.486328"/>
     <use xlink:href="#DejaVuSerif-65" x="121.289062"/>
     <use xlink:href="#DejaVuSerif-61" x="180.46875"/>
     <use xlink:href="#DejaVuSerif-6b" x="240.087891"/>
     <use xlink:href="#DejaVuSerif-6f" x="300.683594"/>
     <use xlink:href="#DejaVuSerif-75" x="360.888672"/>
     <use xlink:href="#DejaVuSerif-74" x="425.292969"/>
    </g>
   </g>
  </g>
  <g id="axes_3">
   <g id="patch_8">
    <path d="M 761.259062 253.01125 
L 1055.047652 253.01125 
L 1055.047652 62.64 
L 761.259062 62.64 
z
" style="fill: #ffffff"/>
   </g>
   <g id="matplotlib.axis_5">
    <g id="xtick_13">
     <g id="line2d_30">
      <g>
       <use xlink:href="#ma77491dca2" x="774.077858" y="253.01125" style="stroke: #000000; stroke-width: 0.8"/>
      </g>
     </g>
     <g id="text_34">
      <!-- 0k -->
      <g transform="translate(767.86692 267.609688) scale(0.1 -0.1)">
       <use xlink:href="#DejaVuSerif-30"/>
       <use xlink:href="#DejaVuSerif-6b" x="63.623047"/>
      </g>
     </g>
    </g>
    <g id="xtick_14">
     <g id="line2d_31">
      <g>
       <use xlink:href="#ma77491dca2" x="827.601011" y="253.01125" style="stroke: #000000; stroke-width: 0.8"/>
      </g>
     </g>
     <g id="text_35">
      <!-- 1000k -->
      <g transform="translate(811.846324 267.609688) scale(0.1 -0.1)">
       <use xlink:href="#DejaVuSerif-31"/>
       <use xlink:href="#DejaVuSerif-30" x="63.623047"/>
       <use xlink:href="#DejaVuSerif-30" x="127.246094"/>
       <use xlink:href="#DejaVuSerif-30" x="190.869141"/>
       <use xlink:href="#DejaVuSerif-6b" x="254.492188"/>
      </g>
     </g>
    </g>
    <g id="xtick_15">
     <g id="line2d_32">
      <g>
       <use xlink:href="#ma77491dca2" x="881.124165" y="253.01125" style="stroke: #000000; stroke-width: 0.8"/>
      </g>
     </g>
     <g id="text_36">
      <!-- 2000k -->
      <g transform="translate(865.369477 267.609688) scale(0.1 -0.1)">
       <use xlink:href="#DejaVuSerif-32"/>
       <use xlink:href="#DejaVuSerif-30" x="63.623047"/>
       <use xlink:href="#DejaVuSerif-30" x="127.246094"/>
       <use xlink:href="#DejaVuSerif-30" x="190.869141"/>
       <use xlink:href="#DejaVuSerif-6b" x="254.492188"/>
      </g>
     </g>
    </g>
    <g id="xtick_16">
     <g id="line2d_33">
      <g>
       <use xlink:href="#ma77491dca2" x="934.647318" y="253.01125" style="stroke: #000000; stroke-width: 0.8"/>
      </g>
     </g>
     <g id="text_37">
      <!-- 3000k -->
      <g transform="translate(918.892631 267.609688) scale(0.1 -0.1)">
       <use xlink:href="#DejaVuSerif-33"/>
       <use xlink:href="#DejaVuSerif-30" x="63.623047"/>
       <use xlink:href="#DejaVuSerif-30" x="127.246094"/>
       <use xlink:href="#DejaVuSerif-30" x="190.869141"/>
       <use xlink:href="#DejaVuSerif-6b" x="254.492188"/>
      </g>
     </g>
    </g>
    <g id="xtick_17">
     <g id="line2d_34">
      <g>
       <use xlink:href="#ma77491dca2" x="988.170472" y="253.01125" style="stroke: #000000; stroke-width: 0.8"/>
      </g>
     </g>
     <g id="text_38">
      <!-- 4000k -->
      <g transform="translate(972.415784 267.609688) scale(0.1 -0.1)">
       <use xlink:href="#DejaVuSerif-34"/>
       <use xlink:href="#DejaVuSerif-30" x="63.623047"/>
       <use xlink:href="#DejaVuSerif-30" x="127.246094"/>
       <use xlink:href="#DejaVuSerif-30" x="190.869141"/>
       <use xlink:href="#DejaVuSerif-6b" x="254.492188"/>
      </g>
     </g>
    </g>
    <g id="xtick_18">
     <g id="line2d_35">
      <g>
       <use xlink:href="#ma77491dca2" x="1041.693625" y="253.01125" style="stroke: #000000; stroke-width: 0.8"/>
      </g>
     </g>
     <g id="text_39">
      <!-- 5000k -->
      <g transform="translate(1025.938938 267.609688) scale(0.1 -0.1)">
       <use xlink:href="#DejaVuSerif-35"/>
       <use xlink:href="#DejaVuSerif-30" x="63.623047"/>
       <use xlink:href="#DejaVuSerif-30" x="127.246094"/>
       <use xlink:href="#DejaVuSerif-30" x="190.869141"/>
       <use xlink:href="#DejaVuSerif-6b" x="254.492188"/>
      </g>
     </g>
    </g>
    <g id="text_40">
     <!-- Environment Steps -->
     <g transform="translate(849.83992 282.8075) scale(0.12 -0.12)">
      <use xlink:href="#DejaVuSerif-45"/>
      <use xlink:href="#DejaVuSerif-6e" x="72.998047"/>
      <use xlink:href="#DejaVuSerif-76" x="137.402344"/>
      <use xlink:href="#DejaVuSerif-69" x="193.896484"/>
      <use xlink:href="#DejaVuSerif-72" x="225.878906"/>
      <use xlink:href="#DejaVuSerif-6f" x="273.681641"/>
      <use xlink:href="#DejaVuSerif-6e" x="333.886719"/>
      <use xlink:href="#DejaVuSerif-6d" x="398.291016"/>
      <use xlink:href="#DejaVuSerif-65" x="493.115234"/>
      <use xlink:href="#DejaVuSerif-6e" x="552.294922"/>
      <use xlink:href="#DejaVuSerif-74" x="616.699219"/>
      <use xlink:href="#DejaVuSerif-20" x="656.884766"/>
      <use xlink:href="#DejaVuSerif-53" x="688.671875"/>
      <use xlink:href="#DejaVuSerif-74" x="757.177734"/>
      <use xlink:href="#DejaVuSerif-65" x="797.363281"/>
      <use xlink:href="#DejaVuSerif-70" x="856.542969"/>
      <use xlink:href="#DejaVuSerif-73" x="920.556641"/>
     </g>
    </g>
   </g>
   <g id="matplotlib.axis_6">
    <g id="ytick_16">
     <g id="line2d_36">
      <g>
       <use xlink:href="#m9c37275cc5" x="761.259062" y="224.257476" style="stroke: #000000; stroke-width: 0.8"/>
      </g>
     </g>
     <g id="text_41">
      <!-- 100 -->
      <g transform="translate(735.171562 228.056695) scale(0.1 -0.1)">
       <use xlink:href="#DejaVuSerif-31"/>
       <use xlink:href="#DejaVuSerif-30" x="63.623047"/>
       <use xlink:href="#DejaVuSerif-30" x="127.246094"/>
      </g>
     </g>
    </g>
    <g id="ytick_17">
     <g id="line2d_37">
      <g>
       <use xlink:href="#m9c37275cc5" x="761.259062" y="190.895592" style="stroke: #000000; stroke-width: 0.8"/>
      </g>
     </g>
     <g id="text_42">
      <!-- 200 -->
      <g transform="translate(735.171562 194.694811) scale(0.1 -0.1)">
       <use xlink:href="#DejaVuSerif-32"/>
       <use xlink:href="#DejaVuSerif-30" x="63.623047"/>
       <use xlink:href="#DejaVuSerif-30" x="127.246094"/>
      </g>
     </g>
    </g>
    <g id="ytick_18">
     <g id="line2d_38">
      <g>
       <use xlink:href="#m9c37275cc5" x="761.259062" y="157.533709" style="stroke: #000000; stroke-width: 0.8"/>
      </g>
     </g>
     <g id="text_43">
      <!-- 300 -->
      <g transform="translate(735.171562 161.332927) scale(0.1 -0.1)">
       <use xlink:href="#DejaVuSerif-33"/>
       <use xlink:href="#DejaVuSerif-30" x="63.623047"/>
       <use xlink:href="#DejaVuSerif-30" x="127.246094"/>
      </g>
     </g>
    </g>
    <g id="ytick_19">
     <g id="line2d_39">
      <g>
       <use xlink:href="#m9c37275cc5" x="761.259062" y="124.171825" style="stroke: #000000; stroke-width: 0.8"/>
      </g>
     </g>
     <g id="text_44">
      <!-- 400 -->
      <g transform="translate(735.171562 127.971043) scale(0.1 -0.1)">
       <use xlink:href="#DejaVuSerif-34"/>
       <use xlink:href="#DejaVuSerif-30" x="63.623047"/>
       <use xlink:href="#DejaVuSerif-30" x="127.246094"/>
      </g>
     </g>
    </g>
    <g id="ytick_20">
     <g id="line2d_40">
      <g>
       <use xlink:href="#m9c37275cc5" x="761.259062" y="90.809941" style="stroke: #000000; stroke-width: 0.8"/>
      </g>
     </g>
     <g id="text_45">
      <!-- 500 -->
      <g transform="translate(735.171562 94.609159) scale(0.1 -0.1)">
       <use xlink:href="#DejaVuSerif-35"/>
       <use xlink:href="#DejaVuSerif-30" x="63.623047"/>
       <use xlink:href="#DejaVuSerif-30" x="127.246094"/>
      </g>
     </g>
    </g>
    <g id="text_46">
     <!-- Mean Reward (20 ep) -->
     <g transform="translate(728.675937 223.882812) rotate(-90) scale(0.12 -0.12)">
      <use xlink:href="#DejaVuSerif-4d"/>
      <use xlink:href="#DejaVuSerif-65" x="102.392578"/>
      <use xlink:href="#DejaVuSerif-61" x="161.572266"/>
      <use xlink:href="#DejaVuSerif-6e" x="221.191406"/>
      <use xlink:href="#DejaVuSerif-20" x="285.595703"/>
      <use xlink:href="#DejaVuSerif-52" x="317.382812"/>
      <use xlink:href="#DejaVuSerif-65" x="392.675781"/>
      <use xlink:href="#DejaVuSerif-77" x="451.855469"/>
      <use xlink:href="#DejaVuSerif-61" x="537.451172"/>
      <use xlink:href="#DejaVuSerif-72" x="597.070312"/>
      <use xlink:href="#DejaVuSerif-64" x="644.873047"/>
      <use xlink:href="#DejaVuSerif-20" x="708.886719"/>
      <use xlink:href="#DejaVuSerif-28" x="740.673828"/>
      <use xlink:href="#DejaVuSerif-32" x="779.6875"/>
      <use xlink:href="#DejaVuSerif-30" x="843.310547"/>
      <use xlink:href="#DejaVuSerif-20" x="906.933594"/>
      <use xlink:href="#DejaVuSerif-65" x="938.720703"/>
      <use xlink:href="#DejaVuSerif-70" x="997.900391"/>
      <use xlink:href="#DejaVuSerif-29" x="1061.914062"/>
     </g>
    </g>
   </g>
   <g id="line2d_41">
    <path d="M 774.613089 244.358011 
L 775.148321 238.853301 
L 775.683552 235.517112 
L 776.218784 236.351159 
L 776.754015 234.266041 
L 777.289247 234.099232 
L 778.35971 239.437133 
L 778.894942 234.849874 
L 779.430173 236.351159 
L 779.965405 232.931566 
L 780.500636 225.425142 
L 781.035868 237.43542 
L 781.571099 216.083815 
L 782.106331 217.5851 
L 782.641562 229.595378 
L 783.176794 221.254907 
L 783.712025 223.923857 
L 784.247257 221.338311 
L 785.852952 230.34602 
L 786.388183 227.260046 
L 786.923415 222.923001 
L 787.458646 216.00041 
L 787.993878 223.25662 
L 788.529109 228.92814 
L 789.064341 225.758761 
L 789.599572 230.679639 
L 790.134804 209.411438 
L 790.670035 211.663365 
L 791.205267 203.573108 
L 791.740498 216.917862 
L 792.27573 219.086384 
L 792.810961 217.751909 
L 793.346193 197.901588 
L 793.881425 222.756192 
L 794.416656 185.474286 
L 794.951888 192.98071 
L 795.487119 211.246342 
L 796.022351 187.893023 
L 796.557582 172.546556 
L 797.628045 176.383173 
L 798.163277 189.561117 
L 798.698508 179.385742 
L 799.23374 164.206085 
L 799.768971 138.017006 
L 800.304203 143.605122 
L 800.839435 161.537135 
L 801.374666 162.621396 
L 801.909898 167.375464 
L 802.445129 176.633387 
L 802.980361 148.776214 
L 803.515592 129.843345 
L 804.050824 138.517435 
L 804.586055 131.678248 
L 805.121287 149.360047 
L 805.656518 132.178677 
L 806.19175 153.613687 
L 806.726981 136.932745 
L 807.262213 148.442595 
L 807.797444 116.081568 
L 808.332676 130.760797 
L 808.867908 134.096985 
L 809.403139 133.179533 
L 809.938371 161.45373 
L 810.473602 163.121824 
L 811.008834 147.942167 
L 811.544065 127.758227 
L 812.079297 165.373751 
L 813.14976 82.052446 
L 813.684991 90.97675 
L 814.220223 126.173538 
L 814.755454 109.409191 
L 815.290686 137.850197 
L 815.825917 95.146986 
L 816.361149 144.439169 
L 816.896381 119.83478 
L 817.431612 119.417756 
L 817.966844 137.182959 
L 818.502075 124.922467 
L 819.037307 128.842488 
L 819.572538 121.002446 
L 820.10777 91.810797 
L 820.643001 147.775357 
L 821.178233 119.000733 
L 821.713464 121.586279 
L 822.248696 152.362617 
L 822.783927 175.382316 
L 823.319159 141.520004 
L 823.854391 133.262938 
L 824.389622 89.809084 
L 824.924854 145.606835 
L 825.460085 140.435743 
L 825.995317 138.934458 
L 826.530548 108.408334 
L 827.601011 145.606835 
L 828.136243 121.836493 
L 828.671474 159.285207 
L 829.206706 118.4169 
L 829.741937 114.413474 
L 830.277169 136.932745 
L 830.8124 123.754801 
L 831.347632 106.490026 
L 831.882864 110.243238 
L 832.418095 131.17782 
L 832.953327 135.765079 
L 833.488558 122.837349 
L 834.02379 132.011867 
L 834.559021 128.675679 
L 835.094253 136.84934 
L 835.629484 111.410904 
L 836.164716 80.467757 
L 836.699947 116.331782 
L 837.235179 122.587135 
L 837.77041 111.494309 
L 838.305642 134.096985 
L 838.840874 106.073003 
L 839.376105 128.759084 
L 839.911337 103.821075 
L 840.446568 125.756514 
L 840.9818 133.513152 
L 841.517031 110.076429 
L 842.052263 108.908763 
L 842.587494 100.901911 
L 843.122726 107.407478 
L 843.657957 148.192381 
L 844.193189 119.250947 
L 844.72842 111.661118 
L 845.263652 113.662831 
L 845.798883 129.176107 
L 846.334115 105.989598 
L 846.869347 141.353195 
L 847.404578 132.845914 
L 847.93981 91.477178 
L 848.475041 101.569148 
L 849.010273 127.758227 
L 849.545504 83.637136 
L 850.080736 150.777927 
L 850.615967 107.073859 
L 851.151199 151.778784 
L 851.68643 125.005872 
L 852.221662 104.821932 
L 852.756893 157.116685 
L 853.292125 169.794201 
L 853.827356 145.440026 
L 854.362588 134.514009 
L 854.89782 160.703087 
L 855.968283 123.754801 
L 856.503514 101.819362 
L 857.038746 85.388635 
L 857.573977 128.842488 
L 858.109209 125.339491 
L 858.64444 119.918184 
L 859.179672 109.075572 
L 859.714903 91.310369 
L 860.250135 90.309512 
L 860.785366 95.23039 
L 861.320598 108.241525 
L 861.85583 71.293239 
L 862.391061 111.327499 
L 862.926293 113.99645 
L 863.461524 119.83478 
L 863.996756 100.318078 
L 864.531987 110.743666 
L 865.067219 135.931889 
L 865.60245 137.516578 
L 866.672913 149.777071 
L 867.208145 104.821932 
L 867.743376 124.171825 
L 868.278608 156.532852 
L 868.813839 119.000733 
L 869.884303 149.777071 
L 870.419534 156.449447 
L 870.954766 120.168399 
L 871.489997 99.233816 
L 872.025229 125.172681 
L 872.56046 112.995594 
L 873.095692 109.075572 
L 873.630923 108.408334 
L 874.166155 144.022146 
L 874.701386 149.94388 
L 875.236618 115.831354 
L 875.771849 132.262081 
L 876.842312 85.221825 
L 877.912776 97.398913 
L 878.448007 107.574287 
L 878.983239 148.776214 
L 880.053702 113.329212 
L 880.588933 109.075572 
L 881.124165 103.153838 
L 881.659396 130.677392 
L 882.194628 113.579426 
L 883.265091 91.727393 
L 883.800322 107.240669 
L 884.335554 97.649127 
L 884.870786 129.75994 
L 885.406017 116.748805 
L 885.941249 90.142703 
L 886.47648 116.248377 
L 887.011712 149.443452 
L 887.546943 139.184672 
L 888.082175 87.390348 
L 888.617406 138.267221 
L 889.152638 118.333495 
L 889.687869 131.845058 
L 890.223101 116.99902 
L 890.758332 125.756514 
L 891.293564 131.428034 
L 891.828795 97.398913 
L 892.364027 99.817649 
L 892.899259 100.818506 
L 893.43449 131.17782 
L 893.969722 108.908763 
L 894.504953 123.254373 
L 895.040185 167.375464 
L 895.575416 118.583709 
L 896.110648 128.091846 
L 896.645879 119.167542 
L 897.181111 143.188098 
L 897.716342 146.857906 
L 898.251574 118.833923 
L 898.786805 142.270647 
L 899.322037 118.583709 
L 900.3925 127.591418 
L 900.927732 135.097842 
L 901.462963 147.191525 
L 901.998195 118.083281 
L 902.533426 148.776214 
L 903.068658 143.104694 
L 903.603889 126.340347 
L 904.139121 134.347199 
L 904.674352 181.63767 
L 905.744815 106.490026 
L 906.280047 134.01358 
L 906.815278 127.925037 
L 907.35051 139.685101 
L 907.885742 104.238099 
L 908.420973 98.06615 
L 908.956205 146.023859 
L 909.491436 155.281781 
L 910.026668 142.103837 
L 910.561899 158.45116 
L 911.097131 164.956728 
L 911.632362 122.336921 
L 912.167594 139.601696 
L 912.702825 108.992167 
L 913.238057 90.97675 
L 913.773288 155.6154 
L 914.30852 112.57857 
L 914.843751 118.917328 
L 915.378983 133.179533 
L 916.449446 104.738527 
L 916.984678 96.398056 
L 917.519909 120.919041 
L 918.055141 125.839919 
L 918.590372 113.412617 
L 919.125604 117.165829 
L 919.660835 115.914758 
L 920.196067 109.74281 
L 920.731298 132.178677 
L 921.26653 111.577713 
L 921.801761 108.241525 
L 922.336993 105.822788 
L 922.872224 106.90705 
L 923.407456 93.97932 
L 923.942688 129.176107 
L 924.477919 148.526 
L 925.013151 127.925037 
L 925.548382 158.784779 
L 926.083614 109.409191 
L 926.618845 130.677392 
L 927.154077 143.605122 
L 927.689308 137.01615 
L 928.22454 119.084137 
L 928.759771 123.421182 
L 929.295003 146.94131 
L 929.830234 116.331782 
L 930.365466 124.505443 
L 930.900698 103.821075 
L 931.435929 106.90705 
L 931.971161 133.679962 
L 933.041624 122.336921 
L 933.576855 112.495165 
L 934.112087 149.860475 
L 934.647318 121.25266 
L 935.18255 118.166686 
L 935.717781 127.257799 
L 936.253013 104.238099 
L 936.788244 128.50887 
L 937.323476 128.675679 
L 938.393939 117.165829 
L 938.929171 135.765079 
L 939.464402 140.852767 
L 939.999634 149.860475 
L 940.534865 128.592274 
L 941.070097 152.362617 
L 941.605328 128.50887 
L 942.14056 124.505443 
L 942.675791 148.275786 
L 943.746254 104.738527 
L 944.281486 105.989598 
L 944.816717 108.575144 
L 945.351949 124.839062 
L 945.887181 126.840775 
L 946.422412 105.155551 
L 946.957644 93.645701 
L 947.492875 136.348912 
L 948.028107 123.004159 
L 948.563338 132.095272 
L 949.09857 124.505443 
L 949.633801 105.072146 
L 950.169033 106.656836 
L 950.704264 103.737671 
L 951.239496 101.735958 
L 951.774727 116.248377 
L 952.309959 90.226108 
L 952.84519 132.262081 
L 953.380422 138.350625 
L 953.915654 170.461439 
L 954.450885 129.593131 
L 954.986117 145.440026 
L 955.521348 86.389491 
L 956.05658 137.349769 
L 956.591811 92.811654 
L 957.127043 137.599983 
L 957.662274 137.266364 
L 958.197506 129.342917 
L 958.732737 145.440026 
L 959.267969 144.439169 
L 959.8032 130.844201 
L 960.338432 149.693666 
L 960.873663 156.115828 
L 961.408895 148.442595 
L 961.944127 122.50373 
L 962.479358 86.973324 
L 963.01459 80.300947 
L 964.085053 131.428034 
L 964.620284 173.547413 
L 965.155516 133.513152 
L 965.690747 114.496878 
L 966.225979 126.340347 
L 966.76121 141.019576 
L 967.296442 122.587135 
L 967.831673 122.753945 
L 968.366905 112.161546 
L 968.902137 140.685957 
L 969.437368 141.937028 
L 969.9726 94.479748 
L 970.507831 73.294952 
L 971.043063 144.939597 
L 971.578294 96.564866 
L 972.113526 114.246664 
L 972.648757 115.831354 
L 973.183989 90.809941 
L 973.71922 133.513152 
L 974.254452 87.807371 
L 974.789683 125.756514 
L 975.324915 109.325786 
L 975.860146 103.737671 
L 976.395378 125.256086 
L 976.93061 123.754801 
L 977.465841 112.912189 
L 978.001073 97.065294 
L 978.536304 103.404052 
L 979.071536 125.589705 
L 979.606767 123.838206 
L 980.141999 95.3972 
L 980.67723 91.977607 
L 981.212462 118.25009 
L 981.747693 122.170112 
L 982.282925 109.576 
L 982.818156 120.668827 
L 983.353388 106.90705 
L 983.888619 104.821932 
L 984.423851 111.827928 
L 984.959083 95.146986 
L 985.494314 85.722253 
L 986.029546 129.676535 
L 986.564777 123.587992 
L 987.100009 132.929319 
L 987.63524 98.23296 
L 988.170472 102.4866 
L 988.705703 123.504587 
L 989.240935 109.659405 
L 990.311398 140.185529 
L 990.846629 111.410904 
L 991.381861 89.475465 
L 991.917093 136.599126 
L 992.452324 118.333495 
L 992.987556 108.15812 
L 994.058019 145.606835 
L 994.59325 109.409191 
L 995.128482 102.820219 
L 995.663713 148.859619 
L 996.198945 115.080711 
L 996.734176 155.365186 
L 997.269408 135.848484 
L 997.804639 153.863901 
L 998.339871 118.750518 
L 998.875102 106.156407 
L 999.410334 122.920754 
L 999.945566 112.495165 
L 1000.480797 117.249234 
L 1001.016029 90.226108 
L 1001.55126 104.321504 
L 1002.086492 131.845058 
L 1002.621723 119.250947 
L 1003.156955 132.345486 
L 1003.692186 135.681675 
L 1004.227418 99.734245 
L 1004.762649 145.857049 
L 1005.297881 130.010154 
L 1005.833112 120.752232 
L 1006.368344 100.401482 
L 1006.903575 124.255229 
L 1007.438807 102.236386 
L 1007.974039 119.334351 
L 1008.50927 106.656836 
L 1009.044502 123.92161 
L 1009.579733 111.410904 
L 1010.114965 105.989598 
L 1010.650196 114.163259 
L 1011.185428 119.83478 
L 1011.720659 103.654266 
L 1012.255891 113.412617 
L 1012.791122 132.345486 
L 1013.326354 118.500304 
L 1013.861585 127.758227 
L 1014.396817 120.001589 
L 1014.932049 88.558014 
L 1015.46728 110.576857 
L 1016.002512 122.336921 
L 1017.072975 106.490026 
L 1017.608206 108.741953 
L 1018.143438 101.318934 
L 1018.678669 100.067863 
L 1019.213901 133.930176 
L 1019.749132 145.606835 
L 1020.284364 96.481461 
L 1020.819595 170.211224 
L 1021.354827 152.195807 
L 1022.42529 101.902767 
L 1022.960522 109.576 
L 1023.495753 187.559404 
L 1024.030985 125.339491 
L 1024.566216 113.078998 
L 1025.101448 130.593987 
L 1025.636679 101.902767 
L 1026.171911 82.969898 
L 1026.707142 102.403195 
L 1027.242374 131.928463 
L 1028.312837 98.900198 
L 1028.848068 92.895058 
L 1029.3833 128.759084 
L 1029.918532 82.135851 
L 1030.453763 153.863901 
L 1030.988995 112.995594 
L 1031.524226 97.982746 
L 1032.059458 128.008441 
L 1033.129921 113.579426 
L 1033.665152 97.899341 
L 1034.200384 135.014437 
L 1034.735615 114.163259 
L 1035.270847 118.4169 
L 1035.806078 112.828784 
L 1036.34131 116.99902 
L 1036.876541 156.783066 
L 1037.947005 107.407478 
L 1038.482236 89.809084 
L 1039.017468 113.662831 
L 1039.552699 116.331782 
L 1040.087931 140.435743 
L 1040.623162 115.247521 
L 1041.158394 80.134138 
L 1041.693625 100.151268 
L 1041.693625 100.151268 
" clip-path="url(#p13d18c0690)" style="fill: none; stroke: #f44336; stroke-width: 1.5; stroke-linecap: square"/>
   </g>
   <g id="patch_9">
    <path d="M 761.259062 253.01125 
L 761.259062 62.64 
" style="fill: none; stroke: #000000; stroke-width: 0.8; stroke-linejoin: miter; stroke-linecap: square"/>
   </g>
   <g id="patch_10">
    <path d="M 761.259062 253.01125 
L 1055.047652 253.01125 
" style="fill: none; stroke: #000000; stroke-width: 0.8; stroke-linejoin: miter; stroke-linecap: square"/>
   </g>
   <g id="text_47">
    <!-- SpaceInvaders -->
    <g transform="translate(859.424685 56.64) scale(0.13 -0.13)">
     <defs>
      <path id="DejaVuSerif-63" d="M 3291 997 
Q 3169 466 2822 187 
Q 2475 -91 1925 -91 
Q 1200 -91 759 389 
Q 319 869 319 1663 
Q 319 2459 759 2936 
Q 1200 3413 1925 3413 
Q 2241 3413 2553 3339 
Q 2866 3266 3181 3116 
L 3181 2266 
L 2847 2266 
Q 2781 2703 2561 2903 
Q 2341 3103 1931 3103 
Q 1466 3103 1228 2742 
Q 991 2381 991 1663 
Q 991 944 1227 581 
Q 1463 219 1931 219 
Q 2303 219 2525 412 
Q 2747 606 2828 997 
L 3291 997 
z
" transform="scale(0.015625)"/>
      <path id="DejaVuSerif-49" d="M 1581 331 
L 2175 331 
L 2175 0 
L 353 0 
L 353 331 
L 947 331 
L 947 4331 
L 353 4331 
L 353 4666 
L 2175 4666 
L 2175 4331 
L 1581 4331 
L 1581 331 
z
" transform="scale(0.015625)"/>
     </defs>
     <use xlink:href="#DejaVuSerif-53"/>
     <use xlink:href="#DejaVuSerif-70" x="68.505859"/>
     <use xlink:href="#DejaVuSerif-61" x="132.519531"/>
     <use xlink:href="#DejaVuSerif-63" x="192.138672"/>
     <use xlink:href="#DejaVuSerif-65" x="248.144531"/>
     <use xlink:href="#DejaVuSerif-49" x="307.324219"/>
     <use xlink:href="#DejaVuSerif-6e" x="346.826172"/>
     <use xlink:href="#DejaVuSerif-76" x="411.230469"/>
     <use xlink:href="#DejaVuSerif-61" x="467.724609"/>
     <use xlink:href="#DejaVuSerif-64" x="527.34375"/>
     <use xlink:href="#DejaVuSerif-65" x="591.357422"/>
     <use xlink:href="#DejaVuSerif-72" x="650.537109"/>
     <use xlink:href="#DejaVuSerif-73" x="698.339844"/>
    </g>
   </g>
  </g>
  <g id="text_48">
   <!-- Local Agent Training Curves -->
   <g transform="translate(429.5675 14.237813) scale(0.14 -0.14)">
    <defs>
     <path id="DejaVuSerif-4c" d="M 353 0 
L 353 331 
L 947 331 
L 947 4331 
L 353 4331 
L 353 4666 
L 2175 4666 
L 2175 4331 
L 1581 4331 
L 1581 384 
L 3713 384 
L 3713 1166 
L 4097 1166 
L 4097 0 
L 353 0 
z
" transform="scale(0.015625)"/>
     <path id="DejaVuSerif-6c" d="M 1313 331 
L 1856 331 
L 1856 0 
L 184 0 
L 184 331 
L 738 331 
L 738 4531 
L 184 4531 
L 184 4863 
L 1313 4863 
L 1313 331 
z
" transform="scale(0.015625)"/>
     <path id="DejaVuSerif-41" d="M 1281 1691 
L 2994 1691 
L 2138 3909 
L 1281 1691 
z
M -38 0 
L -38 331 
L 372 331 
L 2034 4666 
L 2559 4666 
L 4225 331 
L 4684 331 
L 4684 0 
L 2988 0 
L 2988 331 
L 3506 331 
L 3116 1356 
L 1153 1356 
L 763 331 
L 1275 331 
L 1275 0 
L -38 0 
z
" transform="scale(0.015625)"/>
     <path id="DejaVuSerif-54" d="M 1222 0 
L 1222 331 
L 1819 331 
L 1819 4294 
L 447 4294 
L 447 3566 
L 63 3566 
L 63 4666 
L 4206 4666 
L 4206 3566 
L 3822 3566 
L 3822 4294 
L 2450 4294 
L 2450 331 
L 3047 331 
L 3047 0 
L 1222 0 
z
" transform="scale(0.015625)"/>
     <path id="DejaVuSerif-43" d="M 4513 1234 
Q 4306 581 3820 245 
Q 3334 -91 2591 -91 
Q 2134 -91 1743 65 
Q 1353 222 1050 525 
Q 700 875 529 1320 
Q 359 1766 359 2328 
Q 359 3416 987 4083 
Q 1616 4750 2644 4750 
Q 3025 4750 3456 4650 
Q 3888 4550 4384 4347 
L 4384 3272 
L 4031 3272 
Q 3916 3859 3567 4137 
Q 3219 4416 2591 4416 
Q 1844 4416 1459 3886 
Q 1075 3356 1075 2328 
Q 1075 1303 1459 773 
Q 1844 244 2591 244 
Q 3113 244 3450 492 
Q 3788 741 3938 1234 
L 4513 1234 
z
" transform="scale(0.015625)"/>
    </defs>
    <use xlink:href="#DejaVuSerif-4c"/>
    <use xlink:href="#DejaVuSerif-6f" x="66.40625"/>
    <use xlink:href="#DejaVuSerif-63" x="126.611328"/>
    <use xlink:href="#DejaVuSerif-61" x="182.617188"/>
    <use xlink:href="#DejaVuSerif-6c" x="242.236328"/>
    <use xlink:href="#DejaVuSerif-20" x="274.21875"/>
    <use xlink:href="#DejaVuSerif-41" x="306.005859"/>
    <use xlink:href="#DejaVuSerif-67" x="378.222656"/>
    <use xlink:href="#DejaVuSerif-65" x="442.236328"/>
    <use xlink:href="#DejaVuSerif-6e" x="501.416016"/>
    <use xlink:href="#DejaVuSerif-74" x="565.820312"/>
    <use xlink:href="#DejaVuSerif-20" x="606.005859"/>
    <use xlink:href="#DejaVuSerif-54" x="637.792969"/>
    <use xlink:href="#DejaVuSerif-72" x="704.492188"/>
    <use xlink:href="#DejaVuSerif-61" x="752.294922"/>
    <use xlink:href="#DejaVuSerif-69" x="811.914062"/>
    <use xlink:href="#DejaVuSerif-6e" x="843.896484"/>
    <use xlink:href="#DejaVuSerif-69" x="908.300781"/>
    <use xlink:href="#DejaVuSerif-6e" x="940.283203"/>
    <use xlink:href="#DejaVuSerif-67" x="1004.6875"/>
    <use xlink:href="#DejaVuSerif-20" x="1068.701172"/>
    <use xlink:href="#DejaVuSerif-43" x="1100.488281"/>
    <use xlink:href="#DejaVuSerif-75" x="1177.001953"/>
    <use xlink:href="#DejaVuSerif-72" x="1241.40625"/>
    <use xlink:href="#DejaVuSerif-76" x="1289.208984"/>
    <use xlink:href="#DejaVuSerif-65" x="1345.703125"/>
    <use xlink:href="#DejaVuSerif-73" x="1404.882812"/>
   </g>
  </g>
 </g>
 <defs>
  <clipPath id="p9054585854">
   <rect x="56.859063" y="62.64" width="293.78859" height="190.37125"/>
  </clipPath>
  <clipPath id="pc0d44b38df">
   <rect x="409.059062" y="62.64" width="293.78859" height="190.37125"/>
  </clipPath>
  <clipPath id="p13d18c0690">
   <rect x="761.259062" y="62.64" width="293.78859" height="190.37125"/>
  </clipPath>
 </defs>
</svg>
