<?xml version="1.0" encoding="utf-8" standalone="no"?>
<!DOCTYPE svg PUBLIC "-//W3C//DTD SVG 1.1//EN"
  "http://www.w3.org/Graphics/SVG/1.1/DTD/svg11.dtd">
<svg xmlns:xlink="http://www.w3.org/1999/xlink" width="1061.048313pt" height="288.903125pt" viewBox="0 0 1061.048313 288.903125" xmlns="http://www.w3.org/2000/svg" version="1.1">
 <metadata>
  <rdf:RDF xmlns:dc="http://purl.org/dc/elements/1.1/" xmlns:cc="http://creativecommons.org/ns#" xmlns:rdf="http://www.w3.org/1999/02/22-rdf-syntax-ns#">
   <cc:Work>
    <dc:type rdf:resource="http://purl.org/dc/dcmitype/StillImage"/>
    <dc:date>2026-02-13T11:52:50.914023</dc:date>
    <dc:format>image/svg+xml</dc:format>
    <dc:creator>
     <cc:Agent>
      <dc:title>Matplotlib v3.8.0, https://matplotlib.org/</dc:title>
     </cc:Agent>
    </dc:creator>
   </cc:Work>
  </rdf:RDF>
 </metadata>
 <defs>
  <style type="text/css">*{stroke-linejoin: round; stroke-linecap: butt}</style>
 </defs>
 <g id="figure_1">
  <g id="patch_1">
   <path d="M 0 288.903125 
L 1061.048313 288.903125 
L 1061.048313 0 
L 0 0 
z
" style="fill: #ffffff"/>
  </g>
  <g id="axes_1">
   <g id="patch_2">
    <path d="M 56.859063 253.01125 
L 350.647652 253.01125 
L 350.647652 62.64 
L 56.859063 62.64 
z
" style="fill: #ffffff"/>
   </g>
   <g id="matplotlib.axis_1">
    <g id="xtick_1">
     <g id="line2d_1">
      <defs>
       <path id="m0287a4ac0a" d="M 0 0 
L 0 3.5 
" style="stroke: #000000; stroke-width: 0.8"/>
      </defs>
      <g>
       <use xlink:href="#m0287a4ac0a" x="69.677858" y="253.01125" style="stroke: #000000; stroke-width: 0.8"/>
      </g>
     </g>
     <g id="text_1">
      <!-- 0k -->
      <g transform="translate(63.46692 267.609688) scale(0.1 -0.1)">
       <defs>
        <path id="DejaVuSerif-30" d="M 2034 219 
Q 2513 219 2750 744 
Q 2988 1269 2988 2328 
Q 2988 3391 2750 3916 
Q 2513 4441 2034 4441 
Q 1556 4441 1318 3916 
Q 1081 3391 1081 2328 
Q 1081 1269 1318 744 
Q 1556 219 2034 219 
z
M 2034 -91 
Q 1275 -91 848 546 
Q 422 1184 422 2328 
Q 422 3475 848 4112 
Q 1275 4750 2034 4750 
Q 2797 4750 3222 4112 
Q 3647 3475 3647 2328 
Q 3647 1184 3222 546 
Q 2797 -91 2034 -91 
z
" transform="scale(0.015625)"/>
        <path id="DejaVuSerif-6b" d="M 1831 0 
L 219 0 
L 219 331 
L 738 331 
L 738 4531 
L 184 4531 
L 184 4863 
L 1313 4863 
L 1313 1697 
L 2713 2988 
L 2234 2988 
L 2234 3322 
L 3738 3322 
L 3738 2988 
L 3169 2988 
L 2181 2075 
L 3444 331 
L 3922 331 
L 3922 0 
L 2284 0 
L 2284 331 
L 2759 331 
L 1766 1697 
L 1313 1275 
L 1313 331 
L 1831 331 
L 1831 0 
z
" transform="scale(0.015625)"/>
       </defs>
       <use xlink:href="#DejaVuSerif-30"/>
       <use xlink:href="#DejaVuSerif-6b" x="63.623047"/>
      </g>
     </g>
    </g>
    <g id="xtick_2">
     <g id="line2d_2">
      <g>
       <use xlink:href="#m0287a4ac0a" x="123.201011" y="253.01125" style="stroke: #000000; stroke-width: 0.8"/>
      </g>
     </g>
     <g id="text_2">
      <!-- 1000k -->
      <g transform="translate(107.446324 267.609688) scale(0.1 -0.1)">
       <defs>
        <path id="DejaVuSerif-31" d="M 909 0 
L 909 331 
L 1722 331 
L 1722 4213 
L 781 3603 
L 781 4013 
L 1919 4750 
L 2350 4750 
L 2350 331 
L 3163 331 
L 3163 0 
L 909 0 
z
" transform="scale(0.015625)"/>
       </defs>
       <use xlink:href="#DejaVuSerif-31"/>
       <use xlink:href="#DejaVuSerif-30" x="63.623047"/>
       <use xlink:href="#DejaVuSerif-30" x="127.246094"/>
       <use xlink:href="#DejaVuSerif-30" x="190.869141"/>
       <use xlink:href="#DejaVuSerif-6b" x="254.492188"/>
      </g>
     </g>
    </g>
    <g id="xtick_3">
     <g id="line2d_3">
      <g>
       <use xlink:href="#m0287a4ac0a" x="176.724165" y="253.01125" style="stroke: #000000; stroke-width: 0.8"/>
      </g>
     </g>
     <g id="text_3">
      <!-- 2000k -->
      <g transform="translate(160.969477 267.609688) scale(0.1 -0.1)">
       <defs>
        <path id="DejaVuSerif-32" d="M 819 3553 
L 469 3553 
L 469 4384 
Q 803 4563 1142 4656 
Q 1481 4750 1806 4750 
Q 2534 4750 2956 4397 
Q 3378 4044 3378 3438 
Q 3378 2753 2422 1800 
Q 2347 1728 2309 1691 
L 1131 513 
L 3078 513 
L 3078 1088 
L 3444 1088 
L 3444 0 
L 434 0 
L 434 341 
L 1850 1753 
Q 2319 2222 2519 2614 
Q 2719 3006 2719 3438 
Q 2719 3909 2473 4175 
Q 2228 4441 1797 4441 
Q 1350 4441 1106 4219 
Q 863 3997 819 3553 
z
" transform="scale(0.015625)"/>
       </defs>
       <use xlink:href="#DejaVuSerif-32"/>
       <use xlink:href="#DejaVuSerif-30" x="63.623047"/>
       <use xlink:href="#DejaVuSerif-30" x="127.246094"/>
       <use xlink:href="#DejaVuSerif-30" x="190.869141"/>
       <use xlink:href="#DejaVuSerif-6b" x="254.492188"/>
      </g>
     </g>
    </g>
    <g id="xtick_4">
     <g id="line2d_4">
      <g>
       <use xlink:href="#m0287a4ac0a" x="230.247318" y="253.01125" style="stroke: #000000; stroke-width: 0.8"/>
      </g>
     </g>
     <g id="text_4">
      <!-- 3000k -->
      <g transform="translate(214.492631 267.609688) scale(0.1 -0.1)">
       <defs>
        <path id="DejaVuSerif-33" d="M 622 4469 
Q 988 4606 1323 4678 
Q 1659 4750 1953 4750 
Q 2638 4750 3022 4454 
Q 3406 4159 3406 3634 
Q 3406 3213 3140 2930 
Q 2875 2647 2388 2547 
Q 2963 2466 3280 2130 
Q 3597 1794 3597 1259 
Q 3597 606 3158 257 
Q 2719 -91 1894 -91 
Q 1528 -91 1179 -12 
Q 831 66 488 225 
L 488 1131 
L 838 1131 
Q 869 681 1141 450 
Q 1413 219 1906 219 
Q 2384 219 2661 495 
Q 2938 772 2938 1253 
Q 2938 1803 2653 2086 
Q 2369 2369 1819 2369 
L 1522 2369 
L 1522 2688 
L 1678 2688 
Q 2225 2688 2498 2914 
Q 2772 3141 2772 3597 
Q 2772 4006 2547 4223 
Q 2322 4441 1900 4441 
Q 1478 4441 1245 4241 
Q 1013 4041 972 3647 
L 622 3647 
L 622 4469 
z
" transform="scale(0.015625)"/>
       </defs>
       <use xlink:href="#DejaVuSerif-33"/>
       <use xlink:href="#DejaVuSerif-30" x="63.623047"/>
       <use xlink:href="#DejaVuSerif-30" x="127.246094"/>
       <use xlink:href="#DejaVuSerif-30" x="190.869141"/>
       <use xlink:href="#DejaVuSerif-6b" x="254.492188"/>
      </g>
     </g>
    </g>
    <g id="xtick_5">
     <g id="line2d_5">
      <g>
       <use xlink:href="#m0287a4ac0a" x="283.770472" y="253.01125" style="stroke: #000000; stroke-width: 0.8"/>
      </g>
     </g>
     <g id="text_5">
      <!-- 4000k -->
      <g transform="translate(268.015784 267.609688) scale(0.1 -0.1)">
       <defs>
        <path id="DejaVuSerif-34" d="M 2234 1581 
L 2234 4063 
L 641 1581 
L 2234 1581 
z
M 3609 0 
L 1484 0 
L 1484 331 
L 2234 331 
L 2234 1247 
L 197 1247 
L 197 1588 
L 2241 4750 
L 2859 4750 
L 2859 1581 
L 3750 1581 
L 3750 1247 
L 2859 1247 
L 2859 331 
L 3609 331 
L 3609 0 
z
" transform="scale(0.015625)"/>
       </defs>
       <use xlink:href="#DejaVuSerif-34"/>
       <use xlink:href="#DejaVuSerif-30" x="63.623047"/>
       <use xlink:href="#DejaVuSerif-30" x="127.246094"/>
       <use xlink:href="#DejaVuSerif-30" x="190.869141"/>
       <use xlink:href="#DejaVuSerif-6b" x="254.492188"/>
      </g>
     </g>
    </g>
    <g id="xtick_6">
     <g id="line2d_6">
      <g>
       <use xlink:href="#m0287a4ac0a" x="337.293625" y="253.01125" style="stroke: #000000; stroke-width: 0.8"/>
      </g>
     </g>
     <g id="text_6">
      <!-- 5000k -->
      <g transform="translate(321.538938 267.609688) scale(0.1 -0.1)">
       <defs>
        <path id="DejaVuSerif-35" d="M 3219 4666 
L 3219 4153 
L 1081 4153 
L 1081 2816 
Q 1244 2928 1461 2984 
Q 1678 3041 1947 3041 
Q 2703 3041 3140 2622 
Q 3578 2203 3578 1478 
Q 3578 738 3136 323 
Q 2694 -91 1894 -91 
Q 1572 -91 1234 -12 
Q 897 66 544 225 
L 544 1131 
L 897 1131 
Q 925 688 1179 453 
Q 1434 219 1894 219 
Q 2388 219 2653 544 
Q 2919 869 2919 1478 
Q 2919 2084 2655 2407 
Q 2391 2731 1894 2731 
Q 1613 2731 1398 2631 
Q 1184 2531 1019 2322 
L 750 2322 
L 750 4666 
L 3219 4666 
z
" transform="scale(0.015625)"/>
       </defs>
       <use xlink:href="#DejaVuSerif-35"/>
       <use xlink:href="#DejaVuSerif-30" x="63.623047"/>
       <use xlink:href="#DejaVuSerif-30" x="127.246094"/>
       <use xlink:href="#DejaVuSerif-30" x="190.869141"/>
       <use xlink:href="#DejaVuSerif-6b" x="254.492188"/>
      </g>
     </g>
    </g>
    <g id="text_7">
     <!-- Environment Steps -->
     <g transform="translate(145.43992 282.8075) scale(0.12 -0.12)">
      <defs>
       <path id="DejaVuSerif-45" d="M 353 0 
L 353 331 
L 947 331 
L 947 4331 
L 353 4331 
L 353 4666 
L 4109 4666 
L 4109 3628 
L 3725 3628 
L 3725 4281 
L 1581 4281 
L 1581 2719 
L 3109 2719 
L 3109 3303 
L 3494 3303 
L 3494 1753 
L 3109 1753 
L 3109 2338 
L 1581 2338 
L 1581 384 
L 3775 384 
L 3775 1038 
L 4159 1038 
L 4159 0 
L 353 0 
z
" transform="scale(0.015625)"/>
       <path id="DejaVuSerif-6e" d="M 263 0 
L 263 331 
L 781 331 
L 781 2988 
L 231 2988 
L 231 3322 
L 1356 3322 
L 1356 2731 
Q 1516 3069 1770 3241 
Q 2025 3413 2363 3413 
Q 2913 3413 3172 3097 
Q 3431 2781 3431 2113 
L 3431 331 
L 3944 331 
L 3944 0 
L 2356 0 
L 2356 331 
L 2853 331 
L 2853 1931 
Q 2853 2541 2703 2767 
Q 2553 2994 2175 2994 
Q 1775 2994 1565 2701 
Q 1356 2409 1356 1850 
L 1356 331 
L 1856 331 
L 1856 0 
L 263 0 
z
" transform="scale(0.015625)"/>
       <path id="DejaVuSerif-76" d="M 1581 0 
L 359 2988 
L -19 2988 
L -19 3322 
L 1509 3322 
L 1509 2988 
L 978 2988 
L 1913 703 
L 2847 2988 
L 2350 2988 
L 2350 3322 
L 3597 3322 
L 3597 2988 
L 3225 2988 
L 2003 0 
L 1581 0 
z
" transform="scale(0.015625)"/>
       <path id="DejaVuSerif-69" d="M 622 4353 
Q 622 4497 726 4603 
Q 831 4709 978 4709 
Q 1122 4709 1226 4603 
Q 1331 4497 1331 4353 
Q 1331 4206 1228 4103 
Q 1125 4000 978 4000 
Q 831 4000 726 4103 
Q 622 4206 622 4353 
z
M 1356 331 
L 1900 331 
L 1900 0 
L 231 0 
L 231 331 
L 781 331 
L 781 2988 
L 231 2988 
L 231 3322 
L 1356 3322 
L 1356 331 
z
" transform="scale(0.015625)"/>
       <path id="DejaVuSerif-72" d="M 3059 3328 
L 3059 2497 
L 2728 2497 
Q 2713 2744 2591 2866 
Q 2469 2988 2234 2988 
Q 1809 2988 1582 2694 
Q 1356 2400 1356 1850 
L 1356 331 
L 2022 331 
L 2022 0 
L 263 0 
L 263 331 
L 781 331 
L 781 2994 
L 231 2994 
L 231 3322 
L 1356 3322 
L 1356 2731 
Q 1525 3078 1790 3245 
Q 2056 3413 2438 3413 
Q 2578 3413 2733 3391 
Q 2888 3369 3059 3328 
z
" transform="scale(0.015625)"/>
       <path id="DejaVuSerif-6f" d="M 1925 219 
Q 2388 219 2623 584 
Q 2859 950 2859 1663 
Q 2859 2375 2623 2739 
Q 2388 3103 1925 3103 
Q 1463 3103 1227 2739 
Q 991 2375 991 1663 
Q 991 950 1228 584 
Q 1466 219 1925 219 
z
M 1925 -91 
Q 1200 -91 759 389 
Q 319 869 319 1663 
Q 319 2456 758 2934 
Q 1197 3413 1925 3413 
Q 2653 3413 3092 2934 
Q 3531 2456 3531 1663 
Q 3531 869 3092 389 
Q 2653 -91 1925 -91 
z
" transform="scale(0.015625)"/>
       <path id="DejaVuSerif-6d" d="M 3316 2675 
Q 3481 3041 3739 3227 
Q 3997 3413 4341 3413 
Q 4863 3413 5119 3089 
Q 5375 2766 5375 2113 
L 5375 331 
L 5894 331 
L 5894 0 
L 4300 0 
L 4300 331 
L 4800 331 
L 4800 2047 
Q 4800 2556 4650 2772 
Q 4500 2988 4153 2988 
Q 3769 2988 3567 2697 
Q 3366 2406 3366 1850 
L 3366 331 
L 3866 331 
L 3866 0 
L 2291 0 
L 2291 331 
L 2791 331 
L 2791 2069 
Q 2791 2566 2641 2777 
Q 2491 2988 2144 2988 
Q 1759 2988 1557 2697 
Q 1356 2406 1356 1850 
L 1356 331 
L 1856 331 
L 1856 0 
L 263 0 
L 263 331 
L 781 331 
L 781 2994 
L 231 2994 
L 231 3322 
L 1356 3322 
L 1356 2731 
Q 1516 3063 1762 3238 
Q 2009 3413 2322 3413 
Q 2709 3413 2968 3220 
Q 3228 3028 3316 2675 
z
" transform="scale(0.015625)"/>
       <path id="DejaVuSerif-65" d="M 3469 1600 
L 991 1600 
L 991 1575 
Q 991 903 1244 561 
Q 1497 219 1991 219 
Q 2369 219 2611 417 
Q 2853 616 2950 1006 
L 3413 1006 
Q 3275 459 2904 184 
Q 2534 -91 1931 -91 
Q 1203 -91 761 389 
Q 319 869 319 1663 
Q 319 2450 753 2931 
Q 1188 3413 1894 3413 
Q 2647 3413 3050 2948 
Q 3453 2484 3469 1600 
z
M 2791 1931 
Q 2772 2513 2545 2808 
Q 2319 3103 1894 3103 
Q 1497 3103 1269 2806 
Q 1041 2509 991 1931 
L 2791 1931 
z
" transform="scale(0.015625)"/>
       <path id="DejaVuSerif-74" d="M 691 2988 
L 184 2988 
L 184 3322 
L 691 3322 
L 691 4353 
L 1269 4353 
L 1269 3322 
L 2350 3322 
L 2350 2988 
L 1269 2988 
L 1269 878 
Q 1269 456 1350 337 
Q 1431 219 1650 219 
Q 1875 219 1978 351 
Q 2081 484 2088 781 
L 2522 781 
Q 2497 328 2275 118 
Q 2053 -91 1600 -91 
Q 1103 -91 897 129 
Q 691 350 691 878 
L 691 2988 
z
" transform="scale(0.015625)"/>
       <path id="DejaVuSerif-20" transform="scale(0.015625)"/>
       <path id="DejaVuSerif-53" d="M 594 225 
L 594 1288 
L 953 1284 
Q 969 753 1261 498 
Q 1553 244 2150 244 
Q 2706 244 2998 464 
Q 3291 684 3291 1106 
Q 3291 1444 3114 1625 
Q 2938 1806 2369 1978 
L 1753 2163 
Q 1084 2366 811 2669 
Q 538 2972 538 3500 
Q 538 4094 959 4422 
Q 1381 4750 2144 4750 
Q 2469 4750 2856 4679 
Q 3244 4609 3681 4475 
L 3681 3481 
L 3328 3481 
Q 3275 3975 2998 4195 
Q 2722 4416 2156 4416 
Q 1663 4416 1405 4214 
Q 1147 4013 1147 3628 
Q 1147 3294 1340 3103 
Q 1534 2913 2163 2725 
L 2741 2553 
Q 3375 2363 3645 2067 
Q 3916 1772 3916 1275 
Q 3916 597 3481 253 
Q 3047 -91 2188 -91 
Q 1803 -91 1404 -12 
Q 1006 66 594 225 
z
" transform="scale(0.015625)"/>
       <path id="DejaVuSerif-70" d="M 1313 1825 
L 1313 1497 
Q 1313 897 1542 583 
Q 1772 269 2209 269 
Q 2650 269 2876 622 
Q 3103 975 3103 1663 
Q 3103 2353 2876 2703 
Q 2650 3053 2209 3053 
Q 1772 3053 1542 2737 
Q 1313 2422 1313 1825 
z
M 738 2988 
L 184 2988 
L 184 3322 
L 1313 3322 
L 1313 2803 
Q 1481 3116 1742 3264 
Q 2003 3413 2388 3413 
Q 3000 3413 3387 2928 
Q 3775 2444 3775 1663 
Q 3775 881 3387 395 
Q 3000 -91 2388 -91 
Q 2003 -91 1742 57 
Q 1481 206 1313 519 
L 1313 -997 
L 1856 -997 
L 1856 -1331 
L 184 -1331 
L 184 -997 
L 738 -997 
L 738 2988 
z
" transform="scale(0.015625)"/>
       <path id="DejaVuSerif-73" d="M 359 184 
L 359 959 
L 691 959 
Q 703 588 923 403 
Q 1144 219 1575 219 
Q 1963 219 2166 364 
Q 2369 509 2369 788 
Q 2369 1006 2220 1140 
Q 2072 1275 1594 1428 
L 1178 1569 
Q 750 1706 558 1912 
Q 366 2119 366 2438 
Q 366 2894 700 3153 
Q 1034 3413 1625 3413 
Q 1888 3413 2178 3344 
Q 2469 3275 2778 3144 
L 2778 2419 
L 2447 2419 
Q 2434 2741 2221 2922 
Q 2009 3103 1644 3103 
Q 1281 3103 1095 2975 
Q 909 2847 909 2591 
Q 909 2381 1050 2254 
Q 1191 2128 1613 1997 
L 2069 1856 
Q 2541 1709 2748 1489 
Q 2956 1269 2956 922 
Q 2956 450 2595 179 
Q 2234 -91 1600 -91 
Q 1278 -91 972 -22 
Q 666 47 359 184 
z
" transform="scale(0.015625)"/>
      </defs>
      <use xlink:href="#DejaVuSerif-45"/>
      <use xlink:href="#DejaVuSerif-6e" x="72.998047"/>
      <use xlink:href="#DejaVuSerif-76" x="137.402344"/>
      <use xlink:href="#DejaVuSerif-69" x="193.896484"/>
      <use xlink:href="#DejaVuSerif-72" x="225.878906"/>
      <use xlink:href="#DejaVuSerif-6f" x="273.681641"/>
      <use xlink:href="#DejaVuSerif-6e" x="333.886719"/>
      <use xlink:href="#DejaVuSerif-6d" x="398.291016"/>
      <use xlink:href="#DejaVuSerif-65" x="493.115234"/>
      <use xlink:href="#DejaVuSerif-6e" x="552.294922"/>
      <use xlink:href="#DejaVuSerif-74" x="616.699219"/>
      <use xlink:href="#DejaVuSerif-20" x="656.884766"/>
      <use xlink:href="#DejaVuSerif-53" x="688.671875"/>
      <use xlink:href="#DejaVuSerif-74" x="757.177734"/>
      <use xlink:href="#DejaVuSerif-65" x="797.363281"/>
      <use xlink:href="#DejaVuSerif-70" x="856.542969"/>
      <use xlink:href="#DejaVuSerif-73" x="920.556641"/>
     </g>
    </g>
   </g>
   <g id="matplotlib.axis_2">
    <g id="ytick_1">
     <g id="line2d_7">
      <defs>
       <path id="mec0b2f44af" d="M 0 0 
L -3.5 0 
" style="stroke: #000000; stroke-width: 0.8"/>
      </defs>
      <g>
       <use xlink:href="#mec0b2f44af" x="56.859063" y="244.358011" style="stroke: #000000; stroke-width: 0.8"/>
      </g>
     </g>
     <g id="text_8">
      <!-- −21.0 -->
      <g transform="translate(19.21375 248.15723) scale(0.1 -0.1)">
       <defs>
        <path id="DejaVuSerif-2212" d="M 678 2259 
L 4684 2259 
L 4684 1753 
L 678 1753 
L 678 2259 
z
" transform="scale(0.015625)"/>
        <path id="DejaVuSerif-2e" d="M 603 325 
Q 603 500 722 622 
Q 841 744 1019 744 
Q 1191 744 1312 622 
Q 1434 500 1434 325 
Q 1434 153 1312 31 
Q 1191 -91 1019 -91 
Q 841 -91 722 29 
Q 603 150 603 325 
z
" transform="scale(0.015625)"/>
       </defs>
       <use xlink:href="#DejaVuSerif-2212"/>
       <use xlink:href="#DejaVuSerif-32" x="83.789062"/>
       <use xlink:href="#DejaVuSerif-31" x="147.412109"/>
       <use xlink:href="#DejaVuSerif-2e" x="211.035156"/>
       <use xlink:href="#DejaVuSerif-30" x="242.822266"/>
      </g>
     </g>
    </g>
    <g id="ytick_2">
     <g id="line2d_8">
      <g>
       <use xlink:href="#mec0b2f44af" x="56.859063" y="218.718786" style="stroke: #000000; stroke-width: 0.8"/>
      </g>
     </g>
     <g id="text_9">
      <!-- −20.8 -->
      <g transform="translate(19.21375 222.518005) scale(0.1 -0.1)">
       <defs>
        <path id="DejaVuSerif-38" d="M 2981 1275 
Q 2981 1775 2732 2051 
Q 2484 2328 2034 2328 
Q 1584 2328 1336 2051 
Q 1088 1775 1088 1275 
Q 1088 772 1336 495 
Q 1584 219 2034 219 
Q 2484 219 2732 495 
Q 2981 772 2981 1275 
z
M 2853 3541 
Q 2853 3966 2637 4203 
Q 2422 4441 2034 4441 
Q 1650 4441 1433 4203 
Q 1216 3966 1216 3541 
Q 1216 3113 1433 2875 
Q 1650 2638 2034 2638 
Q 2422 2638 2637 2875 
Q 2853 3113 2853 3541 
z
M 2516 2484 
Q 3047 2413 3344 2092 
Q 3641 1772 3641 1275 
Q 3641 619 3225 264 
Q 2809 -91 2034 -91 
Q 1263 -91 845 264 
Q 428 619 428 1275 
Q 428 1772 725 2092 
Q 1022 2413 1556 2484 
Q 1084 2569 832 2842 
Q 581 3116 581 3541 
Q 581 4103 968 4426 
Q 1356 4750 2034 4750 
Q 2713 4750 3100 4426 
Q 3488 4103 3488 3541 
Q 3488 3116 3236 2842 
Q 2984 2569 2516 2484 
z
" transform="scale(0.015625)"/>
       </defs>
       <use xlink:href="#DejaVuSerif-2212"/>
       <use xlink:href="#DejaVuSerif-32" x="83.789062"/>
       <use xlink:href="#DejaVuSerif-30" x="147.412109"/>
       <use xlink:href="#DejaVuSerif-2e" x="211.035156"/>
       <use xlink:href="#DejaVuSerif-38" x="242.822266"/>
      </g>
     </g>
    </g>
    <g id="ytick_3">
     <g id="line2d_9">
      <g>
       <use xlink:href="#mec0b2f44af" x="56.859063" y="193.07956" style="stroke: #000000; stroke-width: 0.8"/>
      </g>
     </g>
     <g id="text_10">
      <!-- −20.6 -->
      <g transform="translate(19.21375 196.878779) scale(0.1 -0.1)">
       <defs>
        <path id="DejaVuSerif-36" d="M 2094 219 
Q 2534 219 2771 542 
Q 3009 866 3009 1472 
Q 3009 2078 2771 2401 
Q 2534 2725 2094 2725 
Q 1647 2725 1412 2412 
Q 1178 2100 1178 1509 
Q 1178 888 1415 553 
Q 1653 219 2094 219 
z
M 1075 2569 
Q 1288 2803 1556 2918 
Q 1825 3034 2163 3034 
Q 2859 3034 3264 2615 
Q 3669 2197 3669 1472 
Q 3669 763 3233 336 
Q 2797 -91 2069 -91 
Q 1278 -91 853 498 
Q 428 1088 428 2181 
Q 428 3406 931 4078 
Q 1434 4750 2350 4750 
Q 2597 4750 2869 4703 
Q 3141 4656 3425 4563 
L 3425 3794 
L 3072 3794 
Q 3034 4109 2831 4275 
Q 2628 4441 2284 4441 
Q 1678 4441 1381 3981 
Q 1084 3522 1075 2569 
z
" transform="scale(0.015625)"/>
       </defs>
       <use xlink:href="#DejaVuSerif-2212"/>
       <use xlink:href="#DejaVuSerif-32" x="83.789062"/>
       <use xlink:href="#DejaVuSerif-30" x="147.412109"/>
       <use xlink:href="#DejaVuSerif-2e" x="211.035156"/>
       <use xlink:href="#DejaVuSerif-36" x="242.822266"/>
      </g>
     </g>
    </g>
    <g id="ytick_4">
     <g id="line2d_10">
      <g>
       <use xlink:href="#mec0b2f44af" x="56.859063" y="167.440335" style="stroke: #000000; stroke-width: 0.8"/>
      </g>
     </g>
     <g id="text_11">
      <!-- −20.4 -->
      <g transform="translate(19.21375 171.239553) scale(0.1 -0.1)">
       <use xlink:href="#DejaVuSerif-2212"/>
       <use xlink:href="#DejaVuSerif-32" x="83.789062"/>
       <use xlink:href="#DejaVuSerif-30" x="147.412109"/>
       <use xlink:href="#DejaVuSerif-2e" x="211.035156"/>
       <use xlink:href="#DejaVuSerif-34" x="242.822266"/>
      </g>
     </g>
    </g>
    <g id="ytick_5">
     <g id="line2d_11">
      <g>
       <use xlink:href="#mec0b2f44af" x="56.859063" y="141.801109" style="stroke: #000000; stroke-width: 0.8"/>
      </g>
     </g>
     <g id="text_12">
      <!-- −20.2 -->
      <g transform="translate(19.21375 145.600328) scale(0.1 -0.1)">
       <use xlink:href="#DejaVuSerif-2212"/>
       <use xlink:href="#DejaVuSerif-32" x="83.789062"/>
       <use xlink:href="#DejaVuSerif-30" x="147.412109"/>
       <use xlink:href="#DejaVuSerif-2e" x="211.035156"/>
       <use xlink:href="#DejaVuSerif-32" x="242.822266"/>
      </g>
     </g>
    </g>
    <g id="ytick_6">
     <g id="line2d_12">
      <g>
       <use xlink:href="#mec0b2f44af" x="56.859063" y="116.161883" style="stroke: #000000; stroke-width: 0.8"/>
      </g>
     </g>
     <g id="text_13">
      <!-- −20.0 -->
      <g transform="translate(19.21375 119.961102) scale(0.1 -0.1)">
       <use xlink:href="#DejaVuSerif-2212"/>
       <use xlink:href="#DejaVuSerif-32" x="83.789062"/>
       <use xlink:href="#DejaVuSerif-30" x="147.412109"/>
       <use xlink:href="#DejaVuSerif-2e" x="211.035156"/>
       <use xlink:href="#DejaVuSerif-30" x="242.822266"/>
      </g>
     </g>
    </g>
    <g id="ytick_7">
     <g id="line2d_13">
      <g>
       <use xlink:href="#mec0b2f44af" x="56.859063" y="90.522658" style="stroke: #000000; stroke-width: 0.8"/>
      </g>
     </g>
     <g id="text_14">
      <!-- −19.8 -->
      <g transform="translate(19.21375 94.321877) scale(0.1 -0.1)">
       <defs>
        <path id="DejaVuSerif-39" d="M 2994 2091 
Q 2784 1856 2512 1740 
Q 2241 1625 1900 1625 
Q 1206 1625 804 2044 
Q 403 2463 403 3188 
Q 403 3897 839 4323 
Q 1275 4750 2003 4750 
Q 2794 4750 3217 4161 
Q 3641 3572 3641 2478 
Q 3641 1253 3137 581 
Q 2634 -91 1722 -91 
Q 1475 -91 1203 -44 
Q 931 3 647 97 
L 647 872 
L 997 872 
Q 1038 556 1241 387 
Q 1444 219 1784 219 
Q 2391 219 2687 676 
Q 2984 1134 2994 2091 
z
M 1978 4441 
Q 1534 4441 1298 4117 
Q 1063 3794 1063 3188 
Q 1063 2581 1298 2256 
Q 1534 1931 1978 1931 
Q 2422 1931 2658 2245 
Q 2894 2559 2894 3150 
Q 2894 3772 2656 4106 
Q 2419 4441 1978 4441 
z
" transform="scale(0.015625)"/>
       </defs>
       <use xlink:href="#DejaVuSerif-2212"/>
       <use xlink:href="#DejaVuSerif-31" x="83.789062"/>
       <use xlink:href="#DejaVuSerif-39" x="147.412109"/>
       <use xlink:href="#DejaVuSerif-2e" x="211.035156"/>
       <use xlink:href="#DejaVuSerif-38" x="242.822266"/>
      </g>
     </g>
    </g>
    <g id="ytick_8">
     <g id="line2d_14">
      <g>
       <use xlink:href="#mec0b2f44af" x="56.859063" y="64.883432" style="stroke: #000000; stroke-width: 0.8"/>
      </g>
     </g>
     <g id="text_15">
      <!-- −19.6 -->
      <g transform="translate(19.21375 68.682651) scale(0.1 -0.1)">
       <use xlink:href="#DejaVuSerif-2212"/>
       <use xlink:href="#DejaVuSerif-31" x="83.789062"/>
       <use xlink:href="#DejaVuSerif-39" x="147.412109"/>
       <use xlink:href="#DejaVuSerif-2e" x="211.035156"/>
       <use xlink:href="#DejaVuSerif-36" x="242.822266"/>
      </g>
     </g>
    </g>
    <g id="text_16">
     <!-- Mean Reward (20 ep) -->
     <g transform="translate(12.718125 223.882812) rotate(-90) scale(0.12 -0.12)">
      <defs>
       <path id="DejaVuSerif-4d" d="M 353 0 
L 353 331 
L 947 331 
L 947 4331 
L 319 4331 
L 319 4666 
L 1678 4666 
L 3316 1344 
L 4953 4666 
L 6228 4666 
L 6228 4331 
L 5606 4331 
L 5606 331 
L 6203 331 
L 6203 0 
L 4378 0 
L 4378 331 
L 4972 331 
L 4972 3938 
L 3372 684 
L 2931 684 
L 1331 3938 
L 1331 331 
L 1925 331 
L 1925 0 
L 353 0 
z
" transform="scale(0.015625)"/>
       <path id="DejaVuSerif-61" d="M 2547 1044 
L 2547 1747 
L 1806 1747 
Q 1378 1747 1168 1562 
Q 959 1378 959 997 
Q 959 650 1171 447 
Q 1384 244 1747 244 
Q 2106 244 2326 466 
Q 2547 688 2547 1044 
z
M 3122 2075 
L 3122 331 
L 3634 331 
L 3634 0 
L 2547 0 
L 2547 359 
Q 2356 128 2106 18 
Q 1856 -91 1522 -91 
Q 969 -91 644 203 
Q 319 497 319 997 
Q 319 1513 691 1797 
Q 1063 2081 1741 2081 
L 2547 2081 
L 2547 2309 
Q 2547 2688 2317 2895 
Q 2088 3103 1672 3103 
Q 1328 3103 1125 2947 
Q 922 2791 872 2484 
L 575 2484 
L 575 3156 
Q 875 3284 1158 3348 
Q 1441 3413 1709 3413 
Q 2400 3413 2761 3070 
Q 3122 2728 3122 2075 
z
" transform="scale(0.015625)"/>
       <path id="DejaVuSerif-52" d="M 3066 2316 
Q 3284 2256 3442 2114 
Q 3600 1972 3725 1716 
L 4403 331 
L 4972 331 
L 4972 0 
L 3872 0 
L 3144 1484 
Q 2934 1916 2759 2042 
Q 2584 2169 2278 2169 
L 1581 2169 
L 1581 331 
L 2241 331 
L 2241 0 
L 353 0 
L 353 331 
L 947 331 
L 947 4331 
L 353 4331 
L 353 4666 
L 2719 4666 
Q 3400 4666 3770 4341 
Q 4141 4016 4141 3419 
Q 4141 2938 3870 2661 
Q 3600 2384 3066 2316 
z
M 1581 2503 
L 2503 2503 
Q 2975 2503 3200 2726 
Q 3425 2950 3425 3419 
Q 3425 3888 3200 4109 
Q 2975 4331 2503 4331 
L 1581 4331 
L 1581 2503 
z
" transform="scale(0.015625)"/>
       <path id="DejaVuSerif-77" d="M 3072 3322 
L 3922 728 
L 4672 2988 
L 4191 2988 
L 4191 3322 
L 5394 3322 
L 5394 2988 
L 5025 2988 
L 4038 0 
L 3559 0 
L 2741 2484 
L 1919 0 
L 1459 0 
L 475 2988 
L 103 2988 
L 103 3322 
L 1606 3322 
L 1606 2988 
L 1069 2988 
L 1813 728 
L 2669 3322 
L 3072 3322 
z
" transform="scale(0.015625)"/>
       <path id="DejaVuSerif-64" d="M 3359 331 
L 3909 331 
L 3909 0 
L 2784 0 
L 2784 519 
Q 2616 206 2355 57 
Q 2094 -91 1709 -91 
Q 1097 -91 708 395 
Q 319 881 319 1663 
Q 319 2444 706 2928 
Q 1094 3413 1709 3413 
Q 2094 3413 2355 3264 
Q 2616 3116 2784 2803 
L 2784 4531 
L 2241 4531 
L 2241 4863 
L 3359 4863 
L 3359 331 
z
M 2784 1497 
L 2784 1825 
Q 2784 2422 2554 2737 
Q 2325 3053 1888 3053 
Q 1444 3053 1217 2703 
Q 991 2353 991 1663 
Q 991 975 1217 622 
Q 1444 269 1888 269 
Q 2325 269 2554 583 
Q 2784 897 2784 1497 
z
" transform="scale(0.015625)"/>
       <path id="DejaVuSerif-28" d="M 2041 -997 
Q 1281 -656 893 83 
Q 506 822 506 1931 
Q 506 3044 893 3783 
Q 1281 4522 2041 4863 
L 2041 4556 
Q 1559 4225 1350 3623 
Q 1141 3022 1141 1931 
Q 1141 844 1350 242 
Q 1559 -359 2041 -691 
L 2041 -997 
z
" transform="scale(0.015625)"/>
       <path id="DejaVuSerif-29" d="M 453 -997 
L 453 -691 
Q 934 -359 1145 242 
Q 1356 844 1356 1931 
Q 1356 3022 1145 3623 
Q 934 4225 453 4556 
L 453 4863 
Q 1216 4522 1603 3783 
Q 1991 3044 1991 1931 
Q 1991 822 1603 83 
Q 1216 -656 453 -997 
z
" transform="scale(0.015625)"/>
      </defs>
      <use xlink:href="#DejaVuSerif-4d"/>
      <use xlink:href="#DejaVuSerif-65" x="102.392578"/>
      <use xlink:href="#DejaVuSerif-61" x="161.572266"/>
      <use xlink:href="#DejaVuSerif-6e" x="221.191406"/>
      <use xlink:href="#DejaVuSerif-20" x="285.595703"/>
      <use xlink:href="#DejaVuSerif-52" x="317.382812"/>
      <use xlink:href="#DejaVuSerif-65" x="392.675781"/>
      <use xlink:href="#DejaVuSerif-77" x="451.855469"/>
      <use xlink:href="#DejaVuSerif-61" x="537.451172"/>
      <use xlink:href="#DejaVuSerif-72" x="597.070312"/>
      <use xlink:href="#DejaVuSerif-64" x="644.873047"/>
      <use xlink:href="#DejaVuSerif-20" x="708.886719"/>
      <use xlink:href="#DejaVuSerif-28" x="740.673828"/>
      <use xlink:href="#DejaVuSerif-32" x="779.6875"/>
      <use xlink:href="#DejaVuSerif-30" x="843.310547"/>
      <use xlink:href="#DejaVuSerif-20" x="906.933594"/>
      <use xlink:href="#DejaVuSerif-65" x="938.720703"/>
      <use xlink:href="#DejaVuSerif-70" x="997.900391"/>
      <use xlink:href="#DejaVuSerif-29" x="1061.914062"/>
     </g>
    </g>
   </g>
   <g id="line2d_15">
    <path d="M 70.213089 180.259947 
L 70.748321 109.752077 
L 71.283552 71.293239 
L 71.818784 96.932464 
L 72.354015 116.161883 
L 72.889247 122.57169 
L 73.424479 141.801109 
L 73.95971 167.440335 
L 74.494942 186.669754 
L 75.030173 180.259947 
L 75.565405 135.391303 
L 76.100636 148.210915 
L 76.635868 135.391303 
L 77.171099 173.850141 
L 77.706331 173.850141 
L 78.241562 135.391303 
L 78.776794 135.391303 
L 79.312025 180.259947 
L 80.382488 154.620722 
L 80.91772 193.07956 
L 81.988183 205.899173 
L 82.523415 225.128592 
L 83.058646 193.07956 
L 83.593878 193.07956 
L 84.129109 180.259947 
L 84.664341 218.718786 
L 85.199572 186.669754 
L 85.734804 135.391303 
L 86.270035 167.440335 
L 86.805267 186.669754 
L 87.340498 173.850141 
L 87.87573 186.669754 
L 88.410961 161.030528 
L 88.946193 161.030528 
L 89.481425 180.259947 
L 90.016656 218.718786 
L 90.551888 186.669754 
L 91.087119 212.308979 
L 91.622351 225.128592 
L 92.692814 212.308979 
L 93.228045 218.718786 
L 93.763277 237.948205 
L 94.298508 212.308979 
L 94.83374 225.128592 
L 95.368971 231.538399 
L 96.439435 231.538399 
L 96.974666 212.308979 
L 97.509898 218.718786 
L 98.045129 231.538399 
L 98.580361 237.948205 
L 99.115592 231.538399 
L 99.650824 237.948205 
L 100.186055 218.718786 
L 100.721287 212.308979 
L 101.256518 231.538399 
L 103.397444 231.538399 
L 103.932676 225.128592 
L 104.467908 225.128592 
L 105.003139 244.358011 
L 106.073602 218.718786 
L 106.608834 231.538399 
L 107.144065 225.128592 
L 107.679297 231.538399 
L 108.214528 244.358011 
L 108.74976 244.358011 
L 109.284991 237.948205 
L 109.820223 237.948205 
L 110.355454 225.128592 
L 110.890686 225.128592 
L 111.425917 212.308979 
L 111.961149 237.948205 
L 113.031612 237.948205 
L 113.566844 244.358011 
L 114.102075 237.948205 
L 114.637307 237.948205 
L 115.172538 225.128592 
L 115.70777 231.538399 
L 116.243001 231.538399 
L 116.778233 237.948205 
L 117.313464 237.948205 
L 117.848696 225.128592 
L 118.383927 225.128592 
L 118.919159 231.538399 
L 119.454391 231.538399 
L 120.524854 244.358011 
L 122.66578 218.718786 
L 123.201011 225.128592 
L 123.736243 244.358011 
L 124.271474 237.948205 
L 125.341937 237.948205 
L 125.877169 231.538399 
L 126.4124 231.538399 
L 126.947632 225.128592 
L 127.482864 237.948205 
L 128.018095 237.948205 
L 128.553327 225.128592 
L 129.62379 237.948205 
L 130.159021 225.128592 
L 131.229484 212.308979 
L 131.764716 231.538399 
L 132.299947 244.358011 
L 133.37041 231.538399 
L 133.905642 231.538399 
L 134.440874 225.128592 
L 134.976105 237.948205 
L 135.511337 244.358011 
L 136.046568 225.128592 
L 136.5818 212.308979 
L 137.117031 225.128592 
L 137.652263 218.718786 
L 138.187494 237.948205 
L 138.722726 231.538399 
L 139.257957 231.538399 
L 139.793189 244.358011 
L 140.32842 244.358011 
L 141.398883 218.718786 
L 141.934115 225.128592 
L 142.469347 237.948205 
L 143.004578 244.358011 
L 143.53981 237.948205 
L 144.075041 237.948205 
L 144.610273 231.538399 
L 145.145504 205.899173 
L 145.680736 218.718786 
L 146.751199 231.538399 
L 147.28643 231.538399 
L 147.821662 237.948205 
L 148.356893 231.538399 
L 148.892125 231.538399 
L 149.427356 244.358011 
L 149.962588 244.358011 
L 150.49782 231.538399 
L 151.033051 237.948205 
L 152.103514 225.128592 
L 152.638746 237.948205 
L 153.173977 244.358011 
L 153.709209 244.358011 
L 154.24444 237.948205 
L 154.779672 244.358011 
L 155.314903 225.128592 
L 155.850135 231.538399 
L 157.45583 231.538399 
L 157.991061 212.308979 
L 158.526293 218.718786 
L 159.061524 244.358011 
L 160.131987 244.358011 
L 160.667219 237.948205 
L 161.20245 225.128592 
L 161.737682 225.128592 
L 162.808145 237.948205 
L 163.343376 237.948205 
L 163.878608 231.538399 
L 164.413839 231.538399 
L 164.949071 225.128592 
L 165.484303 225.128592 
L 166.019534 244.358011 
L 166.554766 205.899173 
L 167.089997 199.489367 
L 167.625229 237.948205 
L 168.695692 237.948205 
L 169.230923 244.358011 
L 170.301386 231.538399 
L 170.836618 231.538399 
L 171.371849 237.948205 
L 172.442312 237.948205 
L 173.512776 212.308979 
L 174.048007 225.128592 
L 175.11847 225.128592 
L 176.724165 244.358011 
L 177.259396 231.538399 
L 177.794628 237.948205 
L 178.329859 231.538399 
L 178.865091 237.948205 
L 179.935554 237.948205 
L 180.470786 244.358011 
L 181.006017 237.948205 
L 181.541249 244.358011 
L 182.611712 244.358011 
L 183.146943 225.128592 
L 183.682175 218.718786 
L 185.287869 237.948205 
L 185.823101 231.538399 
L 186.893564 244.358011 
L 187.428795 231.538399 
L 187.964027 225.128592 
L 188.499259 237.948205 
L 189.03449 237.948205 
L 189.569722 231.538399 
L 190.104953 231.538399 
L 191.175416 244.358011 
L 191.710648 237.948205 
L 193.316342 237.948205 
L 193.851574 231.538399 
L 194.922037 244.358011 
L 195.457268 231.538399 
L 195.9925 231.538399 
L 196.527732 244.358011 
L 197.062963 237.948205 
L 197.598195 218.718786 
L 198.133426 231.538399 
L 198.668658 237.948205 
L 199.203889 237.948205 
L 199.739121 244.358011 
L 200.809584 218.718786 
L 201.344815 225.128592 
L 201.880047 237.948205 
L 202.415278 225.128592 
L 202.95051 231.538399 
L 203.485742 231.538399 
L 204.020973 237.948205 
L 204.556205 237.948205 
L 205.091436 244.358011 
L 206.161899 231.538399 
L 206.697131 237.948205 
L 207.232362 218.718786 
L 207.767594 244.358011 
L 208.302825 231.538399 
L 208.838057 244.358011 
L 209.373288 237.948205 
L 209.90852 218.718786 
L 210.443751 225.128592 
L 210.978983 237.948205 
L 212.049446 225.128592 
L 213.119909 225.128592 
L 213.655141 218.718786 
L 215.260835 237.948205 
L 215.796067 225.128592 
L 216.331298 237.948205 
L 216.86653 218.718786 
L 217.401761 212.308979 
L 217.936993 212.308979 
L 219.007456 237.948205 
L 219.542688 237.948205 
L 220.077919 225.128592 
L 220.613151 231.538399 
L 221.148382 231.538399 
L 221.683614 237.948205 
L 222.218845 231.538399 
L 222.754077 231.538399 
L 223.289308 244.358011 
L 223.82454 244.358011 
L 224.359771 237.948205 
L 224.895003 225.128592 
L 225.430234 225.128592 
L 225.965466 212.308979 
L 226.500698 218.718786 
L 227.035929 231.538399 
L 227.571161 231.538399 
L 228.106392 237.948205 
L 228.641624 225.128592 
L 229.176855 225.128592 
L 229.712087 218.718786 
L 230.78255 244.358011 
L 231.317781 244.358011 
L 232.388244 231.538399 
L 233.458707 231.538399 
L 233.993939 225.128592 
L 234.529171 231.538399 
L 235.064402 225.128592 
L 235.599634 225.128592 
L 236.134865 218.718786 
L 236.670097 237.948205 
L 237.205328 244.358011 
L 237.74056 225.128592 
L 238.275791 244.358011 
L 238.811023 244.358011 
L 239.346254 237.948205 
L 239.881486 237.948205 
L 240.416717 231.538399 
L 240.951949 237.948205 
L 241.487181 225.128592 
L 242.022412 218.718786 
L 242.557644 231.538399 
L 243.092875 237.948205 
L 244.163338 237.948205 
L 244.69857 231.538399 
L 245.233801 237.948205 
L 247.374727 237.948205 
L 247.909959 212.308979 
L 248.44519 237.948205 
L 250.050885 237.948205 
L 250.586117 231.538399 
L 251.121348 237.948205 
L 251.65658 231.538399 
L 252.191811 231.538399 
L 253.262274 218.718786 
L 253.797506 231.538399 
L 254.332737 218.718786 
L 254.867969 218.718786 
L 255.4032 237.948205 
L 255.938432 237.948205 
L 257.008895 225.128592 
L 257.544127 237.948205 
L 258.079358 231.538399 
L 258.61459 218.718786 
L 259.149821 237.948205 
L 260.755516 237.948205 
L 261.290747 212.308979 
L 261.825979 225.128592 
L 262.36121 225.128592 
L 262.896442 237.948205 
L 263.431673 212.308979 
L 263.966905 225.128592 
L 265.037368 225.128592 
L 265.5726 231.538399 
L 266.107831 212.308979 
L 266.643063 218.718786 
L 267.178294 212.308979 
L 267.713526 225.128592 
L 268.248757 244.358011 
L 268.783989 237.948205 
L 269.31922 237.948205 
L 269.854452 231.538399 
L 270.389683 218.718786 
L 270.924915 218.718786 
L 271.460146 212.308979 
L 272.53061 212.308979 
L 273.065841 231.538399 
L 273.601073 237.948205 
L 274.136304 225.128592 
L 274.671536 237.948205 
L 275.206767 231.538399 
L 275.741999 237.948205 
L 276.27723 225.128592 
L 276.812462 231.538399 
L 278.953388 231.538399 
L 279.488619 237.948205 
L 280.023851 231.538399 
L 281.094314 244.358011 
L 282.164777 231.538399 
L 282.700009 237.948205 
L 283.770472 237.948205 
L 284.305703 244.358011 
L 287.517093 244.358011 
L 288.052324 237.948205 
L 288.587556 244.358011 
L 289.122787 244.358011 
L 289.658019 237.948205 
L 290.19325 237.948205 
L 290.728482 244.358011 
L 291.263713 231.538399 
L 292.334176 231.538399 
L 292.869408 244.358011 
L 293.939871 231.538399 
L 294.475102 244.358011 
L 295.010334 231.538399 
L 295.545566 225.128592 
L 296.080797 237.948205 
L 296.616029 225.128592 
L 298.221723 244.358011 
L 299.292186 231.538399 
L 299.827418 212.308979 
L 300.897881 237.948205 
L 301.433112 237.948205 
L 301.968344 244.358011 
L 302.503575 237.948205 
L 303.038807 237.948205 
L 303.574039 244.358011 
L 304.10927 237.948205 
L 304.644502 225.128592 
L 305.179733 218.718786 
L 305.714965 225.128592 
L 306.250196 237.948205 
L 306.785428 225.128592 
L 307.320659 231.538399 
L 307.855891 225.128592 
L 308.391122 225.128592 
L 308.926354 231.538399 
L 309.461585 225.128592 
L 310.532049 237.948205 
L 311.06728 225.128592 
L 312.137743 237.948205 
L 312.672975 231.538399 
L 313.208206 237.948205 
L 313.743438 237.948205 
L 314.278669 218.718786 
L 314.813901 218.718786 
L 315.884364 244.358011 
L 316.954827 244.358011 
L 317.490058 225.128592 
L 318.02529 212.308979 
L 318.560522 212.308979 
L 319.095753 231.538399 
L 319.630985 244.358011 
L 320.701448 244.358011 
L 321.771911 218.718786 
L 322.307142 237.948205 
L 323.912837 237.948205 
L 324.448068 225.128592 
L 324.9833 225.128592 
L 325.518532 231.538399 
L 326.053763 225.128592 
L 326.588995 225.128592 
L 327.124226 237.948205 
L 327.659458 237.948205 
L 328.194689 244.358011 
L 328.729921 231.538399 
L 329.265152 237.948205 
L 330.335615 225.128592 
L 330.870847 237.948205 
L 333.011773 237.948205 
L 333.547005 231.538399 
L 334.082236 244.358011 
L 334.617468 225.128592 
L 335.152699 225.128592 
L 335.687931 237.948205 
L 336.223162 225.128592 
L 337.293625 225.128592 
L 337.293625 225.128592 
" clip-path="url(#p02ac71ec72)" style="fill: none; stroke: #2196f3; stroke-width: 1.5; stroke-linecap: square"/>
   </g>
   <g id="patch_3">
    <path d="M 56.859063 253.01125 
L 56.859063 62.64 
" style="fill: none; stroke: #000000; stroke-width: 0.8; stroke-linejoin: miter; stroke-linecap: square"/>
   </g>
   <g id="patch_4">
    <path d="M 56.859063 253.01125 
L 350.647652 253.01125 
" style="fill: none; stroke: #000000; stroke-width: 0.8; stroke-linejoin: miter; stroke-linecap: square"/>
   </g>
   <g id="text_17">
    <!-- Pong -->
    <g transform="translate(187.379451 56.64) scale(0.13 -0.13)">
     <defs>
      <path id="DejaVuSerif-50" d="M 1581 2375 
L 2406 2375 
Q 2872 2375 3115 2626 
Q 3359 2878 3359 3353 
Q 3359 3831 3115 4081 
Q 2872 4331 2406 4331 
L 1581 4331 
L 1581 2375 
z
M 353 0 
L 353 331 
L 947 331 
L 947 4331 
L 353 4331 
L 353 4666 
L 2559 4666 
Q 3259 4666 3668 4311 
Q 4078 3956 4078 3353 
Q 4078 2753 3668 2397 
Q 3259 2041 2559 2041 
L 1581 2041 
L 1581 331 
L 2303 331 
L 2303 0 
L 353 0 
z
" transform="scale(0.015625)"/>
      <path id="DejaVuSerif-67" d="M 3359 2988 
L 3359 72 
Q 3359 -644 2965 -1033 
Q 2572 -1422 1844 -1422 
Q 1516 -1422 1216 -1362 
Q 916 -1303 641 -1184 
L 641 -488 
L 941 -488 
Q 997 -813 1206 -963 
Q 1416 -1113 1806 -1113 
Q 2313 -1113 2548 -827 
Q 2784 -541 2784 72 
L 2784 519 
Q 2616 206 2355 57 
Q 2094 -91 1709 -91 
Q 1097 -91 708 395 
Q 319 881 319 1663 
Q 319 2444 706 2928 
Q 1094 3413 1709 3413 
Q 2094 3413 2355 3264 
Q 2616 3116 2784 2803 
L 2784 3322 
L 3909 3322 
L 3909 2988 
L 3359 2988 
z
M 2784 1825 
Q 2784 2422 2554 2737 
Q 2325 3053 1888 3053 
Q 1444 3053 1217 2703 
Q 991 2353 991 1663 
Q 991 975 1217 622 
Q 1444 269 1888 269 
Q 2325 269 2554 583 
Q 2784 897 2784 1497 
L 2784 1825 
z
" transform="scale(0.015625)"/>
     </defs>
     <use xlink:href="#DejaVuSerif-50"/>
     <use xlink:href="#DejaVuSerif-6f" x="63.285156"/>
     <use xlink:href="#DejaVuSerif-6e" x="123.490234"/>
     <use xlink:href="#DejaVuSerif-67" x="187.894531"/>
    </g>
   </g>
  </g>
  <g id="axes_2">
   <g id="patch_5">
    <path d="M 409.059062 253.01125 
L 702.847652 253.01125 
L 702.847652 62.64 
L 409.059062 62.64 
z
" style="fill: #ffffff"/>
   </g>
   <g id="matplotlib.axis_3">
    <g id="xtick_7">
     <g id="line2d_16">
      <g>
       <use xlink:href="#m0287a4ac0a" x="421.877858" y="253.01125" style="stroke: #000000; stroke-width: 0.8"/>
      </g>
     </g>
     <g id="text_18">
      <!-- 0k -->
      <g transform="translate(415.66692 267.609688) scale(0.1 -0.1)">
       <use xlink:href="#DejaVuSerif-30"/>
       <use xlink:href="#DejaVuSerif-6b" x="63.623047"/>
      </g>
     </g>
    </g>
    <g id="xtick_8">
     <g id="line2d_17">
      <g>
       <use xlink:href="#m0287a4ac0a" x="475.401011" y="253.01125" style="stroke: #000000; stroke-width: 0.8"/>
      </g>
     </g>
     <g id="text_19">
      <!-- 1000k -->
      <g transform="translate(459.646324 267.609688) scale(0.1 -0.1)">
       <use xlink:href="#DejaVuSerif-31"/>
       <use xlink:href="#DejaVuSerif-30" x="63.623047"/>
       <use xlink:href="#DejaVuSerif-30" x="127.246094"/>
       <use xlink:href="#DejaVuSerif-30" x="190.869141"/>
       <use xlink:href="#DejaVuSerif-6b" x="254.492188"/>
      </g>
     </g>
    </g>
    <g id="xtick_9">
     <g id="line2d_18">
      <g>
       <use xlink:href="#m0287a4ac0a" x="528.924165" y="253.01125" style="stroke: #000000; stroke-width: 0.8"/>
      </g>
     </g>
     <g id="text_20">
      <!-- 2000k -->
      <g transform="translate(513.169477 267.609688) scale(0.1 -0.1)">
       <use xlink:href="#DejaVuSerif-32"/>
       <use xlink:href="#DejaVuSerif-30" x="63.623047"/>
       <use xlink:href="#DejaVuSerif-30" x="127.246094"/>
       <use xlink:href="#DejaVuSerif-30" x="190.869141"/>
       <use xlink:href="#DejaVuSerif-6b" x="254.492188"/>
      </g>
     </g>
    </g>
    <g id="xtick_10">
     <g id="line2d_19">
      <g>
       <use xlink:href="#m0287a4ac0a" x="582.447318" y="253.01125" style="stroke: #000000; stroke-width: 0.8"/>
      </g>
     </g>
     <g id="text_21">
      <!-- 3000k -->
      <g transform="translate(566.692631 267.609688) scale(0.1 -0.1)">
       <use xlink:href="#DejaVuSerif-33"/>
       <use xlink:href="#DejaVuSerif-30" x="63.623047"/>
       <use xlink:href="#DejaVuSerif-30" x="127.246094"/>
       <use xlink:href="#DejaVuSerif-30" x="190.869141"/>
       <use xlink:href="#DejaVuSerif-6b" x="254.492188"/>
      </g>
     </g>
    </g>
    <g id="xtick_11">
     <g id="line2d_20">
      <g>
       <use xlink:href="#m0287a4ac0a" x="635.970472" y="253.01125" style="stroke: #000000; stroke-width: 0.8"/>
      </g>
     </g>
     <g id="text_22">
      <!-- 4000k -->
      <g transform="translate(620.215784 267.609688) scale(0.1 -0.1)">
       <use xlink:href="#DejaVuSerif-34"/>
       <use xlink:href="#DejaVuSerif-30" x="63.623047"/>
       <use xlink:href="#DejaVuSerif-30" x="127.246094"/>
       <use xlink:href="#DejaVuSerif-30" x="190.869141"/>
       <use xlink:href="#DejaVuSerif-6b" x="254.492188"/>
      </g>
     </g>
    </g>
    <g id="xtick_12">
     <g id="line2d_21">
      <g>
       <use xlink:href="#m0287a4ac0a" x="689.493625" y="253.01125" style="stroke: #000000; stroke-width: 0.8"/>
      </g>
     </g>
     <g id="text_23">
      <!-- 5000k -->
      <g transform="translate(673.738938 267.609688) scale(0.1 -0.1)">
       <use xlink:href="#DejaVuSerif-35"/>
       <use xlink:href="#DejaVuSerif-30" x="63.623047"/>
       <use xlink:href="#DejaVuSerif-30" x="127.246094"/>
       <use xlink:href="#DejaVuSerif-30" x="190.869141"/>
       <use xlink:href="#DejaVuSerif-6b" x="254.492188"/>
      </g>
     </g>
    </g>
    <g id="text_24">
     <!-- Environment Steps -->
     <g transform="translate(497.63992 282.8075) scale(0.12 -0.12)">
      <use xlink:href="#DejaVuSerif-45"/>
      <use xlink:href="#DejaVuSerif-6e" x="72.998047"/>
      <use xlink:href="#DejaVuSerif-76" x="137.402344"/>
      <use xlink:href="#DejaVuSerif-69" x="193.896484"/>
      <use xlink:href="#DejaVuSerif-72" x="225.878906"/>
      <use xlink:href="#DejaVuSerif-6f" x="273.681641"/>
      <use xlink:href="#DejaVuSerif-6e" x="333.886719"/>
      <use xlink:href="#DejaVuSerif-6d" x="398.291016"/>
      <use xlink:href="#DejaVuSerif-65" x="493.115234"/>
      <use xlink:href="#DejaVuSerif-6e" x="552.294922"/>
      <use xlink:href="#DejaVuSerif-74" x="616.699219"/>
      <use xlink:href="#DejaVuSerif-20" x="656.884766"/>
      <use xlink:href="#DejaVuSerif-53" x="688.671875"/>
      <use xlink:href="#DejaVuSerif-74" x="757.177734"/>
      <use xlink:href="#DejaVuSerif-65" x="797.363281"/>
      <use xlink:href="#DejaVuSerif-70" x="856.542969"/>
      <use xlink:href="#DejaVuSerif-73" x="920.556641"/>
     </g>
    </g>
   </g>
   <g id="matplotlib.axis_4">
    <g id="ytick_9">
     <g id="line2d_22">
      <g>
       <use xlink:href="#mec0b2f44af" x="409.059062" y="244.358011" style="stroke: #000000; stroke-width: 0.8"/>
      </g>
     </g>
     <g id="text_25">
      <!-- 0.0 -->
      <g transform="translate(386.155937 248.15723) scale(0.1 -0.1)">
       <use xlink:href="#DejaVuSerif-30"/>
       <use xlink:href="#DejaVuSerif-2e" x="63.623047"/>
       <use xlink:href="#DejaVuSerif-30" x="95.410156"/>
      </g>
     </g>
    </g>
    <g id="ytick_10">
     <g id="line2d_23">
      <g>
       <use xlink:href="#mec0b2f44af" x="409.059062" y="212.891689" style="stroke: #000000; stroke-width: 0.8"/>
      </g>
     </g>
     <g id="text_26">
      <!-- 0.2 -->
      <g transform="translate(386.155937 216.690908) scale(0.1 -0.1)">
       <use xlink:href="#DejaVuSerif-30"/>
       <use xlink:href="#DejaVuSerif-2e" x="63.623047"/>
       <use xlink:href="#DejaVuSerif-32" x="95.410156"/>
      </g>
     </g>
    </g>
    <g id="ytick_11">
     <g id="line2d_24">
      <g>
       <use xlink:href="#mec0b2f44af" x="409.059062" y="181.425367" style="stroke: #000000; stroke-width: 0.8"/>
      </g>
     </g>
     <g id="text_27">
      <!-- 0.4 -->
      <g transform="translate(386.155937 185.224585) scale(0.1 -0.1)">
       <use xlink:href="#DejaVuSerif-30"/>
       <use xlink:href="#DejaVuSerif-2e" x="63.623047"/>
       <use xlink:href="#DejaVuSerif-34" x="95.410156"/>
      </g>
     </g>
    </g>
    <g id="ytick_12">
     <g id="line2d_25">
      <g>
       <use xlink:href="#mec0b2f44af" x="409.059062" y="149.959044" style="stroke: #000000; stroke-width: 0.8"/>
      </g>
     </g>
     <g id="text_28">
      <!-- 0.6 -->
      <g transform="translate(386.155937 153.758263) scale(0.1 -0.1)">
       <use xlink:href="#DejaVuSerif-30"/>
       <use xlink:href="#DejaVuSerif-2e" x="63.623047"/>
       <use xlink:href="#DejaVuSerif-36" x="95.410156"/>
      </g>
     </g>
    </g>
    <g id="ytick_13">
     <g id="line2d_26">
      <g>
       <use xlink:href="#mec0b2f44af" x="409.059062" y="118.492722" style="stroke: #000000; stroke-width: 0.8"/>
      </g>
     </g>
     <g id="text_29">
      <!-- 0.8 -->
      <g transform="translate(386.155937 122.291941) scale(0.1 -0.1)">
       <use xlink:href="#DejaVuSerif-30"/>
       <use xlink:href="#DejaVuSerif-2e" x="63.623047"/>
       <use xlink:href="#DejaVuSerif-38" x="95.410156"/>
      </g>
     </g>
    </g>
    <g id="ytick_14">
     <g id="line2d_27">
      <g>
       <use xlink:href="#mec0b2f44af" x="409.059062" y="87.0264" style="stroke: #000000; stroke-width: 0.8"/>
      </g>
     </g>
     <g id="text_30">
      <!-- 1.0 -->
      <g transform="translate(386.155937 90.825619) scale(0.1 -0.1)">
       <use xlink:href="#DejaVuSerif-31"/>
       <use xlink:href="#DejaVuSerif-2e" x="63.623047"/>
       <use xlink:href="#DejaVuSerif-30" x="95.410156"/>
      </g>
     </g>
    </g>
    <g id="text_31">
     <!-- Mean Reward (20 ep) -->
     <g transform="translate(379.660312 223.882812) rotate(-90) scale(0.12 -0.12)">
      <use xlink:href="#DejaVuSerif-4d"/>
      <use xlink:href="#DejaVuSerif-65" x="102.392578"/>
      <use xlink:href="#DejaVuSerif-61" x="161.572266"/>
      <use xlink:href="#DejaVuSerif-6e" x="221.191406"/>
      <use xlink:href="#DejaVuSerif-20" x="285.595703"/>
      <use xlink:href="#DejaVuSerif-52" x="317.382812"/>
      <use xlink:href="#DejaVuSerif-65" x="392.675781"/>
      <use xlink:href="#DejaVuSerif-77" x="451.855469"/>
      <use xlink:href="#DejaVuSerif-61" x="537.451172"/>
      <use xlink:href="#DejaVuSerif-72" x="597.070312"/>
      <use xlink:href="#DejaVuSerif-64" x="644.873047"/>
      <use xlink:href="#DejaVuSerif-20" x="708.886719"/>
      <use xlink:href="#DejaVuSerif-28" x="740.673828"/>
      <use xlink:href="#DejaVuSerif-32" x="779.6875"/>
      <use xlink:href="#DejaVuSerif-30" x="843.310547"/>
      <use xlink:href="#DejaVuSerif-20" x="906.933594"/>
      <use xlink:href="#DejaVuSerif-65" x="938.720703"/>
      <use xlink:href="#DejaVuSerif-70" x="997.900391"/>
      <use xlink:href="#DejaVuSerif-29" x="1061.914062"/>
     </g>
    </g>
   </g>
   <g id="line2d_28">
    <path d="M 422.413089 212.891689 
L 422.948321 165.692206 
L 423.483552 236.491431 
L 424.018784 212.891689 
L 425.624479 189.291947 
L 426.15971 212.891689 
L 426.694942 205.025108 
L 427.230173 228.62485 
L 427.765405 212.891689 
L 428.835868 228.62485 
L 429.371099 189.291947 
L 429.906331 228.62485 
L 430.441562 189.291947 
L 430.976794 205.025108 
L 431.512025 205.025108 
L 432.047257 181.425367 
L 432.582488 220.75827 
L 433.11772 197.158528 
L 433.652952 197.158528 
L 434.188183 220.75827 
L 434.723415 220.75827 
L 435.258646 228.62485 
L 435.793878 220.75827 
L 436.329109 165.692206 
L 436.864341 228.62485 
L 437.399572 236.491431 
L 437.934804 173.558786 
L 438.470035 205.025108 
L 439.005267 228.62485 
L 439.540498 189.291947 
L 440.07573 212.891689 
L 440.610961 197.158528 
L 441.146193 212.891689 
L 441.681425 197.158528 
L 442.216656 189.291947 
L 442.751888 220.75827 
L 443.287119 197.158528 
L 443.822351 197.158528 
L 444.357582 181.425367 
L 444.892814 212.891689 
L 445.428045 197.158528 
L 445.963277 165.692206 
L 446.498508 228.62485 
L 447.03374 205.025108 
L 447.568971 165.692206 
L 448.104203 205.025108 
L 448.639435 165.692206 
L 449.174666 205.025108 
L 449.709898 189.291947 
L 450.245129 220.75827 
L 450.780361 165.692206 
L 451.315592 173.558786 
L 451.850824 212.891689 
L 452.921287 142.092464 
L 453.456518 205.025108 
L 453.99175 197.158528 
L 454.526981 197.158528 
L 455.062213 205.025108 
L 455.597444 181.425367 
L 456.132676 189.291947 
L 456.667908 173.558786 
L 457.203139 212.891689 
L 457.738371 197.158528 
L 458.273602 157.825625 
L 458.808834 173.558786 
L 459.344065 236.491431 
L 459.879297 205.025108 
L 460.414528 181.425367 
L 460.94976 212.891689 
L 461.484991 197.158528 
L 462.020223 205.025108 
L 462.555454 173.558786 
L 463.090686 212.891689 
L 463.625917 149.959044 
L 464.161149 142.092464 
L 464.696381 197.158528 
L 465.231612 173.558786 
L 465.766844 197.158528 
L 466.302075 197.158528 
L 466.837307 149.959044 
L 467.372538 205.025108 
L 468.443001 173.558786 
L 468.978233 220.75827 
L 469.513464 212.891689 
L 470.583927 212.891689 
L 471.119159 189.291947 
L 471.654391 181.425367 
L 472.189622 220.75827 
L 472.724854 205.025108 
L 473.260085 157.825625 
L 473.795317 173.558786 
L 474.330548 220.75827 
L 474.86578 212.891689 
L 475.401011 126.359303 
L 475.936243 197.158528 
L 476.471474 212.891689 
L 477.006706 205.025108 
L 477.541937 165.692206 
L 478.077169 173.558786 
L 478.6124 236.491431 
L 479.147632 165.692206 
L 479.682864 205.025108 
L 480.218095 228.62485 
L 481.82379 181.425367 
L 482.894253 197.158528 
L 483.429484 189.291947 
L 483.964716 205.025108 
L 484.499947 197.158528 
L 485.035179 205.025108 
L 486.105642 189.291947 
L 486.640874 228.62485 
L 487.711337 197.158528 
L 488.246568 236.491431 
L 489.317031 189.291947 
L 489.852263 197.158528 
L 490.387494 173.558786 
L 490.922726 134.225883 
L 491.457957 197.158528 
L 491.993189 149.959044 
L 493.063652 228.62485 
L 493.598883 205.025108 
L 494.134115 157.825625 
L 494.669347 189.291947 
L 495.204578 134.225883 
L 495.73981 189.291947 
L 496.275041 157.825625 
L 496.810273 142.092464 
L 497.880736 189.291947 
L 498.415967 228.62485 
L 498.951199 110.626142 
L 499.48643 220.75827 
L 500.021662 181.425367 
L 500.556893 220.75827 
L 501.092125 212.891689 
L 501.627356 197.158528 
L 502.162588 220.75827 
L 502.69782 197.158528 
L 503.768283 181.425367 
L 504.303514 212.891689 
L 504.838746 165.692206 
L 505.373977 205.025108 
L 505.909209 189.291947 
L 506.44444 197.158528 
L 506.979672 212.891689 
L 507.514903 181.425367 
L 508.050135 173.558786 
L 508.585366 205.025108 
L 509.120598 189.291947 
L 509.65583 189.291947 
L 510.191061 157.825625 
L 510.726293 220.75827 
L 511.261524 220.75827 
L 511.796756 189.291947 
L 512.331987 220.75827 
L 513.40245 157.825625 
L 513.937682 228.62485 
L 514.472913 220.75827 
L 515.008145 205.025108 
L 515.543376 173.558786 
L 516.078608 197.158528 
L 516.613839 173.558786 
L 517.149071 189.291947 
L 517.684303 181.425367 
L 518.219534 165.692206 
L 519.289997 228.62485 
L 519.825229 181.425367 
L 520.36046 197.158528 
L 520.895692 149.959044 
L 521.966155 181.425367 
L 522.501386 173.558786 
L 523.036618 205.025108 
L 523.571849 212.891689 
L 524.107081 212.891689 
L 524.642312 228.62485 
L 525.177544 181.425367 
L 525.712776 212.891689 
L 526.248007 142.092464 
L 526.783239 212.891689 
L 527.31847 134.225883 
L 527.853702 165.692206 
L 528.388933 189.291947 
L 528.924165 220.75827 
L 529.459396 181.425367 
L 529.994628 197.158528 
L 530.529859 189.291947 
L 531.065091 197.158528 
L 531.600322 189.291947 
L 532.135554 197.158528 
L 532.670786 212.891689 
L 533.206017 126.359303 
L 533.741249 149.959044 
L 534.27648 228.62485 
L 534.811712 149.959044 
L 535.346943 181.425367 
L 535.882175 149.959044 
L 536.417406 212.891689 
L 536.952638 165.692206 
L 537.487869 205.025108 
L 538.023101 228.62485 
L 538.558332 189.291947 
L 539.093564 205.025108 
L 539.628795 165.692206 
L 540.164027 212.891689 
L 540.699259 220.75827 
L 541.23449 205.025108 
L 541.769722 197.158528 
L 542.304953 149.959044 
L 542.840185 212.891689 
L 543.375416 197.158528 
L 543.910648 142.092464 
L 544.445879 205.025108 
L 544.981111 189.291947 
L 545.516342 220.75827 
L 546.051574 197.158528 
L 546.586805 228.62485 
L 547.122037 189.291947 
L 547.657268 212.891689 
L 548.1925 197.158528 
L 548.727732 149.959044 
L 549.262963 197.158528 
L 549.798195 197.158528 
L 550.868658 212.891689 
L 551.403889 157.825625 
L 551.939121 189.291947 
L 552.474352 197.158528 
L 553.009584 212.891689 
L 553.544815 110.626142 
L 554.080047 157.825625 
L 554.615278 165.692206 
L 555.15051 205.025108 
L 555.685742 220.75827 
L 556.220973 220.75827 
L 556.756205 189.291947 
L 557.291436 244.358011 
L 557.826668 236.491431 
L 558.361899 212.891689 
L 558.897131 212.891689 
L 559.432362 189.291947 
L 559.967594 189.291947 
L 560.502825 212.891689 
L 561.038057 197.158528 
L 561.573288 236.491431 
L 562.10852 165.692206 
L 562.643751 220.75827 
L 563.178983 126.359303 
L 563.714215 165.692206 
L 564.249446 142.092464 
L 564.784678 126.359303 
L 565.319909 134.225883 
L 565.855141 173.558786 
L 566.390372 181.425367 
L 566.925604 149.959044 
L 567.460835 205.025108 
L 567.996067 165.692206 
L 568.531298 149.959044 
L 569.06653 157.825625 
L 569.601761 149.959044 
L 570.136993 165.692206 
L 570.672224 228.62485 
L 571.207456 149.959044 
L 571.742688 205.025108 
L 572.277919 173.558786 
L 572.813151 173.558786 
L 573.348382 197.158528 
L 573.883614 212.891689 
L 574.418845 173.558786 
L 574.954077 165.692206 
L 575.489308 236.491431 
L 576.02454 181.425367 
L 576.559771 149.959044 
L 577.095003 205.025108 
L 578.165466 118.492722 
L 578.700698 181.425367 
L 579.235929 173.558786 
L 579.771161 173.558786 
L 580.306392 220.75827 
L 580.841624 165.692206 
L 581.376855 165.692206 
L 581.912087 134.225883 
L 582.447318 189.291947 
L 582.98255 189.291947 
L 583.517781 142.092464 
L 584.053013 212.891689 
L 584.588244 181.425367 
L 585.658707 197.158528 
L 586.193939 189.291947 
L 586.729171 212.891689 
L 587.264402 212.891689 
L 587.799634 142.092464 
L 588.334865 165.692206 
L 588.870097 157.825625 
L 589.405328 165.692206 
L 589.94056 181.425367 
L 590.475791 189.291947 
L 591.011023 173.558786 
L 591.546254 118.492722 
L 592.081486 228.62485 
L 592.616717 134.225883 
L 593.151949 212.891689 
L 593.687181 212.891689 
L 594.222412 118.492722 
L 594.757644 181.425367 
L 595.292875 173.558786 
L 595.828107 118.492722 
L 596.363338 118.492722 
L 596.89857 102.759561 
L 597.433801 157.825625 
L 597.969033 149.959044 
L 598.504264 165.692206 
L 599.039496 205.025108 
L 599.574727 134.225883 
L 600.109959 189.291947 
L 600.64519 157.825625 
L 601.180422 87.0264 
L 601.715654 228.62485 
L 602.250885 212.891689 
L 602.786117 149.959044 
L 603.321348 212.891689 
L 603.85658 165.692206 
L 604.391811 189.291947 
L 604.927043 181.425367 
L 605.462274 181.425367 
L 605.997506 149.959044 
L 606.532737 157.825625 
L 607.067969 189.291947 
L 607.6032 173.558786 
L 608.138432 173.558786 
L 608.673663 220.75827 
L 609.208895 173.558786 
L 609.744127 212.891689 
L 610.81459 118.492722 
L 611.349821 197.158528 
L 611.885053 205.025108 
L 612.420284 189.291947 
L 612.955516 165.692206 
L 613.490747 205.025108 
L 614.025979 165.692206 
L 614.56121 205.025108 
L 615.096442 181.425367 
L 615.631673 71.293239 
L 616.166905 157.825625 
L 616.702137 181.425367 
L 617.237368 197.158528 
L 617.7726 165.692206 
L 618.307831 157.825625 
L 618.843063 118.492722 
L 619.378294 165.692206 
L 619.913526 165.692206 
L 620.448757 189.291947 
L 620.983989 244.358011 
L 621.51922 149.959044 
L 622.054452 173.558786 
L 622.589683 134.225883 
L 623.124915 157.825625 
L 623.660146 212.891689 
L 624.195378 189.291947 
L 624.73061 157.825625 
L 625.265841 173.558786 
L 625.801073 134.225883 
L 626.336304 157.825625 
L 627.406767 244.358011 
L 627.941999 181.425367 
L 628.47723 181.425367 
L 629.012462 228.62485 
L 629.547693 181.425367 
L 630.082925 157.825625 
L 630.618156 220.75827 
L 631.153388 220.75827 
L 631.688619 212.891689 
L 632.223851 165.692206 
L 632.759083 189.291947 
L 633.294314 173.558786 
L 633.829546 142.092464 
L 634.364777 149.959044 
L 634.900009 189.291947 
L 635.43524 197.158528 
L 635.970472 149.959044 
L 636.505703 181.425367 
L 637.040935 173.558786 
L 637.576166 197.158528 
L 638.111398 157.825625 
L 638.646629 205.025108 
L 639.181861 181.425367 
L 639.717093 142.092464 
L 640.252324 236.491431 
L 640.787556 149.959044 
L 641.858019 149.959044 
L 642.39325 205.025108 
L 642.928482 157.825625 
L 643.463713 189.291947 
L 643.998945 134.225883 
L 644.534176 205.025108 
L 645.069408 236.491431 
L 645.604639 173.558786 
L 646.139871 149.959044 
L 646.675102 181.425367 
L 647.210334 181.425367 
L 647.745566 197.158528 
L 648.280797 189.291947 
L 648.816029 205.025108 
L 649.35126 244.358011 
L 649.886492 236.491431 
L 650.421723 181.425367 
L 650.956955 79.159819 
L 651.492186 228.62485 
L 652.027418 165.692206 
L 652.562649 189.291947 
L 653.097881 228.62485 
L 653.633112 197.158528 
L 654.168344 181.425367 
L 654.703575 197.158528 
L 655.238807 126.359303 
L 655.774039 197.158528 
L 656.30927 165.692206 
L 656.844502 149.959044 
L 657.379733 181.425367 
L 657.914965 157.825625 
L 658.450196 205.025108 
L 658.985428 212.891689 
L 659.520659 165.692206 
L 660.055891 149.959044 
L 660.591122 181.425367 
L 661.126354 236.491431 
L 661.661585 165.692206 
L 662.196817 165.692206 
L 662.732049 220.75827 
L 663.26728 197.158528 
L 663.802512 197.158528 
L 664.337743 189.291947 
L 664.872975 197.158528 
L 665.408206 212.891689 
L 665.943438 165.692206 
L 666.478669 212.891689 
L 667.013901 181.425367 
L 667.549132 197.158528 
L 668.084364 173.558786 
L 668.619595 181.425367 
L 669.154827 102.759561 
L 669.690058 181.425367 
L 670.22529 142.092464 
L 670.760522 244.358011 
L 671.295753 197.158528 
L 671.830985 228.62485 
L 672.366216 157.825625 
L 672.901448 157.825625 
L 673.436679 165.692206 
L 673.971911 181.425367 
L 674.507142 181.425367 
L 675.042374 173.558786 
L 675.577605 212.891689 
L 676.112837 212.891689 
L 676.648068 173.558786 
L 677.1833 165.692206 
L 677.718532 228.62485 
L 678.253763 197.158528 
L 678.788995 173.558786 
L 679.324226 165.692206 
L 679.859458 181.425367 
L 680.394689 212.891689 
L 680.929921 236.491431 
L 681.465152 212.891689 
L 682.000384 197.158528 
L 682.535615 197.158528 
L 683.070847 134.225883 
L 683.606078 205.025108 
L 684.14131 197.158528 
L 684.676541 197.158528 
L 685.211773 157.825625 
L 685.747005 189.291947 
L 686.282236 165.692206 
L 686.817468 189.291947 
L 687.352699 220.75827 
L 687.887931 197.158528 
L 688.958394 244.358011 
L 689.493625 165.692206 
L 689.493625 165.692206 
" clip-path="url(#pf8abbb6ccb)" style="fill: none; stroke: #4caf50; stroke-width: 1.5; stroke-linecap: square"/>
   </g>
   <g id="patch_6">
    <path d="M 409.059062 253.01125 
L 409.059062 62.64 
" style="fill: none; stroke: #000000; stroke-width: 0.8; stroke-linejoin: miter; stroke-linecap: square"/>
   </g>
   <g id="patch_7">
    <path d="M 409.059062 253.01125 
L 702.847652 253.01125 
" style="fill: none; stroke: #000000; stroke-width: 0.8; stroke-linejoin: miter; stroke-linecap: square"/>
   </g>
   <g id="text_32">
    <!-- Breakout -->
    <g transform="translate(525.696873 56.64) scale(0.13 -0.13)">
     <defs>
      <path id="DejaVuSerif-42" d="M 1581 331 
L 2516 331 
Q 3078 331 3337 575 
Q 3597 819 3597 1350 
Q 3597 1878 3339 2120 
Q 3081 2363 2516 2363 
L 1581 2363 
L 1581 331 
z
M 1581 2694 
L 2375 2694 
Q 2888 2694 3123 2891 
Q 3359 3088 3359 3513 
Q 3359 3941 3123 4136 
Q 2888 4331 2375 4331 
L 1581 4331 
L 1581 2694 
z
M 353 0 
L 353 331 
L 947 331 
L 947 4331 
L 353 4331 
L 353 4666 
L 2656 4666 
Q 3363 4666 3720 4377 
Q 4078 4088 4078 3513 
Q 4078 3097 3829 2850 
Q 3581 2603 3103 2547 
Q 3697 2472 4005 2167 
Q 4313 1863 4313 1350 
Q 4313 656 3875 328 
Q 3438 0 2509 0 
L 353 0 
z
" transform="scale(0.015625)"/>
      <path id="DejaVuSerif-75" d="M 2266 3322 
L 3341 3322 
L 3341 331 
L 3884 331 
L 3884 0 
L 2766 0 
L 2766 588 
Q 2606 256 2353 82 
Q 2100 -91 1766 -91 
Q 1213 -91 952 223 
Q 691 538 691 1209 
L 691 2988 
L 172 2988 
L 172 3322 
L 1269 3322 
L 1269 1388 
Q 1269 781 1417 556 
Q 1566 331 1947 331 
Q 2347 331 2556 625 
Q 2766 919 2766 1478 
L 2766 2988 
L 2266 2988 
L 2266 3322 
z
" transform="scale(0.015625)"/>
     </defs>
     <use xlink:href="#DejaVuSerif-42"/>
     <use xlink:href="#DejaVuSerif-72" x="73.486328"/>
     <use xlink:href="#DejaVuSerif-65" x="121.289062"/>
     <use xlink:href="#DejaVuSerif-61" x="180.46875"/>
     <use xlink:href="#DejaVuSerif-6b" x="240.087891"/>
     <use xlink:href="#DejaVuSerif-6f" x="300.683594"/>
     <use xlink:href="#DejaVuSerif-75" x="360.888672"/>
     <use xlink:href="#DejaVuSerif-74" x="425.292969"/>
    </g>
   </g>
  </g>
  <g id="axes_3">
   <g id="patch_8">
    <path d="M 761.259062 253.01125 
L 1055.047652 253.01125 
L 1055.047652 62.64 
L 761.259062 62.64 
z
" style="fill: #ffffff"/>
   </g>
   <g id="matplotlib.axis_5">
    <g id="xtick_13">
     <g id="line2d_29">
      <g>
       <use xlink:href="#m0287a4ac0a" x="774.077858" y="253.01125" style="stroke: #000000; stroke-width: 0.8"/>
      </g>
     </g>
     <g id="text_33">
      <!-- 0k -->
      <g transform="translate(767.86692 267.609688) scale(0.1 -0.1)">
       <use xlink:href="#DejaVuSerif-30"/>
       <use xlink:href="#DejaVuSerif-6b" x="63.623047"/>
      </g>
     </g>
    </g>
    <g id="xtick_14">
     <g id="line2d_30">
      <g>
       <use xlink:href="#m0287a4ac0a" x="827.601011" y="253.01125" style="stroke: #000000; stroke-width: 0.8"/>
      </g>
     </g>
     <g id="text_34">
      <!-- 1000k -->
      <g transform="translate(811.846324 267.609688) scale(0.1 -0.1)">
       <use xlink:href="#DejaVuSerif-31"/>
       <use xlink:href="#DejaVuSerif-30" x="63.623047"/>
       <use xlink:href="#DejaVuSerif-30" x="127.246094"/>
       <use xlink:href="#DejaVuSerif-30" x="190.869141"/>
       <use xlink:href="#DejaVuSerif-6b" x="254.492188"/>
      </g>
     </g>
    </g>
    <g id="xtick_15">
     <g id="line2d_31">
      <g>
       <use xlink:href="#m0287a4ac0a" x="881.124165" y="253.01125" style="stroke: #000000; stroke-width: 0.8"/>
      </g>
     </g>
     <g id="text_35">
      <!-- 2000k -->
      <g transform="translate(865.369477 267.609688) scale(0.1 -0.1)">
       <use xlink:href="#DejaVuSerif-32"/>
       <use xlink:href="#DejaVuSerif-30" x="63.623047"/>
       <use xlink:href="#DejaVuSerif-30" x="127.246094"/>
       <use xlink:href="#DejaVuSerif-30" x="190.869141"/>
       <use xlink:href="#DejaVuSerif-6b" x="254.492188"/>
      </g>
     </g>
    </g>
    <g id="xtick_16">
     <g id="line2d_32">
      <g>
       <use xlink:href="#m0287a4ac0a" x="934.647318" y="253.01125" style="stroke: #000000; stroke-width: 0.8"/>
      </g>
     </g>
     <g id="text_36">
      <!-- 3000k -->
      <g transform="translate(918.892631 267.609688) scale(0.1 -0.1)">
       <use xlink:href="#DejaVuSerif-33"/>
       <use xlink:href="#DejaVuSerif-30" x="63.623047"/>
       <use xlink:href="#DejaVuSerif-30" x="127.246094"/>
       <use xlink:href="#DejaVuSerif-30" x="190.869141"/>
       <use xlink:href="#DejaVuSerif-6b" x="254.492188"/>
      </g>
     </g>
    </g>
    <g id="xtick_17">
     <g id="line2d_33">
      <g>
       <use xlink:href="#m0287a4ac0a" x="988.170472" y="253.01125" style="stroke: #000000; stroke-width: 0.8"/>
      </g>
     </g>
     <g id="text_37">
      <!-- 4000k -->
      <g transform="translate(972.415784 267.609688) scale(0.1 -0.1)">
       <use xlink:href="#DejaVuSerif-34"/>
       <use xlink:href="#DejaVuSerif-30" x="63.623047"/>
       <use xlink:href="#DejaVuSerif-30" x="127.246094"/>
       <use xlink:href="#DejaVuSerif-30" x="190.869141"/>
       <use xlink:href="#DejaVuSerif-6b" x="254.492188"/>
      </g>
     </g>
    </g>
    <g id="xtick_18">
     <g id="line2d_34">
      <g>
       <use xlink:href="#m0287a4ac0a" x="1041.693625" y="253.01125" style="stroke: #000000; stroke-width: 0.8"/>
      </g>
     </g>
     <g id="text_38">
      <!-- 5000k -->
      <g transform="translate(1025.938938 267.609688) scale(0.1 -0.1)">
       <use xlink:href="#DejaVuSerif-35"/>
       <use xlink:href="#DejaVuSerif-30" x="63.623047"/>
       <use xlink:href="#DejaVuSerif-30" x="127.246094"/>
       <use xlink:href="#DejaVuSerif-30" x="190.869141"/>
       <use xlink:href="#DejaVuSerif-6b" x="254.492188"/>
      </g>
     </g>
    </g>
    <g id="text_39">
     <!-- Environment Steps -->
     <g transform="translate(849.83992 282.8075) scale(0.12 -0.12)">
      <use xlink:href="#DejaVuSerif-45"/>
      <use xlink:href="#DejaVuSerif-6e" x="72.998047"/>
      <use xlink:href="#DejaVuSerif-76" x="137.402344"/>
      <use xlink:href="#DejaVuSerif-69" x="193.896484"/>
      <use xlink:href="#DejaVuSerif-72" x="225.878906"/>
      <use xlink:href="#DejaVuSerif-6f" x="273.681641"/>
      <use xlink:href="#DejaVuSerif-6e" x="333.886719"/>
      <use xlink:href="#DejaVuSerif-6d" x="398.291016"/>
      <use xlink:href="#DejaVuSerif-65" x="493.115234"/>
      <use xlink:href="#DejaVuSerif-6e" x="552.294922"/>
      <use xlink:href="#DejaVuSerif-74" x="616.699219"/>
      <use xlink:href="#DejaVuSerif-20" x="656.884766"/>
      <use xlink:href="#DejaVuSerif-53" x="688.671875"/>
      <use xlink:href="#DejaVuSerif-74" x="757.177734"/>
      <use xlink:href="#DejaVuSerif-65" x="797.363281"/>
      <use xlink:href="#DejaVuSerif-70" x="856.542969"/>
      <use xlink:href="#DejaVuSerif-73" x="920.556641"/>
     </g>
    </g>
   </g>
   <g id="matplotlib.axis_6">
    <g id="ytick_15">
     <g id="line2d_35">
      <g>
       <use xlink:href="#mec0b2f44af" x="761.259062" y="225.826867" style="stroke: #000000; stroke-width: 0.8"/>
      </g>
     </g>
     <g id="text_40">
      <!-- 100 -->
      <g transform="translate(735.171562 229.626086) scale(0.1 -0.1)">
       <use xlink:href="#DejaVuSerif-31"/>
       <use xlink:href="#DejaVuSerif-30" x="63.623047"/>
       <use xlink:href="#DejaVuSerif-30" x="127.246094"/>
      </g>
     </g>
    </g>
    <g id="ytick_16">
     <g id="line2d_36">
      <g>
       <use xlink:href="#mec0b2f44af" x="761.259062" y="193.59879" style="stroke: #000000; stroke-width: 0.8"/>
      </g>
     </g>
     <g id="text_41">
      <!-- 200 -->
      <g transform="translate(735.171562 197.398009) scale(0.1 -0.1)">
       <use xlink:href="#DejaVuSerif-32"/>
       <use xlink:href="#DejaVuSerif-30" x="63.623047"/>
       <use xlink:href="#DejaVuSerif-30" x="127.246094"/>
      </g>
     </g>
    </g>
    <g id="ytick_17">
     <g id="line2d_37">
      <g>
       <use xlink:href="#mec0b2f44af" x="761.259062" y="161.370713" style="stroke: #000000; stroke-width: 0.8"/>
      </g>
     </g>
     <g id="text_42">
      <!-- 300 -->
      <g transform="translate(735.171562 165.169932) scale(0.1 -0.1)">
       <use xlink:href="#DejaVuSerif-33"/>
       <use xlink:href="#DejaVuSerif-30" x="63.623047"/>
       <use xlink:href="#DejaVuSerif-30" x="127.246094"/>
      </g>
     </g>
    </g>
    <g id="ytick_18">
     <g id="line2d_38">
      <g>
       <use xlink:href="#mec0b2f44af" x="761.259062" y="129.142637" style="stroke: #000000; stroke-width: 0.8"/>
      </g>
     </g>
     <g id="text_43">
      <!-- 400 -->
      <g transform="translate(735.171562 132.941855) scale(0.1 -0.1)">
       <use xlink:href="#DejaVuSerif-34"/>
       <use xlink:href="#DejaVuSerif-30" x="63.623047"/>
       <use xlink:href="#DejaVuSerif-30" x="127.246094"/>
      </g>
     </g>
    </g>
    <g id="ytick_19">
     <g id="line2d_39">
      <g>
       <use xlink:href="#mec0b2f44af" x="761.259062" y="96.91456" style="stroke: #000000; stroke-width: 0.8"/>
      </g>
     </g>
     <g id="text_44">
      <!-- 500 -->
      <g transform="translate(735.171562 100.713778) scale(0.1 -0.1)">
       <use xlink:href="#DejaVuSerif-35"/>
       <use xlink:href="#DejaVuSerif-30" x="63.623047"/>
       <use xlink:href="#DejaVuSerif-30" x="127.246094"/>
      </g>
     </g>
    </g>
    <g id="ytick_20">
     <g id="line2d_40">
      <g>
       <use xlink:href="#mec0b2f44af" x="761.259062" y="64.686483" style="stroke: #000000; stroke-width: 0.8"/>
      </g>
     </g>
     <g id="text_45">
      <!-- 600 -->
      <g transform="translate(735.171562 68.485702) scale(0.1 -0.1)">
       <use xlink:href="#DejaVuSerif-36"/>
       <use xlink:href="#DejaVuSerif-30" x="63.623047"/>
       <use xlink:href="#DejaVuSerif-30" x="127.246094"/>
      </g>
     </g>
    </g>
    <g id="text_46">
     <!-- Mean Reward (20 ep) -->
     <g transform="translate(728.675937 223.882812) rotate(-90) scale(0.12 -0.12)">
      <use xlink:href="#DejaVuSerif-4d"/>
      <use xlink:href="#DejaVuSerif-65" x="102.392578"/>
      <use xlink:href="#DejaVuSerif-61" x="161.572266"/>
      <use xlink:href="#DejaVuSerif-6e" x="221.191406"/>
      <use xlink:href="#DejaVuSerif-20" x="285.595703"/>
      <use xlink:href="#DejaVuSerif-52" x="317.382812"/>
      <use xlink:href="#DejaVuSerif-65" x="392.675781"/>
      <use xlink:href="#DejaVuSerif-77" x="451.855469"/>
      <use xlink:href="#DejaVuSerif-61" x="537.451172"/>
      <use xlink:href="#DejaVuSerif-72" x="597.070312"/>
      <use xlink:href="#DejaVuSerif-64" x="644.873047"/>
      <use xlink:href="#DejaVuSerif-20" x="708.886719"/>
      <use xlink:href="#DejaVuSerif-28" x="740.673828"/>
      <use xlink:href="#DejaVuSerif-32" x="779.6875"/>
      <use xlink:href="#DejaVuSerif-30" x="843.310547"/>
      <use xlink:href="#DejaVuSerif-20" x="906.933594"/>
      <use xlink:href="#DejaVuSerif-65" x="938.720703"/>
      <use xlink:href="#DejaVuSerif-70" x="997.900391"/>
      <use xlink:href="#DejaVuSerif-29" x="1061.914062"/>
     </g>
    </g>
   </g>
   <g id="line2d_41">
    <path d="M 774.613089 244.358011 
L 775.148321 240.571212 
L 775.683552 237.831826 
L 776.218784 232.594763 
L 776.754015 240.087791 
L 777.289247 239.040379 
L 777.824479 241.215774 
L 778.35971 240.329502 
L 779.430173 230.177658 
L 779.965405 226.87428 
L 780.500636 220.025813 
L 781.035868 229.130245 
L 781.571099 227.518841 
L 782.106331 230.258228 
L 782.641562 227.277131 
L 783.176794 226.310288 
L 783.712025 227.921692 
L 784.247257 218.253269 
L 784.782488 220.428664 
L 785.31772 221.878928 
L 785.852952 233.722746 
L 786.388183 227.760552 
L 786.923415 216.319584 
L 787.458646 226.149148 
L 787.993878 222.7652 
L 788.529109 208.020855 
L 789.064341 214.063619 
L 789.599572 212.291075 
L 790.134804 218.49498 
L 790.670035 207.134583 
L 791.205267 209.632259 
L 791.740498 218.73669 
L 792.810961 198.433002 
L 793.346193 192.309667 
L 793.881425 198.513572 
L 794.416656 213.580198 
L 794.951888 212.049364 
L 795.487119 204.798047 
L 796.022351 215.433312 
L 796.557582 193.35708 
L 797.092814 205.281468 
L 797.628045 204.072915 
L 798.163277 189.248 
L 798.698508 196.821598 
L 799.23374 209.471118 
L 799.768971 182.560674 
L 800.304203 215.352742 
L 800.839435 205.039758 
L 801.374666 190.456553 
L 801.909898 214.708181 
L 802.445129 193.679361 
L 802.980361 203.831205 
L 803.515592 201.011248 
L 804.050824 190.456553 
L 804.586055 200.527827 
L 805.121287 193.35708 
L 805.656518 194.807343 
L 806.19175 177.243041 
L 806.726981 170.394575 
L 807.262213 160.887292 
L 807.797444 153.716545 
L 808.332676 155.65023 
L 808.867908 167.494048 
L 809.938371 108.919518 
L 810.473602 157.825625 
L 811.008834 158.711897 
L 811.544065 173.053391 
L 812.079297 144.853824 
L 812.614528 153.313694 
L 813.14976 159.034178 
L 813.684991 146.626368 
L 814.220223 125.597548 
L 814.755454 130.270619 
L 815.290686 100.459648 
L 815.825917 121.085617 
L 816.361149 110.692063 
L 816.896381 140.261323 
L 817.431612 144.450973 
L 817.966844 139.05277 
L 818.502075 131.882023 
L 819.037307 148.318342 
L 819.572538 160.242731 
L 820.10777 166.204925 
L 820.643001 157.825625 
L 821.178233 157.342204 
L 822.783927 118.668512 
L 823.319159 172.247689 
L 823.854391 155.89194 
L 824.389622 130.5929 
L 824.924854 155.81137 
L 825.460085 118.346231 
L 825.995317 132.204304 
L 826.530548 120.763337 
L 827.06578 128.981496 
L 827.601011 117.86281 
L 828.136243 141.147595 
L 828.671474 126.080969 
L 829.206706 118.426801 
L 829.741937 126.806101 
L 830.277169 130.43176 
L 830.8124 141.389306 
L 831.347632 160.806722 
L 832.418095 103.118465 
L 832.953327 104.004737 
L 833.488558 147.51264 
L 834.02379 118.668512 
L 834.559021 117.137678 
L 835.629484 167.494048 
L 836.164716 132.607155 
L 836.699947 136.313384 
L 837.235179 108.436097 
L 837.77041 124.388995 
L 838.305642 110.933773 
L 838.840874 85.957014 
L 839.376105 120.360486 
L 839.911337 118.18509 
L 840.446568 138.730489 
L 840.9818 95.061445 
L 841.517031 104.810439 
L 842.052263 136.716235 
L 842.587494 135.185401 
L 843.122726 129.384347 
L 843.657957 157.664485 
L 844.193189 156.294791 
L 844.72842 113.91487 
L 845.263652 157.664485 
L 845.798883 133.090576 
L 846.334115 124.227855 
L 846.869347 109.72522 
L 847.404578 119.796494 
L 847.93981 163.626679 
L 848.475041 144.048122 
L 849.010273 89.582672 
L 849.545504 115.284564 
L 850.080736 150.977159 
L 850.615967 107.388685 
L 851.151199 133.815708 
L 851.68643 138.327639 
L 852.756893 116.573687 
L 853.292125 94.336314 
L 853.827356 155.972511 
L 854.362588 145.176105 
L 854.89782 128.095224 
L 855.433051 141.067025 
L 855.968283 126.48382 
L 857.038746 131.801453 
L 857.573977 103.037894 
L 858.109209 155.81137 
L 858.64444 131.398602 
L 859.179672 119.635354 
L 859.714903 167.171767 
L 860.785366 126.000399 
L 861.320598 119.635354 
L 861.85583 150.413167 
L 862.391061 126.24211 
L 862.926293 150.413167 
L 863.461524 91.596927 
L 863.996756 119.877064 
L 864.531987 117.379389 
L 865.067219 83.539908 
L 865.60245 111.094914 
L 866.137682 90.146664 
L 866.672913 148.479483 
L 867.208145 142.758999 
L 867.743376 148.560053 
L 868.278608 142.356148 
L 868.813839 141.550446 
L 869.349071 126.32268 
L 869.884303 131.398602 
L 870.419534 144.209263 
L 870.954766 124.872416 
L 871.489997 119.877064 
L 872.025229 132.365444 
L 872.56046 103.924166 
L 873.095692 165.076942 
L 873.630923 104.568728 
L 874.166155 147.996062 
L 874.701386 140.905885 
L 875.236618 146.142947 
L 875.771849 117.459959 
L 876.307081 102.796184 
L 876.842312 144.934394 
L 877.377544 140.744744 
L 877.912776 174.503655 
L 878.448007 167.252337 
L 878.983239 133.573997 
L 879.51847 142.033867 
L 880.053702 118.668512 
L 880.588933 149.446325 
L 881.124165 162.095845 
L 881.659396 118.587941 
L 882.194628 137.038515 
L 882.729859 145.901237 
L 883.265091 142.356148 
L 883.800322 134.78255 
L 884.335554 107.146974 
L 884.870786 100.217938 
L 885.941249 148.962904 
L 886.47648 132.043164 
L 887.011712 145.740096 
L 887.546943 146.304088 
L 888.082175 124.308425 
L 888.617406 161.451284 
L 889.152638 141.067025 
L 889.687869 153.233124 
L 890.223101 147.109789 
L 890.758332 123.663864 
L 891.293564 124.388995 
L 891.828795 97.559121 
L 892.364027 127.611803 
L 892.899259 115.365134 
L 893.43449 151.70229 
L 893.969722 158.147906 
L 894.504953 136.635664 
L 895.040185 128.981496 
L 895.575416 103.763026 
L 896.110648 138.89163 
L 896.645879 144.531543 
L 897.181111 124.066714 
L 897.716342 161.370713 
L 898.251574 132.929436 
L 898.786805 113.75373 
L 899.857268 168.058039 
L 900.3925 130.43176 
L 900.927732 146.545798 
L 901.462963 127.128382 
L 901.998195 111.900615 
L 903.068658 139.375051 
L 903.603889 115.042853 
L 904.139121 139.939042 
L 904.674352 127.370092 
L 905.209584 134.62141 
L 905.744815 133.412857 
L 906.280047 122.05246 
L 906.815278 122.37474 
L 907.35051 125.355838 
L 907.885742 101.18478 
L 908.420973 133.976848 
L 908.956205 137.119086 
L 909.491436 127.450663 
L 910.026668 98.364823 
L 910.561899 131.479172 
L 911.097131 113.512019 
L 911.632362 143.725841 
L 912.167594 137.441366 
L 912.702825 149.526895 
L 913.238057 124.066714 
L 913.773288 135.749392 
L 914.30852 125.194697 
L 914.843751 135.910533 
L 915.378983 130.028909 
L 915.914215 138.247068 
L 916.449446 153.313694 
L 916.984678 129.867768 
L 917.519909 139.616762 
L 918.055141 127.370092 
L 918.590372 149.124044 
L 919.125604 143.403561 
L 919.660835 140.905885 
L 920.196067 146.948649 
L 920.731298 159.678739 
L 921.26653 119.474214 
L 921.801761 104.327017 
L 922.336993 131.076321 
L 922.872224 151.057729 
L 923.407456 126.725531 
L 923.942688 130.270619 
L 924.477919 131.882023 
L 925.013151 125.436408 
L 925.548382 90.952366 
L 926.083614 101.26535 
L 926.618845 147.915491 
L 927.154077 118.829652 
L 927.689308 115.767985 
L 928.22454 118.346231 
L 928.759771 98.123113 
L 929.295003 83.298197 
L 929.830234 80.719951 
L 930.365466 130.351189 
L 930.900698 86.521005 
L 931.435929 100.943069 
L 931.971161 160.887292 
L 932.506392 127.692373 
L 933.041624 132.365444 
L 933.576855 107.791536 
L 934.112087 92.402629 
L 934.647318 122.05246 
L 935.18255 113.189739 
L 935.717781 109.72522 
L 936.253013 107.952676 
L 936.788244 88.77697 
L 937.323476 108.274957 
L 937.858707 117.057108 
L 938.393939 115.526274 
L 938.929171 107.549825 
L 939.464402 102.715614 
L 939.999634 86.762716 
L 940.534865 130.834611 
L 941.070097 111.417194 
L 941.605328 127.289522 
L 942.14056 92.563769 
L 942.675791 122.13303 
L 943.211023 124.872416 
L 943.746254 129.706628 
L 944.281486 95.867147 
L 944.816717 123.422153 
L 945.351949 129.303777 
L 945.887181 129.867768 
L 946.422412 112.706317 
L 946.957644 110.289212 
L 947.492875 114.801142 
L 948.028107 113.350879 
L 948.563338 128.820356 
L 949.09857 135.185401 
L 950.169033 114.156581 
L 950.704264 86.118154 
L 951.239496 126.161539 
L 951.774727 129.464917 
L 952.309959 96.350568 
L 952.84519 106.663553 
L 953.380422 114.801142 
L 953.915654 148.318342 
L 954.450885 105.61614 
L 954.986117 128.900926 
L 955.521348 112.625747 
L 956.05658 89.018681 
L 956.591811 148.882334 
L 957.127043 138.730489 
L 957.662274 158.067336 
L 958.197506 94.980875 
L 958.732737 104.004737 
L 959.267969 109.000089 
L 959.8032 100.298508 
L 960.338432 167.735759 
L 960.873663 137.844217 
L 961.408895 143.08128 
L 961.944127 130.995751 
L 962.479358 147.593211 
L 963.01459 139.697332 
L 963.549821 71.293239 
L 964.620284 135.346541 
L 965.155516 133.654567 
L 965.690747 136.474524 
L 966.225979 97.0757 
L 966.76121 118.749082 
L 967.296442 111.094914 
L 967.831673 137.924788 
L 968.366905 113.99544 
L 968.902137 103.682456 
L 969.437368 114.478862 
L 969.9726 120.924477 
L 970.507831 115.203993 
L 971.043063 99.412236 
L 971.578294 130.109479 
L 972.113526 125.597548 
L 972.648757 133.976848 
L 973.183989 102.232192 
L 973.71922 113.028598 
L 974.254452 100.379078 
L 974.789683 107.308115 
L 975.324915 120.763337 
L 975.860146 102.232192 
L 976.395378 143.645271 
L 976.93061 90.146664 
L 977.465841 122.29417 
L 978.001073 100.298508 
L 978.536304 111.739475 
L 979.071536 100.459648 
L 979.606767 126.32268 
L 980.141999 128.336935 
L 981.212462 85.231882 
L 981.747693 122.535881 
L 982.282925 130.028909 
L 982.818156 105.37443 
L 983.353388 112.464607 
L 983.888619 132.607155 
L 984.423851 112.384037 
L 984.959083 99.653946 
L 985.494314 126.000399 
L 986.029546 121.971889 
L 986.564777 115.687415 
L 987.100009 129.464917 
L 987.63524 109.48351 
L 988.170472 109.966931 
L 988.705703 130.190049 
L 989.240935 91.919208 
L 990.311398 159.92045 
L 990.846629 113.75373 
L 991.381861 110.611492 
L 991.917093 99.251095 
L 992.452324 94.416884 
L 992.987556 82.009074 
L 994.058019 143.24242 
L 994.59325 118.990792 
L 995.128482 138.408209 
L 995.663713 104.891009 
L 996.198945 121.649609 
L 996.734176 113.99544 
L 997.269408 127.853514 
L 997.804639 119.796494 
L 998.339871 94.658594 
L 998.875102 89.502102 
L 999.410334 128.981496 
L 999.945566 110.289212 
L 1000.480797 105.857851 
L 1001.016029 129.223207 
L 1001.55126 110.208641 
L 1002.086492 129.706628 
L 1002.621723 109.48351 
L 1003.692186 147.109789 
L 1004.227418 130.5929 
L 1004.762649 103.440745 
L 1005.297881 127.128382 
L 1005.833112 137.119086 
L 1006.368344 88.212979 
L 1006.903575 110.450352 
L 1007.438807 91.677497 
L 1007.974039 101.507061 
L 1008.50927 98.928815 
L 1009.044502 147.754351 
L 1009.579733 140.825314 
L 1010.114965 93.933463 
L 1011.185428 135.829963 
L 1011.720659 125.758689 
L 1012.255891 87.568417 
L 1012.791122 120.118775 
L 1013.326354 109.48351 
L 1013.861585 101.587631 
L 1014.932049 128.981496 
L 1015.46728 93.611182 
L 1016.002512 105.132719 
L 1016.537743 103.440745 
L 1017.072975 98.928815 
L 1018.143438 84.42618 
L 1018.678669 126.644961 
L 1019.213901 88.77697 
L 1019.749132 113.028598 
L 1020.284364 127.370092 
L 1020.819595 98.606534 
L 1021.354827 125.758689 
L 1021.890058 117.78224 
L 1022.42529 121.569039 
L 1022.960522 132.123734 
L 1023.495753 110.128071 
L 1024.030985 108.194387 
L 1024.566216 103.360175 
L 1025.101448 85.554163 
L 1025.636679 105.29386 
L 1026.171911 113.028598 
L 1026.707142 92.483199 
L 1027.242374 102.473903 
L 1027.777605 108.355527 
L 1028.312837 104.165877 
L 1028.848068 80.719951 
L 1029.3833 121.488468 
L 1029.918532 129.545488 
L 1030.453763 86.762716 
L 1030.988995 145.498386 
L 1031.524226 111.981186 
L 1032.059458 126.806101 
L 1032.594689 92.64434 
L 1033.129921 150.574308 
L 1033.665152 153.797115 
L 1034.735615 88.212979 
L 1035.270847 106.905264 
L 1035.806078 84.184469 
L 1036.34131 73.146353 
L 1036.876541 123.905574 
L 1037.411773 122.37474 
L 1037.947005 110.369782 
L 1038.482236 103.521315 
L 1039.017468 130.915181 
L 1040.087931 100.540218 
L 1040.623162 105.29386 
L 1041.158394 115.284564 
L 1041.693625 148.157202 
L 1041.693625 148.157202 
" clip-path="url(#pa909e07a26)" style="fill: none; stroke: #f44336; stroke-width: 1.5; stroke-linecap: square"/>
   </g>
   <g id="patch_9">
    <path d="M 761.259062 253.01125 
L 761.259062 62.64 
" style="fill: none; stroke: #000000; stroke-width: 0.8; stroke-linejoin: miter; stroke-linecap: square"/>
   </g>
   <g id="patch_10">
    <path d="M 761.259062 253.01125 
L 1055.047652 253.01125 
" style="fill: none; stroke: #000000; stroke-width: 0.8; stroke-linejoin: miter; stroke-linecap: square"/>
   </g>
   <g id="text_47">
    <!-- SpaceInvaders -->
    <g transform="translate(859.424685 56.64) scale(0.13 -0.13)">
     <defs>
      <path id="DejaVuSerif-63" d="M 3291 997 
Q 3169 466 2822 187 
Q 2475 -91 1925 -91 
Q 1200 -91 759 389 
Q 319 869 319 1663 
Q 319 2459 759 2936 
Q 1200 3413 1925 3413 
Q 2241 3413 2553 3339 
Q 2866 3266 3181 3116 
L 3181 2266 
L 2847 2266 
Q 2781 2703 2561 2903 
Q 2341 3103 1931 3103 
Q 1466 3103 1228 2742 
Q 991 2381 991 1663 
Q 991 944 1227 581 
Q 1463 219 1931 219 
Q 2303 219 2525 412 
Q 2747 606 2828 997 
L 3291 997 
z
" transform="scale(0.015625)"/>
      <path id="DejaVuSerif-49" d="M 1581 331 
L 2175 331 
L 2175 0 
L 353 0 
L 353 331 
L 947 331 
L 947 4331 
L 353 4331 
L 353 4666 
L 2175 4666 
L 2175 4331 
L 1581 4331 
L 1581 331 
z
" transform="scale(0.015625)"/>
     </defs>
     <use xlink:href="#DejaVuSerif-53"/>
     <use xlink:href="#DejaVuSerif-70" x="68.505859"/>
     <use xlink:href="#DejaVuSerif-61" x="132.519531"/>
     <use xlink:href="#DejaVuSerif-63" x="192.138672"/>
     <use xlink:href="#DejaVuSerif-65" x="248.144531"/>
     <use xlink:href="#DejaVuSerif-49" x="307.324219"/>
     <use xlink:href="#DejaVuSerif-6e" x="346.826172"/>
     <use xlink:href="#DejaVuSerif-76" x="411.230469"/>
     <use xlink:href="#DejaVuSerif-61" x="467.724609"/>
     <use xlink:href="#DejaVuSerif-64" x="527.34375"/>
     <use xlink:href="#DejaVuSerif-65" x="591.357422"/>
     <use xlink:href="#DejaVuSerif-72" x="650.537109"/>
     <use xlink:href="#DejaVuSerif-73" x="698.339844"/>
    </g>
   </g>
  </g>
  <g id="text_48">
   <!-- Local Agent Training Curves -->
   <g transform="translate(429.5675 14.237813) scale(0.14 -0.14)">
    <defs>
     <path id="DejaVuSerif-4c" d="M 353 0 
L 353 331 
L 947 331 
L 947 4331 
L 353 4331 
L 353 4666 
L 2175 4666 
L 2175 4331 
L 1581 4331 
L 1581 384 
L 3713 384 
L 3713 1166 
L 4097 1166 
L 4097 0 
L 353 0 
z
" transform="scale(0.015625)"/>
     <path id="DejaVuSerif-6c" d="M 1313 331 
L 1856 331 
L 1856 0 
L 184 0 
L 184 331 
L 738 331 
L 738 4531 
L 184 4531 
L 184 4863 
L 1313 4863 
L 1313 331 
z
" transform="scale(0.015625)"/>
     <path id="DejaVuSerif-41" d="M 1281 1691 
L 2994 1691 
L 2138 3909 
L 1281 1691 
z
M -38 0 
L -38 331 
L 372 331 
L 2034 4666 
L 2559 4666 
L 4225 331 
L 4684 331 
L 4684 0 
L 2988 0 
L 2988 331 
L 3506 331 
L 3116 1356 
L 1153 1356 
L 763 331 
L 1275 331 
L 1275 0 
L -38 0 
z
" transform="scale(0.015625)"/>
     <path id="DejaVuSerif-54" d="M 1222 0 
L 1222 331 
L 1819 331 
L 1819 4294 
L 447 4294 
L 447 3566 
L 63 3566 
L 63 4666 
L 4206 4666 
L 4206 3566 
L 3822 3566 
L 3822 4294 
L 2450 4294 
L 2450 331 
L 3047 331 
L 3047 0 
L 1222 0 
z
" transform="scale(0.015625)"/>
     <path id="DejaVuSerif-43" d="M 4513 1234 
Q 4306 581 3820 245 
Q 3334 -91 2591 -91 
Q 2134 -91 1743 65 
Q 1353 222 1050 525 
Q 700 875 529 1320 
Q 359 1766 359 2328 
Q 359 3416 987 4083 
Q 1616 4750 2644 4750 
Q 3025 4750 3456 4650 
Q 3888 4550 4384 4347 
L 4384 3272 
L 4031 3272 
Q 3916 3859 3567 4137 
Q 3219 4416 2591 4416 
Q 1844 4416 1459 3886 
Q 1075 3356 1075 2328 
Q 1075 1303 1459 773 
Q 1844 244 2591 244 
Q 3113 244 3450 492 
Q 3788 741 3938 1234 
L 4513 1234 
z
" transform="scale(0.015625)"/>
    </defs>
    <use xlink:href="#DejaVuSerif-4c"/>
    <use xlink:href="#DejaVuSerif-6f" x="66.40625"/>
    <use xlink:href="#DejaVuSerif-63" x="126.611328"/>
    <use xlink:href="#DejaVuSerif-61" x="182.617188"/>
    <use xlink:href="#DejaVuSerif-6c" x="242.236328"/>
    <use xlink:href="#DejaVuSerif-20" x="274.21875"/>
    <use xlink:href="#DejaVuSerif-41" x="306.005859"/>
    <use xlink:href="#DejaVuSerif-67" x="378.222656"/>
    <use xlink:href="#DejaVuSerif-65" x="442.236328"/>
    <use xlink:href="#DejaVuSerif-6e" x="501.416016"/>
    <use xlink:href="#DejaVuSerif-74" x="565.820312"/>
    <use xlink:href="#DejaVuSerif-20" x="606.005859"/>
    <use xlink:href="#DejaVuSerif-54" x="637.792969"/>
    <use xlink:href="#DejaVuSerif-72" x="704.492188"/>
    <use xlink:href="#DejaVuSerif-61" x="752.294922"/>
    <use xlink:href="#DejaVuSerif-69" x="811.914062"/>
    <use xlink:href="#DejaVuSerif-6e" x="843.896484"/>
    <use xlink:href="#DejaVuSerif-69" x="908.300781"/>
    <use xlink:href="#DejaVuSerif-6e" x="940.283203"/>
    <use xlink:href="#DejaVuSerif-67" x="1004.6875"/>
    <use xlink:href="#DejaVuSerif-20" x="1068.701172"/>
    <use xlink:href="#DejaVuSerif-43" x="1100.488281"/>
    <use xlink:href="#DejaVuSerif-75" x="1177.001953"/>
    <use xlink:href="#DejaVuSerif-72" x="1241.40625"/>
    <use xlink:href="#DejaVuSerif-76" x="1289.208984"/>
    <use xlink:href="#DejaVuSerif-65" x="1345.703125"/>
    <use xlink:href="#DejaVuSerif-73" x="1404.882812"/>
   </g>
  </g>
 </g>
 <defs>
  <clipPath id="p02ac71ec72">
   <rect x="56.859063" y="62.64" width="293.78859" height="190.37125"/>
  </clipPath>
  <clipPath id="pf8abbb6ccb">
   <rect x="409.059062" y="62.64" width="293.78859" height="190.37125"/>
  </clipPath>
  <clipPath id="pa909e07a26">
   <rect x="761.259062" y="62.64" width="293.78859" height="190.37125"/>
  </clipPath>
 </defs>
</svg>
